<svg width="20" height="20" viewBox="0 0 20 20" fill="none" xmlns="http://www.w3.org/2000/svg">
<g clip-path="url(#clip0_1401_297)">
<path d="M15.1154 10.2564C15.3915 10.2564 15.6154 10.0326 15.6154 9.75641C15.6154 9.48027 15.3915 9.25641 15.1154 9.25641V10.2564ZM12.6795 9.25641C12.4033 9.25641 12.1795 9.48027 12.1795 9.75641C12.1795 10.0326 12.4033 10.2564 12.6795 10.2564V9.25641ZM1.47436 4.89744L16.5769 4.89744V3.89744L1.47436 3.89744V4.89744ZM16.5769 14.6154L1.47436 14.6154L1.47436 15.6154L16.5769 15.6154V14.6154ZM1 14.141L1 5.37179H2.98023e-08L2.98023e-08 14.141H1ZM17.0513 5.37179V7.80769H18.0513V5.37179H17.0513ZM17.0513 11.7051V14.141H18.0513V11.7051H17.0513ZM1.47436 14.6154C1.21238 14.6154 1 14.403 1 14.141H2.98023e-08C2.98023e-08 14.9553 0.660092 15.6154 1.47436 15.6154L1.47436 14.6154ZM16.5769 15.6154C17.3912 15.6154 18.0513 14.9553 18.0513 14.141H17.0513C17.0513 14.403 16.8389 14.6154 16.5769 14.6154V15.6154ZM16.5769 4.89744C16.8389 4.89744 17.0513 5.10981 17.0513 5.37179H18.0513C18.0513 4.55753 17.3912 3.89744 16.5769 3.89744V4.89744ZM1.47436 3.89744C0.660093 3.89744 2.98023e-08 4.55753 2.98023e-08 5.37179H1C1 5.10981 1.21238 4.89744 1.47436 4.89744V3.89744ZM11.7051 8.30769H18.5256V7.30769L11.7051 7.30769V8.30769ZM19 8.78205V10.7308H20V8.78205H19ZM18.5256 11.2051L11.7051 11.2051V12.2051L18.5256 12.2051V11.2051ZM11.2308 10.7308V8.78205H10.2308V10.7308H11.2308ZM11.7051 11.2051C11.4431 11.2051 11.2308 10.9928 11.2308 10.7308H10.2308C10.2308 11.545 10.8909 12.2051 11.7051 12.2051V11.2051ZM19 10.7308C19 10.9927 18.7876 11.2051 18.5256 11.2051V12.2051C19.3399 12.2051 20 11.545 20 10.7308H19ZM18.5256 8.30769C18.7876 8.30769 19 8.52007 19 8.78205H20C20 7.96778 19.3399 7.30769 18.5256 7.30769V8.30769ZM11.7051 7.30769C10.8909 7.30769 10.2308 7.96778 10.2308 8.78205H11.2308C11.2308 8.52007 11.4431 8.30769 11.7051 8.30769V7.30769ZM4.88462 19.0256H8.19744V18.0256H4.88462L4.88462 19.0256ZM4.78718 19H3.03333L3.03333 20H4.78718V19ZM3.4359 19.4026V17.6487H2.4359L2.4359 19.4026H3.4359ZM3.03333 18.0513H4.78718V17.0513H3.03333L3.03333 18.0513ZM4.38462 17.6487V19.4026H5.38462L5.38462 17.6487H4.38462ZM14.6282 18.0256H11.3154V19.0256H14.6282V18.0256ZM14.7256 20H16.4795V19H14.7256V20ZM17.0769 19.4026V17.6487H16.0769V19.4026H17.0769ZM16.4795 17.0513H14.7256V18.0513H16.4795V17.0513ZM14.1282 17.6487V19.4026H15.1282V17.6487H14.1282ZM10.7179 15.1154V18.4282H11.7179V15.1154H10.7179ZM7.79487 15.1154V18.4282L8.79487 18.4282V15.1154H7.79487ZM5.85897 1.97436L8.19744 1.97436V0.974359L5.85897 0.974359V1.97436ZM5.76154 2.98023e-08L4.00769 2.98023e-08V1L5.76154 1V2.98023e-08ZM3.41026 0.597436L3.41026 2.35128H4.41026V0.597436L3.41026 0.597436ZM4.00769 2.94872L5.76154 2.94872L5.76154 1.94872L4.00769 1.94872V2.94872ZM6.35897 2.35128V0.597436L5.35897 0.597436V2.35128L6.35897 2.35128ZM13.6538 0.974359L11.3154 0.974359V1.97436L13.6538 1.97436V0.974359ZM13.7513 1L15.5051 1V2.98023e-08L13.7513 2.98023e-08V1ZM15.1026 0.597436V2.35128H16.1026V0.597436L15.1026 0.597436ZM15.5051 1.94872L13.7513 1.94872V2.94872L15.5051 2.94872V1.94872ZM14.1538 2.35128V0.597436L13.1538 0.597436V2.35128L14.1538 2.35128ZM11.7179 4.39744V1.57179L10.7179 1.57179V4.39744L11.7179 4.39744ZM15.1154 9.25641H12.6795V10.2564H15.1154V9.25641ZM8.79487 4.39744V1.57179L7.79487 1.57179L7.79487 4.39744H8.79487ZM15.5051 1C15.2828 1 15.1026 0.819772 15.1026 0.597436L16.1026 0.597436C16.1026 0.267475 15.8351 2.98023e-08 15.5051 2.98023e-08V1ZM13.7513 2.98023e-08C13.4213 2.98023e-08 13.1538 0.267481 13.1538 0.597436L14.1538 0.597436C14.1538 0.819766 13.9736 1 13.7513 1V2.98023e-08ZM11.3154 0.974359C10.9854 0.974359 10.7179 1.24184 10.7179 1.57179L11.7179 1.57179C11.7179 1.79413 11.5377 1.97436 11.3154 1.97436V0.974359ZM5.76154 2.94872C6.09149 2.94872 6.35897 2.68124 6.35897 2.35128L5.35897 2.35128C5.35897 2.12895 5.53921 1.94872 5.76154 1.94872L5.76154 2.94872ZM3.41026 2.35128C3.41026 2.68124 3.67774 2.94872 4.00769 2.94872V1.94872C4.23002 1.94872 4.41026 2.12895 4.41026 2.35128H3.41026ZM4.00769 2.98023e-08C3.67774 2.98023e-08 3.41026 0.267481 3.41026 0.597436L4.41026 0.597436C4.41026 0.819767 4.23002 1 4.00769 1V2.98023e-08ZM5.76154 1C5.53921 1 5.35897 0.819766 5.35897 0.597436L6.35897 0.597436C6.35897 0.267481 6.09149 2.98023e-08 5.76154 2.98023e-08V1ZM14.7256 17.0513C14.3957 17.0513 14.1282 17.3188 14.1282 17.6487H15.1282C15.1282 17.8711 14.948 18.0513 14.7256 18.0513V17.0513ZM17.0769 17.6487C17.0769 17.3188 16.8094 17.0513 16.4795 17.0513V18.0513C16.2572 18.0513 16.0769 17.871 16.0769 17.6487H17.0769ZM16.4795 20C16.8095 20 17.0769 19.7325 17.0769 19.4026H16.0769C16.0769 19.1802 16.2571 19 16.4795 19V20ZM14.7256 19C14.948 19 15.1282 19.1802 15.1282 19.4026H14.1282C14.1282 19.7325 14.3957 20 14.7256 20V19ZM11.3154 18.0256C11.5377 18.0256 11.7179 18.2059 11.7179 18.4282H10.7179C10.7179 18.7582 10.9854 19.0256 11.3154 19.0256V18.0256ZM4.78718 18.0513C4.56485 18.0513 4.38462 17.8711 4.38462 17.6487H5.38462C5.38462 17.3188 5.11713 17.0513 4.78718 17.0513V18.0513ZM8.19744 1.97436C7.97511 1.97436 7.79487 1.79413 7.79487 1.57179L8.79487 1.57179C8.79487 1.24184 8.52739 0.974359 8.19744 0.974359V1.97436ZM3.4359 17.6487C3.4359 17.8711 3.25566 18.0513 3.03333 18.0513L3.03333 17.0513C2.70338 17.0513 2.4359 17.3188 2.4359 17.6487H3.4359ZM3.03333 19C3.25567 19 3.4359 19.1802 3.4359 19.4026H2.4359C2.4359 19.7325 2.70337 20 3.03333 20L3.03333 19ZM13.7513 1.94872C13.9736 1.94872 14.1538 2.12895 14.1538 2.35128L13.1538 2.35128C13.1538 2.68124 13.4213 2.94872 13.7513 2.94872V1.94872ZM4.78718 20C5.11714 20 5.38462 19.7325 5.38462 19.4026H4.38462C4.38462 19.1802 4.56484 19 4.78718 19V20ZM15.1026 2.35128C15.1026 2.12895 15.2828 1.94872 15.5051 1.94872V2.94872C15.8351 2.94872 16.1026 2.68124 16.1026 2.35128H15.1026ZM8.19744 19.0256C8.5274 19.0256 8.79487 18.7582 8.79487 18.4282L7.79487 18.4282C7.79487 18.2059 7.9751 18.0256 8.19744 18.0256V19.0256Z" fill="#A6AFBD"/>
</g>
<defs>
<clipPath id="clip0_1401_297">
<rect width="20" height="20" fill="white"/>
</clipPath>
</defs>
</svg>
