<svg width="20" height="20" viewBox="0 0 20 20" fill="none" xmlns="http://www.w3.org/2000/svg">
<path fill-rule="evenodd" clip-rule="evenodd" d="M19 1H1V5H13V4.21342C13 4.05497 13.1668 3.95192 13.3085 4.02278L16.8822 5.80936C17.0393 5.88791 17.0393 6.11209 16.8822 6.19064L13.3085 7.97722C13.1668 8.04808 13 7.94503 13 7.78658V7H1V19H19V15H7V15.7866C7 15.945 6.83323 16.0481 6.69149 15.9772L3.11784 14.1906C2.96072 14.1121 2.96072 13.8879 3.11784 13.8094L6.69149 12.0228C6.83323 11.9519 7 12.055 7 12.2134V13H19V1ZM1 0C0.447716 0 0 0.447716 0 1V19C0 19.5523 0.447716 20 1 20H19C19.5523 20 20 19.5523 20 19V1C20 0.447715 19.5523 0 19 0H1Z" fill="#A6AFBD"/>
</svg>
