<svg width="25" height="30" viewBox="0 0 25 30" fill="none" xmlns="http://www.w3.org/2000/svg">
<g id="Group 6269287">
<path id="Ellipse 4" d="M13.737 28.4736C13.737 29.3166 13.0536 29.9999 12.2106 29.9999C11.3677 29.9999 10.6843 29.3166 10.6843 28.4736C10.6843 27.6307 11.3677 26.9473 12.2106 26.9473C13.0536 26.9473 13.737 27.6307 13.737 28.4736Z" fill="#FBFCFD"/>
<path id="Vector" d="M21.3685 13.7403L20.3685 13.737V13.7403H21.3685ZM3.05274 13.7403H4.05274L4.05273 13.737L3.05274 13.7403ZM22.3685 25.4211V13.7403H20.3685V25.4211H22.3685ZM21.3685 13.7403C22.3685 13.7436 22.3685 13.7431 22.3685 13.7426C22.3685 13.7424 22.3685 13.7418 22.3685 13.7413C22.3685 13.7404 22.3685 13.7394 22.3685 13.7381C22.3685 13.7357 22.3685 13.7327 22.3685 13.7291C22.3685 13.7219 22.3684 13.7123 22.3683 13.7005C22.368 13.677 22.3674 13.6443 22.3662 13.6032C22.3639 13.5211 22.3592 13.405 22.3499 13.2597C22.3312 12.9696 22.2937 12.5612 22.2182 12.0737C22.068 11.1034 21.7636 9.79339 21.1405 8.47038C20.5161 7.14465 19.5591 5.78051 18.0944 4.7488C16.6209 3.7108 14.6943 3.05263 12.2106 3.05263V5.05263C14.322 5.05263 15.8376 5.60542 16.9427 6.38387C18.0567 7.1686 18.8148 8.22639 19.3311 9.32258C19.8487 10.4215 20.1107 11.5334 20.2417 12.3796C20.3068 12.8002 20.3386 13.1487 20.354 13.3884C20.3617 13.508 20.3654 13.6001 20.367 13.6598C20.3679 13.6897 20.3683 13.7115 20.3684 13.7245C20.3685 13.7311 20.3685 13.7354 20.3685 13.7375C20.3685 13.7386 20.3685 13.7391 20.3685 13.739C20.3685 13.7389 20.3685 13.7388 20.3685 13.7384C20.3685 13.7383 20.3685 13.7379 20.3685 13.7378C20.3685 13.7374 20.3685 13.737 21.3685 13.7403ZM4.05274 25.4211V13.7403H2.05274V25.4211H4.05274ZM3.05274 13.7403C4.05273 13.737 4.05273 13.7374 4.05273 13.7378C4.05273 13.7379 4.05273 13.7383 4.05273 13.7384C4.05273 13.7388 4.05273 13.7389 4.05273 13.739C4.05273 13.7391 4.05273 13.7386 4.05274 13.7375C4.05275 13.7354 4.05277 13.7311 4.05285 13.7245C4.05301 13.7115 4.05337 13.6897 4.05422 13.6598C4.05591 13.6001 4.05952 13.508 4.06724 13.3884C4.08268 13.1487 4.11444 12.8002 4.17955 12.3796C4.31054 11.5334 4.57253 10.4215 5.09012 9.32258C5.60643 8.22639 6.36455 7.1686 7.47858 6.38387C8.58368 5.60542 10.0993 5.05263 12.2106 5.05263V3.05263C9.727 3.05263 7.80038 3.7108 6.32682 4.7488C4.86218 5.78051 3.90519 7.14465 3.28077 8.47038C2.65764 9.79339 2.35327 11.1034 2.20309 12.0737C2.12761 12.5612 2.09008 12.9696 2.07138 13.2597C2.06202 13.405 2.05735 13.5211 2.05502 13.6032C2.05386 13.6443 2.05328 13.677 2.053 13.7005C2.05285 13.7123 2.05279 13.7219 2.05276 13.7291C2.05274 13.7327 2.05274 13.7357 2.05273 13.7381C2.05273 13.7394 2.05273 13.7404 2.05274 13.7413C2.05274 13.7418 2.05274 13.7424 2.05274 13.7426C2.05274 13.7431 2.05274 13.7436 3.05274 13.7403ZM10.158 4.05263C10.158 3.13889 10.4278 2.68281 10.7097 2.43674C11.0164 2.16899 11.5092 2 12.2106 2V0C11.2261 0 10.1926 0.23338 9.39451 0.929971C8.5716 1.64824 8.158 2.71847 8.158 4.05263H10.158ZM12.2106 2C12.912 2 13.4048 2.16899 13.7116 2.43674C13.9935 2.68281 14.2633 3.13889 14.2633 4.05263H16.2633C16.2633 2.71847 15.8497 1.64824 15.0267 0.929971C14.2287 0.23338 13.1952 0 12.2106 0V2Z" fill="#FBFCFD"/>
<path id="Line 1" d="M0 25.4211H24.4211" stroke="#FBFCFD" stroke-width="2"/>
</g>
</svg>
