<svg width="24" height="30" viewBox="0 0 24 30" fill="none" xmlns="http://www.w3.org/2000/svg">
<g id="add monitoring">
<g id="Vector">
<path d="M13.5269 28.4736C13.5269 29.3166 12.8436 29.9999 12.0006 29.9999C11.1577 29.9999 10.4743 29.3166 10.4743 28.4736C10.4743 27.6307 11.1577 26.9473 12.0006 26.9473C12.8436 26.9473 13.5269 27.6307 13.5269 28.4736Z" fill="#FBFCFD"/>
<path d="M13.5269 28.4736C13.5269 29.3166 12.8436 29.9999 12.0006 29.9999C11.1577 29.9999 10.4743 29.3166 10.4743 28.4736C10.4743 27.6307 11.1577 26.9473 12.0006 26.9473C12.8436 26.9473 13.5269 27.6307 13.5269 28.4736Z" fill="url(#paint0_linear_1112_67216)"/>
<path fill-rule="evenodd" clip-rule="evenodd" d="M10.0494 3.20032C10.6579 3.10388 11.3076 3.05263 12.0006 3.05263C12.6936 3.05263 13.3433 3.10388 13.9518 3.20032C13.8479 2.82455 13.6771 2.58994 13.5015 2.43674C13.1948 2.16899 12.702 2 12.0006 2C11.2992 2 10.8064 2.16899 10.4996 2.43674C10.3241 2.58994 10.1533 2.82455 10.0494 3.20032ZM16.0465 3.76243C15.9901 2.56287 15.5791 1.59539 14.8167 0.929971C14.0186 0.23338 12.9851 0 12.0006 0C11.0161 0 9.98255 0.23338 9.18447 0.929971C8.42211 1.59539 8.01105 2.56287 7.95468 3.76242C7.27578 4.0291 6.66493 4.36267 6.11678 4.7488C4.65214 5.78051 3.69515 7.14465 3.07073 8.47038C2.44759 9.79339 2.14323 11.1034 1.99305 12.0737C1.91757 12.5612 1.88004 12.9696 1.86134 13.2597C1.85198 13.405 1.8473 13.5211 1.84498 13.6032C1.84382 13.6443 1.84324 13.677 1.84296 13.7005L1.84272 13.7291L1.84269 13.7381L1.8427 25.4211H3.8427L3.8427 13.7403L3.84269 13.739L3.84269 13.7378L3.84281 13.7245C3.84297 13.7115 3.84333 13.6897 3.84418 13.6598C3.84587 13.6001 3.84948 13.508 3.8572 13.3884C3.87264 13.1487 3.9044 12.8002 3.96951 12.3796C4.1005 11.5334 4.36249 10.4215 4.88008 9.32258C5.39639 8.22639 6.15451 7.1686 7.26854 6.38387C8.37364 5.60542 9.88924 5.05263 12.0006 5.05263C14.1119 5.05263 15.6275 5.60542 16.7326 6.38387C17.8467 7.1686 18.6048 8.22639 19.1211 9.32258C19.6387 10.4215 19.9007 11.5334 20.0317 12.3796C20.0968 12.8002 20.1285 13.1487 20.144 13.3884C20.1517 13.508 20.1553 13.6001 20.157 13.6598C20.1579 13.6897 20.1582 13.7115 20.1584 13.7245L20.1585 13.737L20.1585 13.7384L20.1585 13.7403V25.4211H22.1585L22.1585 13.7426L22.1585 13.7381L22.1585 13.7291L22.1582 13.7005C22.1579 13.677 22.1574 13.6443 22.1562 13.6032C22.1539 13.5211 22.1492 13.405 22.1398 13.2597C22.1211 12.9696 22.0836 12.5612 22.0081 12.0737C21.858 11.1034 21.5536 9.79339 20.9304 8.47038C20.306 7.14465 19.349 5.78051 17.8844 4.7488C17.3362 4.36267 16.7254 4.02911 16.0465 3.76243Z" fill="#FBFCFD"/>
<path fill-rule="evenodd" clip-rule="evenodd" d="M10.0494 3.20032C10.6579 3.10388 11.3076 3.05263 12.0006 3.05263C12.6936 3.05263 13.3433 3.10388 13.9518 3.20032C13.8479 2.82455 13.6771 2.58994 13.5015 2.43674C13.1948 2.16899 12.702 2 12.0006 2C11.2992 2 10.8064 2.16899 10.4996 2.43674C10.3241 2.58994 10.1533 2.82455 10.0494 3.20032ZM16.0465 3.76243C15.9901 2.56287 15.5791 1.59539 14.8167 0.929971C14.0186 0.23338 12.9851 0 12.0006 0C11.0161 0 9.98255 0.23338 9.18447 0.929971C8.42211 1.59539 8.01105 2.56287 7.95468 3.76242C7.27578 4.0291 6.66493 4.36267 6.11678 4.7488C4.65214 5.78051 3.69515 7.14465 3.07073 8.47038C2.44759 9.79339 2.14323 11.1034 1.99305 12.0737C1.91757 12.5612 1.88004 12.9696 1.86134 13.2597C1.85198 13.405 1.8473 13.5211 1.84498 13.6032C1.84382 13.6443 1.84324 13.677 1.84296 13.7005L1.84272 13.7291L1.84269 13.7381L1.8427 25.4211H3.8427L3.8427 13.7403L3.84269 13.739L3.84269 13.7378L3.84281 13.7245C3.84297 13.7115 3.84333 13.6897 3.84418 13.6598C3.84587 13.6001 3.84948 13.508 3.8572 13.3884C3.87264 13.1487 3.9044 12.8002 3.96951 12.3796C4.1005 11.5334 4.36249 10.4215 4.88008 9.32258C5.39639 8.22639 6.15451 7.1686 7.26854 6.38387C8.37364 5.60542 9.88924 5.05263 12.0006 5.05263C14.1119 5.05263 15.6275 5.60542 16.7326 6.38387C17.8467 7.1686 18.6048 8.22639 19.1211 9.32258C19.6387 10.4215 19.9007 11.5334 20.0317 12.3796C20.0968 12.8002 20.1285 13.1487 20.144 13.3884C20.1517 13.508 20.1553 13.6001 20.157 13.6598C20.1579 13.6897 20.1582 13.7115 20.1584 13.7245L20.1585 13.737L20.1585 13.7384L20.1585 13.7403V25.4211H22.1585L22.1585 13.7426L22.1585 13.7381L22.1585 13.7291L22.1582 13.7005C22.1579 13.677 22.1574 13.6443 22.1562 13.6032C22.1539 13.5211 22.1492 13.405 22.1398 13.2597C22.1211 12.9696 22.0836 12.5612 22.0081 12.0737C21.858 11.1034 21.5536 9.79339 20.9304 8.47038C20.306 7.14465 19.349 5.78051 17.8844 4.7488C17.3362 4.36267 16.7254 4.02911 16.0465 3.76243Z" fill="url(#paint1_linear_1112_67216)"/>
<path fill-rule="evenodd" clip-rule="evenodd" d="M24 26.4211H0V24.4211H24V26.4211Z" fill="#FBFCFD"/>
<path fill-rule="evenodd" clip-rule="evenodd" d="M24 26.4211H0V24.4211H24V26.4211Z" fill="url(#paint2_linear_1112_67216)"/>
</g>
</g>
<defs>
<linearGradient id="paint0_linear_1112_67216" x1="21.9072" y1="38.0768" x2="-5.00644" y2="37.5077" gradientUnits="userSpaceOnUse">
<stop stop-color="#FF8562"/>
<stop offset="0.854333" stop-color="#D0C018"/>
</linearGradient>
<linearGradient id="paint1_linear_1112_67216" x1="21.9072" y1="38.0768" x2="-5.00644" y2="37.5077" gradientUnits="userSpaceOnUse">
<stop stop-color="#FF8562"/>
<stop offset="0.854333" stop-color="#D0C018"/>
</linearGradient>
<linearGradient id="paint2_linear_1112_67216" x1="21.9072" y1="38.0768" x2="-5.00644" y2="37.5077" gradientUnits="userSpaceOnUse">
<stop stop-color="#FF8562"/>
<stop offset="0.854333" stop-color="#D0C018"/>
</linearGradient>
</defs>
</svg>
