<svg width="20" height="20" viewBox="0 0 20 20" fill="none" xmlns="http://www.w3.org/2000/svg">
<g clip-path="url(#clip0_1983_1209)">
<path d="M12.5 1V2H7.5C7.5 1.17157 6.82843 0.5 6 0.5H5.5H5V1V2H3.25C2.52065 2 1.82118 2.28973 1.30546 2.80546C0.789731 3.32118 0.5 4.02065 0.5 4.75V18C0.5 18.8284 1.17157 19.5 2 19.5H18C18.8284 19.5 19.5 18.8284 19.5 18V4.75C19.5 4.02065 19.2103 3.32118 18.6945 2.80546C18.1788 2.28973 17.4793 2 16.75 2H15C15 1.17157 14.3284 0.5 13.5 0.5H13H12.5V1ZM3.5 16.5V6C3.5 5.72386 3.72386 5.5 4 5.5H16C16.2761 5.5 16.5 5.72386 16.5 6V16.5H3.5Z" stroke="#A6AFBD"/>
<rect x="6.5" y="8.5" width="1" height="1" rx="0.5" stroke="#A6AFBD"/>
<rect x="9.5" y="8.5" width="1" height="1" rx="0.5" stroke="#A6AFBD"/>
<rect x="12.5" y="8.5" width="1" height="1" rx="0.5" stroke="#A6AFBD"/>
<rect x="6.5" y="12.5" width="1" height="1" rx="0.5" stroke="#A6AFBD"/>
<rect x="9.5" y="12.5" width="1" height="1" rx="0.5" stroke="#A6AFBD"/>
<rect x="12.5" y="12.5" width="1" height="1" rx="0.5" stroke="#A6AFBD"/>
</g>
<defs>
<clipPath id="clip0_1983_1209">
<rect width="20" height="20" fill="white"/>
</clipPath>
</defs>
</svg>
