<svg width="20" height="20" viewBox="0 0 20 20" fill="none" xmlns="http://www.w3.org/2000/svg">
<g id="Frame 3046">
<g id="Vector">
<path d="M9.99823 5.25002L18.2242 5.25003C17.3906 3.80578 16.1915 2.60645 14.7474 1.77263C13.3033 0.938803 11.6651 0.499883 9.99761 0.5C8.33007 0.500117 6.69195 0.939265 5.24797 1.77329C3.80399 2.60732 2.60504 3.80682 1.77168 5.25118L3.82818 8.81313L5.88467 12.3751L5.88833 12.3741C5.46993 11.6526 5.24913 10.8336 5.2482 9.99953C5.24726 9.16548 5.46621 8.34593 5.88299 7.62349C6.29977 6.90105 6.89964 6.30125 7.62213 5.88455C8.34462 5.46786 9.16419 5.24899 9.99823 5.25002Z" stroke="#50505A" stroke-linejoin="round"/>
<path d="M14.1139 12.3745L10.0009 19.4983C11.6685 19.4986 13.3067 19.0598 14.7508 18.2261C16.195 17.3924 17.3942 16.1931 18.2279 14.7489C19.0616 13.3047 19.5003 11.6665 19.5 9.99897C19.4997 8.33143 19.0604 6.69336 18.2262 5.24947L10.0002 5.24948L9.99923 5.25312C10.8333 5.25153 11.653 5.46984 12.3758 5.88605C13.0985 6.30226 13.6988 6.90165 14.1161 7.62381C14.5333 8.34598 14.7528 9.16538 14.7525 9.99942C14.7521 10.8335 14.5318 11.6527 14.1139 12.3745Z" stroke="#50505A" stroke-linejoin="round"/>
<path d="M5.88611 12.3766L1.77314 5.2527C0.939158 6.69671 0.500062 8.33484 0.5 10.0024C0.499938 11.6699 0.938911 13.3081 1.77278 14.7522C2.60665 16.1962 3.80602 17.3953 5.2503 18.2288C6.69458 19.0623 8.33285 19.5009 10.0004 19.5004L14.1134 12.3765L14.1107 12.3738C13.6951 13.0969 13.0962 13.6977 12.3743 14.1155C11.6525 14.5333 10.8333 14.7535 9.99922 14.7538C9.16517 14.754 8.3458 14.5344 7.62368 14.1171C6.90157 13.6998 6.30224 13.0994 5.88611 12.3766Z" stroke="#50505A" stroke-linejoin="round"/>
<path d="M9.99949 14.7504C12.6229 14.7504 14.7495 12.6237 14.7495 10.0004C14.7495 7.37699 12.6229 5.25032 9.99949 5.25032C7.37612 5.25032 5.24945 7.37699 5.24945 10.0004C5.24945 12.6237 7.37612 14.7504 9.99949 14.7504Z" stroke="#50505A" stroke-linejoin="round"/>
</g>
</g>
</svg>
