<svg width="20" height="20" viewBox="0 0 20 20" fill="none" xmlns="http://www.w3.org/2000/svg">
<g clip-path="url(#clip0_629_3294)">
<path d="M5.50054 10.1429L3.35283 8.60878C1.92123 7.58621 1.22244 5.8191 1.56746 4.09398L1.66819 3.59032C2.02757 1.79343 3.6053 0.5 5.43777 0.5C6.31069 0.5 7.15761 0.797085 7.83925 1.34239L9.93807 3.02145C9.97459 3.05067 10.0265 3.05067 10.063 3.02145L12.1618 1.34239C12.8435 0.797085 13.6904 0.5 14.5633 0.5C16.3958 0.5 17.9735 1.79343 18.3329 3.59032L18.4336 4.09398C18.7786 5.8191 18.0799 7.58621 16.6483 8.60878L12.0005 11.9286" stroke="#50505A" stroke-linecap="round"/>
<path d="M6.45281 19.5L3.96934 18.2583C3.95831 18.2528 3.94763 18.2462 3.93794 18.2386C3.33696 17.7653 3.52333 16.8013 3.54096 16.7171C3.54188 16.7127 3.54267 16.7097 3.54408 16.7054C3.57562 16.6095 4.0238 15.3691 5.82398 16.2708L6.96478 16.8519C7.09784 16.9197 7.25555 16.823 7.25555 16.6737V10.8842C7.25555 10.1198 7.94186 9.5 8.78843 9.5C9.63499 9.5 10.3213 10.1198 10.3213 10.8842V14.229C10.3213 14.3308 10.3978 14.4163 10.4989 14.4277L15.1095 14.9464C15.8768 15.0327 16.4528 15.6217 16.4528 16.32C16.4528 16.3751 16.4525 17.8333 15.6191 19.5" stroke="#50505A" stroke-linecap="round"/>
</g>
<defs>
<clipPath id="clip0_629_3294">
<rect width="20" height="20" fill="white"/>
</clipPath>
</defs>
</svg>
