<svg width="20" height="20" viewBox="0 0 20 20" fill="none" xmlns="http://www.w3.org/2000/svg">
<path d="M7 12C7.15317 12.2298 7.4636 12.2918 7.69336 12.1387L10.2773 10.416C10.4165 10.3233 10.5 10.1672 10.5 10V6C10.5 5.72386 10.2761 5.5 10 5.5C9.72386 5.5 9.5 5.72386 9.5 6V9.46483C9.5 9.63201 9.41645 9.78812 9.27735 9.88086L7.13867 11.3066C6.90892 11.4598 6.84683 11.7702 7 12Z" fill="#50505A"/>
<path fill-rule="evenodd" clip-rule="evenodd" d="M3.5 10.0008V9.99915C3.49924 9.11768 3.67777 8.24527 4.02475 7.43497C4.37171 6.62467 4.87985 5.89337 5.51831 5.28562C6.15674 4.67786 6.91214 4.2063 7.73853 3.89963C8.56491 3.59296 9.44507 3.45755 10.3254 3.50168C11.2058 3.54581 12.068 3.76856 12.8596 4.15634C13.6511 4.54413 14.3556 5.08884 14.93 5.75742C15.5045 6.42597 15.937 7.20441 16.2012 8.04535C16.4606 8.87103 16.5524 9.74005 16.4715 10.6014C16.4141 11.2123 16.8931 11.75 17.5171 11.75H18.9158C19.4608 11.75 19.9171 11.3323 19.9622 10.7865C19.9738 10.6462 19.9846 10.4984 19.9917 10.3448C19.9968 10.2328 20 10.1176 20 10C20 8.02219 19.4135 6.08881 18.3147 4.44431C17.2159 2.79981 15.6541 1.5181 13.8268 0.761202C11.9996 0.00433517 9.98892 -0.193693 8.0491 0.19214C6.10929 0.578005 4.32746 1.53043 2.92893 2.92893C1.53043 4.32746 0.578005 6.10929 0.19214 8.0491C-0.193693 9.98892 0.00433517 11.9996 0.761202 13.8268C1.5181 15.6541 2.79981 17.2159 4.44431 18.3147C6.08881 19.4135 8.02219 20 10 20C10.2788 20 10.5439 19.9822 10.7865 19.9622C11.3323 19.9171 11.75 19.4608 11.75 18.9158V17.5171C11.75 16.893 11.2123 16.4141 10.6014 16.4715C9.71314 16.555 8.81705 16.4545 7.96903 16.1762C7.10584 15.8929 6.31168 15.4317 5.63791 14.8223C4.96411 14.2129 4.42569 13.4688 4.05744 12.6383C3.68918 11.8078 3.49927 10.9093 3.5 10.0008ZM10.75 18.9158V17.5171C10.75 17.5017 10.7431 17.4881 10.7324 17.4789C10.7224 17.4705 10.7091 17.4658 10.6949 17.4671C9.66989 17.5634 8.63581 17.4475 7.65723 17.1263C6.6611 16.7994 5.74466 16.2672 4.9671 15.5639C4.18958 14.8607 3.56824 14.0021 3.14328 13.0437C2.71832 12.0853 2.49918 11.0484 2.5 10C2.49912 8.98294 2.70514 7.97629 3.10547 7.04132C3.50583 6.10636 4.09216 5.26261 4.82883 4.56134C5.56549 3.86008 6.43707 3.31595 7.3906 2.9621C8.34415 2.60825 9.35968 2.45203 10.3755 2.50293C11.3913 2.55387 12.3861 2.81085 13.2995 3.2583C14.2129 3.70575 15.0257 4.33429 15.6885 5.10571C16.3514 5.87714 16.8503 6.7753 17.1552 7.74561C17.4545 8.69834 17.5605 9.70105 17.4671 10.6949C17.4644 10.7244 17.4875 10.75 17.5171 10.75H18.9158C18.9418 10.75 18.9634 10.7301 18.9656 10.7042C18.9848 10.4712 19 10.2379 19 10C19 8.21997 18.4722 6.47992 17.4832 4.99988C16.4943 3.51984 15.0887 2.36627 13.4442 1.68509C11.7996 1.00391 9.99002 0.825685 8.2442 1.17294C6.49835 1.5202 4.89472 2.37738 3.63605 3.63605C2.37738 4.89472 1.5202 6.49835 1.17294 8.2442C0.825685 9.99002 1.00391 11.7996 1.68509 13.4442C2.36627 15.0887 3.51984 16.4943 4.99988 17.4832C6.47992 18.4722 8.21997 19 10 19C10.2379 19 10.4712 18.9848 10.7042 18.9656C10.7301 18.9634 10.75 18.9418 10.75 18.9158Z" fill="#50505A"/>
<path d="M16 13C14.3431 13 13 14.3431 13 16C13 17.6569 14.3431 19 16 19C17.6569 19 19 17.6569 19 16C19 14.3431 17.6569 13 16 13Z" fill="#50505A"/>
</svg>
