<svg width="20" height="20" viewBox="0 0 20 20" fill="none" xmlns="http://www.w3.org/2000/svg">
<g id="edit">
<path id="Rectangle 6 (Stroke)" fill-rule="evenodd" clip-rule="evenodd" d="M12.3619 4.6242C13.1942 3.79193 14.5435 3.79193 15.3758 4.6242C16.2081 5.45646 16.2081 6.80582 15.3758 7.63809L7.99279 15.0211C7.93042 15.0835 7.85266 15.1282 7.7674 15.1508L4.62817 15.9833C4.45561 16.029 4.27174 15.9793 4.14576 15.8528C4.01977 15.7264 3.97078 15.5423 4.01723 15.3699L4.86789 12.2125C4.89066 12.128 4.93522 12.0509 4.99712 11.989L12.3619 4.6242ZM14.6687 5.3313C14.227 4.88956 13.5108 4.88956 13.069 5.3313L12.4003 6L14 7.59968L14.6687 6.93098C15.1104 6.48924 15.1104 5.77304 14.6687 5.3313ZM13.2929 8.30678L11.6932 6.7071L5.7987 12.6016L5.20776 14.795L7.38091 14.2188L13.2929 8.30678Z" fill="#A6AFBD"/>
<rect x="0.5" y="0.5" width="19" height="19" rx="7.5" stroke="#A6AFBD"/>
</g>
</svg>
