<svg width="25" height="28" viewBox="0 0 25 28" fill="none" xmlns="http://www.w3.org/2000/svg">
<g id="Group 68">
<path id="Rectangle 34" d="M15 1.00003H2C1.44772 1.00003 1 1.44775 1 2.00003V26C1 26.5523 1.44772 27 2 27H23C23.5523 27 24 26.5523 24 26V10" stroke="#FF8562" stroke-linecap="round" stroke-linejoin="round"/>
<path id="Rectangle 35 (Stroke)" d="M18 1.00001L24 7.00001H18V1.00001Z" stroke="#FF8562" stroke-linecap="round" stroke-linejoin="round"/>
<g id="PDF">
<path d="M7.15625 13.7974H5.21387V13.5601H7.15625C7.58691 13.5601 7.93701 13.4897 8.20654 13.3491C8.47607 13.2056 8.67236 13.0137 8.79541 12.7734C8.92139 12.5332 8.98438 12.2681 8.98438 11.978C8.98438 11.6763 8.92139 11.4023 8.79541 11.1562C8.67236 10.9072 8.47607 10.7095 8.20654 10.563C7.93701 10.4136 7.58691 10.3389 7.15625 10.3389H5.39404V16.5H5.15674V10.1016H7.15625C7.61035 10.1016 7.98975 10.1792 8.29443 10.3345C8.60205 10.4897 8.8335 10.708 8.98877 10.9893C9.14404 11.2676 9.22168 11.5942 9.22168 11.9692C9.22168 12.3442 9.14404 12.6694 8.98877 12.9448C8.83643 13.2173 8.60645 13.4282 8.29883 13.5776C7.99414 13.7241 7.61328 13.7974 7.15625 13.7974Z" fill="#FF8562"/>
<path d="M12.333 16.5H10.7729L10.7817 16.2627H12.333C12.793 16.2627 13.2031 16.1528 13.5635 15.9331C13.9268 15.7134 14.2124 15.4102 14.4204 15.0234C14.6313 14.6367 14.7368 14.1929 14.7368 13.6919V12.8965C14.7368 12.5244 14.6768 12.1831 14.5566 11.8726C14.4365 11.5591 14.2681 11.2881 14.0513 11.0596C13.8345 10.8311 13.5796 10.6538 13.2866 10.5278C12.9937 10.4019 12.6758 10.3389 12.333 10.3389H10.7466V10.1016H12.333C12.7109 10.1016 13.0596 10.1689 13.3789 10.3037C13.7012 10.4385 13.981 10.6304 14.2183 10.8794C14.4585 11.1284 14.6445 11.4258 14.7764 11.7715C14.9082 12.1143 14.9741 12.4937 14.9741 12.9097V13.6919C14.9741 14.1079 14.9082 14.4888 14.7764 14.8345C14.6445 15.1772 14.4585 15.4731 14.2183 15.7222C13.981 15.9712 13.7012 16.1631 13.3789 16.2979C13.0596 16.4326 12.7109 16.5 12.333 16.5ZM10.7993 10.1016V16.5H10.562V10.1016H10.7993Z" fill="#FF8562"/>
<path d="M16.688 10.1016V16.5H16.4507V10.1016H16.688ZM19.9663 13.1074V13.3535H16.5166V13.1074H19.9663ZM20.4146 10.1016V10.3389H16.5166V10.1016H20.4146Z" fill="#FF8562"/>
<path d="M7.15625 13.7974H5.21387V13.5601H7.15625C7.58691 13.5601 7.93701 13.4897 8.20654 13.3491C8.47607 13.2056 8.67236 13.0137 8.79541 12.7734C8.92139 12.5332 8.98438 12.2681 8.98438 11.978C8.98438 11.6763 8.92139 11.4023 8.79541 11.1562C8.67236 10.9072 8.47607 10.7095 8.20654 10.563C7.93701 10.4136 7.58691 10.3389 7.15625 10.3389H5.39404V16.5H5.15674V10.1016H7.15625C7.61035 10.1016 7.98975 10.1792 8.29443 10.3345C8.60205 10.4897 8.8335 10.708 8.98877 10.9893C9.14404 11.2676 9.22168 11.5942 9.22168 11.9692C9.22168 12.3442 9.14404 12.6694 8.98877 12.9448C8.83643 13.2173 8.60645 13.4282 8.29883 13.5776C7.99414 13.7241 7.61328 13.7974 7.15625 13.7974Z" stroke="#FF8562" stroke-width="0.8" stroke-linejoin="round"/>
<path d="M12.333 16.5H10.7729L10.7817 16.2627H12.333C12.793 16.2627 13.2031 16.1528 13.5635 15.9331C13.9268 15.7134 14.2124 15.4102 14.4204 15.0234C14.6313 14.6367 14.7368 14.1929 14.7368 13.6919V12.8965C14.7368 12.5244 14.6768 12.1831 14.5566 11.8726C14.4365 11.5591 14.2681 11.2881 14.0513 11.0596C13.8345 10.8311 13.5796 10.6538 13.2866 10.5278C12.9937 10.4019 12.6758 10.3389 12.333 10.3389H10.7466V10.1016H12.333C12.7109 10.1016 13.0596 10.1689 13.3789 10.3037C13.7012 10.4385 13.981 10.6304 14.2183 10.8794C14.4585 11.1284 14.6445 11.4258 14.7764 11.7715C14.9082 12.1143 14.9741 12.4937 14.9741 12.9097V13.6919C14.9741 14.1079 14.9082 14.4888 14.7764 14.8345C14.6445 15.1772 14.4585 15.4731 14.2183 15.7222C13.981 15.9712 13.7012 16.1631 13.3789 16.2979C13.0596 16.4326 12.7109 16.5 12.333 16.5ZM10.7993 10.1016V16.5H10.562V10.1016H10.7993Z" stroke="#FF8562" stroke-width="0.8" stroke-linejoin="round"/>
<path d="M16.688 10.1016V16.5H16.4507V10.1016H16.688ZM19.9663 13.1074V13.3535H16.5166V13.1074H19.9663ZM20.4146 10.1016V10.3389H16.5166V10.1016H20.4146Z" stroke="#FF8562" stroke-width="0.8" stroke-linejoin="round"/>
</g>
<g id="Group 1">
<g id="Group 67">
<path id="Arrow 1" d="M13 19V22" stroke="#FF8562" stroke-linecap="round" stroke-linejoin="round"/>
<path id="Arrow 2" d="M11 23.5H15" stroke="#FF8562" stroke-linecap="round" stroke-linejoin="round"/>
<path id="Polygon 1" d="M11.5 21.5L13 22.5L14.5 21.5" stroke="#FF8562" stroke-linecap="round" stroke-linejoin="round"/>
</g>
</g>
</g>
</svg>
