<svg width="20" height="20" viewBox="0 0 20 20" fill="none" xmlns="http://www.w3.org/2000/svg">
<g id="Frame 234" clip-path="url(#clip0_834_155554)">
<g id="Group 256">
<g id="Group 123">
<g id="Group 122">
<path id="Rectangle 3060" d="M15.5 4V1.5C15.5 0.947715 15.0523 0.5 14.5 0.5H1.5C0.947715 0.5 0.5 0.947715 0.5 1.5V18.5C0.5 19.0523 0.947715 19.5 1.5 19.5H14.5C15.0523 19.5 15.5 19.0523 15.5 18.5V17" stroke="#A6AFBD"/>
</g>
</g>
<path id="Vector" d="M5.29099 9.81764L6.05545 9.05099C6.19376 8.91148 6.3584 8.80082 6.5398 8.72542C6.7212 8.65001 6.91577 8.61136 7.11222 8.61171L13.0058 8.60294C13.4234 7.89256 14.063 7.33919 14.8261 7.02807C15.5891 6.71695 16.4333 6.66533 17.2285 6.88116C18.0238 7.097 18.7261 7.56831 19.2271 8.22251C19.7282 8.87672 20.0002 9.67751 20.0014 10.5015C20.0026 11.3256 19.7328 12.1271 19.2336 12.7828C18.7345 13.4384 18.0336 13.9117 17.2389 14.1298C16.4443 14.3479 15.5999 14.2987 14.836 13.9898C14.0721 13.6809 13.4309 13.1293 13.0113 12.4201L12.1378 12.4214L11.2854 11.5714L10.2295 12.6303L9.17063 11.5744L8.32099 12.4265L7.11768 12.4282C6.92116 12.429 6.72644 12.3908 6.54478 12.3159C6.36312 12.2409 6.19811 12.1307 6.0593 11.9916L5.293 11.2275C5.10577 11.0408 5.00038 10.7874 5 10.523C4.99962 10.2586 5.10429 10.0049 5.29099 9.81764ZM6.76322 11.2857C6.80959 11.332 6.86464 11.3687 6.92522 11.3937C6.9858 11.4187 7.05071 11.4315 7.11625 11.4314L7.90648 11.4303L9.16862 10.1646L10.2275 11.2204L11.2834 10.1615L12.5488 11.4233L13.6379 11.4218C13.7756 11.8068 13.9957 12.1571 14.2826 12.4483C14.6666 12.8311 15.1555 13.0916 15.6874 13.1966C16.2194 13.3016 16.7705 13.2465 17.2712 13.0383C17.7719 12.8301 18.1995 12.4781 18.5001 12.0268C18.8007 11.5755 18.9608 11.0453 18.96 10.503C18.9592 9.96081 18.7977 9.43099 18.4958 8.98057C18.1939 8.53016 17.7652 8.17938 17.264 7.9726C16.7627 7.76581 16.2114 7.71231 15.6797 7.81885C15.1481 7.9254 14.66 8.1872 14.2771 8.57116C13.9674 8.84366 13.7443 9.20092 13.6353 9.59881L7.11364 9.60849C6.98155 9.60914 6.85502 9.66174 6.76139 9.75491L5.99693 10.5216L6.76322 11.2857ZM17.6278 10.1525C17.6976 10.2221 17.7452 10.3108 17.7646 10.4075C17.784 10.5042 17.7742 10.6044 17.7366 10.6955C17.699 10.7867 17.6353 10.8646 17.5534 10.9195C17.4715 10.9744 17.3751 11.0038 17.2766 11.0039C17.178 11.004 17.0816 10.9749 16.9995 10.9203C16.9174 10.8656 16.8535 10.7879 16.8156 10.6969C16.7777 10.6058 16.7677 10.5056 16.7868 10.4089C16.8059 10.3122 16.8533 10.2233 16.9229 10.1535C17.0162 10.0599 17.1429 10.0072 17.2751 10.007C17.4073 10.0068 17.5342 10.0591 17.6278 10.1525Z" fill="#A6AFBD"/>
</g>
</g>
<defs>
<clipPath id="clip0_834_155554">
<rect width="20" height="20" fill="white"/>
</clipPath>
</defs>
</svg>
