<svg width="11" height="20" viewBox="0 0 11 20" fill="none" xmlns="http://www.w3.org/2000/svg">
<g id="Frame 259">
<g id="Arrow 5">
<path d="M9.08916 4.5H1.91084C1.51629 4.5 1.27718 4.93558 1.48901 5.26844L4.34366 9.75432C4.44577 9.91478 4.5 10.101 4.5 10.2912V14.7929C4.5 15.2383 5.03857 15.4614 5.35355 15.1464L6.35355 14.1464C6.44732 14.0527 6.5 13.9255 6.5 13.7929V10.2912C6.5 10.101 6.55423 9.91478 6.65634 9.75432L9.51099 5.26844C9.72282 4.93558 9.48371 4.5 9.08916 4.5Z" stroke="#A6AFBD" stroke-linecap="round"/>
<path d="M9.08916 4.5H1.91084C1.51629 4.5 1.27718 4.93558 1.48901 5.26844L4.34366 9.75432C4.44577 9.91478 4.5 10.101 4.5 10.2912V14.7929C4.5 15.2383 5.03857 15.4614 5.35355 15.1464L6.35355 14.1464C6.44732 14.0527 6.5 13.9255 6.5 13.7929V10.2912C6.5 10.101 6.55423 9.91478 6.65634 9.75432L9.51099 5.26844C9.72282 4.93558 9.48371 4.5 9.08916 4.5Z" stroke="#A6AFBD" stroke-linecap="round"/>
</g>
</g>
</svg>
