<svg width="15" height="12" viewBox="0 0 15 12" fill="none" xmlns="http://www.w3.org/2000/svg">
<path id="Vector" d="M10.2602 6.55153L9.768 10.9262C9.68675 11.6484 9.13245 12 8.47523 12C8.42706 12 2.79559 11.2628 0.735732 10.5023C0.477274 10.4069 0.317093 10.1614 0.299103 9.88645L0.00167251 5.34098C-0.0231337 4.96186 0.230428 4.62061 0.600578 4.53496L3.55611 3.8511C3.90323 3.77078 4.21211 3.57337 4.43079 3.29208L6.65882 0.426113C7.10206 -0.158798 8.0295 0.023362 8.10248 0.0387577C8.10589 0.0394763 8.10837 0.0401278 8.11167 0.0412081C8.19518 0.068464 9.37294 0.487505 8.52151 2.18721L7.94647 3.31617C7.8948 3.41761 7.9664 3.53829 8.08019 3.54156L13.545 3.72694C14.2645 3.72694 15 4.18044 15 4.97718C15 5.77392 14.2645 6.23038 13.545 6.23038L10.4074 6.41395C10.3311 6.41734 10.2687 6.4757 10.2602 6.55153Z" fill="#D0C018"/>
</svg>
