<svg width="20" height="20" viewBox="0 0 20 20" fill="none" xmlns="http://www.w3.org/2000/svg">
<g id="Frame 267" clip-path="url(#clip0_1401_287)">
<g id="Group 87">
<path id="Vector" d="M3 9.99957C2.99918 9.0503 3.19145 8.11078 3.56511 7.23815C3.93877 6.36551 4.48601 5.57799 5.17356 4.92348C5.86111 4.26896 6.6746 3.76113 7.56457 3.43086C8.45453 3.10059 9.40237 2.95479 10.3505 3.00231C11.2985 3.04984 12.227 3.2897 13.0795 3.70731C13.932 4.12493 14.6906 4.71157 15.3093 5.43156C15.9279 6.15155 16.3937 6.98985 16.6782 7.89548C16.9575 8.78468 17.0565 9.72055 16.9693 10.6482C16.9392 10.9684 17.1903 11.25 17.5171 11.25H18.9158C19.2013 11.25 19.4403 11.0312 19.4639 10.7453C19.4835 10.5075 19.5 10.2583 19.5 10C19.5 8.12108 18.9428 6.28435 17.899 4.72209C16.8551 3.15982 15.3714 1.94218 13.6355 1.22315C11.8996 0.504116 9.98946 0.315984 8.14664 0.682544C6.30383 1.0491 4.61109 1.95389 3.28249 3.28249C1.95389 4.61109 1.0491 6.30383 0.682544 8.14664C0.315984 9.98946 0.504116 11.8996 1.22315 13.6355C1.94218 15.3714 3.15982 16.8551 4.72209 17.899C6.28435 18.9428 8.12108 19.5 10 19.5C10.2583 19.5 10.5075 19.4835 10.7453 19.4639C11.0312 19.4403 11.25 19.2013 11.25 18.9158V17.5171C11.25 17.1902 10.9684 16.9392 10.6482 16.9693C9.69152 17.0592 8.72642 16.951 7.81312 16.6513C6.88347 16.3462 6.02817 15.8494 5.30251 15.1931C4.57685 14.5367 3.99697 13.7355 3.60036 12.841C3.20375 11.9466 2.99922 10.9788 3 10.0004L3 9.99957Z" stroke="#50505A" stroke-linecap="round" stroke-linejoin="round"/>
</g>
<path id="Line 78" d="M11.5 14.5H18.5" stroke="#50505A" stroke-linecap="round"/>
<path id="Line 79" d="M13.5 16.5H18.5" stroke="#50505A" stroke-linecap="round"/>
<path id="Line 80" d="M15.5 18.5H18.5" stroke="#50505A" stroke-linecap="round"/>
</g>
<defs>
<clipPath id="clip0_1401_287">
<rect width="20" height="20" fill="white"/>
</clipPath>
</defs>
</svg>
