<svg width="12" height="12" viewBox="0 0 12 12" fill="none" xmlns="http://www.w3.org/2000/svg">
<circle cx="6" cy="6" r="5.5" stroke="#A6AFBD"/>
<path d="M6.41992 7.6123H5.33105C5.33431 7.30957 5.36035 7.05566 5.40918 6.85059C5.45801 6.64225 5.53939 6.45345 5.65332 6.28418C5.77051 6.11491 5.92513 5.93587 6.11719 5.74707C6.26693 5.60384 6.40202 5.46875 6.52246 5.3418C6.6429 5.21159 6.73893 5.07487 6.81055 4.93164C6.88216 4.78516 6.91797 4.61751 6.91797 4.42871C6.91797 4.22363 6.88379 4.04948 6.81543 3.90625C6.74707 3.76302 6.64616 3.65397 6.5127 3.5791C6.38249 3.50423 6.21973 3.4668 6.02441 3.4668C5.86165 3.4668 5.70866 3.49935 5.56543 3.56445C5.4222 3.6263 5.30664 3.72396 5.21875 3.85742C5.13086 3.98763 5.08366 4.16016 5.07715 4.375H3.90039C3.9069 3.96484 4.00456 3.61979 4.19336 3.33984C4.38216 3.0599 4.63607 2.84993 4.95508 2.70996C5.27409 2.56999 5.63053 2.5 6.02441 2.5C6.46061 2.5 6.83333 2.57487 7.14258 2.72461C7.45182 2.87109 7.68783 3.08594 7.85059 3.36914C8.0166 3.64909 8.09961 3.98763 8.09961 4.38477C8.09961 4.67122 8.04264 4.93164 7.92871 5.16602C7.81478 5.39714 7.66667 5.61361 7.48438 5.81543C7.30208 6.014 7.10514 6.21257 6.89355 6.41113C6.71126 6.57715 6.58757 6.75781 6.52246 6.95312C6.45736 7.14518 6.42318 7.36491 6.41992 7.6123ZM5.2334 9.13574C5.2334 8.95996 5.29362 8.81185 5.41406 8.69141C5.53451 8.56771 5.69889 8.50586 5.90723 8.50586C6.11556 8.50586 6.27995 8.56771 6.40039 8.69141C6.52083 8.81185 6.58105 8.95996 6.58105 9.13574C6.58105 9.31152 6.52083 9.46126 6.40039 9.58496C6.27995 9.7054 6.11556 9.76562 5.90723 9.76562C5.69889 9.76562 5.53451 9.7054 5.41406 9.58496C5.29362 9.46126 5.2334 9.31152 5.2334 9.13574Z" fill="#A6AFBD"/>
</svg>
