<svg width="20" height="20" viewBox="0 0 20 20" fill="none" xmlns="http://www.w3.org/2000/svg">
<g id="Frame 263" clip-path="url(#clip0_317_2)">
<g id="Vector (Stroke)">
<path fill-rule="evenodd" clip-rule="evenodd" d="M12.8945 14.9136C12.6197 15.1008 12.3353 15.268 12.0435 15.4152C12.0298 15.4221 12.0162 15.4289 12.0025 15.4357C9.15397 16.851 5.60359 16.3719 3.2302 13.9985C0.256602 11.0249 0.256602 6.20379 3.2302 3.2302C6.20379 0.256602 11.0249 0.256602 13.9985 3.2302C16.3719 5.60359 16.851 9.15397 15.4357 12.0025C15.4289 12.0162 15.4221 12.0298 15.4152 12.0435C15.268 12.3353 15.1008 12.6197 14.9136 12.8945L18.777 16.7579C19.0743 17.0553 19.0743 17.5374 18.777 17.8348L17.8348 18.777C17.5374 19.0743 17.0553 19.0743 16.7579 18.777L12.8945 14.9136ZM16.177 12.7438C17.9641 9.47425 17.4737 5.29112 14.7056 2.52309C11.3415 -0.84103 5.88721 -0.841029 2.52309 2.52309C-0.84103 5.88721 -0.84103 11.3415 2.52309 14.7056C5.29112 17.4737 9.47425 17.9641 12.7438 16.177L16.0508 19.4841C16.7387 20.172 17.854 20.172 18.5419 19.4841L19.4841 18.5419C20.172 17.854 20.172 16.7387 19.4841 16.0508L16.177 12.7438ZM9.79172 6.17663C10.3995 5.56888 10.3995 4.58351 9.79172 3.97576C9.18396 3.36801 8.1986 3.36801 7.59085 3.97576C6.98309 4.58351 6.98309 5.56888 7.59085 6.17663C8.1986 6.78439 9.18396 6.78439 9.79172 6.17663ZM10.4988 3.26865C11.4971 4.26693 11.4971 5.88546 10.4988 6.88374C9.50055 7.88202 7.88202 7.88202 6.88374 6.88374C5.88546 5.88546 5.88546 4.26693 6.88374 3.26865C7.88202 2.27038 9.50055 2.27038 10.4988 3.26865Z" fill="#50505A"/>
<path fill-rule="evenodd" clip-rule="evenodd" d="M12.8945 14.9136C12.6197 15.1008 12.3353 15.268 12.0435 15.4152C12.0298 15.4221 12.0162 15.4289 12.0025 15.4357C9.15397 16.851 5.60359 16.3719 3.2302 13.9985C0.256602 11.0249 0.256602 6.20379 3.2302 3.2302C6.20379 0.256602 11.0249 0.256602 13.9985 3.2302C16.3719 5.60359 16.851 9.15397 15.4357 12.0025C15.4289 12.0162 15.4221 12.0298 15.4152 12.0435C15.268 12.3353 15.1008 12.6197 14.9136 12.8945L18.777 16.7579C19.0743 17.0553 19.0743 17.5374 18.777 17.8348L17.8348 18.777C17.5374 19.0743 17.0553 19.0743 16.7579 18.777L12.8945 14.9136ZM16.177 12.7438C17.9641 9.47425 17.4737 5.29112 14.7056 2.52309C11.3415 -0.84103 5.88721 -0.841029 2.52309 2.52309C-0.84103 5.88721 -0.84103 11.3415 2.52309 14.7056C5.29112 17.4737 9.47425 17.9641 12.7438 16.177L16.0508 19.4841C16.7387 20.172 17.854 20.172 18.5419 19.4841L19.4841 18.5419C20.172 17.854 20.172 16.7387 19.4841 16.0508L16.177 12.7438ZM9.79172 6.17663C10.3995 5.56888 10.3995 4.58351 9.79172 3.97576C9.18396 3.36801 8.1986 3.36801 7.59085 3.97576C6.98309 4.58351 6.98309 5.56888 7.59085 6.17663C8.1986 6.78439 9.18396 6.78439 9.79172 6.17663ZM10.4988 3.26865C11.4971 4.26693 11.4971 5.88546 10.4988 6.88374C9.50055 7.88202 7.88202 7.88202 6.88374 6.88374C5.88546 5.88546 5.88546 4.26693 6.88374 3.26865C7.88202 2.27038 9.50055 2.27038 10.4988 3.26865Z" fill="url(#paint0_linear_317_2)"/>
</g>
</g>
<defs>
<linearGradient id="paint0_linear_317_2" x1="18.1132" y1="25.3846" x2="-3.92311" y2="24.8122" gradientUnits="userSpaceOnUse">
<stop stop-color="#FF8562"/>
<stop offset="0.854333" stop-color="#D0C018"/>
</linearGradient>
<clipPath id="clip0_317_2">
<rect width="20" height="20" fill="white"/>
</clipPath>
</defs>
</svg>
