<svg width="20" height="20" viewBox="0 0 20 20" fill="none" xmlns="http://www.w3.org/2000/svg">
<g clip-path="url(#clip0_2005_1650)">
<path d="M10.421 16.079L8.62563 17.8744C6.86827 19.6317 4.01903 19.6317 2.26167 17.8744C0.50431 16.117 0.50431 13.2678 2.26167 11.5104L3.69355 10.0785C3.9217 9.85038 4.24591 9.74633 4.56421 9.7991L6.59995 10.1366M9.71391 4.05817L11.4541 2.31802C13.2114 0.56066 16.0607 0.56066 17.818 2.31802C19.5754 4.07538 19.5754 6.92462 17.818 8.68198L16.421 10.079C16.2043 10.2957 15.9003 10.4011 15.596 10.365L13.671 10.1366M15.0858 5.18629L5.18629 15.0858" stroke="#50505A" stroke-linecap="round"/>
</g>
<defs>
<clipPath id="clip0_2005_1650">
<rect width="20" height="20" fill="white"/>
</clipPath>
</defs>
</svg>
