<svg width="28" height="21" viewBox="0 0 28 21" fill="none" xmlns="http://www.w3.org/2000/svg">
<path d="M1.05 0C0.470101 0 0 0.470101 0 1.05V1.78987L13.9997 14.4562L28 1.78927V1.05C28 0.470101 27.5299 0 26.95 0H1.05Z" fill="#50505A"/>
<path d="M28 3.67725L18.9114 11.9002L27.9876 20.112C27.9958 20.0592 28 20.0051 28 19.95V3.67725Z" fill="#50505A"/>
<path d="M26.8824 21L17.8681 12.8442L14.9389 15.4944C14.4057 15.9769 13.5936 15.9769 13.0604 15.4944L10.1312 12.8442L1.11696 21H26.8824Z" fill="#50505A"/>
<path d="M0.0123354 20.1114L9.0879 11.9002L0 3.67785V19.95C0 20.0049 0.00421371 20.0588 0.0123354 20.1114Z" fill="#50505A"/>
</svg>
