<svg width="12" height="29" viewBox="0 0 12 29" fill="none" xmlns="http://www.w3.org/2000/svg">
<g id="!">
<path d="M11 1L8.42029 17.1264H3.66648L1 1H11ZM2.7643 24.802C2.7643 23.9693 3.06503 23.2753 3.66648 22.7201C4.26794 22.1533 5.04867 21.8699 6.00869 21.8699C6.9687 21.8699 7.74365 22.1533 8.33354 22.7201C8.935 23.2753 9.23572 23.9693 9.23572 24.802C9.23572 25.6348 8.935 26.3346 8.33354 26.9013C7.74365 27.4565 6.9687 27.7341 6.00869 27.7341C5.04867 27.7341 4.26794 27.4565 3.66648 26.9013C3.06503 26.3346 2.7643 25.6348 2.7643 24.802Z" stroke="#A6AFBD" stroke-linejoin="round"/>
<path d="M11 1L8.42029 17.1264H3.66648L1 1H11ZM2.7643 24.802C2.7643 23.9693 3.06503 23.2753 3.66648 22.7201C4.26794 22.1533 5.04867 21.8699 6.00869 21.8699C6.9687 21.8699 7.74365 22.1533 8.33354 22.7201C8.935 23.2753 9.23572 23.9693 9.23572 24.802C9.23572 25.6348 8.935 26.3346 8.33354 26.9013C7.74365 27.4565 6.9687 27.7341 6.00869 27.7341C5.04867 27.7341 4.26794 27.4565 3.66648 26.9013C3.06503 26.3346 2.7643 25.6348 2.7643 24.802Z" stroke="url(#paint0_linear_503_2015)" stroke-linejoin="round"/>
</g>
<defs>
<linearGradient id="paint0_linear_503_2015" x1="10.0566" y1="34.9318" x2="-0.967951" y2="34.8246" gradientUnits="userSpaceOnUse">
<stop stop-color="#FF8562"/>
<stop offset="0.854333" stop-color="#D0C018"/>
</linearGradient>
</defs>
</svg>
