<svg width="20" height="20" viewBox="0 0 20 20" fill="none" xmlns="http://www.w3.org/2000/svg">
<g id="Frame 237" clip-path="url(#clip0_342_2131)">
<g id="Group 216">
<g id="o u t">
<path d="M3.97812 12.515C4.33146 12.1717 4.75479 12 5.24813 12C5.74146 12 6.16313 12.1717 6.51313 12.515C6.86646 12.855 7.04312 13.265 7.04312 13.745C7.04312 14.225 6.86646 14.6367 6.51313 14.98C6.16313 15.3233 5.74146 15.495 5.24813 15.495C4.75479 15.495 4.33146 15.3233 3.97812 14.98C3.62812 14.6367 3.45312 14.225 3.45312 13.745C3.45312 13.265 3.62812 12.855 3.97812 12.515ZM6.44313 12.585C6.11313 12.2617 5.71479 12.1 5.24813 12.1C4.78146 12.1 4.38146 12.2617 4.04813 12.585C3.71813 12.905 3.55312 13.2917 3.55312 13.745C3.55312 14.1983 3.71979 14.5867 4.05313 14.91C4.38646 15.2333 4.78479 15.395 5.24813 15.395C5.71146 15.395 6.10979 15.2333 6.44313 14.91C6.77646 14.5867 6.94313 14.1983 6.94313 13.745C6.94313 13.2917 6.77646 12.905 6.44313 12.585Z" fill="#A6AFBD"/>
<path d="M12.1139 12V14.075C12.1139 14.5283 11.9923 14.8783 11.7489 15.125C11.5089 15.3717 11.1689 15.495 10.7289 15.495C10.2889 15.495 9.94728 15.3717 9.70395 15.125C9.46395 14.8783 9.34395 14.5283 9.34395 14.075V12H9.44395V14.075C9.44395 14.495 9.55561 14.82 9.77895 15.05C10.0056 15.28 10.3223 15.395 10.7289 15.395C11.1356 15.395 11.4506 15.28 11.6739 15.05C11.9006 14.82 12.0139 14.495 12.0139 14.075V12H12.1139Z" fill="#A6AFBD"/>
<path d="M16.73 12.1H15.53V15.495H15.43V12.1H14.23V12H16.73V12.1Z" fill="#A6AFBD"/>
<path d="M3.97812 12.515C4.33146 12.1717 4.75479 12 5.24813 12C5.74146 12 6.16313 12.1717 6.51313 12.515C6.86646 12.855 7.04312 13.265 7.04312 13.745C7.04312 14.225 6.86646 14.6367 6.51313 14.98C6.16313 15.3233 5.74146 15.495 5.24813 15.495C4.75479 15.495 4.33146 15.3233 3.97812 14.98C3.62812 14.6367 3.45312 14.225 3.45312 13.745C3.45312 13.265 3.62812 12.855 3.97812 12.515ZM6.44313 12.585C6.11313 12.2617 5.71479 12.1 5.24813 12.1C4.78146 12.1 4.38146 12.2617 4.04813 12.585C3.71813 12.905 3.55312 13.2917 3.55312 13.745C3.55312 14.1983 3.71979 14.5867 4.05313 14.91C4.38646 15.2333 4.78479 15.395 5.24813 15.395C5.71146 15.395 6.10979 15.2333 6.44313 14.91C6.77646 14.5867 6.94313 14.1983 6.94313 13.745C6.94313 13.2917 6.77646 12.905 6.44313 12.585Z" stroke="#A6AFBD" stroke-width="0.9" stroke-linejoin="round"/>
<path d="M12.1139 12V14.075C12.1139 14.5283 11.9923 14.8783 11.7489 15.125C11.5089 15.3717 11.1689 15.495 10.7289 15.495C10.2889 15.495 9.94728 15.3717 9.70395 15.125C9.46395 14.8783 9.34395 14.5283 9.34395 14.075V12H9.44395V14.075C9.44395 14.495 9.55561 14.82 9.77895 15.05C10.0056 15.28 10.3223 15.395 10.7289 15.395C11.1356 15.395 11.4506 15.28 11.6739 15.05C11.9006 14.82 12.0139 14.495 12.0139 14.075V12H12.1139Z" stroke="#A6AFBD" stroke-width="0.9" stroke-linejoin="round"/>
<path d="M16.73 12.1H15.53V15.495H15.43V12.1H14.23V12H16.73V12.1Z" stroke="#A6AFBD" stroke-width="0.9" stroke-linejoin="round"/>
</g>
<g id="Group 213">
<rect id="Rectangle 3066" x="0.5" y="0.5" width="19" height="19" rx="0.5" stroke="#A6AFBD"/>
<g id="Group 211">
<g id="Group 210">
<path id="Arrow 2" d="M1 6H13" stroke="#A6AFBD" stroke-width="2"/>
<path id="Polygon 1" d="M16.8822 6.19064C17.0393 6.11209 17.0393 5.88791 16.8822 5.80936L13.3085 4.02278C13.1668 3.95192 13 4.05497 13 4.21342V7.78658C13 7.94503 13.1668 8.04808 13.3085 7.97722L16.8822 6.19064Z" fill="#A6AFBD"/>
</g>
</g>
</g>
</g>
</g>
<defs>
<clipPath id="clip0_342_2131">
<rect width="20" height="20" fill="white"/>
</clipPath>
</defs>
</svg>
