<svg width="20" height="20" viewBox="0 0 20 20" fill="none" xmlns="http://www.w3.org/2000/svg">
<g clip-path="url(#clip0_1401_863)">
<path d="M4.29101 11.8262C4.09252 11.6283 3.98621 11.3562 3.99798 11.0761L4.20639 6.1187C4.24996 5.08232 5.07864 4.25126 6.11488 4.20472L11.0717 3.98207C11.3517 3.96949 11.6242 4.07502 11.8226 4.27294L18.9858 11.4155C19.3768 11.8055 19.3777 12.4386 18.9878 12.8297L12.8683 18.9668C12.4784 19.3579 11.8452 19.3588 11.4541 18.9688L4.29101 11.8262Z" stroke="#A6AFBD" stroke-linejoin="round"/>
<circle cx="8.68945" cy="8.68075" r="1.77778" transform="rotate(-45.0823 8.68945 8.68075)" stroke="#A6AFBD"/>
<path d="M8.68962 8.68065L8.28306 8.84874C6.85291 9.44003 5.23133 9.34781 3.87744 8.59819V8.59819C2.54577 7.86087 1.61447 6.56573 1.33944 5.06862L0.500154 0.500003" stroke="#A6AFBD" stroke-linecap="round"/>
</g>
<defs>
<clipPath id="clip0_1401_863">
<rect width="20" height="20" fill="white"/>
</clipPath>
</defs>
</svg>
