<svg width="22" height="22" viewBox="0 0 22 22" fill="none" xmlns="http://www.w3.org/2000/svg">
<path d="M14.5077 7.01676L11.2477 10.6772L7.36072 15.2126M8.34678 1.64555C8.87512 1.75059 9.42354 1.6415 9.87146 1.34227C10.5546 0.885909 11.4454 0.885909 12.1285 1.34227C12.5765 1.6415 13.1249 1.75059 13.6532 1.64555C14.459 1.48536 15.282 1.82624 15.7385 2.5093C16.0378 2.95716 16.5027 3.26782 17.031 3.37296C17.8368 3.53332 18.4667 4.16319 18.627 4.96895C18.7322 5.49727 19.0428 5.9622 19.4907 6.26152C20.1738 6.71802 20.5146 7.54099 20.3544 8.34678C20.2494 8.87512 20.3585 9.42354 20.6577 9.87146C21.1141 10.5546 21.1141 11.4454 20.6577 12.1285C20.3585 12.5765 20.2494 13.1249 20.3544 13.6532C20.5146 14.459 20.1738 15.282 19.4907 15.7385C19.0428 16.0378 18.7322 16.5027 18.627 17.031C18.4667 17.8368 17.8368 18.4667 17.031 18.627C16.5027 18.7322 16.0378 19.0428 15.7385 19.4907C15.282 20.1738 14.459 20.5146 13.6532 20.3544C13.1249 20.2494 12.5765 20.3585 12.1285 20.6577C11.4454 21.1141 10.5546 21.1141 9.87146 20.6577C9.42354 20.3585 8.87512 20.2494 8.34678 20.3544C7.54099 20.5146 6.71802 20.1738 6.26152 19.4907C5.9622 19.0428 5.49727 18.7322 4.96895 18.627C4.16319 18.4667 3.53332 17.8368 3.37296 17.031C3.26782 16.5027 2.95716 16.0378 2.5093 15.7385C1.82624 15.282 1.48536 14.459 1.64555 13.6532C1.75059 13.1249 1.6415 12.5765 1.34227 12.1285C0.885909 11.4454 0.885909 10.5546 1.34227 9.87146C1.6415 9.42354 1.75059 8.87512 1.64555 8.34678C1.48536 7.54099 1.82624 6.71802 2.5093 6.26152C2.95716 5.9622 3.26781 5.49727 3.37296 4.96895C3.53332 4.16319 4.16319 3.53332 4.96895 3.37296C5.49727 3.26781 5.9622 2.95716 6.26152 2.5093C6.71802 1.82624 7.54099 1.48536 8.34678 1.64555ZM5.27361 8.16356V7.57487C5.27361 7.15182 5.37884 6.76701 5.58931 6.42042C5.79977 6.07383 6.10085 5.79604 6.49255 5.58707C6.88425 5.3781 7.34902 5.27361 7.88688 5.27361C8.43642 5.27361 8.90412 5.3781 9.28998 5.58707C9.68167 5.79604 9.98275 6.07383 10.1932 6.42042C10.4037 6.76701 10.5089 7.15182 10.5089 7.57487V8.16356C10.5089 8.57641 10.4037 8.95613 10.1932 9.30273C9.9886 9.64932 9.69044 9.9271 9.29875 10.1361C8.91289 10.345 8.44812 10.4495 7.90442 10.4495C7.36072 10.4495 6.89009 10.345 6.49255 10.1361C6.10085 9.9271 5.79977 9.64932 5.58931 9.30273C5.37884 8.95613 5.27361 8.57641 5.27361 8.16356ZM11.4911 14.4328V13.8364C11.4911 13.4185 11.5963 13.0362 11.8068 12.6896C12.0172 12.343 12.3183 12.0653 12.71 11.8563C13.1017 11.6473 13.5665 11.5428 14.1044 11.5428C14.6539 11.5428 15.1216 11.6473 15.5075 11.8563C15.8991 12.0653 16.2002 12.343 16.4107 12.6896C16.6212 13.0362 16.7264 13.4185 16.7264 13.8364V14.4328C16.7264 14.8507 16.6212 15.233 16.4107 15.5796C16.2061 15.9262 15.9079 16.204 15.5162 16.4129C15.1304 16.6219 14.6656 16.7264 14.1219 16.7264C13.5782 16.7264 13.1105 16.6219 12.7188 16.4129C12.3271 16.204 12.0231 15.9262 11.8068 15.5796C11.5963 15.233 11.4911 14.8507 11.4911 14.4328Z" stroke="#50505A" stroke-linecap="round"/>
<path d="M14.5077 7.01676L11.2477 10.6772L7.36072 15.2126M8.34678 1.64555C8.87512 1.75059 9.42354 1.6415 9.87146 1.34227C10.5546 0.885909 11.4454 0.885909 12.1285 1.34227C12.5765 1.6415 13.1249 1.75059 13.6532 1.64555C14.459 1.48536 15.282 1.82624 15.7385 2.5093C16.0378 2.95716 16.5027 3.26782 17.031 3.37296C17.8368 3.53332 18.4667 4.16319 18.627 4.96895C18.7322 5.49727 19.0428 5.9622 19.4907 6.26152C20.1738 6.71802 20.5146 7.54099 20.3544 8.34678C20.2494 8.87512 20.3585 9.42354 20.6577 9.87146C21.1141 10.5546 21.1141 11.4454 20.6577 12.1285C20.3585 12.5765 20.2494 13.1249 20.3544 13.6532C20.5146 14.459 20.1738 15.282 19.4907 15.7385C19.0428 16.0378 18.7322 16.5027 18.627 17.031C18.4667 17.8368 17.8368 18.4667 17.031 18.627C16.5027 18.7322 16.0378 19.0428 15.7385 19.4907C15.282 20.1738 14.459 20.5146 13.6532 20.3544C13.1249 20.2494 12.5765 20.3585 12.1285 20.6577C11.4454 21.1141 10.5546 21.1141 9.87146 20.6577C9.42354 20.3585 8.87512 20.2494 8.34678 20.3544C7.54099 20.5146 6.71802 20.1738 6.26152 19.4907C5.9622 19.0428 5.49727 18.7322 4.96895 18.627C4.16319 18.4667 3.53332 17.8368 3.37296 17.031C3.26782 16.5027 2.95716 16.0378 2.5093 15.7385C1.82624 15.282 1.48536 14.459 1.64555 13.6532C1.75059 13.1249 1.6415 12.5765 1.34227 12.1285C0.885909 11.4454 0.885909 10.5546 1.34227 9.87146C1.6415 9.42354 1.75059 8.87512 1.64555 8.34678C1.48536 7.54099 1.82624 6.71802 2.5093 6.26152C2.95716 5.9622 3.26781 5.49727 3.37296 4.96895C3.53332 4.16319 4.16319 3.53332 4.96895 3.37296C5.49727 3.26781 5.9622 2.95716 6.26152 2.5093C6.71802 1.82624 7.54099 1.48536 8.34678 1.64555ZM5.27361 8.16356V7.57487C5.27361 7.15182 5.37884 6.76701 5.58931 6.42042C5.79977 6.07383 6.10085 5.79604 6.49255 5.58707C6.88425 5.3781 7.34902 5.27361 7.88688 5.27361C8.43642 5.27361 8.90412 5.3781 9.28998 5.58707C9.68167 5.79604 9.98275 6.07383 10.1932 6.42042C10.4037 6.76701 10.5089 7.15182 10.5089 7.57487V8.16356C10.5089 8.57641 10.4037 8.95613 10.1932 9.30273C9.9886 9.64932 9.69044 9.9271 9.29875 10.1361C8.91289 10.345 8.44812 10.4495 7.90442 10.4495C7.36072 10.4495 6.89009 10.345 6.49255 10.1361C6.10085 9.9271 5.79977 9.64932 5.58931 9.30273C5.37884 8.95613 5.27361 8.57641 5.27361 8.16356ZM11.4911 14.4328V13.8364C11.4911 13.4185 11.5963 13.0362 11.8068 12.6896C12.0172 12.343 12.3183 12.0653 12.71 11.8563C13.1017 11.6473 13.5665 11.5428 14.1044 11.5428C14.6539 11.5428 15.1216 11.6473 15.5075 11.8563C15.8991 12.0653 16.2002 12.343 16.4107 12.6896C16.6212 13.0362 16.7264 13.4185 16.7264 13.8364V14.4328C16.7264 14.8507 16.6212 15.233 16.4107 15.5796C16.2061 15.9262 15.9079 16.204 15.5162 16.4129C15.1304 16.6219 14.6656 16.7264 14.1219 16.7264C13.5782 16.7264 13.1105 16.6219 12.7188 16.4129C12.3271 16.204 12.0231 15.9262 11.8068 15.5796C11.5963 15.233 11.4911 14.8507 11.4911 14.4328Z" stroke="url(#paint0_linear_657_3109)" stroke-linecap="round"/>
<defs>
<linearGradient id="paint0_linear_657_3109" x1="15.6458" y1="19.8098" x2="3.02691" y2="19.4821" gradientUnits="userSpaceOnUse">
<stop stop-color="#FF8562"/>
<stop offset="0.854333" stop-color="#D0C018"/>
</linearGradient>
</defs>
</svg>
