<svg width="42" height="42" viewBox="0 0 42 42" fill="none" xmlns="http://www.w3.org/2000/svg">
<g id="Frame 3098">
<g id="Vector">
<path d="M27.7385 13.3484L21.4762 20.3799L14.0095 29.0921M15.9037 3.03071C16.9186 3.23248 17.972 3.02293 18.8325 2.44813C20.1448 1.57149 21.8559 1.57149 23.1682 2.44813C24.0286 3.02293 25.0821 3.23248 26.097 3.03071C27.6448 2.72299 29.2257 3.3778 30.1026 4.6899C30.6776 5.55021 31.5707 6.14696 32.5855 6.34894C34.1334 6.65699 35.3433 7.86692 35.6513 9.41473C35.8533 10.4296 36.4501 11.3227 37.3104 11.8977C38.6225 12.7746 39.2773 14.3554 38.9696 15.9033C38.7678 16.9182 38.9774 17.9717 39.5521 18.8321C40.4288 20.1444 40.4288 21.8555 39.5521 23.1678C38.9774 24.0282 38.7678 25.0817 38.9696 26.0966C39.2773 27.6445 38.6225 29.2253 37.3104 30.1023C36.4501 30.6772 35.8533 31.5703 35.6513 32.5852C35.3433 34.133 34.1334 35.3429 32.5855 35.651C31.5707 35.8529 30.6776 36.4497 30.1026 37.31C29.2257 38.6221 27.6448 39.2769 26.097 38.9692C25.0821 38.7674 24.0286 38.977 23.1682 39.5518C21.8559 40.4284 20.1448 40.4284 18.8325 39.5518C17.9721 38.977 16.9186 38.7674 15.9037 38.9692C14.3558 39.2769 12.7749 38.6221 11.898 37.31C11.3231 36.4497 10.43 35.8529 9.4151 35.651C7.86729 35.3429 6.65735 34.133 6.34931 32.5852C6.14733 31.5703 5.55058 30.6772 4.69027 30.1023C3.37816 29.2253 2.72335 27.6445 3.03108 26.0966C3.23284 25.0817 3.02329 24.0282 2.4485 23.1678C1.57185 21.8555 1.57185 20.1444 2.4485 18.8321C3.02329 17.9717 3.23284 16.9182 3.03108 15.9033C2.72335 14.3554 3.37816 12.7746 4.69027 11.8977C5.55058 11.3227 6.14733 10.4296 6.34931 9.41473C6.65735 7.86692 7.86729 6.65699 9.4151 6.34894C10.43 6.14696 11.3231 5.55022 11.898 4.6899C12.7749 3.3778 14.3558 2.72299 15.9037 3.03071ZM10.0003 15.5514V14.4205C10.0003 13.6079 10.2025 12.8687 10.6068 12.2029C11.011 11.5371 11.5894 11.0035 12.3418 10.6021C13.0942 10.2007 13.987 9.99995 15.0202 9.99995C16.0759 9.99995 16.9743 10.2007 17.7155 10.6021C18.4679 11.0035 19.0463 11.5371 19.4506 12.2029C19.8548 12.8687 20.057 13.6079 20.057 14.4205V15.5514C20.057 16.3444 19.8548 17.0738 19.4506 17.7396C19.0575 18.4054 18.4848 18.939 17.7323 19.3404C16.9911 19.7418 16.0983 19.9425 15.0539 19.9425C14.0095 19.9425 13.1055 19.7418 12.3418 19.3404C11.5894 18.939 11.011 18.4054 10.6068 17.7396C10.2025 17.0738 10.0003 16.3444 10.0003 15.5514ZM21.9437 27.5941V26.4486C21.9437 25.6457 22.1458 24.9114 22.5501 24.2456C22.9544 23.5798 23.5327 23.0462 24.2852 22.6448C25.0376 22.2434 25.9304 22.0427 26.9636 22.0427C28.0192 22.0427 28.9176 22.2434 29.6588 22.6448C30.4112 23.0462 30.9896 23.5798 31.3939 24.2456C31.7982 24.9114 32.0003 25.6457 32.0003 26.4486V27.5941C32.0003 28.3969 31.7982 29.1312 31.3939 29.797C31.0008 30.4628 30.4281 30.9964 29.6757 31.3978C28.9345 31.7992 28.0417 32 26.9973 32C25.9528 32 25.0544 31.7992 24.302 31.3978C23.5496 30.9964 22.9656 30.4628 22.5501 29.797C22.1458 29.1312 21.9437 28.3969 21.9437 27.5941Z" stroke="#50505A" stroke-width="2" stroke-linecap="round"/>
<path d="M27.7385 13.3484L21.4762 20.3799L14.0095 29.0921M15.9037 3.03071C16.9186 3.23248 17.972 3.02293 18.8325 2.44813C20.1448 1.57149 21.8559 1.57149 23.1682 2.44813C24.0286 3.02293 25.0821 3.23248 26.097 3.03071C27.6448 2.72299 29.2257 3.3778 30.1026 4.6899C30.6776 5.55021 31.5707 6.14696 32.5855 6.34894C34.1334 6.65699 35.3433 7.86692 35.6513 9.41473C35.8533 10.4296 36.4501 11.3227 37.3104 11.8977C38.6225 12.7746 39.2773 14.3554 38.9696 15.9033C38.7678 16.9182 38.9774 17.9717 39.5521 18.8321C40.4288 20.1444 40.4288 21.8555 39.5521 23.1678C38.9774 24.0282 38.7678 25.0817 38.9696 26.0966C39.2773 27.6445 38.6225 29.2253 37.3104 30.1023C36.4501 30.6772 35.8533 31.5703 35.6513 32.5852C35.3433 34.133 34.1334 35.3429 32.5855 35.651C31.5707 35.8529 30.6776 36.4497 30.1026 37.31C29.2257 38.6221 27.6448 39.2769 26.097 38.9692C25.0821 38.7674 24.0286 38.977 23.1682 39.5518C21.8559 40.4284 20.1448 40.4284 18.8325 39.5518C17.9721 38.977 16.9186 38.7674 15.9037 38.9692C14.3558 39.2769 12.7749 38.6221 11.898 37.31C11.3231 36.4497 10.43 35.8529 9.4151 35.651C7.86729 35.3429 6.65735 34.133 6.34931 32.5852C6.14733 31.5703 5.55058 30.6772 4.69027 30.1023C3.37816 29.2253 2.72335 27.6445 3.03108 26.0966C3.23284 25.0817 3.02329 24.0282 2.4485 23.1678C1.57185 21.8555 1.57185 20.1444 2.4485 18.8321C3.02329 17.9717 3.23284 16.9182 3.03108 15.9033C2.72335 14.3554 3.37816 12.7746 4.69027 11.8977C5.55058 11.3227 6.14733 10.4296 6.34931 9.41473C6.65735 7.86692 7.86729 6.65699 9.4151 6.34894C10.43 6.14696 11.3231 5.55022 11.898 4.6899C12.7749 3.3778 14.3558 2.72299 15.9037 3.03071ZM10.0003 15.5514V14.4205C10.0003 13.6079 10.2025 12.8687 10.6068 12.2029C11.011 11.5371 11.5894 11.0035 12.3418 10.6021C13.0942 10.2007 13.987 9.99995 15.0202 9.99995C16.0759 9.99995 16.9743 10.2007 17.7155 10.6021C18.4679 11.0035 19.0463 11.5371 19.4506 12.2029C19.8548 12.8687 20.057 13.6079 20.057 14.4205V15.5514C20.057 16.3444 19.8548 17.0738 19.4506 17.7396C19.0575 18.4054 18.4848 18.939 17.7323 19.3404C16.9911 19.7418 16.0983 19.9425 15.0539 19.9425C14.0095 19.9425 13.1055 19.7418 12.3418 19.3404C11.5894 18.939 11.011 18.4054 10.6068 17.7396C10.2025 17.0738 10.0003 16.3444 10.0003 15.5514ZM21.9437 27.5941V26.4486C21.9437 25.6457 22.1458 24.9114 22.5501 24.2456C22.9544 23.5798 23.5327 23.0462 24.2852 22.6448C25.0376 22.2434 25.9304 22.0427 26.9636 22.0427C28.0192 22.0427 28.9176 22.2434 29.6588 22.6448C30.4112 23.0462 30.9896 23.5798 31.3939 24.2456C31.7982 24.9114 32.0003 25.6457 32.0003 26.4486V27.5941C32.0003 28.3969 31.7982 29.1312 31.3939 29.797C31.0008 30.4628 30.4281 30.9964 29.6757 31.3978C28.9345 31.7992 28.0417 32 26.9973 32C25.9528 32 25.0544 31.7992 24.302 31.3978C23.5496 30.9964 22.9656 30.4628 22.5501 29.797C22.1458 29.1312 21.9437 28.3969 21.9437 27.5941Z" stroke="url(#paint0_linear_1452_3016)" stroke-width="2" stroke-linecap="round"/>
<path d="M27.7385 13.3484L21.4762 20.3799L14.0095 29.0921M15.9037 3.03071C16.9186 3.23248 17.972 3.02293 18.8325 2.44813C20.1448 1.57149 21.8559 1.57149 23.1682 2.44813C24.0286 3.02293 25.0821 3.23248 26.097 3.03071C27.6448 2.72299 29.2257 3.3778 30.1026 4.6899C30.6776 5.55021 31.5707 6.14696 32.5855 6.34894C34.1334 6.65699 35.3433 7.86692 35.6513 9.41473C35.8533 10.4296 36.4501 11.3227 37.3104 11.8977C38.6225 12.7746 39.2773 14.3554 38.9696 15.9033C38.7678 16.9182 38.9774 17.9717 39.5521 18.8321C40.4288 20.1444 40.4288 21.8555 39.5521 23.1678C38.9774 24.0282 38.7678 25.0817 38.9696 26.0966C39.2773 27.6445 38.6225 29.2253 37.3104 30.1023C36.4501 30.6772 35.8533 31.5703 35.6513 32.5852C35.3433 34.133 34.1334 35.3429 32.5855 35.651C31.5707 35.8529 30.6776 36.4497 30.1026 37.31C29.2257 38.6221 27.6448 39.2769 26.097 38.9692C25.0821 38.7674 24.0286 38.977 23.1682 39.5518C21.8559 40.4284 20.1448 40.4284 18.8325 39.5518C17.9721 38.977 16.9186 38.7674 15.9037 38.9692C14.3558 39.2769 12.7749 38.6221 11.898 37.31C11.3231 36.4497 10.43 35.8529 9.4151 35.651C7.86729 35.3429 6.65735 34.133 6.34931 32.5852C6.14733 31.5703 5.55058 30.6772 4.69027 30.1023C3.37816 29.2253 2.72335 27.6445 3.03108 26.0966C3.23284 25.0817 3.02329 24.0282 2.4485 23.1678C1.57185 21.8555 1.57185 20.1444 2.4485 18.8321C3.02329 17.9717 3.23284 16.9182 3.03108 15.9033C2.72335 14.3554 3.37816 12.7746 4.69027 11.8977C5.55058 11.3227 6.14733 10.4296 6.34931 9.41473C6.65735 7.86692 7.86729 6.65699 9.4151 6.34894C10.43 6.14696 11.3231 5.55022 11.898 4.6899C12.7749 3.3778 14.3558 2.72299 15.9037 3.03071ZM10.0003 15.5514V14.4205C10.0003 13.6079 10.2025 12.8687 10.6068 12.2029C11.011 11.5371 11.5894 11.0035 12.3418 10.6021C13.0942 10.2007 13.987 9.99995 15.0202 9.99995C16.0759 9.99995 16.9743 10.2007 17.7155 10.6021C18.4679 11.0035 19.0463 11.5371 19.4506 12.2029C19.8548 12.8687 20.057 13.6079 20.057 14.4205V15.5514C20.057 16.3444 19.8548 17.0738 19.4506 17.7396C19.0575 18.4054 18.4848 18.939 17.7323 19.3404C16.9911 19.7418 16.0983 19.9425 15.0539 19.9425C14.0095 19.9425 13.1055 19.7418 12.3418 19.3404C11.5894 18.939 11.011 18.4054 10.6068 17.7396C10.2025 17.0738 10.0003 16.3444 10.0003 15.5514ZM21.9437 27.5941V26.4486C21.9437 25.6457 22.1458 24.9114 22.5501 24.2456C22.9544 23.5798 23.5327 23.0462 24.2852 22.6448C25.0376 22.2434 25.9304 22.0427 26.9636 22.0427C28.0192 22.0427 28.9176 22.2434 29.6588 22.6448C30.4112 23.0462 30.9896 23.5798 31.3939 24.2456C31.7982 24.9114 32.0003 25.6457 32.0003 26.4486V27.5941C32.0003 28.3969 31.7982 29.1312 31.3939 29.797C31.0008 30.4628 30.4281 30.9964 29.6757 31.3978C28.9345 31.7992 28.0417 32 26.9973 32C25.9528 32 25.0544 31.7992 24.302 31.3978C23.5496 30.9964 22.9656 30.4628 22.5501 29.797C22.1458 29.1312 21.9437 28.3969 21.9437 27.5941Z" stroke="#F0F4F7" stroke-width="2" stroke-linecap="round"/>
</g>
</g>
<defs>
<linearGradient id="paint0_linear_1452_3016" x1="29.9245" y1="37.923" x2="5.68457" y2="37.2934" gradientUnits="userSpaceOnUse">
<stop stop-color="#FF8562"/>
<stop offset="0.854333" stop-color="#D0C018"/>
</linearGradient>
</defs>
</svg>
