<svg width="25" height="28" viewBox="0 0 25 28" fill="none" xmlns="http://www.w3.org/2000/svg">
<g id="Group 6269303">
<path id="Rectangle 3014" d="M16 10H23C23.5523 10 24 10.4477 24 11L24 15.0553V26C24 26.5523 23.5523 27 23 27L2 27C1.44772 27 1 26.5523 1 26L1 11C1 10.4477 1.44772 10 2 10H9" stroke="#4E617D"/>
<path id="Line 2" d="M12 19.5C12 19.7761 12.2239 20 12.5 20C12.7761 20 13 19.7761 13 19.5H12ZM12.8536 0.646447C12.6583 0.451184 12.3417 0.451184 12.1464 0.646447L8.96447 3.82843C8.7692 4.02369 8.7692 4.34027 8.96447 4.53553C9.15973 4.7308 9.47631 4.7308 9.67157 4.53553L12.5 1.70711L15.3284 4.53553C15.5237 4.7308 15.8403 4.7308 16.0355 4.53553C16.2308 4.34027 16.2308 4.02369 16.0355 3.82843L12.8536 0.646447ZM13 19.5V1H12V19.5H13Z" fill="#4E617D"/>
</g>
</svg>
