<svg width="28" height="24" viewBox="0 0 28 24" fill="none" xmlns="http://www.w3.org/2000/svg">
<path d="M0.422897 11.1637C3.28736 9.53072 6.48491 8.16783 9.47252 6.79797C14.6124 4.55425 19.7727 2.34939 24.985 0.296697C25.9992 -0.053061 27.8213 -0.395106 27.9999 1.16031C27.9022 3.362 27.4997 5.55078 27.2236 7.73958C26.5229 12.5529 25.7131 17.3498 24.9234 22.1473C24.6512 23.7453 22.717 24.5726 21.4794 23.5499C18.505 21.4706 15.5078 19.4116 12.5714 17.2841C11.6095 16.2725 12.5015 14.8199 13.3605 14.0976C15.8103 11.599 18.4083 9.47611 20.73 6.84839C21.3563 5.28314 19.5059 6.60228 18.8955 7.00644C15.5418 9.39833 12.2701 11.9362 8.73424 14.0384C6.92811 15.0674 4.82302 14.188 3.01772 13.6138C1.39903 12.9202 -0.972958 12.2214 0.422734 11.1638L0.422897 11.1637Z" fill="#ffffff"/>
</svg>
