<svg width="21" height="18" viewBox="0 0 21 18" fill="none" xmlns="http://www.w3.org/2000/svg">
<path id="Vector" d="M0.317174 8.37281C2.46552 7.14806 4.86369 6.12589 7.10441 5.09849C10.9593 3.41569 14.8295 1.76204 18.7388 0.222523C19.4994 -0.0397958 20.866 -0.29633 21 0.870237C20.9267 2.52151 20.6248 4.16309 20.4178 5.8047C19.8922 9.41471 19.2849 13.0124 18.6926 16.6105C18.4885 17.809 17.0378 18.4295 16.1096 17.6625C13.8788 16.103 11.6309 14.5587 9.42858 12.9631C8.70718 12.2044 9.37614 11.115 10.0204 10.5732C11.8577 8.69925 13.8063 7.1071 15.5476 5.1363C16.0173 3.96236 14.6294 4.95172 14.1717 5.25484C11.6564 7.04877 9.20262 8.95221 6.5507 10.5288C5.19609 11.3006 3.61727 10.641 2.26329 10.2104C1.04927 9.69019 -0.72972 9.1661 0.317051 8.37289L0.317174 8.37281Z" fill="#229ED9"/>
</svg>
