<svg width="20" height="20" viewBox="0 0 20 20" fill="none" xmlns="http://www.w3.org/2000/svg">
<g id="Frame 3083">
<g id="Vector">
<path d="M0.5 2.5C0.5 1.39543 1.39543 0.5 2.5 0.5C3.60457 0.5 4.5 1.39543 4.5 2.5C4.5 3.60457 3.60457 4.5 2.5 4.5C1.39543 4.5 0.5 3.60457 0.5 2.5Z" stroke="#A6AFBD"/>
<path d="M15.5 2.5C15.5 1.39543 16.3954 0.5 17.5 0.5C18.6046 0.5 19.5 1.39543 19.5 2.5C19.5 3.60457 18.6046 4.5 17.5 4.5C16.3954 4.5 15.5 3.60457 15.5 2.5Z" stroke="#A6AFBD"/>
<path d="M8 2.5C8 1.39543 8.89543 0.5 10 0.5C11.1046 0.5 12 1.39543 12 2.5C12 3.60457 11.1046 4.5 10 4.5C8.89543 4.5 8 3.60457 8 2.5Z" stroke="#A6AFBD"/>
<path d="M0.710834 11.5C0.552671 11.5 0.450978 11.3254 0.524221 11.1796L2.31366 7.61758C2.39242 7.4608 2.60815 7.46081 2.68689 7.6176L4.47579 11.1796C4.54901 11.3254 4.44732 11.5 4.28917 11.5H0.710834Z" stroke="#A6AFBD"/>
<path d="M8.21083 11.5C8.05267 11.5 7.95098 11.3254 8.02422 11.1796L9.81366 7.61758C9.89242 7.4608 10.1082 7.46081 10.1869 7.6176L11.9758 11.1796C12.049 11.3254 11.9473 11.5 11.7892 11.5H8.21083Z" stroke="#A6AFBD"/>
<path d="M15.7108 11.5C15.5527 11.5 15.451 11.3254 15.5242 11.1796L17.3137 7.61758C17.3924 7.4608 17.6082 7.46081 17.6869 7.6176L19.4758 11.1796C19.549 11.3254 19.4473 11.5 19.2892 11.5H15.7108Z" stroke="#A6AFBD"/>
<path d="M0.5 16.5C0.5 15.9477 0.947715 15.5 1.5 15.5H3.5C4.05228 15.5 4.5 15.9477 4.5 16.5V18.5C4.5 19.0523 4.05228 19.5 3.5 19.5H1.5C0.947715 19.5 0.5 19.0523 0.5 18.5V16.5Z" stroke="#A6AFBD"/>
<path d="M8 16.5C8 15.9477 8.44772 15.5 9 15.5H11C11.5523 15.5 12 15.9477 12 16.5V18.5C12 19.0523 11.5523 19.5 11 19.5H9C8.44772 19.5 8 19.0523 8 18.5V16.5Z" stroke="#A6AFBD"/>
<path d="M15.5 16.5C15.5 15.9477 15.9477 15.5 16.5 15.5H18.5C19.0523 15.5 19.5 15.9477 19.5 16.5V18.5C19.5 19.0523 19.0523 19.5 18.5 19.5H16.5C15.9477 19.5 15.5 19.0523 15.5 18.5V16.5Z" stroke="#A6AFBD"/>
</g>
</g>
</svg>
