<svg width="20" height="20" viewBox="0 0 20 20" fill="none" xmlns="http://www.w3.org/2000/svg">
<g id="Frame 260">
<g id="Vector">
<path d="M2.26859 10.6853C2.07969 10.1663 2.34728 9.59248 2.86626 9.40358C3.38524 9.21469 3.95908 9.48228 4.14797 10.0013C4.33686 10.5202 4.06928 11.0941 3.5503 11.283C3.03132 11.4719 2.45748 11.2043 2.26859 10.6853Z" fill="#4E617D"/>
<path d="M2.26859 10.6853C2.07969 10.1663 2.34728 9.59248 2.86626 9.40358C3.38524 9.21469 3.95908 9.48228 4.14797 10.0013C4.33686 10.5202 4.06928 11.0941 3.5503 11.283C3.03132 11.4719 2.45748 11.2043 2.26859 10.6853Z" fill="url(#paint0_linear_1418_177)"/>
<path d="M17.7321 9.31377C17.9209 9.83274 17.6534 10.4066 17.1344 10.5955C16.6154 10.7844 16.0416 10.5168 15.8527 9.99781C15.6638 9.47883 15.9314 8.90499 16.4503 8.71609C16.9693 8.5272 17.5432 8.79479 17.7321 9.31377Z" fill="#4E617D"/>
<path d="M17.7321 9.31377C17.9209 9.83274 17.6534 10.4066 17.1344 10.5955C16.6154 10.7844 16.0416 10.5168 15.8527 9.99781C15.6638 9.47883 15.9314 8.90499 16.4503 8.71609C16.9693 8.5272 17.5432 8.79479 17.7321 9.31377Z" fill="url(#paint1_linear_1418_177)"/>
<path d="M5.85529 3.76595L6.13849 4.17801L5.85529 3.76595ZM15.1769 5.85319L15.4602 6.26526L16.2843 5.69885L16.0011 5.28679L15.1769 5.85319ZM2.31966 9.48905L2.31619 9.98903L3.31617 9.99596L3.31963 9.49597L2.31966 9.48905ZM13.4656 5.38769C13.1941 5.33737 12.9332 5.51668 12.8829 5.7882C12.8326 6.05972 13.0119 6.32062 13.2834 6.37095L13.4656 5.38769ZM16.1556 6.39476L16.0645 6.88639C16.1949 6.91055 16.3295 6.88193 16.4388 6.80682C16.5481 6.73171 16.6231 6.61627 16.6472 6.48588L16.1556 6.39476ZM17.1627 3.70481C17.213 3.43329 17.0337 3.17239 16.7622 3.12207C16.4906 3.07175 16.2297 3.25106 16.1794 3.52258L17.1627 3.70481ZM14.1454 16.2331L13.8622 15.8211L14.1454 16.2331ZM4.8237 14.1459L4.54049 13.7338L3.71637 14.3002L3.99957 14.7123L4.8237 14.1459ZM17.681 10.51L17.6845 10.01L16.6845 10.0031L16.681 10.5031L17.681 10.51ZM6.535 14.6114C6.80651 14.6617 7.06742 14.4824 7.11774 14.2109C7.16806 13.9393 6.98875 13.6784 6.71723 13.6281L6.535 14.6114ZM3.84505 13.6043L3.93617 13.1127C3.66465 13.0624 3.40374 13.2417 3.35342 13.5132L3.84505 13.6043ZM2.83798 16.2943C2.78766 16.5658 2.96697 16.8267 3.23849 16.877C3.51001 16.9273 3.77091 16.748 3.82124 16.4765L2.83798 16.2943ZM6.13849 4.17801C9.09698 2.1447 13.1436 2.8947 15.1769 5.85319L16.0011 5.28679C13.6549 1.87314 8.98572 1.00776 5.57208 3.35389L6.13849 4.17801ZM3.31963 9.49597C3.33386 7.4414 4.31848 5.42887 6.13849 4.17801L5.57208 3.35389C3.47132 4.7977 2.33604 7.12159 2.31966 9.48905L3.31963 9.49597ZM13.2834 6.37095L16.0645 6.88639L16.2467 5.90313L13.4656 5.38769L13.2834 6.37095ZM16.6472 6.48588L17.1627 3.70481L16.1794 3.52258L15.664 6.30364L16.6472 6.48588ZM3.37929 10.8131C3.1198 10.9076 2.83288 10.7738 2.73843 10.5143L1.79874 10.8563C2.08208 11.6348 2.94284 12.0362 3.72131 11.7528L3.37929 10.8131ZM3.67813 10.1723C3.77257 10.4318 3.63878 10.7187 3.37929 10.8131L3.72131 11.7528C4.49978 11.4695 4.90116 10.6087 4.61782 9.83025L3.67813 10.1723ZM3.03727 9.87343C3.29676 9.77898 3.58368 9.91278 3.67813 10.1723L4.61782 9.83025C4.33448 9.05178 3.47372 8.6504 2.69525 8.93374L3.03727 9.87343ZM2.69525 8.93374C1.91678 9.21708 1.5154 10.0778 1.79874 10.8563L2.73843 10.5143C2.64399 10.2548 2.77778 9.96788 3.03727 9.87343L2.69525 8.93374ZM13.8622 15.8211C10.9037 17.8544 6.85701 17.1044 4.8237 14.1459L3.99957 14.7123C6.3457 18.1259 11.0149 18.9913 14.4286 16.6452L13.8622 15.8211ZM16.681 10.5031C16.6668 12.5577 15.6822 14.5702 13.8622 15.8211L14.4286 16.6452C16.5293 15.2014 17.6646 12.8775 17.681 10.51L16.681 10.5031ZM6.71723 13.6281L3.93617 13.1127L3.75393 14.0959L6.535 14.6114L6.71723 13.6281ZM3.35342 13.5132L2.83798 16.2943L3.82124 16.4765L4.33668 13.6954L3.35342 13.5132ZM16.6214 9.18594C16.8808 9.09149 17.1678 9.22529 17.2622 9.48478L18.2019 9.14276C17.9186 8.36429 17.0578 7.96291 16.2793 8.24625L16.6214 9.18594ZM16.3225 9.8268C16.2281 9.56731 16.3619 9.28039 16.6214 9.18594L16.2793 8.24625C15.5009 8.52959 15.0995 9.39035 15.3828 10.1688L16.3225 9.8268ZM16.9634 10.1256C16.7039 10.2201 16.417 10.0863 16.3225 9.8268L15.3828 10.1688C15.6662 10.9473 16.5269 11.3487 17.3054 11.0653L16.9634 10.1256ZM17.3054 11.0653C18.0839 10.782 18.4852 9.92122 18.2019 9.14276L17.2622 9.48478C17.3567 9.74427 17.2229 10.0312 16.9634 10.1256L17.3054 11.0653Z" fill="#4E617D"/>
<path d="M5.85529 3.76595L6.13849 4.17801L5.85529 3.76595ZM15.1769 5.85319L15.4602 6.26526L16.2843 5.69885L16.0011 5.28679L15.1769 5.85319ZM2.31966 9.48905L2.31619 9.98903L3.31617 9.99596L3.31963 9.49597L2.31966 9.48905ZM13.4656 5.38769C13.1941 5.33737 12.9332 5.51668 12.8829 5.7882C12.8326 6.05972 13.0119 6.32062 13.2834 6.37095L13.4656 5.38769ZM16.1556 6.39476L16.0645 6.88639C16.1949 6.91055 16.3295 6.88193 16.4388 6.80682C16.5481 6.73171 16.6231 6.61627 16.6472 6.48588L16.1556 6.39476ZM17.1627 3.70481C17.213 3.43329 17.0337 3.17239 16.7622 3.12207C16.4906 3.07175 16.2297 3.25106 16.1794 3.52258L17.1627 3.70481ZM14.1454 16.2331L13.8622 15.8211L14.1454 16.2331ZM4.8237 14.1459L4.54049 13.7338L3.71637 14.3002L3.99957 14.7123L4.8237 14.1459ZM17.681 10.51L17.6845 10.01L16.6845 10.0031L16.681 10.5031L17.681 10.51ZM6.535 14.6114C6.80651 14.6617 7.06742 14.4824 7.11774 14.2109C7.16806 13.9393 6.98875 13.6784 6.71723 13.6281L6.535 14.6114ZM3.84505 13.6043L3.93617 13.1127C3.66465 13.0624 3.40374 13.2417 3.35342 13.5132L3.84505 13.6043ZM2.83798 16.2943C2.78766 16.5658 2.96697 16.8267 3.23849 16.877C3.51001 16.9273 3.77091 16.748 3.82124 16.4765L2.83798 16.2943ZM6.13849 4.17801C9.09698 2.1447 13.1436 2.8947 15.1769 5.85319L16.0011 5.28679C13.6549 1.87314 8.98572 1.00776 5.57208 3.35389L6.13849 4.17801ZM3.31963 9.49597C3.33386 7.4414 4.31848 5.42887 6.13849 4.17801L5.57208 3.35389C3.47132 4.7977 2.33604 7.12159 2.31966 9.48905L3.31963 9.49597ZM13.2834 6.37095L16.0645 6.88639L16.2467 5.90313L13.4656 5.38769L13.2834 6.37095ZM16.6472 6.48588L17.1627 3.70481L16.1794 3.52258L15.664 6.30364L16.6472 6.48588ZM3.37929 10.8131C3.1198 10.9076 2.83288 10.7738 2.73843 10.5143L1.79874 10.8563C2.08208 11.6348 2.94284 12.0362 3.72131 11.7528L3.37929 10.8131ZM3.67813 10.1723C3.77257 10.4318 3.63878 10.7187 3.37929 10.8131L3.72131 11.7528C4.49978 11.4695 4.90116 10.6087 4.61782 9.83025L3.67813 10.1723ZM3.03727 9.87343C3.29676 9.77898 3.58368 9.91278 3.67813 10.1723L4.61782 9.83025C4.33448 9.05178 3.47372 8.6504 2.69525 8.93374L3.03727 9.87343ZM2.69525 8.93374C1.91678 9.21708 1.5154 10.0778 1.79874 10.8563L2.73843 10.5143C2.64399 10.2548 2.77778 9.96788 3.03727 9.87343L2.69525 8.93374ZM13.8622 15.8211C10.9037 17.8544 6.85701 17.1044 4.8237 14.1459L3.99957 14.7123C6.3457 18.1259 11.0149 18.9913 14.4286 16.6452L13.8622 15.8211ZM16.681 10.5031C16.6668 12.5577 15.6822 14.5702 13.8622 15.8211L14.4286 16.6452C16.5293 15.2014 17.6646 12.8775 17.681 10.51L16.681 10.5031ZM6.71723 13.6281L3.93617 13.1127L3.75393 14.0959L6.535 14.6114L6.71723 13.6281ZM3.35342 13.5132L2.83798 16.2943L3.82124 16.4765L4.33668 13.6954L3.35342 13.5132ZM16.6214 9.18594C16.8808 9.09149 17.1678 9.22529 17.2622 9.48478L18.2019 9.14276C17.9186 8.36429 17.0578 7.96291 16.2793 8.24625L16.6214 9.18594ZM16.3225 9.8268C16.2281 9.56731 16.3619 9.28039 16.6214 9.18594L16.2793 8.24625C15.5009 8.52959 15.0995 9.39035 15.3828 10.1688L16.3225 9.8268ZM16.9634 10.1256C16.7039 10.2201 16.417 10.0863 16.3225 9.8268L15.3828 10.1688C15.6662 10.9473 16.5269 11.3487 17.3054 11.0653L16.9634 10.1256ZM17.3054 11.0653C18.0839 10.782 18.4852 9.92122 18.2019 9.14276L17.2622 9.48478C17.3567 9.74427 17.2229 10.0312 16.9634 10.1256L17.3054 11.0653Z" fill="url(#paint2_linear_1418_177)"/>
</g>
</g>
<defs>
<linearGradient id="paint0_linear_1418_177" x1="16.3224" y1="21.4847" x2="-0.84797" y2="21.0191" gradientUnits="userSpaceOnUse">
<stop stop-color="#FF8562"/>
<stop offset="0.854333" stop-color="#D0C018"/>
</linearGradient>
<linearGradient id="paint1_linear_1418_177" x1="16.3224" y1="21.4847" x2="-0.84797" y2="21.0191" gradientUnits="userSpaceOnUse">
<stop stop-color="#FF8562"/>
<stop offset="0.854333" stop-color="#D0C018"/>
</linearGradient>
<linearGradient id="paint2_linear_1418_177" x1="16.3224" y1="21.4847" x2="-0.84797" y2="21.0191" gradientUnits="userSpaceOnUse">
<stop stop-color="#FF8562"/>
<stop offset="0.854333" stop-color="#D0C018"/>
</linearGradient>
</defs>
</svg>
