<svg width="20" height="20" viewBox="0 0 20 20" fill="none" xmlns="http://www.w3.org/2000/svg">
<g id="Frame 266" clip-path="url(#clip0_1444_337)">
<path id="Vector" d="M3.5 16.5H13.5M2 19H15C15.5523 19 16 18.5523 16 18V9C16 8.44772 15.5523 8 15 8H2C1.44772 8 1 8.44771 1 9V18C1 18.5523 1.44772 19 2 19ZM4.5 13.5H6.5C7.05228 13.5 7.5 13.0523 7.5 12.5V11.5C7.5 10.9477 7.05228 10.5 6.5 10.5H4.5C3.94772 10.5 3.5 10.9477 3.5 11.5V12.5C3.5 13.0523 3.94772 13.5 4.5 13.5Z" stroke="#FBFCFD" stroke-linecap="round"/>
<path id="Vector_2" d="M3.31112 8L2.67365 4.38471C2.57774 3.84082 2.94091 3.32216 3.48481 3.22625L16.2873 0.968828C16.8312 0.872924 17.3499 1.23609 17.4458 1.77999L19.0086 10.6433C19.1045 11.1872 18.7413 11.7058 18.1974 11.8017L16 12.1892" stroke="#FBFCFD" stroke-linecap="round"/>
</g>
<defs>
<clipPath id="clip0_1444_337">
<rect width="20" height="20" fill="white"/>
</clipPath>
</defs>
</svg>
