<svg width="28" height="29" viewBox="0 0 28 29" fill="none" xmlns="http://www.w3.org/2000/svg">
<path fill-rule="evenodd" clip-rule="evenodd" d="M23.9202 4.08847C22.6286 2.78841 21.0918 1.7576 19.3989 1.0558C17.706 0.353998 15.8907 -0.00485132 14.0581 4.95286e-05C6.37061 4.95286e-05 0.119659 6.25367 0.116317 13.9405C0.113453 16.3871 0.755354 18.7912 1.97736 20.9108L0 28.135L7.39004 26.1964C9.4342 27.3101 11.7249 27.8937 14.0528 27.8937H14.0581C21.7416 27.8937 27.9966 21.6394 27.9999 13.9526C28.0058 12.1203 27.6483 10.3051 26.948 8.6119C26.2477 6.91874 25.2186 5.38127 23.9202 4.08847ZM14.0581 25.54H14.0534C11.9784 25.5402 9.94149 24.9824 8.15612 23.9249L7.73297 23.6736L3.34708 24.824L4.51759 20.5458L4.24551 20.1079C3.08471 18.2608 2.47054 16.1228 2.47404 13.9412C2.47404 7.55253 7.67481 2.3551 14.0661 2.3551C17.1392 2.35758 20.0855 3.58055 22.257 5.75504C24.4284 7.92953 25.6473 10.8775 25.6455 13.9505C25.6435 20.3405 20.4448 25.54 14.0581 25.54ZM20.414 16.8611C20.0657 16.6873 18.3531 15.8443 18.0342 15.728C17.7154 15.6117 17.4827 15.5536 17.2501 15.9025C17.0175 16.2514 16.3503 17.0356 16.1471 17.2682C15.9439 17.5008 15.7407 17.5296 15.3924 17.3551C15.0441 17.1806 13.9218 16.813 12.5915 15.6264C11.5553 14.7026 10.8534 13.5622 10.6529 13.2132C10.4523 12.8643 10.6308 12.6784 10.8053 12.5026C10.9624 12.3462 11.1536 12.0955 11.3281 11.8923C11.5025 11.6891 11.56 11.5434 11.6763 11.3107C11.7926 11.0781 11.7345 10.8749 11.6469 10.7004C11.5593 10.5259 10.8635 8.80994 10.574 8.11271C10.2912 7.43354 10.0038 7.52579 9.78988 7.51443C9.58934 7.5044 9.3547 7.50239 9.1214 7.50239C8.94482 7.50693 8.77109 7.548 8.61117 7.62301C8.45124 7.69803 8.3086 7.80536 8.19222 7.93824C7.87268 8.28719 6.97291 9.13014 6.97291 10.8441C6.97291 12.5581 8.22096 14.2153 8.39543 14.4479C8.56991 14.6805 10.8514 18.1987 14.3449 19.7082C14.9934 19.9883 15.6564 20.2338 16.331 20.4435C17.1652 20.7109 17.9246 20.6714 18.5249 20.5819C19.1934 20.4816 20.5858 19.7389 20.8759 18.9254C21.1661 18.1118 21.1661 17.4139 21.0765 17.2689C20.9869 17.1238 20.763 17.0342 20.414 16.8598V16.8611Z" fill="#50505A"/>
</svg>
