<svg width="22" height="22" viewBox="0 0 22 22" fill="none" xmlns="http://www.w3.org/2000/svg">
<g id="Group">
<path id="Vector" d="M11.2008 21.7C16.9445 21.7 21.6008 17.0437 21.6008 11.3C21.6008 5.55623 16.9445 0.899994 11.2008 0.899994C5.45702 0.899994 0.800781 5.55623 0.800781 11.3C0.800781 17.0437 5.45702 21.7 11.2008 21.7Z" fill="#FDC234"/>
<g id="Group_2">
<g id="Group_3">
<path id="Vector_2" d="M11.6008 16.1H7.80078V6.5H11.6008C14.2008 6.5 16.4008 8.59999 16.4008 11.3C16.4008 13.9 14.2008 16.1 11.6008 16.1ZM8.80078 15H11.5008C13.5008 15 15.2008 13.3 15.2008 11.3C15.2008 9.29999 13.5008 7.60001 11.5008 7.60001H8.80078V15Z" fill="white"/>
</g>
<g id="Group_4">
<g id="Group_5">
<path id="Vector_3" d="M17.2004 9.60001H6.40039V10.7H17.2004V9.60001Z" fill="white"/>
</g>
<g id="Group_6">
<path id="Vector_4" d="M17.2004 11.9H6.40039V13H17.2004V11.9Z" fill="white"/>
</g>
</g>
</g>
</g>
</svg>
