<svg width="330" height="292" viewBox="0 0 330 292" fill="none" xmlns="http://www.w3.org/2000/svg">
<circle cx="165" cy="136" r="108" transform="rotate(-90 165 136)" fill="#4E617D"/>
<path d="M165 28C189.153 28 212.609 36.0963 231.619 50.9949C250.63 65.8936 264.097 86.7347 269.87 110.188C275.643 133.641 273.387 158.352 263.464 180.372C253.54 202.393 236.522 220.451 215.128 231.662L165 136L165 28Z" fill="#D0C018"/>
<rect x="135" y="100" width="60" height="60" rx="30" fill="#FBFCFD"/>
<path d="M158.978 132.515C159.331 132.172 159.755 132 160.248 132C160.741 132 161.163 132.172 161.513 132.515C161.866 132.855 162.043 133.265 162.043 133.745C162.043 134.225 161.866 134.637 161.513 134.98C161.163 135.323 160.741 135.495 160.248 135.495C159.755 135.495 159.331 135.323 158.978 134.98C158.628 134.637 158.453 134.225 158.453 133.745C158.453 133.265 158.628 132.855 158.978 132.515ZM161.443 132.585C161.113 132.262 160.715 132.1 160.248 132.1C159.781 132.1 159.381 132.262 159.048 132.585C158.718 132.905 158.553 133.292 158.553 133.745C158.553 134.198 158.72 134.587 159.053 134.91C159.386 135.233 159.785 135.395 160.248 135.395C160.711 135.395 161.11 135.233 161.443 134.91C161.776 134.587 161.943 134.198 161.943 133.745C161.943 133.292 161.776 132.905 161.443 132.585Z" fill="#A6AFBD"/>
<path d="M167.114 132V134.075C167.114 134.528 166.992 134.878 166.749 135.125C166.509 135.372 166.169 135.495 165.729 135.495C165.289 135.495 164.947 135.372 164.704 135.125C164.464 134.878 164.344 134.528 164.344 134.075V132H164.444V134.075C164.444 134.495 164.556 134.82 164.779 135.05C165.006 135.28 165.322 135.395 165.729 135.395C166.136 135.395 166.451 135.28 166.674 135.05C166.901 134.82 167.014 134.495 167.014 134.075V132H167.114Z" fill="#A6AFBD"/>
<path d="M171.73 132.1H170.53V135.495H170.43V132.1H169.23V132H171.73V132.1Z" fill="#A6AFBD"/>
<path d="M158.978 132.515C159.331 132.172 159.755 132 160.248 132C160.741 132 161.163 132.172 161.513 132.515C161.866 132.855 162.043 133.265 162.043 133.745C162.043 134.225 161.866 134.637 161.513 134.98C161.163 135.323 160.741 135.495 160.248 135.495C159.755 135.495 159.331 135.323 158.978 134.98C158.628 134.637 158.453 134.225 158.453 133.745C158.453 133.265 158.628 132.855 158.978 132.515ZM161.443 132.585C161.113 132.262 160.715 132.1 160.248 132.1C159.781 132.1 159.381 132.262 159.048 132.585C158.718 132.905 158.553 133.292 158.553 133.745C158.553 134.198 158.72 134.587 159.053 134.91C159.386 135.233 159.785 135.395 160.248 135.395C160.711 135.395 161.11 135.233 161.443 134.91C161.776 134.587 161.943 134.198 161.943 133.745C161.943 133.292 161.776 132.905 161.443 132.585Z" stroke="#A6AFBD" stroke-width="0.9" stroke-linejoin="round"/>
<path d="M167.114 132V134.075C167.114 134.528 166.992 134.878 166.749 135.125C166.509 135.372 166.169 135.495 165.729 135.495C165.289 135.495 164.947 135.372 164.704 135.125C164.464 134.878 164.344 134.528 164.344 134.075V132H164.444V134.075C164.444 134.495 164.556 134.82 164.779 135.05C165.006 135.28 165.322 135.395 165.729 135.395C166.136 135.395 166.451 135.28 166.674 135.05C166.901 134.82 167.014 134.495 167.014 134.075V132H167.114Z" stroke="#A6AFBD" stroke-width="0.9" stroke-linejoin="round"/>
<path d="M171.73 132.1H170.53V135.495H170.43V132.1H169.23V132H171.73V132.1Z" stroke="#A6AFBD" stroke-width="0.9" stroke-linejoin="round"/>
<rect x="155.5" y="120.5" width="19" height="19" rx="0.5" stroke="#A6AFBD"/>
<path d="M156 126H168" stroke="#A6AFBD" stroke-width="2"/>
<path d="M171.882 126.191C172.039 126.112 172.039 125.888 171.882 125.809L168.309 124.023C168.167 123.952 168 124.055 168 124.213V127.787C168 127.945 168.167 128.048 168.309 127.977L171.882 126.191Z" fill="#A6AFBD"/>
<g filter="url(#filter0_d_1112_67148)">
<path d="M117 11C117 10.4477 117.448 10 118 10H306C306.552 10 307 10.4477 307 11V70C307 70.5523 306.552 71 306 71H222.414C222.149 71 221.895 71.1054 221.707 71.2929L212.707 80.2929C212.317 80.6834 211.683 80.6834 211.293 80.2929L202.293 71.2929C202.105 71.1054 201.851 71 201.586 71H118C117.448 71 117 70.5523 117 70V11Z" fill="#FBFCFD"/>
</g>
<path d="M259.513 57.7871V58.4844H252.465V58.0127L257.065 51.0469H257.749L256.778 52.7354L253.463 57.7871H259.513ZM257.961 51.0469V61H257.147V51.0469H257.961ZM266.937 60.2959V61H260.709V60.3643L263.97 56.666C264.375 56.2057 264.699 55.8024 264.94 55.4561C265.182 55.1051 265.355 54.7861 265.46 54.499C265.569 54.2074 265.624 53.9248 265.624 53.6514C265.624 53.2503 265.544 52.8971 265.385 52.5918C265.23 52.2865 264.997 52.0472 264.688 51.874C264.378 51.7008 263.995 51.6143 263.539 51.6143C263.083 51.6143 262.687 51.7122 262.35 51.9082C262.012 52.1042 261.753 52.3776 261.57 52.7285C261.393 53.0749 261.304 53.4691 261.304 53.9111H260.49C260.49 53.3643 260.611 52.863 260.853 52.4072C261.099 51.9515 261.45 51.5892 261.905 51.3203C262.361 51.0469 262.906 50.9102 263.539 50.9102C264.141 50.9102 264.658 51.0173 265.091 51.2314C265.524 51.4411 265.856 51.7441 266.089 52.1406C266.326 52.5371 266.444 53.0156 266.444 53.5762C266.444 53.877 266.39 54.18 266.28 54.4854C266.175 54.7907 266.03 55.096 265.843 55.4014C265.66 55.7021 265.451 56.0007 265.214 56.2969C264.981 56.5931 264.738 56.8848 264.482 57.1719L261.707 60.2959H266.937ZM268.529 60.501C268.529 60.3415 268.579 60.207 268.68 60.0977C268.785 59.9837 268.926 59.9268 269.104 59.9268C269.286 59.9268 269.429 59.9814 269.534 60.0908C269.639 60.2002 269.691 60.3369 269.691 60.501C269.691 60.6559 269.639 60.7881 269.534 60.8975C269.429 61.0068 269.286 61.0615 269.104 61.0615C268.926 61.0615 268.785 61.0068 268.68 60.8975C268.579 60.7881 268.529 60.6559 268.529 60.501ZM278.052 60.2959V61H271.824V60.3643L275.085 56.666C275.491 56.2057 275.814 55.8024 276.056 55.4561C276.297 55.1051 276.47 54.7861 276.575 54.499C276.685 54.2074 276.739 53.9248 276.739 53.6514C276.739 53.2503 276.66 52.8971 276.5 52.5918C276.345 52.2865 276.113 52.0472 275.803 51.874C275.493 51.7008 275.11 51.6143 274.654 51.6143C274.199 51.6143 273.802 51.7122 273.465 51.9082C273.128 52.1042 272.868 52.3776 272.686 52.7285C272.508 53.0749 272.419 53.4691 272.419 53.9111H271.605C271.605 53.3643 271.726 52.863 271.968 52.4072C272.214 51.9515 272.565 51.5892 273.021 51.3203C273.476 51.0469 274.021 50.9102 274.654 50.9102C275.256 50.9102 275.773 51.0173 276.206 51.2314C276.639 51.4411 276.972 51.7441 277.204 52.1406C277.441 52.5371 277.56 53.0156 277.56 53.5762C277.56 53.877 277.505 54.18 277.396 54.4854C277.291 54.7907 277.145 55.096 276.958 55.4014C276.776 55.7021 276.566 56.0007 276.329 56.2969C276.097 56.5931 275.853 56.8848 275.598 57.1719L272.822 60.2959H278.052ZM286.159 57.7871V58.4844H279.111V58.0127L283.712 51.0469H284.396L283.425 52.7354L280.109 57.7871H286.159ZM284.607 51.0469V61H283.794V51.0469H284.607ZM287.164 53.4873V52.9609C287.164 52.5827 287.244 52.2386 287.403 51.9287C287.563 51.6188 287.788 51.3704 288.08 51.1836C288.372 50.9967 288.714 50.9033 289.105 50.9033C289.507 50.9033 289.851 50.9967 290.138 51.1836C290.429 51.3704 290.655 51.6188 290.814 51.9287C290.974 52.2386 291.054 52.5827 291.054 52.9609V53.4873C291.054 53.8564 290.974 54.196 290.814 54.5059C290.66 54.8158 290.436 55.0641 290.145 55.251C289.857 55.4378 289.516 55.5312 289.119 55.5312C288.723 55.5312 288.376 55.4378 288.08 55.251C287.788 55.0641 287.563 54.8158 287.403 54.5059C287.244 54.196 287.164 53.8564 287.164 53.4873ZM287.82 52.9609V53.4873C287.82 53.7288 287.866 53.9613 287.957 54.1846C288.053 54.4033 288.196 54.5833 288.388 54.7246C288.584 54.8659 288.827 54.9365 289.119 54.9365C289.411 54.9365 289.65 54.8682 289.837 54.7314C290.024 54.5902 290.163 54.4102 290.254 54.1914C290.35 53.9681 290.397 53.7334 290.397 53.4873V52.9609C290.397 52.7103 290.35 52.4756 290.254 52.2568C290.163 52.0335 290.021 51.8512 289.83 51.71C289.639 51.5687 289.397 51.498 289.105 51.498C288.823 51.498 288.586 51.5687 288.395 51.71C288.203 51.8512 288.06 52.0335 287.964 52.2568C287.868 52.4756 287.82 52.7103 287.82 52.9609ZM292.168 59.0928V58.5596C292.168 58.1859 292.248 57.8441 292.407 57.5342C292.567 57.2243 292.792 56.9759 293.084 56.7891C293.376 56.6022 293.72 56.5088 294.116 56.5088C294.517 56.5088 294.861 56.6022 295.148 56.7891C295.44 56.9759 295.666 57.2243 295.825 57.5342C295.985 57.8441 296.064 58.1859 296.064 58.5596V59.0928C296.064 59.4665 295.985 59.8083 295.825 60.1182C295.67 60.4281 295.447 60.6764 295.155 60.8633C294.868 61.0501 294.526 61.1436 294.13 61.1436C293.729 61.1436 293.382 61.0501 293.091 60.8633C292.799 60.6764 292.571 60.4281 292.407 60.1182C292.248 59.8083 292.168 59.4665 292.168 59.0928ZM292.831 58.5596V59.0928C292.831 59.3389 292.877 59.5736 292.968 59.7969C293.063 60.0156 293.207 60.1956 293.398 60.3369C293.594 60.4782 293.838 60.5488 294.13 60.5488C294.417 60.5488 294.654 60.4805 294.841 60.3438C295.032 60.2025 295.174 60.0202 295.265 59.7969C295.36 59.5736 295.408 59.3389 295.408 59.0928V58.5596C295.408 58.2998 295.36 58.0605 295.265 57.8418C295.174 57.6185 295.032 57.4408 294.841 57.3086C294.649 57.1719 294.408 57.1035 294.116 57.1035C293.834 57.1035 293.594 57.1719 293.398 57.3086C293.207 57.4408 293.063 57.6185 292.968 57.8418C292.877 58.0605 292.831 58.2998 292.831 58.5596ZM294.239 52.3936L289.379 60.1729L288.873 59.8447L293.733 52.0654L294.239 52.3936Z" fill="#50505A"/>
<path d="M205.383 59.7891H205.531C206.365 59.7891 207.042 59.6719 207.562 59.4375C208.083 59.2031 208.484 58.888 208.766 58.4922C209.047 58.0964 209.24 57.651 209.344 57.1562C209.448 56.6562 209.5 56.1432 209.5 55.6172V53.875C209.5 53.3594 209.44 52.901 209.32 52.5C209.206 52.099 209.044 51.763 208.836 51.4922C208.633 51.2214 208.401 51.0156 208.141 50.875C207.88 50.7344 207.604 50.6641 207.312 50.6641C206.979 50.6641 206.68 50.7318 206.414 50.8672C206.154 50.9974 205.932 51.1823 205.75 51.4219C205.573 51.6615 205.438 51.9427 205.344 52.2656C205.25 52.5885 205.203 52.9401 205.203 53.3203C205.203 53.6589 205.245 53.987 205.328 54.3047C205.411 54.6224 205.539 54.9089 205.711 55.1641C205.883 55.4193 206.096 55.6224 206.352 55.7734C206.612 55.9193 206.917 55.9922 207.266 55.9922C207.589 55.9922 207.891 55.9297 208.172 55.8047C208.458 55.6745 208.711 55.5 208.93 55.2812C209.154 55.0573 209.331 54.8047 209.461 54.5234C209.596 54.2422 209.674 53.9479 209.695 53.6406H210.383C210.383 54.0729 210.297 54.5 210.125 54.9219C209.958 55.3385 209.724 55.7188 209.422 56.0625C209.12 56.4062 208.766 56.6823 208.359 56.8906C207.953 57.0938 207.51 57.1953 207.031 57.1953C206.469 57.1953 205.982 57.0859 205.57 56.8672C205.159 56.6484 204.82 56.3568 204.555 55.9922C204.294 55.6276 204.099 55.2214 203.969 54.7734C203.844 54.3203 203.781 53.862 203.781 53.3984C203.781 52.8568 203.857 52.349 204.008 51.875C204.159 51.401 204.383 50.9844 204.68 50.625C204.977 50.2604 205.344 49.9766 205.781 49.7734C206.224 49.5703 206.734 49.4688 207.312 49.4688C207.964 49.4688 208.518 49.599 208.977 49.8594C209.435 50.1198 209.807 50.4688 210.094 50.9062C210.385 51.3438 210.599 51.8359 210.734 52.3828C210.87 52.9297 210.938 53.4922 210.938 54.0703V54.5938C210.938 55.1823 210.898 55.7812 210.82 56.3906C210.747 56.9948 210.604 57.5729 210.391 58.125C210.182 58.6771 209.878 59.1719 209.477 59.6094C209.076 60.0417 208.552 60.3854 207.906 60.6406C207.266 60.8906 206.474 61.0156 205.531 61.0156H205.383V59.7891ZM220.117 57.9219C220.117 58.6146 219.956 59.2031 219.633 59.6875C219.315 60.1667 218.883 60.5312 218.336 60.7812C217.794 61.0312 217.182 61.1562 216.5 61.1562C215.818 61.1562 215.203 61.0312 214.656 60.7812C214.109 60.5312 213.677 60.1667 213.359 59.6875C213.042 59.2031 212.883 58.6146 212.883 57.9219C212.883 57.4688 212.969 57.0547 213.141 56.6797C213.318 56.2995 213.565 55.9688 213.883 55.6875C214.206 55.4062 214.586 55.1901 215.023 55.0391C215.466 54.8828 215.953 54.8047 216.484 54.8047C217.182 54.8047 217.805 54.9401 218.352 55.2109C218.898 55.4766 219.328 55.8438 219.641 56.3125C219.958 56.7812 220.117 57.3177 220.117 57.9219ZM218.664 57.8906C218.664 57.4688 218.573 57.0964 218.391 56.7734C218.208 56.4453 217.953 56.1901 217.625 56.0078C217.297 55.8255 216.917 55.7344 216.484 55.7344C216.042 55.7344 215.659 55.8255 215.336 56.0078C215.018 56.1901 214.771 56.4453 214.594 56.7734C214.417 57.0964 214.328 57.4688 214.328 57.8906C214.328 58.3281 214.414 58.7031 214.586 59.0156C214.763 59.3229 215.013 59.5599 215.336 59.7266C215.664 59.888 216.052 59.9688 216.5 59.9688C216.948 59.9688 217.333 59.888 217.656 59.7266C217.979 59.5599 218.227 59.3229 218.398 59.0156C218.576 58.7031 218.664 58.3281 218.664 57.8906ZM219.852 52.5859C219.852 53.138 219.706 53.6354 219.414 54.0781C219.122 54.5208 218.724 54.8698 218.219 55.125C217.714 55.3802 217.141 55.5078 216.5 55.5078C215.849 55.5078 215.268 55.3802 214.758 55.125C214.253 54.8698 213.857 54.5208 213.57 54.0781C213.284 53.6354 213.141 53.138 213.141 52.5859C213.141 51.9245 213.284 51.362 213.57 50.8984C213.862 50.4349 214.26 50.0807 214.766 49.8359C215.271 49.5911 215.846 49.4688 216.492 49.4688C217.143 49.4688 217.721 49.5911 218.227 49.8359C218.732 50.0807 219.128 50.4349 219.414 50.8984C219.706 51.362 219.852 51.9245 219.852 52.5859ZM218.406 52.6094C218.406 52.2292 218.326 51.8932 218.164 51.6016C218.003 51.3099 217.779 51.0807 217.492 50.9141C217.206 50.7422 216.872 50.6562 216.492 50.6562C216.112 50.6562 215.779 50.737 215.492 50.8984C215.211 51.0547 214.99 51.2786 214.828 51.5703C214.672 51.862 214.594 52.2083 214.594 52.6094C214.594 53 214.672 53.3411 214.828 53.6328C214.99 53.9245 215.214 54.151 215.5 54.3125C215.786 54.474 216.12 54.5547 216.5 54.5547C216.88 54.5547 217.211 54.474 217.492 54.3125C217.779 54.151 218.003 53.9245 218.164 53.6328C218.326 53.3411 218.406 53 218.406 52.6094Z" fill="#50505A"/>
<path d="M134.451 60.2822V61H128.853V60.2822H134.451ZM129.105 51.0469V61H128.265V51.0469H129.105ZM133.754 55.5107V56.2285H128.853V55.5107H133.754ZM134.417 51.0469V51.7715H128.853V51.0469H134.417ZM136.365 53.6035L138.361 56.5908L140.364 53.6035H141.335L138.826 57.2266L141.438 61H140.48L138.368 57.876L136.263 61H135.306L137.917 57.2266L135.408 53.6035H136.365ZM145.457 60.4326C145.803 60.4326 146.127 60.3688 146.428 60.2412C146.733 60.109 146.984 59.9154 147.18 59.6602C147.38 59.4004 147.494 59.0837 147.521 58.71H148.301C148.278 59.1794 148.134 59.5986 147.87 59.9678C147.61 60.3324 147.269 60.6195 146.845 60.8291C146.425 61.0342 145.963 61.1367 145.457 61.1367C144.942 61.1367 144.486 61.0433 144.09 60.8564C143.698 60.6696 143.37 60.4098 143.105 60.0771C142.841 59.7399 142.641 59.348 142.504 58.9014C142.372 58.4502 142.306 57.9648 142.306 57.4453V57.1582C142.306 56.6387 142.372 56.1556 142.504 55.709C142.641 55.2578 142.841 54.8659 143.105 54.5332C143.37 54.196 143.698 53.9339 144.09 53.7471C144.482 53.5602 144.935 53.4668 145.45 53.4668C145.979 53.4668 146.453 53.5739 146.872 53.7881C147.296 54.0023 147.633 54.3053 147.884 54.6973C148.139 55.0892 148.278 55.554 148.301 56.0918H147.521C147.499 55.6953 147.394 55.3535 147.207 55.0664C147.02 54.7793 146.774 54.5583 146.469 54.4033C146.163 54.2484 145.824 54.1709 145.45 54.1709C145.031 54.1709 144.673 54.2529 144.377 54.417C144.081 54.5765 143.839 54.7975 143.652 55.0801C143.47 55.3581 143.336 55.6771 143.249 56.0371C143.162 56.3926 143.119 56.7663 143.119 57.1582V57.4453C143.119 57.8418 143.16 58.2201 143.242 58.5801C143.329 58.9355 143.463 59.2523 143.646 59.5303C143.832 59.8083 144.074 60.0293 144.37 60.1934C144.671 60.3529 145.033 60.4326 145.457 60.4326ZM150.762 50.5V61H149.948V50.5H150.762ZM150.577 56.8438L150.215 56.6387C150.242 56.2012 150.331 55.791 150.481 55.4082C150.632 55.0254 150.835 54.6882 151.09 54.3965C151.35 54.1048 151.653 53.877 151.999 53.7129C152.35 53.5488 152.737 53.4668 153.161 53.4668C153.53 53.4668 153.861 53.5169 154.152 53.6172C154.444 53.7174 154.692 53.877 154.897 54.0957C155.103 54.3145 155.257 54.5947 155.362 54.9365C155.472 55.2783 155.526 55.6953 155.526 56.1875V61H154.706V56.1807C154.706 55.6702 154.635 55.2715 154.494 54.9844C154.353 54.6927 154.152 54.4854 153.893 54.3623C153.633 54.2393 153.325 54.1777 152.97 54.1777C152.578 54.1777 152.234 54.2643 151.938 54.4375C151.646 54.6061 151.4 54.8271 151.199 55.1006C151.003 55.3695 150.853 55.6589 150.748 55.9688C150.643 56.2741 150.586 56.5658 150.577 56.8438ZM162.13 59.6738V55.8594C162.13 55.5085 162.057 55.2054 161.911 54.9502C161.765 54.695 161.551 54.499 161.269 54.3623C160.986 54.2256 160.637 54.1572 160.223 54.1572C159.84 54.1572 159.498 54.2256 159.197 54.3623C158.901 54.4945 158.666 54.6745 158.493 54.9023C158.325 55.1257 158.24 55.374 158.24 55.6475L157.42 55.6406C157.42 55.3626 157.488 55.0938 157.625 54.834C157.762 54.5742 157.955 54.3418 158.206 54.1367C158.457 53.9316 158.755 53.7699 159.102 53.6514C159.452 53.5283 159.838 53.4668 160.257 53.4668C160.785 53.4668 161.25 53.5557 161.651 53.7334C162.057 53.9111 162.374 54.1777 162.602 54.5332C162.829 54.8887 162.943 55.3353 162.943 55.873V59.4482C162.943 59.7035 162.962 59.9678 162.998 60.2412C163.039 60.5146 163.096 60.7402 163.169 60.918V61H162.301C162.246 60.8359 162.203 60.6309 162.171 60.3848C162.144 60.1341 162.13 59.8971 162.13 59.6738ZM162.321 56.6934L162.335 57.3223H160.729C160.309 57.3223 159.933 57.361 159.601 57.4385C159.272 57.5114 158.994 57.6208 158.767 57.7666C158.539 57.9079 158.363 58.0788 158.24 58.2793C158.122 58.4798 158.062 58.7077 158.062 58.9629C158.062 59.2272 158.129 59.4688 158.261 59.6875C158.397 59.9062 158.589 60.0817 158.835 60.2139C159.086 60.3415 159.382 60.4053 159.724 60.4053C160.179 60.4053 160.58 60.321 160.927 60.1523C161.278 59.9837 161.567 59.7627 161.795 59.4893C162.023 59.2158 162.175 58.9173 162.253 58.5938L162.608 59.0654C162.549 59.2933 162.44 59.528 162.28 59.7695C162.125 60.0065 161.923 60.2298 161.672 60.4395C161.421 60.6445 161.125 60.8132 160.783 60.9453C160.446 61.0729 160.063 61.1367 159.635 61.1367C159.152 61.1367 158.73 61.0456 158.37 60.8633C158.015 60.681 157.737 60.4326 157.536 60.1182C157.34 59.7992 157.242 59.4391 157.242 59.0381C157.242 58.6735 157.32 58.3477 157.475 58.0605C157.63 57.7689 157.853 57.5228 158.145 57.3223C158.441 57.1172 158.796 56.9622 159.211 56.8574C159.63 56.748 160.1 56.6934 160.619 56.6934H162.321ZM165.951 55.1826V61H165.138V53.6035H165.917L165.951 55.1826ZM165.767 56.8438L165.404 56.6387C165.432 56.2012 165.521 55.791 165.671 55.4082C165.821 55.0254 166.024 54.6882 166.279 54.3965C166.539 54.1048 166.842 53.877 167.188 53.7129C167.539 53.5488 167.927 53.4668 168.351 53.4668C168.72 53.4668 169.05 53.5169 169.342 53.6172C169.633 53.7174 169.882 53.877 170.087 54.0957C170.292 54.3145 170.447 54.5947 170.552 54.9365C170.661 55.2783 170.716 55.6953 170.716 56.1875V61H169.896V56.1807C169.896 55.6702 169.825 55.2715 169.684 54.9844C169.542 54.6927 169.342 54.4854 169.082 54.3623C168.822 54.2393 168.515 54.1777 168.159 54.1777C167.767 54.1777 167.423 54.2643 167.127 54.4375C166.835 54.6061 166.589 54.8271 166.389 55.1006C166.193 55.3695 166.042 55.6589 165.938 55.9688C165.833 56.2741 165.776 56.5658 165.767 56.8438ZM177.702 53.6035H178.461V60.8701C178.461 61.5127 178.338 62.0641 178.092 62.5244C177.85 62.9847 177.506 63.3379 177.06 63.584C176.618 63.8301 176.096 63.9531 175.494 63.9531C175.189 63.9531 174.874 63.9053 174.551 63.8096C174.232 63.7184 173.929 63.5771 173.642 63.3857C173.359 63.1989 173.118 62.9665 172.917 62.6885L173.375 62.1895C173.676 62.554 173.997 62.8206 174.339 62.9893C174.681 63.1624 175.05 63.249 175.446 63.249C175.916 63.249 176.312 63.1556 176.636 62.9688C176.964 62.7819 177.212 62.513 177.381 62.1621C177.554 61.8112 177.641 61.3896 177.641 60.8975V55.2305L177.702 53.6035ZM172.507 57.377V57.2334C172.507 56.6592 172.571 56.1419 172.698 55.6816C172.83 55.2168 173.02 54.8203 173.266 54.4922C173.512 54.1595 173.81 53.9066 174.161 53.7334C174.517 53.5557 174.918 53.4668 175.364 53.4668C175.793 53.4668 176.173 53.5374 176.506 53.6787C176.839 53.82 177.126 54.0228 177.367 54.2871C177.609 54.5514 177.802 54.8659 177.948 55.2305C178.099 55.5951 178.208 56.0007 178.276 56.4473V58.2725C178.222 58.6917 178.121 59.0768 177.976 59.4277C177.83 59.7741 177.636 60.0771 177.395 60.3369C177.153 60.5921 176.861 60.7904 176.52 60.9316C176.182 61.0684 175.793 61.1367 175.351 61.1367C174.909 61.1367 174.512 61.0456 174.161 60.8633C173.81 60.681 173.512 60.4235 173.266 60.0908C173.02 59.7536 172.83 59.3548 172.698 58.8945C172.571 58.4342 172.507 57.9284 172.507 57.377ZM173.327 57.2334V57.377C173.327 57.8099 173.37 58.2109 173.457 58.5801C173.544 58.9492 173.676 59.2705 173.854 59.5439C174.031 59.8174 174.257 60.0316 174.53 60.1865C174.804 60.3415 175.125 60.4189 175.494 60.4189C175.964 60.4189 176.358 60.3301 176.677 60.1523C176.996 59.9701 177.249 59.7308 177.436 59.4346C177.622 59.1338 177.759 58.8057 177.846 58.4502V56.3242C177.796 56.0827 177.718 55.8366 177.613 55.5859C177.513 55.3353 177.372 55.1051 177.189 54.8955C177.012 54.6813 176.784 54.5104 176.506 54.3828C176.232 54.2507 175.9 54.1846 175.508 54.1846C175.134 54.1846 174.808 54.262 174.53 54.417C174.257 54.5719 174.031 54.7884 173.854 55.0664C173.676 55.3398 173.544 55.6611 173.457 56.0303C173.37 56.3994 173.327 56.8005 173.327 57.2334ZM183.458 61.1367C182.975 61.1367 182.531 61.0479 182.125 60.8701C181.724 60.6924 181.373 60.4417 181.072 60.1182C180.776 59.7946 180.546 59.4118 180.382 58.9697C180.222 58.5231 180.143 58.0355 180.143 57.5068V57.2129C180.143 56.6432 180.227 56.1283 180.396 55.668C180.564 55.2077 180.797 54.8135 181.093 54.4854C181.389 54.1572 181.726 53.9066 182.104 53.7334C182.487 53.5557 182.888 53.4668 183.308 53.4668C183.777 53.4668 184.194 53.5511 184.559 53.7197C184.923 53.8838 185.229 54.1185 185.475 54.4238C185.725 54.7246 185.914 55.0824 186.042 55.4971C186.17 55.9072 186.233 56.3607 186.233 56.8574V57.3564H180.635V56.6592H185.42V56.5635C185.411 56.1488 185.326 55.7614 185.167 55.4014C185.012 55.0368 184.78 54.7406 184.47 54.5127C184.16 54.2848 183.772 54.1709 183.308 54.1709C182.961 54.1709 182.642 54.2438 182.351 54.3896C182.063 54.5355 181.815 54.7451 181.605 55.0186C181.4 55.2874 181.241 55.6087 181.127 55.9824C181.018 56.3516 180.963 56.7617 180.963 57.2129V57.5068C180.963 57.917 181.022 58.2998 181.141 58.6553C181.264 59.0062 181.437 59.3161 181.66 59.585C181.888 59.8538 182.157 60.0635 182.467 60.2139C182.777 60.3643 183.118 60.4395 183.492 60.4395C183.93 60.4395 184.317 60.3597 184.654 60.2002C184.992 60.0361 185.295 59.7786 185.563 59.4277L186.076 59.8242C185.917 60.0612 185.716 60.2799 185.475 60.4805C185.238 60.681 184.953 60.8405 184.62 60.959C184.287 61.0775 183.9 61.1367 183.458 61.1367Z" fill="#50505A"/>
<path d="M192.922 27.709V28.3379C192.922 29.0853 192.828 29.7552 192.642 30.3477C192.455 30.9401 192.186 31.4437 191.835 31.8584C191.484 32.2731 191.062 32.5898 190.57 32.8086C190.083 33.0273 189.536 33.1367 188.93 33.1367C188.342 33.1367 187.802 33.0273 187.31 32.8086C186.822 32.5898 186.398 32.2731 186.038 31.8584C185.683 31.4437 185.407 30.9401 185.211 30.3477C185.015 29.7552 184.917 29.0853 184.917 28.3379V27.709C184.917 26.9616 185.013 26.2939 185.204 25.7061C185.4 25.1136 185.676 24.61 186.031 24.1953C186.387 23.776 186.808 23.457 187.296 23.2383C187.788 23.0195 188.328 22.9102 188.916 22.9102C189.522 22.9102 190.069 23.0195 190.557 23.2383C191.049 23.457 191.47 23.776 191.821 24.1953C192.177 24.61 192.448 25.1136 192.635 25.7061C192.826 26.2939 192.922 26.9616 192.922 27.709ZM191.616 28.3379V27.6953C191.616 27.1029 191.555 26.5788 191.432 26.123C191.313 25.6673 191.138 25.2845 190.905 24.9746C190.673 24.6647 190.388 24.43 190.051 24.2705C189.718 24.111 189.34 24.0312 188.916 24.0312C188.506 24.0312 188.134 24.111 187.802 24.2705C187.474 24.43 187.191 24.6647 186.954 24.9746C186.722 25.2845 186.542 25.6673 186.414 26.123C186.286 26.5788 186.223 27.1029 186.223 27.6953V28.3379C186.223 28.9349 186.286 29.4635 186.414 29.9238C186.542 30.3796 186.724 30.7646 186.961 31.0791C187.202 31.389 187.487 31.6237 187.815 31.7832C188.148 31.9427 188.52 32.0225 188.93 32.0225C189.358 32.0225 189.739 31.9427 190.071 31.7832C190.404 31.6237 190.684 31.389 190.912 31.0791C191.145 30.7646 191.32 30.3796 191.438 29.9238C191.557 29.4635 191.616 28.9349 191.616 28.3379ZM199.231 31.291V25.6035H200.503V33H199.293L199.231 31.291ZM199.471 29.7324L199.997 29.7188C199.997 30.2109 199.945 30.6667 199.84 31.0859C199.74 31.5007 199.576 31.8607 199.348 32.166C199.12 32.4714 198.821 32.7106 198.452 32.8838C198.083 33.0524 197.634 33.1367 197.105 33.1367C196.745 33.1367 196.415 33.0843 196.114 32.9795C195.818 32.8747 195.563 32.7129 195.349 32.4941C195.134 32.2754 194.968 31.9906 194.85 31.6396C194.736 31.2887 194.679 30.8672 194.679 30.375V25.6035H195.943V30.3887C195.943 30.7214 195.98 30.9971 196.053 31.2158C196.13 31.43 196.233 31.6009 196.36 31.7285C196.493 31.8516 196.638 31.9382 196.798 31.9883C196.962 32.0384 197.131 32.0635 197.304 32.0635C197.841 32.0635 198.268 31.9609 198.582 31.7559C198.896 31.5462 199.122 31.266 199.259 30.915C199.4 30.5596 199.471 30.1654 199.471 29.7324ZM205.527 25.6035V26.5742H201.528V25.6035H205.527ZM202.882 23.8057H204.146V31.168C204.146 31.4186 204.185 31.6077 204.263 31.7354C204.34 31.863 204.44 31.9473 204.563 31.9883C204.687 32.0293 204.819 32.0498 204.96 32.0498C205.065 32.0498 205.174 32.0407 205.288 32.0225C205.407 31.9997 205.495 31.9814 205.555 31.9678L205.562 33C205.461 33.0319 205.329 33.0615 205.165 33.0889C205.006 33.1208 204.812 33.1367 204.584 33.1367C204.274 33.1367 203.989 33.0752 203.729 32.9521C203.47 32.8291 203.262 32.624 203.107 32.3369C202.957 32.0452 202.882 31.6533 202.882 31.1611V23.8057ZM211.803 25.6035H212.951V32.8428C212.951 33.4945 212.819 34.0505 212.555 34.5107C212.29 34.971 211.921 35.3197 211.447 35.5566C210.978 35.7982 210.436 35.9189 209.82 35.9189C209.565 35.9189 209.264 35.8779 208.918 35.7959C208.576 35.7184 208.239 35.584 207.906 35.3926C207.578 35.2057 207.302 34.9528 207.079 34.6338L207.742 33.8818C208.052 34.2555 208.376 34.5153 208.713 34.6611C209.055 34.807 209.392 34.8799 209.725 34.8799C210.126 34.8799 210.472 34.8047 210.764 34.6543C211.055 34.5039 211.281 34.2806 211.44 33.9844C211.604 33.6927 211.687 33.3327 211.687 32.9043V27.2305L211.803 25.6035ZM206.71 29.3838V29.2402C206.71 28.6751 206.776 28.1624 206.908 27.7021C207.045 27.2373 207.239 26.8385 207.489 26.5059C207.744 26.1732 208.052 25.918 208.412 25.7402C208.772 25.5579 209.178 25.4668 209.629 25.4668C210.094 25.4668 210.499 25.5488 210.846 25.7129C211.197 25.8724 211.493 26.1071 211.734 26.417C211.98 26.7223 212.174 27.0915 212.315 27.5244C212.457 27.9574 212.555 28.4473 212.609 28.9941V29.623C212.559 30.1654 212.461 30.653 212.315 31.0859C212.174 31.5189 211.98 31.888 211.734 32.1934C211.493 32.4987 211.197 32.7334 210.846 32.8975C210.495 33.057 210.085 33.1367 209.615 33.1367C209.173 33.1367 208.772 33.0433 208.412 32.8564C208.057 32.6696 207.751 32.4076 207.496 32.0703C207.241 31.7331 207.045 31.3366 206.908 30.8809C206.776 30.4206 206.71 29.9215 206.71 29.3838ZM207.975 29.2402V29.3838C207.975 29.7529 208.011 30.0993 208.084 30.4229C208.161 30.7464 208.278 31.0312 208.433 31.2773C208.592 31.5234 208.795 31.7171 209.041 31.8584C209.287 31.9951 209.581 32.0635 209.923 32.0635C210.342 32.0635 210.688 31.9746 210.962 31.7969C211.235 31.6191 211.452 31.3844 211.611 31.0928C211.775 30.8011 211.903 30.4844 211.994 30.1426V28.4951C211.944 28.2445 211.867 28.0029 211.762 27.7705C211.661 27.5335 211.529 27.3239 211.365 27.1416C211.206 26.9548 211.007 26.8066 210.771 26.6973C210.534 26.5879 210.256 26.5332 209.937 26.5332C209.59 26.5332 209.292 26.6061 209.041 26.752C208.795 26.8932 208.592 27.0892 208.433 27.3398C208.278 27.5859 208.161 27.873 208.084 28.2012C208.011 28.5247 207.975 28.8711 207.975 29.2402ZM214.537 29.3838V29.2266C214.537 28.6934 214.615 28.1989 214.77 27.7432C214.924 27.2829 215.148 26.8841 215.439 26.5469C215.731 26.2051 216.084 25.9408 216.499 25.7539C216.914 25.5625 217.379 25.4668 217.894 25.4668C218.413 25.4668 218.88 25.5625 219.295 25.7539C219.714 25.9408 220.07 26.2051 220.361 26.5469C220.658 26.8841 220.883 27.2829 221.038 27.7432C221.193 28.1989 221.271 28.6934 221.271 29.2266V29.3838C221.271 29.917 221.193 30.4115 221.038 30.8672C220.883 31.3229 220.658 31.7217 220.361 32.0635C220.07 32.4007 219.716 32.665 219.302 32.8564C218.892 33.0433 218.427 33.1367 217.907 33.1367C217.388 33.1367 216.921 33.0433 216.506 32.8564C216.091 32.665 215.736 32.4007 215.439 32.0635C215.148 31.7217 214.924 31.3229 214.77 30.8672C214.615 30.4115 214.537 29.917 214.537 29.3838ZM215.802 29.2266V29.3838C215.802 29.7529 215.845 30.1016 215.932 30.4297C216.018 30.7533 216.148 31.0404 216.321 31.291C216.499 31.5417 216.72 31.7399 216.984 31.8857C217.249 32.027 217.556 32.0977 217.907 32.0977C218.254 32.0977 218.557 32.027 218.816 31.8857C219.081 31.7399 219.299 31.5417 219.473 31.291C219.646 31.0404 219.776 30.7533 219.862 30.4297C219.953 30.1016 219.999 29.7529 219.999 29.3838V29.2266C219.999 28.862 219.953 28.5179 219.862 28.1943C219.776 27.8662 219.644 27.5768 219.466 27.3262C219.293 27.071 219.074 26.8704 218.81 26.7246C218.55 26.5788 218.244 26.5059 217.894 26.5059C217.547 26.5059 217.242 26.5788 216.978 26.7246C216.718 26.8704 216.499 27.071 216.321 27.3262C216.148 27.5768 216.018 27.8662 215.932 28.1943C215.845 28.5179 215.802 28.862 215.802 29.2266ZM224.23 25.6035V33H222.959V25.6035H224.23ZM222.863 23.6416C222.863 23.4365 222.925 23.2633 223.048 23.1221C223.175 22.9808 223.362 22.9102 223.608 22.9102C223.85 22.9102 224.035 22.9808 224.162 23.1221C224.294 23.2633 224.36 23.4365 224.36 23.6416C224.36 23.8376 224.294 24.0062 224.162 24.1475C224.035 24.2842 223.85 24.3525 223.608 24.3525C223.362 24.3525 223.175 24.2842 223.048 24.1475C222.925 24.0062 222.863 23.8376 222.863 23.6416ZM227.525 27.1826V33H226.261V25.6035H227.457L227.525 27.1826ZM227.225 29.0215L226.698 29.001C226.703 28.4951 226.778 28.028 226.924 27.5996C227.07 27.1667 227.275 26.7907 227.539 26.4717C227.803 26.1527 228.118 25.9066 228.482 25.7334C228.852 25.5557 229.259 25.4668 229.706 25.4668C230.071 25.4668 230.399 25.5169 230.69 25.6172C230.982 25.7129 231.23 25.8678 231.436 26.082C231.645 26.2962 231.805 26.5742 231.914 26.916C232.023 27.2533 232.078 27.6657 232.078 28.1533V33H230.807V28.1396C230.807 27.7523 230.75 27.4424 230.636 27.21C230.522 26.973 230.355 26.8021 230.137 26.6973C229.918 26.5879 229.649 26.5332 229.33 26.5332C229.016 26.5332 228.729 26.5993 228.469 26.7314C228.214 26.8636 227.993 27.0459 227.806 27.2783C227.623 27.5107 227.48 27.7773 227.375 28.0781C227.275 28.3743 227.225 28.6888 227.225 29.0215ZM238.791 25.6035H239.939V32.8428C239.939 33.4945 239.807 34.0505 239.543 34.5107C239.279 34.971 238.91 35.3197 238.436 35.5566C237.966 35.7982 237.424 35.9189 236.809 35.9189C236.553 35.9189 236.253 35.8779 235.906 35.7959C235.564 35.7184 235.227 35.584 234.895 35.3926C234.566 35.2057 234.291 34.9528 234.067 34.6338L234.73 33.8818C235.04 34.2555 235.364 34.5153 235.701 34.6611C236.043 34.807 236.38 34.8799 236.713 34.8799C237.114 34.8799 237.46 34.8047 237.752 34.6543C238.044 34.5039 238.269 34.2806 238.429 33.9844C238.593 33.6927 238.675 33.3327 238.675 32.9043V27.2305L238.791 25.6035ZM233.698 29.3838V29.2402C233.698 28.6751 233.764 28.1624 233.896 27.7021C234.033 27.2373 234.227 26.8385 234.478 26.5059C234.733 26.1732 235.04 25.918 235.4 25.7402C235.76 25.5579 236.166 25.4668 236.617 25.4668C237.082 25.4668 237.488 25.5488 237.834 25.7129C238.185 25.8724 238.481 26.1071 238.723 26.417C238.969 26.7223 239.162 27.0915 239.304 27.5244C239.445 27.9574 239.543 28.4473 239.598 28.9941V29.623C239.548 30.1654 239.45 30.653 239.304 31.0859C239.162 31.5189 238.969 31.888 238.723 32.1934C238.481 32.4987 238.185 32.7334 237.834 32.8975C237.483 33.057 237.073 33.1367 236.604 33.1367C236.161 33.1367 235.76 33.0433 235.4 32.8564C235.045 32.6696 234.74 32.4076 234.484 32.0703C234.229 31.7331 234.033 31.3366 233.896 30.8809C233.764 30.4206 233.698 29.9215 233.698 29.3838ZM234.963 29.2402V29.3838C234.963 29.7529 234.999 30.0993 235.072 30.4229C235.15 30.7464 235.266 31.0312 235.421 31.2773C235.58 31.5234 235.783 31.7171 236.029 31.8584C236.275 31.9951 236.569 32.0635 236.911 32.0635C237.33 32.0635 237.677 31.9746 237.95 31.7969C238.224 31.6191 238.44 31.3844 238.6 31.0928C238.764 30.8011 238.891 30.4844 238.982 30.1426V28.4951C238.932 28.2445 238.855 28.0029 238.75 27.7705C238.65 27.5335 238.518 27.3239 238.354 27.1416C238.194 26.9548 237.996 26.8066 237.759 26.6973C237.522 26.5879 237.244 26.5332 236.925 26.5332C236.578 26.5332 236.28 26.6061 236.029 26.752C235.783 26.8932 235.58 27.0892 235.421 27.3398C235.266 27.5859 235.15 27.873 235.072 28.2012C234.999 28.5247 234.963 28.8711 234.963 29.2402Z" fill="#50505A"/>
<circle cx="243" cy="56" r="5" fill="#D0C018"/>
<g filter="url(#filter1_d_1112_67148)">
<path d="M22 261C22 261.552 22.4477 262 23 262H211C211.552 262 212 261.552 212 261V202C212 201.448 211.552 201 211 201H127.414C127.149 201 126.895 200.895 126.707 200.707L117.707 191.707C117.317 191.317 116.683 191.317 116.293 191.707L107.293 200.707C107.105 200.895 106.851 201 106.586 201H23C22.4477 201 22 201.448 22 202V261Z" fill="#FBFCFD"/>
</g>
<path d="M159.14 244.078L158.497 243.894L158.982 239.047H163.959V239.812H159.68L159.331 243.162C159.504 243.039 159.755 242.918 160.083 242.8C160.416 242.677 160.789 242.615 161.204 242.615C161.646 242.615 162.047 242.69 162.407 242.841C162.772 242.987 163.084 243.201 163.344 243.483C163.604 243.761 163.804 244.099 163.945 244.495C164.087 244.887 164.157 245.331 164.157 245.828C164.157 246.307 164.098 246.746 163.979 247.147C163.861 247.549 163.681 247.899 163.439 248.2C163.198 248.496 162.89 248.727 162.517 248.891C162.143 249.055 161.699 249.137 161.184 249.137C160.787 249.137 160.413 249.082 160.062 248.973C159.716 248.859 159.406 248.688 159.133 248.46C158.859 248.232 158.636 247.945 158.463 247.599C158.294 247.252 158.189 246.847 158.148 246.382H158.935C158.989 246.828 159.11 247.204 159.297 247.51C159.484 247.815 159.734 248.045 160.049 248.2C160.368 248.355 160.746 248.433 161.184 248.433C161.539 248.433 161.849 248.376 162.113 248.262C162.382 248.148 162.605 247.981 162.783 247.763C162.965 247.539 163.102 247.268 163.193 246.949C163.289 246.626 163.337 246.257 163.337 245.842C163.337 245.486 163.287 245.16 163.187 244.864C163.086 244.563 162.938 244.301 162.742 244.078C162.551 243.85 162.314 243.675 162.031 243.552C161.749 243.429 161.425 243.367 161.061 243.367C160.587 243.367 160.208 243.431 159.926 243.559C159.648 243.686 159.386 243.859 159.14 244.078ZM171.834 239.047V239.519L167.582 249H166.734L170.959 239.751H165.292V239.047H171.834ZM173.529 248.501C173.529 248.341 173.579 248.207 173.68 248.098C173.785 247.984 173.926 247.927 174.104 247.927C174.286 247.927 174.429 247.981 174.534 248.091C174.639 248.2 174.691 248.337 174.691 248.501C174.691 248.656 174.639 248.788 174.534 248.897C174.429 249.007 174.286 249.062 174.104 249.062C173.926 249.062 173.785 249.007 173.68 248.897C173.579 248.788 173.529 248.656 173.529 248.501ZM182.949 239.047V239.519L178.697 249H177.85L182.074 239.751H176.407V239.047H182.949ZM189.293 238.972H189.409V239.689H189.293C188.664 239.689 188.104 239.792 187.611 239.997C187.124 240.202 186.711 240.498 186.374 240.886C186.041 241.269 185.788 241.733 185.615 242.28C185.442 242.827 185.355 243.44 185.355 244.119V245.493C185.355 245.953 185.417 246.366 185.54 246.73C185.663 247.09 185.834 247.398 186.053 247.653C186.271 247.909 186.527 248.102 186.818 248.234C187.11 248.367 187.424 248.433 187.762 248.433C188.094 248.433 188.393 248.364 188.657 248.228C188.922 248.091 189.145 247.899 189.327 247.653C189.514 247.407 189.655 247.125 189.751 246.806C189.851 246.482 189.901 246.136 189.901 245.767C189.901 245.416 189.856 245.085 189.765 244.775C189.678 244.461 189.544 244.183 189.361 243.941C189.179 243.7 188.951 243.511 188.678 243.374C188.404 243.237 188.083 243.169 187.714 243.169C187.295 243.169 186.903 243.265 186.538 243.456C186.174 243.647 185.875 243.903 185.643 244.222C185.415 244.541 185.294 244.889 185.28 245.268L184.809 245.261C184.84 244.832 184.938 244.447 185.103 244.105C185.267 243.759 185.483 243.465 185.752 243.224C186.025 242.978 186.338 242.791 186.688 242.663C187.044 242.531 187.427 242.465 187.837 242.465C188.315 242.465 188.732 242.551 189.088 242.725C189.448 242.898 189.746 243.137 189.983 243.442C190.225 243.743 190.405 244.092 190.523 244.488C190.646 244.88 190.708 245.295 190.708 245.732C190.708 246.211 190.64 246.658 190.503 247.072C190.371 247.482 190.175 247.842 189.915 248.152C189.66 248.462 189.35 248.704 188.985 248.877C188.625 249.05 188.217 249.137 187.762 249.137C187.26 249.137 186.812 249.041 186.415 248.85C186.019 248.658 185.679 248.394 185.396 248.057C185.118 247.719 184.904 247.332 184.754 246.895C184.608 246.452 184.535 245.981 184.535 245.479V244.604C184.535 243.757 184.633 242.989 184.829 242.301C185.025 241.608 185.319 241.013 185.711 240.517C186.107 240.02 186.602 239.639 187.194 239.375C187.791 239.106 188.491 238.972 189.293 238.972ZM192.164 241.487V240.961C192.164 240.583 192.244 240.239 192.403 239.929C192.563 239.619 192.788 239.37 193.08 239.184C193.372 238.997 193.714 238.903 194.105 238.903C194.507 238.903 194.851 238.997 195.138 239.184C195.429 239.37 195.655 239.619 195.814 239.929C195.974 240.239 196.054 240.583 196.054 240.961V241.487C196.054 241.856 195.974 242.196 195.814 242.506C195.66 242.816 195.436 243.064 195.145 243.251C194.857 243.438 194.516 243.531 194.119 243.531C193.723 243.531 193.376 243.438 193.08 243.251C192.788 243.064 192.563 242.816 192.403 242.506C192.244 242.196 192.164 241.856 192.164 241.487ZM192.82 240.961V241.487C192.82 241.729 192.866 241.961 192.957 242.185C193.053 242.403 193.196 242.583 193.388 242.725C193.584 242.866 193.827 242.937 194.119 242.937C194.411 242.937 194.65 242.868 194.837 242.731C195.024 242.59 195.163 242.41 195.254 242.191C195.35 241.968 195.397 241.733 195.397 241.487V240.961C195.397 240.71 195.35 240.476 195.254 240.257C195.163 240.034 195.021 239.851 194.83 239.71C194.639 239.569 194.397 239.498 194.105 239.498C193.823 239.498 193.586 239.569 193.395 239.71C193.203 239.851 193.06 240.034 192.964 240.257C192.868 240.476 192.82 240.71 192.82 240.961ZM197.168 247.093V246.56C197.168 246.186 197.248 245.844 197.407 245.534C197.567 245.224 197.792 244.976 198.084 244.789C198.376 244.602 198.72 244.509 199.116 244.509C199.517 244.509 199.861 244.602 200.148 244.789C200.44 244.976 200.666 245.224 200.825 245.534C200.985 245.844 201.064 246.186 201.064 246.56V247.093C201.064 247.466 200.985 247.808 200.825 248.118C200.67 248.428 200.447 248.676 200.155 248.863C199.868 249.05 199.526 249.144 199.13 249.144C198.729 249.144 198.382 249.05 198.091 248.863C197.799 248.676 197.571 248.428 197.407 248.118C197.248 247.808 197.168 247.466 197.168 247.093ZM197.831 246.56V247.093C197.831 247.339 197.877 247.574 197.968 247.797C198.063 248.016 198.207 248.196 198.398 248.337C198.594 248.478 198.838 248.549 199.13 248.549C199.417 248.549 199.654 248.48 199.841 248.344C200.032 248.202 200.174 248.02 200.265 247.797C200.36 247.574 200.408 247.339 200.408 247.093V246.56C200.408 246.3 200.36 246.061 200.265 245.842C200.174 245.618 200.032 245.441 199.841 245.309C199.649 245.172 199.408 245.104 199.116 245.104C198.834 245.104 198.594 245.172 198.398 245.309C198.207 245.441 198.063 245.618 197.968 245.842C197.877 246.061 197.831 246.3 197.831 246.56ZM199.239 240.394L194.379 248.173L193.873 247.845L198.733 240.065L199.239 240.394Z" fill="#50505A"/>
<path d="M109.695 237.562V249H108.25V239.367L105.336 240.43V239.125L109.469 237.562H109.695ZM116.055 242.602H117.086C117.591 242.602 118.008 242.518 118.336 242.352C118.669 242.18 118.917 241.948 119.078 241.656C119.245 241.359 119.328 241.026 119.328 240.656C119.328 240.219 119.255 239.852 119.109 239.555C118.964 239.258 118.745 239.034 118.453 238.883C118.161 238.732 117.792 238.656 117.344 238.656C116.938 238.656 116.578 238.737 116.266 238.898C115.958 239.055 115.716 239.279 115.539 239.57C115.367 239.862 115.281 240.206 115.281 240.602H113.836C113.836 240.023 113.982 239.497 114.273 239.023C114.565 238.549 114.974 238.172 115.5 237.891C116.031 237.609 116.646 237.469 117.344 237.469C118.031 237.469 118.633 237.591 119.148 237.836C119.664 238.076 120.065 238.435 120.352 238.914C120.638 239.388 120.781 239.979 120.781 240.688C120.781 240.974 120.714 241.281 120.578 241.609C120.448 241.932 120.242 242.234 119.961 242.516C119.685 242.797 119.326 243.029 118.883 243.211C118.44 243.388 117.909 243.477 117.289 243.477H116.055V242.602ZM116.055 243.789V242.922H117.289C118.013 242.922 118.612 243.008 119.086 243.18C119.56 243.352 119.932 243.581 120.203 243.867C120.479 244.154 120.672 244.469 120.781 244.812C120.896 245.151 120.953 245.49 120.953 245.828C120.953 246.359 120.862 246.831 120.68 247.242C120.503 247.654 120.25 248.003 119.922 248.289C119.599 248.576 119.219 248.792 118.781 248.938C118.344 249.083 117.867 249.156 117.352 249.156C116.857 249.156 116.391 249.086 115.953 248.945C115.521 248.805 115.138 248.602 114.805 248.336C114.471 248.065 114.211 247.734 114.023 247.344C113.836 246.948 113.742 246.497 113.742 245.992H115.188C115.188 246.388 115.273 246.734 115.445 247.031C115.622 247.328 115.872 247.56 116.195 247.727C116.523 247.888 116.909 247.969 117.352 247.969C117.794 247.969 118.174 247.893 118.492 247.742C118.815 247.586 119.062 247.352 119.234 247.039C119.411 246.727 119.5 246.333 119.5 245.859C119.5 245.385 119.401 244.997 119.203 244.695C119.005 244.388 118.724 244.161 118.359 244.016C118 243.865 117.576 243.789 117.086 243.789H116.055ZM130.633 245.172V246.359H122.414V245.508L127.508 237.625H128.688L127.422 239.906L124.055 245.172H130.633ZM129.047 237.625V249H127.602V237.625H129.047Z" fill="#50505A"/>
<path d="M36.6006 239.047V249H35.7666V239.047H36.6006ZM40.0117 239.047V239.771H32.3623V239.047H40.0117ZM41.7344 242.827V249H40.9209V241.604H41.7139L41.7344 242.827ZM44.3525 241.549L44.332 242.301C44.2409 242.287 44.152 242.276 44.0654 242.267C43.9788 242.257 43.8854 242.253 43.7852 242.253C43.4297 242.253 43.1175 242.319 42.8486 242.451C42.5843 242.579 42.361 242.759 42.1787 242.991C41.9964 243.219 41.8574 243.488 41.7617 243.798C41.666 244.103 41.6113 244.431 41.5977 244.782L41.2969 244.898C41.2969 244.415 41.347 243.966 41.4473 243.552C41.5475 243.137 41.7002 242.775 41.9053 242.465C42.1149 242.15 42.377 241.907 42.6914 241.733C43.0104 241.556 43.3841 241.467 43.8125 241.467C43.9173 241.467 44.0199 241.476 44.1201 241.494C44.2249 241.508 44.3024 241.526 44.3525 241.549ZM49.8623 247.674V243.859C49.8623 243.508 49.7894 243.205 49.6436 242.95C49.4977 242.695 49.2835 242.499 49.001 242.362C48.7184 242.226 48.3698 242.157 47.9551 242.157C47.5723 242.157 47.2305 242.226 46.9297 242.362C46.6335 242.494 46.3988 242.674 46.2256 242.902C46.057 243.126 45.9727 243.374 45.9727 243.647L45.1523 243.641C45.1523 243.363 45.2207 243.094 45.3574 242.834C45.4941 242.574 45.6878 242.342 45.9385 242.137C46.1891 241.932 46.4876 241.77 46.834 241.651C47.1849 241.528 47.57 241.467 47.9893 241.467C48.5179 241.467 48.9827 241.556 49.3838 241.733C49.7894 241.911 50.1061 242.178 50.334 242.533C50.5618 242.889 50.6758 243.335 50.6758 243.873V247.448C50.6758 247.703 50.694 247.968 50.7305 248.241C50.7715 248.515 50.8285 248.74 50.9014 248.918V249H50.0332C49.9785 248.836 49.9352 248.631 49.9033 248.385C49.876 248.134 49.8623 247.897 49.8623 247.674ZM50.0537 244.693L50.0674 245.322H48.4609C48.0417 245.322 47.6657 245.361 47.333 245.438C47.0049 245.511 46.7269 245.621 46.499 245.767C46.2712 245.908 46.0957 246.079 45.9727 246.279C45.8542 246.48 45.7949 246.708 45.7949 246.963C45.7949 247.227 45.861 247.469 45.9932 247.688C46.1299 247.906 46.3213 248.082 46.5674 248.214C46.818 248.341 47.1143 248.405 47.4561 248.405C47.9118 248.405 48.3128 248.321 48.6592 248.152C49.0101 247.984 49.2995 247.763 49.5273 247.489C49.7552 247.216 49.9079 246.917 49.9854 246.594L50.3408 247.065C50.2816 247.293 50.1722 247.528 50.0127 247.77C49.8577 248.007 49.6549 248.23 49.4043 248.439C49.1536 248.645 48.8574 248.813 48.5156 248.945C48.1784 249.073 47.7956 249.137 47.3672 249.137C46.8841 249.137 46.4626 249.046 46.1025 248.863C45.7471 248.681 45.4691 248.433 45.2686 248.118C45.0726 247.799 44.9746 247.439 44.9746 247.038C44.9746 246.674 45.0521 246.348 45.207 246.061C45.362 245.769 45.5853 245.523 45.877 245.322C46.1732 245.117 46.5286 244.962 46.9434 244.857C47.3626 244.748 47.832 244.693 48.3516 244.693H50.0537ZM53.6836 243.183V249H52.8701V241.604H53.6494L53.6836 243.183ZM53.499 244.844L53.1367 244.639C53.1641 244.201 53.2529 243.791 53.4033 243.408C53.5537 243.025 53.7565 242.688 54.0117 242.396C54.2715 242.105 54.5745 241.877 54.9209 241.713C55.2718 241.549 55.6592 241.467 56.083 241.467C56.4521 241.467 56.7826 241.517 57.0742 241.617C57.3659 241.717 57.6143 241.877 57.8193 242.096C58.0244 242.314 58.1794 242.595 58.2842 242.937C58.3936 243.278 58.4482 243.695 58.4482 244.188V249H57.6279V244.181C57.6279 243.67 57.5573 243.271 57.416 242.984C57.2747 242.693 57.0742 242.485 56.8145 242.362C56.5547 242.239 56.2471 242.178 55.8916 242.178C55.4997 242.178 55.1556 242.264 54.8594 242.438C54.5677 242.606 54.3216 242.827 54.1211 243.101C53.9251 243.369 53.7747 243.659 53.6699 243.969C53.5651 244.274 53.5081 244.566 53.499 244.844ZM64.9971 247.113C64.9971 246.913 64.9469 246.715 64.8467 246.519C64.7464 246.323 64.5527 246.143 64.2656 245.979C63.9831 245.814 63.5661 245.675 63.0146 245.562C62.6045 245.47 62.2376 245.368 61.9141 245.254C61.5951 245.14 61.3262 245.003 61.1074 244.844C60.8887 244.684 60.7223 244.493 60.6084 244.27C60.4945 244.046 60.4375 243.782 60.4375 243.477C60.4375 243.203 60.4967 242.946 60.6152 242.704C60.7383 242.458 60.9115 242.244 61.1348 242.062C61.3626 241.875 61.6361 241.729 61.9551 241.624C62.2786 241.519 62.641 241.467 63.042 241.467C63.6117 241.467 64.0993 241.565 64.5049 241.761C64.915 241.952 65.2272 242.214 65.4414 242.547C65.6602 242.88 65.7695 243.256 65.7695 243.675H64.9561C64.9561 243.42 64.8809 243.178 64.7305 242.95C64.5846 242.722 64.3682 242.535 64.0811 242.39C63.7985 242.244 63.4521 242.171 63.042 242.171C62.6182 242.171 62.2741 242.235 62.0098 242.362C61.7454 242.49 61.5518 242.652 61.4287 242.848C61.3102 243.044 61.251 243.246 61.251 243.456C61.251 243.62 61.276 243.771 61.3262 243.907C61.3809 244.039 61.4766 244.162 61.6133 244.276C61.7546 244.39 61.9551 244.497 62.2148 244.598C62.4746 244.698 62.8118 244.796 63.2266 244.892C63.8236 245.024 64.3112 245.186 64.6895 245.377C65.0723 245.564 65.3548 245.796 65.5371 246.074C65.7194 246.348 65.8105 246.68 65.8105 247.072C65.8105 247.378 65.7467 247.658 65.6191 247.913C65.4915 248.164 65.307 248.38 65.0654 248.562C64.8285 248.745 64.5413 248.886 64.2041 248.986C63.8714 249.087 63.4977 249.137 63.083 249.137C62.4587 249.137 61.93 249.034 61.4971 248.829C61.0687 248.619 60.7428 248.346 60.5195 248.009C60.3008 247.667 60.1914 247.305 60.1914 246.922H61.0049C61.0322 247.305 61.153 247.608 61.3672 247.831C61.5814 248.05 61.8434 248.205 62.1533 248.296C62.4678 248.387 62.7777 248.433 63.083 248.433C63.5023 248.433 63.8532 248.371 64.1357 248.248C64.4183 248.125 64.6325 247.963 64.7783 247.763C64.9242 247.562 64.9971 247.346 64.9971 247.113ZM69.0645 249H68.251V240.688C68.251 240.182 68.3376 239.756 68.5107 239.409C68.6885 239.063 68.9391 238.801 69.2627 238.623C69.5908 238.445 69.9805 238.356 70.4316 238.356C70.5729 238.356 70.7188 238.366 70.8691 238.384C71.0195 238.397 71.1654 238.427 71.3066 238.473L71.2451 239.163C71.1312 239.131 71.015 239.111 70.8965 239.102C70.7826 239.088 70.6481 239.081 70.4932 239.081C70.1969 239.081 69.9417 239.145 69.7275 239.272C69.5133 239.396 69.3493 239.576 69.2354 239.812C69.1214 240.049 69.0645 240.341 69.0645 240.688V249ZM70.8281 241.604V242.273H67.0273V241.604H70.8281ZM74.9912 249.137C74.5081 249.137 74.0638 249.048 73.6582 248.87C73.2572 248.692 72.9062 248.442 72.6055 248.118C72.3092 247.795 72.0791 247.412 71.915 246.97C71.7555 246.523 71.6758 246.035 71.6758 245.507V245.213C71.6758 244.643 71.7601 244.128 71.9287 243.668C72.0973 243.208 72.3298 242.813 72.626 242.485C72.9222 242.157 73.2594 241.907 73.6377 241.733C74.0205 241.556 74.4215 241.467 74.8408 241.467C75.3102 241.467 75.7272 241.551 76.0918 241.72C76.4564 241.884 76.7617 242.118 77.0078 242.424C77.2585 242.725 77.4476 243.082 77.5752 243.497C77.7028 243.907 77.7666 244.361 77.7666 244.857V245.356H72.168V244.659H76.9531V244.563C76.944 244.149 76.8597 243.761 76.7002 243.401C76.5452 243.037 76.3128 242.741 76.0029 242.513C75.693 242.285 75.3057 242.171 74.8408 242.171C74.4945 242.171 74.1755 242.244 73.8838 242.39C73.5967 242.535 73.3483 242.745 73.1387 243.019C72.9336 243.287 72.7741 243.609 72.6602 243.982C72.5508 244.352 72.4961 244.762 72.4961 245.213V245.507C72.4961 245.917 72.5553 246.3 72.6738 246.655C72.7969 247.006 72.9701 247.316 73.1934 247.585C73.4212 247.854 73.6901 248.063 74 248.214C74.3099 248.364 74.6517 248.439 75.0254 248.439C75.4629 248.439 75.8503 248.36 76.1875 248.2C76.5247 248.036 76.8278 247.779 77.0967 247.428L77.6094 247.824C77.4499 248.061 77.2493 248.28 77.0078 248.48C76.7708 248.681 76.486 248.84 76.1533 248.959C75.8206 249.077 75.4333 249.137 74.9912 249.137ZM80.1934 242.827V249H79.3799V241.604H80.1729L80.1934 242.827ZM82.8115 241.549L82.791 242.301C82.6999 242.287 82.611 242.276 82.5244 242.267C82.4378 242.257 82.3444 242.253 82.2441 242.253C81.8887 242.253 81.5765 242.319 81.3076 242.451C81.0433 242.579 80.82 242.759 80.6377 242.991C80.4554 243.219 80.3164 243.488 80.2207 243.798C80.125 244.103 80.0703 244.431 80.0566 244.782L79.7559 244.898C79.7559 244.415 79.806 243.966 79.9062 243.552C80.0065 243.137 80.1592 242.775 80.3643 242.465C80.5739 242.15 80.8359 241.907 81.1504 241.733C81.4694 241.556 81.8431 241.467 82.2715 241.467C82.3763 241.467 82.4788 241.476 82.5791 241.494C82.6839 241.508 82.7614 241.526 82.8115 241.549Z" fill="#50505A"/>
<path d="M97.9219 215.709V216.338C97.9219 217.085 97.8285 217.755 97.6416 218.348C97.4548 218.94 97.1859 219.444 96.835 219.858C96.484 220.273 96.0625 220.59 95.5703 220.809C95.0827 221.027 94.5358 221.137 93.9297 221.137C93.3418 221.137 92.8018 221.027 92.3096 220.809C91.8219 220.59 91.3981 220.273 91.0381 219.858C90.6826 219.444 90.4069 218.94 90.2109 218.348C90.015 217.755 89.917 217.085 89.917 216.338V215.709C89.917 214.962 90.0127 214.294 90.2041 213.706C90.4001 213.114 90.6758 212.61 91.0312 212.195C91.3867 211.776 91.8083 211.457 92.2959 211.238C92.7881 211.02 93.3281 210.91 93.916 210.91C94.5221 210.91 95.069 211.02 95.5566 211.238C96.0488 211.457 96.4704 211.776 96.8213 212.195C97.1768 212.61 97.4479 213.114 97.6348 213.706C97.8262 214.294 97.9219 214.962 97.9219 215.709ZM96.6162 216.338V215.695C96.6162 215.103 96.5547 214.579 96.4316 214.123C96.3132 213.667 96.1377 213.285 95.9053 212.975C95.6729 212.665 95.388 212.43 95.0508 212.271C94.7181 212.111 94.3398 212.031 93.916 212.031C93.5059 212.031 93.1344 212.111 92.8018 212.271C92.4736 212.43 92.1911 212.665 91.9541 212.975C91.7217 213.285 91.5417 213.667 91.4141 214.123C91.2865 214.579 91.2227 215.103 91.2227 215.695V216.338C91.2227 216.935 91.2865 217.464 91.4141 217.924C91.5417 218.38 91.724 218.765 91.9609 219.079C92.2025 219.389 92.4873 219.624 92.8154 219.783C93.1481 219.943 93.5195 220.022 93.9297 220.022C94.3581 220.022 94.7386 219.943 95.0713 219.783C95.404 219.624 95.6842 219.389 95.9121 219.079C96.1445 218.765 96.32 218.38 96.4385 217.924C96.557 217.464 96.6162 216.935 96.6162 216.338ZM104.231 219.291V213.604H105.503V221H104.293L104.231 219.291ZM104.471 217.732L104.997 217.719C104.997 218.211 104.945 218.667 104.84 219.086C104.74 219.501 104.576 219.861 104.348 220.166C104.12 220.471 103.821 220.711 103.452 220.884C103.083 221.052 102.634 221.137 102.105 221.137C101.745 221.137 101.415 221.084 101.114 220.979C100.818 220.875 100.563 220.713 100.349 220.494C100.134 220.275 99.9681 219.991 99.8496 219.64C99.7357 219.289 99.6787 218.867 99.6787 218.375V213.604H100.943V218.389C100.943 218.721 100.98 218.997 101.053 219.216C101.13 219.43 101.233 219.601 101.36 219.729C101.493 219.852 101.638 219.938 101.798 219.988C101.962 220.038 102.131 220.063 102.304 220.063C102.841 220.063 103.268 219.961 103.582 219.756C103.896 219.546 104.122 219.266 104.259 218.915C104.4 218.56 104.471 218.165 104.471 217.732ZM110.527 213.604V214.574H106.528V213.604H110.527ZM107.882 211.806H109.146V219.168C109.146 219.419 109.185 219.608 109.263 219.735C109.34 219.863 109.44 219.947 109.563 219.988C109.687 220.029 109.819 220.05 109.96 220.05C110.065 220.05 110.174 220.041 110.288 220.022C110.407 220 110.495 219.981 110.555 219.968L110.562 221C110.461 221.032 110.329 221.062 110.165 221.089C110.006 221.121 109.812 221.137 109.584 221.137C109.274 221.137 108.989 221.075 108.729 220.952C108.47 220.829 108.262 220.624 108.107 220.337C107.957 220.045 107.882 219.653 107.882 219.161V211.806ZM116.803 213.604H117.951V220.843C117.951 221.494 117.819 222.05 117.555 222.511C117.29 222.971 116.921 223.32 116.447 223.557C115.978 223.798 115.436 223.919 114.82 223.919C114.565 223.919 114.264 223.878 113.918 223.796C113.576 223.718 113.239 223.584 112.906 223.393C112.578 223.206 112.302 222.953 112.079 222.634L112.742 221.882C113.052 222.256 113.376 222.515 113.713 222.661C114.055 222.807 114.392 222.88 114.725 222.88C115.126 222.88 115.472 222.805 115.764 222.654C116.055 222.504 116.281 222.281 116.44 221.984C116.604 221.693 116.687 221.333 116.687 220.904V215.23L116.803 213.604ZM111.71 217.384V217.24C111.71 216.675 111.776 216.162 111.908 215.702C112.045 215.237 112.239 214.839 112.489 214.506C112.744 214.173 113.052 213.918 113.412 213.74C113.772 213.558 114.178 213.467 114.629 213.467C115.094 213.467 115.499 213.549 115.846 213.713C116.197 213.872 116.493 214.107 116.734 214.417C116.98 214.722 117.174 215.091 117.315 215.524C117.457 215.957 117.555 216.447 117.609 216.994V217.623C117.559 218.165 117.461 218.653 117.315 219.086C117.174 219.519 116.98 219.888 116.734 220.193C116.493 220.499 116.197 220.733 115.846 220.897C115.495 221.057 115.085 221.137 114.615 221.137C114.173 221.137 113.772 221.043 113.412 220.856C113.057 220.67 112.751 220.408 112.496 220.07C112.241 219.733 112.045 219.337 111.908 218.881C111.776 218.421 111.71 217.922 111.71 217.384ZM112.975 217.24V217.384C112.975 217.753 113.011 218.099 113.084 218.423C113.161 218.746 113.278 219.031 113.433 219.277C113.592 219.523 113.795 219.717 114.041 219.858C114.287 219.995 114.581 220.063 114.923 220.063C115.342 220.063 115.688 219.975 115.962 219.797C116.235 219.619 116.452 219.384 116.611 219.093C116.775 218.801 116.903 218.484 116.994 218.143V216.495C116.944 216.244 116.867 216.003 116.762 215.771C116.661 215.534 116.529 215.324 116.365 215.142C116.206 214.955 116.007 214.807 115.771 214.697C115.534 214.588 115.256 214.533 114.937 214.533C114.59 214.533 114.292 214.606 114.041 214.752C113.795 214.893 113.592 215.089 113.433 215.34C113.278 215.586 113.161 215.873 113.084 216.201C113.011 216.525 112.975 216.871 112.975 217.24ZM119.537 217.384V217.227C119.537 216.693 119.615 216.199 119.77 215.743C119.924 215.283 120.148 214.884 120.439 214.547C120.731 214.205 121.084 213.941 121.499 213.754C121.914 213.562 122.379 213.467 122.894 213.467C123.413 213.467 123.88 213.562 124.295 213.754C124.714 213.941 125.07 214.205 125.361 214.547C125.658 214.884 125.883 215.283 126.038 215.743C126.193 216.199 126.271 216.693 126.271 217.227V217.384C126.271 217.917 126.193 218.411 126.038 218.867C125.883 219.323 125.658 219.722 125.361 220.063C125.07 220.401 124.716 220.665 124.302 220.856C123.892 221.043 123.427 221.137 122.907 221.137C122.388 221.137 121.921 221.043 121.506 220.856C121.091 220.665 120.736 220.401 120.439 220.063C120.148 219.722 119.924 219.323 119.77 218.867C119.615 218.411 119.537 217.917 119.537 217.384ZM120.802 217.227V217.384C120.802 217.753 120.845 218.102 120.932 218.43C121.018 218.753 121.148 219.04 121.321 219.291C121.499 219.542 121.72 219.74 121.984 219.886C122.249 220.027 122.556 220.098 122.907 220.098C123.254 220.098 123.557 220.027 123.816 219.886C124.081 219.74 124.299 219.542 124.473 219.291C124.646 219.04 124.776 218.753 124.862 218.43C124.953 218.102 124.999 217.753 124.999 217.384V217.227C124.999 216.862 124.953 216.518 124.862 216.194C124.776 215.866 124.644 215.577 124.466 215.326C124.293 215.071 124.074 214.87 123.81 214.725C123.55 214.579 123.244 214.506 122.894 214.506C122.547 214.506 122.242 214.579 121.978 214.725C121.718 214.87 121.499 215.071 121.321 215.326C121.148 215.577 121.018 215.866 120.932 216.194C120.845 216.518 120.802 216.862 120.802 217.227ZM129.23 213.604V221H127.959V213.604H129.23ZM127.863 211.642C127.863 211.437 127.925 211.263 128.048 211.122C128.175 210.981 128.362 210.91 128.608 210.91C128.85 210.91 129.035 210.981 129.162 211.122C129.294 211.263 129.36 211.437 129.36 211.642C129.36 211.838 129.294 212.006 129.162 212.147C129.035 212.284 128.85 212.353 128.608 212.353C128.362 212.353 128.175 212.284 128.048 212.147C127.925 212.006 127.863 211.838 127.863 211.642ZM132.525 215.183V221H131.261V213.604H132.457L132.525 215.183ZM132.225 217.021L131.698 217.001C131.703 216.495 131.778 216.028 131.924 215.6C132.07 215.167 132.275 214.791 132.539 214.472C132.803 214.153 133.118 213.907 133.482 213.733C133.852 213.556 134.259 213.467 134.706 213.467C135.071 213.467 135.399 213.517 135.69 213.617C135.982 213.713 136.23 213.868 136.436 214.082C136.645 214.296 136.805 214.574 136.914 214.916C137.023 215.253 137.078 215.666 137.078 216.153V221H135.807V216.14C135.807 215.752 135.75 215.442 135.636 215.21C135.522 214.973 135.355 214.802 135.137 214.697C134.918 214.588 134.649 214.533 134.33 214.533C134.016 214.533 133.729 214.599 133.469 214.731C133.214 214.864 132.993 215.046 132.806 215.278C132.623 215.511 132.48 215.777 132.375 216.078C132.275 216.374 132.225 216.689 132.225 217.021ZM143.791 213.604H144.939V220.843C144.939 221.494 144.807 222.05 144.543 222.511C144.279 222.971 143.91 223.32 143.436 223.557C142.966 223.798 142.424 223.919 141.809 223.919C141.553 223.919 141.253 223.878 140.906 223.796C140.564 223.718 140.227 223.584 139.895 223.393C139.566 223.206 139.291 222.953 139.067 222.634L139.73 221.882C140.04 222.256 140.364 222.515 140.701 222.661C141.043 222.807 141.38 222.88 141.713 222.88C142.114 222.88 142.46 222.805 142.752 222.654C143.044 222.504 143.269 222.281 143.429 221.984C143.593 221.693 143.675 221.333 143.675 220.904V215.23L143.791 213.604ZM138.698 217.384V217.24C138.698 216.675 138.764 216.162 138.896 215.702C139.033 215.237 139.227 214.839 139.478 214.506C139.733 214.173 140.04 213.918 140.4 213.74C140.76 213.558 141.166 213.467 141.617 213.467C142.082 213.467 142.488 213.549 142.834 213.713C143.185 213.872 143.481 214.107 143.723 214.417C143.969 214.722 144.162 215.091 144.304 215.524C144.445 215.957 144.543 216.447 144.598 216.994V217.623C144.548 218.165 144.45 218.653 144.304 219.086C144.162 219.519 143.969 219.888 143.723 220.193C143.481 220.499 143.185 220.733 142.834 220.897C142.483 221.057 142.073 221.137 141.604 221.137C141.161 221.137 140.76 221.043 140.4 220.856C140.045 220.67 139.74 220.408 139.484 220.07C139.229 219.733 139.033 219.337 138.896 218.881C138.764 218.421 138.698 217.922 138.698 217.384ZM139.963 217.24V217.384C139.963 217.753 139.999 218.099 140.072 218.423C140.15 218.746 140.266 219.031 140.421 219.277C140.58 219.523 140.783 219.717 141.029 219.858C141.275 219.995 141.569 220.063 141.911 220.063C142.33 220.063 142.677 219.975 142.95 219.797C143.224 219.619 143.44 219.384 143.6 219.093C143.764 218.801 143.891 218.484 143.982 218.143V216.495C143.932 216.244 143.855 216.003 143.75 215.771C143.65 215.534 143.518 215.324 143.354 215.142C143.194 214.955 142.996 214.807 142.759 214.697C142.522 214.588 142.244 214.533 141.925 214.533C141.578 214.533 141.28 214.606 141.029 214.752C140.783 214.893 140.58 215.089 140.421 215.34C140.266 215.586 140.15 215.873 140.072 216.201C139.999 216.525 139.963 216.871 139.963 217.24Z" fill="#50505A"/>
<circle cx="148" cy="244" r="5" fill="#4E617D"/>
<defs>
<filter id="filter0_d_1112_67148" x="97" y="0" width="230" height="110.586" filterUnits="userSpaceOnUse" color-interpolation-filters="sRGB">
<feFlood flood-opacity="0" result="BackgroundImageFix"/>
<feColorMatrix in="SourceAlpha" type="matrix" values="0 0 0 0 0 0 0 0 0 0 0 0 0 0 0 0 0 0 127 0" result="hardAlpha"/>
<feOffset dy="10"/>
<feGaussianBlur stdDeviation="10"/>
<feColorMatrix type="matrix" values="0 0 0 0 0 0 0 0 0 0.0784314 0 0 0 0 0.117647 0 0 0 0.1 0"/>
<feBlend mode="normal" in2="BackgroundImageFix" result="effect1_dropShadow_1112_67148"/>
<feBlend mode="normal" in="SourceGraphic" in2="effect1_dropShadow_1112_67148" result="shape"/>
</filter>
<filter id="filter1_d_1112_67148" x="2" y="181.414" width="230" height="110.586" filterUnits="userSpaceOnUse" color-interpolation-filters="sRGB">
<feFlood flood-opacity="0" result="BackgroundImageFix"/>
<feColorMatrix in="SourceAlpha" type="matrix" values="0 0 0 0 0 0 0 0 0 0 0 0 0 0 0 0 0 0 127 0" result="hardAlpha"/>
<feOffset dy="10"/>
<feGaussianBlur stdDeviation="10"/>
<feColorMatrix type="matrix" values="0 0 0 0 0 0 0 0 0 0.0784314 0 0 0 0 0.117647 0 0 0 0.1 0"/>
<feBlend mode="normal" in2="BackgroundImageFix" result="effect1_dropShadow_1112_67148"/>
<feBlend mode="normal" in="SourceGraphic" in2="effect1_dropShadow_1112_67148" result="shape"/>
</filter>
</defs>
</svg>
