<svg width="330" height="220" viewBox="0 0 330 220" fill="none" xmlns="http://www.w3.org/2000/svg">
<path d="M60 170C114.673 170 99.3266 121 154 121" stroke="#999999" stroke-width="3"/>
<path d="M60 210C114.673 210 99.3266 122.5 154 122.5" stroke="#999999"/>
<path d="M60 10C114.673 10 99.3266 102 154 102" stroke="#8F47DC" stroke-width="10"/>
<path d="M60 50C114.673 50 99.3266 110 154 110" stroke="#999999" stroke-width="7"/>
<path d="M270 210C215.327 210 230.673 122.5 176 122.5" stroke="#999999"/>
<path d="M270 10C215.327 10 230.673 106 176 106" stroke="black" stroke-width="18"/>
<rect x="270" width="60" height="20" rx="1" fill="#FBFCFD"/>
<path d="M284.814 5.04688V5.75781L280.692 15H279.359L283.475 6.08594H278.088V5.04688H284.814ZM292.983 11.6504V12.6895H285.792V11.9443L290.249 5.04688H291.281L290.174 7.04297L287.228 11.6504H292.983ZM291.596 5.04688V15H290.331V5.04688H291.596ZM294.289 14.3301C294.289 14.1159 294.355 13.9359 294.487 13.79C294.624 13.6396 294.82 13.5645 295.075 13.5645C295.33 13.5645 295.524 13.6396 295.656 13.79C295.793 13.9359 295.861 14.1159 295.861 14.3301C295.861 14.5397 295.793 14.7174 295.656 14.8633C295.524 15.0091 295.33 15.082 295.075 15.082C294.82 15.082 294.624 15.0091 294.487 14.8633C294.355 14.7174 294.289 14.5397 294.289 14.3301ZM304.071 9.23047V10.748C304.071 11.5638 303.998 12.252 303.853 12.8125C303.707 13.373 303.497 13.8242 303.224 14.166C302.95 14.5078 302.62 14.7562 302.232 14.9111C301.85 15.0615 301.417 15.1367 300.934 15.1367C300.551 15.1367 300.198 15.0889 299.874 14.9932C299.55 14.8975 299.259 14.7448 298.999 14.5352C298.744 14.321 298.525 14.043 298.343 13.7012C298.16 13.3594 298.021 12.9447 297.926 12.457C297.83 11.9694 297.782 11.3997 297.782 10.748V9.23047C297.782 8.41471 297.855 7.73112 298.001 7.17969C298.151 6.62826 298.363 6.1862 298.637 5.85352C298.91 5.51628 299.238 5.27474 299.621 5.12891C300.008 4.98307 300.441 4.91016 300.92 4.91016C301.307 4.91016 301.663 4.95801 301.986 5.05371C302.314 5.14486 302.606 5.29297 302.861 5.49805C303.117 5.69857 303.333 5.96745 303.511 6.30469C303.693 6.63737 303.832 7.04525 303.928 7.52832C304.023 8.01139 304.071 8.57878 304.071 9.23047ZM302.8 10.9531V9.01855C302.8 8.57194 302.772 8.18001 302.718 7.84277C302.668 7.50098 302.592 7.20931 302.492 6.96777C302.392 6.72624 302.264 6.53027 302.109 6.37988C301.959 6.22949 301.784 6.12012 301.583 6.05176C301.387 5.97884 301.166 5.94238 300.92 5.94238C300.619 5.94238 300.353 5.99935 300.12 6.11328C299.888 6.22266 299.692 6.39811 299.532 6.63965C299.377 6.88118 299.259 7.19792 299.177 7.58984C299.095 7.98177 299.054 8.45801 299.054 9.01855V10.9531C299.054 11.3997 299.079 11.7939 299.129 12.1357C299.184 12.4775 299.263 12.7738 299.368 13.0244C299.473 13.2705 299.601 13.4733 299.751 13.6328C299.901 13.7923 300.075 13.9108 300.271 13.9883C300.471 14.0612 300.692 14.0977 300.934 14.0977C301.243 14.0977 301.515 14.0384 301.747 13.9199C301.979 13.8014 302.173 13.6169 302.328 13.3662C302.488 13.111 302.606 12.7852 302.684 12.3887C302.761 11.9876 302.8 11.5091 302.8 10.9531ZM311.946 9.23047V10.748C311.946 11.5638 311.873 12.252 311.728 12.8125C311.582 13.373 311.372 13.8242 311.099 14.166C310.825 14.5078 310.495 14.7562 310.107 14.9111C309.725 15.0615 309.292 15.1367 308.809 15.1367C308.426 15.1367 308.073 15.0889 307.749 14.9932C307.425 14.8975 307.134 14.7448 306.874 14.5352C306.619 14.321 306.4 14.043 306.218 13.7012C306.035 13.3594 305.896 12.9447 305.801 12.457C305.705 11.9694 305.657 11.3997 305.657 10.748V9.23047C305.657 8.41471 305.73 7.73112 305.876 7.17969C306.026 6.62826 306.238 6.1862 306.512 5.85352C306.785 5.51628 307.113 5.27474 307.496 5.12891C307.883 4.98307 308.316 4.91016 308.795 4.91016C309.182 4.91016 309.538 4.95801 309.861 5.05371C310.189 5.14486 310.481 5.29297 310.736 5.49805C310.992 5.69857 311.208 5.96745 311.386 6.30469C311.568 6.63737 311.707 7.04525 311.803 7.52832C311.898 8.01139 311.946 8.57878 311.946 9.23047ZM310.675 10.9531V9.01855C310.675 8.57194 310.647 8.18001 310.593 7.84277C310.543 7.50098 310.467 7.20931 310.367 6.96777C310.267 6.72624 310.139 6.53027 309.984 6.37988C309.834 6.22949 309.659 6.12012 309.458 6.05176C309.262 5.97884 309.041 5.94238 308.795 5.94238C308.494 5.94238 308.228 5.99935 307.995 6.11328C307.763 6.22266 307.567 6.39811 307.407 6.63965C307.252 6.88118 307.134 7.19792 307.052 7.58984C306.97 7.98177 306.929 8.45801 306.929 9.01855V10.9531C306.929 11.3997 306.954 11.7939 307.004 12.1357C307.059 12.4775 307.138 12.7738 307.243 13.0244C307.348 13.2705 307.476 13.4733 307.626 13.6328C307.776 13.7923 307.95 13.9108 308.146 13.9883C308.346 14.0612 308.567 14.0977 308.809 14.0977C309.118 14.0977 309.39 14.0384 309.622 13.9199C309.854 13.8014 310.048 13.6169 310.203 13.3662C310.363 13.111 310.481 12.7852 310.559 12.3887C310.636 11.9876 310.675 11.5091 310.675 10.9531ZM313.464 7.4873V6.96094C313.464 6.58268 313.546 6.23861 313.71 5.92871C313.874 5.61882 314.109 5.37044 314.414 5.18359C314.719 4.99674 315.082 4.90332 315.501 4.90332C315.929 4.90332 316.294 4.99674 316.595 5.18359C316.9 5.37044 317.135 5.61882 317.299 5.92871C317.463 6.23861 317.545 6.58268 317.545 6.96094V7.4873C317.545 7.85645 317.463 8.19596 317.299 8.50586C317.139 8.81576 316.907 9.06413 316.602 9.25098C316.301 9.43783 315.938 9.53125 315.515 9.53125C315.091 9.53125 314.724 9.43783 314.414 9.25098C314.109 9.06413 313.874 8.81576 313.71 8.50586C313.546 8.19596 313.464 7.85645 313.464 7.4873ZM314.414 6.96094V7.4873C314.414 7.69694 314.453 7.89518 314.53 8.08203C314.612 8.26888 314.735 8.42155 314.899 8.54004C315.063 8.65397 315.269 8.71094 315.515 8.71094C315.761 8.71094 315.964 8.65397 316.123 8.54004C316.283 8.42155 316.401 8.26888 316.479 8.08203C316.556 7.89518 316.595 7.69694 316.595 7.4873V6.96094C316.595 6.74674 316.554 6.54622 316.472 6.35938C316.394 6.16797 316.273 6.0153 316.109 5.90137C315.95 5.78288 315.747 5.72363 315.501 5.72363C315.259 5.72363 315.057 5.78288 314.893 5.90137C314.733 6.0153 314.612 6.16797 314.53 6.35938C314.453 6.54622 314.414 6.74674 314.414 6.96094ZM318.311 13.0928V12.5596C318.311 12.1859 318.393 11.8441 318.557 11.5342C318.721 11.2243 318.955 10.9759 319.261 10.7891C319.566 10.6022 319.928 10.5088 320.348 10.5088C320.776 10.5088 321.141 10.6022 321.441 10.7891C321.747 10.9759 321.981 11.2243 322.146 11.5342C322.31 11.8441 322.392 12.1859 322.392 12.5596V13.0928C322.392 13.4665 322.31 13.8083 322.146 14.1182C321.986 14.4281 321.754 14.6764 321.448 14.8633C321.147 15.0501 320.785 15.1436 320.361 15.1436C319.938 15.1436 319.573 15.0501 319.268 14.8633C318.962 14.6764 318.725 14.4281 318.557 14.1182C318.393 13.8083 318.311 13.4665 318.311 13.0928ZM319.261 12.5596V13.0928C319.261 13.3024 319.299 13.5029 319.377 13.6943C319.459 13.8812 319.582 14.0339 319.746 14.1523C319.91 14.2663 320.115 14.3232 320.361 14.3232C320.607 14.3232 320.81 14.2663 320.97 14.1523C321.134 14.0339 321.255 13.8812 321.332 13.6943C321.41 13.5075 321.448 13.307 321.448 13.0928V12.5596C321.448 12.3454 321.407 12.1449 321.325 11.958C321.248 11.7712 321.127 11.6208 320.963 11.5068C320.803 11.3883 320.598 11.3291 320.348 11.3291C320.106 11.3291 319.903 11.3883 319.739 11.5068C319.58 11.6208 319.459 11.7712 319.377 11.958C319.299 12.1449 319.261 12.3454 319.261 12.5596ZM320.662 6.46191L315.802 14.2412L315.091 13.79L319.951 6.01074L320.662 6.46191Z" fill="#50505A"/>
<rect x="270" y="200" width="60" height="20" rx="1" fill="#FBFCFD"/>
<path d="M282.538 204.992V215H281.273V206.571L278.724 207.501V206.359L282.34 204.992H282.538ZM288.103 209.401H289.005C289.447 209.401 289.812 209.328 290.099 209.183C290.39 209.032 290.607 208.829 290.748 208.574C290.894 208.314 290.967 208.023 290.967 207.699C290.967 207.316 290.903 206.995 290.775 206.735C290.648 206.476 290.456 206.28 290.201 206.147C289.946 206.015 289.622 205.949 289.23 205.949C288.875 205.949 288.561 206.02 288.287 206.161C288.018 206.298 287.806 206.494 287.651 206.749C287.501 207.004 287.426 207.305 287.426 207.651H286.161C286.161 207.146 286.289 206.685 286.544 206.271C286.799 205.856 287.157 205.525 287.617 205.279C288.082 205.033 288.62 204.91 289.23 204.91C289.832 204.91 290.358 205.017 290.81 205.231C291.261 205.441 291.612 205.756 291.862 206.175C292.113 206.59 292.238 207.107 292.238 207.727C292.238 207.977 292.179 208.246 292.061 208.533C291.947 208.816 291.767 209.08 291.521 209.326C291.279 209.572 290.965 209.775 290.577 209.935C290.19 210.09 289.725 210.167 289.183 210.167H288.103V209.401ZM288.103 210.44V209.682H289.183C289.816 209.682 290.34 209.757 290.755 209.907C291.17 210.058 291.495 210.258 291.732 210.509C291.974 210.759 292.143 211.035 292.238 211.336C292.339 211.632 292.389 211.928 292.389 212.225C292.389 212.689 292.309 213.102 292.149 213.462C291.994 213.822 291.773 214.127 291.486 214.378C291.204 214.629 290.871 214.818 290.488 214.945C290.105 215.073 289.688 215.137 289.237 215.137C288.804 215.137 288.396 215.075 288.014 214.952C287.635 214.829 287.3 214.651 287.009 214.419C286.717 214.182 286.489 213.893 286.325 213.551C286.161 213.204 286.079 212.81 286.079 212.368H287.344C287.344 212.715 287.419 213.018 287.569 213.277C287.724 213.537 287.943 213.74 288.226 213.886C288.513 214.027 288.85 214.098 289.237 214.098C289.625 214.098 289.957 214.032 290.235 213.899C290.518 213.763 290.734 213.558 290.885 213.284C291.04 213.011 291.117 212.667 291.117 212.252C291.117 211.837 291.031 211.498 290.857 211.233C290.684 210.965 290.438 210.766 290.119 210.639C289.805 210.507 289.433 210.44 289.005 210.44H288.103ZM294.289 214.33C294.289 214.116 294.355 213.936 294.487 213.79C294.624 213.64 294.82 213.564 295.075 213.564C295.33 213.564 295.524 213.64 295.656 213.79C295.793 213.936 295.861 214.116 295.861 214.33C295.861 214.54 295.793 214.717 295.656 214.863C295.524 215.009 295.33 215.082 295.075 215.082C294.82 215.082 294.624 215.009 294.487 214.863C294.355 214.717 294.289 214.54 294.289 214.33ZM304.099 212.307C304.099 212.913 303.957 213.428 303.675 213.852C303.397 214.271 303.019 214.59 302.54 214.809C302.066 215.027 301.531 215.137 300.934 215.137C300.337 215.137 299.799 215.027 299.32 214.809C298.842 214.59 298.464 214.271 298.186 213.852C297.908 213.428 297.769 212.913 297.769 212.307C297.769 211.91 297.844 211.548 297.994 211.22C298.149 210.887 298.366 210.598 298.644 210.352C298.926 210.105 299.259 209.916 299.642 209.784C300.029 209.647 300.455 209.579 300.92 209.579C301.531 209.579 302.075 209.698 302.554 209.935C303.032 210.167 303.408 210.488 303.682 210.898C303.96 211.309 304.099 211.778 304.099 212.307ZM302.827 212.279C302.827 211.91 302.747 211.584 302.588 211.302C302.428 211.015 302.205 210.791 301.918 210.632C301.631 210.472 301.298 210.393 300.92 210.393C300.533 210.393 300.198 210.472 299.915 210.632C299.637 210.791 299.421 211.015 299.266 211.302C299.111 211.584 299.033 211.91 299.033 212.279C299.033 212.662 299.108 212.99 299.259 213.264C299.414 213.533 299.632 213.74 299.915 213.886C300.202 214.027 300.542 214.098 300.934 214.098C301.326 214.098 301.663 214.027 301.945 213.886C302.228 213.74 302.444 213.533 302.595 213.264C302.75 212.99 302.827 212.662 302.827 212.279ZM303.866 207.638C303.866 208.121 303.739 208.556 303.483 208.943C303.228 209.331 302.88 209.636 302.438 209.859C301.995 210.083 301.494 210.194 300.934 210.194C300.364 210.194 299.856 210.083 299.409 209.859C298.967 209.636 298.621 209.331 298.37 208.943C298.119 208.556 297.994 208.121 297.994 207.638C297.994 207.059 298.119 206.567 298.37 206.161C298.625 205.756 298.974 205.446 299.416 205.231C299.858 205.017 300.362 204.91 300.927 204.91C301.496 204.91 302.002 205.017 302.444 205.231C302.886 205.446 303.233 205.756 303.483 206.161C303.739 206.567 303.866 207.059 303.866 207.638ZM302.602 207.658C302.602 207.326 302.531 207.032 302.39 206.776C302.248 206.521 302.052 206.321 301.802 206.175C301.551 206.024 301.259 205.949 300.927 205.949C300.594 205.949 300.302 206.02 300.052 206.161C299.806 206.298 299.612 206.494 299.471 206.749C299.334 207.004 299.266 207.307 299.266 207.658C299.266 208 299.334 208.299 299.471 208.554C299.612 208.809 299.808 209.007 300.059 209.148C300.309 209.29 300.601 209.36 300.934 209.36C301.266 209.36 301.556 209.29 301.802 209.148C302.052 209.007 302.248 208.809 302.39 208.554C302.531 208.299 302.602 208 302.602 207.658ZM306.956 213.94H307.086C307.815 213.94 308.408 213.838 308.863 213.633C309.319 213.428 309.67 213.152 309.916 212.806C310.162 212.459 310.331 212.07 310.422 211.637C310.513 211.199 310.559 210.75 310.559 210.29V208.766C310.559 208.314 310.506 207.913 310.401 207.562C310.301 207.212 310.16 206.918 309.978 206.681C309.8 206.444 309.597 206.264 309.369 206.141C309.141 206.018 308.9 205.956 308.645 205.956C308.353 205.956 308.091 206.015 307.858 206.134C307.631 206.248 307.437 206.41 307.277 206.619C307.122 206.829 307.004 207.075 306.922 207.357C306.84 207.64 306.799 207.948 306.799 208.28C306.799 208.576 306.835 208.864 306.908 209.142C306.981 209.42 307.093 209.67 307.243 209.894C307.394 210.117 307.58 210.295 307.804 210.427C308.032 210.554 308.298 210.618 308.604 210.618C308.886 210.618 309.15 210.563 309.396 210.454C309.647 210.34 309.868 210.188 310.06 209.996C310.256 209.8 310.41 209.579 310.524 209.333C310.643 209.087 310.711 208.829 310.729 208.561H311.331C311.331 208.939 311.256 209.312 311.105 209.682C310.96 210.046 310.755 210.379 310.49 210.68C310.226 210.98 309.916 211.222 309.561 211.404C309.205 211.582 308.818 211.671 308.398 211.671C307.906 211.671 307.48 211.575 307.12 211.384C306.76 211.192 306.464 210.937 306.231 210.618C306.004 210.299 305.833 209.944 305.719 209.552C305.609 209.155 305.555 208.754 305.555 208.349C305.555 207.875 305.621 207.43 305.753 207.016C305.885 206.601 306.081 206.236 306.341 205.922C306.601 205.603 306.922 205.354 307.305 205.177C307.692 204.999 308.139 204.91 308.645 204.91C309.214 204.91 309.7 205.024 310.101 205.252C310.502 205.48 310.827 205.785 311.078 206.168C311.333 206.551 311.52 206.981 311.639 207.46C311.757 207.938 311.816 208.431 311.816 208.937V209.395C311.816 209.91 311.782 210.434 311.714 210.967C311.65 211.495 311.525 212.001 311.338 212.484C311.156 212.967 310.889 213.4 310.538 213.783C310.187 214.161 309.729 214.462 309.164 214.686C308.604 214.904 307.911 215.014 307.086 215.014H306.956V213.94ZM313.464 207.487V206.961C313.464 206.583 313.546 206.239 313.71 205.929C313.874 205.619 314.109 205.37 314.414 205.184C314.719 204.997 315.082 204.903 315.501 204.903C315.929 204.903 316.294 204.997 316.595 205.184C316.9 205.37 317.135 205.619 317.299 205.929C317.463 206.239 317.545 206.583 317.545 206.961V207.487C317.545 207.856 317.463 208.196 317.299 208.506C317.139 208.816 316.907 209.064 316.602 209.251C316.301 209.438 315.938 209.531 315.515 209.531C315.091 209.531 314.724 209.438 314.414 209.251C314.109 209.064 313.874 208.816 313.71 208.506C313.546 208.196 313.464 207.856 313.464 207.487ZM314.414 206.961V207.487C314.414 207.697 314.453 207.895 314.53 208.082C314.612 208.269 314.735 208.422 314.899 208.54C315.063 208.654 315.269 208.711 315.515 208.711C315.761 208.711 315.964 208.654 316.123 208.54C316.283 208.422 316.401 208.269 316.479 208.082C316.556 207.895 316.595 207.697 316.595 207.487V206.961C316.595 206.747 316.554 206.546 316.472 206.359C316.394 206.168 316.273 206.015 316.109 205.901C315.95 205.783 315.747 205.724 315.501 205.724C315.259 205.724 315.057 205.783 314.893 205.901C314.733 206.015 314.612 206.168 314.53 206.359C314.453 206.546 314.414 206.747 314.414 206.961ZM318.311 213.093V212.56C318.311 212.186 318.393 211.844 318.557 211.534C318.721 211.224 318.955 210.976 319.261 210.789C319.566 210.602 319.928 210.509 320.348 210.509C320.776 210.509 321.141 210.602 321.441 210.789C321.747 210.976 321.981 211.224 322.146 211.534C322.31 211.844 322.392 212.186 322.392 212.56V213.093C322.392 213.466 322.31 213.808 322.146 214.118C321.986 214.428 321.754 214.676 321.448 214.863C321.147 215.05 320.785 215.144 320.361 215.144C319.938 215.144 319.573 215.05 319.268 214.863C318.962 214.676 318.725 214.428 318.557 214.118C318.393 213.808 318.311 213.466 318.311 213.093ZM319.261 212.56V213.093C319.261 213.302 319.299 213.503 319.377 213.694C319.459 213.881 319.582 214.034 319.746 214.152C319.91 214.266 320.115 214.323 320.361 214.323C320.607 214.323 320.81 214.266 320.97 214.152C321.134 214.034 321.255 213.881 321.332 213.694C321.41 213.507 321.448 213.307 321.448 213.093V212.56C321.448 212.345 321.407 212.145 321.325 211.958C321.248 211.771 321.127 211.621 320.963 211.507C320.803 211.388 320.598 211.329 320.348 211.329C320.106 211.329 319.903 211.388 319.739 211.507C319.58 211.621 319.459 211.771 319.377 211.958C319.299 212.145 319.261 212.345 319.261 212.56ZM320.662 206.462L315.802 214.241L315.091 213.79L319.951 206.011L320.662 206.462Z" fill="#50505A"/>
<rect x="270" y="100" width="60" height="20" rx="1" fill="#FBFCFD"/>
<path d="M284.903 113.961V115H278.389V114.091L281.649 110.461C282.05 110.014 282.36 109.636 282.579 109.326C282.802 109.012 282.957 108.731 283.044 108.485C283.135 108.235 283.181 107.979 283.181 107.72C283.181 107.392 283.112 107.095 282.976 106.831C282.843 106.562 282.647 106.348 282.388 106.188C282.128 106.029 281.813 105.949 281.444 105.949C281.002 105.949 280.633 106.036 280.337 106.209C280.045 106.378 279.826 106.615 279.681 106.92C279.535 107.225 279.462 107.576 279.462 107.973H278.197C278.197 107.412 278.32 106.899 278.566 106.435C278.812 105.97 279.177 105.601 279.66 105.327C280.143 105.049 280.738 104.91 281.444 104.91C282.073 104.91 282.611 105.022 283.058 105.245C283.504 105.464 283.846 105.774 284.083 106.175C284.325 106.571 284.445 107.036 284.445 107.569C284.445 107.861 284.395 108.157 284.295 108.458C284.199 108.754 284.065 109.05 283.892 109.347C283.723 109.643 283.525 109.935 283.297 110.222C283.074 110.509 282.834 110.791 282.579 111.069L279.913 113.961H284.903ZM287.856 110.263L286.845 110.003L287.344 105.047H292.45V106.216H288.417L288.116 108.923C288.299 108.818 288.529 108.72 288.807 108.629C289.089 108.538 289.413 108.492 289.777 108.492C290.238 108.492 290.65 108.572 291.015 108.731C291.379 108.886 291.689 109.11 291.944 109.401C292.204 109.693 292.402 110.044 292.539 110.454C292.676 110.864 292.744 111.322 292.744 111.828C292.744 112.307 292.678 112.746 292.546 113.147C292.418 113.549 292.225 113.899 291.965 114.2C291.705 114.496 291.377 114.727 290.98 114.891C290.589 115.055 290.126 115.137 289.593 115.137C289.192 115.137 288.811 115.082 288.451 114.973C288.096 114.859 287.777 114.688 287.494 114.46C287.216 114.228 286.988 113.94 286.811 113.599C286.637 113.252 286.528 112.847 286.482 112.382H287.686C287.74 112.756 287.85 113.07 288.014 113.325C288.178 113.58 288.392 113.774 288.656 113.906C288.925 114.034 289.237 114.098 289.593 114.098C289.894 114.098 290.16 114.045 290.393 113.94C290.625 113.836 290.821 113.685 290.98 113.489C291.14 113.293 291.261 113.056 291.343 112.778C291.429 112.5 291.473 112.188 291.473 111.842C291.473 111.527 291.429 111.236 291.343 110.967C291.256 110.698 291.126 110.463 290.953 110.263C290.785 110.062 290.577 109.907 290.331 109.798C290.085 109.684 289.802 109.627 289.483 109.627C289.06 109.627 288.738 109.684 288.52 109.798C288.305 109.912 288.084 110.067 287.856 110.263ZM294.289 114.33C294.289 114.116 294.355 113.936 294.487 113.79C294.624 113.64 294.82 113.564 295.075 113.564C295.33 113.564 295.524 113.64 295.656 113.79C295.793 113.936 295.861 114.116 295.861 114.33C295.861 114.54 295.793 114.717 295.656 114.863C295.524 115.009 295.33 115.082 295.075 115.082C294.82 115.082 294.624 115.009 294.487 114.863C294.355 114.717 294.289 114.54 294.289 114.33ZM299.081 113.94H299.211C299.94 113.94 300.533 113.838 300.988 113.633C301.444 113.428 301.795 113.152 302.041 112.806C302.287 112.459 302.456 112.07 302.547 111.637C302.638 111.199 302.684 110.75 302.684 110.29V108.766C302.684 108.314 302.631 107.913 302.526 107.562C302.426 107.212 302.285 106.918 302.103 106.681C301.925 106.444 301.722 106.264 301.494 106.141C301.266 106.018 301.025 105.956 300.77 105.956C300.478 105.956 300.216 106.015 299.983 106.134C299.756 106.248 299.562 106.41 299.402 106.619C299.247 106.829 299.129 107.075 299.047 107.357C298.965 107.64 298.924 107.948 298.924 108.28C298.924 108.576 298.96 108.864 299.033 109.142C299.106 109.42 299.218 109.67 299.368 109.894C299.519 110.117 299.705 110.295 299.929 110.427C300.157 110.554 300.423 110.618 300.729 110.618C301.011 110.618 301.275 110.563 301.521 110.454C301.772 110.34 301.993 110.188 302.185 109.996C302.381 109.8 302.535 109.579 302.649 109.333C302.768 109.087 302.836 108.829 302.854 108.561H303.456C303.456 108.939 303.381 109.312 303.23 109.682C303.085 110.046 302.88 110.379 302.615 110.68C302.351 110.98 302.041 111.222 301.686 111.404C301.33 111.582 300.943 111.671 300.523 111.671C300.031 111.671 299.605 111.575 299.245 111.384C298.885 111.192 298.589 110.937 298.356 110.618C298.129 110.299 297.958 109.944 297.844 109.552C297.734 109.155 297.68 108.754 297.68 108.349C297.68 107.875 297.746 107.43 297.878 107.016C298.01 106.601 298.206 106.236 298.466 105.922C298.726 105.603 299.047 105.354 299.43 105.177C299.817 104.999 300.264 104.91 300.77 104.91C301.339 104.91 301.825 105.024 302.226 105.252C302.627 105.48 302.952 105.785 303.203 106.168C303.458 106.551 303.645 106.981 303.764 107.46C303.882 107.938 303.941 108.431 303.941 108.937V109.395C303.941 109.91 303.907 110.434 303.839 110.967C303.775 111.495 303.65 112.001 303.463 112.484C303.281 112.967 303.014 113.4 302.663 113.783C302.312 114.161 301.854 114.462 301.289 114.686C300.729 114.904 300.036 115.014 299.211 115.014H299.081V113.94ZM312.22 113.961V115H305.705V114.091L308.966 110.461C309.367 110.014 309.677 109.636 309.896 109.326C310.119 109.012 310.274 108.731 310.36 108.485C310.451 108.235 310.497 107.979 310.497 107.72C310.497 107.392 310.429 107.095 310.292 106.831C310.16 106.562 309.964 106.348 309.704 106.188C309.444 106.029 309.13 105.949 308.761 105.949C308.319 105.949 307.95 106.036 307.653 106.209C307.362 106.378 307.143 106.615 306.997 106.92C306.851 107.225 306.778 107.576 306.778 107.973H305.514C305.514 107.412 305.637 106.899 305.883 106.435C306.129 105.97 306.493 105.601 306.977 105.327C307.46 105.049 308.054 104.91 308.761 104.91C309.39 104.91 309.927 105.022 310.374 105.245C310.821 105.464 311.162 105.774 311.399 106.175C311.641 106.571 311.762 107.036 311.762 107.569C311.762 107.861 311.712 108.157 311.611 108.458C311.516 108.754 311.381 109.05 311.208 109.347C311.039 109.643 310.841 109.935 310.613 110.222C310.39 110.509 310.151 110.791 309.896 111.069L307.229 113.961H312.22ZM313.464 107.487V106.961C313.464 106.583 313.546 106.239 313.71 105.929C313.874 105.619 314.109 105.37 314.414 105.184C314.719 104.997 315.082 104.903 315.501 104.903C315.929 104.903 316.294 104.997 316.595 105.184C316.9 105.37 317.135 105.619 317.299 105.929C317.463 106.239 317.545 106.583 317.545 106.961V107.487C317.545 107.856 317.463 108.196 317.299 108.506C317.139 108.816 316.907 109.064 316.602 109.251C316.301 109.438 315.938 109.531 315.515 109.531C315.091 109.531 314.724 109.438 314.414 109.251C314.109 109.064 313.874 108.816 313.71 108.506C313.546 108.196 313.464 107.856 313.464 107.487ZM314.414 106.961V107.487C314.414 107.697 314.453 107.895 314.53 108.082C314.612 108.269 314.735 108.422 314.899 108.54C315.063 108.654 315.269 108.711 315.515 108.711C315.761 108.711 315.964 108.654 316.123 108.54C316.283 108.422 316.401 108.269 316.479 108.082C316.556 107.895 316.595 107.697 316.595 107.487V106.961C316.595 106.747 316.554 106.546 316.472 106.359C316.394 106.168 316.273 106.015 316.109 105.901C315.95 105.783 315.747 105.724 315.501 105.724C315.259 105.724 315.057 105.783 314.893 105.901C314.733 106.015 314.612 106.168 314.53 106.359C314.453 106.546 314.414 106.747 314.414 106.961ZM318.311 113.093V112.56C318.311 112.186 318.393 111.844 318.557 111.534C318.721 111.224 318.955 110.976 319.261 110.789C319.566 110.602 319.928 110.509 320.348 110.509C320.776 110.509 321.141 110.602 321.441 110.789C321.747 110.976 321.981 111.224 322.146 111.534C322.31 111.844 322.392 112.186 322.392 112.56V113.093C322.392 113.466 322.31 113.808 322.146 114.118C321.986 114.428 321.754 114.676 321.448 114.863C321.147 115.05 320.785 115.144 320.361 115.144C319.938 115.144 319.573 115.05 319.268 114.863C318.962 114.676 318.725 114.428 318.557 114.118C318.393 113.808 318.311 113.466 318.311 113.093ZM319.261 112.56V113.093C319.261 113.302 319.299 113.503 319.377 113.694C319.459 113.881 319.582 114.034 319.746 114.152C319.91 114.266 320.115 114.323 320.361 114.323C320.607 114.323 320.81 114.266 320.97 114.152C321.134 114.034 321.255 113.881 321.332 113.694C321.41 113.507 321.448 113.307 321.448 113.093V112.56C321.448 112.345 321.407 112.145 321.325 111.958C321.248 111.771 321.127 111.621 320.963 111.507C320.803 111.388 320.598 111.329 320.348 111.329C320.106 111.329 319.903 111.388 319.739 111.507C319.58 111.621 319.459 111.771 319.377 111.958C319.299 112.145 319.261 112.345 319.261 112.56ZM320.662 106.462L315.802 114.241L315.091 113.79L319.951 106.011L320.662 106.462Z" fill="#50505A"/>
<rect width="60" height="20" rx="1" fill="#FBFCFD"/>
<path d="M10.2275 9.40137H11.1299C11.5719 9.40137 11.9365 9.32845 12.2236 9.18262C12.5153 9.03223 12.7318 8.82943 12.873 8.57422C13.0189 8.31445 13.0918 8.02279 13.0918 7.69922C13.0918 7.31641 13.028 6.99512 12.9004 6.73535C12.7728 6.47559 12.5814 6.27962 12.3262 6.14746C12.071 6.0153 11.7474 5.94922 11.3555 5.94922C11 5.94922 10.6855 6.01986 10.4121 6.16113C10.1432 6.29785 9.93132 6.49382 9.77637 6.74902C9.62598 7.00423 9.55078 7.30501 9.55078 7.65137H8.28613C8.28613 7.14551 8.41374 6.68522 8.66895 6.27051C8.92415 5.85579 9.2819 5.52539 9.74219 5.2793C10.207 5.0332 10.7448 4.91016 11.3555 4.91016C11.957 4.91016 12.4834 5.01725 12.9346 5.23145C13.3857 5.44108 13.7367 5.75553 13.9873 6.1748C14.238 6.58952 14.3633 7.10677 14.3633 7.72656C14.3633 7.97721 14.304 8.24609 14.1855 8.5332C14.0716 8.81576 13.8916 9.08008 13.6455 9.32617C13.404 9.57227 13.0895 9.77507 12.7021 9.93457C12.3148 10.0895 11.8499 10.167 11.3076 10.167H10.2275V9.40137ZM10.2275 10.4404V9.68164H11.3076C11.9411 9.68164 12.4652 9.75684 12.8799 9.90723C13.2946 10.0576 13.6204 10.2581 13.8574 10.5088C14.099 10.7594 14.2676 11.0352 14.3633 11.3359C14.4635 11.6322 14.5137 11.9284 14.5137 12.2246C14.5137 12.6895 14.4339 13.1019 14.2744 13.4619C14.1195 13.8219 13.8984 14.1273 13.6113 14.3779C13.3288 14.6286 12.9961 14.8177 12.6133 14.9453C12.2305 15.0729 11.8135 15.1367 11.3623 15.1367C10.9294 15.1367 10.5215 15.0752 10.1387 14.9521C9.76042 14.8291 9.42546 14.6514 9.13379 14.4189C8.84212 14.182 8.61426 13.8926 8.4502 13.5508C8.28613 13.2044 8.2041 12.8102 8.2041 12.3682H9.46875C9.46875 12.7145 9.54395 13.0176 9.69434 13.2773C9.84928 13.5371 10.068 13.7399 10.3506 13.8857C10.6377 14.027 10.9749 14.0977 11.3623 14.0977C11.7497 14.0977 12.0824 14.0316 12.3604 13.8994C12.6429 13.7627 12.8594 13.5576 13.0098 13.2842C13.1647 13.0107 13.2422 12.6667 13.2422 12.252C13.2422 11.8372 13.1556 11.4977 12.9824 11.2334C12.8092 10.9645 12.5632 10.7663 12.2441 10.6387C11.9297 10.5065 11.5583 10.4404 11.1299 10.4404H10.2275ZM22.9834 11.6504V12.6895H15.792V11.9443L20.249 5.04688H21.2812L20.1738 7.04297L17.2275 11.6504H22.9834ZM21.5957 5.04688V15H20.3311V5.04688H21.5957ZM24.2891 14.3301C24.2891 14.1159 24.3551 13.9359 24.4873 13.79C24.624 13.6396 24.82 13.5645 25.0752 13.5645C25.3304 13.5645 25.5241 13.6396 25.6562 13.79C25.793 13.9359 25.8613 14.1159 25.8613 14.3301C25.8613 14.5397 25.793 14.7174 25.6562 14.8633C25.5241 15.0091 25.3304 15.082 25.0752 15.082C24.82 15.082 24.624 15.0091 24.4873 14.8633C24.3551 14.7174 24.2891 14.5397 24.2891 14.3301ZM32.6768 5.0332H32.7861V6.10645H32.6768C32.0068 6.10645 31.4463 6.21582 30.9951 6.43457C30.5439 6.64876 30.1862 6.93815 29.9219 7.30273C29.6576 7.66276 29.4661 8.06836 29.3477 8.51953C29.2337 8.9707 29.1768 9.42871 29.1768 9.89355V11.3564C29.1768 11.7985 29.2292 12.1904 29.334 12.5322C29.4388 12.8695 29.5824 13.1543 29.7646 13.3867C29.9469 13.6191 30.152 13.7946 30.3799 13.9131C30.6123 14.0316 30.8538 14.0908 31.1045 14.0908C31.3962 14.0908 31.6559 14.0361 31.8838 13.9268C32.1117 13.8128 32.3031 13.6556 32.458 13.4551C32.6175 13.25 32.7383 13.0085 32.8203 12.7305C32.9023 12.4525 32.9434 12.1471 32.9434 11.8145C32.9434 11.5182 32.9069 11.2334 32.834 10.96C32.7611 10.682 32.6494 10.4359 32.499 10.2217C32.3486 10.0029 32.1595 9.83203 31.9316 9.70898C31.7083 9.58138 31.4417 9.51758 31.1318 9.51758C30.7809 9.51758 30.4528 9.60417 30.1475 9.77734C29.8467 9.94596 29.5983 10.1693 29.4023 10.4473C29.2109 10.7207 29.1016 11.0192 29.0742 11.3428L28.4043 11.3359C28.4681 10.8255 28.5866 10.3903 28.7598 10.0303C28.9375 9.66569 29.1562 9.36947 29.416 9.1416C29.6803 8.90918 29.9743 8.74056 30.2979 8.63574C30.626 8.52637 30.9723 8.47168 31.3369 8.47168C31.8337 8.47168 32.262 8.5651 32.6221 8.75195C32.9821 8.9388 33.2783 9.18945 33.5107 9.50391C33.7432 9.8138 33.9141 10.1647 34.0234 10.5566C34.1374 10.944 34.1943 11.3428 34.1943 11.7529C34.1943 12.2223 34.1283 12.6621 33.9961 13.0723C33.8639 13.4824 33.6657 13.8424 33.4014 14.1523C33.1416 14.4622 32.8203 14.7038 32.4375 14.877C32.0547 15.0501 31.6104 15.1367 31.1045 15.1367C30.5667 15.1367 30.0973 15.0273 29.6963 14.8086C29.2952 14.5853 28.9626 14.2891 28.6982 13.9199C28.4339 13.5508 28.2357 13.1406 28.1035 12.6895C27.9714 12.2383 27.9053 11.7803 27.9053 11.3154V10.7207C27.9053 10.0189 27.9759 9.33073 28.1172 8.65625C28.2585 7.98177 28.5023 7.37109 28.8486 6.82422C29.1995 6.27734 29.6849 5.84212 30.3047 5.51855C30.9245 5.19499 31.7152 5.0332 32.6768 5.0332ZM41.9463 9.23047V10.748C41.9463 11.5638 41.8734 12.252 41.7275 12.8125C41.5817 13.373 41.3721 13.8242 41.0986 14.166C40.8252 14.5078 40.4948 14.7562 40.1074 14.9111C39.7246 15.0615 39.2917 15.1367 38.8086 15.1367C38.4258 15.1367 38.0726 15.0889 37.749 14.9932C37.4255 14.8975 37.1338 14.7448 36.874 14.5352C36.6188 14.321 36.4001 14.043 36.2178 13.7012C36.0355 13.3594 35.8965 12.9447 35.8008 12.457C35.7051 11.9694 35.6572 11.3997 35.6572 10.748V9.23047C35.6572 8.41471 35.7301 7.73112 35.876 7.17969C36.0264 6.62826 36.2383 6.1862 36.5117 5.85352C36.7852 5.51628 37.1133 5.27474 37.4961 5.12891C37.8835 4.98307 38.3164 4.91016 38.7949 4.91016C39.1823 4.91016 39.5378 4.95801 39.8613 5.05371C40.1895 5.14486 40.4811 5.29297 40.7363 5.49805C40.9915 5.69857 41.208 5.96745 41.3857 6.30469C41.568 6.63737 41.707 7.04525 41.8027 7.52832C41.8984 8.01139 41.9463 8.57878 41.9463 9.23047ZM40.6748 10.9531V9.01855C40.6748 8.57194 40.6475 8.18001 40.5928 7.84277C40.5426 7.50098 40.4674 7.20931 40.3672 6.96777C40.2669 6.72624 40.1393 6.53027 39.9844 6.37988C39.834 6.22949 39.6585 6.12012 39.458 6.05176C39.262 5.97884 39.041 5.94238 38.7949 5.94238C38.4941 5.94238 38.2275 5.99935 37.9951 6.11328C37.7627 6.22266 37.5667 6.39811 37.4072 6.63965C37.2523 6.88118 37.1338 7.19792 37.0518 7.58984C36.9697 7.98177 36.9287 8.45801 36.9287 9.01855V10.9531C36.9287 11.3997 36.9538 11.7939 37.0039 12.1357C37.0586 12.4775 37.1383 12.7738 37.2432 13.0244C37.348 13.2705 37.4756 13.4733 37.626 13.6328C37.7764 13.7923 37.9495 13.9108 38.1455 13.9883C38.346 14.0612 38.5671 14.0977 38.8086 14.0977C39.1185 14.0977 39.3896 14.0384 39.6221 13.9199C39.8545 13.8014 40.0482 13.6169 40.2031 13.3662C40.3626 13.111 40.4811 12.7852 40.5586 12.3887C40.6361 11.9876 40.6748 11.5091 40.6748 10.9531ZM43.4639 7.4873V6.96094C43.4639 6.58268 43.5459 6.23861 43.71 5.92871C43.874 5.61882 44.1087 5.37044 44.4141 5.18359C44.7194 4.99674 45.0817 4.90332 45.501 4.90332C45.9294 4.90332 46.2939 4.99674 46.5947 5.18359C46.9001 5.37044 47.1348 5.61882 47.2988 5.92871C47.4629 6.23861 47.5449 6.58268 47.5449 6.96094V7.4873C47.5449 7.85645 47.4629 8.19596 47.2988 8.50586C47.1393 8.81576 46.9069 9.06413 46.6016 9.25098C46.3008 9.43783 45.9385 9.53125 45.5146 9.53125C45.0908 9.53125 44.724 9.43783 44.4141 9.25098C44.1087 9.06413 43.874 8.81576 43.71 8.50586C43.5459 8.19596 43.4639 7.85645 43.4639 7.4873ZM44.4141 6.96094V7.4873C44.4141 7.69694 44.4528 7.89518 44.5303 8.08203C44.6123 8.26888 44.7354 8.42155 44.8994 8.54004C45.0635 8.65397 45.2686 8.71094 45.5146 8.71094C45.7607 8.71094 45.9635 8.65397 46.123 8.54004C46.2826 8.42155 46.401 8.26888 46.4785 8.08203C46.556 7.89518 46.5947 7.69694 46.5947 7.4873V6.96094C46.5947 6.74674 46.5537 6.54622 46.4717 6.35938C46.3942 6.16797 46.2734 6.0153 46.1094 5.90137C45.9499 5.78288 45.7471 5.72363 45.501 5.72363C45.2594 5.72363 45.0566 5.78288 44.8926 5.90137C44.7331 6.0153 44.6123 6.16797 44.5303 6.35938C44.4528 6.54622 44.4141 6.74674 44.4141 6.96094ZM48.3105 13.0928V12.5596C48.3105 12.1859 48.3926 11.8441 48.5566 11.5342C48.7207 11.2243 48.9554 10.9759 49.2607 10.7891C49.5661 10.6022 49.9284 10.5088 50.3477 10.5088C50.776 10.5088 51.1406 10.6022 51.4414 10.7891C51.7467 10.9759 51.9814 11.2243 52.1455 11.5342C52.3096 11.8441 52.3916 12.1859 52.3916 12.5596V13.0928C52.3916 13.4665 52.3096 13.8083 52.1455 14.1182C51.986 14.4281 51.7536 14.6764 51.4482 14.8633C51.1475 15.0501 50.7852 15.1436 50.3613 15.1436C49.9375 15.1436 49.5729 15.0501 49.2676 14.8633C48.9622 14.6764 48.7253 14.4281 48.5566 14.1182C48.3926 13.8083 48.3105 13.4665 48.3105 13.0928ZM49.2607 12.5596V13.0928C49.2607 13.3024 49.2995 13.5029 49.377 13.6943C49.459 13.8812 49.582 14.0339 49.7461 14.1523C49.9102 14.2663 50.1152 14.3232 50.3613 14.3232C50.6074 14.3232 50.8102 14.2663 50.9697 14.1523C51.1338 14.0339 51.2546 13.8812 51.332 13.6943C51.4095 13.5075 51.4482 13.307 51.4482 13.0928V12.5596C51.4482 12.3454 51.4072 12.1449 51.3252 11.958C51.2477 11.7712 51.127 11.6208 50.9629 11.5068C50.8034 11.3883 50.5983 11.3291 50.3477 11.3291C50.1061 11.3291 49.9033 11.3883 49.7393 11.5068C49.5798 11.6208 49.459 11.7712 49.377 11.958C49.2995 12.1449 49.2607 12.3454 49.2607 12.5596ZM50.6621 6.46191L45.8018 14.2412L45.0908 13.79L49.9512 6.01074L50.6621 6.46191Z" fill="#50505A"/>
<rect y="200" width="60" height="20" rx="1" fill="#FBFCFD"/>
<path d="M20.4131 204.992V215H19.1484V206.571L16.5986 207.501V206.359L20.2148 204.992H20.4131ZM24.2891 214.33C24.2891 214.116 24.3551 213.936 24.4873 213.79C24.624 213.64 24.82 213.564 25.0752 213.564C25.3304 213.564 25.5241 213.64 25.6562 213.79C25.793 213.936 25.8613 214.116 25.8613 214.33C25.8613 214.54 25.793 214.717 25.6562 214.863C25.5241 215.009 25.3304 215.082 25.0752 215.082C24.82 215.082 24.624 215.009 24.4873 214.863C24.3551 214.717 24.2891 214.54 24.2891 214.33ZM29.6689 209.401H30.5713C31.0133 209.401 31.3779 209.328 31.665 209.183C31.9567 209.032 32.1732 208.829 32.3145 208.574C32.4603 208.314 32.5332 208.023 32.5332 207.699C32.5332 207.316 32.4694 206.995 32.3418 206.735C32.2142 206.476 32.0228 206.28 31.7676 206.147C31.5124 206.015 31.1888 205.949 30.7969 205.949C30.4414 205.949 30.127 206.02 29.8535 206.161C29.5846 206.298 29.3727 206.494 29.2178 206.749C29.0674 207.004 28.9922 207.305 28.9922 207.651H27.7275C27.7275 207.146 27.8551 206.685 28.1104 206.271C28.3656 205.856 28.7233 205.525 29.1836 205.279C29.6484 205.033 30.1862 204.91 30.7969 204.91C31.3984 204.91 31.9248 205.017 32.376 205.231C32.8271 205.441 33.1781 205.756 33.4287 206.175C33.6794 206.59 33.8047 207.107 33.8047 207.727C33.8047 207.977 33.7454 208.246 33.627 208.533C33.513 208.816 33.333 209.08 33.0869 209.326C32.8454 209.572 32.5309 209.775 32.1436 209.935C31.7562 210.09 31.2913 210.167 30.749 210.167H29.6689V209.401ZM29.6689 210.44V209.682H30.749C31.3825 209.682 31.9066 209.757 32.3213 209.907C32.736 210.058 33.0618 210.258 33.2988 210.509C33.5404 210.759 33.709 211.035 33.8047 211.336C33.9049 211.632 33.9551 211.928 33.9551 212.225C33.9551 212.689 33.8753 213.102 33.7158 213.462C33.5609 213.822 33.3398 214.127 33.0527 214.378C32.7702 214.629 32.4375 214.818 32.0547 214.945C31.6719 215.073 31.2549 215.137 30.8037 215.137C30.3708 215.137 29.9629 215.075 29.5801 214.952C29.2018 214.829 28.8669 214.651 28.5752 214.419C28.2835 214.182 28.0557 213.893 27.8916 213.551C27.7275 213.204 27.6455 212.81 27.6455 212.368H28.9102C28.9102 212.715 28.9854 213.018 29.1357 213.277C29.2907 213.537 29.5094 213.74 29.792 213.886C30.0791 214.027 30.4163 214.098 30.8037 214.098C31.1911 214.098 31.5238 214.032 31.8018 213.899C32.0843 213.763 32.3008 213.558 32.4512 213.284C32.6061 213.011 32.6836 212.667 32.6836 212.252C32.6836 211.837 32.597 211.498 32.4238 211.233C32.2507 210.965 32.0046 210.766 31.6855 210.639C31.3711 210.507 30.9997 210.44 30.5713 210.44H29.6689ZM36.9561 213.94H37.0859C37.8151 213.94 38.4076 213.838 38.8633 213.633C39.319 213.428 39.6699 213.152 39.916 212.806C40.1621 212.459 40.3307 212.07 40.4219 211.637C40.513 211.199 40.5586 210.75 40.5586 210.29V208.766C40.5586 208.314 40.5062 207.913 40.4014 207.562C40.3011 207.212 40.1598 206.918 39.9775 206.681C39.7998 206.444 39.597 206.264 39.3691 206.141C39.1413 206.018 38.8997 205.956 38.6445 205.956C38.3529 205.956 38.0908 206.015 37.8584 206.134C37.6305 206.248 37.4368 206.41 37.2773 206.619C37.1224 206.829 37.0039 207.075 36.9219 207.357C36.8398 207.64 36.7988 207.948 36.7988 208.28C36.7988 208.576 36.8353 208.864 36.9082 209.142C36.9811 209.42 37.0928 209.67 37.2432 209.894C37.3936 210.117 37.5804 210.295 37.8037 210.427C38.0316 210.554 38.2982 210.618 38.6035 210.618C38.8861 210.618 39.1504 210.563 39.3965 210.454C39.6471 210.34 39.8682 210.188 40.0596 209.996C40.2555 209.8 40.4105 209.579 40.5244 209.333C40.6429 209.087 40.7113 208.829 40.7295 208.561H41.3311C41.3311 208.939 41.2559 209.312 41.1055 209.682C40.9596 210.046 40.7546 210.379 40.4902 210.68C40.2259 210.98 39.916 211.222 39.5605 211.404C39.2051 211.582 38.8177 211.671 38.3984 211.671C37.9062 211.671 37.4801 211.575 37.1201 211.384C36.7601 211.192 36.4639 210.937 36.2314 210.618C36.0036 210.299 35.8327 209.944 35.7188 209.552C35.6094 209.155 35.5547 208.754 35.5547 208.349C35.5547 207.875 35.6208 207.43 35.7529 207.016C35.8851 206.601 36.0811 206.236 36.3408 205.922C36.6006 205.603 36.9219 205.354 37.3047 205.177C37.6921 204.999 38.1387 204.91 38.6445 204.91C39.2142 204.91 39.6995 205.024 40.1006 205.252C40.5016 205.48 40.8275 205.785 41.0781 206.168C41.3333 206.551 41.5202 206.981 41.6387 207.46C41.7572 207.938 41.8164 208.431 41.8164 208.937V209.395C41.8164 209.91 41.7822 210.434 41.7139 210.967C41.6501 211.495 41.5247 212.001 41.3379 212.484C41.1556 212.967 40.889 213.4 40.5381 213.783C40.1872 214.161 39.7292 214.462 39.1641 214.686C38.6035 214.904 37.9108 215.014 37.0859 215.014H36.9561V213.94ZM43.4639 207.487V206.961C43.4639 206.583 43.5459 206.239 43.71 205.929C43.874 205.619 44.1087 205.37 44.4141 205.184C44.7194 204.997 45.0817 204.903 45.501 204.903C45.9294 204.903 46.2939 204.997 46.5947 205.184C46.9001 205.37 47.1348 205.619 47.2988 205.929C47.4629 206.239 47.5449 206.583 47.5449 206.961V207.487C47.5449 207.856 47.4629 208.196 47.2988 208.506C47.1393 208.816 46.9069 209.064 46.6016 209.251C46.3008 209.438 45.9385 209.531 45.5146 209.531C45.0908 209.531 44.724 209.438 44.4141 209.251C44.1087 209.064 43.874 208.816 43.71 208.506C43.5459 208.196 43.4639 207.856 43.4639 207.487ZM44.4141 206.961V207.487C44.4141 207.697 44.4528 207.895 44.5303 208.082C44.6123 208.269 44.7354 208.422 44.8994 208.54C45.0635 208.654 45.2686 208.711 45.5146 208.711C45.7607 208.711 45.9635 208.654 46.123 208.54C46.2826 208.422 46.401 208.269 46.4785 208.082C46.556 207.895 46.5947 207.697 46.5947 207.487V206.961C46.5947 206.747 46.5537 206.546 46.4717 206.359C46.3942 206.168 46.2734 206.015 46.1094 205.901C45.9499 205.783 45.7471 205.724 45.501 205.724C45.2594 205.724 45.0566 205.783 44.8926 205.901C44.7331 206.015 44.6123 206.168 44.5303 206.359C44.4528 206.546 44.4141 206.747 44.4141 206.961ZM48.3105 213.093V212.56C48.3105 212.186 48.3926 211.844 48.5566 211.534C48.7207 211.224 48.9554 210.976 49.2607 210.789C49.5661 210.602 49.9284 210.509 50.3477 210.509C50.776 210.509 51.1406 210.602 51.4414 210.789C51.7467 210.976 51.9814 211.224 52.1455 211.534C52.3096 211.844 52.3916 212.186 52.3916 212.56V213.093C52.3916 213.466 52.3096 213.808 52.1455 214.118C51.986 214.428 51.7536 214.676 51.4482 214.863C51.1475 215.05 50.7852 215.144 50.3613 215.144C49.9375 215.144 49.5729 215.05 49.2676 214.863C48.9622 214.676 48.7253 214.428 48.5566 214.118C48.3926 213.808 48.3105 213.466 48.3105 213.093ZM49.2607 212.56V213.093C49.2607 213.302 49.2995 213.503 49.377 213.694C49.459 213.881 49.582 214.034 49.7461 214.152C49.9102 214.266 50.1152 214.323 50.3613 214.323C50.6074 214.323 50.8102 214.266 50.9697 214.152C51.1338 214.034 51.2546 213.881 51.332 213.694C51.4095 213.507 51.4482 213.307 51.4482 213.093V212.56C51.4482 212.345 51.4072 212.145 51.3252 211.958C51.2477 211.771 51.127 211.621 50.9629 211.507C50.8034 211.388 50.5983 211.329 50.3477 211.329C50.1061 211.329 49.9033 211.388 49.7393 211.507C49.5798 211.621 49.459 211.771 49.377 211.958C49.2995 212.145 49.2607 212.345 49.2607 212.56ZM50.6621 206.462L45.8018 214.241L45.0908 213.79L49.9512 206.011L50.6621 206.462Z" fill="#50505A"/>
<rect y="80" width="60" height="20" rx="1" fill="#FBFCFD"/>
<path d="M12.5381 84.9922V95H11.2734V86.5713L8.72363 87.501V86.3594L12.3398 84.9922H12.5381ZM21.1104 85.0332H21.2197V86.1064H21.1104C20.4404 86.1064 19.8799 86.2158 19.4287 86.4346C18.9775 86.6488 18.6198 86.9382 18.3555 87.3027C18.0911 87.6628 17.8997 88.0684 17.7812 88.5195C17.6673 88.9707 17.6104 89.4287 17.6104 89.8936V91.3564C17.6104 91.7985 17.6628 92.1904 17.7676 92.5322C17.8724 92.8695 18.016 93.1543 18.1982 93.3867C18.3805 93.6191 18.5856 93.7946 18.8135 93.9131C19.0459 94.0316 19.2874 94.0908 19.5381 94.0908C19.8298 94.0908 20.0895 94.0361 20.3174 93.9268C20.5452 93.8128 20.7367 93.6556 20.8916 93.4551C21.0511 93.25 21.1719 93.0085 21.2539 92.7305C21.3359 92.4525 21.377 92.1471 21.377 91.8145C21.377 91.5182 21.3405 91.2334 21.2676 90.96C21.1947 90.682 21.083 90.4359 20.9326 90.2217C20.7822 90.0029 20.5931 89.832 20.3652 89.709C20.1419 89.5814 19.8753 89.5176 19.5654 89.5176C19.2145 89.5176 18.8864 89.6042 18.5811 89.7773C18.2803 89.946 18.0319 90.1693 17.8359 90.4473C17.6445 90.7207 17.5352 91.0192 17.5078 91.3428L16.8379 91.3359C16.9017 90.8255 17.0202 90.3903 17.1934 90.0303C17.3711 89.6657 17.5898 89.3695 17.8496 89.1416C18.1139 88.9092 18.4079 88.7406 18.7314 88.6357C19.0596 88.5264 19.4059 88.4717 19.7705 88.4717C20.2673 88.4717 20.6956 88.5651 21.0557 88.752C21.4157 88.9388 21.7119 89.1895 21.9443 89.5039C22.1768 89.8138 22.3477 90.1647 22.457 90.5566C22.571 90.944 22.6279 91.3428 22.6279 91.7529C22.6279 92.2223 22.5618 92.6621 22.4297 93.0723C22.2975 93.4824 22.0993 93.8424 21.835 94.1523C21.5752 94.4622 21.2539 94.7038 20.8711 94.877C20.4883 95.0501 20.0439 95.1367 19.5381 95.1367C19.0003 95.1367 18.5309 95.0273 18.1299 94.8086C17.7288 94.5853 17.3962 94.2891 17.1318 93.9199C16.8675 93.5508 16.6693 93.1406 16.5371 92.6895C16.4049 92.2383 16.3389 91.7803 16.3389 91.3154V90.7207C16.3389 90.0189 16.4095 89.3307 16.5508 88.6562C16.6921 87.9818 16.9359 87.3711 17.2822 86.8242C17.6331 86.2773 18.1185 85.8421 18.7383 85.5186C19.3581 85.195 20.1488 85.0332 21.1104 85.0332ZM24.2891 94.3301C24.2891 94.1159 24.3551 93.9359 24.4873 93.79C24.624 93.6396 24.82 93.5645 25.0752 93.5645C25.3304 93.5645 25.5241 93.6396 25.6562 93.79C25.793 93.9359 25.8613 94.1159 25.8613 94.3301C25.8613 94.5397 25.793 94.7174 25.6562 94.8633C25.5241 95.0091 25.3304 95.082 25.0752 95.082C24.82 95.082 24.624 95.0091 24.4873 94.8633C24.3551 94.7174 24.2891 94.5397 24.2891 94.3301ZM34.2559 85.0469V85.7578L30.1338 95H28.8008L32.916 86.0859H27.5293V85.0469H34.2559ZM42.2197 93.9609V95H35.7051V94.0908L38.9658 90.4609C39.3669 90.0143 39.6768 89.6361 39.8955 89.3262C40.1188 89.0117 40.2738 88.7314 40.3604 88.4854C40.4515 88.2347 40.4971 87.9795 40.4971 87.7197C40.4971 87.3916 40.4287 87.0954 40.292 86.8311C40.1598 86.5622 39.9639 86.348 39.7041 86.1885C39.4443 86.029 39.1299 85.9492 38.7607 85.9492C38.3187 85.9492 37.9495 86.0358 37.6533 86.209C37.3617 86.3776 37.1429 86.6146 36.9971 86.9199C36.8512 87.2253 36.7783 87.5762 36.7783 87.9727H35.5137C35.5137 87.4121 35.6367 86.8994 35.8828 86.4346C36.1289 85.9697 36.4935 85.6006 36.9766 85.3271C37.4596 85.0492 38.0544 84.9102 38.7607 84.9102C39.3896 84.9102 39.9274 85.0218 40.374 85.2451C40.8206 85.4639 41.1624 85.7738 41.3994 86.1748C41.641 86.5713 41.7617 87.0361 41.7617 87.5693C41.7617 87.861 41.7116 88.1572 41.6113 88.458C41.5156 88.7542 41.3812 89.0505 41.208 89.3467C41.0394 89.6429 40.8411 89.9346 40.6133 90.2217C40.39 90.5088 40.1507 90.7913 39.8955 91.0693L37.2295 93.9609H42.2197ZM43.4639 87.4873V86.9609C43.4639 86.5827 43.5459 86.2386 43.71 85.9287C43.874 85.6188 44.1087 85.3704 44.4141 85.1836C44.7194 84.9967 45.0817 84.9033 45.501 84.9033C45.9294 84.9033 46.2939 84.9967 46.5947 85.1836C46.9001 85.3704 47.1348 85.6188 47.2988 85.9287C47.4629 86.2386 47.5449 86.5827 47.5449 86.9609V87.4873C47.5449 87.8564 47.4629 88.196 47.2988 88.5059C47.1393 88.8158 46.9069 89.0641 46.6016 89.251C46.3008 89.4378 45.9385 89.5312 45.5146 89.5312C45.0908 89.5312 44.724 89.4378 44.4141 89.251C44.1087 89.0641 43.874 88.8158 43.71 88.5059C43.5459 88.196 43.4639 87.8564 43.4639 87.4873ZM44.4141 86.9609V87.4873C44.4141 87.6969 44.4528 87.8952 44.5303 88.082C44.6123 88.2689 44.7354 88.4215 44.8994 88.54C45.0635 88.654 45.2686 88.7109 45.5146 88.7109C45.7607 88.7109 45.9635 88.654 46.123 88.54C46.2826 88.4215 46.401 88.2689 46.4785 88.082C46.556 87.8952 46.5947 87.6969 46.5947 87.4873V86.9609C46.5947 86.7467 46.5537 86.5462 46.4717 86.3594C46.3942 86.168 46.2734 86.0153 46.1094 85.9014C45.9499 85.7829 45.7471 85.7236 45.501 85.7236C45.2594 85.7236 45.0566 85.7829 44.8926 85.9014C44.7331 86.0153 44.6123 86.168 44.5303 86.3594C44.4528 86.5462 44.4141 86.7467 44.4141 86.9609ZM48.3105 93.0928V92.5596C48.3105 92.1859 48.3926 91.8441 48.5566 91.5342C48.7207 91.2243 48.9554 90.9759 49.2607 90.7891C49.5661 90.6022 49.9284 90.5088 50.3477 90.5088C50.776 90.5088 51.1406 90.6022 51.4414 90.7891C51.7467 90.9759 51.9814 91.2243 52.1455 91.5342C52.3096 91.8441 52.3916 92.1859 52.3916 92.5596V93.0928C52.3916 93.4665 52.3096 93.8083 52.1455 94.1182C51.986 94.4281 51.7536 94.6764 51.4482 94.8633C51.1475 95.0501 50.7852 95.1436 50.3613 95.1436C49.9375 95.1436 49.5729 95.0501 49.2676 94.8633C48.9622 94.6764 48.7253 94.4281 48.5566 94.1182C48.3926 93.8083 48.3105 93.4665 48.3105 93.0928ZM49.2607 92.5596V93.0928C49.2607 93.3024 49.2995 93.5029 49.377 93.6943C49.459 93.8812 49.582 94.0339 49.7461 94.1523C49.9102 94.2663 50.1152 94.3232 50.3613 94.3232C50.6074 94.3232 50.8102 94.2663 50.9697 94.1523C51.1338 94.0339 51.2546 93.8812 51.332 93.6943C51.4095 93.5075 51.4482 93.307 51.4482 93.0928V92.5596C51.4482 92.3454 51.4072 92.1449 51.3252 91.958C51.2477 91.7712 51.127 91.6208 50.9629 91.5068C50.8034 91.3883 50.5983 91.3291 50.3477 91.3291C50.1061 91.3291 49.9033 91.3883 49.7393 91.5068C49.5798 91.6208 49.459 91.7712 49.377 91.958C49.2995 92.1449 49.2607 92.3454 49.2607 92.5596ZM50.6621 86.4619L45.8018 94.2412L45.0908 93.79L49.9512 86.0107L50.6621 86.4619Z" fill="#50505A"/>
<rect y="160" width="60" height="20" rx="1" fill="#FBFCFD"/>
<path d="M17.5146 173.94H17.6445C18.3737 173.94 18.9661 173.838 19.4219 173.633C19.8776 173.428 20.2285 173.152 20.4746 172.806C20.7207 172.459 20.8893 172.07 20.9805 171.637C21.0716 171.199 21.1172 170.75 21.1172 170.29V168.766C21.1172 168.314 21.0648 167.913 20.96 167.562C20.8597 167.212 20.7184 166.918 20.5361 166.681C20.3584 166.444 20.1556 166.264 19.9277 166.141C19.6999 166.018 19.4583 165.956 19.2031 165.956C18.9115 165.956 18.6494 166.015 18.417 166.134C18.1891 166.248 17.9954 166.41 17.8359 166.619C17.681 166.829 17.5625 167.075 17.4805 167.357C17.3984 167.64 17.3574 167.948 17.3574 168.28C17.3574 168.576 17.3939 168.864 17.4668 169.142C17.5397 169.42 17.6514 169.67 17.8018 169.894C17.9521 170.117 18.139 170.295 18.3623 170.427C18.5902 170.554 18.8568 170.618 19.1621 170.618C19.4447 170.618 19.709 170.563 19.9551 170.454C20.2057 170.34 20.4268 170.188 20.6182 169.996C20.8141 169.8 20.9691 169.579 21.083 169.333C21.2015 169.087 21.2699 168.829 21.2881 168.561H21.8896C21.8896 168.939 21.8145 169.312 21.6641 169.682C21.5182 170.046 21.3132 170.379 21.0488 170.68C20.7845 170.98 20.4746 171.222 20.1191 171.404C19.7637 171.582 19.3763 171.671 18.957 171.671C18.4648 171.671 18.0387 171.575 17.6787 171.384C17.3187 171.192 17.0225 170.937 16.79 170.618C16.5622 170.299 16.3913 169.944 16.2773 169.552C16.168 169.155 16.1133 168.754 16.1133 168.349C16.1133 167.875 16.1794 167.43 16.3115 167.016C16.4437 166.601 16.6396 166.236 16.8994 165.922C17.1592 165.603 17.4805 165.354 17.8633 165.177C18.2507 164.999 18.6973 164.91 19.2031 164.91C19.7728 164.91 20.2581 165.024 20.6592 165.252C21.0602 165.48 21.3861 165.785 21.6367 166.168C21.8919 166.551 22.0788 166.981 22.1973 167.46C22.3158 167.938 22.375 168.431 22.375 168.937V169.395C22.375 169.91 22.3408 170.434 22.2725 170.967C22.2087 171.495 22.0833 172.001 21.8965 172.484C21.7142 172.967 21.4476 173.4 21.0967 173.783C20.7458 174.161 20.2878 174.462 19.7227 174.686C19.1621 174.904 18.4694 175.014 17.6445 175.014H17.5146V173.94ZM24.2891 174.33C24.2891 174.116 24.3551 173.936 24.4873 173.79C24.624 173.64 24.82 173.564 25.0752 173.564C25.3304 173.564 25.5241 173.64 25.6562 173.79C25.793 173.936 25.8613 174.116 25.8613 174.33C25.8613 174.54 25.793 174.717 25.6562 174.863C25.5241 175.009 25.3304 175.082 25.0752 175.082C24.82 175.082 24.624 175.009 24.4873 174.863C24.3551 174.717 24.2891 174.54 24.2891 174.33ZM31.9795 164.992V175H30.7148V166.571L28.165 167.501V166.359L31.7812 164.992H31.9795ZM40.5518 165.033H40.6611V166.106H40.5518C39.8818 166.106 39.3213 166.216 38.8701 166.435C38.4189 166.649 38.0612 166.938 37.7969 167.303C37.5326 167.663 37.3411 168.068 37.2227 168.52C37.1087 168.971 37.0518 169.429 37.0518 169.894V171.356C37.0518 171.799 37.1042 172.19 37.209 172.532C37.3138 172.869 37.4574 173.154 37.6396 173.387C37.8219 173.619 38.027 173.795 38.2549 173.913C38.4873 174.032 38.7288 174.091 38.9795 174.091C39.2712 174.091 39.5309 174.036 39.7588 173.927C39.9867 173.813 40.1781 173.656 40.333 173.455C40.4925 173.25 40.6133 173.008 40.6953 172.73C40.7773 172.452 40.8184 172.147 40.8184 171.814C40.8184 171.518 40.7819 171.233 40.709 170.96C40.6361 170.682 40.5244 170.436 40.374 170.222C40.2236 170.003 40.0345 169.832 39.8066 169.709C39.5833 169.581 39.3167 169.518 39.0068 169.518C38.6559 169.518 38.3278 169.604 38.0225 169.777C37.7217 169.946 37.4733 170.169 37.2773 170.447C37.0859 170.721 36.9766 171.019 36.9492 171.343L36.2793 171.336C36.3431 170.826 36.4616 170.39 36.6348 170.03C36.8125 169.666 37.0312 169.369 37.291 169.142C37.5553 168.909 37.8493 168.741 38.1729 168.636C38.501 168.526 38.8473 168.472 39.2119 168.472C39.7087 168.472 40.137 168.565 40.4971 168.752C40.8571 168.939 41.1533 169.189 41.3857 169.504C41.6182 169.814 41.7891 170.165 41.8984 170.557C42.0124 170.944 42.0693 171.343 42.0693 171.753C42.0693 172.222 42.0033 172.662 41.8711 173.072C41.7389 173.482 41.5407 173.842 41.2764 174.152C41.0166 174.462 40.6953 174.704 40.3125 174.877C39.9297 175.05 39.4854 175.137 38.9795 175.137C38.4417 175.137 37.9723 175.027 37.5713 174.809C37.1702 174.585 36.8376 174.289 36.5732 173.92C36.3089 173.551 36.1107 173.141 35.9785 172.689C35.8464 172.238 35.7803 171.78 35.7803 171.315V170.721C35.7803 170.019 35.8509 169.331 35.9922 168.656C36.1335 167.982 36.3773 167.371 36.7236 166.824C37.0745 166.277 37.5599 165.842 38.1797 165.519C38.7995 165.195 39.5902 165.033 40.5518 165.033ZM43.4639 167.487V166.961C43.4639 166.583 43.5459 166.239 43.71 165.929C43.874 165.619 44.1087 165.37 44.4141 165.184C44.7194 164.997 45.0817 164.903 45.501 164.903C45.9294 164.903 46.2939 164.997 46.5947 165.184C46.9001 165.37 47.1348 165.619 47.2988 165.929C47.4629 166.239 47.5449 166.583 47.5449 166.961V167.487C47.5449 167.856 47.4629 168.196 47.2988 168.506C47.1393 168.816 46.9069 169.064 46.6016 169.251C46.3008 169.438 45.9385 169.531 45.5146 169.531C45.0908 169.531 44.724 169.438 44.4141 169.251C44.1087 169.064 43.874 168.816 43.71 168.506C43.5459 168.196 43.4639 167.856 43.4639 167.487ZM44.4141 166.961V167.487C44.4141 167.697 44.4528 167.895 44.5303 168.082C44.6123 168.269 44.7354 168.422 44.8994 168.54C45.0635 168.654 45.2686 168.711 45.5146 168.711C45.7607 168.711 45.9635 168.654 46.123 168.54C46.2826 168.422 46.401 168.269 46.4785 168.082C46.556 167.895 46.5947 167.697 46.5947 167.487V166.961C46.5947 166.747 46.5537 166.546 46.4717 166.359C46.3942 166.168 46.2734 166.015 46.1094 165.901C45.9499 165.783 45.7471 165.724 45.501 165.724C45.2594 165.724 45.0566 165.783 44.8926 165.901C44.7331 166.015 44.6123 166.168 44.5303 166.359C44.4528 166.546 44.4141 166.747 44.4141 166.961ZM48.3105 173.093V172.56C48.3105 172.186 48.3926 171.844 48.5566 171.534C48.7207 171.224 48.9554 170.976 49.2607 170.789C49.5661 170.602 49.9284 170.509 50.3477 170.509C50.776 170.509 51.1406 170.602 51.4414 170.789C51.7467 170.976 51.9814 171.224 52.1455 171.534C52.3096 171.844 52.3916 172.186 52.3916 172.56V173.093C52.3916 173.466 52.3096 173.808 52.1455 174.118C51.986 174.428 51.7536 174.676 51.4482 174.863C51.1475 175.05 50.7852 175.144 50.3613 175.144C49.9375 175.144 49.5729 175.05 49.2676 174.863C48.9622 174.676 48.7253 174.428 48.5566 174.118C48.3926 173.808 48.3105 173.466 48.3105 173.093ZM49.2607 172.56V173.093C49.2607 173.302 49.2995 173.503 49.377 173.694C49.459 173.881 49.582 174.034 49.7461 174.152C49.9102 174.266 50.1152 174.323 50.3613 174.323C50.6074 174.323 50.8102 174.266 50.9697 174.152C51.1338 174.034 51.2546 173.881 51.332 173.694C51.4095 173.507 51.4482 173.307 51.4482 173.093V172.56C51.4482 172.345 51.4072 172.145 51.3252 171.958C51.2477 171.771 51.127 171.621 50.9629 171.507C50.8034 171.388 50.5983 171.329 50.3477 171.329C50.1061 171.329 49.9033 171.388 49.7393 171.507C49.5798 171.621 49.459 171.771 49.377 171.958C49.2995 172.145 49.2607 172.345 49.2607 172.56ZM50.6621 166.462L45.8018 174.241L45.0908 173.79L49.9512 166.011L50.6621 166.462Z" fill="#50505A"/>
<rect y="120" width="60" height="20" rx="1" fill="#FBFCFD"/>
<path d="M12.5381 124.992V135H11.2734V126.571L8.72363 127.501V126.359L12.3398 124.992H12.5381ZM18.1025 129.401H19.0049C19.4469 129.401 19.8115 129.328 20.0986 129.183C20.3903 129.032 20.6068 128.829 20.748 128.574C20.8939 128.314 20.9668 128.023 20.9668 127.699C20.9668 127.316 20.903 126.995 20.7754 126.735C20.6478 126.476 20.4564 126.28 20.2012 126.147C19.946 126.015 19.6224 125.949 19.2305 125.949C18.875 125.949 18.5605 126.02 18.2871 126.161C18.0182 126.298 17.8063 126.494 17.6514 126.749C17.501 127.004 17.4258 127.305 17.4258 127.651H16.1611C16.1611 127.146 16.2887 126.685 16.5439 126.271C16.7992 125.856 17.1569 125.525 17.6172 125.279C18.082 125.033 18.6198 124.91 19.2305 124.91C19.832 124.91 20.3584 125.017 20.8096 125.231C21.2607 125.441 21.6117 125.756 21.8623 126.175C22.113 126.59 22.2383 127.107 22.2383 127.727C22.2383 127.977 22.179 128.246 22.0605 128.533C21.9466 128.816 21.7666 129.08 21.5205 129.326C21.279 129.572 20.9645 129.775 20.5771 129.935C20.1898 130.09 19.7249 130.167 19.1826 130.167H18.1025V129.401ZM18.1025 130.44V129.682H19.1826C19.8161 129.682 20.3402 129.757 20.7549 129.907C21.1696 130.058 21.4954 130.258 21.7324 130.509C21.974 130.759 22.1426 131.035 22.2383 131.336C22.3385 131.632 22.3887 131.928 22.3887 132.225C22.3887 132.689 22.3089 133.102 22.1494 133.462C21.9945 133.822 21.7734 134.127 21.4863 134.378C21.2038 134.629 20.8711 134.818 20.4883 134.945C20.1055 135.073 19.6885 135.137 19.2373 135.137C18.8044 135.137 18.3965 135.075 18.0137 134.952C17.6354 134.829 17.3005 134.651 17.0088 134.419C16.7171 134.182 16.4893 133.893 16.3252 133.551C16.1611 133.204 16.0791 132.81 16.0791 132.368H17.3438C17.3438 132.715 17.4189 133.018 17.5693 133.277C17.7243 133.537 17.943 133.74 18.2256 133.886C18.5127 134.027 18.8499 134.098 19.2373 134.098C19.6247 134.098 19.9574 134.032 20.2354 133.899C20.5179 133.763 20.7344 133.558 20.8848 133.284C21.0397 133.011 21.1172 132.667 21.1172 132.252C21.1172 131.837 21.0306 131.498 20.8574 131.233C20.6842 130.965 20.4382 130.766 20.1191 130.639C19.8047 130.507 19.4333 130.44 19.0049 130.44H18.1025ZM24.2891 134.33C24.2891 134.116 24.3551 133.936 24.4873 133.79C24.624 133.64 24.82 133.564 25.0752 133.564C25.3304 133.564 25.5241 133.64 25.6562 133.79C25.793 133.936 25.8613 134.116 25.8613 134.33C25.8613 134.54 25.793 134.717 25.6562 134.863C25.5241 135.009 25.3304 135.082 25.0752 135.082C24.82 135.082 24.624 135.009 24.4873 134.863C24.3551 134.717 24.2891 134.54 24.2891 134.33ZM31.9795 124.992V135H30.7148V126.571L28.165 127.501V126.359L31.7812 124.992H31.9795ZM41.9463 129.23V130.748C41.9463 131.564 41.8734 132.252 41.7275 132.812C41.5817 133.373 41.3721 133.824 41.0986 134.166C40.8252 134.508 40.4948 134.756 40.1074 134.911C39.7246 135.062 39.2917 135.137 38.8086 135.137C38.4258 135.137 38.0726 135.089 37.749 134.993C37.4255 134.897 37.1338 134.745 36.874 134.535C36.6188 134.321 36.4001 134.043 36.2178 133.701C36.0355 133.359 35.8965 132.945 35.8008 132.457C35.7051 131.969 35.6572 131.4 35.6572 130.748V129.23C35.6572 128.415 35.7301 127.731 35.876 127.18C36.0264 126.628 36.2383 126.186 36.5117 125.854C36.7852 125.516 37.1133 125.275 37.4961 125.129C37.8835 124.983 38.3164 124.91 38.7949 124.91C39.1823 124.91 39.5378 124.958 39.8613 125.054C40.1895 125.145 40.4811 125.293 40.7363 125.498C40.9915 125.699 41.208 125.967 41.3857 126.305C41.568 126.637 41.707 127.045 41.8027 127.528C41.8984 128.011 41.9463 128.579 41.9463 129.23ZM40.6748 130.953V129.019C40.6748 128.572 40.6475 128.18 40.5928 127.843C40.5426 127.501 40.4674 127.209 40.3672 126.968C40.2669 126.726 40.1393 126.53 39.9844 126.38C39.834 126.229 39.6585 126.12 39.458 126.052C39.262 125.979 39.041 125.942 38.7949 125.942C38.4941 125.942 38.2275 125.999 37.9951 126.113C37.7627 126.223 37.5667 126.398 37.4072 126.64C37.2523 126.881 37.1338 127.198 37.0518 127.59C36.9697 127.982 36.9287 128.458 36.9287 129.019V130.953C36.9287 131.4 36.9538 131.794 37.0039 132.136C37.0586 132.478 37.1383 132.774 37.2432 133.024C37.348 133.271 37.4756 133.473 37.626 133.633C37.7764 133.792 37.9495 133.911 38.1455 133.988C38.346 134.061 38.5671 134.098 38.8086 134.098C39.1185 134.098 39.3896 134.038 39.6221 133.92C39.8545 133.801 40.0482 133.617 40.2031 133.366C40.3626 133.111 40.4811 132.785 40.5586 132.389C40.6361 131.988 40.6748 131.509 40.6748 130.953ZM43.4639 127.487V126.961C43.4639 126.583 43.5459 126.239 43.71 125.929C43.874 125.619 44.1087 125.37 44.4141 125.184C44.7194 124.997 45.0817 124.903 45.501 124.903C45.9294 124.903 46.2939 124.997 46.5947 125.184C46.9001 125.37 47.1348 125.619 47.2988 125.929C47.4629 126.239 47.5449 126.583 47.5449 126.961V127.487C47.5449 127.856 47.4629 128.196 47.2988 128.506C47.1393 128.816 46.9069 129.064 46.6016 129.251C46.3008 129.438 45.9385 129.531 45.5146 129.531C45.0908 129.531 44.724 129.438 44.4141 129.251C44.1087 129.064 43.874 128.816 43.71 128.506C43.5459 128.196 43.4639 127.856 43.4639 127.487ZM44.4141 126.961V127.487C44.4141 127.697 44.4528 127.895 44.5303 128.082C44.6123 128.269 44.7354 128.422 44.8994 128.54C45.0635 128.654 45.2686 128.711 45.5146 128.711C45.7607 128.711 45.9635 128.654 46.123 128.54C46.2826 128.422 46.401 128.269 46.4785 128.082C46.556 127.895 46.5947 127.697 46.5947 127.487V126.961C46.5947 126.747 46.5537 126.546 46.4717 126.359C46.3942 126.168 46.2734 126.015 46.1094 125.901C45.9499 125.783 45.7471 125.724 45.501 125.724C45.2594 125.724 45.0566 125.783 44.8926 125.901C44.7331 126.015 44.6123 126.168 44.5303 126.359C44.4528 126.546 44.4141 126.747 44.4141 126.961ZM48.3105 133.093V132.56C48.3105 132.186 48.3926 131.844 48.5566 131.534C48.7207 131.224 48.9554 130.976 49.2607 130.789C49.5661 130.602 49.9284 130.509 50.3477 130.509C50.776 130.509 51.1406 130.602 51.4414 130.789C51.7467 130.976 51.9814 131.224 52.1455 131.534C52.3096 131.844 52.3916 132.186 52.3916 132.56V133.093C52.3916 133.466 52.3096 133.808 52.1455 134.118C51.986 134.428 51.7536 134.676 51.4482 134.863C51.1475 135.05 50.7852 135.144 50.3613 135.144C49.9375 135.144 49.5729 135.05 49.2676 134.863C48.9622 134.676 48.7253 134.428 48.5566 134.118C48.3926 133.808 48.3105 133.466 48.3105 133.093ZM49.2607 132.56V133.093C49.2607 133.302 49.2995 133.503 49.377 133.694C49.459 133.881 49.582 134.034 49.7461 134.152C49.9102 134.266 50.1152 134.323 50.3613 134.323C50.6074 134.323 50.8102 134.266 50.9697 134.152C51.1338 134.034 51.2546 133.881 51.332 133.694C51.4095 133.507 51.4482 133.307 51.4482 133.093V132.56C51.4482 132.345 51.4072 132.145 51.3252 131.958C51.2477 131.771 51.127 131.621 50.9629 131.507C50.8034 131.388 50.5983 131.329 50.3477 131.329C50.1061 131.329 49.9033 131.388 49.7393 131.507C49.5798 131.621 49.459 131.771 49.377 131.958C49.2995 132.145 49.2607 132.345 49.2607 132.56ZM50.6621 126.462L45.8018 134.241L45.0908 133.79L49.9512 126.011L50.6621 126.462Z" fill="#50505A"/>
<rect y="40" width="60" height="20" rx="1" fill="#FBFCFD"/>
<path d="M14.9033 53.9609V55H8.38867V54.0908L11.6494 50.4609C12.0505 50.0143 12.3604 49.6361 12.5791 49.3262C12.8024 49.0117 12.9574 48.7314 13.0439 48.4854C13.1351 48.2347 13.1807 47.9795 13.1807 47.7197C13.1807 47.3916 13.1123 47.0954 12.9756 46.8311C12.8434 46.5622 12.6475 46.348 12.3877 46.1885C12.1279 46.029 11.8135 45.9492 11.4443 45.9492C11.0023 45.9492 10.6331 46.0358 10.3369 46.209C10.0452 46.3776 9.8265 46.6146 9.68066 46.9199C9.53483 47.2253 9.46191 47.5762 9.46191 47.9727H8.19727C8.19727 47.4121 8.32031 46.8994 8.56641 46.4346C8.8125 45.9697 9.17708 45.6006 9.66016 45.3271C10.1432 45.0492 10.738 44.9102 11.4443 44.9102C12.0732 44.9102 12.611 45.0218 13.0576 45.2451C13.5042 45.4639 13.846 45.7738 14.083 46.1748C14.3245 46.5713 14.4453 47.0361 14.4453 47.5693C14.4453 47.861 14.3952 48.1572 14.2949 48.458C14.1992 48.7542 14.0648 49.0505 13.8916 49.3467C13.723 49.6429 13.5247 49.9346 13.2969 50.2217C13.0736 50.5088 12.8343 50.7913 12.5791 51.0693L9.91309 53.9609H14.9033ZM17.8564 50.2627L16.8447 50.0029L17.3438 45.0469H22.4502V46.2158H18.417L18.1162 48.9229C18.2985 48.818 18.5286 48.7201 18.8066 48.6289C19.0892 48.5378 19.4128 48.4922 19.7773 48.4922C20.2376 48.4922 20.6501 48.5719 21.0146 48.7314C21.3792 48.8864 21.6891 49.1097 21.9443 49.4014C22.2041 49.693 22.4023 50.0439 22.5391 50.4541C22.6758 50.8643 22.7441 51.3223 22.7441 51.8281C22.7441 52.3066 22.6781 52.7464 22.5459 53.1475C22.4183 53.5485 22.2246 53.8994 21.9648 54.2002C21.7051 54.4964 21.377 54.7266 20.9805 54.8906C20.5885 55.0547 20.126 55.1367 19.5928 55.1367C19.1917 55.1367 18.8112 55.082 18.4512 54.9727C18.0957 54.8587 17.7767 54.6878 17.4941 54.46C17.2161 54.2275 16.9883 53.9404 16.8105 53.5986C16.6374 53.2523 16.528 52.8467 16.4824 52.3818H17.6855C17.7402 52.7555 17.8496 53.07 18.0137 53.3252C18.1777 53.5804 18.3919 53.7741 18.6562 53.9062C18.9251 54.0339 19.2373 54.0977 19.5928 54.0977C19.8936 54.0977 20.1602 54.0452 20.3926 53.9404C20.625 53.8356 20.821 53.6852 20.9805 53.4893C21.14 53.2933 21.2607 53.0563 21.3428 52.7783C21.4294 52.5003 21.4727 52.1882 21.4727 51.8418C21.4727 51.5273 21.4294 51.2357 21.3428 50.9668C21.2562 50.6979 21.1263 50.4632 20.9531 50.2627C20.7845 50.0622 20.5771 49.9072 20.3311 49.7979C20.085 49.6839 19.8024 49.627 19.4834 49.627C19.0596 49.627 18.7383 49.6839 18.5195 49.7979C18.3053 49.9118 18.0843 50.0667 17.8564 50.2627ZM24.2891 54.3301C24.2891 54.1159 24.3551 53.9359 24.4873 53.79C24.624 53.6396 24.82 53.5645 25.0752 53.5645C25.3304 53.5645 25.5241 53.6396 25.6562 53.79C25.793 53.9359 25.8613 54.1159 25.8613 54.3301C25.8613 54.5397 25.793 54.7174 25.6562 54.8633C25.5241 55.0091 25.3304 55.082 25.0752 55.082C24.82 55.082 24.624 55.0091 24.4873 54.8633C24.3551 54.7174 24.2891 54.5397 24.2891 54.3301ZM34.0713 49.2305V50.748C34.0713 51.5638 33.9984 52.252 33.8525 52.8125C33.7067 53.373 33.4971 53.8242 33.2236 54.166C32.9502 54.5078 32.6198 54.7562 32.2324 54.9111C31.8496 55.0615 31.4167 55.1367 30.9336 55.1367C30.5508 55.1367 30.1976 55.0889 29.874 54.9932C29.5505 54.8975 29.2588 54.7448 28.999 54.5352C28.7438 54.321 28.5251 54.043 28.3428 53.7012C28.1605 53.3594 28.0215 52.9447 27.9258 52.457C27.8301 51.9694 27.7822 51.3997 27.7822 50.748V49.2305C27.7822 48.4147 27.8551 47.7311 28.001 47.1797C28.1514 46.6283 28.3633 46.1862 28.6367 45.8535C28.9102 45.5163 29.2383 45.2747 29.6211 45.1289C30.0085 44.9831 30.4414 44.9102 30.9199 44.9102C31.3073 44.9102 31.6628 44.958 31.9863 45.0537C32.3145 45.1449 32.6061 45.293 32.8613 45.498C33.1165 45.6986 33.333 45.9674 33.5107 46.3047C33.693 46.6374 33.832 47.0452 33.9277 47.5283C34.0234 48.0114 34.0713 48.5788 34.0713 49.2305ZM32.7998 50.9531V49.0186C32.7998 48.5719 32.7725 48.18 32.7178 47.8428C32.6676 47.501 32.5924 47.2093 32.4922 46.9678C32.3919 46.7262 32.2643 46.5303 32.1094 46.3799C31.959 46.2295 31.7835 46.1201 31.583 46.0518C31.387 45.9788 31.166 45.9424 30.9199 45.9424C30.6191 45.9424 30.3525 45.9993 30.1201 46.1133C29.8877 46.2227 29.6917 46.3981 29.5322 46.6396C29.3773 46.8812 29.2588 47.1979 29.1768 47.5898C29.0947 47.9818 29.0537 48.458 29.0537 49.0186V50.9531C29.0537 51.3997 29.0788 51.7939 29.1289 52.1357C29.1836 52.4775 29.2633 52.7738 29.3682 53.0244C29.473 53.2705 29.6006 53.4733 29.751 53.6328C29.9014 53.7923 30.0745 53.9108 30.2705 53.9883C30.471 54.0612 30.6921 54.0977 30.9336 54.0977C31.2435 54.0977 31.5146 54.0384 31.7471 53.9199C31.9795 53.8014 32.1732 53.6169 32.3281 53.3662C32.4876 53.111 32.6061 52.7852 32.6836 52.3887C32.7611 51.9876 32.7998 51.5091 32.7998 50.9531ZM37.5439 49.4014H38.4463C38.8883 49.4014 39.2529 49.3285 39.54 49.1826C39.8317 49.0322 40.0482 48.8294 40.1895 48.5742C40.3353 48.3145 40.4082 48.0228 40.4082 47.6992C40.4082 47.3164 40.3444 46.9951 40.2168 46.7354C40.0892 46.4756 39.8978 46.2796 39.6426 46.1475C39.3874 46.0153 39.0638 45.9492 38.6719 45.9492C38.3164 45.9492 38.002 46.0199 37.7285 46.1611C37.4596 46.2979 37.2477 46.4938 37.0928 46.749C36.9424 47.0042 36.8672 47.305 36.8672 47.6514H35.6025C35.6025 47.1455 35.7301 46.6852 35.9854 46.2705C36.2406 45.8558 36.5983 45.5254 37.0586 45.2793C37.5234 45.0332 38.0612 44.9102 38.6719 44.9102C39.2734 44.9102 39.7998 45.0173 40.251 45.2314C40.7021 45.4411 41.0531 45.7555 41.3037 46.1748C41.5544 46.5895 41.6797 47.1068 41.6797 47.7266C41.6797 47.9772 41.6204 48.2461 41.502 48.5332C41.388 48.8158 41.208 49.0801 40.9619 49.3262C40.7204 49.5723 40.4059 49.7751 40.0186 49.9346C39.6312 50.0895 39.1663 50.167 38.624 50.167H37.5439V49.4014ZM37.5439 50.4404V49.6816H38.624C39.2575 49.6816 39.7816 49.7568 40.1963 49.9072C40.611 50.0576 40.9368 50.2581 41.1738 50.5088C41.4154 50.7594 41.584 51.0352 41.6797 51.3359C41.7799 51.6322 41.8301 51.9284 41.8301 52.2246C41.8301 52.6895 41.7503 53.1019 41.5908 53.4619C41.4359 53.8219 41.2148 54.1273 40.9277 54.3779C40.6452 54.6286 40.3125 54.8177 39.9297 54.9453C39.5469 55.0729 39.1299 55.1367 38.6787 55.1367C38.2458 55.1367 37.8379 55.0752 37.4551 54.9521C37.0768 54.8291 36.7419 54.6514 36.4502 54.4189C36.1585 54.182 35.9307 53.8926 35.7666 53.5508C35.6025 53.2044 35.5205 52.8102 35.5205 52.3682H36.7852C36.7852 52.7145 36.8604 53.0176 37.0107 53.2773C37.1657 53.5371 37.3844 53.7399 37.667 53.8857C37.9541 54.027 38.2913 54.0977 38.6787 54.0977C39.0661 54.0977 39.3988 54.0316 39.6768 53.8994C39.9593 53.7627 40.1758 53.5576 40.3262 53.2842C40.4811 53.0107 40.5586 52.6667 40.5586 52.252C40.5586 51.8372 40.472 51.4977 40.2988 51.2334C40.1257 50.9645 39.8796 50.7663 39.5605 50.6387C39.2461 50.5065 38.8747 50.4404 38.4463 50.4404H37.5439ZM43.4639 47.4873V46.9609C43.4639 46.5827 43.5459 46.2386 43.71 45.9287C43.874 45.6188 44.1087 45.3704 44.4141 45.1836C44.7194 44.9967 45.0817 44.9033 45.501 44.9033C45.9294 44.9033 46.2939 44.9967 46.5947 45.1836C46.9001 45.3704 47.1348 45.6188 47.2988 45.9287C47.4629 46.2386 47.5449 46.5827 47.5449 46.9609V47.4873C47.5449 47.8564 47.4629 48.196 47.2988 48.5059C47.1393 48.8158 46.9069 49.0641 46.6016 49.251C46.3008 49.4378 45.9385 49.5312 45.5146 49.5312C45.0908 49.5312 44.724 49.4378 44.4141 49.251C44.1087 49.0641 43.874 48.8158 43.71 48.5059C43.5459 48.196 43.4639 47.8564 43.4639 47.4873ZM44.4141 46.9609V47.4873C44.4141 47.6969 44.4528 47.8952 44.5303 48.082C44.6123 48.2689 44.7354 48.4215 44.8994 48.54C45.0635 48.654 45.2686 48.7109 45.5146 48.7109C45.7607 48.7109 45.9635 48.654 46.123 48.54C46.2826 48.4215 46.401 48.2689 46.4785 48.082C46.556 47.8952 46.5947 47.6969 46.5947 47.4873V46.9609C46.5947 46.7467 46.5537 46.5462 46.4717 46.3594C46.3942 46.168 46.2734 46.0153 46.1094 45.9014C45.9499 45.7829 45.7471 45.7236 45.501 45.7236C45.2594 45.7236 45.0566 45.7829 44.8926 45.9014C44.7331 46.0153 44.6123 46.168 44.5303 46.3594C44.4528 46.5462 44.4141 46.7467 44.4141 46.9609ZM48.3105 53.0928V52.5596C48.3105 52.1859 48.3926 51.8441 48.5566 51.5342C48.7207 51.2243 48.9554 50.9759 49.2607 50.7891C49.5661 50.6022 49.9284 50.5088 50.3477 50.5088C50.776 50.5088 51.1406 50.6022 51.4414 50.7891C51.7467 50.9759 51.9814 51.2243 52.1455 51.5342C52.3096 51.8441 52.3916 52.1859 52.3916 52.5596V53.0928C52.3916 53.4665 52.3096 53.8083 52.1455 54.1182C51.986 54.4281 51.7536 54.6764 51.4482 54.8633C51.1475 55.0501 50.7852 55.1436 50.3613 55.1436C49.9375 55.1436 49.5729 55.0501 49.2676 54.8633C48.9622 54.6764 48.7253 54.4281 48.5566 54.1182C48.3926 53.8083 48.3105 53.4665 48.3105 53.0928ZM49.2607 52.5596V53.0928C49.2607 53.3024 49.2995 53.5029 49.377 53.6943C49.459 53.8812 49.582 54.0339 49.7461 54.1523C49.9102 54.2663 50.1152 54.3232 50.3613 54.3232C50.6074 54.3232 50.8102 54.2663 50.9697 54.1523C51.1338 54.0339 51.2546 53.8812 51.332 53.6943C51.4095 53.5075 51.4482 53.307 51.4482 53.0928V52.5596C51.4482 52.3454 51.4072 52.1449 51.3252 51.958C51.2477 51.7712 51.127 51.6208 50.9629 51.5068C50.8034 51.3883 50.5983 51.3291 50.3477 51.3291C50.1061 51.3291 49.9033 51.3883 49.7393 51.5068C49.5798 51.6208 49.459 51.7712 49.377 51.958C49.2995 52.1449 49.2607 52.3454 49.2607 52.5596ZM50.6621 46.4619L45.8018 54.2412L45.0908 53.79L49.9512 46.0107L50.6621 46.4619Z" fill="#50505A"/>
<path d="M270 110C215.327 110 230.673 118.5 176 118.5" stroke="#8F47DC" stroke-width="7"/>
<path d="M60 90C114.673 90 99.3266 115.5 154 115.5" stroke="black" stroke-width="5"/>
<path d="M60 130C114.673 130 99.3266 118.5 154 118.5" stroke="#8F47DC" stroke-width="3"/>
<rect x="154.5" y="95.5" width="9" height="29" rx="1.5" fill="#A6AFBD" stroke="#F0F4F7"/>
<rect x="166.5" y="95.5" width="9" height="29" rx="1.5" fill="#A6AFBD" stroke="#F0F4F7"/>
</svg>
