<svg width="588" height="212" viewBox="0 0 588 212" fill="none" xmlns="http://www.w3.org/2000/svg">
<circle cx="293" cy="108" r="98" transform="rotate(-90 293 108)" fill="#4E617D"/>
<path d="M293 10C314.917 10 336.201 17.3466 353.451 30.8658C370.701 44.3849 382.922 63.2963 388.16 84.5778C393.398 105.859 391.351 128.282 382.347 148.264C373.342 168.245 357.9 184.631 338.487 194.804L293 108V10Z" fill="#D0C018"/>
<path d="M171.703 3.60156V15H169.453V6.19531L166.75 7.05469V5.28125L171.461 3.60156H171.703ZM177.711 8.33594H178.914C179.299 8.33594 179.617 8.27083 179.867 8.14062C180.117 8.00521 180.302 7.81771 180.422 7.57812C180.547 7.33333 180.609 7.04948 180.609 6.72656C180.609 6.4349 180.552 6.17708 180.438 5.95312C180.328 5.72396 180.159 5.54688 179.93 5.42188C179.701 5.29167 179.411 5.22656 179.062 5.22656C178.786 5.22656 178.531 5.28125 178.297 5.39062C178.062 5.5 177.875 5.65365 177.734 5.85156C177.594 6.04948 177.523 6.28906 177.523 6.57031H175.266C175.266 5.94531 175.432 5.40104 175.766 4.9375C176.104 4.47396 176.557 4.11198 177.125 3.85156C177.693 3.59115 178.318 3.46094 179 3.46094C179.771 3.46094 180.445 3.58594 181.023 3.83594C181.602 4.08073 182.052 4.44271 182.375 4.92188C182.698 5.40104 182.859 5.99479 182.859 6.70312C182.859 7.0625 182.776 7.41146 182.609 7.75C182.443 8.08333 182.203 8.38542 181.891 8.65625C181.583 8.92188 181.208 9.13542 180.766 9.29688C180.323 9.45312 179.826 9.53125 179.273 9.53125H177.711V8.33594ZM177.711 10.0469V8.88281H179.273C179.893 8.88281 180.438 8.95312 180.906 9.09375C181.375 9.23438 181.768 9.4375 182.086 9.70312C182.404 9.96354 182.643 10.2734 182.805 10.6328C182.966 10.987 183.047 11.3802 183.047 11.8125C183.047 12.3438 182.945 12.8177 182.742 13.2344C182.539 13.6458 182.253 13.9948 181.883 14.2812C181.518 14.5677 181.091 14.7865 180.602 14.9375C180.112 15.0833 179.578 15.1562 179 15.1562C178.521 15.1562 178.049 15.0911 177.586 14.9609C177.128 14.8255 176.711 14.625 176.336 14.3594C175.966 14.0885 175.669 13.75 175.445 13.3438C175.227 12.9323 175.117 12.4453 175.117 11.8828H177.375C177.375 12.1745 177.448 12.4349 177.594 12.6641C177.74 12.8932 177.94 13.0729 178.195 13.2031C178.456 13.3333 178.745 13.3984 179.062 13.3984C179.422 13.3984 179.729 13.3333 179.984 13.2031C180.245 13.0677 180.443 12.8802 180.578 12.6406C180.719 12.3958 180.789 12.112 180.789 11.7891C180.789 11.3724 180.714 11.0391 180.562 10.7891C180.411 10.5339 180.195 10.3464 179.914 10.2266C179.633 10.1068 179.299 10.0469 178.914 10.0469H177.711ZM192.562 10.75V12.5156H184.367L184.258 11.1484L189 3.625H190.789L188.852 6.86719L186.492 10.75H192.562ZM191.273 3.625V15H189.023V3.625H191.273ZM74.5547 22.625V34H73.6016V22.625H74.5547ZM78.4531 22.625V23.4531H69.7109V22.625H78.4531ZM80.4219 26.9453V34H79.4922V25.5469H80.3984L80.4219 26.9453ZM83.4141 25.4844L83.3906 26.3438C83.2865 26.3281 83.1849 26.3151 83.0859 26.3047C82.987 26.2943 82.8802 26.2891 82.7656 26.2891C82.3594 26.2891 82.0026 26.3646 81.6953 26.5156C81.3932 26.6615 81.138 26.8672 80.9297 27.1328C80.7214 27.3932 80.5625 27.7005 80.4531 28.0547C80.3438 28.4036 80.2812 28.7786 80.2656 29.1797L79.9219 29.3125C79.9219 28.7604 79.9792 28.2474 80.0938 27.7734C80.2083 27.2995 80.3828 26.8854 80.6172 26.5312C80.8568 26.1719 81.1562 25.8932 81.5156 25.6953C81.8802 25.4922 82.3073 25.3906 82.7969 25.3906C82.9167 25.3906 83.0339 25.401 83.1484 25.4219C83.2682 25.4375 83.3568 25.4583 83.4141 25.4844ZM89.7109 32.4844V28.125C89.7109 27.724 89.6276 27.3776 89.4609 27.0859C89.2943 26.7943 89.0495 26.5703 88.7266 26.4141C88.4036 26.2578 88.0052 26.1797 87.5312 26.1797C87.0938 26.1797 86.7031 26.2578 86.3594 26.4141C86.0208 26.5651 85.7526 26.7708 85.5547 27.0312C85.362 27.2865 85.2656 27.5703 85.2656 27.8828L84.3281 27.875C84.3281 27.5573 84.4062 27.25 84.5625 26.9531C84.7188 26.6562 84.9401 26.3906 85.2266 26.1562C85.513 25.9219 85.8542 25.737 86.25 25.6016C86.651 25.4609 87.0911 25.3906 87.5703 25.3906C88.1745 25.3906 88.7057 25.4922 89.1641 25.6953C89.6276 25.8984 89.9896 26.2031 90.25 26.6094C90.5104 27.0156 90.6406 27.526 90.6406 28.1406V32.2266C90.6406 32.5182 90.6615 32.8203 90.7031 33.1328C90.75 33.4453 90.8151 33.7031 90.8984 33.9062V34H89.9062C89.8438 33.8125 89.7943 33.5781 89.7578 33.2969C89.7266 33.0104 89.7109 32.7396 89.7109 32.4844ZM89.9297 29.0781L89.9453 29.7969H88.1094C87.6302 29.7969 87.2005 29.8411 86.8203 29.9297C86.4453 30.013 86.1276 30.138 85.8672 30.3047C85.6068 30.4661 85.4062 30.6615 85.2656 30.8906C85.1302 31.1198 85.0625 31.3802 85.0625 31.6719C85.0625 31.974 85.138 32.25 85.2891 32.5C85.4453 32.75 85.6641 32.9505 85.9453 33.1016C86.2318 33.2474 86.5703 33.3203 86.9609 33.3203C87.4818 33.3203 87.9401 33.224 88.3359 33.0312C88.737 32.8385 89.0677 32.5859 89.3281 32.2734C89.5885 31.9609 89.763 31.6198 89.8516 31.25L90.2578 31.7891C90.1901 32.0495 90.0651 32.3177 89.8828 32.5938C89.7057 32.8646 89.474 33.1198 89.1875 33.3594C88.901 33.5938 88.5625 33.7865 88.1719 33.9375C87.7865 34.0833 87.349 34.1562 86.8594 34.1562C86.3073 34.1562 85.8255 34.0521 85.4141 33.8438C85.0078 33.6354 84.6901 33.3516 84.4609 32.9922C84.237 32.6276 84.125 32.2161 84.125 31.7578C84.125 31.3411 84.2135 30.9688 84.3906 30.6406C84.5677 30.3073 84.8229 30.026 85.1562 29.7969C85.4948 29.5625 85.901 29.3854 86.375 29.2656C86.8542 29.1406 87.3906 29.0781 87.9844 29.0781H89.9297ZM94.0781 27.3516V34H93.1484V25.5469H94.0391L94.0781 27.3516ZM93.8672 29.25L93.4531 29.0156C93.4844 28.5156 93.5859 28.0469 93.7578 27.6094C93.9297 27.1719 94.1615 26.7865 94.4531 26.4531C94.75 26.1198 95.0964 25.8594 95.4922 25.6719C95.8932 25.4844 96.3359 25.3906 96.8203 25.3906C97.2422 25.3906 97.6198 25.4479 97.9531 25.5625C98.2865 25.6771 98.5703 25.8594 98.8047 26.1094C99.0391 26.3594 99.2161 26.6797 99.3359 27.0703C99.4609 27.4609 99.5234 27.9375 99.5234 28.5V34H98.5859V28.4922C98.5859 27.9089 98.5052 27.4531 98.3438 27.125C98.1823 26.7917 97.9531 26.5547 97.6562 26.4141C97.3594 26.2734 97.0078 26.2031 96.6016 26.2031C96.1536 26.2031 95.7604 26.3021 95.4219 26.5C95.0885 26.6927 94.8073 26.9453 94.5781 27.2578C94.3542 27.5651 94.1823 27.8958 94.0625 28.25C93.9427 28.599 93.8776 28.9323 93.8672 29.25ZM107.008 31.8438C107.008 31.6146 106.951 31.388 106.836 31.1641C106.721 30.9401 106.5 30.7344 106.172 30.5469C105.849 30.3594 105.372 30.2005 104.742 30.0703C104.273 29.9661 103.854 29.849 103.484 29.7188C103.12 29.5885 102.812 29.4323 102.562 29.25C102.312 29.0677 102.122 28.849 101.992 28.5938C101.862 28.3385 101.797 28.0365 101.797 27.6875C101.797 27.375 101.865 27.0807 102 26.8047C102.141 26.5234 102.339 26.2786 102.594 26.0703C102.854 25.8568 103.167 25.6901 103.531 25.5703C103.901 25.4505 104.315 25.3906 104.773 25.3906C105.424 25.3906 105.982 25.5026 106.445 25.7266C106.914 25.9453 107.271 26.2448 107.516 26.625C107.766 27.0052 107.891 27.4349 107.891 27.9141H106.961C106.961 27.6224 106.875 27.3464 106.703 27.0859C106.536 26.8255 106.289 26.612 105.961 26.4453C105.638 26.2786 105.242 26.1953 104.773 26.1953C104.289 26.1953 103.896 26.2682 103.594 26.4141C103.292 26.5599 103.07 26.7448 102.93 26.9688C102.794 27.1927 102.727 27.4245 102.727 27.6641C102.727 27.8516 102.755 28.0234 102.812 28.1797C102.875 28.3307 102.984 28.4714 103.141 28.6016C103.302 28.7318 103.531 28.8542 103.828 28.9688C104.125 29.0833 104.51 29.1953 104.984 29.3047C105.667 29.4557 106.224 29.6406 106.656 29.8594C107.094 30.0729 107.417 30.3385 107.625 30.6562C107.833 30.9688 107.938 31.349 107.938 31.7969C107.938 32.1458 107.865 32.4661 107.719 32.7578C107.573 33.0443 107.362 33.2917 107.086 33.5C106.815 33.7083 106.487 33.8698 106.102 33.9844C105.721 34.099 105.294 34.1562 104.82 34.1562C104.107 34.1562 103.503 34.0391 103.008 33.8047C102.518 33.5651 102.146 33.2526 101.891 32.8672C101.641 32.4766 101.516 32.0625 101.516 31.625H102.445C102.477 32.0625 102.615 32.4089 102.859 32.6641C103.104 32.9141 103.404 33.0911 103.758 33.1953C104.117 33.2995 104.471 33.3516 104.82 33.3516C105.299 33.3516 105.701 33.2812 106.023 33.1406C106.346 33 106.591 32.8151 106.758 32.5859C106.924 32.3568 107.008 32.1094 107.008 31.8438ZM111.656 34H110.727V24.5C110.727 23.9219 110.826 23.4349 111.023 23.0391C111.227 22.6432 111.513 22.3438 111.883 22.1406C112.258 21.9375 112.703 21.8359 113.219 21.8359C113.38 21.8359 113.547 21.8464 113.719 21.8672C113.891 21.8828 114.057 21.9167 114.219 21.9688L114.148 22.7578C114.018 22.7214 113.885 22.6979 113.75 22.6875C113.62 22.6719 113.466 22.6641 113.289 22.6641C112.951 22.6641 112.659 22.737 112.414 22.8828C112.169 23.0234 111.982 23.2292 111.852 23.5C111.721 23.7708 111.656 24.1042 111.656 24.5V34ZM113.672 25.5469V26.3125H109.328V25.5469H113.672ZM118.43 34.1562C117.878 34.1562 117.37 34.0547 116.906 33.8516C116.448 33.6484 116.047 33.362 115.703 32.9922C115.365 32.6224 115.102 32.1849 114.914 31.6797C114.732 31.1693 114.641 30.612 114.641 30.0078V29.6719C114.641 29.0208 114.737 28.4323 114.93 27.9062C115.122 27.3802 115.388 26.9297 115.727 26.5547C116.065 26.1797 116.451 25.8932 116.883 25.6953C117.32 25.4922 117.779 25.3906 118.258 25.3906C118.794 25.3906 119.271 25.487 119.688 25.6797C120.104 25.8672 120.453 26.1354 120.734 26.4844C121.021 26.8281 121.237 27.237 121.383 27.7109C121.529 28.1797 121.602 28.6979 121.602 29.2656V29.8359H115.203V29.0391H120.672V28.9297C120.661 28.4557 120.565 28.013 120.383 27.6016C120.206 27.1849 119.94 26.8464 119.586 26.5859C119.232 26.3255 118.789 26.1953 118.258 26.1953C117.862 26.1953 117.497 26.2786 117.164 26.4453C116.836 26.612 116.552 26.8516 116.312 27.1641C116.078 27.4714 115.896 27.8385 115.766 28.2656C115.641 28.6875 115.578 29.1562 115.578 29.6719V30.0078C115.578 30.4766 115.646 30.9141 115.781 31.3203C115.922 31.7214 116.12 32.0755 116.375 32.3828C116.635 32.6901 116.943 32.9297 117.297 33.1016C117.651 33.2734 118.042 33.3594 118.469 33.3594C118.969 33.3594 119.411 33.2682 119.797 33.0859C120.182 32.8984 120.529 32.6042 120.836 32.2031L121.422 32.6562C121.24 32.9271 121.01 33.1771 120.734 33.4062C120.464 33.6354 120.138 33.8177 119.758 33.9531C119.378 34.0885 118.935 34.1562 118.43 34.1562ZM124.375 26.9453V34H123.445V25.5469H124.352L124.375 26.9453ZM127.367 25.4844L127.344 26.3438C127.24 26.3281 127.138 26.3151 127.039 26.3047C126.94 26.2943 126.833 26.2891 126.719 26.2891C126.312 26.2891 125.956 26.3646 125.648 26.5156C125.346 26.6615 125.091 26.8672 124.883 27.1328C124.674 27.3932 124.516 27.7005 124.406 28.0547C124.297 28.4036 124.234 28.7786 124.219 29.1797L123.875 29.3125C123.875 28.7604 123.932 28.2474 124.047 27.7734C124.161 27.2995 124.336 26.8854 124.57 26.5312C124.81 26.1719 125.109 25.8932 125.469 25.6953C125.833 25.4922 126.26 25.3906 126.75 25.3906C126.87 25.3906 126.987 25.401 127.102 25.4219C127.221 25.4375 127.31 25.4583 127.367 25.4844ZM132.617 29.5156V29.3984C132.617 28.3828 132.724 27.4323 132.938 26.5469C133.151 25.6615 133.43 24.8646 133.773 24.1562C134.122 23.4479 134.503 22.8464 134.914 22.3516C135.331 21.8516 135.74 21.4818 136.141 21.2422L136.367 21.8828C136.023 22.1276 135.682 22.4818 135.344 22.9453C135.01 23.4089 134.708 23.9661 134.438 24.6172C134.167 25.2682 133.951 25.9948 133.789 26.7969C133.628 27.599 133.547 28.4583 133.547 29.375V29.5312C133.547 30.4479 133.628 31.3073 133.789 32.1094C133.951 32.9115 134.167 33.638 134.438 34.2891C134.708 34.9453 135.01 35.5078 135.344 35.9766C135.682 36.4505 136.023 36.8151 136.367 37.0703L136.141 37.6719C135.74 37.4323 135.331 37.0677 134.914 36.5781C134.503 36.0938 134.122 35.5 133.773 34.7969C133.43 34.099 133.151 33.3047 132.938 32.4141C132.724 31.5234 132.617 30.5573 132.617 29.5156ZM139.07 28.375L138.336 28.1641L138.891 22.625H144.578V23.5H139.688L139.289 27.3281C139.487 27.1875 139.773 27.0495 140.148 26.9141C140.529 26.7734 140.956 26.7031 141.43 26.7031C141.935 26.7031 142.393 26.7891 142.805 26.9609C143.221 27.1276 143.578 27.3724 143.875 27.6953C144.172 28.013 144.401 28.3984 144.562 28.8516C144.724 29.2995 144.805 29.8073 144.805 30.375C144.805 30.9219 144.737 31.4245 144.602 31.8828C144.466 32.3411 144.26 32.7422 143.984 33.0859C143.708 33.4245 143.357 33.6875 142.93 33.875C142.503 34.0625 141.995 34.1562 141.406 34.1562C140.953 34.1562 140.526 34.0938 140.125 33.9688C139.729 33.8385 139.375 33.6432 139.062 33.3828C138.75 33.1224 138.495 32.7943 138.297 32.3984C138.104 32.0026 137.984 31.5391 137.938 31.0078H138.836C138.898 31.5182 139.036 31.9479 139.25 32.2969C139.464 32.6458 139.75 32.9089 140.109 33.0859C140.474 33.263 140.906 33.3516 141.406 33.3516C141.812 33.3516 142.167 33.2865 142.469 33.1562C142.776 33.026 143.031 32.8359 143.234 32.5859C143.443 32.3307 143.599 32.0208 143.703 31.6562C143.812 31.2865 143.867 30.8646 143.867 30.3906C143.867 29.9844 143.81 29.612 143.695 29.2734C143.581 28.9297 143.411 28.6302 143.188 28.375C142.969 28.1146 142.698 27.9141 142.375 27.7734C142.052 27.6328 141.682 27.5625 141.266 27.5625C140.724 27.5625 140.292 27.6354 139.969 27.7812C139.651 27.9271 139.352 28.125 139.07 28.375ZM153.578 22.625V23.1641L148.719 34H147.75L152.578 23.4297H146.102V22.625H153.578ZM155.516 33.4297C155.516 33.2474 155.573 33.0938 155.688 32.9688C155.807 32.8385 155.969 32.7734 156.172 32.7734C156.38 32.7734 156.544 32.8359 156.664 32.9609C156.784 33.0859 156.844 33.2422 156.844 33.4297C156.844 33.6068 156.784 33.7578 156.664 33.8828C156.544 34.0078 156.38 34.0703 156.172 34.0703C155.969 34.0703 155.807 34.0078 155.688 33.8828C155.573 33.7578 155.516 33.6068 155.516 33.4297ZM166.281 22.625V23.1641L161.422 34H160.453L165.281 23.4297H158.805V22.625H166.281ZM173.531 22.5391H173.664V23.3594H173.531C172.812 23.3594 172.172 23.4766 171.609 23.7109C171.052 23.9453 170.581 24.2839 170.195 24.7266C169.815 25.1641 169.526 25.6953 169.328 26.3203C169.13 26.9453 169.031 27.6458 169.031 28.4219V29.9922C169.031 30.5182 169.102 30.9896 169.242 31.4062C169.383 31.8177 169.578 32.1693 169.828 32.4609C170.078 32.7526 170.37 32.974 170.703 33.125C171.036 33.276 171.396 33.3516 171.781 33.3516C172.161 33.3516 172.503 33.2734 172.805 33.1172C173.107 32.9609 173.362 32.7422 173.57 32.4609C173.784 32.1797 173.945 31.8568 174.055 31.4922C174.169 31.1224 174.227 30.7266 174.227 30.3047C174.227 29.9036 174.174 29.526 174.07 29.1719C173.971 28.8125 173.818 28.4948 173.609 28.2188C173.401 27.9427 173.141 27.7266 172.828 27.5703C172.516 27.4141 172.148 27.3359 171.727 27.3359C171.247 27.3359 170.799 27.4453 170.383 27.6641C169.966 27.8828 169.625 28.1745 169.359 28.5391C169.099 28.9036 168.961 29.3021 168.945 29.7344L168.406 29.7266C168.443 29.237 168.555 28.7969 168.742 28.4062C168.93 28.0104 169.177 27.6745 169.484 27.3984C169.797 27.1172 170.154 26.9036 170.555 26.7578C170.961 26.6068 171.398 26.5312 171.867 26.5312C172.414 26.5312 172.891 26.6302 173.297 26.8281C173.708 27.026 174.049 27.2995 174.32 27.6484C174.596 27.9922 174.802 28.3906 174.938 28.8438C175.078 29.2917 175.148 29.7656 175.148 30.2656C175.148 30.8125 175.07 31.3229 174.914 31.7969C174.763 32.2656 174.539 32.6771 174.242 33.0312C173.951 33.3854 173.596 33.6615 173.18 33.8594C172.768 34.0573 172.302 34.1562 171.781 34.1562C171.208 34.1562 170.695 34.0469 170.242 33.8281C169.789 33.6094 169.401 33.3073 169.078 32.9219C168.76 32.5365 168.516 32.0938 168.344 31.5938C168.177 31.0885 168.094 30.5495 168.094 29.9766V28.9766C168.094 28.0078 168.206 27.1302 168.43 26.3438C168.654 25.5521 168.99 24.8724 169.438 24.3047C169.891 23.737 170.456 23.3021 171.133 23C171.815 22.6927 172.615 22.5391 173.531 22.5391ZM176.812 25.4141V24.8125C176.812 24.3802 176.904 23.987 177.086 23.6328C177.268 23.2786 177.526 22.9948 177.859 22.7812C178.193 22.5677 178.583 22.4609 179.031 22.4609C179.49 22.4609 179.883 22.5677 180.211 22.7812C180.544 22.9948 180.802 23.2786 180.984 23.6328C181.167 23.987 181.258 24.3802 181.258 24.8125V25.4141C181.258 25.8359 181.167 26.224 180.984 26.5781C180.807 26.9323 180.552 27.2161 180.219 27.4297C179.891 27.6432 179.5 27.75 179.047 27.75C178.594 27.75 178.198 27.6432 177.859 27.4297C177.526 27.2161 177.268 26.9323 177.086 26.5781C176.904 26.224 176.812 25.8359 176.812 25.4141ZM177.562 24.8125V25.4141C177.562 25.6901 177.615 25.9557 177.719 26.2109C177.828 26.4609 177.992 26.6667 178.211 26.8281C178.435 26.9896 178.714 27.0703 179.047 27.0703C179.38 27.0703 179.654 26.9922 179.867 26.8359C180.081 26.6745 180.24 26.4688 180.344 26.2188C180.453 25.9635 180.508 25.6953 180.508 25.4141V24.8125C180.508 24.526 180.453 24.2578 180.344 24.0078C180.24 23.7526 180.078 23.5443 179.859 23.3828C179.641 23.2214 179.365 23.1406 179.031 23.1406C178.708 23.1406 178.438 23.2214 178.219 23.3828C178 23.5443 177.836 23.7526 177.727 24.0078C177.617 24.2578 177.562 24.526 177.562 24.8125ZM182.531 31.8203V31.2109C182.531 30.7839 182.622 30.3932 182.805 30.0391C182.987 29.6849 183.245 29.401 183.578 29.1875C183.911 28.974 184.305 28.8672 184.758 28.8672C185.216 28.8672 185.609 28.974 185.938 29.1875C186.271 29.401 186.529 29.6849 186.711 30.0391C186.893 30.3932 186.984 30.7839 186.984 31.2109V31.8203C186.984 32.2474 186.893 32.638 186.711 32.9922C186.534 33.3464 186.279 33.6302 185.945 33.8438C185.617 34.0573 185.227 34.1641 184.773 34.1641C184.315 34.1641 183.919 34.0573 183.586 33.8438C183.253 33.6302 182.992 33.3464 182.805 32.9922C182.622 32.638 182.531 32.2474 182.531 31.8203ZM183.289 31.2109V31.8203C183.289 32.1016 183.341 32.3698 183.445 32.625C183.555 32.875 183.719 33.0807 183.938 33.2422C184.161 33.4036 184.44 33.4844 184.773 33.4844C185.102 33.4844 185.372 33.4062 185.586 33.25C185.805 33.0885 185.966 32.8802 186.07 32.625C186.18 32.3698 186.234 32.1016 186.234 31.8203V31.2109C186.234 30.9141 186.18 30.6406 186.07 30.3906C185.966 30.1354 185.805 29.9323 185.586 29.7812C185.367 29.625 185.091 29.5469 184.758 29.5469C184.435 29.5469 184.161 29.625 183.938 29.7812C183.719 29.9323 183.555 30.1354 183.445 30.3906C183.341 30.6406 183.289 30.9141 183.289 31.2109ZM184.898 24.1641L179.344 33.0547L178.766 32.6797L184.32 23.7891L184.898 24.1641ZM191.797 29.3984V29.5156C191.797 30.5573 191.69 31.5234 191.477 32.4141C191.263 33.3047 190.982 34.099 190.633 34.7969C190.284 35.5 189.904 36.0938 189.492 36.5781C189.081 37.0677 188.672 37.4323 188.266 37.6719L188.039 37.0703C188.388 36.8255 188.729 36.4688 189.062 36C189.396 35.5312 189.698 34.9661 189.969 34.3047C190.245 33.6484 190.464 32.9193 190.625 32.1172C190.786 31.3099 190.867 30.4479 190.867 29.5312V29.375C190.867 28.4583 190.784 27.599 190.617 26.7969C190.451 25.9896 190.229 25.2578 189.953 24.6016C189.677 23.9453 189.372 23.3828 189.039 22.9141C188.706 22.4453 188.372 22.0911 188.039 21.8516L188.266 21.2422C188.672 21.4818 189.081 21.8516 189.492 22.3516C189.904 22.8464 190.284 23.4479 190.633 24.1562C190.982 24.8646 191.263 25.6615 191.477 26.5469C191.69 27.4323 191.797 28.3828 191.797 29.3984Z" fill="#50505A"/>
<path d="M0.5 46H194L208 60" stroke="#4E617D" stroke-linecap="round" stroke-linejoin="round"/>
<path d="M403.516 188.18V189H397.117V188.18H403.516ZM397.406 177.625V189H396.445V177.625H397.406ZM402.719 182.727V183.547H397.117V182.727H402.719ZM403.477 177.625V178.453H397.117V177.625H403.477ZM405.703 180.547L407.984 183.961L410.273 180.547H411.383L408.516 184.688L411.5 189H410.406L407.992 185.43L405.586 189H404.492L407.477 184.688L404.609 180.547H405.703ZM416.094 188.352C416.49 188.352 416.859 188.279 417.203 188.133C417.552 187.982 417.839 187.76 418.062 187.469C418.292 187.172 418.422 186.81 418.453 186.383H419.344C419.318 186.919 419.154 187.398 418.852 187.82C418.555 188.237 418.164 188.565 417.68 188.805C417.201 189.039 416.672 189.156 416.094 189.156C415.505 189.156 414.984 189.049 414.531 188.836C414.083 188.622 413.708 188.326 413.406 187.945C413.104 187.56 412.875 187.112 412.719 186.602C412.568 186.086 412.492 185.531 412.492 184.938V184.609C412.492 184.016 412.568 183.464 412.719 182.953C412.875 182.438 413.104 181.99 413.406 181.609C413.708 181.224 414.083 180.924 414.531 180.711C414.979 180.497 415.497 180.391 416.086 180.391C416.69 180.391 417.232 180.513 417.711 180.758C418.195 181.003 418.581 181.349 418.867 181.797C419.159 182.245 419.318 182.776 419.344 183.391H418.453C418.427 182.938 418.307 182.547 418.094 182.219C417.88 181.891 417.599 181.638 417.25 181.461C416.901 181.284 416.513 181.195 416.086 181.195C415.607 181.195 415.198 181.289 414.859 181.477C414.521 181.659 414.245 181.911 414.031 182.234C413.823 182.552 413.669 182.917 413.57 183.328C413.471 183.734 413.422 184.161 413.422 184.609V184.938C413.422 185.391 413.469 185.823 413.562 186.234C413.661 186.641 413.815 187.003 414.023 187.32C414.237 187.638 414.513 187.891 414.852 188.078C415.195 188.26 415.609 188.352 416.094 188.352ZM422.156 177V189H421.227V177H422.156ZM421.945 184.25L421.531 184.016C421.562 183.516 421.664 183.047 421.836 182.609C422.008 182.172 422.24 181.786 422.531 181.453C422.828 181.12 423.174 180.859 423.57 180.672C423.971 180.484 424.414 180.391 424.898 180.391C425.32 180.391 425.698 180.448 426.031 180.562C426.365 180.677 426.648 180.859 426.883 181.109C427.117 181.359 427.294 181.68 427.414 182.07C427.539 182.461 427.602 182.938 427.602 183.5V189H426.664V183.492C426.664 182.909 426.583 182.453 426.422 182.125C426.26 181.792 426.031 181.555 425.734 181.414C425.438 181.273 425.086 181.203 424.68 181.203C424.232 181.203 423.839 181.302 423.5 181.5C423.167 181.693 422.885 181.945 422.656 182.258C422.432 182.565 422.26 182.896 422.141 183.25C422.021 183.599 421.956 183.932 421.945 184.25ZM435.148 187.484V183.125C435.148 182.724 435.065 182.378 434.898 182.086C434.732 181.794 434.487 181.57 434.164 181.414C433.841 181.258 433.443 181.18 432.969 181.18C432.531 181.18 432.141 181.258 431.797 181.414C431.458 181.565 431.19 181.771 430.992 182.031C430.799 182.286 430.703 182.57 430.703 182.883L429.766 182.875C429.766 182.557 429.844 182.25 430 181.953C430.156 181.656 430.378 181.391 430.664 181.156C430.951 180.922 431.292 180.737 431.688 180.602C432.089 180.461 432.529 180.391 433.008 180.391C433.612 180.391 434.143 180.492 434.602 180.695C435.065 180.898 435.427 181.203 435.688 181.609C435.948 182.016 436.078 182.526 436.078 183.141V187.227C436.078 187.518 436.099 187.82 436.141 188.133C436.188 188.445 436.253 188.703 436.336 188.906V189H435.344C435.281 188.812 435.232 188.578 435.195 188.297C435.164 188.01 435.148 187.74 435.148 187.484ZM435.367 184.078L435.383 184.797H433.547C433.068 184.797 432.638 184.841 432.258 184.93C431.883 185.013 431.565 185.138 431.305 185.305C431.044 185.466 430.844 185.661 430.703 185.891C430.568 186.12 430.5 186.38 430.5 186.672C430.5 186.974 430.576 187.25 430.727 187.5C430.883 187.75 431.102 187.951 431.383 188.102C431.669 188.247 432.008 188.32 432.398 188.32C432.919 188.32 433.378 188.224 433.773 188.031C434.174 187.839 434.505 187.586 434.766 187.273C435.026 186.961 435.201 186.62 435.289 186.25L435.695 186.789C435.628 187.049 435.503 187.318 435.32 187.594C435.143 187.865 434.911 188.12 434.625 188.359C434.339 188.594 434 188.786 433.609 188.938C433.224 189.083 432.786 189.156 432.297 189.156C431.745 189.156 431.263 189.052 430.852 188.844C430.445 188.635 430.128 188.352 429.898 187.992C429.674 187.628 429.562 187.216 429.562 186.758C429.562 186.341 429.651 185.969 429.828 185.641C430.005 185.307 430.26 185.026 430.594 184.797C430.932 184.562 431.339 184.385 431.812 184.266C432.292 184.141 432.828 184.078 433.422 184.078H435.367ZM439.516 182.352V189H438.586V180.547H439.477L439.516 182.352ZM439.305 184.25L438.891 184.016C438.922 183.516 439.023 183.047 439.195 182.609C439.367 182.172 439.599 181.786 439.891 181.453C440.188 181.12 440.534 180.859 440.93 180.672C441.331 180.484 441.773 180.391 442.258 180.391C442.68 180.391 443.057 180.448 443.391 180.562C443.724 180.677 444.008 180.859 444.242 181.109C444.477 181.359 444.654 181.68 444.773 182.07C444.898 182.461 444.961 182.938 444.961 183.5V189H444.023V183.492C444.023 182.909 443.943 182.453 443.781 182.125C443.62 181.792 443.391 181.555 443.094 181.414C442.797 181.273 442.445 181.203 442.039 181.203C441.591 181.203 441.198 181.302 440.859 181.5C440.526 181.693 440.245 181.945 440.016 182.258C439.792 182.565 439.62 182.896 439.5 183.25C439.38 183.599 439.315 183.932 439.305 184.25ZM452.945 180.547H453.812V188.852C453.812 189.586 453.672 190.216 453.391 190.742C453.115 191.268 452.721 191.672 452.211 191.953C451.706 192.234 451.109 192.375 450.422 192.375C450.073 192.375 449.714 192.32 449.344 192.211C448.979 192.107 448.633 191.945 448.305 191.727C447.982 191.513 447.706 191.247 447.477 190.93L448 190.359C448.344 190.776 448.711 191.081 449.102 191.273C449.492 191.471 449.914 191.57 450.367 191.57C450.904 191.57 451.357 191.464 451.727 191.25C452.102 191.036 452.385 190.729 452.578 190.328C452.776 189.927 452.875 189.445 452.875 188.883V182.406L452.945 180.547ZM447.008 184.859V184.695C447.008 184.039 447.081 183.448 447.227 182.922C447.378 182.391 447.594 181.938 447.875 181.562C448.156 181.182 448.497 180.893 448.898 180.695C449.305 180.492 449.763 180.391 450.273 180.391C450.763 180.391 451.198 180.471 451.578 180.633C451.958 180.794 452.286 181.026 452.562 181.328C452.839 181.63 453.06 181.99 453.227 182.406C453.398 182.823 453.523 183.286 453.602 183.797V185.883C453.539 186.362 453.424 186.802 453.258 187.203C453.091 187.599 452.87 187.945 452.594 188.242C452.318 188.534 451.984 188.76 451.594 188.922C451.208 189.078 450.763 189.156 450.258 189.156C449.753 189.156 449.299 189.052 448.898 188.844C448.497 188.635 448.156 188.341 447.875 187.961C447.594 187.576 447.378 187.12 447.227 186.594C447.081 186.068 447.008 185.49 447.008 184.859ZM447.945 184.695V184.859C447.945 185.354 447.995 185.812 448.094 186.234C448.193 186.656 448.344 187.023 448.547 187.336C448.75 187.648 449.008 187.893 449.32 188.07C449.633 188.247 450 188.336 450.422 188.336C450.958 188.336 451.409 188.234 451.773 188.031C452.138 187.823 452.427 187.549 452.641 187.211C452.854 186.867 453.01 186.492 453.109 186.086V183.656C453.052 183.38 452.964 183.099 452.844 182.812C452.729 182.526 452.568 182.263 452.359 182.023C452.156 181.779 451.896 181.583 451.578 181.438C451.266 181.286 450.885 181.211 450.438 181.211C450.01 181.211 449.638 181.299 449.32 181.477C449.008 181.654 448.75 181.901 448.547 182.219C448.344 182.531 448.193 182.898 448.094 183.32C447.995 183.742 447.945 184.201 447.945 184.695ZM459.523 189.156C458.971 189.156 458.464 189.055 458 188.852C457.542 188.648 457.141 188.362 456.797 187.992C456.458 187.622 456.195 187.185 456.008 186.68C455.826 186.169 455.734 185.612 455.734 185.008V184.672C455.734 184.021 455.831 183.432 456.023 182.906C456.216 182.38 456.482 181.93 456.82 181.555C457.159 181.18 457.544 180.893 457.977 180.695C458.414 180.492 458.872 180.391 459.352 180.391C459.888 180.391 460.365 180.487 460.781 180.68C461.198 180.867 461.547 181.135 461.828 181.484C462.115 181.828 462.331 182.237 462.477 182.711C462.622 183.18 462.695 183.698 462.695 184.266V184.836H456.297V184.039H461.766V183.93C461.755 183.456 461.659 183.013 461.477 182.602C461.299 182.185 461.034 181.846 460.68 181.586C460.326 181.326 459.883 181.195 459.352 181.195C458.956 181.195 458.591 181.279 458.258 181.445C457.93 181.612 457.646 181.852 457.406 182.164C457.172 182.471 456.99 182.839 456.859 183.266C456.734 183.688 456.672 184.156 456.672 184.672V185.008C456.672 185.477 456.74 185.914 456.875 186.32C457.016 186.721 457.214 187.076 457.469 187.383C457.729 187.69 458.036 187.93 458.391 188.102C458.745 188.273 459.135 188.359 459.562 188.359C460.062 188.359 460.505 188.268 460.891 188.086C461.276 187.898 461.622 187.604 461.93 187.203L462.516 187.656C462.333 187.927 462.104 188.177 461.828 188.406C461.557 188.635 461.232 188.818 460.852 188.953C460.471 189.089 460.029 189.156 459.523 189.156ZM468.32 184.516V184.398C468.32 183.383 468.427 182.432 468.641 181.547C468.854 180.661 469.133 179.865 469.477 179.156C469.826 178.448 470.206 177.846 470.617 177.352C471.034 176.852 471.443 176.482 471.844 176.242L472.07 176.883C471.727 177.128 471.385 177.482 471.047 177.945C470.714 178.409 470.411 178.966 470.141 179.617C469.87 180.268 469.654 180.995 469.492 181.797C469.331 182.599 469.25 183.458 469.25 184.375V184.531C469.25 185.448 469.331 186.307 469.492 187.109C469.654 187.911 469.87 188.638 470.141 189.289C470.411 189.945 470.714 190.508 471.047 190.977C471.385 191.451 471.727 191.815 472.07 192.07L471.844 192.672C471.443 192.432 471.034 192.068 470.617 191.578C470.206 191.094 469.826 190.5 469.477 189.797C469.133 189.099 468.854 188.305 468.641 187.414C468.427 186.523 468.32 185.557 468.32 184.516ZM480.914 185.328V186.125H472.859V185.586L478.117 177.625H478.898L477.789 179.555L474 185.328H480.914ZM479.141 177.625V189H478.211V177.625H479.141ZM489.398 188.195V189H482.281V188.273L486.008 184.047C486.471 183.521 486.841 183.06 487.117 182.664C487.393 182.263 487.591 181.898 487.711 181.57C487.836 181.237 487.898 180.914 487.898 180.602C487.898 180.143 487.807 179.74 487.625 179.391C487.448 179.042 487.182 178.768 486.828 178.57C486.474 178.372 486.036 178.273 485.516 178.273C484.995 178.273 484.542 178.385 484.156 178.609C483.771 178.833 483.474 179.146 483.266 179.547C483.062 179.943 482.961 180.393 482.961 180.898H482.031C482.031 180.273 482.169 179.701 482.445 179.18C482.727 178.659 483.128 178.245 483.648 177.938C484.169 177.625 484.792 177.469 485.516 177.469C486.203 177.469 486.794 177.591 487.289 177.836C487.784 178.076 488.164 178.422 488.43 178.875C488.701 179.328 488.836 179.875 488.836 180.516C488.836 180.859 488.773 181.206 488.648 181.555C488.529 181.904 488.362 182.253 488.148 182.602C487.94 182.945 487.701 183.286 487.43 183.625C487.164 183.964 486.885 184.297 486.594 184.625L483.422 188.195H489.398ZM491.219 188.43C491.219 188.247 491.276 188.094 491.391 187.969C491.51 187.839 491.672 187.773 491.875 187.773C492.083 187.773 492.247 187.836 492.367 187.961C492.487 188.086 492.547 188.242 492.547 188.43C492.547 188.607 492.487 188.758 492.367 188.883C492.247 189.008 492.083 189.07 491.875 189.07C491.672 189.07 491.51 189.008 491.391 188.883C491.276 188.758 491.219 188.607 491.219 188.43ZM502.102 188.195V189H494.984V188.273L498.711 184.047C499.174 183.521 499.544 183.06 499.82 182.664C500.096 182.263 500.294 181.898 500.414 181.57C500.539 181.237 500.602 180.914 500.602 180.602C500.602 180.143 500.51 179.74 500.328 179.391C500.151 179.042 499.885 178.768 499.531 178.57C499.177 178.372 498.74 178.273 498.219 178.273C497.698 178.273 497.245 178.385 496.859 178.609C496.474 178.833 496.177 179.146 495.969 179.547C495.766 179.943 495.664 180.393 495.664 180.898H494.734C494.734 180.273 494.872 179.701 495.148 179.18C495.43 178.659 495.831 178.245 496.352 177.938C496.872 177.625 497.495 177.469 498.219 177.469C498.906 177.469 499.497 177.591 499.992 177.836C500.487 178.076 500.867 178.422 501.133 178.875C501.404 179.328 501.539 179.875 501.539 180.516C501.539 180.859 501.477 181.206 501.352 181.555C501.232 181.904 501.065 182.253 500.852 182.602C500.643 182.945 500.404 183.286 500.133 183.625C499.867 183.964 499.589 184.297 499.297 184.625L496.125 188.195H502.102ZM511.367 185.328V186.125H503.312V185.586L508.57 177.625H509.352L508.242 179.555L504.453 185.328H511.367ZM509.594 177.625V189H508.664V177.625H509.594ZM512.516 180.414V179.812C512.516 179.38 512.607 178.987 512.789 178.633C512.971 178.279 513.229 177.995 513.562 177.781C513.896 177.568 514.286 177.461 514.734 177.461C515.193 177.461 515.586 177.568 515.914 177.781C516.247 177.995 516.505 178.279 516.688 178.633C516.87 178.987 516.961 179.38 516.961 179.812V180.414C516.961 180.836 516.87 181.224 516.688 181.578C516.51 181.932 516.255 182.216 515.922 182.43C515.594 182.643 515.203 182.75 514.75 182.75C514.297 182.75 513.901 182.643 513.562 182.43C513.229 182.216 512.971 181.932 512.789 181.578C512.607 181.224 512.516 180.836 512.516 180.414ZM513.266 179.812V180.414C513.266 180.69 513.318 180.956 513.422 181.211C513.531 181.461 513.695 181.667 513.914 181.828C514.138 181.99 514.417 182.07 514.75 182.07C515.083 182.07 515.357 181.992 515.57 181.836C515.784 181.674 515.943 181.469 516.047 181.219C516.156 180.964 516.211 180.695 516.211 180.414V179.812C516.211 179.526 516.156 179.258 516.047 179.008C515.943 178.753 515.781 178.544 515.562 178.383C515.344 178.221 515.068 178.141 514.734 178.141C514.411 178.141 514.141 178.221 513.922 178.383C513.703 178.544 513.539 178.753 513.43 179.008C513.32 179.258 513.266 179.526 513.266 179.812ZM518.234 186.82V186.211C518.234 185.784 518.326 185.393 518.508 185.039C518.69 184.685 518.948 184.401 519.281 184.188C519.615 183.974 520.008 183.867 520.461 183.867C520.919 183.867 521.312 183.974 521.641 184.188C521.974 184.401 522.232 184.685 522.414 185.039C522.596 185.393 522.688 185.784 522.688 186.211V186.82C522.688 187.247 522.596 187.638 522.414 187.992C522.237 188.346 521.982 188.63 521.648 188.844C521.32 189.057 520.93 189.164 520.477 189.164C520.018 189.164 519.622 189.057 519.289 188.844C518.956 188.63 518.695 188.346 518.508 187.992C518.326 187.638 518.234 187.247 518.234 186.82ZM518.992 186.211V186.82C518.992 187.102 519.044 187.37 519.148 187.625C519.258 187.875 519.422 188.081 519.641 188.242C519.865 188.404 520.143 188.484 520.477 188.484C520.805 188.484 521.076 188.406 521.289 188.25C521.508 188.089 521.669 187.88 521.773 187.625C521.883 187.37 521.938 187.102 521.938 186.82V186.211C521.938 185.914 521.883 185.641 521.773 185.391C521.669 185.135 521.508 184.932 521.289 184.781C521.07 184.625 520.794 184.547 520.461 184.547C520.138 184.547 519.865 184.625 519.641 184.781C519.422 184.932 519.258 185.135 519.148 185.391C519.044 185.641 518.992 185.914 518.992 186.211ZM520.602 179.164L515.047 188.055L514.469 187.68L520.023 178.789L520.602 179.164ZM527.5 184.398V184.516C527.5 185.557 527.393 186.523 527.18 187.414C526.966 188.305 526.685 189.099 526.336 189.797C525.987 190.5 525.607 191.094 525.195 191.578C524.784 192.068 524.375 192.432 523.969 192.672L523.742 192.07C524.091 191.826 524.432 191.469 524.766 191C525.099 190.531 525.401 189.966 525.672 189.305C525.948 188.648 526.167 187.919 526.328 187.117C526.49 186.31 526.57 185.448 526.57 184.531V184.375C526.57 183.458 526.487 182.599 526.32 181.797C526.154 180.99 525.932 180.258 525.656 179.602C525.38 178.945 525.076 178.383 524.742 177.914C524.409 177.445 524.076 177.091 523.742 176.852L523.969 176.242C524.375 176.482 524.784 176.852 525.195 177.352C525.607 177.846 525.987 178.448 526.336 179.156C526.685 179.865 526.966 180.661 527.18 181.547C527.393 182.432 527.5 183.383 527.5 184.398ZM397.375 206.289H397.523C398.148 206.289 398.685 206.214 399.133 206.062C399.586 205.906 399.958 205.682 400.25 205.391C400.542 205.099 400.758 204.742 400.898 204.32C401.039 203.893 401.109 203.409 401.109 202.867V200.711C401.109 200.299 401.068 199.938 400.984 199.625C400.906 199.312 400.792 199.055 400.641 198.852C400.495 198.643 400.323 198.487 400.125 198.383C399.932 198.279 399.719 198.227 399.484 198.227C399.234 198.227 399.013 198.289 398.82 198.414C398.628 198.534 398.464 198.698 398.328 198.906C398.198 199.115 398.096 199.354 398.023 199.625C397.956 199.891 397.922 200.169 397.922 200.461C397.922 200.753 397.956 201.031 398.023 201.297C398.091 201.557 398.193 201.789 398.328 201.992C398.464 202.19 398.633 202.349 398.836 202.469C399.039 202.583 399.279 202.641 399.555 202.641C399.82 202.641 400.057 202.591 400.266 202.492C400.479 202.388 400.659 202.253 400.805 202.086C400.956 201.919 401.07 201.734 401.148 201.531C401.232 201.328 401.273 201.122 401.273 200.914L402.016 201.32C402.016 201.685 401.938 202.044 401.781 202.398C401.625 202.753 401.406 203.076 401.125 203.367C400.849 203.654 400.529 203.883 400.164 204.055C399.799 204.227 399.409 204.312 398.992 204.312C398.461 204.312 397.99 204.216 397.578 204.023C397.167 203.826 396.818 203.555 396.531 203.211C396.25 202.862 396.036 202.456 395.891 201.992C395.745 201.529 395.672 201.026 395.672 200.484C395.672 199.932 395.76 199.414 395.938 198.93C396.12 198.445 396.378 198.018 396.711 197.648C397.049 197.279 397.453 196.99 397.922 196.781C398.396 196.568 398.922 196.461 399.5 196.461C400.078 196.461 400.604 196.573 401.078 196.797C401.552 197.021 401.958 197.339 402.297 197.75C402.635 198.156 402.896 198.643 403.078 199.211C403.266 199.779 403.359 200.409 403.359 201.102V201.883C403.359 202.622 403.279 203.31 403.117 203.945C402.961 204.581 402.724 205.156 402.406 205.672C402.094 206.182 401.703 206.62 401.234 206.984C400.771 207.349 400.232 207.628 399.617 207.82C399.003 208.013 398.315 208.109 397.555 208.109H397.375V206.289ZM412.633 204.883C412.633 205.596 412.466 206.198 412.133 206.688C411.799 207.172 411.341 207.539 410.758 207.789C410.18 208.034 409.523 208.156 408.789 208.156C408.055 208.156 407.396 208.034 406.812 207.789C406.229 207.539 405.768 207.172 405.43 206.688C405.091 206.198 404.922 205.596 404.922 204.883C404.922 204.404 405.018 203.971 405.211 203.586C405.404 203.195 405.672 202.862 406.016 202.586C406.365 202.305 406.773 202.091 407.242 201.945C407.711 201.794 408.221 201.719 408.773 201.719C409.513 201.719 410.174 201.849 410.758 202.109C411.341 202.37 411.799 202.737 412.133 203.211C412.466 203.685 412.633 204.242 412.633 204.883ZM410.367 204.734C410.367 204.385 410.299 204.086 410.164 203.836C410.034 203.581 409.849 203.385 409.609 203.25C409.37 203.115 409.091 203.047 408.773 203.047C408.456 203.047 408.177 203.115 407.938 203.25C407.698 203.385 407.51 203.581 407.375 203.836C407.245 204.086 407.18 204.385 407.18 204.734C407.18 205.078 407.245 205.375 407.375 205.625C407.51 205.875 407.698 206.068 407.938 206.203C408.182 206.333 408.466 206.398 408.789 206.398C409.112 206.398 409.391 206.333 409.625 206.203C409.865 206.068 410.047 205.875 410.172 205.625C410.302 205.375 410.367 205.078 410.367 204.734ZM412.391 199.641C412.391 200.219 412.237 200.732 411.93 201.18C411.622 201.622 411.195 201.969 410.648 202.219C410.107 202.469 409.487 202.594 408.789 202.594C408.086 202.594 407.461 202.469 406.914 202.219C406.367 201.969 405.94 201.622 405.633 201.18C405.326 200.732 405.172 200.219 405.172 199.641C405.172 198.953 405.326 198.375 405.633 197.906C405.945 197.432 406.372 197.073 406.914 196.828C407.461 196.583 408.081 196.461 408.773 196.461C409.477 196.461 410.099 196.583 410.641 196.828C411.188 197.073 411.615 197.432 411.922 197.906C412.234 198.375 412.391 198.953 412.391 199.641ZM410.141 199.742C410.141 199.435 410.086 199.169 409.977 198.945C409.867 198.716 409.711 198.539 409.508 198.414C409.31 198.289 409.065 198.227 408.773 198.227C408.492 198.227 408.25 198.286 408.047 198.406C407.849 198.526 407.695 198.701 407.586 198.93C407.482 199.154 407.43 199.424 407.43 199.742C407.43 200.049 407.482 200.32 407.586 200.555C407.695 200.784 407.852 200.964 408.055 201.094C408.258 201.224 408.503 201.289 408.789 201.289C409.076 201.289 409.318 201.224 409.516 201.094C409.719 200.964 409.872 200.784 409.977 200.555C410.086 200.32 410.141 200.049 410.141 199.742Z" fill="#50505A"/>
<path d="M587.5 166H394L380 152" stroke="#D0C018" stroke-linecap="round" stroke-linejoin="round"/>
<rect x="263" y="78" width="61" height="60" rx="30" fill="#FBFCFD"/>
<path d="M287.978 110.515C288.331 110.172 288.755 110 289.248 110C289.741 110 290.163 110.172 290.513 110.515C290.866 110.855 291.043 111.265 291.043 111.745C291.043 112.225 290.866 112.637 290.513 112.98C290.163 113.323 289.741 113.495 289.248 113.495C288.755 113.495 288.331 113.323 287.978 112.98C287.628 112.637 287.453 112.225 287.453 111.745C287.453 111.265 287.628 110.855 287.978 110.515ZM290.443 110.585C290.113 110.262 289.715 110.1 289.248 110.1C288.781 110.1 288.381 110.262 288.048 110.585C287.718 110.905 287.553 111.292 287.553 111.745C287.553 112.198 287.72 112.587 288.053 112.91C288.386 113.233 288.785 113.395 289.248 113.395C289.711 113.395 290.11 113.233 290.443 112.91C290.776 112.587 290.943 112.198 290.943 111.745C290.943 111.292 290.776 110.905 290.443 110.585Z" fill="#A6AFBD"/>
<path d="M296.114 110V112.075C296.114 112.528 295.992 112.878 295.749 113.125C295.509 113.372 295.169 113.495 294.729 113.495C294.289 113.495 293.947 113.372 293.704 113.125C293.464 112.878 293.344 112.528 293.344 112.075V110H293.444V112.075C293.444 112.495 293.556 112.82 293.779 113.05C294.006 113.28 294.322 113.395 294.729 113.395C295.136 113.395 295.451 113.28 295.674 113.05C295.901 112.82 296.014 112.495 296.014 112.075V110H296.114Z" fill="#A6AFBD"/>
<path d="M300.73 110.1H299.53V113.495H299.43V110.1H298.23V110H300.73V110.1Z" fill="#A6AFBD"/>
<path d="M287.978 110.515C288.331 110.172 288.755 110 289.248 110C289.741 110 290.163 110.172 290.513 110.515C290.866 110.855 291.043 111.265 291.043 111.745C291.043 112.225 290.866 112.637 290.513 112.98C290.163 113.323 289.741 113.495 289.248 113.495C288.755 113.495 288.331 113.323 287.978 112.98C287.628 112.637 287.453 112.225 287.453 111.745C287.453 111.265 287.628 110.855 287.978 110.515ZM290.443 110.585C290.113 110.262 289.715 110.1 289.248 110.1C288.781 110.1 288.381 110.262 288.048 110.585C287.718 110.905 287.553 111.292 287.553 111.745C287.553 112.198 287.72 112.587 288.053 112.91C288.386 113.233 288.785 113.395 289.248 113.395C289.711 113.395 290.11 113.233 290.443 112.91C290.776 112.587 290.943 112.198 290.943 111.745C290.943 111.292 290.776 110.905 290.443 110.585Z" stroke="#A6AFBD" stroke-width="0.9" stroke-linejoin="round"/>
<path d="M296.114 110V112.075C296.114 112.528 295.992 112.878 295.749 113.125C295.509 113.372 295.169 113.495 294.729 113.495C294.289 113.495 293.947 113.372 293.704 113.125C293.464 112.878 293.344 112.528 293.344 112.075V110H293.444V112.075C293.444 112.495 293.556 112.82 293.779 113.05C294.006 113.28 294.322 113.395 294.729 113.395C295.136 113.395 295.451 113.28 295.674 113.05C295.901 112.82 296.014 112.495 296.014 112.075V110H296.114Z" stroke="#A6AFBD" stroke-width="0.9" stroke-linejoin="round"/>
<path d="M300.73 110.1H299.53V113.495H299.43V110.1H298.23V110H300.73V110.1Z" stroke="#A6AFBD" stroke-width="0.9" stroke-linejoin="round"/>
<rect x="284.5" y="98.5" width="19" height="19" rx="0.5" stroke="#A6AFBD"/>
<path d="M285 104H297" stroke="#A6AFBD" stroke-width="2"/>
<path d="M300.882 104.191C301.039 104.112 301.039 103.888 300.882 103.809L297.309 102.023C297.167 101.952 297 102.055 297 102.213V105.787C297 105.945 297.167 106.048 297.309 105.977L300.882 104.191Z" fill="#A6AFBD"/>
</svg>
