<svg width="588" height="212" viewBox="0 0 588 212" fill="none" xmlns="http://www.w3.org/2000/svg">
<circle cx="293" cy="108" r="98" transform="rotate(-90 293 108)" fill="#D0C018"/>
<path d="M293 10C313.676 10 333.822 16.5392 350.556 28.6822C367.29 40.8252 379.755 57.9497 386.168 77.6059C392.58 97.262 392.611 118.443 386.257 138.118C379.903 157.793 367.489 174.954 350.791 187.147C334.093 199.339 313.966 205.938 293.29 206C272.615 206.061 252.45 199.581 235.679 187.488C218.909 175.395 206.394 158.307 199.923 138.67C193.452 119.033 193.358 97.8525 199.654 78.1587L293 108V10Z" fill="#4E617D"/>
<path d="M183.188 13.2422V15H175.406V13.5L179.086 9.55469C179.456 9.14323 179.747 8.78125 179.961 8.46875C180.174 8.15104 180.328 7.86719 180.422 7.61719C180.521 7.36198 180.57 7.11979 180.57 6.89062C180.57 6.54688 180.513 6.2526 180.398 6.00781C180.284 5.75781 180.115 5.5651 179.891 5.42969C179.672 5.29427 179.401 5.22656 179.078 5.22656C178.734 5.22656 178.438 5.3099 178.188 5.47656C177.943 5.64323 177.755 5.875 177.625 6.17188C177.5 6.46875 177.438 6.80469 177.438 7.17969H175.18C175.18 6.5026 175.341 5.88281 175.664 5.32031C175.987 4.7526 176.443 4.30208 177.031 3.96875C177.62 3.63021 178.318 3.46094 179.125 3.46094C179.922 3.46094 180.594 3.59115 181.141 3.85156C181.693 4.10677 182.109 4.47656 182.391 4.96094C182.677 5.4401 182.82 6.01302 182.82 6.67969C182.82 7.05469 182.76 7.42188 182.641 7.78125C182.521 8.13542 182.349 8.48958 182.125 8.84375C181.906 9.19271 181.641 9.54688 181.328 9.90625C181.016 10.2656 180.669 10.638 180.289 11.0234L178.312 13.2422H183.188ZM192.32 3.625V4.83594L187.922 15H185.547L189.945 5.38281H184.281V3.625H192.32ZM67.8125 33.1797V34H61.4141V33.1797H67.8125ZM61.7031 22.625V34H60.7422V22.625H61.7031ZM67.0156 27.7266V28.5469H61.4141V27.7266H67.0156ZM67.7734 22.625V23.4531H61.4141V22.625H67.7734ZM70 25.5469L72.2812 28.9609L74.5703 25.5469H75.6797L72.8125 29.6875L75.7969 34H74.7031L72.2891 30.4297L69.8828 34H68.7891L71.7734 29.6875L68.9062 25.5469H70ZM80.3906 33.3516C80.7865 33.3516 81.1562 33.2786 81.5 33.1328C81.849 32.9818 82.1354 32.7604 82.3594 32.4688C82.5885 32.1719 82.7188 31.8099 82.75 31.3828H83.6406C83.6146 31.9193 83.4505 32.3984 83.1484 32.8203C82.8516 33.237 82.4609 33.5651 81.9766 33.8047C81.4974 34.0391 80.9688 34.1562 80.3906 34.1562C79.8021 34.1562 79.2812 34.0495 78.8281 33.8359C78.3802 33.6224 78.0052 33.3255 77.7031 32.9453C77.401 32.5599 77.1719 32.112 77.0156 31.6016C76.8646 31.0859 76.7891 30.5312 76.7891 29.9375V29.6094C76.7891 29.0156 76.8646 28.4635 77.0156 27.9531C77.1719 27.4375 77.401 26.9896 77.7031 26.6094C78.0052 26.224 78.3802 25.9245 78.8281 25.7109C79.276 25.4974 79.7943 25.3906 80.3828 25.3906C80.987 25.3906 81.5286 25.513 82.0078 25.7578C82.4922 26.0026 82.8776 26.349 83.1641 26.7969C83.4557 27.2448 83.6146 27.776 83.6406 28.3906H82.75C82.724 27.9375 82.6042 27.5469 82.3906 27.2188C82.1771 26.8906 81.8958 26.638 81.5469 26.4609C81.1979 26.2839 80.8099 26.1953 80.3828 26.1953C79.9036 26.1953 79.4948 26.2891 79.1562 26.4766C78.8177 26.6589 78.5417 26.9115 78.3281 27.2344C78.1198 27.5521 77.9661 27.9167 77.8672 28.3281C77.7682 28.7344 77.7188 29.1615 77.7188 29.6094V29.9375C77.7188 30.3906 77.7656 30.8229 77.8594 31.2344C77.9583 31.6406 78.112 32.0026 78.3203 32.3203C78.5339 32.638 78.8099 32.8906 79.1484 33.0781C79.4922 33.2604 79.9062 33.3516 80.3906 33.3516ZM86.4531 22V34H85.5234V22H86.4531ZM86.2422 29.25L85.8281 29.0156C85.8594 28.5156 85.9609 28.0469 86.1328 27.6094C86.3047 27.1719 86.5365 26.7865 86.8281 26.4531C87.125 26.1198 87.4714 25.8594 87.8672 25.6719C88.2682 25.4844 88.7109 25.3906 89.1953 25.3906C89.6172 25.3906 89.9948 25.4479 90.3281 25.5625C90.6615 25.6771 90.9453 25.8594 91.1797 26.1094C91.4141 26.3594 91.5911 26.6797 91.7109 27.0703C91.8359 27.4609 91.8984 27.9375 91.8984 28.5V34H90.9609V28.4922C90.9609 27.9089 90.8802 27.4531 90.7188 27.125C90.5573 26.7917 90.3281 26.5547 90.0312 26.4141C89.7344 26.2734 89.3828 26.2031 88.9766 26.2031C88.5286 26.2031 88.1354 26.3021 87.7969 26.5C87.4635 26.6927 87.1823 26.9453 86.9531 27.2578C86.7292 27.5651 86.5573 27.8958 86.4375 28.25C86.3177 28.599 86.2526 28.9323 86.2422 29.25ZM99.4453 32.4844V28.125C99.4453 27.724 99.362 27.3776 99.1953 27.0859C99.0286 26.7943 98.7839 26.5703 98.4609 26.4141C98.138 26.2578 97.7396 26.1797 97.2656 26.1797C96.8281 26.1797 96.4375 26.2578 96.0938 26.4141C95.7552 26.5651 95.487 26.7708 95.2891 27.0312C95.0964 27.2865 95 27.5703 95 27.8828L94.0625 27.875C94.0625 27.5573 94.1406 27.25 94.2969 26.9531C94.4531 26.6562 94.6745 26.3906 94.9609 26.1562C95.2474 25.9219 95.5885 25.737 95.9844 25.6016C96.3854 25.4609 96.8255 25.3906 97.3047 25.3906C97.9089 25.3906 98.4401 25.4922 98.8984 25.6953C99.362 25.8984 99.724 26.2031 99.9844 26.6094C100.245 27.0156 100.375 27.526 100.375 28.1406V32.2266C100.375 32.5182 100.396 32.8203 100.438 33.1328C100.484 33.4453 100.549 33.7031 100.633 33.9062V34H99.6406C99.5781 33.8125 99.5286 33.5781 99.4922 33.2969C99.4609 33.0104 99.4453 32.7396 99.4453 32.4844ZM99.6641 29.0781L99.6797 29.7969H97.8438C97.3646 29.7969 96.9349 29.8411 96.5547 29.9297C96.1797 30.013 95.862 30.138 95.6016 30.3047C95.3411 30.4661 95.1406 30.6615 95 30.8906C94.8646 31.1198 94.7969 31.3802 94.7969 31.6719C94.7969 31.974 94.8724 32.25 95.0234 32.5C95.1797 32.75 95.3984 32.9505 95.6797 33.1016C95.9661 33.2474 96.3047 33.3203 96.6953 33.3203C97.2161 33.3203 97.6745 33.224 98.0703 33.0312C98.4714 32.8385 98.8021 32.5859 99.0625 32.2734C99.3229 31.9609 99.4974 31.6198 99.5859 31.25L99.9922 31.7891C99.9245 32.0495 99.7995 32.3177 99.6172 32.5938C99.4401 32.8646 99.2083 33.1198 98.9219 33.3594C98.6354 33.5938 98.2969 33.7865 97.9062 33.9375C97.5208 34.0833 97.0833 34.1562 96.5938 34.1562C96.0417 34.1562 95.5599 34.0521 95.1484 33.8438C94.7422 33.6354 94.4245 33.3516 94.1953 32.9922C93.9714 32.6276 93.8594 32.2161 93.8594 31.7578C93.8594 31.3411 93.9479 30.9688 94.125 30.6406C94.3021 30.3073 94.5573 30.026 94.8906 29.7969C95.2292 29.5625 95.6354 29.3854 96.1094 29.2656C96.5885 29.1406 97.125 29.0781 97.7188 29.0781H99.6641ZM103.812 27.3516V34H102.883V25.5469H103.773L103.812 27.3516ZM103.602 29.25L103.188 29.0156C103.219 28.5156 103.32 28.0469 103.492 27.6094C103.664 27.1719 103.896 26.7865 104.188 26.4531C104.484 26.1198 104.831 25.8594 105.227 25.6719C105.628 25.4844 106.07 25.3906 106.555 25.3906C106.977 25.3906 107.354 25.4479 107.688 25.5625C108.021 25.6771 108.305 25.8594 108.539 26.1094C108.773 26.3594 108.951 26.6797 109.07 27.0703C109.195 27.4609 109.258 27.9375 109.258 28.5V34H108.32V28.4922C108.32 27.9089 108.24 27.4531 108.078 27.125C107.917 26.7917 107.688 26.5547 107.391 26.4141C107.094 26.2734 106.742 26.2031 106.336 26.2031C105.888 26.2031 105.495 26.3021 105.156 26.5C104.823 26.6927 104.542 26.9453 104.312 27.2578C104.089 27.5651 103.917 27.8958 103.797 28.25C103.677 28.599 103.612 28.9323 103.602 29.25ZM117.242 25.5469H118.109V33.8516C118.109 34.5859 117.969 35.2161 117.688 35.7422C117.411 36.2682 117.018 36.6719 116.508 36.9531C116.003 37.2344 115.406 37.375 114.719 37.375C114.37 37.375 114.01 37.3203 113.641 37.2109C113.276 37.1068 112.93 36.9453 112.602 36.7266C112.279 36.513 112.003 36.2474 111.773 35.9297L112.297 35.3594C112.641 35.776 113.008 36.0807 113.398 36.2734C113.789 36.4714 114.211 36.5703 114.664 36.5703C115.201 36.5703 115.654 36.4635 116.023 36.25C116.398 36.0365 116.682 35.7292 116.875 35.3281C117.073 34.9271 117.172 34.4453 117.172 33.8828V27.4062L117.242 25.5469ZM111.305 29.8594V29.6953C111.305 29.0391 111.378 28.4479 111.523 27.9219C111.674 27.3906 111.891 26.9375 112.172 26.5625C112.453 26.1823 112.794 25.8932 113.195 25.6953C113.602 25.4922 114.06 25.3906 114.57 25.3906C115.06 25.3906 115.495 25.4714 115.875 25.6328C116.255 25.7943 116.583 26.026 116.859 26.3281C117.135 26.6302 117.357 26.9896 117.523 27.4062C117.695 27.8229 117.82 28.2865 117.898 28.7969V30.8828C117.836 31.362 117.721 31.8021 117.555 32.2031C117.388 32.599 117.167 32.9453 116.891 33.2422C116.615 33.5339 116.281 33.7604 115.891 33.9219C115.505 34.0781 115.06 34.1562 114.555 34.1562C114.049 34.1562 113.596 34.0521 113.195 33.8438C112.794 33.6354 112.453 33.3411 112.172 32.9609C111.891 32.5755 111.674 32.1198 111.523 31.5938C111.378 31.0677 111.305 30.4896 111.305 29.8594ZM112.242 29.6953V29.8594C112.242 30.3542 112.292 30.8125 112.391 31.2344C112.49 31.6562 112.641 32.0234 112.844 32.3359C113.047 32.6484 113.305 32.8932 113.617 33.0703C113.93 33.2474 114.297 33.3359 114.719 33.3359C115.255 33.3359 115.706 33.2344 116.07 33.0312C116.435 32.8229 116.724 32.5495 116.938 32.2109C117.151 31.8672 117.307 31.4922 117.406 31.0859V28.6562C117.349 28.3802 117.26 28.099 117.141 27.8125C117.026 27.526 116.865 27.263 116.656 27.0234C116.453 26.7786 116.193 26.5833 115.875 26.4375C115.562 26.2865 115.182 26.2109 114.734 26.2109C114.307 26.2109 113.935 26.2995 113.617 26.4766C113.305 26.6536 113.047 26.901 112.844 27.2188C112.641 27.5312 112.49 27.8984 112.391 28.3203C112.292 28.7422 112.242 29.2005 112.242 29.6953ZM123.82 34.1562C123.268 34.1562 122.76 34.0547 122.297 33.8516C121.839 33.6484 121.438 33.362 121.094 32.9922C120.755 32.6224 120.492 32.1849 120.305 31.6797C120.122 31.1693 120.031 30.612 120.031 30.0078V29.6719C120.031 29.0208 120.128 28.4323 120.32 27.9062C120.513 27.3802 120.779 26.9297 121.117 26.5547C121.456 26.1797 121.841 25.8932 122.273 25.6953C122.711 25.4922 123.169 25.3906 123.648 25.3906C124.185 25.3906 124.661 25.487 125.078 25.6797C125.495 25.8672 125.844 26.1354 126.125 26.4844C126.411 26.8281 126.628 27.237 126.773 27.7109C126.919 28.1797 126.992 28.6979 126.992 29.2656V29.8359H120.594V29.0391H126.062V28.9297C126.052 28.4557 125.956 28.013 125.773 27.6016C125.596 27.1849 125.331 26.8464 124.977 26.5859C124.622 26.3255 124.18 26.1953 123.648 26.1953C123.253 26.1953 122.888 26.2786 122.555 26.4453C122.227 26.612 121.943 26.8516 121.703 27.1641C121.469 27.4714 121.286 27.8385 121.156 28.2656C121.031 28.6875 120.969 29.1562 120.969 29.6719V30.0078C120.969 30.4766 121.036 30.9141 121.172 31.3203C121.312 31.7214 121.51 32.0755 121.766 32.3828C122.026 32.6901 122.333 32.9297 122.688 33.1016C123.042 33.2734 123.432 33.3594 123.859 33.3594C124.359 33.3594 124.802 33.2682 125.188 33.0859C125.573 32.8984 125.919 32.6042 126.227 32.2031L126.812 32.6562C126.63 32.9271 126.401 33.1771 126.125 33.4062C125.854 33.6354 125.529 33.8177 125.148 33.9531C124.768 34.0885 124.326 34.1562 123.82 34.1562ZM132.617 29.5156V29.3984C132.617 28.3828 132.724 27.4323 132.938 26.5469C133.151 25.6615 133.43 24.8646 133.773 24.1562C134.122 23.4479 134.503 22.8464 134.914 22.3516C135.331 21.8516 135.74 21.4818 136.141 21.2422L136.367 21.8828C136.023 22.1276 135.682 22.4818 135.344 22.9453C135.01 23.4089 134.708 23.9661 134.438 24.6172C134.167 25.2682 133.951 25.9948 133.789 26.7969C133.628 27.599 133.547 28.4583 133.547 29.375V29.5312C133.547 30.4479 133.628 31.3073 133.789 32.1094C133.951 32.9115 134.167 33.638 134.438 34.2891C134.708 34.9453 135.01 35.5078 135.344 35.9766C135.682 36.4505 136.023 36.8151 136.367 37.0703L136.141 37.6719C135.74 37.4323 135.331 37.0677 134.914 36.5781C134.503 36.0938 134.122 35.5 133.773 34.7969C133.43 34.099 133.151 33.3047 132.938 32.4141C132.724 31.5234 132.617 30.5573 132.617 29.5156ZM144.82 33.1953V34H137.703V33.2734L141.43 29.0469C141.893 28.5208 142.263 28.0599 142.539 27.6641C142.815 27.263 143.013 26.8984 143.133 26.5703C143.258 26.237 143.32 25.9141 143.32 25.6016C143.32 25.1432 143.229 24.7396 143.047 24.3906C142.87 24.0417 142.604 23.7682 142.25 23.5703C141.896 23.3724 141.458 23.2734 140.938 23.2734C140.417 23.2734 139.964 23.3854 139.578 23.6094C139.193 23.8333 138.896 24.1458 138.688 24.5469C138.484 24.9427 138.383 25.3932 138.383 25.8984H137.453C137.453 25.2734 137.591 24.7005 137.867 24.1797C138.148 23.6589 138.549 23.2448 139.07 22.9375C139.591 22.625 140.214 22.4688 140.938 22.4688C141.625 22.4688 142.216 22.5911 142.711 22.8359C143.206 23.0755 143.586 23.4219 143.852 23.875C144.122 24.3281 144.258 24.875 144.258 25.5156C144.258 25.8594 144.195 26.2057 144.07 26.5547C143.951 26.9036 143.784 27.2526 143.57 27.6016C143.362 27.9453 143.122 28.2865 142.852 28.625C142.586 28.9635 142.307 29.2969 142.016 29.625L138.844 33.1953H144.82ZM153.43 27.3359V29.25C153.43 30.0833 153.352 30.8099 153.195 31.4297C153.039 32.0443 152.81 32.5547 152.508 32.9609C152.211 33.362 151.846 33.6615 151.414 33.8594C150.987 34.0573 150.497 34.1562 149.945 34.1562C149.508 34.1562 149.107 34.0938 148.742 33.9688C148.378 33.8438 148.052 33.6536 147.766 33.3984C147.484 33.138 147.245 32.8125 147.047 32.4219C146.849 32.0312 146.698 31.5729 146.594 31.0469C146.49 30.5156 146.438 29.9167 146.438 29.25V27.3359C146.438 26.4974 146.516 25.7734 146.672 25.1641C146.833 24.5547 147.062 24.0495 147.359 23.6484C147.661 23.2474 148.029 22.9505 148.461 22.7578C148.893 22.5599 149.383 22.4609 149.93 22.4609C150.367 22.4609 150.768 22.526 151.133 22.6562C151.503 22.7812 151.828 22.9688 152.109 23.2188C152.396 23.4688 152.635 23.7891 152.828 24.1797C153.026 24.5651 153.174 25.0208 153.273 25.5469C153.378 26.0729 153.43 26.6693 153.43 27.3359ZM152.5 29.3594V27.2188C152.5 26.7031 152.464 26.2344 152.391 25.8125C152.323 25.3906 152.221 25.0208 152.086 24.7031C151.951 24.3854 151.779 24.1198 151.57 23.9062C151.367 23.6927 151.128 23.5339 150.852 23.4297C150.581 23.3203 150.273 23.2656 149.93 23.2656C149.508 23.2656 149.135 23.3516 148.812 23.5234C148.495 23.6901 148.229 23.9401 148.016 24.2734C147.802 24.6016 147.641 25.013 147.531 25.5078C147.427 26.0026 147.375 26.5729 147.375 27.2188V29.3594C147.375 29.8698 147.409 30.3359 147.477 30.7578C147.544 31.1745 147.648 31.5443 147.789 31.8672C147.93 32.1901 148.102 32.4635 148.305 32.6875C148.513 32.9062 148.753 33.0729 149.023 33.1875C149.299 33.2969 149.607 33.3516 149.945 33.3516C150.378 33.3516 150.753 33.2656 151.07 33.0938C151.388 32.9167 151.654 32.6589 151.867 32.3203C152.081 31.9766 152.24 31.5573 152.344 31.0625C152.448 30.5625 152.5 29.9948 152.5 29.3594ZM155.516 33.4297C155.516 33.2474 155.573 33.0938 155.688 32.9688C155.807 32.8385 155.969 32.7734 156.172 32.7734C156.38 32.7734 156.544 32.8359 156.664 32.9609C156.784 33.0859 156.844 33.2422 156.844 33.4297C156.844 33.6068 156.784 33.7578 156.664 33.8828C156.544 34.0078 156.38 34.0703 156.172 34.0703C155.969 34.0703 155.807 34.0078 155.688 33.8828C155.573 33.7578 155.516 33.6068 155.516 33.4297ZM163.625 22.5781V34H162.695V23.7578L159.602 24.9062V24.0234L163.469 22.5781H163.625ZM169.523 28.375L168.789 28.1641L169.344 22.625H175.031V23.5H170.141L169.742 27.3281C169.94 27.1875 170.227 27.0495 170.602 26.9141C170.982 26.7734 171.409 26.7031 171.883 26.7031C172.388 26.7031 172.846 26.7891 173.258 26.9609C173.674 27.1276 174.031 27.3724 174.328 27.6953C174.625 28.013 174.854 28.3984 175.016 28.8516C175.177 29.2995 175.258 29.8073 175.258 30.375C175.258 30.9219 175.19 31.4245 175.055 31.8828C174.919 32.3411 174.714 32.7422 174.438 33.0859C174.161 33.4245 173.81 33.6875 173.383 33.875C172.956 34.0625 172.448 34.1562 171.859 34.1562C171.406 34.1562 170.979 34.0938 170.578 33.9688C170.182 33.8385 169.828 33.6432 169.516 33.3828C169.203 33.1224 168.948 32.7943 168.75 32.3984C168.557 32.0026 168.438 31.5391 168.391 31.0078H169.289C169.352 31.5182 169.49 31.9479 169.703 32.2969C169.917 32.6458 170.203 32.9089 170.562 33.0859C170.927 33.263 171.359 33.3516 171.859 33.3516C172.266 33.3516 172.62 33.2865 172.922 33.1562C173.229 33.026 173.484 32.8359 173.688 32.5859C173.896 32.3307 174.052 32.0208 174.156 31.6562C174.266 31.2865 174.32 30.8646 174.32 30.3906C174.32 29.9844 174.263 29.612 174.148 29.2734C174.034 28.9297 173.865 28.6302 173.641 28.375C173.422 28.1146 173.151 27.9141 172.828 27.7734C172.505 27.6328 172.135 27.5625 171.719 27.5625C171.177 27.5625 170.745 27.6354 170.422 27.7812C170.104 27.9271 169.805 28.125 169.523 28.375ZM176.812 25.4141V24.8125C176.812 24.3802 176.904 23.987 177.086 23.6328C177.268 23.2786 177.526 22.9948 177.859 22.7812C178.193 22.5677 178.583 22.4609 179.031 22.4609C179.49 22.4609 179.883 22.5677 180.211 22.7812C180.544 22.9948 180.802 23.2786 180.984 23.6328C181.167 23.987 181.258 24.3802 181.258 24.8125V25.4141C181.258 25.8359 181.167 26.224 180.984 26.5781C180.807 26.9323 180.552 27.2161 180.219 27.4297C179.891 27.6432 179.5 27.75 179.047 27.75C178.594 27.75 178.198 27.6432 177.859 27.4297C177.526 27.2161 177.268 26.9323 177.086 26.5781C176.904 26.224 176.812 25.8359 176.812 25.4141ZM177.562 24.8125V25.4141C177.562 25.6901 177.615 25.9557 177.719 26.2109C177.828 26.4609 177.992 26.6667 178.211 26.8281C178.435 26.9896 178.714 27.0703 179.047 27.0703C179.38 27.0703 179.654 26.9922 179.867 26.8359C180.081 26.6745 180.24 26.4688 180.344 26.2188C180.453 25.9635 180.508 25.6953 180.508 25.4141V24.8125C180.508 24.526 180.453 24.2578 180.344 24.0078C180.24 23.7526 180.078 23.5443 179.859 23.3828C179.641 23.2214 179.365 23.1406 179.031 23.1406C178.708 23.1406 178.438 23.2214 178.219 23.3828C178 23.5443 177.836 23.7526 177.727 24.0078C177.617 24.2578 177.562 24.526 177.562 24.8125ZM182.531 31.8203V31.2109C182.531 30.7839 182.622 30.3932 182.805 30.0391C182.987 29.6849 183.245 29.401 183.578 29.1875C183.911 28.974 184.305 28.8672 184.758 28.8672C185.216 28.8672 185.609 28.974 185.938 29.1875C186.271 29.401 186.529 29.6849 186.711 30.0391C186.893 30.3932 186.984 30.7839 186.984 31.2109V31.8203C186.984 32.2474 186.893 32.638 186.711 32.9922C186.534 33.3464 186.279 33.6302 185.945 33.8438C185.617 34.0573 185.227 34.1641 184.773 34.1641C184.315 34.1641 183.919 34.0573 183.586 33.8438C183.253 33.6302 182.992 33.3464 182.805 32.9922C182.622 32.638 182.531 32.2474 182.531 31.8203ZM183.289 31.2109V31.8203C183.289 32.1016 183.341 32.3698 183.445 32.625C183.555 32.875 183.719 33.0807 183.938 33.2422C184.161 33.4036 184.44 33.4844 184.773 33.4844C185.102 33.4844 185.372 33.4062 185.586 33.25C185.805 33.0885 185.966 32.8802 186.07 32.625C186.18 32.3698 186.234 32.1016 186.234 31.8203V31.2109C186.234 30.9141 186.18 30.6406 186.07 30.3906C185.966 30.1354 185.805 29.9323 185.586 29.7812C185.367 29.625 185.091 29.5469 184.758 29.5469C184.435 29.5469 184.161 29.625 183.938 29.7812C183.719 29.9323 183.555 30.1354 183.445 30.3906C183.341 30.6406 183.289 30.9141 183.289 31.2109ZM184.898 24.1641L179.344 33.0547L178.766 32.6797L184.32 23.7891L184.898 24.1641ZM191.797 29.3984V29.5156C191.797 30.5573 191.69 31.5234 191.477 32.4141C191.263 33.3047 190.982 34.099 190.633 34.7969C190.284 35.5 189.904 36.0938 189.492 36.5781C189.081 37.0677 188.672 37.4323 188.266 37.6719L188.039 37.0703C188.388 36.8255 188.729 36.4688 189.062 36C189.396 35.5312 189.698 34.9661 189.969 34.3047C190.245 33.6484 190.464 32.9193 190.625 32.1172C190.786 31.3099 190.867 30.4479 190.867 29.5312V29.375C190.867 28.4583 190.784 27.599 190.617 26.7969C190.451 25.9896 190.229 25.2578 189.953 24.6016C189.677 23.9453 189.372 23.3828 189.039 22.9141C188.706 22.4453 188.372 22.0911 188.039 21.8516L188.266 21.2422C188.672 21.4818 189.081 21.8516 189.492 22.3516C189.904 22.8464 190.284 23.4479 190.633 24.1562C190.982 24.8646 191.263 25.6615 191.477 26.5469C191.69 27.4323 191.797 28.3828 191.797 29.3984Z" fill="#50505A"/>
<path d="M0.5 46H194L208 60" stroke="#D0C018" stroke-linecap="round" stroke-linejoin="round"/>
<path d="M400.258 177.625V189H399.305V177.625H400.258ZM404.156 177.625V178.453H395.414V177.625H404.156ZM406.125 181.945V189H405.195V180.547H406.102L406.125 181.945ZM409.117 180.484L409.094 181.344C408.99 181.328 408.888 181.315 408.789 181.305C408.69 181.294 408.583 181.289 408.469 181.289C408.062 181.289 407.706 181.365 407.398 181.516C407.096 181.661 406.841 181.867 406.633 182.133C406.424 182.393 406.266 182.701 406.156 183.055C406.047 183.404 405.984 183.779 405.969 184.18L405.625 184.312C405.625 183.76 405.682 183.247 405.797 182.773C405.911 182.299 406.086 181.885 406.32 181.531C406.56 181.172 406.859 180.893 407.219 180.695C407.583 180.492 408.01 180.391 408.5 180.391C408.62 180.391 408.737 180.401 408.852 180.422C408.971 180.438 409.06 180.458 409.117 180.484ZM415.414 187.484V183.125C415.414 182.724 415.331 182.378 415.164 182.086C414.997 181.794 414.753 181.57 414.43 181.414C414.107 181.258 413.708 181.18 413.234 181.18C412.797 181.18 412.406 181.258 412.062 181.414C411.724 181.565 411.456 181.771 411.258 182.031C411.065 182.286 410.969 182.57 410.969 182.883L410.031 182.875C410.031 182.557 410.109 182.25 410.266 181.953C410.422 181.656 410.643 181.391 410.93 181.156C411.216 180.922 411.557 180.737 411.953 180.602C412.354 180.461 412.794 180.391 413.273 180.391C413.878 180.391 414.409 180.492 414.867 180.695C415.331 180.898 415.693 181.203 415.953 181.609C416.214 182.016 416.344 182.526 416.344 183.141V187.227C416.344 187.518 416.365 187.82 416.406 188.133C416.453 188.445 416.518 188.703 416.602 188.906V189H415.609C415.547 188.812 415.497 188.578 415.461 188.297C415.43 188.01 415.414 187.74 415.414 187.484ZM415.633 184.078L415.648 184.797H413.812C413.333 184.797 412.904 184.841 412.523 184.93C412.148 185.013 411.831 185.138 411.57 185.305C411.31 185.466 411.109 185.661 410.969 185.891C410.833 186.12 410.766 186.38 410.766 186.672C410.766 186.974 410.841 187.25 410.992 187.5C411.148 187.75 411.367 187.951 411.648 188.102C411.935 188.247 412.273 188.32 412.664 188.32C413.185 188.32 413.643 188.224 414.039 188.031C414.44 187.839 414.771 187.586 415.031 187.273C415.292 186.961 415.466 186.62 415.555 186.25L415.961 186.789C415.893 187.049 415.768 187.318 415.586 187.594C415.409 187.865 415.177 188.12 414.891 188.359C414.604 188.594 414.266 188.786 413.875 188.938C413.49 189.083 413.052 189.156 412.562 189.156C412.01 189.156 411.529 189.052 411.117 188.844C410.711 188.635 410.393 188.352 410.164 187.992C409.94 187.628 409.828 187.216 409.828 186.758C409.828 186.341 409.917 185.969 410.094 185.641C410.271 185.307 410.526 185.026 410.859 184.797C411.198 184.562 411.604 184.385 412.078 184.266C412.557 184.141 413.094 184.078 413.688 184.078H415.633ZM419.781 182.352V189H418.852V180.547H419.742L419.781 182.352ZM419.57 184.25L419.156 184.016C419.188 183.516 419.289 183.047 419.461 182.609C419.633 182.172 419.865 181.786 420.156 181.453C420.453 181.12 420.799 180.859 421.195 180.672C421.596 180.484 422.039 180.391 422.523 180.391C422.945 180.391 423.323 180.448 423.656 180.562C423.99 180.677 424.273 180.859 424.508 181.109C424.742 181.359 424.919 181.68 425.039 182.07C425.164 182.461 425.227 182.938 425.227 183.5V189H424.289V183.492C424.289 182.909 424.208 182.453 424.047 182.125C423.885 181.792 423.656 181.555 423.359 181.414C423.062 181.273 422.711 181.203 422.305 181.203C421.857 181.203 421.464 181.302 421.125 181.5C420.792 181.693 420.51 181.945 420.281 182.258C420.057 182.565 419.885 182.896 419.766 183.25C419.646 183.599 419.581 183.932 419.57 184.25ZM432.711 186.844C432.711 186.615 432.654 186.388 432.539 186.164C432.424 185.94 432.203 185.734 431.875 185.547C431.552 185.359 431.076 185.201 430.445 185.07C429.977 184.966 429.557 184.849 429.188 184.719C428.823 184.589 428.516 184.432 428.266 184.25C428.016 184.068 427.826 183.849 427.695 183.594C427.565 183.339 427.5 183.036 427.5 182.688C427.5 182.375 427.568 182.081 427.703 181.805C427.844 181.523 428.042 181.279 428.297 181.07C428.557 180.857 428.87 180.69 429.234 180.57C429.604 180.451 430.018 180.391 430.477 180.391C431.128 180.391 431.685 180.503 432.148 180.727C432.617 180.945 432.974 181.245 433.219 181.625C433.469 182.005 433.594 182.435 433.594 182.914H432.664C432.664 182.622 432.578 182.346 432.406 182.086C432.24 181.826 431.992 181.612 431.664 181.445C431.341 181.279 430.945 181.195 430.477 181.195C429.992 181.195 429.599 181.268 429.297 181.414C428.995 181.56 428.773 181.745 428.633 181.969C428.497 182.193 428.43 182.424 428.43 182.664C428.43 182.852 428.458 183.023 428.516 183.18C428.578 183.331 428.688 183.471 428.844 183.602C429.005 183.732 429.234 183.854 429.531 183.969C429.828 184.083 430.214 184.195 430.688 184.305C431.37 184.456 431.927 184.641 432.359 184.859C432.797 185.073 433.12 185.339 433.328 185.656C433.536 185.969 433.641 186.349 433.641 186.797C433.641 187.146 433.568 187.466 433.422 187.758C433.276 188.044 433.065 188.292 432.789 188.5C432.518 188.708 432.19 188.87 431.805 188.984C431.424 189.099 430.997 189.156 430.523 189.156C429.81 189.156 429.206 189.039 428.711 188.805C428.221 188.565 427.849 188.253 427.594 187.867C427.344 187.477 427.219 187.062 427.219 186.625H428.148C428.18 187.062 428.318 187.409 428.562 187.664C428.807 187.914 429.107 188.091 429.461 188.195C429.82 188.299 430.174 188.352 430.523 188.352C431.003 188.352 431.404 188.281 431.727 188.141C432.049 188 432.294 187.815 432.461 187.586C432.628 187.357 432.711 187.109 432.711 186.844ZM437.359 189H436.43V179.5C436.43 178.922 436.529 178.435 436.727 178.039C436.93 177.643 437.216 177.344 437.586 177.141C437.961 176.938 438.406 176.836 438.922 176.836C439.083 176.836 439.25 176.846 439.422 176.867C439.594 176.883 439.76 176.917 439.922 176.969L439.852 177.758C439.721 177.721 439.589 177.698 439.453 177.688C439.323 177.672 439.169 177.664 438.992 177.664C438.654 177.664 438.362 177.737 438.117 177.883C437.872 178.023 437.685 178.229 437.555 178.5C437.424 178.771 437.359 179.104 437.359 179.5V189ZM439.375 180.547V181.312H435.031V180.547H439.375ZM444.133 189.156C443.581 189.156 443.073 189.055 442.609 188.852C442.151 188.648 441.75 188.362 441.406 187.992C441.068 187.622 440.805 187.185 440.617 186.68C440.435 186.169 440.344 185.612 440.344 185.008V184.672C440.344 184.021 440.44 183.432 440.633 182.906C440.826 182.38 441.091 181.93 441.43 181.555C441.768 181.18 442.154 180.893 442.586 180.695C443.023 180.492 443.482 180.391 443.961 180.391C444.497 180.391 444.974 180.487 445.391 180.68C445.807 180.867 446.156 181.135 446.438 181.484C446.724 181.828 446.94 182.237 447.086 182.711C447.232 183.18 447.305 183.698 447.305 184.266V184.836H440.906V184.039H446.375V183.93C446.365 183.456 446.268 183.013 446.086 182.602C445.909 182.185 445.643 181.846 445.289 181.586C444.935 181.326 444.492 181.195 443.961 181.195C443.565 181.195 443.201 181.279 442.867 181.445C442.539 181.612 442.255 181.852 442.016 182.164C441.781 182.471 441.599 182.839 441.469 183.266C441.344 183.688 441.281 184.156 441.281 184.672V185.008C441.281 185.477 441.349 185.914 441.484 186.32C441.625 186.721 441.823 187.076 442.078 187.383C442.339 187.69 442.646 187.93 443 188.102C443.354 188.273 443.745 188.359 444.172 188.359C444.672 188.359 445.115 188.268 445.5 188.086C445.885 187.898 446.232 187.604 446.539 187.203L447.125 187.656C446.943 187.927 446.714 188.177 446.438 188.406C446.167 188.635 445.841 188.818 445.461 188.953C445.081 189.089 444.638 189.156 444.133 189.156ZM450.078 181.945V189H449.148V180.547H450.055L450.078 181.945ZM453.07 180.484L453.047 181.344C452.943 181.328 452.841 181.315 452.742 181.305C452.643 181.294 452.536 181.289 452.422 181.289C452.016 181.289 451.659 181.365 451.352 181.516C451.049 181.661 450.794 181.867 450.586 182.133C450.378 182.393 450.219 182.701 450.109 183.055C450 183.404 449.938 183.779 449.922 184.18L449.578 184.312C449.578 183.76 449.635 183.247 449.75 182.773C449.865 182.299 450.039 181.885 450.273 181.531C450.513 181.172 450.812 180.893 451.172 180.695C451.536 180.492 451.964 180.391 452.453 180.391C452.573 180.391 452.69 180.401 452.805 180.422C452.924 180.438 453.013 180.458 453.07 180.484ZM458.32 184.516V184.398C458.32 183.383 458.427 182.432 458.641 181.547C458.854 180.661 459.133 179.865 459.477 179.156C459.826 178.448 460.206 177.846 460.617 177.352C461.034 176.852 461.443 176.482 461.844 176.242L462.07 176.883C461.727 177.128 461.385 177.482 461.047 177.945C460.714 178.409 460.411 178.966 460.141 179.617C459.87 180.268 459.654 180.995 459.492 181.797C459.331 182.599 459.25 183.458 459.25 184.375V184.531C459.25 185.448 459.331 186.307 459.492 187.109C459.654 187.911 459.87 188.638 460.141 189.289C460.411 189.945 460.714 190.508 461.047 190.977C461.385 191.451 461.727 191.815 462.07 192.07L461.844 192.672C461.443 192.432 461.034 192.068 460.617 191.578C460.206 191.094 459.826 190.5 459.477 189.797C459.133 189.099 458.854 188.305 458.641 187.414C458.427 186.523 458.32 185.557 458.32 184.516ZM470.406 177.625V178.164L465.547 189H464.578L469.406 178.43H462.93V177.625H470.406ZM473.562 188.266H473.766C474.594 188.266 475.286 188.146 475.844 187.906C476.401 187.661 476.846 187.326 477.18 186.898C477.518 186.466 477.76 185.961 477.906 185.383C478.052 184.805 478.125 184.177 478.125 183.5V181.914C478.125 181.315 478.06 180.789 477.93 180.336C477.799 179.883 477.615 179.505 477.375 179.203C477.135 178.896 476.852 178.664 476.523 178.508C476.201 178.352 475.841 178.273 475.445 178.273C475.055 178.273 474.701 178.357 474.383 178.523C474.07 178.69 473.805 178.922 473.586 179.219C473.372 179.51 473.206 179.846 473.086 180.227C472.971 180.602 472.914 181 472.914 181.422C472.914 181.807 472.966 182.182 473.07 182.547C473.18 182.906 473.339 183.232 473.547 183.523C473.755 183.81 474.01 184.039 474.312 184.211C474.62 184.378 474.974 184.461 475.375 184.461C475.828 184.461 476.229 184.375 476.578 184.203C476.932 184.031 477.232 183.81 477.477 183.539C477.727 183.263 477.917 182.966 478.047 182.648C478.182 182.326 478.255 182.013 478.266 181.711L478.734 181.703C478.734 182.177 478.646 182.63 478.469 183.062C478.297 183.49 478.052 183.87 477.734 184.203C477.422 184.531 477.055 184.792 476.633 184.984C476.211 185.177 475.755 185.273 475.266 185.273C474.734 185.273 474.263 185.169 473.852 184.961C473.445 184.747 473.104 184.461 472.828 184.102C472.557 183.737 472.352 183.328 472.211 182.875C472.07 182.422 472 181.951 472 181.461C472 180.914 472.076 180.401 472.227 179.922C472.383 179.438 472.609 179.013 472.906 178.648C473.203 178.279 473.562 177.99 473.984 177.781C474.411 177.573 474.893 177.469 475.43 177.469C476.039 177.469 476.57 177.581 477.023 177.805C477.477 178.023 477.852 178.336 478.148 178.742C478.451 179.148 478.674 179.628 478.82 180.18C478.971 180.732 479.047 181.341 479.047 182.008V182.906C479.047 183.578 478.995 184.221 478.891 184.836C478.786 185.451 478.612 186.018 478.367 186.539C478.128 187.055 477.805 187.503 477.398 187.883C476.992 188.263 476.49 188.56 475.891 188.773C475.292 188.982 474.583 189.086 473.766 189.086H473.555L473.562 188.266ZM481.219 188.43C481.219 188.247 481.276 188.094 481.391 187.969C481.51 187.839 481.672 187.773 481.875 187.773C482.083 187.773 482.247 187.836 482.367 187.961C482.487 188.086 482.547 188.242 482.547 188.43C482.547 188.607 482.487 188.758 482.367 188.883C482.247 189.008 482.083 189.07 481.875 189.07C481.672 189.07 481.51 189.008 481.391 188.883C481.276 188.758 481.219 188.607 481.219 188.43ZM491.977 185.984C491.977 186.672 491.815 187.253 491.492 187.727C491.174 188.201 490.742 188.557 490.195 188.797C489.648 189.036 489.036 189.156 488.359 189.156C487.677 189.156 487.062 189.036 486.516 188.797C485.969 188.557 485.534 188.201 485.211 187.727C484.893 187.253 484.734 186.672 484.734 185.984C484.734 185.531 484.823 185.12 485 184.75C485.182 184.375 485.435 184.052 485.758 183.781C486.086 183.505 486.469 183.292 486.906 183.141C487.344 182.99 487.823 182.914 488.344 182.914C489.031 182.914 489.648 183.047 490.195 183.312C490.742 183.573 491.174 183.932 491.492 184.391C491.815 184.849 491.977 185.38 491.977 185.984ZM491.039 185.984C491.039 185.5 490.922 185.076 490.688 184.711C490.453 184.346 490.133 184.065 489.727 183.867C489.32 183.664 488.859 183.562 488.344 183.562C487.823 183.562 487.362 183.664 486.961 183.867C486.56 184.065 486.245 184.346 486.016 184.711C485.786 185.076 485.672 185.5 485.672 185.984C485.672 186.49 485.784 186.919 486.008 187.273C486.237 187.628 486.555 187.896 486.961 188.078C487.367 188.26 487.833 188.352 488.359 188.352C488.885 188.352 489.349 188.26 489.75 188.078C490.151 187.896 490.466 187.628 490.695 187.273C490.924 186.919 491.039 186.49 491.039 185.984ZM491.68 180.547C491.68 181.104 491.531 181.602 491.234 182.039C490.943 182.471 490.547 182.812 490.047 183.062C489.547 183.307 488.982 183.43 488.352 183.43C487.716 183.43 487.146 183.307 486.641 183.062C486.141 182.812 485.745 182.471 485.453 182.039C485.167 181.602 485.023 181.104 485.023 180.547C485.023 179.885 485.167 179.328 485.453 178.875C485.745 178.417 486.141 178.068 486.641 177.828C487.141 177.589 487.708 177.469 488.344 177.469C488.974 177.469 489.539 177.589 490.039 177.828C490.544 178.068 490.943 178.417 491.234 178.875C491.531 179.328 491.68 179.885 491.68 180.547ZM490.75 180.539C490.75 180.096 490.643 179.706 490.43 179.367C490.221 179.029 489.935 178.763 489.57 178.57C489.211 178.372 488.802 178.273 488.344 178.273C487.88 178.273 487.469 178.365 487.109 178.547C486.755 178.729 486.474 178.99 486.266 179.328C486.062 179.667 485.961 180.07 485.961 180.539C485.961 180.997 486.062 181.393 486.266 181.727C486.474 182.055 486.758 182.31 487.117 182.492C487.477 182.674 487.888 182.766 488.352 182.766C488.815 182.766 489.227 182.674 489.586 182.492C489.945 182.31 490.229 182.055 490.438 181.727C490.646 181.393 490.75 180.997 490.75 180.539ZM495.227 183.375L494.492 183.164L495.047 177.625H500.734V178.5H495.844L495.445 182.328C495.643 182.188 495.93 182.049 496.305 181.914C496.685 181.773 497.112 181.703 497.586 181.703C498.091 181.703 498.549 181.789 498.961 181.961C499.378 182.128 499.734 182.372 500.031 182.695C500.328 183.013 500.557 183.398 500.719 183.852C500.88 184.299 500.961 184.807 500.961 185.375C500.961 185.922 500.893 186.424 500.758 186.883C500.622 187.341 500.417 187.742 500.141 188.086C499.865 188.424 499.513 188.688 499.086 188.875C498.659 189.062 498.151 189.156 497.562 189.156C497.109 189.156 496.682 189.094 496.281 188.969C495.885 188.839 495.531 188.643 495.219 188.383C494.906 188.122 494.651 187.794 494.453 187.398C494.26 187.003 494.141 186.539 494.094 186.008H494.992C495.055 186.518 495.193 186.948 495.406 187.297C495.62 187.646 495.906 187.909 496.266 188.086C496.63 188.263 497.062 188.352 497.562 188.352C497.969 188.352 498.323 188.286 498.625 188.156C498.932 188.026 499.188 187.836 499.391 187.586C499.599 187.331 499.755 187.021 499.859 186.656C499.969 186.286 500.023 185.865 500.023 185.391C500.023 184.984 499.966 184.612 499.852 184.273C499.737 183.93 499.568 183.63 499.344 183.375C499.125 183.115 498.854 182.914 498.531 182.773C498.208 182.633 497.839 182.562 497.422 182.562C496.88 182.562 496.448 182.635 496.125 182.781C495.807 182.927 495.508 183.125 495.227 183.375ZM502.516 180.414V179.812C502.516 179.38 502.607 178.987 502.789 178.633C502.971 178.279 503.229 177.995 503.562 177.781C503.896 177.568 504.286 177.461 504.734 177.461C505.193 177.461 505.586 177.568 505.914 177.781C506.247 177.995 506.505 178.279 506.688 178.633C506.87 178.987 506.961 179.38 506.961 179.812V180.414C506.961 180.836 506.87 181.224 506.688 181.578C506.51 181.932 506.255 182.216 505.922 182.43C505.594 182.643 505.203 182.75 504.75 182.75C504.297 182.75 503.901 182.643 503.562 182.43C503.229 182.216 502.971 181.932 502.789 181.578C502.607 181.224 502.516 180.836 502.516 180.414ZM503.266 179.812V180.414C503.266 180.69 503.318 180.956 503.422 181.211C503.531 181.461 503.695 181.667 503.914 181.828C504.138 181.99 504.417 182.07 504.75 182.07C505.083 182.07 505.357 181.992 505.57 181.836C505.784 181.674 505.943 181.469 506.047 181.219C506.156 180.964 506.211 180.695 506.211 180.414V179.812C506.211 179.526 506.156 179.258 506.047 179.008C505.943 178.753 505.781 178.544 505.562 178.383C505.344 178.221 505.068 178.141 504.734 178.141C504.411 178.141 504.141 178.221 503.922 178.383C503.703 178.544 503.539 178.753 503.43 179.008C503.32 179.258 503.266 179.526 503.266 179.812ZM508.234 186.82V186.211C508.234 185.784 508.326 185.393 508.508 185.039C508.69 184.685 508.948 184.401 509.281 184.188C509.615 183.974 510.008 183.867 510.461 183.867C510.919 183.867 511.312 183.974 511.641 184.188C511.974 184.401 512.232 184.685 512.414 185.039C512.596 185.393 512.688 185.784 512.688 186.211V186.82C512.688 187.247 512.596 187.638 512.414 187.992C512.237 188.346 511.982 188.63 511.648 188.844C511.32 189.057 510.93 189.164 510.477 189.164C510.018 189.164 509.622 189.057 509.289 188.844C508.956 188.63 508.695 188.346 508.508 187.992C508.326 187.638 508.234 187.247 508.234 186.82ZM508.992 186.211V186.82C508.992 187.102 509.044 187.37 509.148 187.625C509.258 187.875 509.422 188.081 509.641 188.242C509.865 188.404 510.143 188.484 510.477 188.484C510.805 188.484 511.076 188.406 511.289 188.25C511.508 188.089 511.669 187.88 511.773 187.625C511.883 187.37 511.938 187.102 511.938 186.82V186.211C511.938 185.914 511.883 185.641 511.773 185.391C511.669 185.135 511.508 184.932 511.289 184.781C511.07 184.625 510.794 184.547 510.461 184.547C510.138 184.547 509.865 184.625 509.641 184.781C509.422 184.932 509.258 185.135 509.148 185.391C509.044 185.641 508.992 185.914 508.992 186.211ZM510.602 179.164L505.047 188.055L504.469 187.68L510.023 178.789L510.602 179.164ZM517.5 184.398V184.516C517.5 185.557 517.393 186.523 517.18 187.414C516.966 188.305 516.685 189.099 516.336 189.797C515.987 190.5 515.607 191.094 515.195 191.578C514.784 192.068 514.375 192.432 513.969 192.672L513.742 192.07C514.091 191.826 514.432 191.469 514.766 191C515.099 190.531 515.401 189.966 515.672 189.305C515.948 188.648 516.167 187.919 516.328 187.117C516.49 186.31 516.57 185.448 516.57 184.531V184.375C516.57 183.458 516.487 182.599 516.32 181.797C516.154 180.99 515.932 180.258 515.656 179.602C515.38 178.945 515.076 178.383 514.742 177.914C514.409 177.445 514.076 177.091 513.742 176.852L513.969 176.242C514.375 176.482 514.784 176.852 515.195 177.352C515.607 177.846 515.987 178.448 516.336 179.156C516.685 179.865 516.966 180.661 517.18 181.547C517.393 182.432 517.5 183.383 517.5 184.398ZM401.266 196.602V208H399.016V199.195L396.312 200.055V198.281L401.023 196.602H401.266ZM412.625 201.312V203.281C412.625 204.135 412.534 204.872 412.352 205.492C412.169 206.107 411.906 206.612 411.562 207.008C411.224 207.398 410.82 207.688 410.352 207.875C409.883 208.062 409.362 208.156 408.789 208.156C408.331 208.156 407.904 208.099 407.508 207.984C407.112 207.865 406.755 207.68 406.438 207.43C406.125 207.18 405.854 206.865 405.625 206.484C405.401 206.099 405.229 205.641 405.109 205.109C404.99 204.578 404.93 203.969 404.93 203.281V201.312C404.93 200.458 405.021 199.727 405.203 199.117C405.391 198.503 405.654 198 405.992 197.609C406.336 197.219 406.742 196.932 407.211 196.75C407.68 196.562 408.201 196.469 408.773 196.469C409.232 196.469 409.656 196.529 410.047 196.648C410.443 196.763 410.799 196.943 411.117 197.188C411.435 197.432 411.706 197.747 411.93 198.133C412.154 198.513 412.326 198.969 412.445 199.5C412.565 200.026 412.625 200.63 412.625 201.312ZM410.367 203.578V201.008C410.367 200.596 410.344 200.237 410.297 199.93C410.255 199.622 410.19 199.362 410.102 199.148C410.013 198.93 409.904 198.753 409.773 198.617C409.643 198.482 409.495 198.383 409.328 198.32C409.161 198.258 408.977 198.227 408.773 198.227C408.518 198.227 408.292 198.276 408.094 198.375C407.901 198.474 407.737 198.633 407.602 198.852C407.466 199.065 407.362 199.352 407.289 199.711C407.221 200.065 407.188 200.497 407.188 201.008V203.578C407.188 203.99 407.208 204.352 407.25 204.664C407.297 204.977 407.365 205.245 407.453 205.469C407.547 205.688 407.656 205.867 407.781 206.008C407.911 206.143 408.06 206.242 408.227 206.305C408.398 206.367 408.586 206.398 408.789 206.398C409.039 206.398 409.26 206.349 409.453 206.25C409.651 206.146 409.818 205.984 409.953 205.766C410.094 205.542 410.198 205.25 410.266 204.891C410.333 204.531 410.367 204.094 410.367 203.578ZM421.883 196.625V197.836L417.484 208H415.109L419.508 198.383H413.844V196.625H421.883Z" fill="#50505A"/>
<path d="M587.5 166H394L380 152" stroke="#4E617D" stroke-linecap="round" stroke-linejoin="round"/>
</svg>
