<svg width="330" height="250" viewBox="0 0 330 250" fill="none" xmlns="http://www.w3.org/2000/svg">
<rect x="42" y="232" width="129" height="16" rx="1" fill="#A6AFBD"/>
<path d="M12.8047 242.203C12.8047 241.891 12.7526 241.612 12.6484 241.367C12.5443 241.122 12.3724 240.904 12.1328 240.711C11.8984 240.513 11.5807 240.331 11.1797 240.164C10.7839 239.992 10.2891 239.823 9.69531 239.656C9.1276 239.495 8.61458 239.318 8.15625 239.125C7.69792 238.932 7.30469 238.711 6.97656 238.461C6.65365 238.211 6.40625 237.919 6.23438 237.586C6.0625 237.247 5.97656 236.854 5.97656 236.406C5.97656 235.969 6.07031 235.57 6.25781 235.211C6.44531 234.852 6.70833 234.542 7.04688 234.281C7.39062 234.021 7.79427 233.82 8.25781 233.68C8.72656 233.539 9.23958 233.469 9.79688 233.469C10.5938 233.469 11.2812 233.62 11.8594 233.922C12.4427 234.224 12.8932 234.633 13.2109 235.148C13.5339 235.659 13.6953 236.232 13.6953 236.867H12.7344C12.7344 236.372 12.6172 235.932 12.3828 235.547C12.1536 235.156 11.8203 234.852 11.3828 234.633C10.9505 234.409 10.4219 234.297 9.79688 234.297C9.17188 234.297 8.64583 234.393 8.21875 234.586C7.79688 234.773 7.47656 235.026 7.25781 235.344C7.04427 235.656 6.9375 236.005 6.9375 236.391C6.9375 236.661 6.98958 236.911 7.09375 237.141C7.19792 237.365 7.36719 237.576 7.60156 237.773C7.84115 237.966 8.15625 238.148 8.54688 238.32C8.9375 238.487 9.41927 238.646 9.99219 238.797C10.5964 238.964 11.1328 239.148 11.6016 239.352C12.0703 239.555 12.4661 239.789 12.7891 240.055C13.112 240.315 13.3568 240.62 13.5234 240.969C13.6901 241.318 13.7734 241.724 13.7734 242.188C13.7734 242.651 13.6745 243.068 13.4766 243.438C13.2839 243.802 13.0104 244.112 12.6562 244.367C12.3073 244.622 11.8932 244.818 11.4141 244.953C10.9401 245.089 10.4219 245.156 9.85938 245.156C9.35417 245.156 8.85156 245.091 8.35156 244.961C7.85156 244.831 7.39323 244.63 6.97656 244.359C6.5651 244.083 6.23438 243.729 5.98438 243.297C5.73958 242.865 5.61719 242.349 5.61719 241.75H6.57031C6.57031 242.229 6.66667 242.633 6.85938 242.961C7.05208 243.289 7.30729 243.555 7.625 243.758C7.94792 243.961 8.30208 244.109 8.6875 244.203C9.07812 244.292 9.46875 244.336 9.85938 244.336C10.4583 244.336 10.9766 244.247 11.4141 244.07C11.8568 243.893 12.1979 243.646 12.4375 243.328C12.6823 243.005 12.8047 242.63 12.8047 242.203ZM21.0469 243.047V236.547H21.9844V245H21.0859L21.0469 243.047ZM21.2188 241.484L21.7031 241.469C21.7031 242 21.6406 242.49 21.5156 242.938C21.3906 243.385 21.1953 243.776 20.9297 244.109C20.6641 244.443 20.3203 244.701 19.8984 244.883C19.4766 245.065 18.9688 245.156 18.375 245.156C17.9635 245.156 17.5859 245.099 17.2422 244.984C16.9036 244.865 16.612 244.677 16.3672 244.422C16.1224 244.167 15.9323 243.836 15.7969 243.43C15.6667 243.023 15.6016 242.531 15.6016 241.953V236.547H16.5312V241.969C16.5312 242.422 16.5807 242.799 16.6797 243.102C16.7839 243.404 16.9245 243.646 17.1016 243.828C17.2839 244.01 17.4922 244.141 17.7266 244.219C17.9609 244.297 18.2135 244.336 18.4844 244.336C19.1719 244.336 19.7135 244.203 20.1094 243.938C20.5104 243.672 20.7943 243.323 20.9609 242.891C21.1328 242.453 21.2188 241.984 21.2188 241.484ZM25.3594 238.352V245H24.4297V236.547H25.3203L25.3594 238.352ZM25.1484 240.25L24.7344 240.016C24.7656 239.516 24.8672 239.047 25.0391 238.609C25.2109 238.172 25.4427 237.786 25.7344 237.453C26.0312 237.12 26.3776 236.859 26.7734 236.672C27.1745 236.484 27.6172 236.391 28.1016 236.391C28.5234 236.391 28.901 236.448 29.2344 236.562C29.5677 236.677 29.8516 236.859 30.0859 237.109C30.3203 237.359 30.4974 237.68 30.6172 238.07C30.7422 238.461 30.8047 238.938 30.8047 239.5V245H29.8672V239.492C29.8672 238.909 29.7865 238.453 29.625 238.125C29.4635 237.792 29.2344 237.555 28.9375 237.414C28.6406 237.273 28.2891 237.203 27.8828 237.203C27.4349 237.203 27.0417 237.302 26.7031 237.5C26.3698 237.693 26.0885 237.945 25.8594 238.258C25.6354 238.565 25.4635 238.896 25.3438 239.25C25.224 239.599 25.1589 239.932 25.1484 240.25Z" fill="#50505A"/>
<path d="M186.695 233.562V245H185.25V235.367L182.336 236.43V235.125L186.469 233.562H186.695ZM198.398 243.812V245H190.953V243.961L194.68 239.812C195.138 239.302 195.492 238.87 195.742 238.516C195.997 238.156 196.174 237.836 196.273 237.555C196.378 237.268 196.43 236.977 196.43 236.68C196.43 236.305 196.352 235.966 196.195 235.664C196.044 235.357 195.82 235.112 195.523 234.93C195.227 234.747 194.867 234.656 194.445 234.656C193.94 234.656 193.518 234.755 193.18 234.953C192.846 235.146 192.596 235.417 192.43 235.766C192.263 236.115 192.18 236.516 192.18 236.969H190.734C190.734 236.328 190.875 235.742 191.156 235.211C191.438 234.68 191.854 234.258 192.406 233.945C192.958 233.628 193.638 233.469 194.445 233.469C195.164 233.469 195.779 233.596 196.289 233.852C196.799 234.102 197.19 234.456 197.461 234.914C197.737 235.367 197.875 235.898 197.875 236.508C197.875 236.841 197.818 237.18 197.703 237.523C197.594 237.862 197.44 238.201 197.242 238.539C197.049 238.878 196.823 239.211 196.562 239.539C196.307 239.867 196.034 240.19 195.742 240.508L192.695 243.812H198.398ZM201.383 243.789H201.531C202.365 243.789 203.042 243.672 203.562 243.438C204.083 243.203 204.484 242.888 204.766 242.492C205.047 242.096 205.24 241.651 205.344 241.156C205.448 240.656 205.5 240.143 205.5 239.617V237.875C205.5 237.359 205.44 236.901 205.32 236.5C205.206 236.099 205.044 235.763 204.836 235.492C204.633 235.221 204.401 235.016 204.141 234.875C203.88 234.734 203.604 234.664 203.312 234.664C202.979 234.664 202.68 234.732 202.414 234.867C202.154 234.997 201.932 235.182 201.75 235.422C201.573 235.661 201.438 235.943 201.344 236.266C201.25 236.589 201.203 236.94 201.203 237.32C201.203 237.659 201.245 237.987 201.328 238.305C201.411 238.622 201.539 238.909 201.711 239.164C201.883 239.419 202.096 239.622 202.352 239.773C202.612 239.919 202.917 239.992 203.266 239.992C203.589 239.992 203.891 239.93 204.172 239.805C204.458 239.674 204.711 239.5 204.93 239.281C205.154 239.057 205.331 238.805 205.461 238.523C205.596 238.242 205.674 237.948 205.695 237.641H206.383C206.383 238.073 206.297 238.5 206.125 238.922C205.958 239.339 205.724 239.719 205.422 240.062C205.12 240.406 204.766 240.682 204.359 240.891C203.953 241.094 203.51 241.195 203.031 241.195C202.469 241.195 201.982 241.086 201.57 240.867C201.159 240.648 200.82 240.357 200.555 239.992C200.294 239.628 200.099 239.221 199.969 238.773C199.844 238.32 199.781 237.862 199.781 237.398C199.781 236.857 199.857 236.349 200.008 235.875C200.159 235.401 200.383 234.984 200.68 234.625C200.977 234.26 201.344 233.977 201.781 233.773C202.224 233.57 202.734 233.469 203.312 233.469C203.964 233.469 204.518 233.599 204.977 233.859C205.435 234.12 205.807 234.469 206.094 234.906C206.385 235.344 206.599 235.836 206.734 236.383C206.87 236.93 206.938 237.492 206.938 238.07V238.594C206.938 239.182 206.898 239.781 206.82 240.391C206.747 240.995 206.604 241.573 206.391 242.125C206.182 242.677 205.878 243.172 205.477 243.609C205.076 244.042 204.552 244.385 203.906 244.641C203.266 244.891 202.474 245.016 201.531 245.016H201.383V243.789Z" fill="#50505A"/>
<rect x="42" y="202" width="239" height="16" rx="1" fill="#A6AFBD"/>
<path d="M16.6641 212.203C16.6641 211.891 16.612 211.612 16.5078 211.367C16.4036 211.122 16.2318 210.904 15.9922 210.711C15.7578 210.513 15.4401 210.331 15.0391 210.164C14.6432 209.992 14.1484 209.823 13.5547 209.656C12.987 209.495 12.474 209.318 12.0156 209.125C11.5573 208.932 11.1641 208.711 10.8359 208.461C10.513 208.211 10.2656 207.919 10.0938 207.586C9.92188 207.247 9.83594 206.854 9.83594 206.406C9.83594 205.969 9.92969 205.57 10.1172 205.211C10.3047 204.852 10.5677 204.542 10.9062 204.281C11.25 204.021 11.6536 203.82 12.1172 203.68C12.5859 203.539 13.099 203.469 13.6562 203.469C14.4531 203.469 15.1406 203.62 15.7188 203.922C16.3021 204.224 16.7526 204.633 17.0703 205.148C17.3932 205.659 17.5547 206.232 17.5547 206.867H16.5938C16.5938 206.372 16.4766 205.932 16.2422 205.547C16.013 205.156 15.6797 204.852 15.2422 204.633C14.8099 204.409 14.2812 204.297 13.6562 204.297C13.0312 204.297 12.5052 204.393 12.0781 204.586C11.6562 204.773 11.3359 205.026 11.1172 205.344C10.9036 205.656 10.7969 206.005 10.7969 206.391C10.7969 206.661 10.849 206.911 10.9531 207.141C11.0573 207.365 11.2266 207.576 11.4609 207.773C11.7005 207.966 12.0156 208.148 12.4062 208.32C12.7969 208.487 13.2786 208.646 13.8516 208.797C14.4557 208.964 14.9922 209.148 15.4609 209.352C15.9297 209.555 16.3255 209.789 16.6484 210.055C16.9714 210.315 17.2161 210.62 17.3828 210.969C17.5495 211.318 17.6328 211.724 17.6328 212.188C17.6328 212.651 17.5339 213.068 17.3359 213.438C17.1432 213.802 16.8698 214.112 16.5156 214.367C16.1667 214.622 15.7526 214.818 15.2734 214.953C14.7995 215.089 14.2812 215.156 13.7188 215.156C13.2135 215.156 12.7109 215.091 12.2109 214.961C11.7109 214.831 11.2526 214.63 10.8359 214.359C10.4245 214.083 10.0938 213.729 9.84375 213.297C9.59896 212.865 9.47656 212.349 9.47656 211.75H10.4297C10.4297 212.229 10.526 212.633 10.7188 212.961C10.9115 213.289 11.1667 213.555 11.4844 213.758C11.8073 213.961 12.1615 214.109 12.5469 214.203C12.9375 214.292 13.3281 214.336 13.7188 214.336C14.3177 214.336 14.8359 214.247 15.2734 214.07C15.7161 213.893 16.0573 213.646 16.2969 213.328C16.5417 213.005 16.6641 212.63 16.6641 212.203ZM24.6328 213.484V209.125C24.6328 208.724 24.5495 208.378 24.3828 208.086C24.2161 207.794 23.9714 207.57 23.6484 207.414C23.3255 207.258 22.9271 207.18 22.4531 207.18C22.0156 207.18 21.625 207.258 21.2812 207.414C20.9427 207.565 20.6745 207.771 20.4766 208.031C20.2839 208.286 20.1875 208.57 20.1875 208.883L19.25 208.875C19.25 208.557 19.3281 208.25 19.4844 207.953C19.6406 207.656 19.862 207.391 20.1484 207.156C20.4349 206.922 20.776 206.737 21.1719 206.602C21.5729 206.461 22.013 206.391 22.4922 206.391C23.0964 206.391 23.6276 206.492 24.0859 206.695C24.5495 206.898 24.9115 207.203 25.1719 207.609C25.4323 208.016 25.5625 208.526 25.5625 209.141V213.227C25.5625 213.518 25.5833 213.82 25.625 214.133C25.6719 214.445 25.737 214.703 25.8203 214.906V215H24.8281C24.7656 214.812 24.7161 214.578 24.6797 214.297C24.6484 214.01 24.6328 213.74 24.6328 213.484ZM24.8516 210.078L24.8672 210.797H23.0312C22.5521 210.797 22.1224 210.841 21.7422 210.93C21.3672 211.013 21.0495 211.138 20.7891 211.305C20.5286 211.466 20.3281 211.661 20.1875 211.891C20.0521 212.12 19.9844 212.38 19.9844 212.672C19.9844 212.974 20.0599 213.25 20.2109 213.5C20.3672 213.75 20.5859 213.951 20.8672 214.102C21.1536 214.247 21.4922 214.32 21.8828 214.32C22.4036 214.32 22.862 214.224 23.2578 214.031C23.6589 213.839 23.9896 213.586 24.25 213.273C24.5104 212.961 24.6849 212.62 24.7734 212.25L25.1797 212.789C25.112 213.049 24.987 213.318 24.8047 213.594C24.6276 213.865 24.3958 214.12 24.1094 214.359C23.8229 214.594 23.4844 214.786 23.0938 214.938C22.7083 215.083 22.2708 215.156 21.7812 215.156C21.2292 215.156 20.7474 215.052 20.3359 214.844C19.9297 214.635 19.612 214.352 19.3828 213.992C19.1589 213.628 19.0469 213.216 19.0469 212.758C19.0469 212.341 19.1354 211.969 19.3125 211.641C19.4896 211.307 19.7448 211.026 20.0781 210.797C20.4167 210.562 20.8229 210.385 21.2969 210.266C21.776 210.141 22.3125 210.078 22.9062 210.078H24.8516ZM31.2656 206.547V207.312H27.0312V206.547H31.2656ZM28.5859 204.375H29.5156V212.945C29.5156 213.336 29.5677 213.63 29.6719 213.828C29.776 214.026 29.9115 214.159 30.0781 214.227C30.2448 214.294 30.4245 214.328 30.6172 214.328C30.7578 214.328 30.8932 214.32 31.0234 214.305C31.1536 214.284 31.2708 214.263 31.375 214.242L31.4141 215.031C31.2995 215.068 31.151 215.096 30.9688 215.117C30.7865 215.143 30.6042 215.156 30.4219 215.156C30.0625 215.156 29.7448 215.091 29.4688 214.961C29.1927 214.826 28.9766 214.596 28.8203 214.273C28.6641 213.945 28.5859 213.5 28.5859 212.938V204.375Z" fill="#50505A"/>
<path d="M299.398 213.812V215H291.953V213.961L295.68 209.812C296.138 209.302 296.492 208.87 296.742 208.516C296.997 208.156 297.174 207.836 297.273 207.555C297.378 207.268 297.43 206.977 297.43 206.68C297.43 206.305 297.352 205.966 297.195 205.664C297.044 205.357 296.82 205.112 296.523 204.93C296.227 204.747 295.867 204.656 295.445 204.656C294.94 204.656 294.518 204.755 294.18 204.953C293.846 205.146 293.596 205.417 293.43 205.766C293.263 206.115 293.18 206.516 293.18 206.969H291.734C291.734 206.328 291.875 205.742 292.156 205.211C292.438 204.68 292.854 204.258 293.406 203.945C293.958 203.628 294.638 203.469 295.445 203.469C296.164 203.469 296.779 203.596 297.289 203.852C297.799 204.102 298.19 204.456 298.461 204.914C298.737 205.367 298.875 205.898 298.875 206.508C298.875 206.841 298.818 207.18 298.703 207.523C298.594 207.862 298.44 208.201 298.242 208.539C298.049 208.878 297.823 209.211 297.562 209.539C297.307 209.867 297.034 210.19 296.742 210.508L293.695 213.812H299.398ZM303.055 208.602H304.086C304.591 208.602 305.008 208.518 305.336 208.352C305.669 208.18 305.917 207.948 306.078 207.656C306.245 207.359 306.328 207.026 306.328 206.656C306.328 206.219 306.255 205.852 306.109 205.555C305.964 205.258 305.745 205.034 305.453 204.883C305.161 204.732 304.792 204.656 304.344 204.656C303.938 204.656 303.578 204.737 303.266 204.898C302.958 205.055 302.716 205.279 302.539 205.57C302.367 205.862 302.281 206.206 302.281 206.602H300.836C300.836 206.023 300.982 205.497 301.273 205.023C301.565 204.549 301.974 204.172 302.5 203.891C303.031 203.609 303.646 203.469 304.344 203.469C305.031 203.469 305.633 203.591 306.148 203.836C306.664 204.076 307.065 204.435 307.352 204.914C307.638 205.388 307.781 205.979 307.781 206.688C307.781 206.974 307.714 207.281 307.578 207.609C307.448 207.932 307.242 208.234 306.961 208.516C306.685 208.797 306.326 209.029 305.883 209.211C305.44 209.388 304.909 209.477 304.289 209.477H303.055V208.602ZM303.055 209.789V208.922H304.289C305.013 208.922 305.612 209.008 306.086 209.18C306.56 209.352 306.932 209.581 307.203 209.867C307.479 210.154 307.672 210.469 307.781 210.812C307.896 211.151 307.953 211.49 307.953 211.828C307.953 212.359 307.862 212.831 307.68 213.242C307.503 213.654 307.25 214.003 306.922 214.289C306.599 214.576 306.219 214.792 305.781 214.938C305.344 215.083 304.867 215.156 304.352 215.156C303.857 215.156 303.391 215.086 302.953 214.945C302.521 214.805 302.138 214.602 301.805 214.336C301.471 214.065 301.211 213.734 301.023 213.344C300.836 212.948 300.742 212.497 300.742 211.992H302.188C302.188 212.388 302.273 212.734 302.445 213.031C302.622 213.328 302.872 213.56 303.195 213.727C303.523 213.888 303.909 213.969 304.352 213.969C304.794 213.969 305.174 213.893 305.492 213.742C305.815 213.586 306.062 213.352 306.234 213.039C306.411 212.727 306.5 212.333 306.5 211.859C306.5 211.385 306.401 210.997 306.203 210.695C306.005 210.388 305.724 210.161 305.359 210.016C305 209.865 304.576 209.789 304.086 209.789H303.055ZM311.383 213.789H311.531C312.365 213.789 313.042 213.672 313.562 213.438C314.083 213.203 314.484 212.888 314.766 212.492C315.047 212.096 315.24 211.651 315.344 211.156C315.448 210.656 315.5 210.143 315.5 209.617V207.875C315.5 207.359 315.44 206.901 315.32 206.5C315.206 206.099 315.044 205.763 314.836 205.492C314.633 205.221 314.401 205.016 314.141 204.875C313.88 204.734 313.604 204.664 313.312 204.664C312.979 204.664 312.68 204.732 312.414 204.867C312.154 204.997 311.932 205.182 311.75 205.422C311.573 205.661 311.438 205.943 311.344 206.266C311.25 206.589 311.203 206.94 311.203 207.32C311.203 207.659 311.245 207.987 311.328 208.305C311.411 208.622 311.539 208.909 311.711 209.164C311.883 209.419 312.096 209.622 312.352 209.773C312.612 209.919 312.917 209.992 313.266 209.992C313.589 209.992 313.891 209.93 314.172 209.805C314.458 209.674 314.711 209.5 314.93 209.281C315.154 209.057 315.331 208.805 315.461 208.523C315.596 208.242 315.674 207.948 315.695 207.641H316.383C316.383 208.073 316.297 208.5 316.125 208.922C315.958 209.339 315.724 209.719 315.422 210.062C315.12 210.406 314.766 210.682 314.359 210.891C313.953 211.094 313.51 211.195 313.031 211.195C312.469 211.195 311.982 211.086 311.57 210.867C311.159 210.648 310.82 210.357 310.555 209.992C310.294 209.628 310.099 209.221 309.969 208.773C309.844 208.32 309.781 207.862 309.781 207.398C309.781 206.857 309.857 206.349 310.008 205.875C310.159 205.401 310.383 204.984 310.68 204.625C310.977 204.26 311.344 203.977 311.781 203.773C312.224 203.57 312.734 203.469 313.312 203.469C313.964 203.469 314.518 203.599 314.977 203.859C315.435 204.12 315.807 204.469 316.094 204.906C316.385 205.344 316.599 205.836 316.734 206.383C316.87 206.93 316.938 207.492 316.938 208.07V208.594C316.938 209.182 316.898 209.781 316.82 210.391C316.747 210.995 316.604 211.573 316.391 212.125C316.182 212.677 315.878 213.172 315.477 213.609C315.076 214.042 314.552 214.385 313.906 214.641C313.266 214.891 312.474 215.016 311.531 215.016H311.383V213.789Z" fill="#50505A"/>
<rect x="42" y="172" width="232" height="16" rx="1" fill="#50505A"/>
<path d="M16.625 173.625V185H15.6641V173.625H16.625ZM21.9219 178.859V179.688H16.3047V178.859H21.9219ZM22.7109 173.625V174.453H16.3047V173.625H22.7109ZM25.1719 177.945V185H24.2422V176.547H25.1484L25.1719 177.945ZM28.1641 176.484L28.1406 177.344C28.0365 177.328 27.9349 177.315 27.8359 177.305C27.737 177.294 27.6302 177.289 27.5156 177.289C27.1094 177.289 26.7526 177.365 26.4453 177.516C26.1432 177.661 25.888 177.867 25.6797 178.133C25.4714 178.393 25.3125 178.701 25.2031 179.055C25.0938 179.404 25.0312 179.779 25.0156 180.18L24.6719 180.312C24.6719 179.76 24.7292 179.247 24.8438 178.773C24.9583 178.299 25.1328 177.885 25.3672 177.531C25.6068 177.172 25.9062 176.893 26.2656 176.695C26.6302 176.492 27.0573 176.391 27.5469 176.391C27.6667 176.391 27.7839 176.401 27.8984 176.422C28.0182 176.438 28.1068 176.458 28.1641 176.484ZM30.6719 176.547V185H29.7422V176.547H30.6719ZM29.5781 174.102C29.5781 173.924 29.6328 173.776 29.7422 173.656C29.8568 173.531 30.013 173.469 30.2109 173.469C30.4089 173.469 30.5651 173.531 30.6797 173.656C30.7995 173.776 30.8594 173.924 30.8594 174.102C30.8594 174.273 30.7995 174.422 30.6797 174.547C30.5651 174.667 30.4089 174.727 30.2109 174.727C30.013 174.727 29.8568 174.667 29.7422 174.547C29.6328 174.422 29.5781 174.273 29.5781 174.102Z" fill="#50505A"/>
<path d="M292.398 183.812V185H284.953V183.961L288.68 179.812C289.138 179.302 289.492 178.87 289.742 178.516C289.997 178.156 290.174 177.836 290.273 177.555C290.378 177.268 290.43 176.977 290.43 176.68C290.43 176.305 290.352 175.966 290.195 175.664C290.044 175.357 289.82 175.112 289.523 174.93C289.227 174.747 288.867 174.656 288.445 174.656C287.94 174.656 287.518 174.755 287.18 174.953C286.846 175.146 286.596 175.417 286.43 175.766C286.263 176.115 286.18 176.516 286.18 176.969H284.734C284.734 176.328 284.875 175.742 285.156 175.211C285.438 174.68 285.854 174.258 286.406 173.945C286.958 173.628 287.638 173.469 288.445 173.469C289.164 173.469 289.779 173.596 290.289 173.852C290.799 174.102 291.19 174.456 291.461 174.914C291.737 175.367 291.875 175.898 291.875 176.508C291.875 176.841 291.818 177.18 291.703 177.523C291.594 177.862 291.44 178.201 291.242 178.539C291.049 178.878 290.823 179.211 290.562 179.539C290.307 179.867 290.034 180.19 289.742 180.508L286.695 183.812H292.398ZM296.055 178.602H297.086C297.591 178.602 298.008 178.518 298.336 178.352C298.669 178.18 298.917 177.948 299.078 177.656C299.245 177.359 299.328 177.026 299.328 176.656C299.328 176.219 299.255 175.852 299.109 175.555C298.964 175.258 298.745 175.034 298.453 174.883C298.161 174.732 297.792 174.656 297.344 174.656C296.938 174.656 296.578 174.737 296.266 174.898C295.958 175.055 295.716 175.279 295.539 175.57C295.367 175.862 295.281 176.206 295.281 176.602H293.836C293.836 176.023 293.982 175.497 294.273 175.023C294.565 174.549 294.974 174.172 295.5 173.891C296.031 173.609 296.646 173.469 297.344 173.469C298.031 173.469 298.633 173.591 299.148 173.836C299.664 174.076 300.065 174.435 300.352 174.914C300.638 175.388 300.781 175.979 300.781 176.688C300.781 176.974 300.714 177.281 300.578 177.609C300.448 177.932 300.242 178.234 299.961 178.516C299.685 178.797 299.326 179.029 298.883 179.211C298.44 179.388 297.909 179.477 297.289 179.477H296.055V178.602ZM296.055 179.789V178.922H297.289C298.013 178.922 298.612 179.008 299.086 179.18C299.56 179.352 299.932 179.581 300.203 179.867C300.479 180.154 300.672 180.469 300.781 180.812C300.896 181.151 300.953 181.49 300.953 181.828C300.953 182.359 300.862 182.831 300.68 183.242C300.503 183.654 300.25 184.003 299.922 184.289C299.599 184.576 299.219 184.792 298.781 184.938C298.344 185.083 297.867 185.156 297.352 185.156C296.857 185.156 296.391 185.086 295.953 184.945C295.521 184.805 295.138 184.602 294.805 184.336C294.471 184.065 294.211 183.734 294.023 183.344C293.836 182.948 293.742 182.497 293.742 181.992H295.188C295.188 182.388 295.273 182.734 295.445 183.031C295.622 183.328 295.872 183.56 296.195 183.727C296.523 183.888 296.909 183.969 297.352 183.969C297.794 183.969 298.174 183.893 298.492 183.742C298.815 183.586 299.062 183.352 299.234 183.039C299.411 182.727 299.5 182.333 299.5 181.859C299.5 181.385 299.401 180.997 299.203 180.695C299.005 180.388 298.724 180.161 298.359 180.016C298 179.865 297.576 179.789 297.086 179.789H296.055ZM310.398 183.812V185H302.953V183.961L306.68 179.812C307.138 179.302 307.492 178.87 307.742 178.516C307.997 178.156 308.174 177.836 308.273 177.555C308.378 177.268 308.43 176.977 308.43 176.68C308.43 176.305 308.352 175.966 308.195 175.664C308.044 175.357 307.82 175.112 307.523 174.93C307.227 174.747 306.867 174.656 306.445 174.656C305.94 174.656 305.518 174.755 305.18 174.953C304.846 175.146 304.596 175.417 304.43 175.766C304.263 176.115 304.18 176.516 304.18 176.969H302.734C302.734 176.328 302.875 175.742 303.156 175.211C303.438 174.68 303.854 174.258 304.406 173.945C304.958 173.628 305.638 173.469 306.445 173.469C307.164 173.469 307.779 173.596 308.289 173.852C308.799 174.102 309.19 174.456 309.461 174.914C309.737 175.367 309.875 175.898 309.875 176.508C309.875 176.841 309.818 177.18 309.703 177.523C309.594 177.862 309.44 178.201 309.242 178.539C309.049 178.878 308.823 179.211 308.562 179.539C308.307 179.867 308.034 180.19 307.742 180.508L304.695 183.812H310.398Z" fill="#50505A"/>
<rect x="42" y="142" width="162" height="16" rx="1" fill="#50505A"/>
<path d="M10.1172 143.625V155H9.16406V143.625H10.1172ZM14.0156 143.625V144.453H5.27344V143.625H14.0156ZM16.5781 143V155H15.6484V143H16.5781ZM16.3672 150.25L15.9531 150.016C15.9844 149.516 16.0859 149.047 16.2578 148.609C16.4297 148.172 16.6615 147.786 16.9531 147.453C17.25 147.12 17.5964 146.859 17.9922 146.672C18.3932 146.484 18.8359 146.391 19.3203 146.391C19.7422 146.391 20.1198 146.448 20.4531 146.562C20.7865 146.677 21.0703 146.859 21.3047 147.109C21.5391 147.359 21.7161 147.68 21.8359 148.07C21.9609 148.461 22.0234 148.938 22.0234 149.5V155H21.0859V149.492C21.0859 148.909 21.0052 148.453 20.8438 148.125C20.6823 147.792 20.4531 147.555 20.1562 147.414C19.8594 147.273 19.5078 147.203 19.1016 147.203C18.6536 147.203 18.2604 147.302 17.9219 147.5C17.5885 147.693 17.3073 147.945 17.0781 148.258C16.8542 148.565 16.6823 148.896 16.5625 149.25C16.4427 149.599 16.3776 149.932 16.3672 150.25ZM29.8438 153.047V146.547H30.7812V155H29.8828L29.8438 153.047ZM30.0156 151.484L30.5 151.469C30.5 152 30.4375 152.49 30.3125 152.938C30.1875 153.385 29.9922 153.776 29.7266 154.109C29.4609 154.443 29.1172 154.701 28.6953 154.883C28.2734 155.065 27.7656 155.156 27.1719 155.156C26.7604 155.156 26.3828 155.099 26.0391 154.984C25.7005 154.865 25.4089 154.677 25.1641 154.422C24.9193 154.167 24.7292 153.836 24.5938 153.43C24.4635 153.023 24.3984 152.531 24.3984 151.953V146.547H25.3281V151.969C25.3281 152.422 25.3776 152.799 25.4766 153.102C25.5807 153.404 25.7214 153.646 25.8984 153.828C26.0807 154.01 26.2891 154.141 26.5234 154.219C26.7578 154.297 27.0104 154.336 27.2812 154.336C27.9688 154.336 28.5104 154.203 28.9062 153.938C29.3073 153.672 29.5911 153.323 29.7578 152.891C29.9297 152.453 30.0156 151.984 30.0156 151.484Z" fill="#50505A"/>
<path d="M219.695 143.562V155H218.25V145.367L215.336 146.43V145.125L219.469 143.562H219.695ZM229.492 143.609H229.617V144.836H229.492C228.727 144.836 228.086 144.961 227.57 145.211C227.055 145.456 226.646 145.786 226.344 146.203C226.042 146.615 225.823 147.078 225.688 147.594C225.557 148.109 225.492 148.633 225.492 149.164V150.836C225.492 151.341 225.552 151.789 225.672 152.18C225.792 152.565 225.956 152.891 226.164 153.156C226.372 153.422 226.607 153.622 226.867 153.758C227.133 153.893 227.409 153.961 227.695 153.961C228.029 153.961 228.326 153.898 228.586 153.773C228.846 153.643 229.065 153.464 229.242 153.234C229.424 153 229.562 152.724 229.656 152.406C229.75 152.089 229.797 151.74 229.797 151.359C229.797 151.021 229.755 150.695 229.672 150.383C229.589 150.065 229.461 149.784 229.289 149.539C229.117 149.289 228.901 149.094 228.641 148.953C228.385 148.807 228.081 148.734 227.727 148.734C227.326 148.734 226.951 148.833 226.602 149.031C226.258 149.224 225.974 149.479 225.75 149.797C225.531 150.109 225.406 150.451 225.375 150.82L224.609 150.812C224.682 150.229 224.818 149.732 225.016 149.32C225.219 148.904 225.469 148.565 225.766 148.305C226.068 148.039 226.404 147.846 226.773 147.727C227.148 147.602 227.544 147.539 227.961 147.539C228.529 147.539 229.018 147.646 229.43 147.859C229.841 148.073 230.18 148.359 230.445 148.719C230.711 149.073 230.906 149.474 231.031 149.922C231.161 150.365 231.227 150.82 231.227 151.289C231.227 151.826 231.151 152.328 231 152.797C230.849 153.266 230.622 153.677 230.32 154.031C230.023 154.385 229.656 154.661 229.219 154.859C228.781 155.057 228.273 155.156 227.695 155.156C227.081 155.156 226.544 155.031 226.086 154.781C225.628 154.526 225.247 154.188 224.945 153.766C224.643 153.344 224.417 152.875 224.266 152.359C224.115 151.844 224.039 151.32 224.039 150.789V150.109C224.039 149.307 224.12 148.521 224.281 147.75C224.443 146.979 224.721 146.281 225.117 145.656C225.518 145.031 226.073 144.534 226.781 144.164C227.49 143.794 228.393 143.609 229.492 143.609ZM240.398 153.812V155H232.953V153.961L236.68 149.812C237.138 149.302 237.492 148.87 237.742 148.516C237.997 148.156 238.174 147.836 238.273 147.555C238.378 147.268 238.43 146.977 238.43 146.68C238.43 146.305 238.352 145.966 238.195 145.664C238.044 145.357 237.82 145.112 237.523 144.93C237.227 144.747 236.867 144.656 236.445 144.656C235.94 144.656 235.518 144.755 235.18 144.953C234.846 145.146 234.596 145.417 234.43 145.766C234.263 146.115 234.18 146.516 234.18 146.969H232.734C232.734 146.328 232.875 145.742 233.156 145.211C233.438 144.68 233.854 144.258 234.406 143.945C234.958 143.628 235.638 143.469 236.445 143.469C237.164 143.469 237.779 143.596 238.289 143.852C238.799 144.102 239.19 144.456 239.461 144.914C239.737 145.367 239.875 145.898 239.875 146.508C239.875 146.841 239.818 147.18 239.703 147.523C239.594 147.862 239.44 148.201 239.242 148.539C239.049 148.878 238.823 149.211 238.562 149.539C238.307 149.867 238.034 150.19 237.742 150.508L234.695 153.812H240.398Z" fill="#50505A"/>
<rect x="42" y="112" width="214" height="16" rx="1" fill="#50505A"/>
<path d="M5.0625 121.992L7.53125 113.625H8.30469L7.67969 116.109L5.04688 125H4.30469L5.0625 121.992ZM2.19531 113.625L4.27344 121.914L4.89844 125H4.125L1.21094 113.625H2.19531ZM11.6328 121.914L13.6797 113.625H14.6641L11.7578 125H10.9844L11.6328 121.914ZM8.39062 113.625L10.8281 121.992L11.5781 125H10.8359L8.25781 116.109L7.625 113.625H8.39062ZM19.3203 125.156C18.7682 125.156 18.2604 125.055 17.7969 124.852C17.3385 124.648 16.9375 124.362 16.5938 123.992C16.2552 123.622 15.9922 123.185 15.8047 122.68C15.6224 122.169 15.5312 121.612 15.5312 121.008V120.672C15.5312 120.021 15.6276 119.432 15.8203 118.906C16.013 118.38 16.2786 117.93 16.6172 117.555C16.9557 117.18 17.3411 116.893 17.7734 116.695C18.2109 116.492 18.6693 116.391 19.1484 116.391C19.6849 116.391 20.1615 116.487 20.5781 116.68C20.9948 116.867 21.3438 117.135 21.625 117.484C21.9115 117.828 22.1276 118.237 22.2734 118.711C22.4193 119.18 22.4922 119.698 22.4922 120.266V120.836H16.0938V120.039H21.5625V119.93C21.5521 119.456 21.4557 119.013 21.2734 118.602C21.0964 118.185 20.8307 117.846 20.4766 117.586C20.1224 117.326 19.6797 117.195 19.1484 117.195C18.7526 117.195 18.388 117.279 18.0547 117.445C17.7266 117.612 17.4427 117.852 17.2031 118.164C16.9688 118.471 16.7865 118.839 16.6562 119.266C16.5312 119.688 16.4688 120.156 16.4688 120.672V121.008C16.4688 121.477 16.5365 121.914 16.6719 122.32C16.8125 122.721 17.0104 123.076 17.2656 123.383C17.526 123.69 17.8333 123.93 18.1875 124.102C18.5417 124.273 18.9323 124.359 19.3594 124.359C19.8594 124.359 20.3021 124.268 20.6875 124.086C21.0729 123.898 21.4193 123.604 21.7266 123.203L22.3125 123.656C22.1302 123.927 21.901 124.177 21.625 124.406C21.3542 124.635 21.0286 124.818 20.6484 124.953C20.2682 125.089 19.8255 125.156 19.3203 125.156ZM29.8281 123.359V113H30.7656V125H29.8906L29.8281 123.359ZM23.9609 120.859V120.695C23.9609 120.039 24.0365 119.448 24.1875 118.922C24.3385 118.391 24.5547 117.938 24.8359 117.562C25.1224 117.182 25.4661 116.893 25.8672 116.695C26.2682 116.492 26.7214 116.391 27.2266 116.391C27.7214 116.391 28.1589 116.471 28.5391 116.633C28.9193 116.794 29.2448 117.026 29.5156 117.328C29.7917 117.63 30.013 117.99 30.1797 118.406C30.3516 118.823 30.4766 119.286 30.5547 119.797V121.883C30.4922 122.362 30.3776 122.802 30.2109 123.203C30.0443 123.599 29.8229 123.945 29.5469 124.242C29.2708 124.534 28.9375 124.76 28.5469 124.922C28.1615 125.078 27.7161 125.156 27.2109 125.156C26.7109 125.156 26.2604 125.052 25.8594 124.844C25.4583 124.635 25.1172 124.341 24.8359 123.961C24.5547 123.576 24.3385 123.12 24.1875 122.594C24.0365 122.068 23.9609 121.49 23.9609 120.859ZM24.8984 120.695V120.859C24.8984 121.354 24.9479 121.812 25.0469 122.234C25.1458 122.656 25.2969 123.023 25.5 123.336C25.7031 123.648 25.9609 123.893 26.2734 124.07C26.5859 124.247 26.9557 124.336 27.3828 124.336C27.9193 124.336 28.3698 124.234 28.7344 124.031C29.099 123.823 29.3906 123.549 29.6094 123.211C29.8281 122.867 29.987 122.492 30.0859 122.086V119.656C30.0234 119.38 29.9323 119.099 29.8125 118.812C29.6927 118.526 29.5286 118.263 29.3203 118.023C29.1172 117.779 28.8568 117.583 28.5391 117.438C28.2266 117.286 27.8464 117.211 27.3984 117.211C26.9661 117.211 26.5938 117.299 26.2812 117.477C25.9688 117.654 25.7083 117.901 25.5 118.219C25.2969 118.531 25.1458 118.898 25.0469 119.32C24.9479 119.742 24.8984 120.201 24.8984 120.695Z" fill="#50505A"/>
<path d="M274.398 123.812V125H266.953V123.961L270.68 119.812C271.138 119.302 271.492 118.87 271.742 118.516C271.997 118.156 272.174 117.836 272.273 117.555C272.378 117.268 272.43 116.977 272.43 116.68C272.43 116.305 272.352 115.966 272.195 115.664C272.044 115.357 271.82 115.112 271.523 114.93C271.227 114.747 270.867 114.656 270.445 114.656C269.94 114.656 269.518 114.755 269.18 114.953C268.846 115.146 268.596 115.417 268.43 115.766C268.263 116.115 268.18 116.516 268.18 116.969H266.734C266.734 116.328 266.875 115.742 267.156 115.211C267.438 114.68 267.854 114.258 268.406 113.945C268.958 113.628 269.638 113.469 270.445 113.469C271.164 113.469 271.779 113.596 272.289 113.852C272.799 114.102 273.19 114.456 273.461 114.914C273.737 115.367 273.875 115.898 273.875 116.508C273.875 116.841 273.818 117.18 273.703 117.523C273.594 117.862 273.44 118.201 273.242 118.539C273.049 118.878 272.823 119.211 272.562 119.539C272.307 119.867 272.034 120.19 271.742 120.508L268.695 123.812H274.398ZM280.695 113.562V125H279.25V115.367L276.336 116.43V115.125L280.469 113.562H280.695ZM292.633 121.172V122.359H284.414V121.508L289.508 113.625H290.688L289.422 115.906L286.055 121.172H292.633ZM291.047 113.625V125H289.602V113.625H291.047Z" fill="#50505A"/>
<rect x="42" y="82" width="236" height="16" rx="1" fill="#50505A"/>
<path d="M11.3672 83.625V95H10.4141V83.625H11.3672ZM15.2656 83.625V84.4531H6.52344V83.625H15.2656ZM21.5625 93.0469V86.5469H22.5V95H21.6016L21.5625 93.0469ZM21.7344 91.4844L22.2188 91.4688C22.2188 92 22.1562 92.4896 22.0312 92.9375C21.9062 93.3854 21.7109 93.776 21.4453 94.1094C21.1797 94.4427 20.8359 94.7005 20.4141 94.8828C19.9922 95.0651 19.4844 95.1562 18.8906 95.1562C18.4792 95.1562 18.1016 95.099 17.7578 94.9844C17.4193 94.8646 17.1276 94.6771 16.8828 94.4219C16.638 94.1667 16.4479 93.8359 16.3125 93.4297C16.1823 93.0234 16.1172 92.5312 16.1172 91.9531V86.5469H17.0469V91.9688C17.0469 92.4219 17.0964 92.7995 17.1953 93.1016C17.2995 93.4036 17.4401 93.6458 17.6172 93.8281C17.7995 94.0104 18.0078 94.1406 18.2422 94.2188C18.4766 94.2969 18.7292 94.3359 19 94.3359C19.6875 94.3359 20.2292 94.2031 20.625 93.9375C21.026 93.6719 21.3099 93.3229 21.4766 92.8906C21.6484 92.4531 21.7344 91.9844 21.7344 91.4844ZM28.2109 95.1562C27.6589 95.1562 27.151 95.0547 26.6875 94.8516C26.2292 94.6484 25.8281 94.362 25.4844 93.9922C25.1458 93.6224 24.8828 93.1849 24.6953 92.6797C24.513 92.1693 24.4219 91.612 24.4219 91.0078V90.6719C24.4219 90.0208 24.5182 89.4323 24.7109 88.9062C24.9036 88.3802 25.1693 87.9297 25.5078 87.5547C25.8464 87.1797 26.2318 86.8932 26.6641 86.6953C27.1016 86.4922 27.5599 86.3906 28.0391 86.3906C28.5755 86.3906 29.0521 86.487 29.4688 86.6797C29.8854 86.8672 30.2344 87.1354 30.5156 87.4844C30.8021 87.8281 31.0182 88.237 31.1641 88.7109C31.3099 89.1797 31.3828 89.6979 31.3828 90.2656V90.8359H24.9844V90.0391H30.4531V89.9297C30.4427 89.4557 30.3464 89.013 30.1641 88.6016C29.987 88.1849 29.7214 87.8464 29.3672 87.5859C29.013 87.3255 28.5703 87.1953 28.0391 87.1953C27.6432 87.1953 27.2786 87.2786 26.9453 87.4453C26.6172 87.612 26.3333 87.8516 26.0938 88.1641C25.8594 88.4714 25.6771 88.8385 25.5469 89.2656C25.4219 89.6875 25.3594 90.1562 25.3594 90.6719V91.0078C25.3594 91.4766 25.4271 91.9141 25.5625 92.3203C25.7031 92.7214 25.901 93.0755 26.1562 93.3828C26.4167 93.6901 26.724 93.9297 27.0781 94.1016C27.4323 94.2734 27.8229 94.3594 28.25 94.3594C28.75 94.3594 29.1927 94.2682 29.5781 94.0859C29.9635 93.8984 30.3099 93.6042 30.6172 93.2031L31.2031 93.6562C31.0208 93.9271 30.7917 94.1771 30.5156 94.4062C30.2448 94.6354 29.9193 94.8177 29.5391 94.9531C29.1589 95.0885 28.7161 95.1562 28.2109 95.1562Z" fill="#50505A"/>
<path d="M296.398 93.8125V95H288.953V93.9609L292.68 89.8125C293.138 89.3021 293.492 88.8698 293.742 88.5156C293.997 88.1562 294.174 87.8359 294.273 87.5547C294.378 87.2682 294.43 86.9766 294.43 86.6797C294.43 86.3047 294.352 85.9661 294.195 85.6641C294.044 85.3568 293.82 85.112 293.523 84.9297C293.227 84.7474 292.867 84.6562 292.445 84.6562C291.94 84.6562 291.518 84.7552 291.18 84.9531C290.846 85.1458 290.596 85.4167 290.43 85.7656C290.263 86.1146 290.18 86.5156 290.18 86.9688H288.734C288.734 86.3281 288.875 85.7422 289.156 85.2109C289.438 84.6797 289.854 84.2578 290.406 83.9453C290.958 83.6276 291.638 83.4688 292.445 83.4688C293.164 83.4688 293.779 83.5964 294.289 83.8516C294.799 84.1016 295.19 84.4557 295.461 84.9141C295.737 85.3672 295.875 85.8984 295.875 86.5078C295.875 86.8411 295.818 87.1797 295.703 87.5234C295.594 87.862 295.44 88.2005 295.242 88.5391C295.049 88.8776 294.823 89.2109 294.562 89.5391C294.307 89.8672 294.034 90.1901 293.742 90.5078L290.695 93.8125H296.398ZM300.055 88.6016H301.086C301.591 88.6016 302.008 88.5182 302.336 88.3516C302.669 88.1797 302.917 87.9479 303.078 87.6562C303.245 87.3594 303.328 87.026 303.328 86.6562C303.328 86.2188 303.255 85.8516 303.109 85.5547C302.964 85.2578 302.745 85.0339 302.453 84.8828C302.161 84.7318 301.792 84.6562 301.344 84.6562C300.938 84.6562 300.578 84.737 300.266 84.8984C299.958 85.0547 299.716 85.2786 299.539 85.5703C299.367 85.862 299.281 86.2057 299.281 86.6016H297.836C297.836 86.0234 297.982 85.4974 298.273 85.0234C298.565 84.5495 298.974 84.1719 299.5 83.8906C300.031 83.6094 300.646 83.4688 301.344 83.4688C302.031 83.4688 302.633 83.5911 303.148 83.8359C303.664 84.0755 304.065 84.4349 304.352 84.9141C304.638 85.388 304.781 85.9792 304.781 86.6875C304.781 86.974 304.714 87.2812 304.578 87.6094C304.448 87.9323 304.242 88.2344 303.961 88.5156C303.685 88.7969 303.326 89.0286 302.883 89.2109C302.44 89.388 301.909 89.4766 301.289 89.4766H300.055V88.6016ZM300.055 89.7891V88.9219H301.289C302.013 88.9219 302.612 89.0078 303.086 89.1797C303.56 89.3516 303.932 89.5807 304.203 89.8672C304.479 90.1536 304.672 90.4688 304.781 90.8125C304.896 91.151 304.953 91.4896 304.953 91.8281C304.953 92.3594 304.862 92.8307 304.68 93.2422C304.503 93.6536 304.25 94.0026 303.922 94.2891C303.599 94.5755 303.219 94.7917 302.781 94.9375C302.344 95.0833 301.867 95.1562 301.352 95.1562C300.857 95.1562 300.391 95.0859 299.953 94.9453C299.521 94.8047 299.138 94.6016 298.805 94.3359C298.471 94.0651 298.211 93.7344 298.023 93.3438C297.836 92.9479 297.742 92.4974 297.742 91.9922H299.188C299.188 92.388 299.273 92.7344 299.445 93.0312C299.622 93.3281 299.872 93.5599 300.195 93.7266C300.523 93.888 300.909 93.9688 301.352 93.9688C301.794 93.9688 302.174 93.8932 302.492 93.7422C302.815 93.5859 303.062 93.3516 303.234 93.0391C303.411 92.7266 303.5 92.3333 303.5 91.8594C303.5 91.3854 303.401 90.9974 303.203 90.6953C303.005 90.388 302.724 90.1615 302.359 90.0156C302 89.8646 301.576 89.7891 301.086 89.7891H300.055ZM312.492 83.6094H312.617V84.8359H312.492C311.727 84.8359 311.086 84.9609 310.57 85.2109C310.055 85.4557 309.646 85.7865 309.344 86.2031C309.042 86.6146 308.823 87.0781 308.688 87.5938C308.557 88.1094 308.492 88.6328 308.492 89.1641V90.8359C308.492 91.3411 308.552 91.7891 308.672 92.1797C308.792 92.5651 308.956 92.8906 309.164 93.1562C309.372 93.4219 309.607 93.6224 309.867 93.7578C310.133 93.8932 310.409 93.9609 310.695 93.9609C311.029 93.9609 311.326 93.8984 311.586 93.7734C311.846 93.6432 312.065 93.4635 312.242 93.2344C312.424 93 312.562 92.724 312.656 92.4062C312.75 92.0885 312.797 91.7396 312.797 91.3594C312.797 91.0208 312.755 90.6953 312.672 90.3828C312.589 90.0651 312.461 89.7839 312.289 89.5391C312.117 89.2891 311.901 89.0938 311.641 88.9531C311.385 88.8073 311.081 88.7344 310.727 88.7344C310.326 88.7344 309.951 88.8333 309.602 89.0312C309.258 89.224 308.974 89.4792 308.75 89.7969C308.531 90.1094 308.406 90.4505 308.375 90.8203L307.609 90.8125C307.682 90.2292 307.818 89.7318 308.016 89.3203C308.219 88.9036 308.469 88.5651 308.766 88.3047C309.068 88.0391 309.404 87.8464 309.773 87.7266C310.148 87.6016 310.544 87.5391 310.961 87.5391C311.529 87.5391 312.018 87.6458 312.43 87.8594C312.841 88.0729 313.18 88.3594 313.445 88.7188C313.711 89.0729 313.906 89.474 314.031 89.9219C314.161 90.3646 314.227 90.8203 314.227 91.2891C314.227 91.8255 314.151 92.3281 314 92.7969C313.849 93.2656 313.622 93.6771 313.32 94.0312C313.023 94.3854 312.656 94.6615 312.219 94.8594C311.781 95.0573 311.273 95.1562 310.695 95.1562C310.081 95.1562 309.544 95.0312 309.086 94.7812C308.628 94.526 308.247 94.1875 307.945 93.7656C307.643 93.3438 307.417 92.875 307.266 92.3594C307.115 91.8438 307.039 91.3203 307.039 90.7891V90.1094C307.039 89.3073 307.12 88.5208 307.281 87.75C307.443 86.9792 307.721 86.2812 308.117 85.6562C308.518 85.0312 309.073 84.5339 309.781 84.1641C310.49 83.7943 311.393 83.6094 312.492 83.6094Z" fill="#50505A"/>
<rect x="42" y="52" width="249" height="16" rx="1" fill="#50505A"/>
<path d="M2.13281 53.625H3.10156L7.30469 63.6406L11.5156 53.625H12.4766L7.67188 65H6.9375L2.13281 53.625ZM1.83594 53.625H2.6875L2.78906 60.0312V65H1.83594V53.625ZM11.9375 53.625H12.7891V65H11.8281V60.0312L11.9375 53.625ZM14.9453 60.9062V60.6484C14.9453 60.0339 15.0339 59.4661 15.2109 58.9453C15.388 58.4245 15.6406 57.974 15.9688 57.5938C16.3021 57.2135 16.7005 56.9193 17.1641 56.7109C17.6276 56.4974 18.1432 56.3906 18.7109 56.3906C19.2839 56.3906 19.8021 56.4974 20.2656 56.7109C20.7292 56.9193 21.1276 57.2135 21.4609 57.5938C21.7943 57.974 22.0495 58.4245 22.2266 58.9453C22.4036 59.4661 22.4922 60.0339 22.4922 60.6484V60.9062C22.4922 61.5208 22.4036 62.0885 22.2266 62.6094C22.0495 63.125 21.7943 63.5729 21.4609 63.9531C21.1328 64.3333 20.737 64.6302 20.2734 64.8438C19.8099 65.0521 19.2943 65.1562 18.7266 65.1562C18.1536 65.1562 17.6354 65.0521 17.1719 64.8438C16.7083 64.6302 16.3099 64.3333 15.9766 63.9531C15.6432 63.5729 15.388 63.125 15.2109 62.6094C15.0339 62.0885 14.9453 61.5208 14.9453 60.9062ZM15.875 60.6484V60.9062C15.875 61.3698 15.9375 61.8099 16.0625 62.2266C16.1875 62.638 16.3698 63.0052 16.6094 63.3281C16.849 63.6458 17.1458 63.8958 17.5 64.0781C17.8542 64.2604 18.263 64.3516 18.7266 64.3516C19.1849 64.3516 19.5885 64.2604 19.9375 64.0781C20.2917 63.8958 20.5885 63.6458 20.8281 63.3281C21.0677 63.0052 21.2474 62.638 21.3672 62.2266C21.4922 61.8099 21.5547 61.3698 21.5547 60.9062V60.6484C21.5547 60.1901 21.4922 59.7552 21.3672 59.3438C21.2474 58.9323 21.0651 58.5651 20.8203 58.2422C20.5807 57.9193 20.2839 57.6641 19.9297 57.4766C19.5755 57.2891 19.1693 57.1953 18.7109 57.1953C18.2526 57.1953 17.8464 57.2891 17.4922 57.4766C17.1432 57.6641 16.8464 57.9193 16.6016 58.2422C16.362 58.5651 16.1797 58.9323 16.0547 59.3438C15.9349 59.7552 15.875 60.1901 15.875 60.6484ZM25.3594 58.3516V65H24.4297V56.5469H25.3203L25.3594 58.3516ZM25.1484 60.25L24.7344 60.0156C24.7656 59.5156 24.8672 59.0469 25.0391 58.6094C25.2109 58.1719 25.4427 57.7865 25.7344 57.4531C26.0312 57.1198 26.3776 56.8594 26.7734 56.6719C27.1745 56.4844 27.6172 56.3906 28.1016 56.3906C28.5234 56.3906 28.901 56.4479 29.2344 56.5625C29.5677 56.6771 29.8516 56.8594 30.0859 57.1094C30.3203 57.3594 30.4974 57.6797 30.6172 58.0703C30.7422 58.4609 30.8047 58.9375 30.8047 59.5V65H29.8672V59.4922C29.8672 58.9089 29.7865 58.4531 29.625 58.125C29.4635 57.7917 29.2344 57.5547 28.9375 57.4141C28.6406 57.2734 28.2891 57.2031 27.8828 57.2031C27.4349 57.2031 27.0417 57.3021 26.7031 57.5C26.3698 57.6927 26.0885 57.9453 25.8594 58.2578C25.6354 58.5651 25.4635 58.8958 25.3438 59.25C25.224 59.599 25.1589 59.9323 25.1484 60.25Z" fill="#50505A"/>
<path d="M310.398 63.8125V65H302.953V63.9609L306.68 59.8125C307.138 59.3021 307.492 58.8698 307.742 58.5156C307.997 58.1562 308.174 57.8359 308.273 57.5547C308.378 57.2682 308.43 56.9766 308.43 56.6797C308.43 56.3047 308.352 55.9661 308.195 55.6641C308.044 55.3568 307.82 55.112 307.523 54.9297C307.227 54.7474 306.867 54.6562 306.445 54.6562C305.94 54.6562 305.518 54.7552 305.18 54.9531C304.846 55.1458 304.596 55.4167 304.43 55.7656C304.263 56.1146 304.18 56.5156 304.18 56.9688H302.734C302.734 56.3281 302.875 55.7422 303.156 55.2109C303.438 54.6797 303.854 54.2578 304.406 53.9453C304.958 53.6276 305.638 53.4688 306.445 53.4688C307.164 53.4688 307.779 53.5964 308.289 53.8516C308.799 54.1016 309.19 54.4557 309.461 54.9141C309.737 55.3672 309.875 55.8984 309.875 56.5078C309.875 56.8411 309.818 57.1797 309.703 57.5234C309.594 57.862 309.44 58.2005 309.242 58.5391C309.049 58.8776 308.823 59.2109 308.562 59.5391C308.307 59.8672 308.034 60.1901 307.742 60.5078L304.695 63.8125H310.398ZM319.633 61.1719V62.3594H311.414V61.5078L316.508 53.625H317.688L316.422 55.9062L313.055 61.1719H319.633ZM318.047 53.625V65H316.602V53.625H318.047ZM322.383 63.7891H322.531C323.365 63.7891 324.042 63.6719 324.562 63.4375C325.083 63.2031 325.484 62.888 325.766 62.4922C326.047 62.0964 326.24 61.651 326.344 61.1562C326.448 60.6562 326.5 60.1432 326.5 59.6172V57.875C326.5 57.3594 326.44 56.901 326.32 56.5C326.206 56.099 326.044 55.763 325.836 55.4922C325.633 55.2214 325.401 55.0156 325.141 54.875C324.88 54.7344 324.604 54.6641 324.312 54.6641C323.979 54.6641 323.68 54.7318 323.414 54.8672C323.154 54.9974 322.932 55.1823 322.75 55.4219C322.573 55.6615 322.438 55.9427 322.344 56.2656C322.25 56.5885 322.203 56.9401 322.203 57.3203C322.203 57.6589 322.245 57.987 322.328 58.3047C322.411 58.6224 322.539 58.9089 322.711 59.1641C322.883 59.4193 323.096 59.6224 323.352 59.7734C323.612 59.9193 323.917 59.9922 324.266 59.9922C324.589 59.9922 324.891 59.9297 325.172 59.8047C325.458 59.6745 325.711 59.5 325.93 59.2812C326.154 59.0573 326.331 58.8047 326.461 58.5234C326.596 58.2422 326.674 57.9479 326.695 57.6406H327.383C327.383 58.0729 327.297 58.5 327.125 58.9219C326.958 59.3385 326.724 59.7188 326.422 60.0625C326.12 60.4062 325.766 60.6823 325.359 60.8906C324.953 61.0938 324.51 61.1953 324.031 61.1953C323.469 61.1953 322.982 61.0859 322.57 60.8672C322.159 60.6484 321.82 60.3568 321.555 59.9922C321.294 59.6276 321.099 59.2214 320.969 58.7734C320.844 58.3203 320.781 57.862 320.781 57.3984C320.781 56.8568 320.857 56.349 321.008 55.875C321.159 55.401 321.383 54.9844 321.68 54.625C321.977 54.2604 322.344 53.9766 322.781 53.7734C323.224 53.5703 323.734 53.4688 324.312 53.4688C324.964 53.4688 325.518 53.599 325.977 53.8594C326.435 54.1198 326.807 54.4688 327.094 54.9062C327.385 55.3438 327.599 55.8359 327.734 56.3828C327.87 56.9297 327.938 57.4922 327.938 58.0703V58.5938C327.938 59.1823 327.898 59.7812 327.82 60.3906C327.747 60.9948 327.604 61.5729 327.391 62.125C327.182 62.6771 326.878 63.1719 326.477 63.6094C326.076 64.0417 325.552 64.3854 324.906 64.6406C324.266 64.8906 323.474 65.0156 322.531 65.0156H322.383V63.7891Z" fill="#50505A"/>
<path d="M35.375 10.6797H32.4922L32.4766 9.46875H35.0938C35.526 9.46875 35.9036 9.39583 36.2266 9.25C36.5495 9.10417 36.7995 8.89583 36.9766 8.625C37.1589 8.34896 37.25 8.02083 37.25 7.64062C37.25 7.22396 37.1693 6.88542 37.0078 6.625C36.8516 6.35938 36.6094 6.16667 36.2812 6.04688C35.9583 5.92188 35.5469 5.85938 35.0469 5.85938H32.8281V16H31.3203V4.625H35.0469C35.6302 4.625 36.151 4.6849 36.6094 4.80469C37.0677 4.91927 37.4557 5.10156 37.7734 5.35156C38.0964 5.59635 38.3411 5.90885 38.5078 6.28906C38.6745 6.66927 38.7578 7.125 38.7578 7.65625C38.7578 8.125 38.638 8.54948 38.3984 8.92969C38.1589 9.30469 37.8255 9.61198 37.3984 9.85156C36.9766 10.0911 36.4818 10.2448 35.9141 10.3125L35.375 10.6797ZM35.3047 16H31.8984L32.75 14.7734H35.3047C35.7839 14.7734 36.1901 14.6901 36.5234 14.5234C36.862 14.3568 37.1198 14.1224 37.2969 13.8203C37.474 13.513 37.5625 13.151 37.5625 12.7344C37.5625 12.3125 37.487 11.9479 37.3359 11.6406C37.1849 11.3333 36.9479 11.0964 36.625 10.9297C36.3021 10.763 35.8854 10.6797 35.375 10.6797H33.2266L33.2422 9.46875H36.1797L36.5 9.90625C37.0469 9.95312 37.5104 10.1094 37.8906 10.375C38.2708 10.6354 38.5599 10.9688 38.7578 11.375C38.9609 11.7812 39.0625 12.2292 39.0625 12.7188C39.0625 13.4271 38.9062 14.026 38.5938 14.5156C38.2865 15 37.8516 15.3698 37.2891 15.625C36.7266 15.875 36.0651 16 35.3047 16ZM41.375 4.625L44.3281 10.3359L47.2891 4.625H49L45.0781 11.75V16H43.5703V11.75L39.6484 4.625H41.375ZM57.5078 16H55.1328L55.1484 14.7734H57.5078C58.3203 14.7734 58.9974 14.6042 59.5391 14.2656C60.0807 13.9219 60.487 13.4427 60.7578 12.8281C61.0339 12.2083 61.1719 11.4844 61.1719 10.6562V9.96094C61.1719 9.3099 61.0938 8.73177 60.9375 8.22656C60.7812 7.71615 60.5521 7.28646 60.25 6.9375C59.9479 6.58333 59.5781 6.3151 59.1406 6.13281C58.7083 5.95052 58.2109 5.85938 57.6484 5.85938H55.0859V4.625H57.6484C58.3932 4.625 59.0729 4.75 59.6875 5C60.3021 5.24479 60.8307 5.60156 61.2734 6.07031C61.7214 6.53385 62.0651 7.09635 62.3047 7.75781C62.5443 8.41406 62.6641 9.15365 62.6641 9.97656V10.6562C62.6641 11.4792 62.5443 12.2214 62.3047 12.8828C62.0651 13.5391 61.7188 14.099 61.2656 14.5625C60.8177 15.026 60.276 15.3828 59.6406 15.6328C59.0104 15.8776 58.2995 16 57.5078 16ZM55.9375 4.625V16H54.4297V4.625H55.9375ZM68.9688 5.63281L65.2031 16H63.6641L68 4.625H68.9922L68.9688 5.63281ZM72.125 16L68.3516 5.63281L68.3281 4.625H69.3203L73.6719 16H72.125ZM71.9297 11.7891V13.0234H65.5391V11.7891H71.9297ZM74.9844 4.625L77.9375 10.3359L80.8984 4.625H82.6094L78.6875 11.75V16H77.1797V11.75L73.2578 4.625H74.9844Z" fill="#A6AFBD"/>
<path d="M19.5 9.36667V15.5417C19.4987 16.5911 19.0813 17.5972 18.3392 18.3392C17.5972 19.0813 16.5911 19.4987 15.5417 19.5H4.45833C3.4089 19.4987 2.40282 19.0813 1.66076 18.3392C0.918698 17.5972 0.501257 16.5911 0.5 15.5417V9.36667M13.9583 11.9792C14.1932 11.9792 14.4228 12.0488 14.6181 12.1793C14.8134 12.3098 14.9656 12.4952 15.0554 12.7122C15.1453 12.9292 15.1688 13.168 15.123 13.3983C15.0772 13.6287 14.9641 13.8403 14.798 14.0064C14.6319 14.1724 14.4204 14.2855 14.19 14.3313C13.9597 14.3772 13.7209 14.3537 13.5039 14.2638C13.2869 14.1739 13.1014 14.0217 12.971 13.8264C12.8405 13.6311 12.7708 13.4015 12.7708 13.1667C12.7708 12.8517 12.8959 12.5497 13.1186 12.327C13.3413 12.1043 13.6434 11.9792 13.9583 11.9792ZM10 11.9792C10.2349 11.9792 10.4645 12.0488 10.6597 12.1793C10.855 12.3098 11.0072 12.4952 11.0971 12.7122C11.187 12.9292 11.2105 13.168 11.1647 13.3983C11.1189 13.6287 11.0058 13.8403 10.8397 14.0064C10.6736 14.1724 10.462 14.2855 10.2317 14.3313C10.0013 14.3772 9.76255 14.3537 9.54556 14.2638C9.32858 14.1739 9.14311 14.0217 9.01263 13.8264C8.88215 13.6311 8.8125 13.4015 8.8125 13.1667C8.8125 12.8517 8.93761 12.5497 9.16031 12.327C9.38301 12.1043 9.68506 11.9792 10 11.9792ZM6.04167 11.9792C6.27653 11.9792 6.50612 12.0488 6.70141 12.1793C6.89669 12.3098 7.04889 12.4952 7.13877 12.7122C7.22865 12.9292 7.25217 13.168 7.20635 13.3983C7.16053 13.6287 7.04743 13.8403 6.88136 14.0064C6.71528 14.1724 6.50369 14.2855 6.27334 14.3313C6.04298 14.3772 5.80422 14.3537 5.58723 14.2638C5.37024 14.1739 5.18478 14.0217 5.0543 13.8264C4.92381 13.6311 4.85417 13.4015 4.85417 13.1667C4.85417 12.8517 4.97928 12.5497 5.20198 12.327C5.42468 12.1043 5.72672 11.9792 6.04167 11.9792ZM15.5417 2.08333H14.75V1.29167C14.75 1.0817 14.6666 0.88034 14.5181 0.731874C14.3697 0.583408 14.1683 0.5 13.9583 0.5C13.7484 0.5 13.547 0.583408 13.3985 0.731874C13.2501 0.88034 13.1667 1.0817 13.1667 1.29167V2.08333H6.83333V1.29167C6.83333 1.0817 6.74993 0.88034 6.60146 0.731874C6.45299 0.583408 6.25163 0.5 6.04167 0.5C5.8317 0.5 5.63034 0.583408 5.48187 0.731874C5.33341 0.88034 5.25 1.0817 5.25 1.29167V2.08333H4.45833C3.4089 2.08459 2.40282 2.50203 1.66076 3.24409C0.918698 3.98615 0.501257 4.99224 0.5 6.04167V6.04167C0.5 6.47889 0.854441 6.83333 1.29167 6.83333H18.7083C19.1456 6.83333 19.5 6.47889 19.5 6.04167V6.04167C19.4987 4.99224 19.0813 3.98615 18.3392 3.24409C17.5972 2.50203 16.5911 2.08459 15.5417 2.08333Z" stroke="#A6AFBD" stroke-linecap="round"/>
</svg>
