<svg width="389" height="205" viewBox="0 0 389 205" fill="none" xmlns="http://www.w3.org/2000/svg">
<rect x="43" y="191" width="153" height="10" rx="1" fill="#A6AFBD"/>
<path d="M13.8047 198.203C13.8047 197.891 13.7526 197.612 13.6484 197.367C13.5443 197.122 13.3724 196.904 13.1328 196.711C12.8984 196.513 12.5807 196.331 12.1797 196.164C11.7839 195.992 11.2891 195.823 10.6953 195.656C10.1276 195.495 9.61458 195.318 9.15625 195.125C8.69792 194.932 8.30469 194.711 7.97656 194.461C7.65365 194.211 7.40625 193.919 7.23438 193.586C7.0625 193.247 6.97656 192.854 6.97656 192.406C6.97656 191.969 7.07031 191.57 7.25781 191.211C7.44531 190.852 7.70833 190.542 8.04688 190.281C8.39062 190.021 8.79427 189.82 9.25781 189.68C9.72656 189.539 10.2396 189.469 10.7969 189.469C11.5938 189.469 12.2812 189.62 12.8594 189.922C13.4427 190.224 13.8932 190.633 14.2109 191.148C14.5339 191.659 14.6953 192.232 14.6953 192.867H13.7344C13.7344 192.372 13.6172 191.932 13.3828 191.547C13.1536 191.156 12.8203 190.852 12.3828 190.633C11.9505 190.409 11.4219 190.297 10.7969 190.297C10.1719 190.297 9.64583 190.393 9.21875 190.586C8.79688 190.773 8.47656 191.026 8.25781 191.344C8.04427 191.656 7.9375 192.005 7.9375 192.391C7.9375 192.661 7.98958 192.911 8.09375 193.141C8.19792 193.365 8.36719 193.576 8.60156 193.773C8.84115 193.966 9.15625 194.148 9.54688 194.32C9.9375 194.487 10.4193 194.646 10.9922 194.797C11.5964 194.964 12.1328 195.148 12.6016 195.352C13.0703 195.555 13.4661 195.789 13.7891 196.055C14.112 196.315 14.3568 196.62 14.5234 196.969C14.6901 197.318 14.7734 197.724 14.7734 198.188C14.7734 198.651 14.6745 199.068 14.4766 199.438C14.2839 199.802 14.0104 200.112 13.6562 200.367C13.3073 200.622 12.8932 200.818 12.4141 200.953C11.9401 201.089 11.4219 201.156 10.8594 201.156C10.3542 201.156 9.85156 201.091 9.35156 200.961C8.85156 200.831 8.39323 200.63 7.97656 200.359C7.5651 200.083 7.23438 199.729 6.98438 199.297C6.73958 198.865 6.61719 198.349 6.61719 197.75H7.57031C7.57031 198.229 7.66667 198.633 7.85938 198.961C8.05208 199.289 8.30729 199.555 8.625 199.758C8.94792 199.961 9.30208 200.109 9.6875 200.203C10.0781 200.292 10.4688 200.336 10.8594 200.336C11.4583 200.336 11.9766 200.247 12.4141 200.07C12.8568 199.893 13.1979 199.646 13.4375 199.328C13.6823 199.005 13.8047 198.63 13.8047 198.203ZM22.0469 199.047V192.547H22.9844V201H22.0859L22.0469 199.047ZM22.2188 197.484L22.7031 197.469C22.7031 198 22.6406 198.49 22.5156 198.938C22.3906 199.385 22.1953 199.776 21.9297 200.109C21.6641 200.443 21.3203 200.701 20.8984 200.883C20.4766 201.065 19.9688 201.156 19.375 201.156C18.9635 201.156 18.5859 201.099 18.2422 200.984C17.9036 200.865 17.612 200.677 17.3672 200.422C17.1224 200.167 16.9323 199.836 16.7969 199.43C16.6667 199.023 16.6016 198.531 16.6016 197.953V192.547H17.5312V197.969C17.5312 198.422 17.5807 198.799 17.6797 199.102C17.7839 199.404 17.9245 199.646 18.1016 199.828C18.2839 200.01 18.4922 200.141 18.7266 200.219C18.9609 200.297 19.2135 200.336 19.4844 200.336C20.1719 200.336 20.7135 200.203 21.1094 199.938C21.5104 199.672 21.7943 199.323 21.9609 198.891C22.1328 198.453 22.2188 197.984 22.2188 197.484ZM26.3594 194.352V201H25.4297V192.547H26.3203L26.3594 194.352ZM26.1484 196.25L25.7344 196.016C25.7656 195.516 25.8672 195.047 26.0391 194.609C26.2109 194.172 26.4427 193.786 26.7344 193.453C27.0312 193.12 27.3776 192.859 27.7734 192.672C28.1745 192.484 28.6172 192.391 29.1016 192.391C29.5234 192.391 29.901 192.448 30.2344 192.562C30.5677 192.677 30.8516 192.859 31.0859 193.109C31.3203 193.359 31.4974 193.68 31.6172 194.07C31.7422 194.461 31.8047 194.938 31.8047 195.5V201H30.8672V195.492C30.8672 194.909 30.7865 194.453 30.625 194.125C30.4635 193.792 30.2344 193.555 29.9375 193.414C29.6406 193.273 29.2891 193.203 28.8828 193.203C28.4349 193.203 28.0417 193.302 27.7031 193.5C27.3698 193.693 27.0885 193.945 26.8594 194.258C26.6354 194.565 26.4635 194.896 26.3438 195.25C26.224 195.599 26.1589 195.932 26.1484 196.25Z" fill="#50505A"/>
<path d="M210.438 194.312V196.281C210.438 197.135 210.346 197.872 210.164 198.492C209.982 199.107 209.719 199.612 209.375 200.008C209.036 200.398 208.633 200.688 208.164 200.875C207.695 201.062 207.174 201.156 206.602 201.156C206.143 201.156 205.716 201.099 205.32 200.984C204.924 200.865 204.568 200.68 204.25 200.43C203.938 200.18 203.667 199.865 203.438 199.484C203.214 199.099 203.042 198.641 202.922 198.109C202.802 197.578 202.742 196.969 202.742 196.281V194.312C202.742 193.458 202.833 192.727 203.016 192.117C203.203 191.503 203.466 191 203.805 190.609C204.148 190.219 204.555 189.932 205.023 189.75C205.492 189.562 206.013 189.469 206.586 189.469C207.044 189.469 207.469 189.529 207.859 189.648C208.255 189.763 208.612 189.943 208.93 190.188C209.247 190.432 209.518 190.747 209.742 191.133C209.966 191.513 210.138 191.969 210.258 192.5C210.378 193.026 210.438 193.63 210.438 194.312ZM208.18 196.578V194.008C208.18 193.596 208.156 193.237 208.109 192.93C208.068 192.622 208.003 192.362 207.914 192.148C207.826 191.93 207.716 191.753 207.586 191.617C207.456 191.482 207.307 191.383 207.141 191.32C206.974 191.258 206.789 191.227 206.586 191.227C206.331 191.227 206.104 191.276 205.906 191.375C205.714 191.474 205.549 191.633 205.414 191.852C205.279 192.065 205.174 192.352 205.102 192.711C205.034 193.065 205 193.497 205 194.008V196.578C205 196.99 205.021 197.352 205.062 197.664C205.109 197.977 205.177 198.245 205.266 198.469C205.359 198.688 205.469 198.867 205.594 199.008C205.724 199.143 205.872 199.242 206.039 199.305C206.211 199.367 206.398 199.398 206.602 199.398C206.852 199.398 207.073 199.349 207.266 199.25C207.464 199.146 207.63 198.984 207.766 198.766C207.906 198.542 208.01 198.25 208.078 197.891C208.146 197.531 208.18 197.094 208.18 196.578Z" fill="#50505A"/>
<rect x="43" y="167" width="330" height="10" rx="1" fill="#A6AFBD"/>
<path d="M17.6641 174.203C17.6641 173.891 17.612 173.612 17.5078 173.367C17.4036 173.122 17.2318 172.904 16.9922 172.711C16.7578 172.513 16.4401 172.331 16.0391 172.164C15.6432 171.992 15.1484 171.823 14.5547 171.656C13.987 171.495 13.474 171.318 13.0156 171.125C12.5573 170.932 12.1641 170.711 11.8359 170.461C11.513 170.211 11.2656 169.919 11.0938 169.586C10.9219 169.247 10.8359 168.854 10.8359 168.406C10.8359 167.969 10.9297 167.57 11.1172 167.211C11.3047 166.852 11.5677 166.542 11.9062 166.281C12.25 166.021 12.6536 165.82 13.1172 165.68C13.5859 165.539 14.099 165.469 14.6562 165.469C15.4531 165.469 16.1406 165.62 16.7188 165.922C17.3021 166.224 17.7526 166.633 18.0703 167.148C18.3932 167.659 18.5547 168.232 18.5547 168.867H17.5938C17.5938 168.372 17.4766 167.932 17.2422 167.547C17.013 167.156 16.6797 166.852 16.2422 166.633C15.8099 166.409 15.2812 166.297 14.6562 166.297C14.0312 166.297 13.5052 166.393 13.0781 166.586C12.6562 166.773 12.3359 167.026 12.1172 167.344C11.9036 167.656 11.7969 168.005 11.7969 168.391C11.7969 168.661 11.849 168.911 11.9531 169.141C12.0573 169.365 12.2266 169.576 12.4609 169.773C12.7005 169.966 13.0156 170.148 13.4062 170.32C13.7969 170.487 14.2786 170.646 14.8516 170.797C15.4557 170.964 15.9922 171.148 16.4609 171.352C16.9297 171.555 17.3255 171.789 17.6484 172.055C17.9714 172.315 18.2161 172.62 18.3828 172.969C18.5495 173.318 18.6328 173.724 18.6328 174.188C18.6328 174.651 18.5339 175.068 18.3359 175.438C18.1432 175.802 17.8698 176.112 17.5156 176.367C17.1667 176.622 16.7526 176.818 16.2734 176.953C15.7995 177.089 15.2812 177.156 14.7188 177.156C14.2135 177.156 13.7109 177.091 13.2109 176.961C12.7109 176.831 12.2526 176.63 11.8359 176.359C11.4245 176.083 11.0938 175.729 10.8438 175.297C10.599 174.865 10.4766 174.349 10.4766 173.75H11.4297C11.4297 174.229 11.526 174.633 11.7188 174.961C11.9115 175.289 12.1667 175.555 12.4844 175.758C12.8073 175.961 13.1615 176.109 13.5469 176.203C13.9375 176.292 14.3281 176.336 14.7188 176.336C15.3177 176.336 15.8359 176.247 16.2734 176.07C16.7161 175.893 17.0573 175.646 17.2969 175.328C17.5417 175.005 17.6641 174.63 17.6641 174.203ZM25.6328 175.484V171.125C25.6328 170.724 25.5495 170.378 25.3828 170.086C25.2161 169.794 24.9714 169.57 24.6484 169.414C24.3255 169.258 23.9271 169.18 23.4531 169.18C23.0156 169.18 22.625 169.258 22.2812 169.414C21.9427 169.565 21.6745 169.771 21.4766 170.031C21.2839 170.286 21.1875 170.57 21.1875 170.883L20.25 170.875C20.25 170.557 20.3281 170.25 20.4844 169.953C20.6406 169.656 20.862 169.391 21.1484 169.156C21.4349 168.922 21.776 168.737 22.1719 168.602C22.5729 168.461 23.013 168.391 23.4922 168.391C24.0964 168.391 24.6276 168.492 25.0859 168.695C25.5495 168.898 25.9115 169.203 26.1719 169.609C26.4323 170.016 26.5625 170.526 26.5625 171.141V175.227C26.5625 175.518 26.5833 175.82 26.625 176.133C26.6719 176.445 26.737 176.703 26.8203 176.906V177H25.8281C25.7656 176.812 25.7161 176.578 25.6797 176.297C25.6484 176.01 25.6328 175.74 25.6328 175.484ZM25.8516 172.078L25.8672 172.797H24.0312C23.5521 172.797 23.1224 172.841 22.7422 172.93C22.3672 173.013 22.0495 173.138 21.7891 173.305C21.5286 173.466 21.3281 173.661 21.1875 173.891C21.0521 174.12 20.9844 174.38 20.9844 174.672C20.9844 174.974 21.0599 175.25 21.2109 175.5C21.3672 175.75 21.5859 175.951 21.8672 176.102C22.1536 176.247 22.4922 176.32 22.8828 176.32C23.4036 176.32 23.862 176.224 24.2578 176.031C24.6589 175.839 24.9896 175.586 25.25 175.273C25.5104 174.961 25.6849 174.62 25.7734 174.25L26.1797 174.789C26.112 175.049 25.987 175.318 25.8047 175.594C25.6276 175.865 25.3958 176.12 25.1094 176.359C24.8229 176.594 24.4844 176.786 24.0938 176.938C23.7083 177.083 23.2708 177.156 22.7812 177.156C22.2292 177.156 21.7474 177.052 21.3359 176.844C20.9297 176.635 20.612 176.352 20.3828 175.992C20.1589 175.628 20.0469 175.216 20.0469 174.758C20.0469 174.341 20.1354 173.969 20.3125 173.641C20.4896 173.307 20.7448 173.026 21.0781 172.797C21.4167 172.562 21.8229 172.385 22.2969 172.266C22.776 172.141 23.3125 172.078 23.9062 172.078H25.8516ZM32.2656 168.547V169.312H28.0312V168.547H32.2656ZM29.5859 166.375H30.5156V174.945C30.5156 175.336 30.5677 175.63 30.6719 175.828C30.776 176.026 30.9115 176.159 31.0781 176.227C31.2448 176.294 31.4245 176.328 31.6172 176.328C31.7578 176.328 31.8932 176.32 32.0234 176.305C32.1536 176.284 32.2708 176.263 32.375 176.242L32.4141 177.031C32.2995 177.068 32.151 177.096 31.9688 177.117C31.7865 177.143 31.6042 177.156 31.4219 177.156C31.0625 177.156 30.7448 177.091 30.4688 176.961C30.1927 176.826 29.9766 176.596 29.8203 176.273C29.6641 175.945 29.5859 175.5 29.5859 174.938V166.375Z" fill="#50505A"/>
<path d="M387.438 170.312V172.281C387.438 173.135 387.346 173.872 387.164 174.492C386.982 175.107 386.719 175.612 386.375 176.008C386.036 176.398 385.633 176.688 385.164 176.875C384.695 177.062 384.174 177.156 383.602 177.156C383.143 177.156 382.716 177.099 382.32 176.984C381.924 176.865 381.568 176.68 381.25 176.43C380.938 176.18 380.667 175.865 380.438 175.484C380.214 175.099 380.042 174.641 379.922 174.109C379.802 173.578 379.742 172.969 379.742 172.281V170.312C379.742 169.458 379.833 168.727 380.016 168.117C380.203 167.503 380.466 167 380.805 166.609C381.148 166.219 381.555 165.932 382.023 165.75C382.492 165.562 383.013 165.469 383.586 165.469C384.044 165.469 384.469 165.529 384.859 165.648C385.255 165.763 385.612 165.943 385.93 166.188C386.247 166.432 386.518 166.747 386.742 167.133C386.966 167.513 387.138 167.969 387.258 168.5C387.378 169.026 387.438 169.63 387.438 170.312ZM385.18 172.578V170.008C385.18 169.596 385.156 169.237 385.109 168.93C385.068 168.622 385.003 168.362 384.914 168.148C384.826 167.93 384.716 167.753 384.586 167.617C384.456 167.482 384.307 167.383 384.141 167.32C383.974 167.258 383.789 167.227 383.586 167.227C383.331 167.227 383.104 167.276 382.906 167.375C382.714 167.474 382.549 167.633 382.414 167.852C382.279 168.065 382.174 168.352 382.102 168.711C382.034 169.065 382 169.497 382 170.008V172.578C382 172.99 382.021 173.352 382.062 173.664C382.109 173.977 382.177 174.245 382.266 174.469C382.359 174.688 382.469 174.867 382.594 175.008C382.724 175.143 382.872 175.242 383.039 175.305C383.211 175.367 383.398 175.398 383.602 175.398C383.852 175.398 384.073 175.349 384.266 175.25C384.464 175.146 384.63 174.984 384.766 174.766C384.906 174.542 385.01 174.25 385.078 173.891C385.146 173.531 385.18 173.094 385.18 172.578Z" fill="#50505A"/>
<rect x="43" y="143" width="284" height="10" rx="1" fill="#50505A"/>
<path d="M17.625 141.625V153H16.6641V141.625H17.625ZM22.9219 146.859V147.688H17.3047V146.859H22.9219ZM23.7109 141.625V142.453H17.3047V141.625H23.7109ZM26.1719 145.945V153H25.2422V144.547H26.1484L26.1719 145.945ZM29.1641 144.484L29.1406 145.344C29.0365 145.328 28.9349 145.315 28.8359 145.305C28.737 145.294 28.6302 145.289 28.5156 145.289C28.1094 145.289 27.7526 145.365 27.4453 145.516C27.1432 145.661 26.888 145.867 26.6797 146.133C26.4714 146.393 26.3125 146.701 26.2031 147.055C26.0938 147.404 26.0312 147.779 26.0156 148.18L25.6719 148.312C25.6719 147.76 25.7292 147.247 25.8438 146.773C25.9583 146.299 26.1328 145.885 26.3672 145.531C26.6068 145.172 26.9062 144.893 27.2656 144.695C27.6302 144.492 28.0573 144.391 28.5469 144.391C28.6667 144.391 28.7839 144.401 28.8984 144.422C29.0182 144.438 29.1068 144.458 29.1641 144.484ZM31.6719 144.547V153H30.7422V144.547H31.6719ZM30.5781 142.102C30.5781 141.924 30.6328 141.776 30.7422 141.656C30.8568 141.531 31.013 141.469 31.2109 141.469C31.4089 141.469 31.5651 141.531 31.6797 141.656C31.7995 141.776 31.8594 141.924 31.8594 142.102C31.8594 142.273 31.7995 142.422 31.6797 142.547C31.5651 142.667 31.4089 142.727 31.2109 142.727C31.013 142.727 30.8568 142.667 30.7422 142.547C30.6328 142.422 30.5781 142.273 30.5781 142.102Z" fill="#50505A"/>
<path d="M341.438 146.312V148.281C341.438 149.135 341.346 149.872 341.164 150.492C340.982 151.107 340.719 151.612 340.375 152.008C340.036 152.398 339.633 152.688 339.164 152.875C338.695 153.062 338.174 153.156 337.602 153.156C337.143 153.156 336.716 153.099 336.32 152.984C335.924 152.865 335.568 152.68 335.25 152.43C334.938 152.18 334.667 151.865 334.438 151.484C334.214 151.099 334.042 150.641 333.922 150.109C333.802 149.578 333.742 148.969 333.742 148.281V146.312C333.742 145.458 333.833 144.727 334.016 144.117C334.203 143.503 334.466 143 334.805 142.609C335.148 142.219 335.555 141.932 336.023 141.75C336.492 141.562 337.013 141.469 337.586 141.469C338.044 141.469 338.469 141.529 338.859 141.648C339.255 141.763 339.612 141.943 339.93 142.188C340.247 142.432 340.518 142.747 340.742 143.133C340.966 143.513 341.138 143.969 341.258 144.5C341.378 145.026 341.438 145.63 341.438 146.312ZM339.18 148.578V146.008C339.18 145.596 339.156 145.237 339.109 144.93C339.068 144.622 339.003 144.362 338.914 144.148C338.826 143.93 338.716 143.753 338.586 143.617C338.456 143.482 338.307 143.383 338.141 143.32C337.974 143.258 337.789 143.227 337.586 143.227C337.331 143.227 337.104 143.276 336.906 143.375C336.714 143.474 336.549 143.633 336.414 143.852C336.279 144.065 336.174 144.352 336.102 144.711C336.034 145.065 336 145.497 336 146.008V148.578C336 148.99 336.021 149.352 336.062 149.664C336.109 149.977 336.177 150.245 336.266 150.469C336.359 150.688 336.469 150.867 336.594 151.008C336.724 151.143 336.872 151.242 337.039 151.305C337.211 151.367 337.398 151.398 337.602 151.398C337.852 151.398 338.073 151.349 338.266 151.25C338.464 151.146 338.63 150.984 338.766 150.766C338.906 150.542 339.01 150.25 339.078 149.891C339.146 149.531 339.18 149.094 339.18 148.578Z" fill="#50505A"/>
<rect x="43" y="119" width="195" height="10" rx="1" fill="#50505A"/>
<path d="M11.1172 117.625V129H10.1641V117.625H11.1172ZM15.0156 117.625V118.453H6.27344V117.625H15.0156ZM17.5781 117V129H16.6484V117H17.5781ZM17.3672 124.25L16.9531 124.016C16.9844 123.516 17.0859 123.047 17.2578 122.609C17.4297 122.172 17.6615 121.786 17.9531 121.453C18.25 121.12 18.5964 120.859 18.9922 120.672C19.3932 120.484 19.8359 120.391 20.3203 120.391C20.7422 120.391 21.1198 120.448 21.4531 120.562C21.7865 120.677 22.0703 120.859 22.3047 121.109C22.5391 121.359 22.7161 121.68 22.8359 122.07C22.9609 122.461 23.0234 122.938 23.0234 123.5V129H22.0859V123.492C22.0859 122.909 22.0052 122.453 21.8438 122.125C21.6823 121.792 21.4531 121.555 21.1562 121.414C20.8594 121.273 20.5078 121.203 20.1016 121.203C19.6536 121.203 19.2604 121.302 18.9219 121.5C18.5885 121.693 18.3073 121.945 18.0781 122.258C17.8542 122.565 17.6823 122.896 17.5625 123.25C17.4427 123.599 17.3776 123.932 17.3672 124.25ZM30.8438 127.047V120.547H31.7812V129H30.8828L30.8438 127.047ZM31.0156 125.484L31.5 125.469C31.5 126 31.4375 126.49 31.3125 126.938C31.1875 127.385 30.9922 127.776 30.7266 128.109C30.4609 128.443 30.1172 128.701 29.6953 128.883C29.2734 129.065 28.7656 129.156 28.1719 129.156C27.7604 129.156 27.3828 129.099 27.0391 128.984C26.7005 128.865 26.4089 128.677 26.1641 128.422C25.9193 128.167 25.7292 127.836 25.5938 127.43C25.4635 127.023 25.3984 126.531 25.3984 125.953V120.547H26.3281V125.969C26.3281 126.422 26.3776 126.799 26.4766 127.102C26.5807 127.404 26.7214 127.646 26.8984 127.828C27.0807 128.01 27.2891 128.141 27.5234 128.219C27.7578 128.297 28.0104 128.336 28.2812 128.336C28.9688 128.336 29.5104 128.203 29.9062 127.938C30.3073 127.672 30.5911 127.323 30.7578 126.891C30.9297 126.453 31.0156 125.984 31.0156 125.484Z" fill="#50505A"/>
<path d="M252.438 122.312V124.281C252.438 125.135 252.346 125.872 252.164 126.492C251.982 127.107 251.719 127.612 251.375 128.008C251.036 128.398 250.633 128.688 250.164 128.875C249.695 129.062 249.174 129.156 248.602 129.156C248.143 129.156 247.716 129.099 247.32 128.984C246.924 128.865 246.568 128.68 246.25 128.43C245.938 128.18 245.667 127.865 245.438 127.484C245.214 127.099 245.042 126.641 244.922 126.109C244.802 125.578 244.742 124.969 244.742 124.281V122.312C244.742 121.458 244.833 120.727 245.016 120.117C245.203 119.503 245.466 119 245.805 118.609C246.148 118.219 246.555 117.932 247.023 117.75C247.492 117.562 248.013 117.469 248.586 117.469C249.044 117.469 249.469 117.529 249.859 117.648C250.255 117.763 250.612 117.943 250.93 118.188C251.247 118.432 251.518 118.747 251.742 119.133C251.966 119.513 252.138 119.969 252.258 120.5C252.378 121.026 252.438 121.63 252.438 122.312ZM250.18 124.578V122.008C250.18 121.596 250.156 121.237 250.109 120.93C250.068 120.622 250.003 120.362 249.914 120.148C249.826 119.93 249.716 119.753 249.586 119.617C249.456 119.482 249.307 119.383 249.141 119.32C248.974 119.258 248.789 119.227 248.586 119.227C248.331 119.227 248.104 119.276 247.906 119.375C247.714 119.474 247.549 119.633 247.414 119.852C247.279 120.065 247.174 120.352 247.102 120.711C247.034 121.065 247 121.497 247 122.008V124.578C247 124.99 247.021 125.352 247.062 125.664C247.109 125.977 247.177 126.245 247.266 126.469C247.359 126.688 247.469 126.867 247.594 127.008C247.724 127.143 247.872 127.242 248.039 127.305C248.211 127.367 248.398 127.398 248.602 127.398C248.852 127.398 249.073 127.349 249.266 127.25C249.464 127.146 249.63 126.984 249.766 126.766C249.906 126.542 250.01 126.25 250.078 125.891C250.146 125.531 250.18 125.094 250.18 124.578Z" fill="#50505A"/>
<rect x="43" y="95" width="261" height="10" rx="1" fill="#50505A"/>
<path d="M6.0625 101.992L8.53125 93.625H9.30469L8.67969 96.1094L6.04688 105H5.30469L6.0625 101.992ZM3.19531 93.625L5.27344 101.914L5.89844 105H5.125L2.21094 93.625H3.19531ZM12.6328 101.914L14.6797 93.625H15.6641L12.7578 105H11.9844L12.6328 101.914ZM9.39062 93.625L11.8281 101.992L12.5781 105H11.8359L9.25781 96.1094L8.625 93.625H9.39062ZM20.3203 105.156C19.7682 105.156 19.2604 105.055 18.7969 104.852C18.3385 104.648 17.9375 104.362 17.5938 103.992C17.2552 103.622 16.9922 103.185 16.8047 102.68C16.6224 102.169 16.5312 101.612 16.5312 101.008V100.672C16.5312 100.021 16.6276 99.4323 16.8203 98.9062C17.013 98.3802 17.2786 97.9297 17.6172 97.5547C17.9557 97.1797 18.3411 96.8932 18.7734 96.6953C19.2109 96.4922 19.6693 96.3906 20.1484 96.3906C20.6849 96.3906 21.1615 96.487 21.5781 96.6797C21.9948 96.8672 22.3438 97.1354 22.625 97.4844C22.9115 97.8281 23.1276 98.237 23.2734 98.7109C23.4193 99.1797 23.4922 99.6979 23.4922 100.266V100.836H17.0938V100.039H22.5625V99.9297C22.5521 99.4557 22.4557 99.013 22.2734 98.6016C22.0964 98.1849 21.8307 97.8464 21.4766 97.5859C21.1224 97.3255 20.6797 97.1953 20.1484 97.1953C19.7526 97.1953 19.388 97.2786 19.0547 97.4453C18.7266 97.612 18.4427 97.8516 18.2031 98.1641C17.9688 98.4714 17.7865 98.8385 17.6562 99.2656C17.5312 99.6875 17.4688 100.156 17.4688 100.672V101.008C17.4688 101.477 17.5365 101.914 17.6719 102.32C17.8125 102.721 18.0104 103.076 18.2656 103.383C18.526 103.69 18.8333 103.93 19.1875 104.102C19.5417 104.273 19.9323 104.359 20.3594 104.359C20.8594 104.359 21.3021 104.268 21.6875 104.086C22.0729 103.898 22.4193 103.604 22.7266 103.203L23.3125 103.656C23.1302 103.927 22.901 104.177 22.625 104.406C22.3542 104.635 22.0286 104.818 21.6484 104.953C21.2682 105.089 20.8255 105.156 20.3203 105.156ZM30.8281 103.359V93H31.7656V105H30.8906L30.8281 103.359ZM24.9609 100.859V100.695C24.9609 100.039 25.0365 99.4479 25.1875 98.9219C25.3385 98.3906 25.5547 97.9375 25.8359 97.5625C26.1224 97.1823 26.4661 96.8932 26.8672 96.6953C27.2682 96.4922 27.7214 96.3906 28.2266 96.3906C28.7214 96.3906 29.1589 96.4714 29.5391 96.6328C29.9193 96.7943 30.2448 97.026 30.5156 97.3281C30.7917 97.6302 31.013 97.9896 31.1797 98.4062C31.3516 98.8229 31.4766 99.2865 31.5547 99.7969V101.883C31.4922 102.362 31.3776 102.802 31.2109 103.203C31.0443 103.599 30.8229 103.945 30.5469 104.242C30.2708 104.534 29.9375 104.76 29.5469 104.922C29.1615 105.078 28.7161 105.156 28.2109 105.156C27.7109 105.156 27.2604 105.052 26.8594 104.844C26.4583 104.635 26.1172 104.341 25.8359 103.961C25.5547 103.576 25.3385 103.12 25.1875 102.594C25.0365 102.068 24.9609 101.49 24.9609 100.859ZM25.8984 100.695V100.859C25.8984 101.354 25.9479 101.812 26.0469 102.234C26.1458 102.656 26.2969 103.023 26.5 103.336C26.7031 103.648 26.9609 103.893 27.2734 104.07C27.5859 104.247 27.9557 104.336 28.3828 104.336C28.9193 104.336 29.3698 104.234 29.7344 104.031C30.099 103.823 30.3906 103.549 30.6094 103.211C30.8281 102.867 30.987 102.492 31.0859 102.086V99.6562C31.0234 99.3802 30.9323 99.099 30.8125 98.8125C30.6927 98.526 30.5286 98.263 30.3203 98.0234C30.1172 97.7786 29.8568 97.5833 29.5391 97.4375C29.2266 97.2865 28.8464 97.2109 28.3984 97.2109C27.9661 97.2109 27.5938 97.2995 27.2812 97.4766C26.9688 97.6536 26.7083 97.901 26.5 98.2188C26.2969 98.5312 26.1458 98.8984 26.0469 99.3203C25.9479 99.7422 25.8984 100.201 25.8984 100.695Z" fill="#50505A"/>
<path d="M318.438 98.3125V100.281C318.438 101.135 318.346 101.872 318.164 102.492C317.982 103.107 317.719 103.612 317.375 104.008C317.036 104.398 316.633 104.688 316.164 104.875C315.695 105.062 315.174 105.156 314.602 105.156C314.143 105.156 313.716 105.099 313.32 104.984C312.924 104.865 312.568 104.68 312.25 104.43C311.938 104.18 311.667 103.865 311.438 103.484C311.214 103.099 311.042 102.641 310.922 102.109C310.802 101.578 310.742 100.969 310.742 100.281V98.3125C310.742 97.4583 310.833 96.7266 311.016 96.1172C311.203 95.5026 311.466 95 311.805 94.6094C312.148 94.2188 312.555 93.9323 313.023 93.75C313.492 93.5625 314.013 93.4688 314.586 93.4688C315.044 93.4688 315.469 93.5286 315.859 93.6484C316.255 93.763 316.612 93.9427 316.93 94.1875C317.247 94.4323 317.518 94.7474 317.742 95.1328C317.966 95.513 318.138 95.9688 318.258 96.5C318.378 97.026 318.438 97.6302 318.438 98.3125ZM316.18 100.578V98.0078C316.18 97.5964 316.156 97.237 316.109 96.9297C316.068 96.6224 316.003 96.362 315.914 96.1484C315.826 95.9297 315.716 95.7526 315.586 95.6172C315.456 95.4818 315.307 95.3828 315.141 95.3203C314.974 95.2578 314.789 95.2266 314.586 95.2266C314.331 95.2266 314.104 95.276 313.906 95.375C313.714 95.474 313.549 95.6328 313.414 95.8516C313.279 96.0651 313.174 96.3516 313.102 96.7109C313.034 97.0651 313 97.4974 313 98.0078V100.578C313 100.99 313.021 101.352 313.062 101.664C313.109 101.977 313.177 102.245 313.266 102.469C313.359 102.688 313.469 102.867 313.594 103.008C313.724 103.143 313.872 103.242 314.039 103.305C314.211 103.367 314.398 103.398 314.602 103.398C314.852 103.398 315.073 103.349 315.266 103.25C315.464 103.146 315.63 102.984 315.766 102.766C315.906 102.542 316.01 102.25 316.078 101.891C316.146 101.531 316.18 101.094 316.18 100.578Z" fill="#50505A"/>
<rect x="43" y="71" width="310" height="10" rx="1" fill="#50505A"/>
<path d="M12.3672 69.625V81H11.4141V69.625H12.3672ZM16.2656 69.625V70.4531H7.52344V69.625H16.2656ZM22.5625 79.0469V72.5469H23.5V81H22.6016L22.5625 79.0469ZM22.7344 77.4844L23.2188 77.4688C23.2188 78 23.1562 78.4896 23.0312 78.9375C22.9062 79.3854 22.7109 79.776 22.4453 80.1094C22.1797 80.4427 21.8359 80.7005 21.4141 80.8828C20.9922 81.0651 20.4844 81.1562 19.8906 81.1562C19.4792 81.1562 19.1016 81.099 18.7578 80.9844C18.4193 80.8646 18.1276 80.6771 17.8828 80.4219C17.638 80.1667 17.4479 79.8359 17.3125 79.4297C17.1823 79.0234 17.1172 78.5312 17.1172 77.9531V72.5469H18.0469V77.9688C18.0469 78.4219 18.0964 78.7995 18.1953 79.1016C18.2995 79.4036 18.4401 79.6458 18.6172 79.8281C18.7995 80.0104 19.0078 80.1406 19.2422 80.2188C19.4766 80.2969 19.7292 80.3359 20 80.3359C20.6875 80.3359 21.2292 80.2031 21.625 79.9375C22.026 79.6719 22.3099 79.3229 22.4766 78.8906C22.6484 78.4531 22.7344 77.9844 22.7344 77.4844ZM29.2109 81.1562C28.6589 81.1562 28.151 81.0547 27.6875 80.8516C27.2292 80.6484 26.8281 80.362 26.4844 79.9922C26.1458 79.6224 25.8828 79.1849 25.6953 78.6797C25.513 78.1693 25.4219 77.612 25.4219 77.0078V76.6719C25.4219 76.0208 25.5182 75.4323 25.7109 74.9062C25.9036 74.3802 26.1693 73.9297 26.5078 73.5547C26.8464 73.1797 27.2318 72.8932 27.6641 72.6953C28.1016 72.4922 28.5599 72.3906 29.0391 72.3906C29.5755 72.3906 30.0521 72.487 30.4688 72.6797C30.8854 72.8672 31.2344 73.1354 31.5156 73.4844C31.8021 73.8281 32.0182 74.237 32.1641 74.7109C32.3099 75.1797 32.3828 75.6979 32.3828 76.2656V76.8359H25.9844V76.0391H31.4531V75.9297C31.4427 75.4557 31.3464 75.013 31.1641 74.6016C30.987 74.1849 30.7214 73.8464 30.3672 73.5859C30.013 73.3255 29.5703 73.1953 29.0391 73.1953C28.6432 73.1953 28.2786 73.2786 27.9453 73.4453C27.6172 73.612 27.3333 73.8516 27.0938 74.1641C26.8594 74.4714 26.6771 74.8385 26.5469 75.2656C26.4219 75.6875 26.3594 76.1562 26.3594 76.6719V77.0078C26.3594 77.4766 26.4271 77.9141 26.5625 78.3203C26.7031 78.7214 26.901 79.0755 27.1562 79.3828C27.4167 79.6901 27.724 79.9297 28.0781 80.1016C28.4323 80.2734 28.8229 80.3594 29.25 80.3594C29.75 80.3594 30.1927 80.2682 30.5781 80.0859C30.9635 79.8984 31.3099 79.6042 31.6172 79.2031L32.2031 79.6562C32.0208 79.9271 31.7917 80.1771 31.5156 80.4062C31.2448 80.6354 30.9193 80.8177 30.5391 80.9531C30.1589 81.0885 29.7161 81.1562 29.2109 81.1562Z" fill="#50505A"/>
<path d="M367.438 74.3125V76.2812C367.438 77.1354 367.346 77.8724 367.164 78.4922C366.982 79.1068 366.719 79.612 366.375 80.0078C366.036 80.3984 365.633 80.6875 365.164 80.875C364.695 81.0625 364.174 81.1562 363.602 81.1562C363.143 81.1562 362.716 81.099 362.32 80.9844C361.924 80.8646 361.568 80.6797 361.25 80.4297C360.938 80.1797 360.667 79.8646 360.438 79.4844C360.214 79.099 360.042 78.6406 359.922 78.1094C359.802 77.5781 359.742 76.9688 359.742 76.2812V74.3125C359.742 73.4583 359.833 72.7266 360.016 72.1172C360.203 71.5026 360.466 71 360.805 70.6094C361.148 70.2188 361.555 69.9323 362.023 69.75C362.492 69.5625 363.013 69.4688 363.586 69.4688C364.044 69.4688 364.469 69.5286 364.859 69.6484C365.255 69.763 365.612 69.9427 365.93 70.1875C366.247 70.4323 366.518 70.7474 366.742 71.1328C366.966 71.513 367.138 71.9688 367.258 72.5C367.378 73.026 367.438 73.6302 367.438 74.3125ZM365.18 76.5781V74.0078C365.18 73.5964 365.156 73.237 365.109 72.9297C365.068 72.6224 365.003 72.362 364.914 72.1484C364.826 71.9297 364.716 71.7526 364.586 71.6172C364.456 71.4818 364.307 71.3828 364.141 71.3203C363.974 71.2578 363.789 71.2266 363.586 71.2266C363.331 71.2266 363.104 71.276 362.906 71.375C362.714 71.474 362.549 71.6328 362.414 71.8516C362.279 72.0651 362.174 72.3516 362.102 72.7109C362.034 73.0651 362 73.4974 362 74.0078V76.5781C362 76.9896 362.021 77.3516 362.062 77.6641C362.109 77.9766 362.177 78.2448 362.266 78.4688C362.359 78.6875 362.469 78.8672 362.594 79.0078C362.724 79.1432 362.872 79.2422 363.039 79.3047C363.211 79.3672 363.398 79.3984 363.602 79.3984C363.852 79.3984 364.073 79.349 364.266 79.25C364.464 79.1458 364.63 78.9844 364.766 78.7656C364.906 78.5417 365.01 78.25 365.078 77.8906C365.146 77.5312 365.18 77.0938 365.18 76.5781Z" fill="#50505A"/>
<rect x="43" y="47" width="330" height="10" rx="1" fill="#50505A"/>
<path d="M3.13281 45.625H4.10156L8.30469 55.6406L12.5156 45.625H13.4766L8.67188 57H7.9375L3.13281 45.625ZM2.83594 45.625H3.6875L3.78906 52.0312V57H2.83594V45.625ZM12.9375 45.625H13.7891V57H12.8281V52.0312L12.9375 45.625ZM15.9453 52.9062V52.6484C15.9453 52.0339 16.0339 51.4661 16.2109 50.9453C16.388 50.4245 16.6406 49.974 16.9688 49.5938C17.3021 49.2135 17.7005 48.9193 18.1641 48.7109C18.6276 48.4974 19.1432 48.3906 19.7109 48.3906C20.2839 48.3906 20.8021 48.4974 21.2656 48.7109C21.7292 48.9193 22.1276 49.2135 22.4609 49.5938C22.7943 49.974 23.0495 50.4245 23.2266 50.9453C23.4036 51.4661 23.4922 52.0339 23.4922 52.6484V52.9062C23.4922 53.5208 23.4036 54.0885 23.2266 54.6094C23.0495 55.125 22.7943 55.5729 22.4609 55.9531C22.1328 56.3333 21.737 56.6302 21.2734 56.8438C20.8099 57.0521 20.2943 57.1562 19.7266 57.1562C19.1536 57.1562 18.6354 57.0521 18.1719 56.8438C17.7083 56.6302 17.3099 56.3333 16.9766 55.9531C16.6432 55.5729 16.388 55.125 16.2109 54.6094C16.0339 54.0885 15.9453 53.5208 15.9453 52.9062ZM16.875 52.6484V52.9062C16.875 53.3698 16.9375 53.8099 17.0625 54.2266C17.1875 54.638 17.3698 55.0052 17.6094 55.3281C17.849 55.6458 18.1458 55.8958 18.5 56.0781C18.8542 56.2604 19.263 56.3516 19.7266 56.3516C20.1849 56.3516 20.5885 56.2604 20.9375 56.0781C21.2917 55.8958 21.5885 55.6458 21.8281 55.3281C22.0677 55.0052 22.2474 54.638 22.3672 54.2266C22.4922 53.8099 22.5547 53.3698 22.5547 52.9062V52.6484C22.5547 52.1901 22.4922 51.7552 22.3672 51.3438C22.2474 50.9323 22.0651 50.5651 21.8203 50.2422C21.5807 49.9193 21.2839 49.6641 20.9297 49.4766C20.5755 49.2891 20.1693 49.1953 19.7109 49.1953C19.2526 49.1953 18.8464 49.2891 18.4922 49.4766C18.1432 49.6641 17.8464 49.9193 17.6016 50.2422C17.362 50.5651 17.1797 50.9323 17.0547 51.3438C16.9349 51.7552 16.875 52.1901 16.875 52.6484ZM26.3594 50.3516V57H25.4297V48.5469H26.3203L26.3594 50.3516ZM26.1484 52.25L25.7344 52.0156C25.7656 51.5156 25.8672 51.0469 26.0391 50.6094C26.2109 50.1719 26.4427 49.7865 26.7344 49.4531C27.0312 49.1198 27.3776 48.8594 27.7734 48.6719C28.1745 48.4844 28.6172 48.3906 29.1016 48.3906C29.5234 48.3906 29.901 48.4479 30.2344 48.5625C30.5677 48.6771 30.8516 48.8594 31.0859 49.1094C31.3203 49.3594 31.4974 49.6797 31.6172 50.0703C31.7422 50.4609 31.8047 50.9375 31.8047 51.5V57H30.8672V51.4922C30.8672 50.9089 30.7865 50.4531 30.625 50.125C30.4635 49.7917 30.2344 49.5547 29.9375 49.4141C29.6406 49.2734 29.2891 49.2031 28.8828 49.2031C28.4349 49.2031 28.0417 49.3021 27.7031 49.5C27.3698 49.6927 27.0885 49.9453 26.8594 50.2578C26.6354 50.5651 26.4635 50.8958 26.3438 51.25C26.224 51.599 26.1589 51.9323 26.1484 52.25Z" fill="#50505A"/>
<path d="M387.438 50.3125V52.2812C387.438 53.1354 387.346 53.8724 387.164 54.4922C386.982 55.1068 386.719 55.612 386.375 56.0078C386.036 56.3984 385.633 56.6875 385.164 56.875C384.695 57.0625 384.174 57.1562 383.602 57.1562C383.143 57.1562 382.716 57.099 382.32 56.9844C381.924 56.8646 381.568 56.6797 381.25 56.4297C380.938 56.1797 380.667 55.8646 380.438 55.4844C380.214 55.099 380.042 54.6406 379.922 54.1094C379.802 53.5781 379.742 52.9688 379.742 52.2812V50.3125C379.742 49.4583 379.833 48.7266 380.016 48.1172C380.203 47.5026 380.466 47 380.805 46.6094C381.148 46.2188 381.555 45.9323 382.023 45.75C382.492 45.5625 383.013 45.4688 383.586 45.4688C384.044 45.4688 384.469 45.5286 384.859 45.6484C385.255 45.763 385.612 45.9427 385.93 46.1875C386.247 46.4323 386.518 46.7474 386.742 47.1328C386.966 47.513 387.138 47.9688 387.258 48.5C387.378 49.026 387.438 49.6302 387.438 50.3125ZM385.18 52.5781V50.0078C385.18 49.5964 385.156 49.237 385.109 48.9297C385.068 48.6224 385.003 48.362 384.914 48.1484C384.826 47.9297 384.716 47.7526 384.586 47.6172C384.456 47.4818 384.307 47.3828 384.141 47.3203C383.974 47.2578 383.789 47.2266 383.586 47.2266C383.331 47.2266 383.104 47.276 382.906 47.375C382.714 47.474 382.549 47.6328 382.414 47.8516C382.279 48.0651 382.174 48.3516 382.102 48.7109C382.034 49.0651 382 49.4974 382 50.0078V52.5781C382 52.9896 382.021 53.3516 382.062 53.6641C382.109 53.9766 382.177 54.2448 382.266 54.4688C382.359 54.6875 382.469 54.8672 382.594 55.0078C382.724 55.1432 382.872 55.2422 383.039 55.3047C383.211 55.3672 383.398 55.3984 383.602 55.3984C383.852 55.3984 384.073 55.349 384.266 55.25C384.464 55.1458 384.63 54.9844 384.766 54.7656C384.906 54.5417 385.01 54.25 385.078 53.8906C385.146 53.5312 385.18 53.0938 385.18 52.5781Z" fill="#50505A"/>
<path d="M36.1797 6.30469L32.2422 17H31.2422L35.5391 5.625H36.2344L36.1797 6.30469ZM39.7578 17L35.8125 6.30469L35.7578 5.625H36.4531L40.7578 17H39.7578ZM39.0547 12.9844V13.8125H33.0156V12.9844H39.0547ZM49.4375 13.4531H50.3984C50.3203 14.2188 50.1094 14.8802 49.7656 15.4375C49.4219 15.9896 48.9531 16.4141 48.3594 16.7109C47.7656 17.0078 47.0495 17.1562 46.2109 17.1562C45.5651 17.1562 44.9792 17.0339 44.4531 16.7891C43.9323 16.5443 43.4844 16.1979 43.1094 15.75C42.7344 15.2969 42.4453 14.7552 42.2422 14.125C42.0391 13.4948 41.9375 12.7943 41.9375 12.0234V10.6016C41.9375 9.83073 42.0391 9.13281 42.2422 8.50781C42.4453 7.8776 42.737 7.33594 43.1172 6.88281C43.4974 6.42969 43.9531 6.08073 44.4844 5.83594C45.0156 5.59115 45.6146 5.46875 46.2812 5.46875C47.0885 5.46875 47.7865 5.61719 48.375 5.91406C48.9635 6.20573 49.4271 6.6276 49.7656 7.17969C50.1094 7.73177 50.3203 8.39844 50.3984 9.17969H49.4375C49.3646 8.5651 49.2031 8.04427 48.9531 7.61719C48.7031 7.1901 48.3568 6.86458 47.9141 6.64062C47.4766 6.41146 46.9323 6.29688 46.2812 6.29688C45.75 6.29688 45.276 6.39844 44.8594 6.60156C44.4427 6.80469 44.0885 7.09635 43.7969 7.47656C43.5052 7.85156 43.2812 8.30208 43.125 8.82812C42.974 9.35417 42.8984 9.9401 42.8984 10.5859V12.0234C42.8984 12.6484 42.9714 13.224 43.1172 13.75C43.263 14.276 43.4766 14.7318 43.7578 15.1172C44.0443 15.5026 44.3932 15.8021 44.8047 16.0156C45.2161 16.2292 45.6849 16.3359 46.2109 16.3359C46.8828 16.3359 47.4427 16.2292 47.8906 16.0156C48.3438 15.7969 48.6953 15.474 48.9453 15.0469C49.1953 14.6198 49.3594 14.0885 49.4375 13.4531ZM56.3203 5.625V17H55.3672V5.625H56.3203ZM60.2188 5.625V6.45312H51.4766V5.625H60.2188ZM63.2422 5.625V17H62.2812V5.625H63.2422ZM69.8906 15.5859L73.4766 5.625H74.5234L70.2891 17H69.5156L69.8906 15.5859ZM66.1875 5.625L69.7578 15.5859L70.1484 17H69.3672L65.1406 5.625H66.1875ZM77.3828 5.625V17H76.4219V5.625H77.3828ZM84.0547 5.625V17H83.1016V5.625H84.0547ZM87.9531 5.625V6.45312H79.2109V5.625H87.9531ZM89.8125 5.625L93.2578 11.8203L96.7344 5.625H97.8438L93.7422 12.7109V17H92.7812V12.7109L88.6719 5.625H89.8125ZM107.328 11.5312H104.125L104.109 10.7188H106.867C107.43 10.7188 107.909 10.638 108.305 10.4766C108.701 10.3151 109 10.0755 109.203 9.75781C109.411 9.4349 109.516 9.03906 109.516 8.57031C109.516 8.09115 109.414 7.69531 109.211 7.38281C109.008 7.0651 108.703 6.83073 108.297 6.67969C107.891 6.52865 107.38 6.45312 106.766 6.45312H104.375V17H103.414V5.625H106.766C107.344 5.625 107.862 5.68229 108.32 5.79688C108.779 5.91146 109.169 6.09115 109.492 6.33594C109.815 6.58073 110.06 6.89062 110.227 7.26562C110.398 7.63542 110.484 8.07812 110.484 8.59375C110.484 9.0625 110.38 9.48698 110.172 9.86719C109.964 10.2422 109.669 10.5495 109.289 10.7891C108.914 11.0234 108.464 11.1693 107.938 11.2266L107.328 11.5312ZM107.258 17H103.82L104.312 16.1797H107.258C107.82 16.1797 108.299 16.0859 108.695 15.8984C109.096 15.7057 109.404 15.4323 109.617 15.0781C109.831 14.724 109.938 14.3021 109.938 13.8125C109.938 13.3802 109.844 12.9922 109.656 12.6484C109.469 12.3047 109.182 12.0339 108.797 11.8359C108.411 11.6328 107.922 11.5312 107.328 11.5312H105.336L105.352 10.7188H108.172L108.344 11.0078C108.854 11.0599 109.299 11.2188 109.68 11.4844C110.065 11.7448 110.362 12.0755 110.57 12.4766C110.784 12.8776 110.891 13.3177 110.891 13.7969C110.891 14.4844 110.737 15.0677 110.43 15.5469C110.128 16.0208 109.703 16.3828 109.156 16.6328C108.615 16.8776 107.982 17 107.258 17ZM112.672 5.625L116.117 11.8203L119.594 5.625H120.703L116.602 12.7109V17H115.641V12.7109L111.531 5.625H112.672ZM129.383 17H126.805L126.82 16.1797H129.383C130.201 16.1797 130.904 15.9974 131.492 15.6328C132.086 15.263 132.544 14.7526 132.867 14.1016C133.19 13.4505 133.352 12.6953 133.352 11.8359V10.7734C133.352 10.1172 133.258 9.52344 133.07 8.99219C132.888 8.46094 132.625 8.00781 132.281 7.63281C131.938 7.2526 131.526 6.96094 131.047 6.75781C130.573 6.55469 130.042 6.45312 129.453 6.45312H126.758V5.625H129.453C130.161 5.625 130.81 5.7474 131.398 5.99219C131.992 6.23177 132.505 6.58073 132.938 7.03906C133.375 7.49219 133.711 8.03646 133.945 8.67188C134.185 9.30729 134.305 10.0156 134.305 10.7969V11.8359C134.305 12.6172 134.185 13.3255 133.945 13.9609C133.711 14.5964 133.375 15.1406 132.938 15.5938C132.5 16.0469 131.982 16.3958 131.383 16.6406C130.784 16.8802 130.117 17 129.383 17ZM127.234 5.625V17H126.273V5.625H127.234ZM140.32 6.30469L136.383 17H135.383L139.68 5.625H140.375L140.32 6.30469ZM143.898 17L139.953 6.30469L139.898 5.625H140.594L144.898 17H143.898ZM143.195 12.9844V13.8125H137.156V12.9844H143.195ZM145.734 5.625L149.18 11.8203L152.656 5.625H153.766L149.664 12.7109V17H148.703V12.7109L144.594 5.625H145.734Z" fill="#A6AFBD"/>
<path d="M21 10.3333V16.8333C20.9987 17.938 20.5593 18.997 19.7782 19.7782C18.997 20.5593 17.938 20.9987 16.8333 21H5.16667C4.062 20.9987 3.00296 20.5593 2.22185 19.7782C1.44073 18.997 1.00132 17.938 1 16.8333V10.3333M15.1667 13.0833C15.4139 13.0833 15.6556 13.1566 15.8611 13.294C16.0667 13.4313 16.2269 13.6266 16.3215 13.855C16.4161 14.0834 16.4409 14.3347 16.3926 14.5772C16.3444 14.8197 16.2254 15.0424 16.0505 15.2172C15.8757 15.392 15.653 15.5111 15.4105 15.5593C15.1681 15.6075 14.9167 15.5828 14.6883 15.4882C14.4599 15.3936 14.2647 15.2334 14.1273 15.0278C13.99 14.8222 13.9167 14.5806 13.9167 14.3333C13.9167 14.0018 14.0484 13.6839 14.2828 13.4494C14.5172 13.215 14.8351 13.0833 15.1667 13.0833ZM11 13.0833C11.2472 13.0833 11.4889 13.1566 11.6945 13.294C11.9 13.4313 12.0602 13.6266 12.1548 13.855C12.2495 14.0834 12.2742 14.3347 12.226 14.5772C12.1778 14.8197 12.0587 15.0424 11.8839 15.2172C11.7091 15.392 11.4863 15.5111 11.2439 15.5593C11.0014 15.6075 10.7501 15.5828 10.5216 15.4882C10.2932 15.3936 10.098 15.2334 9.96066 15.0278C9.82331 14.8222 9.75 14.5806 9.75 14.3333C9.75 14.0018 9.8817 13.6839 10.1161 13.4494C10.3505 13.215 10.6685 13.0833 11 13.0833ZM6.83333 13.0833C7.08056 13.0833 7.32223 13.1566 7.5278 13.294C7.73336 13.4313 7.89357 13.6266 7.98818 13.855C8.08279 14.0834 8.10755 14.3347 8.05931 14.5772C8.01108 14.8197 7.89203 15.0424 7.71722 15.2172C7.5424 15.392 7.31967 15.5111 7.0772 15.5593C6.83472 15.6075 6.58339 15.5828 6.35498 15.4882C6.12657 15.3936 5.93135 15.2334 5.794 15.0278C5.65664 14.8222 5.58333 14.5806 5.58333 14.3333C5.58333 14.0018 5.71503 13.6839 5.94945 13.4494C6.18387 13.215 6.50181 13.0833 6.83333 13.0833ZM16.8333 2.66667H16V1.83333C16 1.61232 15.9122 1.40036 15.7559 1.24408C15.5996 1.0878 15.3877 1 15.1667 1C14.9457 1 14.7337 1.0878 14.5774 1.24408C14.4211 1.40036 14.3333 1.61232 14.3333 1.83333V2.66667H7.66667V1.83333C7.66667 1.61232 7.57887 1.40036 7.42259 1.24408C7.26631 1.0878 7.05435 1 6.83333 1C6.61232 1 6.40036 1.0878 6.24408 1.24408C6.0878 1.40036 6 1.61232 6 1.83333V2.66667H5.16667C4.062 2.66799 3.00296 3.1074 2.22185 3.88852C1.44073 4.66963 1.00132 5.72867 1 6.83333V6.83333C1 7.29357 1.3731 7.66667 1.83333 7.66667H20.1667C20.6269 7.66667 21 7.29357 21 6.83333V6.83333C20.9987 5.72867 20.5593 4.66963 19.7782 3.88852C18.997 3.1074 17.938 2.66799 16.8333 2.66667Z" stroke="#A6AFBD" stroke-linecap="round"/>
</svg>
