<svg width="729" height="291" viewBox="0 0 729 291" fill="none" xmlns="http://www.w3.org/2000/svg">
<g clip-path="url(#clip0_1108_137)">
<g opacity="0.3">
<path d="M308.087 227.362L366.286 126.325L424.486 227.362H308.087Z" stroke="#F0F4F7" stroke-width="31"/>
<path d="M225.825 274.722L366.286 31.0381L506.747 274.722H225.825Z" stroke="#F0F4F7" stroke-width="31"/>
<path fill-rule="evenodd" clip-rule="evenodd" d="M449.929 145.226L366.863 1.0019L366.286 6.10352e-05L365.709 1.00188L282.643 145.226L199.577 289.222L199 290.222H200.154H366.286H532.418H532.468L532.544 290.266L532.569 290.222H533.572L532.995 289.222L449.929 145.226ZM531.393 288.446L449.063 145.726L449.063 145.726L366.786 2.87203V48.5049L366.863 48.6374L491.827 265.581L531.393 288.446ZM530.738 289.222L491.659 266.639H491.282H241.289H241.086L202.061 289.222H366.286H530.738ZM201.065 288.643L283.509 145.726L283.51 145.726L365.786 2.87166V48.5026L365.708 48.6374L240.711 265.639L240.657 265.732L201.065 288.643ZM242.388 264.73L365.786 50.506V96.1398L365.709 96.2731L281.847 241.862L281.817 241.913L242.388 264.73ZM242.814 265.639H489.928L450.514 242.862H450.148H282.425H282.174L242.814 265.639ZM283.902 241.862H448.784L409.369 219.085H409.013H323.56H323.263L283.902 241.862ZM324.991 218.085H407.638L366.286 194.188L324.991 218.085ZM409.568 218.045L448.968 240.814L366.786 98.1424V143.774L366.863 143.908L409.568 218.045ZM366.786 145.778L407.838 217.045L366.786 193.322V145.778ZM365.786 145.778V193.322L324.706 217.094L365.786 145.778ZM365.786 143.774L365.709 143.908L322.982 218.085L322.975 218.096L283.548 240.912L365.786 98.1433V143.774ZM366.786 96.1389V50.5083L490.097 264.582L450.698 241.813L366.863 96.2731L366.786 96.1389Z" fill="#A6AFBD"/>
</g>
<g style="mix-blend-mode:multiply">
<path d="M366.687 193.306L366.776 0.547684L310.176 161.035L366.38 193.484L366.687 193.306Z" fill="#BB3E49"/>
<path d="M438.516 151.613L366.687 193.306L366.776 0.802908L438.516 151.613Z" fill="#BB3E49"/>
</g>
<g style="mix-blend-mode:multiply">
<path d="M493.29 266.756L366.66 252.325L366.648 193.639L493.29 266.756Z" fill="#D0C018"/>
<path d="M493.29 266.757L438.516 151.613L366.379 193.485L493.29 266.757Z" fill="#D0C018"/>
</g>
<g style="mix-blend-mode:multiply">
<path d="M281.689 242.643L366.38 193.484L366.648 193.639L366.66 252.325L281.689 242.643Z" fill="#266763"/>
<path d="M366.38 193.484L310.282 161.096L281.69 242.642L366.38 193.484Z" fill="#266763"/>
</g>
<circle cx="488.652" cy="264.078" r="6.44652" transform="rotate(120 488.652 264.078)" fill="#D0C018" stroke="#FBFCFD" stroke-width="2"/>
<circle cx="286.188" cy="239.725" r="6.44652" transform="rotate(120 286.188 239.725)" fill="#266763" stroke="#FBFCFD" stroke-width="2"/>
<circle cx="366.464" cy="5.75785" r="6.44652" transform="rotate(120 366.464 5.75785)" fill="#BB3E49" stroke="#FBFCFD" stroke-width="2"/>
</g>
<rect x="574.5" y="261.5" width="132" height="29" rx="0.5" fill="#50505A" stroke="#50505A"/>
<path d="M592 279.203C592 278.891 591.948 278.612 591.844 278.367C591.74 278.122 591.568 277.904 591.328 277.711C591.094 277.513 590.776 277.331 590.375 277.164C589.979 276.992 589.484 276.823 588.891 276.656C588.323 276.495 587.81 276.318 587.352 276.125C586.893 275.932 586.5 275.711 586.172 275.461C585.849 275.211 585.602 274.919 585.43 274.586C585.258 274.247 585.172 273.854 585.172 273.406C585.172 272.969 585.266 272.57 585.453 272.211C585.641 271.852 585.904 271.542 586.242 271.281C586.586 271.021 586.99 270.82 587.453 270.68C587.922 270.539 588.435 270.469 588.992 270.469C589.789 270.469 590.477 270.62 591.055 270.922C591.638 271.224 592.089 271.633 592.406 272.148C592.729 272.659 592.891 273.232 592.891 273.867H591.93C591.93 273.372 591.812 272.932 591.578 272.547C591.349 272.156 591.016 271.852 590.578 271.633C590.146 271.409 589.617 271.297 588.992 271.297C588.367 271.297 587.841 271.393 587.414 271.586C586.992 271.773 586.672 272.026 586.453 272.344C586.24 272.656 586.133 273.005 586.133 273.391C586.133 273.661 586.185 273.911 586.289 274.141C586.393 274.365 586.562 274.576 586.797 274.773C587.036 274.966 587.352 275.148 587.742 275.32C588.133 275.487 588.615 275.646 589.188 275.797C589.792 275.964 590.328 276.148 590.797 276.352C591.266 276.555 591.661 276.789 591.984 277.055C592.307 277.315 592.552 277.62 592.719 277.969C592.885 278.318 592.969 278.724 592.969 279.188C592.969 279.651 592.87 280.068 592.672 280.438C592.479 280.802 592.206 281.112 591.852 281.367C591.503 281.622 591.089 281.818 590.609 281.953C590.135 282.089 589.617 282.156 589.055 282.156C588.549 282.156 588.047 282.091 587.547 281.961C587.047 281.831 586.589 281.63 586.172 281.359C585.76 281.083 585.43 280.729 585.18 280.297C584.935 279.865 584.812 279.349 584.812 278.75H585.766C585.766 279.229 585.862 279.633 586.055 279.961C586.247 280.289 586.503 280.555 586.82 280.758C587.143 280.961 587.497 281.109 587.883 281.203C588.273 281.292 588.664 281.336 589.055 281.336C589.654 281.336 590.172 281.247 590.609 281.07C591.052 280.893 591.393 280.646 591.633 280.328C591.878 280.005 592 279.63 592 279.203ZM603.445 275.703V276.922C603.445 277.719 603.341 278.44 603.133 279.086C602.93 279.727 602.633 280.276 602.242 280.734C601.857 281.193 601.393 281.544 600.852 281.789C600.31 282.034 599.701 282.156 599.023 282.156C598.362 282.156 597.758 282.034 597.211 281.789C596.669 281.544 596.203 281.193 595.812 280.734C595.422 280.276 595.12 279.727 594.906 279.086C594.693 278.44 594.586 277.719 594.586 276.922V275.703C594.586 274.906 594.69 274.188 594.898 273.547C595.112 272.901 595.414 272.349 595.805 271.891C596.195 271.432 596.661 271.081 597.203 270.836C597.745 270.591 598.346 270.469 599.008 270.469C599.685 270.469 600.294 270.591 600.836 270.836C601.378 271.081 601.844 271.432 602.234 271.891C602.625 272.349 602.924 272.901 603.133 273.547C603.341 274.188 603.445 274.906 603.445 275.703ZM602.492 276.922V275.688C602.492 275.016 602.414 274.411 602.258 273.875C602.107 273.339 601.88 272.88 601.578 272.5C601.281 272.12 600.917 271.828 600.484 271.625C600.052 271.422 599.56 271.32 599.008 271.32C598.471 271.32 597.99 271.422 597.562 271.625C597.135 271.828 596.771 272.12 596.469 272.5C596.172 272.88 595.943 273.339 595.781 273.875C595.625 274.411 595.547 275.016 595.547 275.688V276.922C595.547 277.599 595.625 278.208 595.781 278.75C595.943 279.286 596.174 279.747 596.477 280.133C596.779 280.513 597.143 280.805 597.57 281.008C598.003 281.211 598.487 281.312 599.023 281.312C599.581 281.312 600.073 281.211 600.5 281.008C600.927 280.805 601.289 280.513 601.586 280.133C601.883 279.747 602.107 279.286 602.258 278.75C602.414 278.208 602.492 277.599 602.492 276.922ZM612.961 278.453H613.922C613.844 279.219 613.633 279.88 613.289 280.438C612.945 280.99 612.477 281.414 611.883 281.711C611.289 282.008 610.573 282.156 609.734 282.156C609.089 282.156 608.503 282.034 607.977 281.789C607.456 281.544 607.008 281.198 606.633 280.75C606.258 280.297 605.969 279.755 605.766 279.125C605.562 278.495 605.461 277.794 605.461 277.023V275.602C605.461 274.831 605.562 274.133 605.766 273.508C605.969 272.878 606.26 272.336 606.641 271.883C607.021 271.43 607.477 271.081 608.008 270.836C608.539 270.591 609.138 270.469 609.805 270.469C610.612 270.469 611.31 270.617 611.898 270.914C612.487 271.206 612.951 271.628 613.289 272.18C613.633 272.732 613.844 273.398 613.922 274.18H612.961C612.888 273.565 612.727 273.044 612.477 272.617C612.227 272.19 611.88 271.865 611.438 271.641C611 271.411 610.456 271.297 609.805 271.297C609.273 271.297 608.799 271.398 608.383 271.602C607.966 271.805 607.612 272.096 607.32 272.477C607.029 272.852 606.805 273.302 606.648 273.828C606.497 274.354 606.422 274.94 606.422 275.586V277.023C606.422 277.648 606.495 278.224 606.641 278.75C606.786 279.276 607 279.732 607.281 280.117C607.568 280.503 607.917 280.802 608.328 281.016C608.74 281.229 609.208 281.336 609.734 281.336C610.406 281.336 610.966 281.229 611.414 281.016C611.867 280.797 612.219 280.474 612.469 280.047C612.719 279.62 612.883 279.089 612.961 278.453ZM617.438 270.625V282H616.477V270.625H617.438ZM624.406 271.305L620.469 282H619.469L623.766 270.625H624.461L624.406 271.305ZM627.984 282L624.039 271.305L623.984 270.625H624.68L628.984 282H627.984ZM627.281 277.984V278.812H621.242V277.984H627.281ZM637.25 281.18V282H631.352V281.18H637.25ZM631.633 270.625V282H630.672V270.625H631.633ZM642.992 270.625H646.688C647.474 270.625 648.156 270.753 648.734 271.008C649.312 271.263 649.758 271.641 650.07 272.141C650.388 272.635 650.547 273.245 650.547 273.969C650.547 274.505 650.432 274.992 650.203 275.43C649.979 275.867 649.669 276.234 649.273 276.531C648.878 276.823 648.419 277.023 647.898 277.133L647.562 277.258H643.617L643.602 276.438H646.906C647.5 276.438 647.995 276.323 648.391 276.094C648.786 275.865 649.083 275.562 649.281 275.188C649.484 274.807 649.586 274.401 649.586 273.969C649.586 273.453 649.474 273.008 649.25 272.633C649.031 272.253 648.706 271.961 648.273 271.758C647.841 271.555 647.312 271.453 646.688 271.453H643.953V282H642.992V270.625ZM650.016 282L647.07 276.914L648.102 276.906L651.039 281.898V282H650.016ZM656.922 271.305L652.984 282H651.984L656.281 270.625H656.977L656.922 271.305ZM660.5 282L656.555 271.305L656.5 270.625H657.195L661.5 282H660.5ZM659.797 277.984V278.812H653.758V277.984H659.797ZM665.984 270.625V282H665.031V270.625H665.984ZM669.883 270.625V271.453H661.141V270.625H669.883ZM672.906 270.625V282H671.945V270.625H672.906ZM684.469 270.625V282H683.5L676.961 272.281V282H676V270.625H676.961L683.516 280.344V270.625H684.469ZM695.578 276.594V280.641C695.448 280.833 695.224 281.047 694.906 281.281C694.589 281.516 694.161 281.721 693.625 281.898C693.089 282.07 692.422 282.156 691.625 282.156C690.958 282.156 690.346 282.036 689.789 281.797C689.232 281.557 688.747 281.211 688.336 280.758C687.93 280.299 687.615 279.75 687.391 279.109C687.172 278.469 687.062 277.75 687.062 276.953V275.578C687.062 274.797 687.164 274.094 687.367 273.469C687.57 272.839 687.865 272.299 688.25 271.852C688.635 271.404 689.099 271.062 689.641 270.828C690.188 270.589 690.799 270.469 691.477 270.469C692.32 270.469 693.031 270.615 693.609 270.906C694.188 271.198 694.638 271.599 694.961 272.109C695.289 272.615 695.492 273.188 695.57 273.828H694.609C694.536 273.375 694.385 272.958 694.156 272.578C693.927 272.193 693.594 271.883 693.156 271.648C692.724 271.414 692.164 271.297 691.477 271.297C690.924 271.297 690.432 271.398 690 271.602C689.573 271.805 689.214 272.094 688.922 272.469C688.63 272.844 688.409 273.294 688.258 273.82C688.107 274.341 688.031 274.922 688.031 275.562V276.953C688.031 277.62 688.115 278.221 688.281 278.758C688.453 279.294 688.698 279.755 689.016 280.141C689.333 280.526 689.714 280.823 690.156 281.031C690.599 281.234 691.091 281.336 691.633 281.336C692.211 281.336 692.703 281.281 693.109 281.172C693.516 281.062 693.841 280.932 694.086 280.781C694.336 280.625 694.516 280.479 694.625 280.344V277.414H691.57V276.594H695.578Z" fill="#FBFCFD"/>
<circle cx="723" cy="276" r="5.5" stroke="#A6AFBD"/>
<path d="M723.42 277.612H722.331C722.334 277.31 722.36 277.056 722.409 276.851C722.458 276.642 722.539 276.453 722.653 276.284C722.771 276.115 722.925 275.936 723.117 275.747C723.267 275.604 723.402 275.469 723.522 275.342C723.643 275.212 723.739 275.075 723.811 274.932C723.882 274.785 723.918 274.618 723.918 274.429C723.918 274.224 723.884 274.049 723.815 273.906C723.747 273.763 723.646 273.654 723.513 273.579C723.382 273.504 723.22 273.467 723.024 273.467C722.862 273.467 722.709 273.499 722.565 273.564C722.422 273.626 722.307 273.724 722.219 273.857C722.131 273.988 722.084 274.16 722.077 274.375H720.9C720.907 273.965 721.005 273.62 721.193 273.34C721.382 273.06 721.636 272.85 721.955 272.71C722.274 272.57 722.631 272.5 723.024 272.5C723.461 272.5 723.833 272.575 724.143 272.725C724.452 272.871 724.688 273.086 724.851 273.369C725.017 273.649 725.1 273.988 725.1 274.385C725.1 274.671 725.043 274.932 724.929 275.166C724.815 275.397 724.667 275.614 724.484 275.815C724.302 276.014 724.105 276.213 723.894 276.411C723.711 276.577 723.588 276.758 723.522 276.953C723.457 277.145 723.423 277.365 723.42 277.612ZM722.233 279.136C722.233 278.96 722.294 278.812 722.414 278.691C722.535 278.568 722.699 278.506 722.907 278.506C723.116 278.506 723.28 278.568 723.4 278.691C723.521 278.812 723.581 278.96 723.581 279.136C723.581 279.312 723.521 279.461 723.4 279.585C723.28 279.705 723.116 279.766 722.907 279.766C722.699 279.766 722.535 279.705 722.414 279.585C722.294 279.461 722.233 279.312 722.233 279.136Z" fill="#A6AFBD"/>
<rect x="0.5" y="261.5" width="136" height="29" rx="0.5" fill="#50505A" stroke="#50505A"/>
<path d="M16.0859 270.625V282H15.1328V270.625H16.0859ZM19.9844 270.625V271.453H11.2422V270.625H19.9844ZM21.8125 270.625H25.5078C26.2943 270.625 26.9766 270.753 27.5547 271.008C28.1328 271.263 28.5781 271.641 28.8906 272.141C29.2083 272.635 29.3672 273.245 29.3672 273.969C29.3672 274.505 29.2526 274.992 29.0234 275.43C28.7995 275.867 28.4896 276.234 28.0938 276.531C27.6979 276.823 27.2396 277.023 26.7188 277.133L26.3828 277.258H22.4375L22.4219 276.438H25.7266C26.3203 276.438 26.8151 276.323 27.2109 276.094C27.6068 275.865 27.9036 275.562 28.1016 275.188C28.3047 274.807 28.4062 274.401 28.4062 273.969C28.4062 273.453 28.2943 273.008 28.0703 272.633C27.8516 272.253 27.526 271.961 27.0938 271.758C26.6615 271.555 26.1328 271.453 25.5078 271.453H22.7734V282H21.8125V270.625ZM28.8359 282L25.8906 276.914L26.9219 276.906L29.8594 281.898V282H28.8359ZM35.7422 271.305L31.8047 282H30.8047L35.1016 270.625H35.7969L35.7422 271.305ZM39.3203 282L35.375 271.305L35.3203 270.625H36.0156L40.3203 282H39.3203ZM38.6172 277.984V278.812H32.5781V277.984H38.6172ZM50.4766 270.625V282H49.5078L42.9688 272.281V282H42.0078V270.625H42.9688L49.5234 280.344V270.625H50.4766ZM59.8203 279.203C59.8203 278.891 59.7682 278.612 59.6641 278.367C59.5599 278.122 59.388 277.904 59.1484 277.711C58.9141 277.513 58.5964 277.331 58.1953 277.164C57.7995 276.992 57.3047 276.823 56.7109 276.656C56.1432 276.495 55.6302 276.318 55.1719 276.125C54.7135 275.932 54.3203 275.711 53.9922 275.461C53.6693 275.211 53.4219 274.919 53.25 274.586C53.0781 274.247 52.9922 273.854 52.9922 273.406C52.9922 272.969 53.0859 272.57 53.2734 272.211C53.4609 271.852 53.724 271.542 54.0625 271.281C54.4062 271.021 54.8099 270.82 55.2734 270.68C55.7422 270.539 56.2552 270.469 56.8125 270.469C57.6094 270.469 58.2969 270.62 58.875 270.922C59.4583 271.224 59.9089 271.633 60.2266 272.148C60.5495 272.659 60.7109 273.232 60.7109 273.867H59.75C59.75 273.372 59.6328 272.932 59.3984 272.547C59.1693 272.156 58.8359 271.852 58.3984 271.633C57.9661 271.409 57.4375 271.297 56.8125 271.297C56.1875 271.297 55.6615 271.393 55.2344 271.586C54.8125 271.773 54.4922 272.026 54.2734 272.344C54.0599 272.656 53.9531 273.005 53.9531 273.391C53.9531 273.661 54.0052 273.911 54.1094 274.141C54.2135 274.365 54.3828 274.576 54.6172 274.773C54.8568 274.966 55.1719 275.148 55.5625 275.32C55.9531 275.487 56.4349 275.646 57.0078 275.797C57.612 275.964 58.1484 276.148 58.6172 276.352C59.0859 276.555 59.4818 276.789 59.8047 277.055C60.1276 277.315 60.3724 277.62 60.5391 277.969C60.7057 278.318 60.7891 278.724 60.7891 279.188C60.7891 279.651 60.6901 280.068 60.4922 280.438C60.2995 280.802 60.026 281.112 59.6719 281.367C59.3229 281.622 58.9089 281.818 58.4297 281.953C57.9557 282.089 57.4375 282.156 56.875 282.156C56.3698 282.156 55.8672 282.091 55.3672 281.961C54.8672 281.831 54.4089 281.63 53.9922 281.359C53.5807 281.083 53.25 280.729 53 280.297C52.7552 279.865 52.6328 279.349 52.6328 278.75H53.5859C53.5859 279.229 53.6823 279.633 53.875 279.961C54.0677 280.289 54.3229 280.555 54.6406 280.758C54.9635 280.961 55.3177 281.109 55.7031 281.203C56.0938 281.292 56.4844 281.336 56.875 281.336C57.474 281.336 57.9922 281.247 58.4297 281.07C58.8724 280.893 59.2135 280.646 59.4531 280.328C59.6979 280.005 59.8203 279.63 59.8203 279.203ZM66.6016 271.305L62.6641 282H61.6641L65.9609 270.625H66.6562L66.6016 271.305ZM70.1797 282L66.2344 271.305L66.1797 270.625H66.875L71.1797 282H70.1797ZM69.4766 277.984V278.812H63.4375V277.984H69.4766ZM79.8594 278.453H80.8203C80.7422 279.219 80.5312 279.88 80.1875 280.438C79.8438 280.99 79.375 281.414 78.7812 281.711C78.1875 282.008 77.4714 282.156 76.6328 282.156C75.987 282.156 75.401 282.034 74.875 281.789C74.3542 281.544 73.9062 281.198 73.5312 280.75C73.1562 280.297 72.8672 279.755 72.6641 279.125C72.4609 278.495 72.3594 277.794 72.3594 277.023V275.602C72.3594 274.831 72.4609 274.133 72.6641 273.508C72.8672 272.878 73.1589 272.336 73.5391 271.883C73.9193 271.43 74.375 271.081 74.9062 270.836C75.4375 270.591 76.0365 270.469 76.7031 270.469C77.5104 270.469 78.2083 270.617 78.7969 270.914C79.3854 271.206 79.849 271.628 80.1875 272.18C80.5312 272.732 80.7422 273.398 80.8203 274.18H79.8594C79.7865 273.565 79.625 273.044 79.375 272.617C79.125 272.19 78.7786 271.865 78.3359 271.641C77.8984 271.411 77.3542 271.297 76.7031 271.297C76.1719 271.297 75.6979 271.398 75.2812 271.602C74.8646 271.805 74.5104 272.096 74.2188 272.477C73.9271 272.852 73.7031 273.302 73.5469 273.828C73.3958 274.354 73.3203 274.94 73.3203 275.586V277.023C73.3203 277.648 73.3932 278.224 73.5391 278.75C73.6849 279.276 73.8984 279.732 74.1797 280.117C74.4661 280.503 74.8151 280.802 75.2266 281.016C75.638 281.229 76.1068 281.336 76.6328 281.336C77.3047 281.336 77.8646 281.229 78.3125 281.016C78.7656 280.797 79.1172 280.474 79.3672 280.047C79.6172 279.62 79.7812 279.089 79.8594 278.453ZM86.7422 270.625V282H85.7891V270.625H86.7422ZM90.6406 270.625V271.453H81.8984V270.625H90.6406ZM93.6641 270.625V282H92.7031V270.625H93.6641ZM105.156 275.703V276.922C105.156 277.719 105.052 278.44 104.844 279.086C104.641 279.727 104.344 280.276 103.953 280.734C103.568 281.193 103.104 281.544 102.562 281.789C102.021 282.034 101.411 282.156 100.734 282.156C100.073 282.156 99.4688 282.034 98.9219 281.789C98.3802 281.544 97.9141 281.193 97.5234 280.734C97.1328 280.276 96.8307 279.727 96.6172 279.086C96.4036 278.44 96.2969 277.719 96.2969 276.922V275.703C96.2969 274.906 96.401 274.188 96.6094 273.547C96.8229 272.901 97.125 272.349 97.5156 271.891C97.9062 271.432 98.3724 271.081 98.9141 270.836C99.4557 270.591 100.057 270.469 100.719 270.469C101.396 270.469 102.005 270.591 102.547 270.836C103.089 271.081 103.555 271.432 103.945 271.891C104.336 272.349 104.635 272.901 104.844 273.547C105.052 274.188 105.156 274.906 105.156 275.703ZM104.203 276.922V275.688C104.203 275.016 104.125 274.411 103.969 273.875C103.818 273.339 103.591 272.88 103.289 272.5C102.992 272.12 102.628 271.828 102.195 271.625C101.763 271.422 101.271 271.32 100.719 271.32C100.182 271.32 99.7005 271.422 99.2734 271.625C98.8464 271.828 98.4818 272.12 98.1797 272.5C97.8828 272.88 97.6536 273.339 97.4922 273.875C97.3359 274.411 97.2578 275.016 97.2578 275.688V276.922C97.2578 277.599 97.3359 278.208 97.4922 278.75C97.6536 279.286 97.8854 279.747 98.1875 280.133C98.4896 280.513 98.8542 280.805 99.2812 281.008C99.7135 281.211 100.198 281.312 100.734 281.312C101.292 281.312 101.784 281.211 102.211 281.008C102.638 280.805 103 280.513 103.297 280.133C103.594 279.747 103.818 279.286 103.969 278.75C104.125 278.208 104.203 277.599 104.203 276.922ZM116.055 270.625V282H115.086L108.547 272.281V282H107.586V270.625H108.547L115.102 280.344V270.625H116.055ZM125.398 279.203C125.398 278.891 125.346 278.612 125.242 278.367C125.138 278.122 124.966 277.904 124.727 277.711C124.492 277.513 124.174 277.331 123.773 277.164C123.378 276.992 122.883 276.823 122.289 276.656C121.721 276.495 121.208 276.318 120.75 276.125C120.292 275.932 119.898 275.711 119.57 275.461C119.247 275.211 119 274.919 118.828 274.586C118.656 274.247 118.57 273.854 118.57 273.406C118.57 272.969 118.664 272.57 118.852 272.211C119.039 271.852 119.302 271.542 119.641 271.281C119.984 271.021 120.388 270.82 120.852 270.68C121.32 270.539 121.833 270.469 122.391 270.469C123.188 270.469 123.875 270.62 124.453 270.922C125.036 271.224 125.487 271.633 125.805 272.148C126.128 272.659 126.289 273.232 126.289 273.867H125.328C125.328 273.372 125.211 272.932 124.977 272.547C124.747 272.156 124.414 271.852 123.977 271.633C123.544 271.409 123.016 271.297 122.391 271.297C121.766 271.297 121.24 271.393 120.812 271.586C120.391 271.773 120.07 272.026 119.852 272.344C119.638 272.656 119.531 273.005 119.531 273.391C119.531 273.661 119.583 273.911 119.688 274.141C119.792 274.365 119.961 274.576 120.195 274.773C120.435 274.966 120.75 275.148 121.141 275.32C121.531 275.487 122.013 275.646 122.586 275.797C123.19 275.964 123.727 276.148 124.195 276.352C124.664 276.555 125.06 276.789 125.383 277.055C125.706 277.315 125.951 277.62 126.117 277.969C126.284 278.318 126.367 278.724 126.367 279.188C126.367 279.651 126.268 280.068 126.07 280.438C125.878 280.802 125.604 281.112 125.25 281.367C124.901 281.622 124.487 281.818 124.008 281.953C123.534 282.089 123.016 282.156 122.453 282.156C121.948 282.156 121.445 282.091 120.945 281.961C120.445 281.831 119.987 281.63 119.57 281.359C119.159 281.083 118.828 280.729 118.578 280.297C118.333 279.865 118.211 279.349 118.211 278.75H119.164C119.164 279.229 119.26 279.633 119.453 279.961C119.646 280.289 119.901 280.555 120.219 280.758C120.542 280.961 120.896 281.109 121.281 281.203C121.672 281.292 122.062 281.336 122.453 281.336C123.052 281.336 123.57 281.247 124.008 281.07C124.451 280.893 124.792 280.646 125.031 280.328C125.276 280.005 125.398 279.63 125.398 279.203Z" fill="#FBFCFD"/>
<circle cx="153" cy="276" r="5.5" stroke="#A6AFBD"/>
<path d="M153.42 277.612H152.331C152.334 277.31 152.36 277.056 152.409 276.851C152.458 276.642 152.539 276.453 152.653 276.284C152.771 276.115 152.925 275.936 153.117 275.747C153.267 275.604 153.402 275.469 153.522 275.342C153.643 275.212 153.739 275.075 153.811 274.932C153.882 274.785 153.918 274.618 153.918 274.429C153.918 274.224 153.884 274.049 153.815 273.906C153.747 273.763 153.646 273.654 153.513 273.579C153.382 273.504 153.22 273.467 153.024 273.467C152.862 273.467 152.709 273.499 152.565 273.564C152.422 273.626 152.307 273.724 152.219 273.857C152.131 273.988 152.084 274.16 152.077 274.375H150.9C150.907 273.965 151.005 273.62 151.193 273.34C151.382 273.06 151.636 272.85 151.955 272.71C152.274 272.57 152.631 272.5 153.024 272.5C153.461 272.5 153.833 272.575 154.143 272.725C154.452 272.871 154.688 273.086 154.851 273.369C155.017 273.649 155.1 273.988 155.1 274.385C155.1 274.671 155.043 274.932 154.929 275.166C154.815 275.397 154.667 275.614 154.484 275.815C154.302 276.014 154.105 276.213 153.894 276.411C153.711 276.577 153.588 276.758 153.522 276.953C153.457 277.145 153.423 277.365 153.42 277.612ZM152.233 279.136C152.233 278.96 152.294 278.812 152.414 278.691C152.535 278.568 152.699 278.506 152.907 278.506C153.116 278.506 153.28 278.568 153.4 278.691C153.521 278.812 153.581 278.96 153.581 279.136C153.581 279.312 153.521 279.461 153.4 279.585C153.28 279.705 153.116 279.766 152.907 279.766C152.699 279.766 152.535 279.705 152.414 279.585C152.294 279.461 152.233 279.312 152.233 279.136Z" fill="#A6AFBD"/>
<rect x="432.5" y="0.5" width="243" height="29" rx="0.5" fill="#50505A" stroke="#50505A"/>
<path d="M450.953 17.4531H451.914C451.836 18.2188 451.625 18.8802 451.281 19.4375C450.938 19.9896 450.469 20.4141 449.875 20.7109C449.281 21.0078 448.565 21.1562 447.727 21.1562C447.081 21.1562 446.495 21.0339 445.969 20.7891C445.448 20.5443 445 20.1979 444.625 19.75C444.25 19.2969 443.961 18.7552 443.758 18.125C443.555 17.4948 443.453 16.7943 443.453 16.0234V14.6016C443.453 13.8307 443.555 13.1328 443.758 12.5078C443.961 11.8776 444.253 11.3359 444.633 10.8828C445.013 10.4297 445.469 10.0807 446 9.83594C446.531 9.59115 447.13 9.46875 447.797 9.46875C448.604 9.46875 449.302 9.61719 449.891 9.91406C450.479 10.2057 450.943 10.6276 451.281 11.1797C451.625 11.7318 451.836 12.3984 451.914 13.1797H450.953C450.88 12.5651 450.719 12.0443 450.469 11.6172C450.219 11.1901 449.872 10.8646 449.43 10.6406C448.992 10.4115 448.448 10.2969 447.797 10.2969C447.266 10.2969 446.792 10.3984 446.375 10.6016C445.958 10.8047 445.604 11.0964 445.312 11.4766C445.021 11.8516 444.797 12.3021 444.641 12.8281C444.49 13.3542 444.414 13.9401 444.414 14.5859V16.0234C444.414 16.6484 444.487 17.224 444.633 17.75C444.779 18.276 444.992 18.7318 445.273 19.1172C445.56 19.5026 445.909 19.8021 446.32 20.0156C446.732 20.2292 447.201 20.3359 447.727 20.3359C448.398 20.3359 448.958 20.2292 449.406 20.0156C449.859 19.7969 450.211 19.474 450.461 19.0469C450.711 18.6198 450.875 18.0885 450.953 17.4531ZM462.656 14.7031V15.9219C462.656 16.7188 462.552 17.4401 462.344 18.0859C462.141 18.7266 461.844 19.276 461.453 19.7344C461.068 20.1927 460.604 20.5443 460.062 20.7891C459.521 21.0339 458.911 21.1562 458.234 21.1562C457.573 21.1562 456.969 21.0339 456.422 20.7891C455.88 20.5443 455.414 20.1927 455.023 19.7344C454.633 19.276 454.331 18.7266 454.117 18.0859C453.904 17.4401 453.797 16.7188 453.797 15.9219V14.7031C453.797 13.9062 453.901 13.1875 454.109 12.5469C454.323 11.901 454.625 11.349 455.016 10.8906C455.406 10.4323 455.872 10.0807 456.414 9.83594C456.956 9.59115 457.557 9.46875 458.219 9.46875C458.896 9.46875 459.505 9.59115 460.047 9.83594C460.589 10.0807 461.055 10.4323 461.445 10.8906C461.836 11.349 462.135 11.901 462.344 12.5469C462.552 13.1875 462.656 13.9062 462.656 14.7031ZM461.703 15.9219V14.6875C461.703 14.0156 461.625 13.4115 461.469 12.875C461.318 12.3385 461.091 11.8802 460.789 11.5C460.492 11.1198 460.128 10.8281 459.695 10.625C459.263 10.4219 458.771 10.3203 458.219 10.3203C457.682 10.3203 457.201 10.4219 456.773 10.625C456.346 10.8281 455.982 11.1198 455.68 11.5C455.383 11.8802 455.154 12.3385 454.992 12.875C454.836 13.4115 454.758 14.0156 454.758 14.6875V15.9219C454.758 16.599 454.836 17.2083 454.992 17.75C455.154 18.2865 455.385 18.7474 455.688 19.1328C455.99 19.513 456.354 19.8047 456.781 20.0078C457.214 20.2109 457.698 20.3125 458.234 20.3125C458.792 20.3125 459.284 20.2109 459.711 20.0078C460.138 19.8047 460.5 19.513 460.797 19.1328C461.094 18.7474 461.318 18.2865 461.469 17.75C461.625 17.2083 461.703 16.599 461.703 15.9219ZM471.953 9.625H472.914V17.3281C472.914 18.1823 472.734 18.8932 472.375 19.4609C472.016 20.0286 471.531 20.4531 470.922 20.7344C470.318 21.0156 469.648 21.1562 468.914 21.1562C468.159 21.1562 467.479 21.0156 466.875 20.7344C466.271 20.4531 465.792 20.0286 465.438 19.4609C465.089 18.8932 464.914 18.1823 464.914 17.3281V9.625H465.867V17.3281C465.867 17.9896 465.997 18.5443 466.258 18.9922C466.518 19.4401 466.878 19.776 467.336 20C467.794 20.224 468.32 20.3359 468.914 20.3359C469.503 20.3359 470.026 20.224 470.484 20C470.943 19.776 471.302 19.4401 471.562 18.9922C471.823 18.5443 471.953 17.9896 471.953 17.3281V9.625ZM484.086 9.625V21H483.117L476.578 11.2812V21H475.617V9.625H476.578L483.133 19.3438V9.625H484.086ZM490.57 9.625V21H489.617V9.625H490.57ZM494.469 9.625V10.4531H485.727V9.625H494.469ZM503.391 20.1797V21H496.992V20.1797H503.391ZM497.281 9.625V21H496.32V9.625H497.281ZM502.594 14.7266V15.5469H496.992V14.7266H502.594ZM503.352 9.625V10.4531H496.992V9.625H503.352ZM505.406 9.625H509.102C509.888 9.625 510.57 9.7526 511.148 10.0078C511.727 10.263 512.172 10.6406 512.484 11.1406C512.802 11.6354 512.961 12.2448 512.961 12.9688C512.961 13.5052 512.846 13.9922 512.617 14.4297C512.393 14.8672 512.083 15.2344 511.688 15.5312C511.292 15.8229 510.833 16.0234 510.312 16.1328L509.977 16.2578H506.031L506.016 15.4375H509.32C509.914 15.4375 510.409 15.3229 510.805 15.0938C511.201 14.8646 511.497 14.5625 511.695 14.1875C511.898 13.8073 512 13.401 512 12.9688C512 12.4531 511.888 12.0078 511.664 11.6328C511.445 11.2526 511.12 10.9609 510.688 10.7578C510.255 10.5547 509.727 10.4531 509.102 10.4531H506.367V21H505.406V9.625ZM512.43 21L509.484 15.9141L510.516 15.9062L513.453 20.8984V21H512.43ZM519.469 16.3672H516.227V15.5469H519.469C520.146 15.5469 520.695 15.4375 521.117 15.2188C521.544 14.9948 521.854 14.6927 522.047 14.3125C522.245 13.9323 522.344 13.5052 522.344 13.0312C522.344 12.5677 522.245 12.1406 522.047 11.75C521.854 11.3594 521.544 11.0469 521.117 10.8125C520.695 10.5729 520.146 10.4531 519.469 10.4531H516.562V21H515.602V9.625H519.469C520.302 9.625 521.003 9.76823 521.57 10.0547C522.143 10.3411 522.576 10.7396 522.867 11.25C523.159 11.7604 523.305 12.349 523.305 13.0156C523.305 13.7135 523.159 14.3151 522.867 14.8203C522.576 15.3203 522.146 15.7031 521.578 15.9688C521.01 16.2344 520.307 16.3672 519.469 16.3672ZM528.117 10.3047L524.18 21H523.18L527.477 9.625H528.172L528.117 10.3047ZM531.695 21L527.75 10.3047L527.695 9.625H528.391L532.695 21H531.695ZM530.992 16.9844V17.8125H524.953V16.9844H530.992ZM534.359 9.625H538.055C538.841 9.625 539.523 9.7526 540.102 10.0078C540.68 10.263 541.125 10.6406 541.438 11.1406C541.755 11.6354 541.914 12.2448 541.914 12.9688C541.914 13.5052 541.799 13.9922 541.57 14.4297C541.346 14.8672 541.036 15.2344 540.641 15.5312C540.245 15.8229 539.786 16.0234 539.266 16.1328L538.93 16.2578H534.984L534.969 15.4375H538.273C538.867 15.4375 539.362 15.3229 539.758 15.0938C540.154 14.8646 540.451 14.5625 540.648 14.1875C540.852 13.8073 540.953 13.401 540.953 12.9688C540.953 12.4531 540.841 12.0078 540.617 11.6328C540.398 11.2526 540.073 10.9609 539.641 10.7578C539.208 10.5547 538.68 10.4531 538.055 10.4531H535.32V21H534.359V9.625ZM541.383 21L538.438 15.9141L539.469 15.9062L542.406 20.8984V21H541.383ZM547.742 9.625V21H546.789V9.625H547.742ZM551.641 9.625V10.4531H542.898V9.625H551.641ZM553.5 9.625L556.945 15.8203L560.422 9.625H561.531L557.43 16.7109V21H556.469V16.7109L552.359 9.625H553.5ZM568.273 9.625V21H567.312V9.625H568.273ZM579.836 9.625V21H578.867L572.328 11.2812V21H571.367V9.625H572.328L578.883 19.3438V9.625H579.836ZM586.32 9.625V21H585.367V9.625H586.32ZM590.219 9.625V10.4531H581.477V9.625H590.219ZM599.141 20.1797V21H592.742V20.1797H599.141ZM593.031 9.625V21H592.07V9.625H593.031ZM598.344 14.7266V15.5469H592.742V14.7266H598.344ZM599.102 9.625V10.4531H592.742V9.625H599.102ZM601.156 9.625H604.852C605.638 9.625 606.32 9.7526 606.898 10.0078C607.477 10.263 607.922 10.6406 608.234 11.1406C608.552 11.6354 608.711 12.2448 608.711 12.9688C608.711 13.5052 608.596 13.9922 608.367 14.4297C608.143 14.8672 607.833 15.2344 607.438 15.5312C607.042 15.8229 606.583 16.0234 606.062 16.1328L605.727 16.2578H601.781L601.766 15.4375H605.07C605.664 15.4375 606.159 15.3229 606.555 15.0938C606.951 14.8646 607.247 14.5625 607.445 14.1875C607.648 13.8073 607.75 13.401 607.75 12.9688C607.75 12.4531 607.638 12.0078 607.414 11.6328C607.195 11.2526 606.87 10.9609 606.438 10.7578C606.005 10.5547 605.477 10.4531 604.852 10.4531H602.117V21H601.156V9.625ZM608.18 21L605.234 15.9141L606.266 15.9062L609.203 20.8984V21H608.18ZM615.086 10.3047L611.148 21H610.148L614.445 9.625H615.141L615.086 10.3047ZM618.664 21L614.719 10.3047L614.664 9.625H615.359L619.664 21H618.664ZM617.961 16.9844V17.8125H611.922V16.9844H617.961ZM628.344 17.4531H629.305C629.227 18.2188 629.016 18.8802 628.672 19.4375C628.328 19.9896 627.859 20.4141 627.266 20.7109C626.672 21.0078 625.956 21.1562 625.117 21.1562C624.471 21.1562 623.885 21.0339 623.359 20.7891C622.839 20.5443 622.391 20.1979 622.016 19.75C621.641 19.2969 621.352 18.7552 621.148 18.125C620.945 17.4948 620.844 16.7943 620.844 16.0234V14.6016C620.844 13.8307 620.945 13.1328 621.148 12.5078C621.352 11.8776 621.643 11.3359 622.023 10.8828C622.404 10.4297 622.859 10.0807 623.391 9.83594C623.922 9.59115 624.521 9.46875 625.188 9.46875C625.995 9.46875 626.693 9.61719 627.281 9.91406C627.87 10.2057 628.333 10.6276 628.672 11.1797C629.016 11.7318 629.227 12.3984 629.305 13.1797H628.344C628.271 12.5651 628.109 12.0443 627.859 11.6172C627.609 11.1901 627.263 10.8646 626.82 10.6406C626.383 10.4115 625.839 10.2969 625.188 10.2969C624.656 10.2969 624.182 10.3984 623.766 10.6016C623.349 10.8047 622.995 11.0964 622.703 11.4766C622.411 11.8516 622.188 12.3021 622.031 12.8281C621.88 13.3542 621.805 13.9401 621.805 14.5859V16.0234C621.805 16.6484 621.878 17.224 622.023 17.75C622.169 18.276 622.383 18.7318 622.664 19.1172C622.951 19.5026 623.299 19.8021 623.711 20.0156C624.122 20.2292 624.591 20.3359 625.117 20.3359C625.789 20.3359 626.349 20.2292 626.797 20.0156C627.25 19.7969 627.602 19.474 627.852 19.0469C628.102 18.6198 628.266 18.0885 628.344 17.4531ZM635.227 9.625V21H634.273V9.625H635.227ZM639.125 9.625V10.4531H630.383V9.625H639.125ZM642.148 9.625V21H641.188V9.625H642.148ZM653.641 14.7031V15.9219C653.641 16.7188 653.536 17.4401 653.328 18.0859C653.125 18.7266 652.828 19.276 652.438 19.7344C652.052 20.1927 651.589 20.5443 651.047 20.7891C650.505 21.0339 649.896 21.1562 649.219 21.1562C648.557 21.1562 647.953 21.0339 647.406 20.7891C646.865 20.5443 646.398 20.1927 646.008 19.7344C645.617 19.276 645.315 18.7266 645.102 18.0859C644.888 17.4401 644.781 16.7188 644.781 15.9219V14.7031C644.781 13.9062 644.885 13.1875 645.094 12.5469C645.307 11.901 645.609 11.349 646 10.8906C646.391 10.4323 646.857 10.0807 647.398 9.83594C647.94 9.59115 648.542 9.46875 649.203 9.46875C649.88 9.46875 650.49 9.59115 651.031 9.83594C651.573 10.0807 652.039 10.4323 652.43 10.8906C652.82 11.349 653.12 11.901 653.328 12.5469C653.536 13.1875 653.641 13.9062 653.641 14.7031ZM652.688 15.9219V14.6875C652.688 14.0156 652.609 13.4115 652.453 12.875C652.302 12.3385 652.076 11.8802 651.773 11.5C651.477 11.1198 651.112 10.8281 650.68 10.625C650.247 10.4219 649.755 10.3203 649.203 10.3203C648.667 10.3203 648.185 10.4219 647.758 10.625C647.331 10.8281 646.966 11.1198 646.664 11.5C646.367 11.8802 646.138 12.3385 645.977 12.875C645.82 13.4115 645.742 14.0156 645.742 14.6875V15.9219C645.742 16.599 645.82 17.2083 645.977 17.75C646.138 18.2865 646.37 18.7474 646.672 19.1328C646.974 19.513 647.339 19.8047 647.766 20.0078C648.198 20.2109 648.682 20.3125 649.219 20.3125C649.776 20.3125 650.268 20.2109 650.695 20.0078C651.122 19.8047 651.484 19.513 651.781 19.1328C652.078 18.7474 652.302 18.2865 652.453 17.75C652.609 17.2083 652.688 16.599 652.688 15.9219ZM664.539 9.625V21H663.57L657.031 11.2812V21H656.07V9.625H657.031L663.586 19.3438V9.625H664.539Z" fill="#FBFCFD"/>
<circle cx="692" cy="15" r="5.5" stroke="#A6AFBD"/>
<path d="M692.42 16.6123H691.331C691.334 16.3096 691.36 16.0557 691.409 15.8506C691.458 15.6423 691.539 15.4535 691.653 15.2842C691.771 15.1149 691.925 14.9359 692.117 14.7471C692.267 14.6038 692.402 14.4688 692.522 14.3418C692.643 14.2116 692.739 14.0749 692.811 13.9316C692.882 13.7852 692.918 13.6175 692.918 13.4287C692.918 13.2236 692.884 13.0495 692.815 12.9062C692.747 12.763 692.646 12.654 692.513 12.5791C692.382 12.5042 692.22 12.4668 692.024 12.4668C691.862 12.4668 691.709 12.4993 691.565 12.5645C691.422 12.6263 691.307 12.724 691.219 12.8574C691.131 12.9876 691.084 13.1602 691.077 13.375H689.9C689.907 12.9648 690.005 12.6198 690.193 12.3398C690.382 12.0599 690.636 11.8499 690.955 11.71C691.274 11.57 691.631 11.5 692.024 11.5C692.461 11.5 692.833 11.5749 693.143 11.7246C693.452 11.8711 693.688 12.0859 693.851 12.3691C694.017 12.6491 694.1 12.9876 694.1 13.3848C694.1 13.6712 694.043 13.9316 693.929 14.166C693.815 14.3971 693.667 14.6136 693.484 14.8154C693.302 15.014 693.105 15.2126 692.894 15.4111C692.711 15.5771 692.588 15.7578 692.522 15.9531C692.457 16.1452 692.423 16.3649 692.42 16.6123ZM691.233 18.1357C691.233 17.96 691.294 17.8118 691.414 17.6914C691.535 17.5677 691.699 17.5059 691.907 17.5059C692.116 17.5059 692.28 17.5677 692.4 17.6914C692.521 17.8118 692.581 17.96 692.581 18.1357C692.581 18.3115 692.521 18.4613 692.4 18.585C692.28 18.7054 692.116 18.7656 691.907 18.7656C691.699 18.7656 691.535 18.7054 691.414 18.585C691.294 18.4613 691.233 18.3115 691.233 18.1357Z" fill="#A6AFBD"/>
<defs>
<clipPath id="clip0_1108_137">
<rect width="335.35" height="291" fill="white" transform="translate(199)"/>
</clipPath>
</defs>
</svg>
