<svg width="332" height="252" viewBox="0 0 332 252" fill="none" xmlns="http://www.w3.org/2000/svg">
<circle cx="165" cy="120" r="108" transform="rotate(-90 165 120)" fill="#D0C018"/>
<path d="M165 12C187.785 12 209.987 19.2065 228.429 32.5885C246.871 45.9706 260.608 64.8425 267.674 86.5044C274.741 108.166 274.776 131.508 267.773 153.191C260.771 174.874 247.09 193.786 228.688 207.223C210.286 220.66 188.106 227.932 165.32 228C142.535 228.067 120.312 220.926 101.83 207.599C83.349 194.272 69.5562 175.441 62.4253 153.8C55.2943 132.159 55.1905 108.817 62.1288 87.1137L165 120V12Z" fill="#4E617D"/>
<rect x="135" y="90" width="60" height="60" rx="30" fill="#FBFCFD"/>
<path d="M162.303 118H162.203V114.505H162.303V118Z" fill="#A6AFBD"/>
<path d="M167.799 118H167.649L165.184 114.605V118H165.084V114.505H165.234L167.699 117.9V114.505H167.799V118Z" fill="#A6AFBD"/>
<path d="M162.303 118H162.203V114.505H162.303V118Z" stroke="#A6AFBD" stroke-width="0.9" stroke-linejoin="round"/>
<path d="M167.799 118H167.649L165.184 114.605V118H165.084V114.505H165.234L167.699 117.9V114.505H167.799V118Z" stroke="#A6AFBD" stroke-width="0.9" stroke-linejoin="round"/>
<rect x="155.5" y="110.5" width="19" height="19" rx="0.5" stroke="#A6AFBD"/>
<path d="M174 124H162" stroke="#A6AFBD" stroke-width="2"/>
<path d="M158.118 124.191C157.961 124.112 157.961 123.888 158.118 123.809L161.691 122.023C161.833 121.952 162 122.055 162 122.213V125.787C162 125.945 161.833 126.048 161.691 125.977L158.118 124.191Z" fill="#A6AFBD"/>
<g filter="url(#filter0_d_1112_67175)">
<rect width="108" height="30" rx="1" transform="matrix(1 0 0 -1 20 64)" fill="#FBFCFD" fill-opacity="0.9"/>
<path d="M108.398 52.8125V54H100.953V52.9609L104.68 48.8125C105.138 48.3021 105.492 47.8698 105.742 47.5156C105.997 47.1562 106.174 46.8359 106.273 46.5547C106.378 46.2682 106.43 45.9766 106.43 45.6797C106.43 45.3047 106.352 44.9661 106.195 44.6641C106.044 44.3568 105.82 44.112 105.523 43.9297C105.227 43.7474 104.867 43.6562 104.445 43.6562C103.94 43.6562 103.518 43.7552 103.18 43.9531C102.846 44.1458 102.596 44.4167 102.43 44.7656C102.263 45.1146 102.18 45.5156 102.18 45.9688H100.734C100.734 45.3281 100.875 44.7422 101.156 44.2109C101.438 43.6797 101.854 43.2578 102.406 42.9453C102.958 42.6276 103.638 42.4688 104.445 42.4688C105.164 42.4688 105.779 42.5964 106.289 42.8516C106.799 43.1016 107.19 43.4557 107.461 43.9141C107.737 44.3672 107.875 44.8984 107.875 45.5078C107.875 45.8411 107.818 46.1797 107.703 46.5234C107.594 46.862 107.44 47.2005 107.242 47.5391C107.049 47.8776 106.823 48.2109 106.562 48.5391C106.307 48.8672 106.034 49.1901 105.742 49.5078L102.695 52.8125H108.398ZM117.297 42.625V43.4375L112.586 54H111.062L115.766 43.8125H109.609V42.625H117.297Z" fill="#50505A"/>
<path d="M37.4512 53.2822V54H31.8525V53.2822H37.4512ZM32.1055 44.0469V54H31.2646V44.0469H32.1055ZM36.7539 48.5107V49.2285H31.8525V48.5107H36.7539ZM37.417 44.0469V44.7715H31.8525V44.0469H37.417ZM39.3652 46.6035L41.3613 49.5908L43.3643 46.6035H44.335L41.8262 50.2266L44.4375 54H43.4805L41.3682 50.876L39.2627 54H38.3057L40.917 50.2266L38.4082 46.6035H39.3652ZM48.457 53.4326C48.8034 53.4326 49.127 53.3688 49.4277 53.2412C49.7331 53.109 49.9837 52.9154 50.1797 52.6602C50.3802 52.4004 50.4941 52.0837 50.5215 51.71H51.3008C51.278 52.1794 51.1344 52.5986 50.8701 52.9678C50.6104 53.3324 50.2686 53.6195 49.8447 53.8291C49.4255 54.0342 48.9629 54.1367 48.457 54.1367C47.9421 54.1367 47.4863 54.0433 47.0898 53.8564C46.6979 53.6696 46.3698 53.4098 46.1055 53.0771C45.8411 52.7399 45.6406 52.348 45.5039 51.9014C45.3717 51.4502 45.3057 50.9648 45.3057 50.4453V50.1582C45.3057 49.6387 45.3717 49.1556 45.5039 48.709C45.6406 48.2578 45.8411 47.8659 46.1055 47.5332C46.3698 47.196 46.6979 46.9339 47.0898 46.7471C47.4818 46.5602 47.9352 46.4668 48.4502 46.4668C48.9788 46.4668 49.4528 46.5739 49.8721 46.7881C50.2959 47.0023 50.6331 47.3053 50.8838 47.6973C51.139 48.0892 51.278 48.554 51.3008 49.0918H50.5215C50.4987 48.6953 50.3939 48.3535 50.207 48.0664C50.0202 47.7793 49.7741 47.5583 49.4688 47.4033C49.1634 47.2484 48.8239 47.1709 48.4502 47.1709C48.0309 47.1709 47.6732 47.2529 47.377 47.417C47.0807 47.5765 46.8392 47.7975 46.6523 48.0801C46.4701 48.3581 46.3356 48.6771 46.249 49.0371C46.1624 49.3926 46.1191 49.7663 46.1191 50.1582V50.4453C46.1191 50.8418 46.1602 51.2201 46.2422 51.5801C46.3288 51.9355 46.4632 52.2523 46.6455 52.5303C46.8324 52.8083 47.0739 53.0293 47.3701 53.1934C47.6709 53.3529 48.0332 53.4326 48.457 53.4326ZM53.7617 43.5V54H52.9482V43.5H53.7617ZM53.5771 49.8438L53.2148 49.6387C53.2422 49.2012 53.3311 48.791 53.4814 48.4082C53.6318 48.0254 53.8346 47.6882 54.0898 47.3965C54.3496 47.1048 54.6527 46.877 54.999 46.7129C55.3499 46.5488 55.7373 46.4668 56.1611 46.4668C56.5303 46.4668 56.8607 46.5169 57.1523 46.6172C57.444 46.7174 57.6924 46.877 57.8975 47.0957C58.1025 47.3145 58.2575 47.5947 58.3623 47.9365C58.4717 48.2783 58.5264 48.6953 58.5264 49.1875V54H57.7061V49.1807C57.7061 48.6702 57.6354 48.2715 57.4941 47.9844C57.3529 47.6927 57.1523 47.4854 56.8926 47.3623C56.6328 47.2393 56.3252 47.1777 55.9697 47.1777C55.5778 47.1777 55.2337 47.2643 54.9375 47.4375C54.6458 47.6061 54.3997 47.8271 54.1992 48.1006C54.0033 48.3695 53.8529 48.6589 53.748 48.9688C53.6432 49.2741 53.5863 49.5658 53.5771 49.8438ZM65.1299 52.6738V48.8594C65.1299 48.5085 65.057 48.2054 64.9111 47.9502C64.7653 47.695 64.5511 47.499 64.2686 47.3623C63.986 47.2256 63.6374 47.1572 63.2227 47.1572C62.8398 47.1572 62.498 47.2256 62.1973 47.3623C61.901 47.4945 61.6663 47.6745 61.4932 47.9023C61.3245 48.1257 61.2402 48.374 61.2402 48.6475L60.4199 48.6406C60.4199 48.3626 60.4883 48.0938 60.625 47.834C60.7617 47.5742 60.9554 47.3418 61.2061 47.1367C61.4567 46.9316 61.7552 46.7699 62.1016 46.6514C62.4525 46.5283 62.8376 46.4668 63.2568 46.4668C63.7855 46.4668 64.2503 46.5557 64.6514 46.7334C65.057 46.9111 65.3737 47.1777 65.6016 47.5332C65.8294 47.8887 65.9434 48.3353 65.9434 48.873V52.4482C65.9434 52.7035 65.9616 52.9678 65.998 53.2412C66.0391 53.5146 66.096 53.7402 66.1689 53.918V54H65.3008C65.2461 53.8359 65.2028 53.6309 65.1709 53.3848C65.1436 53.1341 65.1299 52.8971 65.1299 52.6738ZM65.3213 49.6934L65.335 50.3223H63.7285C63.3092 50.3223 62.9333 50.361 62.6006 50.4385C62.2725 50.5114 61.9945 50.6208 61.7666 50.7666C61.5387 50.9079 61.3633 51.0788 61.2402 51.2793C61.1217 51.4798 61.0625 51.7077 61.0625 51.9629C61.0625 52.2272 61.1286 52.4688 61.2607 52.6875C61.3975 52.9062 61.5889 53.0817 61.835 53.2139C62.0856 53.3415 62.3818 53.4053 62.7236 53.4053C63.1794 53.4053 63.5804 53.321 63.9268 53.1523C64.2777 52.9837 64.5671 52.7627 64.7949 52.4893C65.0228 52.2158 65.1755 51.9173 65.2529 51.5938L65.6084 52.0654C65.5492 52.2933 65.4398 52.528 65.2803 52.7695C65.1253 53.0065 64.9225 53.2298 64.6719 53.4395C64.4212 53.6445 64.125 53.8132 63.7832 53.9453C63.446 54.0729 63.0632 54.1367 62.6348 54.1367C62.1517 54.1367 61.7301 54.0456 61.3701 53.8633C61.0146 53.681 60.7367 53.4326 60.5361 53.1182C60.3402 52.7992 60.2422 52.4391 60.2422 52.0381C60.2422 51.6735 60.3197 51.3477 60.4746 51.0605C60.6296 50.7689 60.8529 50.5228 61.1445 50.3223C61.4408 50.1172 61.7962 49.9622 62.2109 49.8574C62.6302 49.748 63.0996 49.6934 63.6191 49.6934H65.3213ZM68.9512 48.1826V54H68.1377V46.6035H68.917L68.9512 48.1826ZM68.7666 49.8438L68.4043 49.6387C68.4316 49.2012 68.5205 48.791 68.6709 48.4082C68.8213 48.0254 69.0241 47.6882 69.2793 47.3965C69.5391 47.1048 69.8421 46.877 70.1885 46.7129C70.5394 46.5488 70.9268 46.4668 71.3506 46.4668C71.7197 46.4668 72.0501 46.5169 72.3418 46.6172C72.6335 46.7174 72.8818 46.877 73.0869 47.0957C73.292 47.3145 73.4469 47.5947 73.5518 47.9365C73.6611 48.2783 73.7158 48.6953 73.7158 49.1875V54H72.8955V49.1807C72.8955 48.6702 72.8249 48.2715 72.6836 47.9844C72.5423 47.6927 72.3418 47.4854 72.082 47.3623C71.8223 47.2393 71.5146 47.1777 71.1592 47.1777C70.7673 47.1777 70.4232 47.2643 70.127 47.4375C69.8353 47.6061 69.5892 47.8271 69.3887 48.1006C69.1927 48.3695 69.0423 48.6589 68.9375 48.9688C68.8327 49.2741 68.7757 49.5658 68.7666 49.8438ZM80.7021 46.6035H81.4609V53.8701C81.4609 54.5127 81.3379 55.0641 81.0918 55.5244C80.8503 55.9847 80.5062 56.3379 80.0596 56.584C79.6175 56.8301 79.0957 56.9531 78.4941 56.9531C78.1888 56.9531 77.8743 56.9053 77.5508 56.8096C77.2318 56.7184 76.9287 56.5771 76.6416 56.3857C76.359 56.1989 76.1175 55.9665 75.917 55.6885L76.375 55.1895C76.6758 55.554 76.9971 55.8206 77.3389 55.9893C77.6807 56.1624 78.0498 56.249 78.4463 56.249C78.9157 56.249 79.3122 56.1556 79.6357 55.9688C79.9639 55.7819 80.2122 55.513 80.3809 55.1621C80.554 54.8112 80.6406 54.3896 80.6406 53.8975V48.2305L80.7021 46.6035ZM75.5068 50.377V50.2334C75.5068 49.6592 75.5706 49.1419 75.6982 48.6816C75.8304 48.2168 76.0195 47.8203 76.2656 47.4922C76.5117 47.1595 76.8102 46.9066 77.1611 46.7334C77.5166 46.5557 77.9176 46.4668 78.3643 46.4668C78.7926 46.4668 79.1732 46.5374 79.5059 46.6787C79.8385 46.82 80.1257 47.0228 80.3672 47.2871C80.6087 47.5514 80.8024 47.8659 80.9482 48.2305C81.0986 48.5951 81.208 49.0007 81.2764 49.4473V51.2725C81.2217 51.6917 81.1214 52.0768 80.9756 52.4277C80.8298 52.7741 80.6361 53.0771 80.3945 53.3369C80.153 53.5921 79.8613 53.7904 79.5195 53.9316C79.1823 54.0684 78.7926 54.1367 78.3506 54.1367C77.9085 54.1367 77.512 54.0456 77.1611 53.8633C76.8102 53.681 76.5117 53.4235 76.2656 53.0908C76.0195 52.7536 75.8304 52.3548 75.6982 51.8945C75.5706 51.4342 75.5068 50.9284 75.5068 50.377ZM76.3271 50.2334V50.377C76.3271 50.8099 76.3704 51.2109 76.457 51.5801C76.5436 51.9492 76.6758 52.2705 76.8535 52.5439C77.0312 52.8174 77.2568 53.0316 77.5303 53.1865C77.8037 53.3415 78.125 53.4189 78.4941 53.4189C78.9635 53.4189 79.3577 53.3301 79.6768 53.1523C79.9958 52.9701 80.2487 52.7308 80.4355 52.4346C80.6224 52.1338 80.7591 51.8057 80.8457 51.4502V49.3242C80.7956 49.0827 80.7181 48.8366 80.6133 48.5859C80.513 48.3353 80.3717 48.1051 80.1895 47.8955C80.0117 47.6813 79.7839 47.5104 79.5059 47.3828C79.2324 47.2507 78.8997 47.1846 78.5078 47.1846C78.1341 47.1846 77.8083 47.262 77.5303 47.417C77.2568 47.5719 77.0312 47.7884 76.8535 48.0664C76.6758 48.3398 76.5436 48.6611 76.457 49.0303C76.3704 49.3994 76.3271 49.8005 76.3271 50.2334ZM86.458 54.1367C85.9749 54.1367 85.5306 54.0479 85.125 53.8701C84.724 53.6924 84.373 53.4417 84.0723 53.1182C83.776 52.7946 83.5459 52.4118 83.3818 51.9697C83.2223 51.5231 83.1426 51.0355 83.1426 50.5068V50.2129C83.1426 49.6432 83.2269 49.1283 83.3955 48.668C83.5641 48.2077 83.7965 47.8135 84.0928 47.4854C84.389 47.1572 84.7262 46.9066 85.1045 46.7334C85.4873 46.5557 85.8883 46.4668 86.3076 46.4668C86.777 46.4668 87.194 46.5511 87.5586 46.7197C87.9232 46.8838 88.2285 47.1185 88.4746 47.4238C88.7253 47.7246 88.9144 48.0824 89.042 48.4971C89.1696 48.9072 89.2334 49.3607 89.2334 49.8574V50.3564H83.6348V49.6592H88.4199V49.5635C88.4108 49.1488 88.3265 48.7614 88.167 48.4014C88.012 48.0368 87.7796 47.7406 87.4697 47.5127C87.1598 47.2848 86.7725 47.1709 86.3076 47.1709C85.9613 47.1709 85.6423 47.2438 85.3506 47.3896C85.0635 47.5355 84.8151 47.7451 84.6055 48.0186C84.4004 48.2874 84.2409 48.6087 84.127 48.9824C84.0176 49.3516 83.9629 49.7617 83.9629 50.2129V50.5068C83.9629 50.917 84.0221 51.2998 84.1406 51.6553C84.2637 52.0062 84.4368 52.3161 84.6602 52.585C84.888 52.8538 85.1569 53.0635 85.4668 53.2139C85.7767 53.3643 86.1185 53.4395 86.4922 53.4395C86.9297 53.4395 87.3171 53.3597 87.6543 53.2002C87.9915 53.0361 88.2946 52.7786 88.5635 52.4277L89.0762 52.8242C88.9167 53.0612 88.7161 53.2799 88.4746 53.4805C88.2376 53.681 87.9528 53.8405 87.6201 53.959C87.2874 54.0775 86.9001 54.1367 86.458 54.1367Z" fill="#50505A"/>
</g>
<g filter="url(#filter1_d_1112_67175)">
<rect width="109" height="30" rx="1" transform="matrix(1 0 0 -1 203 193)" fill="#FBFCFD" fill-opacity="0.9"/>
<path d="M280.695 171.562V183H279.25V173.367L276.336 174.43V173.125L280.469 171.562H280.695ZM292.086 176.406V178.141C292.086 179.073 292.003 179.859 291.836 180.5C291.669 181.141 291.43 181.656 291.117 182.047C290.805 182.438 290.427 182.721 289.984 182.898C289.547 183.07 289.052 183.156 288.5 183.156C288.062 183.156 287.659 183.102 287.289 182.992C286.919 182.883 286.586 182.708 286.289 182.469C285.997 182.224 285.747 181.906 285.539 181.516C285.331 181.125 285.172 180.651 285.062 180.094C284.953 179.536 284.898 178.885 284.898 178.141V176.406C284.898 175.474 284.982 174.693 285.148 174.062C285.32 173.432 285.562 172.927 285.875 172.547C286.188 172.161 286.562 171.885 287 171.719C287.443 171.552 287.938 171.469 288.484 171.469C288.927 171.469 289.333 171.523 289.703 171.633C290.078 171.737 290.411 171.906 290.703 172.141C290.995 172.37 291.242 172.677 291.445 173.062C291.654 173.443 291.812 173.909 291.922 174.461C292.031 175.013 292.086 175.661 292.086 176.406ZM290.633 178.375V176.164C290.633 175.654 290.602 175.206 290.539 174.82C290.482 174.43 290.396 174.096 290.281 173.82C290.167 173.544 290.021 173.32 289.844 173.148C289.672 172.977 289.471 172.852 289.242 172.773C289.018 172.69 288.766 172.648 288.484 172.648C288.141 172.648 287.836 172.714 287.57 172.844C287.305 172.969 287.081 173.169 286.898 173.445C286.721 173.721 286.586 174.083 286.492 174.531C286.398 174.979 286.352 175.523 286.352 176.164V178.375C286.352 178.885 286.38 179.336 286.438 179.727C286.5 180.117 286.591 180.456 286.711 180.742C286.831 181.023 286.977 181.255 287.148 181.438C287.32 181.62 287.518 181.755 287.742 181.844C287.971 181.927 288.224 181.969 288.5 181.969C288.854 181.969 289.164 181.901 289.43 181.766C289.695 181.63 289.917 181.419 290.094 181.133C290.276 180.841 290.411 180.469 290.5 180.016C290.589 179.557 290.633 179.01 290.633 178.375ZM301.297 171.625V172.438L296.586 183H295.062L299.766 172.812H293.609V171.625H301.297Z" fill="#50505A"/>
<path d="M217.601 173.047V183H216.767V173.047H217.601ZM221.012 173.047V173.771H213.362V173.047H221.012ZM222.734 176.827V183H221.921V175.604H222.714L222.734 176.827ZM225.353 175.549L225.332 176.301C225.241 176.287 225.152 176.276 225.065 176.267C224.979 176.257 224.885 176.253 224.785 176.253C224.43 176.253 224.118 176.319 223.849 176.451C223.584 176.579 223.361 176.759 223.179 176.991C222.996 177.219 222.857 177.488 222.762 177.798C222.666 178.103 222.611 178.431 222.598 178.782L222.297 178.898C222.297 178.415 222.347 177.966 222.447 177.552C222.548 177.137 222.7 176.775 222.905 176.465C223.115 176.15 223.377 175.907 223.691 175.733C224.01 175.556 224.384 175.467 224.812 175.467C224.917 175.467 225.02 175.476 225.12 175.494C225.225 175.508 225.302 175.526 225.353 175.549ZM230.862 181.674V177.859C230.862 177.508 230.789 177.205 230.644 176.95C230.498 176.695 230.284 176.499 230.001 176.362C229.718 176.226 229.37 176.157 228.955 176.157C228.572 176.157 228.23 176.226 227.93 176.362C227.633 176.494 227.399 176.674 227.226 176.902C227.057 177.126 226.973 177.374 226.973 177.647L226.152 177.641C226.152 177.363 226.221 177.094 226.357 176.834C226.494 176.574 226.688 176.342 226.938 176.137C227.189 175.932 227.488 175.77 227.834 175.651C228.185 175.528 228.57 175.467 228.989 175.467C229.518 175.467 229.983 175.556 230.384 175.733C230.789 175.911 231.106 176.178 231.334 176.533C231.562 176.889 231.676 177.335 231.676 177.873V181.448C231.676 181.703 231.694 181.968 231.73 182.241C231.771 182.515 231.828 182.74 231.901 182.918V183H231.033C230.979 182.836 230.935 182.631 230.903 182.385C230.876 182.134 230.862 181.897 230.862 181.674ZM231.054 178.693L231.067 179.322H229.461C229.042 179.322 228.666 179.361 228.333 179.438C228.005 179.511 227.727 179.621 227.499 179.767C227.271 179.908 227.096 180.079 226.973 180.279C226.854 180.48 226.795 180.708 226.795 180.963C226.795 181.227 226.861 181.469 226.993 181.688C227.13 181.906 227.321 182.082 227.567 182.214C227.818 182.341 228.114 182.405 228.456 182.405C228.912 182.405 229.313 182.321 229.659 182.152C230.01 181.984 230.299 181.763 230.527 181.489C230.755 181.216 230.908 180.917 230.985 180.594L231.341 181.065C231.282 181.293 231.172 181.528 231.013 181.77C230.858 182.007 230.655 182.23 230.404 182.439C230.154 182.645 229.857 182.813 229.516 182.945C229.178 183.073 228.796 183.137 228.367 183.137C227.884 183.137 227.463 183.046 227.103 182.863C226.747 182.681 226.469 182.433 226.269 182.118C226.073 181.799 225.975 181.439 225.975 181.038C225.975 180.674 226.052 180.348 226.207 180.061C226.362 179.769 226.585 179.523 226.877 179.322C227.173 179.117 227.529 178.962 227.943 178.857C228.363 178.748 228.832 178.693 229.352 178.693H231.054ZM234.684 177.183V183H233.87V175.604H234.649L234.684 177.183ZM234.499 178.844L234.137 178.639C234.164 178.201 234.253 177.791 234.403 177.408C234.554 177.025 234.757 176.688 235.012 176.396C235.271 176.105 235.575 175.877 235.921 175.713C236.272 175.549 236.659 175.467 237.083 175.467C237.452 175.467 237.783 175.517 238.074 175.617C238.366 175.717 238.614 175.877 238.819 176.096C239.024 176.314 239.179 176.595 239.284 176.937C239.394 177.278 239.448 177.695 239.448 178.188V183H238.628V178.181C238.628 177.67 238.557 177.271 238.416 176.984C238.275 176.693 238.074 176.485 237.814 176.362C237.555 176.239 237.247 176.178 236.892 176.178C236.5 176.178 236.156 176.264 235.859 176.438C235.568 176.606 235.322 176.827 235.121 177.101C234.925 177.369 234.775 177.659 234.67 177.969C234.565 178.274 234.508 178.566 234.499 178.844ZM245.997 181.113C245.997 180.913 245.947 180.715 245.847 180.519C245.746 180.323 245.553 180.143 245.266 179.979C244.983 179.814 244.566 179.675 244.015 179.562C243.604 179.47 243.238 179.368 242.914 179.254C242.595 179.14 242.326 179.003 242.107 178.844C241.889 178.684 241.722 178.493 241.608 178.27C241.494 178.046 241.438 177.782 241.438 177.477C241.438 177.203 241.497 176.946 241.615 176.704C241.738 176.458 241.911 176.244 242.135 176.062C242.363 175.875 242.636 175.729 242.955 175.624C243.279 175.519 243.641 175.467 244.042 175.467C244.612 175.467 245.099 175.565 245.505 175.761C245.915 175.952 246.227 176.214 246.441 176.547C246.66 176.88 246.77 177.256 246.77 177.675H245.956C245.956 177.42 245.881 177.178 245.73 176.95C245.585 176.722 245.368 176.535 245.081 176.39C244.799 176.244 244.452 176.171 244.042 176.171C243.618 176.171 243.274 176.235 243.01 176.362C242.745 176.49 242.552 176.652 242.429 176.848C242.31 177.044 242.251 177.246 242.251 177.456C242.251 177.62 242.276 177.771 242.326 177.907C242.381 178.039 242.477 178.162 242.613 178.276C242.755 178.39 242.955 178.497 243.215 178.598C243.475 178.698 243.812 178.796 244.227 178.892C244.824 179.024 245.311 179.186 245.689 179.377C246.072 179.564 246.355 179.796 246.537 180.074C246.719 180.348 246.811 180.68 246.811 181.072C246.811 181.378 246.747 181.658 246.619 181.913C246.492 182.164 246.307 182.38 246.065 182.562C245.828 182.745 245.541 182.886 245.204 182.986C244.871 183.087 244.498 183.137 244.083 183.137C243.459 183.137 242.93 183.034 242.497 182.829C242.069 182.619 241.743 182.346 241.52 182.009C241.301 181.667 241.191 181.305 241.191 180.922H242.005C242.032 181.305 242.153 181.608 242.367 181.831C242.581 182.05 242.843 182.205 243.153 182.296C243.468 182.387 243.778 182.433 244.083 182.433C244.502 182.433 244.853 182.371 245.136 182.248C245.418 182.125 245.632 181.963 245.778 181.763C245.924 181.562 245.997 181.346 245.997 181.113ZM250.064 183H249.251V174.688C249.251 174.182 249.338 173.756 249.511 173.409C249.688 173.063 249.939 172.801 250.263 172.623C250.591 172.445 250.98 172.356 251.432 172.356C251.573 172.356 251.719 172.366 251.869 172.384C252.02 172.397 252.165 172.427 252.307 172.473L252.245 173.163C252.131 173.131 252.015 173.111 251.896 173.102C251.783 173.088 251.648 173.081 251.493 173.081C251.197 173.081 250.942 173.145 250.728 173.272C250.513 173.396 250.349 173.576 250.235 173.812C250.121 174.049 250.064 174.341 250.064 174.688V183ZM251.828 175.604V176.273H248.027V175.604H251.828ZM255.991 183.137C255.508 183.137 255.064 183.048 254.658 182.87C254.257 182.692 253.906 182.442 253.605 182.118C253.309 181.795 253.079 181.412 252.915 180.97C252.756 180.523 252.676 180.035 252.676 179.507V179.213C252.676 178.643 252.76 178.128 252.929 177.668C253.097 177.208 253.33 176.813 253.626 176.485C253.922 176.157 254.259 175.907 254.638 175.733C255.021 175.556 255.422 175.467 255.841 175.467C256.31 175.467 256.727 175.551 257.092 175.72C257.456 175.884 257.762 176.118 258.008 176.424C258.258 176.725 258.448 177.082 258.575 177.497C258.703 177.907 258.767 178.361 258.767 178.857V179.356H253.168V178.659H257.953V178.563C257.944 178.149 257.86 177.761 257.7 177.401C257.545 177.037 257.313 176.741 257.003 176.513C256.693 176.285 256.306 176.171 255.841 176.171C255.494 176.171 255.175 176.244 254.884 176.39C254.597 176.535 254.348 176.745 254.139 177.019C253.934 177.287 253.774 177.609 253.66 177.982C253.551 178.352 253.496 178.762 253.496 179.213V179.507C253.496 179.917 253.555 180.3 253.674 180.655C253.797 181.006 253.97 181.316 254.193 181.585C254.421 181.854 254.69 182.063 255 182.214C255.31 182.364 255.652 182.439 256.025 182.439C256.463 182.439 256.85 182.36 257.188 182.2C257.525 182.036 257.828 181.779 258.097 181.428L258.609 181.824C258.45 182.061 258.249 182.28 258.008 182.48C257.771 182.681 257.486 182.84 257.153 182.959C256.821 183.077 256.433 183.137 255.991 183.137ZM261.193 176.827V183H260.38V175.604H261.173L261.193 176.827ZM263.812 175.549L263.791 176.301C263.7 176.287 263.611 176.276 263.524 176.267C263.438 176.257 263.344 176.253 263.244 176.253C262.889 176.253 262.576 176.319 262.308 176.451C262.043 176.579 261.82 176.759 261.638 176.991C261.455 177.219 261.316 177.488 261.221 177.798C261.125 178.103 261.07 178.431 261.057 178.782L260.756 178.898C260.756 178.415 260.806 177.966 260.906 177.552C261.007 177.137 261.159 176.775 261.364 176.465C261.574 176.15 261.836 175.907 262.15 175.733C262.469 175.556 262.843 175.467 263.271 175.467C263.376 175.467 263.479 175.476 263.579 175.494C263.684 175.508 263.761 175.526 263.812 175.549Z" fill="#50505A"/>
</g>
<defs>
<filter id="filter0_d_1112_67175" x="0" y="24" width="148" height="70" filterUnits="userSpaceOnUse" color-interpolation-filters="sRGB">
<feFlood flood-opacity="0" result="BackgroundImageFix"/>
<feColorMatrix in="SourceAlpha" type="matrix" values="0 0 0 0 0 0 0 0 0 0 0 0 0 0 0 0 0 0 127 0" result="hardAlpha"/>
<feOffset dy="10"/>
<feGaussianBlur stdDeviation="10"/>
<feColorMatrix type="matrix" values="0 0 0 0 0 0 0 0 0 0.0784314 0 0 0 0 0.117647 0 0 0 0.1 0"/>
<feBlend mode="normal" in2="BackgroundImageFix" result="effect1_dropShadow_1112_67175"/>
<feBlend mode="normal" in="SourceGraphic" in2="effect1_dropShadow_1112_67175" result="shape"/>
</filter>
<filter id="filter1_d_1112_67175" x="183" y="153" width="149" height="70" filterUnits="userSpaceOnUse" color-interpolation-filters="sRGB">
<feFlood flood-opacity="0" result="BackgroundImageFix"/>
<feColorMatrix in="SourceAlpha" type="matrix" values="0 0 0 0 0 0 0 0 0 0 0 0 0 0 0 0 0 0 127 0" result="hardAlpha"/>
<feOffset dy="10"/>
<feGaussianBlur stdDeviation="10"/>
<feColorMatrix type="matrix" values="0 0 0 0 0 0 0 0 0 0.0784314 0 0 0 0 0.117647 0 0 0 0.1 0"/>
<feBlend mode="normal" in2="BackgroundImageFix" result="effect1_dropShadow_1112_67175"/>
<feBlend mode="normal" in="SourceGraphic" in2="effect1_dropShadow_1112_67175" result="shape"/>
</filter>
</defs>
</svg>
