<svg width="22" height="22" viewBox="0 0 22 22" fill="none" xmlns="http://www.w3.org/2000/svg">
<g clip-path="url(#clip0_834_196273)">
<path d="M10.4996 21.6C16.2434 21.6 20.8996 16.9437 20.8996 11.2C20.8996 5.45622 16.2434 0.799988 10.4996 0.799988C4.75585 0.799988 0.0996094 5.45622 0.0996094 11.2C0.0996094 16.9437 4.75585 21.6 10.4996 21.6Z" fill="#F3BB30"/>
<path d="M10.4988 12.5C10.0988 12.5 9.69883 12.5 9.29883 12.5V17.4H11.7988V12.5C11.2988 12.5 10.8988 12.5 10.4988 12.5Z" fill="white"/>
<path d="M5.89844 5.79999V8.29999H9.29844V11.6C9.69844 11.6 10.0984 11.6 10.4984 11.6C10.9984 11.6 11.2984 11.6 11.6984 11.6V8.29999H15.0984V5.79999H5.89844Z" fill="white"/>
<path d="M10.4992 12.8C8.29922 12.8 4.19922 12.5 4.19922 11.2C4.19922 10.3 8.29922 10 10.4992 10C12.6992 10 16.7992 10.4 16.7992 11.2C16.7992 12.5 12.6992 12.8 10.4992 12.8ZM10.4992 10.2C6.69922 10.2 4.79922 10.9 4.79922 11.2C4.79922 11.5 6.79922 12.2 10.4992 12.2C14.2992 12.2 16.1992 11.5 16.1992 11.2C16.1992 10.9 14.2992 10.2 10.4992 10.2Z" fill="white"/>
</g>
<defs>
<clipPath id="clip0_834_196273">
<rect width="22" height="22" fill="white"/>
</clipPath>
</defs>
</svg>
