<svg width="22" height="22" viewBox="0 0 22 22" fill="none" xmlns="http://www.w3.org/2000/svg">
<g id="Group">
<path id="Vector" d="M11.2008 21.7C16.9445 21.7 21.6008 17.0438 21.6008 11.3C21.6008 5.55624 16.9445 0.899994 11.2008 0.899994C5.45702 0.899994 0.800781 5.55624 0.800781 11.3C0.800781 17.0438 5.45702 21.7 11.2008 21.7Z" fill="#F3BB30"/>
<g id="Group_2">
<path id="Vector_2" d="M5.40039 10.6L6.80039 11.2V13.8L9.00039 15V16.7L5.40039 14.5V10.6Z" fill="white"/>
<path id="Vector_3" d="M7.90039 11.9L9.00039 12.6V14L7.90039 13.3V11.9Z" fill="white"/>
<path id="Vector_4" d="M5.40039 9.59999L6.80039 10.2V8.79999L8.20039 7.99998L6.90039 7.19998L5.40039 7.99998V9.59999Z" fill="white"/>
<path id="Vector_5" d="M16.9008 10.6L15.5008 11.2V13.8L13.3008 15V16.7L16.9008 14.5V10.6Z" fill="white"/>
<path id="Vector_6" d="M14.5008 11.9L13.3008 12.6V14L14.5008 13.3V11.9Z" fill="white"/>
<path id="Vector_7" d="M16.8996 9.59999L15.4996 10.2V8.79999L14.0996 7.99998L15.4996 7.19998L16.8996 7.99998V9.59999Z" fill="white"/>
<path id="Vector_8" d="M11.2 7.39996L10 8.09998L11.2 8.79997L12.3 8.09998L11.2 7.39996Z" fill="white"/>
<path id="Vector_9" d="M11.2012 4.79999L7.70117 6.69998L9.00117 7.49998L11.2012 6.29999L13.3012 7.49998L14.7012 6.69998L11.2012 4.79999Z" fill="white"/>
<path id="Vector_10" d="M11.2004 16.2L9.90039 15.5V17L11.2004 17.7L12.5004 17V15.5L11.2004 16.2Z" fill="white"/>
<path id="Vector_11" d="M13.4004 8.59998L11.2004 9.79997L8.90039 8.59998L7.90039 9.19997V10.6L10.0004 11.8V14.4L11.2004 15.1L12.3004 14.4V11.8L14.5004 10.6V9.19997L13.4004 8.59998Z" fill="white"/>
</g>
</g>
</svg>
