<svg width="40" height="40" viewBox="0 0 40 40" fill="none" xmlns="http://www.w3.org/2000/svg">
<g clip-path="url(#clip0_834_134665)">
<path d="M16 17.9843V21.9019C16 21.9524 16.0285 21.9985 16.0737 22.0211L20 23.9843M20 23.9843L23.9263 22.0211C23.9715 21.9985 24 21.9524 24 21.9019V18.2C24 18.1009 23.8957 18.0364 23.807 18.0807L20.0737 19.9474C20.0285 19.97 20 20.0162 20 20.0667V23.9843ZM19.9404 16.0141L16.2385 17.865C16.1402 17.9141 16.1402 18.0544 16.2385 18.1035L19.9404 19.9544C19.9779 19.9732 20.0221 19.9732 20.0596 19.9544L23.7615 18.1035C23.8598 18.0544 23.8598 17.9141 23.7615 17.865L20.0596 16.0141C20.0221 15.9953 19.9779 15.9953 19.9404 16.0141Z" stroke="#FBFCFD" stroke-linecap="round" stroke-linejoin="round"/>
<path d="M15 2.48426V6.40186C15 6.45236 15.0285 6.49853 15.0737 6.52111L19 8.48426M19 8.48426L22.9263 6.52111C22.9715 6.49853 23 6.45236 23 6.40186V2.7C23 2.60088 22.8957 2.53642 22.807 2.58074L19.0737 4.44741C19.0285 4.47 19 4.51616 19 4.56667V8.48426ZM18.9404 0.514076L15.2385 2.36501C15.1402 2.41414 15.1402 2.55438 15.2385 2.60352L18.9404 4.45445C18.9779 4.47322 19.0221 4.47322 19.0596 4.45445L22.7615 2.60352C22.8598 2.55438 22.8598 2.41414 22.7615 2.36501L19.0596 0.514076C19.0221 0.495308 18.9779 0.495308 18.9404 0.514076Z" stroke="#FBFCFD" stroke-linecap="round" stroke-linejoin="round"/>
<path d="M19 10.5L20 14" stroke="#FBFCFD" stroke-linecap="round" stroke-linejoin="round"/>
<path d="M20 26L22 29.5" stroke="#FBFCFD" stroke-linecap="round" stroke-linejoin="round"/>
<path d="M25 16.5L28.5 13" stroke="#FBFCFD" stroke-linecap="round" stroke-linejoin="round"/>
<path d="M30 7.98426V11.9019C30 11.9524 30.0285 11.9985 30.0737 12.0211L34 13.9843M34 13.9843L37.9263 12.0211C37.9715 11.9985 38 11.9524 38 11.9019V8.2C38 8.10088 37.8957 8.03642 37.807 8.08074L34.0737 9.94741C34.0285 9.97 34 10.0162 34 10.0667V13.9843ZM33.9404 6.01408L30.2385 7.86501C30.1402 7.91414 30.1402 8.05438 30.2385 8.10352L33.9404 9.95445C33.9779 9.97322 34.0221 9.97322 34.0596 9.95445L37.7615 8.10352C37.8598 8.05438 37.8598 7.91414 37.7615 7.86501L34.0596 6.01408C34.0221 5.99531 33.9779 5.99531 33.9404 6.01408Z" stroke="#FBFCFD" stroke-linecap="round" stroke-linejoin="round"/>
<path d="M0.5 9.98426V13.9019C0.5 13.9524 0.528534 13.9985 0.573705 14.0211L4.5 15.9843M4.5 15.9843L8.4263 14.0211C8.47147 13.9985 8.5 13.9524 8.5 13.9019V10.2C8.5 10.1009 8.39569 10.0364 8.30704 10.0807L4.5737 11.9474C4.52853 11.97 4.5 12.0162 4.5 12.0667V15.9843ZM4.44037 8.01408L0.738514 9.86501C0.640241 9.91414 0.640241 10.0544 0.738514 10.1035L4.44037 11.9544C4.47791 11.9732 4.52209 11.9732 4.55963 11.9544L8.26149 10.1035C8.35976 10.0544 8.35976 9.91414 8.26149 9.86501L4.55963 8.01408C4.52209 7.99531 4.47791 7.99531 4.44037 8.01408Z" stroke="#FBFCFD" stroke-linecap="round" stroke-linejoin="round"/>
<path d="M14.5 17L10 15" stroke="#FBFCFD" stroke-linecap="round" stroke-linejoin="round"/>
<path d="M14.5 23L11.5 27" stroke="#FBFCFD" stroke-linecap="round" stroke-linejoin="round"/>
<path d="M25.5 23L30 25" stroke="#FBFCFD" stroke-linecap="round" stroke-linejoin="round"/>
<path d="M31.5 25.9843V29.9019C31.5 29.9524 31.5285 29.9985 31.5737 30.0211L35.5 31.9843M35.5 31.9843L39.4263 30.0211C39.4715 29.9985 39.5 29.9524 39.5 29.9019V26.2C39.5 26.1009 39.3957 26.0364 39.307 26.0807L35.5737 27.9474C35.5285 27.97 35.5 28.0162 35.5 28.0667V31.9843ZM35.4404 24.0141L31.7385 25.865C31.6402 25.9141 31.6402 26.0544 31.7385 26.1035L35.4404 27.9544C35.4779 27.9732 35.5221 27.9732 35.5596 27.9544L39.2615 26.1035C39.3598 26.0544 39.3598 25.9141 39.2615 25.865L35.5596 24.0141C35.5221 23.9953 35.4779 23.9953 35.4404 24.0141Z" stroke="#FBFCFD" stroke-linecap="round" stroke-linejoin="round"/>
<path d="M2 27.9843V31.9019C2 31.9524 2.02853 31.9985 2.0737 32.0211L6 33.9843M6 33.9843L9.9263 32.0211C9.97147 31.9985 10 31.9524 10 31.9019V28.2C10 28.1009 9.89569 28.0364 9.80704 28.0807L6.0737 29.9474C6.02853 29.97 6 30.0162 6 30.0667V33.9843ZM5.94037 26.0141L2.23851 27.865C2.14024 27.9141 2.14024 28.0544 2.23851 28.1035L5.94037 29.9544C5.97791 29.9732 6.02209 29.9732 6.05963 29.9544L9.76149 28.1035C9.85976 28.0544 9.85976 27.9141 9.76149 27.865L6.05963 26.0141C6.02209 25.9953 5.97791 25.9953 5.94037 26.0141Z" stroke="#FBFCFD" stroke-linecap="round" stroke-linejoin="round"/>
<path d="M18 33.4843V37.4019C18 37.4524 18.0285 37.4985 18.0737 37.5211L22 39.4843M22 39.4843L25.9263 37.5211C25.9715 37.4985 26 37.4524 26 37.4019V33.7C26 33.6009 25.8957 33.5364 25.807 33.5807L22.0737 35.4474C22.0285 35.47 22 35.5162 22 35.5667V39.4843ZM21.9404 31.5141L18.2385 33.365C18.1402 33.4141 18.1402 33.5544 18.2385 33.6035L21.9404 35.4544C21.9779 35.4732 22.0221 35.4732 22.0596 35.4544L25.7615 33.6035C25.8598 33.5544 25.8598 33.4141 25.7615 33.365L22.0596 31.5141C22.0221 31.4953 21.9779 31.4953 21.9404 31.5141Z" stroke="#FBFCFD" stroke-linecap="round" stroke-linejoin="round"/>
</g>
<defs>
<clipPath id="clip0_834_134665">
<rect width="40" height="40" fill="white"/>
</clipPath>
</defs>
</svg>
