<svg width="41" height="41" viewBox="0 0 41 41" fill="none" xmlns="http://www.w3.org/2000/svg">
<path d="M40 20.5C40 31.2696 31.2695 40 20.5 40C9.73044 40 1 31.2696 1 20.5M1 20.5C1 20.3296 1.00188 20.1588 1.00677 19.9891L10.071 22.5267L11.2788 27.4118L10.2982 28.7246H2.81194C1.6263 26.1776 1 23.3836 1 20.5ZM12.7019 38.05L22.9686 26.6617C23.3384 26.2724 23.903 26.0614 24.5639 26.0711L24.6497 26.073L27.8458 26.5105C28.5511 26.5519 29.2109 26.8802 29.6687 27.4215L29.7552 27.5239L30.4394 28.7249H38.1905C39.3773 26.1791 40.0024 23.3835 40.0024 20.4999C40.0024 19.6754 39.9513 18.8632 39.8512 18.0658L32.2544 21.9816C32.2544 21.9816 31.2269 22.45 30.1656 21.5163L14.7966 8.82817C14.4438 8.60474 14.0093 8.5374 13.6069 8.64122C13.2781 8.72586 12.9892 8.91958 12.785 9.18552L8.33165 14.5581L8.26507 14.6804C8.04051 15.0919 8.01944 15.5918 8.20903 16.0206C8.38243 16.4096 8.71684 16.7101 9.11932 16.8433L19.7115 20.548M26.9984 2.11267C24.9656 1.39195 22.7787 1 20.5025 1C10.9188 1 2.92893 7.94759 1.30469 17.0716L6.39596 18.4969M39.2448 15.1229C37.7864 10.0452 34.3164 5.8104 29.7559 3.34131L28.3822 14.6914M18.6093 25.4324C18.6045 25.4787 18.5977 25.5257 18.5883 25.572C18.5796 25.6182 18.568 25.6645 18.5537 25.7097C18.5401 25.754 18.5236 25.7996 18.5063 25.8428C18.4879 25.8861 18.4679 25.9293 18.4457 25.9707C18.4235 26.0125 18.3995 26.0527 18.3735 26.0922C18.3475 26.1317 18.3186 26.1693 18.2885 26.2058C18.2588 26.2427 18.2268 26.278 18.1933 26.3119C18.1606 26.3446 18.1249 26.3773 18.0884 26.4074C18.0515 26.4371 18.0131 26.465 17.9736 26.4909C17.9349 26.5173 17.8935 26.5421 17.8521 26.5643C17.8108 26.5865 17.7683 26.6068 17.7243 26.6241C17.6806 26.6425 17.6366 26.6587 17.5911 26.6722C17.5467 26.6858 17.5004 26.6971 17.4542 26.7068C17.4083 26.7166 17.3609 26.7234 17.3139 26.7279C17.2665 26.7328 17.2195 26.7347 17.1721 26.7347C17.125 26.7347 17.0769 26.7328 17.0295 26.7279C16.9832 26.7234 16.9362 26.7166 16.8899 26.7068C16.8437 26.6971 16.7974 26.6858 16.7519 26.6722C16.7079 26.6587 16.6624 26.6425 16.6191 26.6241C16.5759 26.6068 16.5326 26.5865 16.4908 26.5643C16.4495 26.5421 16.4092 26.5173 16.3697 26.4909C16.3302 26.465 16.2915 26.4371 16.2561 26.4074C16.2185 26.3773 16.1835 26.3446 16.15 26.3119C16.1162 26.278 16.0846 26.2427 16.0545 26.2058C16.0248 26.1693 15.9969 26.1317 15.9706 26.0922C15.9447 26.0527 15.9198 26.0125 15.8976 25.9707C15.8754 25.9293 15.8551 25.8861 15.8378 25.8428C15.8194 25.7996 15.8032 25.754 15.7897 25.7097C15.7761 25.6645 15.7645 25.6182 15.7551 25.572C15.7453 25.5257 15.7385 25.4787 15.7336 25.4324C15.7291 25.385 15.7272 25.3369 15.7272 25.2899C15.7272 25.2425 15.7291 25.1954 15.7336 25.1481C15.7385 25.101 15.7453 25.0536 15.7551 25.0074C15.7645 24.9615 15.7761 24.9152 15.7897 24.8708C15.8032 24.8253 15.8194 24.7813 15.8378 24.7369C15.8551 24.6937 15.8754 24.6512 15.8976 24.6098C15.9198 24.5684 15.9447 24.5266 15.9706 24.4883C15.9969 24.4488 16.0248 24.4104 16.0545 24.3736C16.0846 24.3371 16.1162 24.3013 16.15 24.2686C16.1835 24.2347 16.2185 24.2031 16.255 24.1734C16.2915 24.1433 16.3302 24.1144 16.3697 24.0884C16.4092 24.0625 16.4495 24.0384 16.4908 24.0162C16.5326 23.994 16.5759 23.9737 16.6191 23.9556C16.6624 23.9383 16.7068 23.9218 16.7519 23.9082C16.7974 23.8939 16.8437 23.8823 16.8899 23.8736C16.9362 23.8639 16.9832 23.8575 17.0295 23.8526C17.1239 23.8428 17.2195 23.8428 17.3139 23.8526C17.3609 23.8575 17.4083 23.8639 17.4542 23.8736C17.5004 23.8823 17.5467 23.8939 17.5911 23.9082C17.6366 23.9218 17.6806 23.9383 17.7243 23.9556C17.7683 23.9737 17.8108 23.994 17.8521 24.0162C17.8935 24.0384 17.9349 24.0625 17.9736 24.0884C18.0131 24.1144 18.0515 24.1433 18.0884 24.1734C18.1249 24.2031 18.1606 24.2347 18.1933 24.2686C18.2268 24.3013 18.2588 24.3371 18.2885 24.3736C18.3186 24.4104 18.3475 24.4488 18.3735 24.4883C18.3995 24.5266 18.4235 24.5684 18.4457 24.6098C18.4679 24.6512 18.4879 24.6937 18.5063 24.7369C18.5236 24.7813 18.5401 24.8253 18.5537 24.8708C18.568 24.9152 18.5796 24.9615 18.5883 25.0074C18.5977 25.0536 18.6045 25.101 18.6093 25.1481C18.6142 25.1954 18.6172 25.2425 18.6172 25.2899C18.6172 25.3369 18.6142 25.385 18.6093 25.4324ZM21.2026 9.78963C21.2075 9.74336 21.2154 9.69596 21.224 9.6497C21.2334 9.60381 21.2451 9.55754 21.2586 9.51202C21.2722 9.46764 21.2883 9.4225 21.3068 9.37924C21.3241 9.33598 21.3444 9.29235 21.3666 9.25097C21.3888 9.20959 21.4136 9.16935 21.4395 9.12985C21.4659 9.09035 21.4937 9.05274 21.5234 9.01587C21.5535 8.97939 21.5851 8.94365 21.619 8.91017C21.6524 8.87745 21.6882 8.84435 21.725 8.81463C21.7604 8.78491 21.7991 8.7567 21.8386 8.73075C21.8781 8.70479 21.9184 8.68072 21.9598 8.65853C22.0015 8.63633 22.0448 8.6164 22.088 8.59796C22.1313 8.57953 22.1768 8.56411 22.2208 8.54982C22.2663 8.53628 22.3126 8.52461 22.3589 8.51521C22.4051 8.50656 22.4522 8.49866 22.4984 8.49377C22.5928 8.48512 22.6891 8.48512 22.7828 8.49377C22.8298 8.49866 22.8772 8.50656 22.9231 8.51521C22.9694 8.52461 23.0156 8.53628 23.06 8.54982C23.1052 8.56411 23.1495 8.57953 23.1939 8.59796C23.2372 8.6164 23.2797 8.63633 23.3211 8.65853C23.3624 8.68072 23.4038 8.70479 23.4426 8.73075C23.4821 8.7567 23.5204 8.78491 23.5573 8.81463C23.5938 8.84435 23.6295 8.87745 23.6622 8.91017C23.6957 8.94365 23.7277 8.97939 23.7574 9.01587C23.7875 9.05274 23.8165 9.09035 23.8424 9.12985C23.8684 9.16935 23.8925 9.20959 23.9146 9.25097C23.9368 9.29235 23.9568 9.33598 23.9752 9.37924C23.9925 9.4225 24.0091 9.46764 24.0226 9.51202C24.0369 9.55754 24.0486 9.60381 24.0572 9.6497C24.0666 9.69596 24.0734 9.74336 24.0783 9.78963C24.0832 9.83664 24.0862 9.88479 24.0862 9.93219C24.0862 9.97921 24.0832 10.0266 24.0783 10.0736C24.0734 10.121 24.0666 10.168 24.0572 10.2143C24.0486 10.2606 24.0369 10.3068 24.0226 10.3512C24.0091 10.3964 23.9925 10.4419 23.9752 10.4851C23.9568 10.5284 23.9368 10.5709 23.9146 10.6123C23.8925 10.6548 23.8684 10.695 23.8424 10.7345C23.8165 10.7733 23.7875 10.8116 23.7574 10.8481C23.7277 10.885 23.6957 10.9203 23.6622 10.9535C23.6295 10.9869 23.5938 11.0197 23.5573 11.0497C23.5204 11.0795 23.4821 11.1073 23.4426 11.1333C23.4038 11.1596 23.3624 11.1837 23.3211 11.2059C23.2797 11.2277 23.2372 11.248 23.1932 11.2664C23.1495 11.2848 23.1052 11.3003 23.06 11.3146C23.0156 11.3281 22.9694 11.3398 22.9231 11.3492C22.8772 11.3578 22.8298 11.3657 22.7828 11.3702C22.7365 11.3751 22.6884 11.377 22.641 11.377C22.594 11.377 22.5458 11.3751 22.4984 11.3702C22.4522 11.3657 22.4051 11.3578 22.3589 11.3492C22.3126 11.3398 22.2663 11.3281 22.2208 11.3146C22.1768 11.3003 22.1313 11.2848 22.088 11.2664C22.0448 11.248 22.0015 11.2277 21.9598 11.2059C21.9184 11.1837 21.8781 11.1596 21.8386 11.1333C21.7991 11.1073 21.7604 11.0795 21.725 11.0497C21.6882 11.0197 21.6524 10.9869 21.619 10.9535C21.5851 10.9203 21.5535 10.885 21.5234 10.8481C21.4937 10.8116 21.4659 10.7733 21.4395 10.7345C21.4136 10.695 21.3888 10.6548 21.3666 10.6123C21.3444 10.5709 21.3241 10.5284 21.3068 10.4851C21.2883 10.4419 21.2722 10.3964 21.2586 10.3512C21.2451 10.3068 21.2334 10.2606 21.224 10.2143C21.2154 10.168 21.2075 10.121 21.2026 10.0736C21.1981 10.0266 21.1962 9.97921 21.1962 9.93219C21.1962 9.88479 21.1981 9.83664 21.2026 9.78963Z" stroke="#FBFCFD"/>
</svg>
