<svg width="22" height="21" viewBox="0 0 22 21" fill="none" xmlns="http://www.w3.org/2000/svg">
<g id="Group">
<path id="Vector" d="M11.2008 20.9C16.9445 20.9 21.6008 16.2438 21.6008 10.5C21.6008 4.75625 16.9445 0.100006 11.2008 0.100006C5.45702 0.100006 0.800781 4.75625 0.800781 10.5C0.800781 16.2438 5.45702 20.9 11.2008 20.9Z" fill="#E8E8E8"/>
<g id="Group_2">
<g id="Group_3">
<path id="Vector_2" d="M6.20117 11.7L11.2012 18.5L16.2012 11.7L11.2012 14.5L6.20117 11.7Z" fill="#828384"/>
<path id="Vector_3" d="M16.2012 10.7L11.2012 2.59998L6.20117 10.7L11.2012 13.5L16.2012 10.7Z" fill="#828384"/>
</g>
<g id="Group_4">
<path id="Vector_4" d="M6.20117 10.7L11.2012 13.5V8.39996L6.20117 10.7Z" fill="#343535"/>
<path id="Vector_5" d="M6.20117 11.7L11.2012 18.5V14.5L6.20117 11.7Z" fill="#828384"/>
<path id="Vector_6" d="M16.2012 11.7L11.2012 18.5V14.5L16.2012 11.7Z" fill="#2F3030"/>
<path id="Vector_7" d="M16.2012 10.7L11.2012 13.5V8.39996L16.2012 10.7Z" fill="#131313"/>
<path id="Vector_8" d="M16.2012 10.7L11.2012 8.49998V2.59998L16.2012 10.7Z" fill="#2F3030"/>
<path id="Vector_9" d="M6.20117 10.7L11.2012 8.49998V2.59998L6.20117 10.7Z" fill="#828384"/>
</g>
</g>
</g>
</svg>
