<svg width="41" height="42" viewBox="0 0 41 42" fill="none" xmlns="http://www.w3.org/2000/svg">
<path d="M9.5172 25.5943V26.0943H10.5172V25.5943H9.5172ZM30.4828 25.5943V26.0943H31.4828V25.5943H30.4828ZM34.5146 28.4166C34.5146 28.6927 34.7385 28.9166 35.0146 28.9166C35.2908 28.9166 35.5146 28.6927 35.5146 28.4166H34.5146ZM6.72672 40.4902L7.17166 40.2621L6.72672 40.4902ZM34.2733 40.4902L33.8283 40.2621L34.2733 40.4902ZM39.9551 29.4069L40.4 29.635L39.9551 29.4069ZM1.04493 29.4069L1.48987 29.1788L1.04493 29.4069ZM20.5 25.0405C18.5686 25.0405 17.0048 24.0773 15.8509 22.4926C14.6895 20.8976 13.9581 18.6861 13.7407 16.2761L12.7447 16.3659C12.9738 18.9056 13.7483 21.3039 15.0425 23.0812C16.3442 24.8689 18.1859 26.0405 20.5 26.0405V25.0405ZM27.2593 16.2761C27.0419 18.6861 26.3105 20.8976 25.1491 22.4926C23.9952 24.0773 22.4314 25.0405 20.5 25.0405V26.0405C22.8141 26.0405 24.6558 24.8689 25.9575 23.0812C27.2517 21.3039 28.0262 18.9056 28.2553 16.3659L27.2593 16.2761ZM10.5172 25.5943C10.5172 21.5993 11.3664 18.8163 12.9871 17.0313C14.5984 15.2565 17.0585 14.375 20.5 14.375V13.375C16.897 13.375 14.1157 14.3005 12.2467 16.3591C10.3871 18.4073 9.5172 21.4839 9.5172 25.5943H10.5172ZM20.5 14.375C23.9415 14.375 26.4016 15.2565 28.0129 17.0313C29.6336 18.8163 30.4828 21.5993 30.4828 25.5943H31.4828C31.4828 21.4839 30.6129 18.4073 28.7533 16.3591C26.8843 14.3005 24.103 13.375 20.5 13.375V14.375ZM6.48535 28.4166C6.48535 21.9379 7.9867 15.1607 10.5211 10.0194C13.0738 4.84109 16.5758 1.5 20.5 1.5V0.5C15.9707 0.5 12.2154 4.32061 9.62416 9.57727C7.0146 14.871 5.48535 21.8021 5.48535 28.4166H6.48535ZM20.5 1.5C24.4242 1.5 27.9262 4.84109 30.4789 10.0194C33.0133 15.1607 34.5146 21.9379 34.5146 28.4166H35.5146C35.5146 21.8021 33.9854 14.871 31.3758 9.57727C28.7846 4.32061 25.0293 0.5 20.5 0.5V1.5ZM1.40372 29.3197H39.5963V28.3197H1.40372V29.3197ZM39.5101 29.1788L33.8283 40.2621L34.7182 40.7183L40.4 29.635L39.5101 29.1788ZM34.2374 40.0121H6.7626V41.0121H34.2374V40.0121ZM7.17166 40.2621L1.48987 29.1788L0.599992 29.635L6.28178 40.7183L7.17166 40.2621ZM6.7626 40.0121C6.93505 40.0121 7.09299 40.1086 7.17166 40.2621L6.28178 40.7183C6.37426 40.8986 6.55991 41.0121 6.7626 41.0121V40.0121ZM33.8283 40.2621C33.907 40.1086 34.0649 40.0121 34.2374 40.0121V41.0121C34.4401 41.0121 34.6258 40.8986 34.7182 40.7183L33.8283 40.2621ZM39.5963 29.3197C39.5239 29.3197 39.4771 29.2432 39.5101 29.1788L40.4 29.635C40.7081 29.0339 40.2717 28.3197 39.5963 28.3197V29.3197ZM1.40372 28.3197C0.728331 28.3197 0.291885 29.0339 0.599992 29.635L1.48987 29.1788C1.5229 29.2432 1.47612 29.3197 1.40372 29.3197V28.3197ZM17.9841 35.2707C17.9841 36.6602 19.1105 37.7866 20.5 37.7866V36.7866C19.6628 36.7866 18.9841 36.1079 18.9841 35.2707H17.9841ZM20.5 32.7548C19.1105 32.7548 17.9841 33.8812 17.9841 35.2707H18.9841C18.9841 34.4335 19.6628 33.7548 20.5 33.7548V32.7548ZM23.0159 35.2707C23.0159 33.8812 21.8895 32.7548 20.5 32.7548V33.7548C21.3372 33.7548 22.0159 34.4335 22.0159 35.2707H23.0159ZM22.0159 35.2707C22.0159 36.1079 21.3372 36.7866 20.5 36.7866V37.7866C21.8895 37.7866 23.0159 36.6602 23.0159 35.2707H22.0159Z" fill="#FBFCFD"/>
</svg>
