<svg width="19" height="20" viewBox="0 0 19 20" fill="none" xmlns="http://www.w3.org/2000/svg">
<g id="Group">
<path id="Vector" d="M5.89961 8.09998C5.99961 8.09998 6.19961 8.09998 6.29961 8.09998C6.39961 8.09998 6.59961 8.09997 6.69961 7.99997C6.79961 7.99997 6.89961 7.89997 6.89961 7.79997C6.99961 7.59997 6.99961 7.49997 6.89961 7.29997C6.79961 6.99997 6.59961 6.89997 6.39961 6.69997C6.19961 6.59997 5.99961 6.49997 5.79961 6.49997C5.39961 6.59997 4.99961 6.89997 4.99961 7.29997C4.99961 7.49997 4.99961 7.59997 5.09961 7.79997C5.19961 7.89997 5.19961 7.99997 5.39961 7.99997C5.59961 8.09997 5.69961 8.09998 5.89961 8.09998ZM13.0996 8.09998C13.1996 8.09998 13.2996 8.09998 13.4996 8.09998C13.5996 8.09998 13.6996 8.09997 13.7996 7.99997C13.8996 7.79997 13.8996 7.69997 13.8996 7.49997C13.8996 7.19997 13.6996 6.89997 13.3996 6.79997C13.1996 6.69997 12.8996 6.59997 12.6996 6.69997C12.5996 6.79997 12.3996 6.79997 12.2996 6.99997C12.0996 7.19997 11.9996 7.39997 11.8996 7.69997C11.8996 7.99997 11.9996 8.09997 12.1996 8.19997C12.4996 8.09997 12.7996 8.09998 13.0996 8.09998ZM14.3996 9.19997C14.3996 8.99997 14.3996 8.89997 14.3996 8.69997C14.2996 8.49997 14.3996 8.49997 14.1996 8.49997C13.8996 8.49997 13.6996 8.59997 13.4996 8.69997C13.1996 8.89997 12.8996 9.09997 12.5996 9.29997C12.3996 9.49997 12.0996 9.59997 11.8996 9.79997C11.6996 9.99997 11.5996 10.1 11.4996 10.4C11.4996 10.5 11.4996 10.5 11.5996 10.5C11.6996 10.5 11.7996 10.5 11.7996 10.5C12.0996 10.5 12.3996 10.4 12.6996 10.4C13.0996 10.3 13.3996 10.2 13.7996 9.99997C13.9996 9.89997 14.1996 9.69997 14.3996 9.49997C14.3996 9.39997 14.4996 9.39997 14.4996 9.29997C14.3996 9.39997 14.3996 9.29997 14.3996 9.19997ZM4.69961 9.19997C4.69961 9.29997 4.69961 9.39997 4.69961 9.49997C4.69961 9.59997 4.79961 9.69997 4.79961 9.79997C5.09961 10.1 5.49961 10.3 5.79961 10.4C5.99961 10.5 6.29961 10.6 6.59961 10.6C6.89961 10.7 7.09961 10.7 7.39961 10.7C7.49961 10.7 7.59961 10.7 7.69961 10.7C7.79961 10.7 7.79961 10.6 7.79961 10.6C7.79961 10.5 7.79961 10.5 7.69961 10.4C7.59961 10.2 7.39961 9.99997 7.19961 9.79997C6.69961 9.39997 6.09961 9.09997 5.49961 8.79997C5.29961 8.69997 5.09961 8.69997 4.89961 8.69997C4.79961 8.69997 4.79961 8.69997 4.79961 8.79997C4.69961 8.79997 4.69961 8.99997 4.69961 9.19997ZM2.79961 1.29997C2.69961 1.29997 2.69961 1.29997 2.79961 1.29997C2.59961 1.69997 2.49961 2.09996 2.49961 2.39996C2.49961 2.59996 2.49961 2.79998 2.49961 3.09998C2.49961 3.29998 2.49961 3.39998 2.59961 3.59998C2.59961 3.79998 2.69961 3.89998 2.69961 4.09998C2.69961 4.29998 2.79961 4.49997 2.79961 4.79997C2.89961 5.09997 2.89961 5.29998 2.99961 5.59998C3.09961 5.79998 3.09961 5.99997 3.19961 6.29997C3.39961 6.09997 3.49961 5.79998 3.69961 5.59998C3.89961 5.29998 4.09961 4.99997 4.39961 4.79997C4.59961 4.59997 4.79961 4.39997 4.99961 4.19997C5.19961 3.99997 5.39961 3.89997 5.59961 3.69997C5.59961 3.69997 5.59961 3.69998 5.59961 3.59998C5.49961 3.39998 5.29961 3.29998 5.19961 3.09998C4.89961 2.79998 4.69961 2.59996 4.39961 2.39996C4.19961 2.19996 3.99961 2.09996 3.79961 1.89996C3.59961 1.69996 3.29961 1.59997 3.09961 1.49997C2.99961 1.39997 2.89961 1.29997 2.79961 1.29997ZM13.8996 4.19997C13.8996 4.29997 13.9996 4.29997 13.9996 4.29997C14.1996 4.49997 14.3996 4.69997 14.5996 4.99997C14.7996 5.19997 14.8996 5.39998 14.9996 5.59998C15.0996 5.79998 15.2996 5.99997 15.3996 6.19997C15.3996 6.19997 15.3996 6.29997 15.4996 6.29997V6.19997C15.5996 5.89997 15.6996 5.59996 15.7996 5.39996C15.8996 5.09996 15.9996 4.79996 15.9996 4.39996C16.0996 3.99996 16.0996 3.69997 16.1996 3.29997C16.1996 3.09997 16.1996 2.79998 16.2996 2.59998C16.2996 2.39998 16.2996 2.19997 16.2996 1.99997C16.2996 1.79997 16.1996 1.59996 16.0996 1.39996C16.0996 1.29996 15.9996 1.29997 15.9996 1.29997C15.6996 1.39997 15.3996 1.59997 15.0996 1.79997C14.5996 2.09997 14.1996 2.49996 13.7996 2.89996C13.5996 3.09996 13.2996 3.39998 13.0996 3.59998V3.69997C13.2996 3.79997 13.4996 3.99998 13.5996 4.09998C13.7996 4.09998 13.7996 4.19997 13.8996 4.19997ZM13.7996 1.79997C13.9996 1.59997 14.1996 1.39997 14.3996 1.19997C14.7996 0.899966 15.1996 0.599963 15.6996 0.399963C15.9996 0.299963 16.2996 0.199976 16.6996 0.0999756C16.6996 0.0999756 16.7996 0.0999664 16.7996 0.199966C16.8996 0.399966 16.9996 0.599973 17.0996 0.799973C17.1996 1.29997 17.1996 1.69997 17.1996 2.19997C17.1996 2.59997 17.0996 2.99997 17.0996 3.29997C17.0996 3.59997 16.9996 3.89997 16.8996 4.19997C16.8996 4.29997 16.7996 4.39997 16.7996 4.49997C16.7996 4.49997 16.7996 4.49998 16.7996 4.59998C16.6996 4.99998 16.5996 5.39997 16.4996 5.79997C16.3996 6.29997 16.2996 6.69997 16.0996 7.19997C16.0996 7.29997 16.0996 7.39997 16.0996 7.49997C16.1996 7.79997 16.3996 8.09997 16.5996 8.49997C16.6996 8.69997 16.7996 8.99997 16.7996 9.19997C16.8996 9.59997 16.9996 9.99996 17.0996 10.4C17.0996 10.6 17.1996 10.9 17.1996 11.1C17.1996 11.3 17.1996 11.5 17.1996 11.8C17.1996 11.9 17.1996 12 17.1996 12.1C17.0996 12.1 16.9996 12.1 16.8996 12C16.4996 12 16.1996 11.9 15.7996 12C15.3996 12 14.9996 12.1 14.5996 12.3C14.0996 12.5 13.5996 12.8 13.1996 13.2C13.0996 13.3 12.9996 13.4 12.8996 13.5C12.8996 13.4 12.7996 13.2 12.7996 13.1C12.6996 12.7 12.4996 12.4 12.2996 12.1C12.2996 12 12.1996 11.9 12.0996 11.8C11.7996 11.5 11.4996 11.2 11.1996 11C10.6996 10.7 10.0996 10.5 9.49961 10.5C9.19961 10.5 8.89961 10.6 8.59961 10.7C7.99961 10.9 7.49961 11.2 7.09961 11.7C6.99961 11.9 6.89961 12.1 6.69961 12.3C6.49961 12.6 6.39961 12.8 6.29961 13.1C6.19961 13.2 6.19961 13.4 6.09961 13.5L5.99961 13.4C5.29961 12.6 4.49961 12.1 3.39961 11.9C2.99961 11.8 2.59961 11.8 2.19961 11.9C1.99961 11.9 1.79961 11.9 1.59961 12C1.59961 11.8 1.59961 11.6 1.59961 11.3C1.59961 11 1.69961 10.7 1.69961 10.5C1.69961 10.3 1.79961 9.99997 1.79961 9.79997C1.89961 9.39997 1.99961 9.09997 2.09961 8.69997C2.09961 8.59997 2.19961 8.59997 2.09961 8.49997C2.09961 8.59997 2.19961 8.49997 2.19961 8.49997C2.29961 8.09997 2.49961 7.79997 2.59961 7.49997V7.39996C2.49961 6.99996 2.29961 6.69997 2.19961 6.29997C2.09961 5.99997 1.99961 5.69996 1.99961 5.39996C1.99961 5.19996 1.89961 4.99997 1.89961 4.79997C1.89961 4.59997 1.79961 4.49997 1.79961 4.29997C1.79961 3.99997 1.69961 3.79997 1.69961 3.49997C1.69961 3.19997 1.69961 2.89997 1.59961 2.69997C1.59961 2.39997 1.59961 2.19996 1.59961 1.89996C1.59961 1.59996 1.59961 1.19996 1.69961 0.899963C1.69961 0.699963 1.79961 0.599963 1.89961 0.399963C1.99961 0.199963 2.09961 0.199966 2.29961 0.199966C2.69961 0.299966 2.99961 0.399976 3.29961 0.599976C3.69961 0.899976 4.09961 1.19997 4.39961 1.49997C4.49961 1.59997 4.69961 1.79996 4.79961 1.89996C4.99961 2.09996 5.19961 2.29997 5.29961 2.49997C5.59961 2.79997 5.79961 3.09996 5.99961 3.39996C5.99961 3.49996 6.09961 3.49996 6.19961 3.39996C6.59961 3.19996 7.09961 3.09997 7.49961 2.99997C7.89961 2.89997 8.29961 2.89996 8.69961 2.89996C9.29961 2.89996 9.79961 2.89997 10.3996 2.99997C10.8996 3.09997 11.3996 3.19996 11.8996 3.39996C11.9996 3.39996 11.9996 3.39997 12.0996 3.29997C12.2996 2.99997 12.4996 2.69996 12.7996 2.39996C13.3996 2.19996 13.5996 1.99997 13.7996 1.79997Z" fill="#F4A817"/>
<path id="Vector_2" d="M17.2 12.1C17.2 12 17.2 11.9 17.2 11.8C17.2 11.6 17.2 11.4 17.2 11.1C17.2 10.8 17.1 10.6 17.1 10.4C17 9.99996 16.9 9.59997 16.8 9.19997C16.7 8.99997 16.6 8.69997 16.6 8.49997C16.5 8.19997 16.3 7.89997 16.1 7.49997C16 7.39997 16 7.29997 16.1 7.19997C16.2 6.79997 16.4 6.29997 16.5 5.79997C16.6 5.39997 16.7 4.99998 16.8 4.59998C16.8 4.59998 16.8 4.59997 16.8 4.49997C17 4.79997 17.2 5.19997 17.4 5.49997C17.6 5.99997 17.8 6.39996 18 6.89996C18.1 7.29996 18.2 7.79997 18.3 8.19997C18.4 8.79997 18.5 9.49998 18.4 10.1C18.4 10.6 18.4 11.1 18.3 11.5C18.1 12.7 17.7 13.9 17.1 14.9C16.5 16 15.6 16.9 14.6 17.6C14 18 13.4 18.4 12.8 18.6C12.4 18.8 12 18.9 11.7 19C11.3 19.1 10.8 19.2 10.4 19.2C9.9 19.3 9.3 19.3 8.8 19.2C8.4 19.2 7.9 19.1 7.5 19C6.9 18.9 6.3 18.6 5.8 18.4C4.5 17.7 3.4 16.8 2.5 15.6C2 15 1.7 14.3 1.4 13.6C1.2 13.2 1.1 12.8 0.999999 12.3C0.899999 11.9 0.8 11.4 0.7 11C0.6 10.3 0.6 9.69997 0.7 8.99997C0.7 8.49997 0.799999 7.89996 0.999999 7.39996C1.3 6.29996 1.7 5.39996 2.3 4.39996C2.3 4.59996 2.4 4.79997 2.4 4.99997C2.5 5.29997 2.5 5.59996 2.6 5.89996C2.7 6.29996 2.8 6.59997 3 6.99997V7.09998C2.8 7.39998 2.7 7.79998 2.6 8.09998C2.6 8.19998 2.6 8.19998 2.5 8.09998C2.6 8.19998 2.5 8.19997 2.5 8.29997C2.4 8.69997 2.3 8.99996 2.2 9.39996C2.1 9.59996 2.1 9.89998 2.1 10.1C2.1 10.4 2 10.7 2 10.9C2 11.1 2 11.3 2 11.6C2 11.9 2 12.1 2.1 12.4C2.2 12.8 2.4 13.1 2.6 13.5C3 14.2 3.6 14.8 4.2 15.3C5 16 6 16.6 7 17.1C7.2 17.2 7.4 17.3 7.6 17.4C7.8 17.5 7.9 17.5 8.1 17.6C8.2 17.6 8.3 17.7 8.4 17.7C8.8 17.8 9.1 17.9 9.5 17.9C9.9 17.9 10.3 17.9 10.8 17.8C11.2 17.7 11.5 17.6 11.9 17.5C12.3 17.4 12.6 17.2 13 17.1C13.5 16.9 14 16.6 14.5 16.3C14.9 16 15.4 15.7 15.7 15.3C15.9 15.1 16 15 16.2 14.8C16.5 14.5 16.7 14.2 16.9 13.8C17 13.6 17.1 13.4 17.2 13.2C17.4 12.8 17.5 12.5 17.6 12C17.2 12.4 17.2 12.2 17.2 12.1Z" fill="#F00500"/>
<path id="Vector_3" d="M13.8008 1.79996C13.6008 1.99996 13.4008 2.19995 13.3008 2.39995C13.1008 2.69995 12.8008 2.99996 12.6008 3.29996C12.5008 3.39996 12.5008 3.39995 12.4008 3.39995C11.9008 3.19995 11.4008 3.09995 10.9008 2.99995C10.3008 2.89995 9.80078 2.89995 9.20078 2.89995C8.80078 2.89995 8.40078 2.89995 8.00078 2.99995C7.50078 3.09995 7.10078 3.19995 6.70078 3.39995C6.60078 3.39995 6.60078 3.39995 6.50078 3.39995C6.30078 3.09995 6.00078 2.79995 5.80078 2.49995C5.60078 2.29995 5.40078 2.09995 5.30078 1.89995C5.80078 1.59995 6.40078 1.29996 7.00078 1.09996C7.50078 0.89996 8.00078 0.799957 8.50078 0.799957C9.10078 0.699957 9.80078 0.699951 10.4008 0.699951C10.8008 0.699951 11.3008 0.799948 11.7008 0.899948C12.3008 1.09995 13.1008 1.39996 13.8008 1.79996Z" fill="#F00500"/>
<path id="Vector_4" d="M9.59961 15.4C9.39961 15.4 9.19961 15.4 8.99961 15.4C8.89961 15.4 8.89961 15.4 8.89961 15.5C8.89961 15.5 8.89961 15.5 8.89961 15.6C8.99961 15.6 8.99961 15.7 9.09961 15.7H9.19961C9.19961 15.6 9.19961 15.6 9.39961 15.6H9.49961C9.49961 15.7 9.59961 15.7 9.59961 15.8C9.69961 15.9 9.79961 15.9 9.79961 15.8L9.89961 15.7C9.99961 15.6 9.99961 15.6 10.0996 15.7C10.0996 15.7 10.0996 15.7 10.1996 15.7C10.2996 15.7 10.3996 15.6 10.3996 15.5C10.3996 15.4 10.3996 15.4 10.2996 15.4C10.0996 15.4 9.89961 15.4 9.59961 15.4ZM11.7996 14.7C11.5996 14.7 11.3996 14.7 11.1996 14.7C11.1996 14.7 11.1996 14.7 11.0996 14.7C11.0996 14.8 10.9996 14.8 10.9996 14.8C10.7996 14.8 10.6996 14.8 10.4996 14.8C10.3996 14.8 10.2996 14.8 10.2996 14.8C10.1996 14.8 10.1996 14.7 10.1996 14.6C10.1996 14.5 10.0996 14.5 10.0996 14.5C10.0996 14.3 10.0996 14.1 10.0996 14C10.0996 14 10.0996 14 10.0996 13.9C10.1996 13.9 10.3996 13.8 10.4996 13.7C10.6996 13.5 10.8996 13.3 10.8996 13C10.8996 12.8 10.8996 12.6 10.8996 12.4C10.8996 12.2 10.6996 11.9 10.3996 11.9C9.99961 11.9 9.49961 11.9 9.09961 11.9C8.79961 11.9 8.59961 12.1 8.59961 12.4C8.59961 12.5 8.59961 12.7 8.59961 12.8C8.59961 13.1 8.69961 13.3 8.89961 13.5C9.09961 13.7 9.39961 13.9 9.69961 14C9.69961 14 9.79961 14 9.79961 14.1C9.79961 14.3 9.79961 14.5 9.79961 14.7C9.69961 14.7 9.69961 14.7 9.69961 14.8C9.69961 14.9 9.59961 14.9 9.59961 15C9.59961 15 9.59961 15 9.49961 15C9.19961 15 8.89961 15 8.59961 15C8.59961 15 8.59961 14.9 8.49961 14.9C8.29961 14.9 8.09961 14.9 7.89961 14.9C7.89961 14.9 7.89961 14.9 7.89961 15L7.99961 15.1L8.09961 15.2C8.09961 15.3 8.09961 15.4 8.09961 15.5C8.09961 15.6 8.09961 15.6 8.19961 15.6C8.19961 15.6 8.29961 15.6 8.29961 15.7C8.29961 15.8 8.29961 15.9 8.39961 16C8.39961 16.1 8.49961 16.3 8.59961 16.4C8.69961 16.3 8.69961 16.2 8.69961 16.1C8.69961 15.9 8.69961 15.6 8.69961 15.4H8.79961C9.09961 15.5 9.39961 15.5 9.69961 15.5C10.1996 15.5 10.6996 15.5 11.1996 15.4C11.2996 15.4 11.2996 15.4 11.2996 15.5C11.2996 15.7 11.2996 16 11.2996 16.2C11.2996 16.3 11.3996 16.4 11.3996 16.5C11.4996 16.3 11.5996 16.1 11.5996 15.9C11.5996 15.8 11.5996 15.8 11.7996 15.8H11.8996C11.6996 15.1 11.6996 14.9 11.7996 14.7ZM15.6996 15.3C15.6996 15.2 15.6996 15.2 15.6996 15.3C15.5996 15.3 15.5996 15.3 15.6996 15.3ZM15.7996 15.2C15.6996 15.4 15.4996 15.5 15.2996 15.7C14.8996 16.1 14.4996 16.4 14.0996 16.7C13.5996 17 13.1996 17.3 12.5996 17.5C12.1996 17.7 11.8996 17.8 11.4996 17.9C11.0996 18 10.7996 18.1 10.3996 18.2C9.99961 18.3 9.59961 18.3 9.09961 18.3C8.69961 18.3 8.39961 18.2 7.99961 18.1C7.89961 18.1 7.79961 18 7.69961 18C7.49961 17.9 7.39961 17.9 7.19961 17.8C6.99961 17.7 6.79961 17.6 6.59961 17.5C5.59961 17 4.69961 16.4 3.79961 15.7C3.19961 15.2 2.59961 14.6 2.19961 13.9C1.99961 13.6 1.79961 13.2 1.69961 12.8C1.59961 12.5 1.59961 12.3 1.59961 12C1.79961 12 1.99961 11.9 2.19961 11.9C2.59961 11.9 2.99961 11.9 3.39961 11.9C4.39961 12.1 5.29961 12.6 5.99961 13.4C5.99961 13.4 5.99961 13.4 6.09961 13.5C6.19961 13.4 6.19961 13.2 6.29961 13.1C6.39961 12.8 6.59961 12.6 6.69961 12.3C6.79961 12.1 6.89961 11.9 7.09961 11.7C7.49961 11.2 7.99961 10.9 8.59961 10.7C8.89961 10.6 9.19961 10.5 9.49961 10.5C10.0996 10.5 10.6996 10.6 11.1996 11C11.4996 11.2 11.7996 11.5 12.0996 11.8C12.1996 11.9 12.1996 12 12.2996 12.1C12.4996 12.4 12.5996 12.8 12.7996 13.1C12.7996 13.2 12.8996 13.3 12.8996 13.5C12.9996 13.4 13.0996 13.3 13.1996 13.2C13.5996 12.8 14.0996 12.5 14.5996 12.3C14.9996 12.1 15.3996 12 15.7996 12C16.1996 12 16.4996 12 16.8996 12C16.9996 12 17.0996 12 17.1996 12.1C17.1996 12.2 17.1996 12.4 17.1996 12.5C17.0996 12.9 16.9996 13.3 16.7996 13.7C16.6996 13.9 16.5996 14.1 16.4996 14.3C16.2996 14.6 16.0996 14.9 15.7996 15.2C15.7996 15.1 15.8996 15.1 15.8996 15.1C15.7996 15.1 15.7996 15.2 15.7996 15.2Z" fill="#FFFEFE"/>
<path id="Vector_5" d="M2.80082 1.29999C2.90082 1.29999 3.00083 1.39998 3.20083 1.39998C3.40083 1.49998 3.70083 1.69999 3.90083 1.79999C4.10083 1.99999 4.30082 2.09999 4.50082 2.29999C4.80082 2.49999 5.00082 2.79998 5.30082 2.99998C5.50082 3.19998 5.60083 3.29998 5.70083 3.49998V3.59999C5.50083 3.69999 5.30082 3.89999 5.10082 4.09999C4.90082 4.29999 4.70082 4.49998 4.50082 4.69998C4.30082 4.99998 4.00082 5.19998 3.80082 5.49998C3.60082 5.69998 3.50082 5.99998 3.30082 6.19998C3.20082 5.99998 3.20082 5.79998 3.10082 5.49998C3.00082 5.19998 2.90083 4.99998 2.90083 4.69998C2.80083 4.49998 2.80082 4.29998 2.80082 3.99998C2.80082 3.79998 2.70083 3.69998 2.70083 3.49998C2.70083 3.29998 2.70082 3.19998 2.60082 2.99998C2.60082 2.79998 2.60082 2.59999 2.60082 2.29999C2.50082 2.09999 2.50082 1.69999 2.80082 1.29999C2.70082 1.29999 2.70082 1.29999 2.80082 1.29999Z" fill="#F28F1F"/>
<path id="Vector_6" d="M16.3004 2C16.3004 2.2 16.3004 2.40001 16.3004 2.60001C16.3004 2.80001 16.3004 3.1 16.2004 3.3C16.2004 3.7 16.1004 3.99999 16.0004 4.39999C15.9004 4.69999 15.8004 4.99999 15.8004 5.39999C15.7004 5.69999 15.6004 6 15.5004 6.2V6.3C15.5004 6.3 15.5004 6.2 15.4004 6.2C15.3004 6 15.1004 5.80001 15.0004 5.60001C14.9004 5.40001 14.7004 5.2 14.6004 5C14.4004 4.8 14.2004 4.6 14.0004 4.3L13.9004 4.2C13.9004 4.2 13.9004 4.20001 13.9004 4.10001C14.0004 3.90001 14.1004 3.7 14.2004 3.5C14.4004 3.2 14.6004 3 14.8004 2.7C15.0004 2.4 15.3004 2.20001 15.6004 2.10001C15.8004 2.10001 16.1004 2 16.3004 2Z" fill="#F28B20"/>
<path id="Vector_7" d="M4.69922 9.19997C4.69922 8.99997 4.69922 8.79997 4.79922 8.69997C4.79922 8.59997 4.89922 8.59998 4.89922 8.59998C5.09922 8.59998 5.29922 8.69997 5.49922 8.69997C6.09922 8.99997 6.69922 9.29997 7.19922 9.69997C7.39922 9.79997 7.59922 9.99997 7.69922 10.3C7.69922 10.4 7.79922 10.4 7.79922 10.5C7.79922 10.6 7.79922 10.6 7.69922 10.6C7.59922 10.6 7.49922 10.6 7.39922 10.6C7.09922 10.6 6.89922 10.6 6.59922 10.5C6.29922 10.4 6.09922 10.4 5.79922 10.3C5.39922 10.2 5.09922 9.99997 4.79922 9.69997C4.69922 9.59997 4.69922 9.59996 4.69922 9.39996V9.19997Z" fill="#1F1712"/>
<path id="Vector_8" d="M14.4004 9.19995C14.4004 9.29995 14.4004 9.39995 14.4004 9.49995C14.4004 9.59995 14.4004 9.59995 14.3004 9.69995C14.1004 9.89995 13.9004 9.99995 13.7004 10.2C13.4004 10.4 13.0004 10.5 12.6004 10.6C12.3004 10.7 12.0004 10.7 11.7004 10.7C11.6004 10.7 11.5004 10.7 11.5004 10.7C11.4004 10.7 11.4004 10.6 11.4004 10.6C11.4004 10.4 11.6004 10.2 11.8004 9.99995C12.0004 9.79995 12.3004 9.59995 12.5004 9.49995C12.8004 9.29995 13.1004 9.09995 13.4004 8.89995C13.6004 8.79995 13.9004 8.69995 14.1004 8.69995C14.3004 8.69995 14.3004 8.69995 14.3004 8.89995C14.4004 8.89995 14.4004 8.99995 14.4004 9.19995Z" fill="#1F1713"/>
<path id="Vector_9" d="M16.2992 1.99998C15.9992 1.99998 15.7992 2.09998 15.5992 2.19998C15.2992 2.39998 14.9992 2.59999 14.7992 2.79999C14.5992 2.99999 14.3992 3.29999 14.1992 3.59999C14.0992 3.79999 13.9992 3.99998 13.8992 4.19998C13.8992 4.19998 13.8992 4.19999 13.8992 4.29999C13.7992 4.29999 13.7992 4.19999 13.6992 4.09999C13.4992 3.99999 13.3992 3.79998 13.1992 3.69998V3.59999C13.3992 3.39999 13.5992 3.09998 13.8992 2.89998C14.2992 2.49998 14.6992 2.19999 15.1992 1.79999C15.4992 1.59999 15.7992 1.39999 16.0992 1.29999C16.1992 1.29999 16.1992 1.29998 16.1992 1.39998C16.1992 1.59998 16.2992 1.69998 16.2992 1.99998Z" fill="#F2991D"/>
<path id="Vector_10" d="M13.1 8.09998C12.8 8.09998 12.5 8.09998 12.3 7.99998C12.1 7.89998 12 7.79998 12 7.49998C12 7.19998 12.2 6.99998 12.4 6.79998C12.5 6.69998 12.6 6.59998 12.8 6.49998C13 6.39998 13.3 6.49998 13.5 6.59998C13.8 6.79998 14 6.99998 14 7.29998C14 7.49998 14 7.69998 13.9 7.79998C13.8 7.89998 13.7 7.89997 13.6 7.89997C13.3 8.09997 13.2 8.09998 13.1 8.09998Z" fill="#FFFEFE"/>
<path id="Vector_11" d="M5.9 8.09998C5.7 8.09998 5.6 8.09998 5.4 8.09998C5.3 8.09998 5.2 7.99996 5.1 7.89996C5 7.69996 5 7.59996 5 7.39996C5 6.99996 5.4 6.69998 5.8 6.59998C6 6.59998 6.2 6.59997 6.4 6.79997C6.6 6.99997 6.8 7.09996 6.9 7.39996C6.9 7.59996 6.9 7.69996 6.9 7.89996C6.9 7.99996 6.8 7.99998 6.7 8.09998C6.6 8.09998 6.4 8.19997 6.3 8.19997C6.2 8.09997 6 8.09998 5.9 8.09998Z" fill="#FFFEFE"/>
<path id="Vector_12" d="M15.6992 15.2C15.7992 15.1 15.7992 15.2 15.6992 15.2C15.7992 15.2 15.7992 15.2 15.6992 15.2Z" fill="#F6D9A7"/>
<path id="Vector_13" d="M11.7992 14.7C11.6992 14.9 11.6992 15.1 11.6992 15.3C11.6992 15.3 11.6992 15.3 11.5992 15.3C11.4992 15.3 11.4992 15.3 11.3992 15.4C11.2992 15.6 11.2992 15.8 11.1992 16C11.1992 15.9 11.0992 15.8 11.0992 15.7C11.0992 15.5 11.0992 15.2 11.0992 15C11.0992 14.9 11.0992 14.9 10.9992 14.9C10.4992 15 9.99922 15 9.49922 15C9.19922 15 8.89922 15 8.59922 14.9H8.49922C8.49922 15.1 8.49922 15.4 8.49922 15.6C8.49922 15.7 8.49922 15.8 8.39922 15.9C8.29922 15.8 8.29922 15.7 8.19922 15.5C8.19922 15.4 8.09922 15.3 8.09922 15.2C8.09922 15.1 7.99922 15.1 7.99922 15.1C7.89922 15.1 7.89922 15.1 7.89922 15C7.89922 14.9 7.89922 14.8 7.89922 14.7C7.89922 14.6 7.89922 14.6 7.79922 14.6L7.69922 14.5C7.69922 14.5 7.69922 14.5 7.69922 14.4C7.89922 14.4 8.09922 14.4 8.29922 14.4C8.29922 14.4 8.39922 14.4 8.39922 14.5C8.69922 14.5 8.99922 14.5 9.29922 14.5C9.29922 14.5 9.29922 14.5 9.39922 14.5C9.39922 14.4 9.49922 14.4 9.49922 14.3C9.49922 14.2 9.59922 14.2 9.59922 14.2C9.59922 14 9.59922 13.8 9.59922 13.6C9.59922 13.6 9.59922 13.6 9.49922 13.5C9.19922 13.4 8.99922 13.2 8.69922 13C8.49922 12.8 8.39922 12.6 8.39922 12.3C8.39922 12.2 8.39922 12 8.39922 11.9C8.39922 11.6 8.59922 11.4 8.89922 11.4C9.29922 11.4 9.79922 11.4 10.1992 11.4C10.3992 11.4 10.6992 11.6 10.6992 11.9C10.6992 12.1 10.6992 12.3 10.6992 12.5C10.5992 12.8 10.4992 13 10.2992 13.2C10.1992 13.3 10.0992 13.4 9.89922 13.4C9.89922 13.4 9.89922 13.4 9.89922 13.5C9.89922 13.7 9.89922 13.9 9.89922 14C9.99922 14 9.99922 14 9.99922 14.1C9.99922 14.2 10.0992 14.3 10.0992 14.3C10.1992 14.3 10.2992 14.3 10.2992 14.3C10.4992 14.3 10.5992 14.3 10.7992 14.3C10.8992 14.3 10.8992 14.3 10.8992 14.2C10.8992 14.2 10.8992 14.2 10.9992 14.2C11.2992 14.7 11.4992 14.7 11.7992 14.7Z" fill="#1D1919"/>
<path id="Vector_14" d="M9.60039 15.4C9.80039 15.4 10.1004 15.4 10.3004 15.4C10.3004 15.4 10.4004 15.4 10.4004 15.5C10.4004 15.6 10.3004 15.7 10.2004 15.7C10.2004 15.7 10.2004 15.7 10.1004 15.7C10.0004 15.6 10.0004 15.6 9.90039 15.7L9.80039 15.8C9.70039 15.9 9.60039 15.9 9.60039 15.8C9.60039 15.7 9.50039 15.7 9.50039 15.6C9.50039 15.6 9.50039 15.6 9.40039 15.6C9.30039 15.6 9.30039 15.6 9.20039 15.7C9.20039 15.8 9.20039 15.8 9.10039 15.7C9.00039 15.7 9.00039 15.6 8.90039 15.6C8.90039 15.6 8.90039 15.6 8.90039 15.5C8.90039 15.4 8.90039 15.4 9.00039 15.4C9.20039 15.3 9.40039 15.3 9.60039 15.4Z" fill="#171413"/>
</g>
</svg>
