<svg width="37" height="41" viewBox="0 0 37 41" fill="none" xmlns="http://www.w3.org/2000/svg">
<path d="M9.25173 20.7932L4.84326 17.6443C1.90473 15.5454 0.470352 11.9182 1.17856 8.37711L1.38533 7.34328C2.123 3.65494 5.3615 1 9.12289 1C10.9147 1 12.6531 1.60981 14.0522 2.72912L18.3603 6.17561C18.4353 6.23559 18.5418 6.23559 18.6168 6.17561L22.9249 2.72912C24.3241 1.60981 26.0625 1 27.8543 1C31.6156 1 34.8541 3.65493 35.5918 7.34328L35.7986 8.37711C36.5068 11.9182 35.0724 15.5454 32.1339 17.6443L22.5938 24.4586M11.2075 40L6.10984 37.4512C6.08721 37.4399 6.06529 37.4264 6.0454 37.4107C4.81181 36.4393 5.19436 34.4606 5.23055 34.2877C5.23244 34.2787 5.23406 34.2725 5.23694 34.2637C5.30169 34.0669 6.22163 31.5207 9.91675 33.3717L12.2584 34.5644C12.5315 34.7035 12.8552 34.5051 12.8552 34.1986V22.315C12.8552 20.7458 14.264 19.4737 16.0017 19.4737C17.7393 19.4737 19.1481 20.7458 19.1481 22.315V29.1805C19.1481 29.3895 19.3051 29.5651 19.5127 29.5884L28.9764 30.6531C30.5515 30.8303 31.7338 32.0392 31.7338 33.4726C31.7338 33.5858 31.7331 36.5789 30.0226 40" stroke="#FBFCFD" stroke-linecap="round"/>
</svg>
