<svg width="22" height="22" viewBox="0 0 22 22" fill="none" xmlns="http://www.w3.org/2000/svg">
<g id="Group">
<path id="Vector" d="M11.2008 21.6C16.9445 21.6 21.6008 16.9437 21.6008 11.2C21.6008 5.45622 16.9445 0.799988 11.2008 0.799988C5.45702 0.799988 0.800781 5.45622 0.800781 11.2C0.800781 16.9437 5.45702 21.6 11.2008 21.6Z" fill="#3E75C3"/>
<g id="Group_2">
<g id="Group_3">
<path id="Vector_2" d="M12.902 9.59998C12.502 8.89998 11.802 8.59998 11.202 8.59998C10.602 8.59998 10.102 8.89998 10.102 9.49998C10.102 10.9 13.402 10.4 13.402 12.7C13.402 13.5 12.802 14.4 11.702 14.6V15.7H10.802V14.7C10.102 14.6 9.30195 14.2 9.00195 13.4L9.80195 12.9C10.102 13.5 10.602 13.7 11.102 13.7C11.802 13.7 12.402 13.4 12.402 12.8C12.402 11.2 9.10195 11.8 9.10195 9.49998C9.10195 8.49998 9.80195 7.79997 10.802 7.69997V6.59998H11.702V7.59998C12.502 7.59998 13.502 8.49998 13.602 8.99998L12.902 9.59998Z" fill="white"/>
</g>
<g id="Group_4">
<path id="Vector_3" d="M9.60117 16.9C7.10117 16.2 5.20117 13.9 5.20117 11.2C5.20117 8.49996 7.10117 6.19996 9.60117 5.49996C9.60117 5.49996 9.70117 5.49996 9.70117 5.29996C9.70117 5.19996 9.70117 4.59996 9.70117 4.49996C9.70117 4.39996 9.60117 4.39996 9.60117 4.39996C6.50117 5.09996 4.20117 7.89996 4.20117 11.2C4.20117 14.5 6.50117 17.3 9.60117 18C9.60117 18 9.70117 18 9.70117 17.9C9.70117 17.8 9.70117 17.2 9.70117 17C9.60117 16.9 9.60117 16.9 9.60117 16.9Z" fill="white"/>
<path id="Vector_4" d="M12.8012 5.49996C15.3012 6.19996 17.2012 8.49996 17.2012 11.2C17.2012 13.9 15.3012 16.2 12.8012 16.9C12.8012 16.9 12.7012 16.9 12.7012 17.1C12.7012 17.2 12.7012 17.8 12.7012 17.9C12.7012 18 12.8012 18 12.8012 18C15.9012 17.3 18.2012 14.5 18.2012 11.2C18.2012 7.89996 15.9012 5.09996 12.8012 4.39996C12.8012 4.39996 12.7012 4.39996 12.7012 4.49996C12.7012 4.59996 12.7012 5.19996 12.7012 5.39996C12.7012 5.49996 12.8012 5.49996 12.8012 5.49996Z" fill="white"/>
</g>
</g>
</g>
</svg>
