<svg width="22" height="20" viewBox="0 0 22 20" fill="none" xmlns="http://www.w3.org/2000/svg">
<g id="Group">
<path id="Vector" d="M18.2008 0.799988H11.2008H4.10078L0.300781 8.99999L11.2008 19.6L22.0008 8.99999L18.2008 0.799988Z" fill="#69AB95"/>
<g id="Group_2">
<g id="Group_3">
<path id="Vector_2" d="M11.202 9.80005C10.802 9.80005 10.402 9.80005 10.002 9.80005V14.6H12.402V9.80005C11.902 9.80005 11.502 9.80005 11.202 9.80005Z" fill="white"/>
<path id="Vector_3" d="M6.70117 3.40002V5.80003H10.0012V9.00002C10.4012 9.00002 10.8012 9.00002 11.2012 9.00002C11.6012 9.00002 12.0012 9.00002 12.4012 9.00002V5.80003H15.7012V3.40002H6.70117Z" fill="white"/>
</g>
<g id="Group_4">
<path id="Vector_4" d="M11.2016 10.1C9.10156 10.1 5.10156 9.80002 5.10156 8.60002C5.10156 7.70002 9.10156 7.40002 11.2016 7.40002C13.4016 7.40002 17.3016 7.80002 17.3016 8.60002C17.2016 9.80002 13.3016 10.1 11.2016 10.1ZM11.2016 7.60002C7.60156 7.60002 5.70156 8.30002 5.70156 8.60002C5.70156 8.90002 7.60156 9.60002 11.2016 9.60002C14.8016 9.60002 16.7016 8.90002 16.7016 8.60002C16.7016 8.30002 14.8016 7.60002 11.2016 7.60002Z" fill="white"/>
</g>
</g>
</g>
</svg>
