<svg width="41" height="39" viewBox="0 0 41 39" fill="none" xmlns="http://www.w3.org/2000/svg">
<path d="M36 14V10C36 8.89543 35.1046 8 34 8H3C1.89543 8 1 8.89543 1 10V28C1 29.1046 1.89543 30 3 30H34C35.1046 30 36 29.1046 36 28V24M26 19H32M7 36H15V31M30 36H22V31M7 3H15V8M30 3H22V8M24 24H38C39.1046 24 40 23.1046 40 22V16C40 14.8954 39.1046 14 38 14H24C22.8954 14 22 14.8954 22 16V22C22 23.1046 22.8954 24 24 24ZM7 38H3V34H7V38ZM30 38H34V34H30V38ZM7 1H3V5H7V1ZM30 1H34V5H30V1Z" stroke="#FBFCFD" stroke-miterlimit="22.9256" stroke-linecap="round" stroke-linejoin="round"/>
</svg>
