<svg width="40" height="40" viewBox="0 0 40 40" fill="none" xmlns="http://www.w3.org/2000/svg">
<path d="M38.0102 1L22.4023 12.5922L25.2886 5.75294L38.0102 1Z" fill="#E2761B"/>
<path d="M1.97909 1L17.4614 12.702L14.7163 5.75294L1.97909 1ZM32.3948 27.8706L28.2379 34.2392L37.132 36.6863L39.6889 28.0118L32.3948 27.8706ZM0.332031 28.0118L2.87321 36.6863L11.7673 34.2392L7.61046 27.8706L0.332031 28.0118Z" fill="#E4761B"/>
<path d="M11.2675 17.1098L8.78906 20.8588L17.6204 21.251L17.3067 11.7608L11.2675 17.1098ZM28.7263 17.1098L22.6087 11.651L22.4047 21.251L31.2204 20.8588L28.7263 17.1098ZM11.7695 34.2392L17.0714 31.651L12.491 28.0745L11.7695 34.2392ZM22.9224 31.651L28.24 34.2392L27.5028 28.0745L22.9224 31.651Z" fill="#E4761B"/>
<path d="M28.2382 34.2392L22.9205 31.651L23.344 35.1177L23.297 36.5765L28.2382 34.2392ZM11.7676 34.2392L16.7088 36.5765L16.6774 35.1177L17.0695 31.651L11.7676 34.2392Z" fill="#D7C1B3"/>
<path d="M16.7868 25.7845L12.3633 24.4826L15.4849 23.0551L16.7868 25.7845ZM23.2025 25.7845L24.5045 23.0551L27.6417 24.4826L23.2025 25.7845Z" fill="#233447"/>
<path d="M11.7643 34.2392L12.5172 27.8705L7.60742 28.0117L11.7643 34.2392ZM27.4819 27.8705L28.2349 34.2392L32.3917 28.0117L27.4819 27.8705ZM31.2153 20.8588L22.3996 21.2509L23.2153 25.7843L24.5172 23.0548L27.6545 24.4823L31.2153 20.8588ZM12.3604 24.4823L15.4976 23.0548L16.7839 25.7843L17.6153 21.2509L8.78389 20.8588L12.3604 24.4823Z" fill="#CD6116"/>
<path d="M8.78906 20.8588L12.491 28.0745L12.3655 24.4823L8.78906 20.8588ZM27.6597 24.4823L27.5028 28.0745L31.2204 20.8588L27.6597 24.4823ZM17.6204 21.2509L16.7891 25.7843L17.8244 31.1333L18.0596 24.0901L17.6204 21.2509ZM22.4047 21.2509L21.9812 24.0745L22.1695 31.1333L23.2204 25.7843L22.4047 21.2509Z" fill="#E4751F"/>
<path d="M23.2182 25.7843L22.1672 31.1333L22.9201 31.6509L27.5005 28.0745L27.6574 24.4823L23.2182 25.7843ZM12.3633 24.4823L12.4888 28.0745L17.0692 31.6509L17.8221 31.1333L16.7868 25.7843L12.3633 24.4823Z" fill="#F6851B"/>
<path d="M23.297 36.5763L23.344 35.1175L22.9519 34.7724H17.0382L16.6774 35.1175L16.7088 36.5763L11.7676 34.2391L13.4931 35.6508L16.9911 38.0822H22.999L26.5127 35.6508L28.2382 34.2391L23.297 36.5763Z" fill="#C0AD9E"/>
<path d="M22.9228 31.6509L22.1699 31.1333H17.8248L17.0718 31.6509L16.6797 35.1176L17.0405 34.7725H22.9542L23.3464 35.1176L22.9228 31.6509Z" fill="#161616"/>
<path d="M38.6667 13.3451L40 6.9451L38.0078 1L22.9176 12.2L28.7216 17.1098L36.9255 19.5098L38.7451 17.3922L37.9608 16.8275L39.2157 15.6824L38.2431 14.9294L39.498 13.9726L38.6667 13.3451ZM0 6.9451L1.33333 13.3451L0.486275 13.9726L1.74118 14.9294L0.784314 15.6824L2.03922 16.8275L1.2549 17.3922L3.05882 19.5098L11.2627 17.1098L17.0667 12.2L1.97647 1L0 6.9451Z" fill="#763D16"/>
<path d="M36.9281 19.5096L28.7242 17.1096L31.2183 20.8586L27.5007 28.0743L32.3948 28.0116H39.6889L36.9281 19.5096ZM11.2654 17.1096L3.06144 19.5096L0.332031 28.0116H7.61046L12.4889 28.0743L8.78693 20.8586L11.2654 17.1096ZM22.4026 21.2508L22.9203 12.1998L25.3046 5.75275H14.7163L17.0693 12.1998L17.6183 21.2508L17.8065 24.1057L17.8222 31.1331H22.1673L22.1987 24.1057L22.4026 21.2508Z" fill="#F6851B"/>
</svg>
