<svg width="40" height="40" viewBox="0 0 40 40" fill="none" xmlns="http://www.w3.org/2000/svg">
<rect width="40" height="40" rx="1" fill="#50505A"/>
<path d="M7.05 10C6.4701 10 6 10.4701 6 11.05V11.7899L19.9997 24.4562L34 11.7893V11.05C34 10.4701 33.5299 10 32.95 10H7.05Z" fill="#F0F4F7"/>
<path d="M34 13.6772L24.9114 21.9002L33.9876 30.112C33.9958 30.0592 34 30.0051 34 29.95V13.6772Z" fill="#F0F4F7"/>
<path d="M32.8824 31L23.8681 22.8442L20.9389 25.4944C20.4057 25.9769 19.5936 25.9769 19.0604 25.4944L16.1312 22.8442L7.11696 31H32.8824Z" fill="#F0F4F7"/>
<path d="M6.01234 30.1114L15.0879 21.9002L6 13.6778V29.95C6 30.0049 6.00421 30.0588 6.01234 30.1114Z" fill="#F0F4F7"/>
</svg>
