<svg width="40" height="40" viewBox="0 0 40 40" fill="none" xmlns="http://www.w3.org/2000/svg">
<rect width="40" height="40" rx="1" fill="#229ED9"/>
<path d="M5.4229 20.1637C8.28736 18.5307 11.4849 17.1678 14.4725 15.798C19.6124 13.5542 24.7727 11.3494 29.985 9.2967C30.9992 8.94694 32.8213 8.60489 32.9999 10.1603C32.9022 12.362 32.4997 14.5508 32.2236 16.7396C31.5229 21.5529 30.7131 26.3498 29.9234 31.1473C29.6512 32.7453 27.717 33.5726 26.4794 32.5499C23.505 30.4706 20.5078 28.4116 17.5714 26.2841C16.6095 25.2725 17.5015 23.8199 18.3605 23.0976C20.8103 20.599 23.4083 18.4761 25.73 15.8484C26.3563 14.2831 24.5059 15.6023 23.8955 16.0064C20.5418 18.3983 17.2701 20.9362 13.7342 23.0384C11.9281 24.0674 9.82302 23.188 8.01772 22.6138C6.39903 21.9202 4.02704 21.2214 5.42273 20.1638L5.4229 20.1637Z" fill="#F0F4F7"/>
</svg>
