<svg width="210" height="210" viewBox="0 0 210 210" fill="none" xmlns="http://www.w3.org/2000/svg">
<g clip-path="url(#clip0_2002_1513)">
<mask id="path-1-outside-1_2002_1513" maskUnits="userSpaceOnUse" x="8" y="17" width="23" height="45" fill="black">
<rect fill="white" x="8" y="17" width="23" height="45"/>
<path d="M29.4922 18.3438V61H19.6191V29.4766L9.89258 32.3184V24.8184L28.584 18.3438H29.4922Z"/>
</mask>
<path d="M29.4922 18.3438H30.4922V17.3438H29.4922V18.3438ZM29.4922 61V62H30.4922V61H29.4922ZM19.6191 61H18.6191V62H19.6191V61ZM19.6191 29.4766H20.6191V28.1426L19.3387 28.5167L19.6191 29.4766ZM9.89258 32.3184H8.89258V33.6523L10.173 33.2782L9.89258 32.3184ZM9.89258 24.8184L9.56526 23.8734L8.89258 24.1065V24.8184H9.89258ZM28.584 18.3438V17.3438H28.4157L28.2567 17.3988L28.584 18.3438ZM28.4922 18.3438V61H30.4922V18.3438H28.4922ZM29.4922 60H19.6191V62H29.4922V60ZM20.6191 61V29.4766H18.6191V61H20.6191ZM19.3387 28.5167L9.61213 31.3585L10.173 33.2782L19.8996 30.4364L19.3387 28.5167ZM10.8926 32.3184V24.8184H8.89258V32.3184H10.8926ZM10.2199 25.7633L28.9113 19.2887L28.2567 17.3988L9.56526 23.8734L10.2199 25.7633ZM28.584 19.3438H29.4922V17.3438H28.584V19.3438Z" fill="#50505A" mask="url(#path-1-outside-1_2002_1513)"/>
<path opacity="0.2" fill-rule="evenodd" clip-rule="evenodd" d="M74.599 14.967C84.1375 11.7474 94.3596 10 105 10C157.467 10 200 52.533 200 105C200 157.467 157.467 200 105 200C52.533 200 10 157.467 10 105C10 94.5085 11.6988 84.4237 14.8326 75H4.34955C1.51871 84.511 0 94.5822 0 105C0 162.99 47.0101 210 105 210C162.99 210 210 162.99 210 105C210 47.0101 162.99 0 105 0C93.8106 0 83.0212 1.75198 72.8962 5H73V15.5067L74.599 14.967Z" fill="#A6AFBD"/>
</g>
<path d="M95 108C95 104.134 98.134 101 102 101H108C111.866 101 115 104.134 115 108V114C115 117.866 111.866 121 108 121H102C98.134 121 95 117.866 95 114V108Z" stroke="#D0C018" stroke-width="3"/>
<path d="M82 137C82 131.477 86.4772 127 92 127H118C123.523 127 128 131.477 128 137V154H82V137Z" stroke="#D0C018" stroke-width="3"/>
<path d="M137.5 93.5C137.5 91.567 139.067 90 141 90H144C145.933 90 147.5 91.567 147.5 93.5V96.5C147.5 98.433 145.933 100 144 100H141C139.067 100 137.5 98.433 137.5 96.5V93.5Z" stroke="#D0C018" stroke-width="3"/>
<path d="M131 111C131 108.239 133.239 106 136 106H149C151.761 106 154 108.239 154 111V119.5H131V111Z" stroke="#D0C018" stroke-width="3"/>
<path d="M62.5 93.5C62.5 91.567 64.067 90 66 90H69C70.933 90 72.5 91.567 72.5 93.5V96.5C72.5 98.433 70.933 100 69 100H66C64.067 100 62.5 98.433 62.5 96.5V93.5Z" stroke="#D0C018" stroke-width="3"/>
<path d="M56 111C56 108.239 58.2386 106 61 106H74C76.7614 106 79 108.239 79 111V119.5H56V111Z" stroke="#D0C018" stroke-width="3"/>
<path d="M105.587 79.2081L102.823 81.9714C100.119 84.6762 95.7333 84.6762 93.0286 81.9714C90.3238 79.2667 90.3238 74.8814 93.0286 72.1766L95.2324 69.9728C95.5835 69.6217 96.0825 69.4615 96.5724 69.5427L99.7056 70.0622M104.498 60.7068L107.177 58.0286C109.881 55.3238 114.267 55.3238 116.971 58.0286C119.676 60.7333 119.676 65.1186 116.971 67.8234L114.821 69.9736C114.488 70.307 114.02 70.4692 113.552 70.4137L110.589 70.0622M112.766 62.4431L97.5299 77.6795" stroke="#D0C018" stroke-width="3" stroke-linecap="round"/>
<defs>
<clipPath id="clip0_2002_1513">
<rect width="210" height="210" fill="white"/>
</clipPath>
</defs>
</svg>
