<svg width="210" height="210" viewBox="0 0 210 210" fill="none" xmlns="http://www.w3.org/2000/svg">
<g clip-path="url(#clip0_2002_1547)">
<mask id="path-1-outside-1_2002_1547" maskUnits="userSpaceOnUse" x="5" y="16" width="34" height="46" fill="black">
<rect fill="white" x="5" y="16" width="34" height="46"/>
<path d="M37.4023 53.3828V61H7.63672V54.5547L21.3477 40.1406C22.5586 38.7539 23.5352 37.5137 24.2773 36.4199C25.0195 35.3066 25.5566 34.3008 25.8887 33.4023C26.2402 32.5039 26.416 31.6934 26.416 30.9707C26.416 29.7402 26.2305 28.7148 25.8594 27.8945C25.5078 27.0547 24.9805 26.4199 24.2773 25.9902C23.5938 25.5605 22.7441 25.3457 21.7285 25.3457C20.7129 25.3457 19.8242 25.6387 19.0625 26.2246C18.3008 26.8105 17.7051 27.6113 17.2754 28.627C16.8652 29.6426 16.6602 30.7852 16.6602 32.0547H6.75781C6.75781 29.4375 7.39258 27.0449 8.66211 24.877C9.95117 22.709 11.7383 20.9805 14.0234 19.6914C16.3086 18.3828 18.9551 17.7285 21.9629 17.7285C25.1074 17.7285 27.7441 18.2168 29.873 19.1934C32.002 20.1699 33.6035 21.5859 34.6777 23.4414C35.7715 25.2773 36.3184 27.4941 36.3184 30.0918C36.3184 31.5762 36.084 33.002 35.6152 34.3691C35.1465 35.7363 34.4727 37.0938 33.5938 38.4414C32.7148 39.7695 31.6406 41.1367 30.3711 42.543C29.1211 43.9492 27.6953 45.4434 26.0938 47.0254L20.5859 53.3828H37.4023Z"/>
</mask>
<path d="M37.4023 53.3828H38.4023V52.3828H37.4023V53.3828ZM37.4023 61V62H38.4023V61H37.4023ZM7.63672 61H6.63672V62H7.63672V61ZM7.63672 54.5547L6.91216 53.8655L6.63672 54.155V54.5547H7.63672ZM21.3477 40.1406L22.0722 40.8298L22.0869 40.8144L22.1009 40.7984L21.3477 40.1406ZM24.2773 36.4199L25.1048 36.9814L25.1094 36.9746L24.2773 36.4199ZM25.8887 33.4023L24.9574 33.0379L24.954 33.0468L24.9507 33.0557L25.8887 33.4023ZM25.8594 27.8945L24.9369 28.2807L24.9424 28.2938L24.9483 28.3067L25.8594 27.8945ZM24.2773 25.9902L23.7451 26.8369L23.7559 26.8435L24.2773 25.9902ZM17.2754 28.627L16.3544 28.2373L16.3512 28.2449L16.3481 28.2525L17.2754 28.627ZM16.6602 32.0547V33.0547H17.6602V32.0547H16.6602ZM6.75781 32.0547H5.75781V33.0547H6.75781V32.0547ZM8.66211 24.877L7.80255 24.3659L7.79918 24.3716L8.66211 24.877ZM14.0234 19.6914L14.5148 20.5624L14.5204 20.5592L14.0234 19.6914ZM34.6777 23.4414L33.8122 23.9425L33.8186 23.9532L34.6777 23.4414ZM33.5938 38.4414L34.4277 38.9933L34.4314 38.9877L33.5938 38.4414ZM30.3711 42.543L29.6288 41.8728L29.6237 41.8786L30.3711 42.543ZM26.0938 47.0254L25.391 46.314L25.3634 46.3412L25.3379 46.3706L26.0938 47.0254ZM20.5859 53.3828L19.8301 52.728L18.3965 54.3828H20.5859V53.3828ZM36.4023 53.3828V61H38.4023V53.3828H36.4023ZM37.4023 60H7.63672V62H37.4023V60ZM8.63672 61V54.5547H6.63672V61H8.63672ZM8.36128 55.2439L22.0722 40.8298L20.6231 39.4514L6.91216 53.8655L8.36128 55.2439ZM22.1009 40.7984C23.329 39.392 24.333 38.1189 25.1048 36.9814L23.4499 35.8584C22.7373 36.9085 21.7882 38.1158 20.5944 39.4829L22.1009 40.7984ZM25.1094 36.9746C25.8792 35.8199 26.4593 34.7432 26.8267 33.749L24.9507 33.0557C24.654 33.8584 24.1599 34.7934 23.4453 35.8652L25.1094 36.9746ZM26.8199 33.7667C27.2026 32.7888 27.416 31.8521 27.416 30.9707H25.416C25.416 31.5346 25.2779 32.219 24.9574 33.0379L26.8199 33.7667ZM27.416 30.9707C27.416 29.6472 27.2175 28.4705 26.7705 27.4824L24.9483 28.3067C25.2435 28.9592 25.416 29.8333 25.416 30.9707H27.416ZM26.7818 27.5084C26.358 26.4959 25.7002 25.6878 24.7988 25.137L23.7559 26.8435C24.2608 27.152 24.6576 27.6135 24.9369 28.2807L26.7818 27.5084ZM24.8095 25.1436C23.9301 24.5908 22.8842 24.3457 21.7285 24.3457V26.3457C22.6041 26.3457 23.2574 26.5303 23.7452 26.8369L24.8095 25.1436ZM21.7285 24.3457C20.5058 24.3457 19.3997 24.7036 18.4528 25.432L19.6722 27.0172C20.2488 26.5737 20.92 26.3457 21.7285 26.3457V24.3457ZM18.4528 25.432C17.5352 26.1378 16.8413 27.0865 16.3544 28.2373L18.1964 29.0166C18.5689 28.1362 19.0664 27.4833 19.6722 27.0172L18.4528 25.432ZM16.3481 28.2525C15.8829 29.4045 15.6602 30.677 15.6602 32.0547H17.6602C17.6602 30.8933 17.8475 29.8807 18.2026 29.0014L16.3481 28.2525ZM16.6602 31.0547H6.75781V33.0547H16.6602V31.0547ZM7.75781 32.0547C7.75781 29.6074 8.3491 27.3904 9.52504 25.3823L7.79918 24.3716C6.43606 26.6994 5.75781 29.2676 5.75781 32.0547H7.75781ZM9.52165 25.388C10.7178 23.3763 12.3753 21.7693 14.5148 20.5624L13.5321 18.8204C11.1013 20.1917 9.18452 22.0417 7.80257 24.3659L9.52165 25.388ZM14.5204 20.5592C16.6338 19.3489 19.1042 18.7285 21.9629 18.7285V16.7285C18.8059 16.7285 15.9834 17.4167 13.5265 18.8236L14.5204 20.5592ZM21.9629 18.7285C25.0103 18.7285 27.4947 19.2026 29.4561 20.1023L30.29 18.2844C27.9936 17.231 25.2046 16.7285 21.9629 16.7285V18.7285ZM29.4561 20.1023C31.4152 21.0009 32.8514 22.2827 33.8123 23.9424L35.5432 22.9404C34.3556 20.8892 32.5887 19.3389 30.29 18.2844L29.4561 20.1023ZM33.8186 23.9532C34.8021 25.6041 35.3184 27.6355 35.3184 30.0918H37.3184C37.3184 27.3528 36.7408 24.9506 35.5368 22.9296L33.8186 23.9532ZM35.3184 30.0918C35.3184 31.4688 35.1013 32.7848 34.6693 34.0448L36.5612 34.6935C37.0667 33.2191 37.3184 31.6835 37.3184 30.0918H35.3184ZM34.6693 34.0448C34.2302 35.3256 33.5949 36.609 32.7561 37.8951L34.4314 38.9877C35.3504 37.5785 36.0628 36.1471 36.5612 34.6935L34.6693 34.0448ZM32.7598 37.8895C31.9131 39.1691 30.871 40.497 29.6288 41.8729L31.1134 43.2131C32.4103 41.7765 33.5166 40.37 34.4277 38.9933L32.7598 37.8895ZM29.6237 41.8786C28.3905 43.2659 26.98 44.7443 25.391 46.314L26.7965 47.7368C28.4106 46.1424 29.8517 44.6325 31.1185 43.2073L29.6237 41.8786ZM25.3379 46.3706L19.8301 52.728L21.3417 54.0376L26.8496 47.6802L25.3379 46.3706ZM20.5859 54.3828H37.4023V52.3828H20.5859V54.3828Z" fill="#50505A" mask="url(#path-1-outside-1_2002_1547)"/>
<path opacity="0.2" fill-rule="evenodd" clip-rule="evenodd" d="M74.599 14.967C84.1375 11.7474 94.3596 10 105 10C157.467 10 200 52.533 200 105C200 157.467 157.467 200 105 200C52.533 200 10 157.467 10 105C10 94.5085 11.6988 84.4237 14.8326 75H4.34955C1.51871 84.511 0 94.5822 0 105C0 162.99 47.0101 210 105 210C162.99 210 210 162.99 210 105C210 47.0101 162.99 0 105 0C93.8106 0 83.0212 1.75198 72.8962 5H73V15.5067L74.599 14.967Z" fill="#A6AFBD"/>
</g>
<path d="M98.0395 97.9942L95.9525 98.8571C88.611 101.892 80.2868 101.419 73.3368 97.5709C66.5009 93.786 61.7202 87.1376 60.3084 79.4524L56 56M75.3246 77.7873L73.887 111.984C73.8719 112.343 74.0081 112.692 74.2625 112.945L114.961 153.527C115.462 154.027 116.273 154.025 116.773 153.524L153.626 116.565C154.126 116.064 154.125 115.253 153.623 114.753L112.925 74.1714C112.671 73.9178 112.322 73.7826 111.963 73.7987L77.7703 75.3345C76.4424 75.3942 75.3804 76.4592 75.3246 77.7873ZM104.487 91.5324C108.056 95.0912 108.065 100.869 104.506 104.438C100.947 108.008 95.1689 108.016 91.5999 104.457C88.0308 100.898 88.0225 95.12 91.5813 91.5509C95.1401 87.9819 100.918 87.9736 104.487 91.5324Z" stroke="#D0C018" stroke-width="3" stroke-linecap="round"/>
<path d="M102.172 123.385L123.385 102.172" stroke="#D0C018" stroke-width="3" stroke-linecap="round"/>
<path d="M109.242 130.456L130.455 109.243" stroke="#D0C018" stroke-width="3" stroke-linecap="round"/>
<path d="M116.314 137.527L137.528 116.314" stroke="#D0C018" stroke-width="3" stroke-linecap="round"/>
<defs>
<clipPath id="clip0_2002_1547">
<rect width="210" height="210" fill="white"/>
</clipPath>
</defs>
</svg>
