<svg width="210" height="210" viewBox="0 0 210 210" fill="none" xmlns="http://www.w3.org/2000/svg">
<g clip-path="url(#clip0_2002_1571)">
<mask id="path-1-outside-1_2002_1571" maskUnits="userSpaceOnUse" x="5" y="16" width="34" height="47" fill="black">
<rect fill="white" x="5" y="16" width="34" height="47"/>
<path d="M16.6309 35.541H21.4355C22.666 35.541 23.6719 35.3262 24.4531 34.8965C25.2539 34.4473 25.8496 33.8223 26.2402 33.0215C26.6309 32.2012 26.8262 31.2344 26.8262 30.1211C26.8262 29.2617 26.6406 28.4707 26.2695 27.748C25.918 27.0254 25.3711 26.4492 24.6289 26.0195C23.8867 25.5703 22.9395 25.3457 21.7871 25.3457C21.0059 25.3457 20.2441 25.5117 19.502 25.8438C18.7598 26.1563 18.1445 26.6055 17.6562 27.1914C17.1875 27.7773 16.9531 28.4902 16.9531 29.3301H7.05078C7.05078 26.9082 7.71484 24.8379 9.04297 23.1191C10.3906 21.3809 12.1582 20.0527 14.3457 19.1348C16.5527 18.1973 18.9258 17.7285 21.4648 17.7285C24.4922 17.7285 27.1484 18.1973 29.4336 19.1348C31.7188 20.0527 33.4961 21.4199 34.7656 23.2363C36.0547 25.0332 36.6992 27.2598 36.6992 29.916C36.6992 31.3809 36.3574 32.7578 35.6738 34.0469C34.9902 35.3359 34.0332 36.4688 32.8027 37.4453C31.5723 38.4219 30.127 39.1934 28.4668 39.7598C26.8262 40.3066 25.0293 40.5801 23.0762 40.5801H16.6309V35.541ZM16.6309 42.8945V37.9727H23.0762C25.2051 37.9727 27.1484 38.2168 28.9062 38.7051C30.6641 39.1738 32.1777 39.877 33.4473 40.8145C34.7168 41.752 35.6934 42.9141 36.377 44.3008C37.0605 45.668 37.4023 47.2402 37.4023 49.0176C37.4023 51.0098 37.002 52.7871 36.2012 54.3496C35.4004 55.9121 34.2773 57.2305 32.832 58.3047C31.3867 59.3789 29.6973 60.1992 27.7637 60.7656C25.8301 61.3125 23.7305 61.5859 21.4648 61.5859C19.6875 61.5859 17.9102 61.3516 16.1328 60.8828C14.3555 60.3945 12.7344 59.6523 11.2695 58.6562C9.80469 57.6406 8.62305 56.3516 7.72461 54.7891C6.8457 53.207 6.40625 51.3223 6.40625 49.1348H16.3086C16.3086 50.0332 16.5527 50.8535 17.041 51.5957C17.5488 52.3184 18.2227 52.8945 19.0625 53.3242C19.9023 53.7539 20.8105 53.9688 21.7871 53.9688C22.998 53.9688 24.0234 53.7441 24.8633 53.2949C25.7227 52.8262 26.377 52.2012 26.8262 51.4199C27.2754 50.6387 27.5 49.7695 27.5 48.8125C27.5 47.3672 27.2559 46.2148 26.7676 45.3555C26.2988 44.4961 25.6055 43.8711 24.6875 43.4805C23.7891 43.0898 22.7051 42.8945 21.4355 42.8945H16.6309Z"/>
</mask>
<path d="M16.6309 35.541V34.541H15.6309V35.541H16.6309ZM24.4531 34.8965L24.9351 35.7727L24.9424 35.7686L24.4531 34.8965ZM26.2402 33.0215L27.139 33.4599L27.1431 33.4514L26.2402 33.0215ZM26.2695 27.748L25.3703 28.1855L25.375 28.1952L25.38 28.2049L26.2695 27.748ZM24.6289 26.0195L24.1111 26.875L24.1194 26.8801L24.1279 26.885L24.6289 26.0195ZM19.502 25.8438L19.89 26.7654L19.9002 26.7611L19.9103 26.7566L19.502 25.8438ZM17.6562 27.1914L16.888 26.5512L16.8816 26.5589L16.8754 26.5667L17.6562 27.1914ZM16.9531 29.3301V30.3301H17.9531V29.3301H16.9531ZM7.05078 29.3301H6.05078V30.3301H7.05078V29.3301ZM9.04297 23.1191L8.25266 22.5064L8.25168 22.5077L9.04297 23.1191ZM14.3457 19.1348L14.7327 20.0569L14.7367 20.0552L14.3457 19.1348ZM29.4336 19.1348L29.054 20.06L29.0608 20.0627L29.4336 19.1348ZM34.7656 23.2363L33.9459 23.8092L33.9531 23.8192L34.7656 23.2363ZM35.6738 34.0469L36.5573 34.5154L35.6738 34.0469ZM28.4668 39.7598L28.783 40.7085L28.7897 40.7062L28.4668 39.7598ZM16.6309 40.5801H15.6309V41.5801H16.6309V40.5801ZM16.6309 42.8945H15.6309V43.8945H16.6309V42.8945ZM16.6309 37.9727V36.9727H15.6309V37.9727H16.6309ZM28.9062 38.7051L28.6386 39.6686L28.6486 39.6713L28.9062 38.7051ZM36.377 44.3008L35.48 44.7429L35.4825 44.748L36.377 44.3008ZM36.2012 54.3496L35.3112 53.8935L36.2012 54.3496ZM32.832 58.3047L32.2355 57.5021L32.832 58.3047ZM27.7637 60.7656L28.0358 61.7279L28.0448 61.7253L27.7637 60.7656ZM16.1328 60.8828L15.8679 61.8471L15.8778 61.8498L16.1328 60.8828ZM11.2695 58.6562L10.6997 59.4781L10.7072 59.4832L11.2695 58.6562ZM7.72461 54.7891L6.85045 55.2747L6.85403 55.2811L6.8577 55.2875L7.72461 54.7891ZM6.40625 49.1348V48.1348H5.40625V49.1348H6.40625ZM16.3086 49.1348H17.3086V48.1348H16.3086V49.1348ZM17.041 51.5957L16.2056 52.1453L16.214 52.1581L16.2228 52.1707L17.041 51.5957ZM24.8633 53.2949L25.3349 54.1767L25.3421 54.1728L24.8633 53.2949ZM26.7676 45.3555L25.8897 45.8343L25.8938 45.8419L25.8981 45.8495L26.7676 45.3555ZM24.6875 43.4805L24.2888 44.3976L24.2959 44.4006L24.6875 43.4805ZM16.6309 36.541H21.4355V34.541H16.6309V36.541ZM21.4355 36.541C22.7736 36.541 23.9607 36.3086 24.935 35.7727L23.9712 34.0203C23.3831 34.3437 22.5584 34.541 21.4355 34.541V36.541ZM24.9424 35.7686C25.9148 35.2231 26.6563 34.4494 27.139 33.4599L25.3415 32.5831C25.0429 33.1951 24.593 33.6714 23.9639 34.0243L24.9424 35.7686ZM27.1431 33.4514C27.6104 32.47 27.8262 31.3503 27.8262 30.1211H25.8262C25.8262 31.1185 25.6513 31.9323 25.3374 32.5916L27.1431 33.4514ZM27.8262 30.1211C27.8262 29.1123 27.607 28.1634 27.1591 27.2912L25.38 28.2049C25.6743 28.778 25.8262 29.4111 25.8262 30.1211H27.8262ZM27.1688 27.3106C26.7241 26.3965 26.0324 25.6766 25.1299 25.1541L24.1279 26.885C24.7098 27.2219 25.1118 27.6542 25.3703 28.1855L27.1688 27.3106ZM25.1467 25.164C24.2051 24.5941 23.0637 24.3457 21.7871 24.3457V26.3457C22.8152 26.3457 23.5684 26.5465 24.1111 26.875L25.1467 25.164ZM21.7871 24.3457C20.8594 24.3457 19.9589 24.5438 19.0936 24.9309L19.9103 26.7566C20.5294 26.4796 21.1524 26.3457 21.7871 26.3457V24.3457ZM19.1139 24.9221C18.2328 25.2931 17.4844 25.8355 16.888 26.5512L18.4245 27.8316C18.8046 27.3754 19.2868 27.0194 19.89 26.7654L19.1139 24.9221ZM16.8754 26.5667C16.2479 27.3511 15.9531 28.2918 15.9531 29.3301H17.9531C17.9531 28.6886 18.1271 28.2036 18.4371 27.8161L16.8754 26.5667ZM16.9531 28.3301H7.05078V30.3301H16.9531V28.3301ZM8.05078 29.3301C8.05078 27.1026 8.65699 25.2541 9.83425 23.7306L8.25168 22.5077C6.7727 24.4217 6.05078 26.7138 6.05078 29.3301H8.05078ZM9.83328 23.7319C11.0671 22.1403 12.6911 20.9136 14.7327 20.0569L13.9588 18.2127C11.6253 19.1919 9.71411 20.6214 8.25266 22.5064L9.83328 23.7319ZM14.7367 20.0552C16.8129 19.1732 19.0521 18.7285 21.4648 18.7285V16.7285C18.7995 16.7285 16.2926 17.2213 13.9547 18.2144L14.7367 20.0552ZM21.4648 18.7285C24.3905 18.7285 26.9132 19.1816 29.054 20.0599L29.8132 18.2096C27.3837 17.2129 24.5938 16.7285 21.4648 16.7285V18.7285ZM29.0608 20.0627C31.1865 20.9166 32.7999 22.1695 33.946 23.8092L35.5853 22.6635C34.1923 20.6704 32.251 19.1889 29.8064 18.2068L29.0608 20.0627ZM33.9531 23.8192C35.0974 25.4143 35.6992 27.4259 35.6992 29.916H37.6992C37.6992 27.0937 37.012 24.6521 35.5782 22.6534L33.9531 23.8192ZM35.6992 29.916C35.6992 31.2182 35.3971 32.4342 34.7904 33.5784L36.5573 34.5154C37.3177 33.0814 37.6992 31.5435 37.6992 29.916H35.6992ZM34.7904 33.5784C34.1762 34.7365 33.3119 35.7646 32.1811 36.662L33.4244 38.2286C34.7545 37.1729 35.8042 35.9354 36.5573 34.5154L34.7904 33.5784ZM32.1811 36.662C31.0499 37.5597 29.7084 38.2796 28.1439 38.8133L28.7897 40.7062C30.5455 40.1072 32.0946 39.284 33.4244 38.2286L32.1811 36.662ZM28.1506 38.8111C26.6242 39.3199 24.9355 39.5801 23.0762 39.5801V41.5801C25.1231 41.5801 27.0282 41.2934 28.783 40.7085L28.1506 38.8111ZM23.0762 39.5801H16.6309V41.5801H23.0762V39.5801ZM17.6309 40.5801V35.541H15.6309V40.5801H17.6309ZM17.6309 42.8945V37.9727H15.6309V42.8945H17.6309ZM16.6309 38.9727H23.0762V36.9727H16.6309V38.9727ZM23.0762 38.9727C25.1293 38.9727 26.981 39.2082 28.6386 39.6686L29.1739 37.7416C27.3158 37.2254 25.2809 36.9727 23.0762 36.9727V38.9727ZM28.6486 39.6713C30.3034 40.1126 31.6989 40.7664 32.8532 41.6189L34.0413 40.01C32.6566 38.9875 31.0247 38.2351 29.1639 37.7388L28.6486 39.6713ZM32.8532 41.6189C33.9971 42.4636 34.8685 43.5025 35.48 44.7429L37.2739 43.8586C36.5182 42.3256 35.4365 41.0403 34.0413 40.01L32.8532 41.6189ZM35.4825 44.748C36.0862 45.9554 36.4023 47.3702 36.4023 49.0176H38.4023C38.4023 47.1102 38.0349 45.3806 37.2714 43.8536L35.4825 44.748ZM36.4023 49.0176C36.4023 50.8727 36.0305 52.4902 35.3112 53.8935L37.0911 54.8057C37.9734 53.0841 38.4023 51.1468 38.4023 49.0176H36.4023ZM35.3112 53.8935C34.5822 55.316 33.561 56.5169 32.2355 57.5021L33.4286 59.1073C34.9937 57.944 36.2185 56.5082 37.0911 54.8057L35.3112 53.8935ZM32.2355 57.5021C30.8958 58.4978 29.316 59.2689 27.4826 59.806L28.0448 61.7253C30.0786 61.1295 31.8776 60.26 33.4286 59.1073L32.2355 57.5021ZM27.4915 59.8034C25.6569 60.3222 23.65 60.5859 21.4648 60.5859V62.5859C23.811 62.5859 26.0032 62.3028 28.0358 61.7279L27.4915 59.8034ZM21.4648 60.5859C19.7765 60.5859 18.0848 60.3634 16.3878 59.9159L15.8778 61.8498C17.7355 62.3397 19.5985 62.5859 21.4648 62.5859V60.5859ZM16.3977 59.9185C14.722 59.4582 13.2021 58.7611 11.8318 57.8293L10.7072 59.4832C12.2666 60.5436 13.9889 61.3309 15.8679 61.8471L16.3977 59.9185ZM11.8393 57.8345C10.4976 56.9042 9.41694 55.7261 8.59152 54.2906L6.8577 55.2875C7.82915 56.977 9.11173 58.377 10.6998 59.478L11.8393 57.8345ZM8.59877 54.3034C7.81799 52.898 7.40625 51.1876 7.40625 49.1348H5.40625C5.40625 51.4569 5.87341 53.516 6.85045 55.2747L8.59877 54.3034ZM6.40625 50.1348H16.3086V48.1348H6.40625V50.1348ZM15.3086 49.1348C15.3086 50.2262 15.6087 51.238 16.2056 52.1453L17.8764 51.0461C17.4968 50.469 17.3086 49.8402 17.3086 49.1348H15.3086ZM16.2228 52.1707C16.8304 53.0353 17.6326 53.7159 18.607 54.2145L19.518 52.434C18.8127 52.0732 18.2672 51.6014 17.8592 51.0208L16.2228 52.1707ZM18.607 54.2145C19.5929 54.7189 20.6579 54.9688 21.7871 54.9688V52.9688C20.9632 52.9688 20.2118 52.7889 19.518 52.434L18.607 54.2145ZM21.7871 54.9688C23.119 54.9688 24.3159 54.7218 25.3349 54.1767L24.3916 52.4131C23.731 52.7665 22.8771 52.9688 21.7871 52.9688V54.9688ZM25.3421 54.1728C26.3489 53.6237 27.1441 52.8732 27.6931 51.9184L25.9593 50.9215C25.6098 51.5292 25.0964 52.0287 24.3844 52.417L25.3421 54.1728ZM27.6931 51.9184C28.2349 50.976 28.5 49.9332 28.5 48.8125H26.5C26.5 49.6058 26.3158 50.3013 25.9593 50.9215L27.6931 51.9184ZM28.5 48.8125C28.5 47.2687 28.2415 45.9253 27.637 44.8615L25.8981 45.8495C26.2703 46.5044 26.5 47.4656 26.5 48.8125H28.5ZM27.6455 44.8766C27.0667 43.8155 26.1999 43.0373 25.0791 42.5603L24.2959 44.4006C25.011 44.7049 25.531 45.1767 25.8897 45.8343L27.6455 44.8766ZM25.0862 42.5634C24.0307 42.1045 22.8034 41.8945 21.4355 41.8945V43.8945C22.6067 43.8945 23.5475 44.0752 24.2888 44.3975L25.0862 42.5634ZM21.4355 41.8945H16.6309V43.8945H21.4355V41.8945Z" fill="#50505A" mask="url(#path-1-outside-1_2002_1571)"/>
<path opacity="0.2" fill-rule="evenodd" clip-rule="evenodd" d="M74.599 14.967C84.1375 11.7474 94.3596 10 105 10C157.467 10 200 52.533 200 105C200 157.467 157.467 200 105 200C52.533 200 10 157.467 10 105C10 94.5085 11.6988 84.4237 14.8326 75H4.34955C1.51871 84.511 0 94.5822 0 105C0 162.99 47.0101 210 105 210C162.99 210 210 162.99 210 105C210 47.0101 162.99 0 105 0C93.8106 0 83.0212 1.75198 72.8962 5H73V15.5067L74.599 14.967Z" fill="#A6AFBD"/>
</g>
<path d="M122.736 78.1147L124.142 78.6363L124.144 78.6317L122.736 78.1147ZM121.91 76.3297L122.427 74.9216L122.425 74.9211L121.91 76.3297ZM85.2874 62.927L84.7704 64.3351L84.7719 64.3357L85.2874 62.927ZM83.5024 63.7531L84.9104 64.2701L84.9105 64.2701L83.5024 63.7531ZM143.753 83.9465L142.624 82.9591L142.623 82.96L143.753 83.9465ZM143.622 81.984L144.609 80.8549L144.608 80.8538L143.622 81.984ZM114.238 56.344L113.251 57.4732L113.252 57.4742L114.238 56.344ZM112.275 56.4752L113.392 57.4774L113.398 57.4701L113.405 57.4626L112.275 56.4752ZM103.739 63.7372C103.186 64.3536 103.237 65.3019 103.853 65.8554C104.47 66.4089 105.418 66.3579 105.971 65.7414L103.739 63.7372ZM111.146 119.014C110.601 119.638 110.665 120.585 111.289 121.13C111.913 121.675 112.861 121.611 113.405 120.987L111.146 119.014ZM153.304 109.419L152.554 108.12L152.534 108.131L152.514 108.144L153.304 109.419ZM153.814 107.519L155.113 106.77L155.099 106.746L155.084 106.722L153.814 107.519ZM145.024 90.7023C144.583 90.0008 143.657 89.7892 142.956 90.2298C142.254 90.6704 142.042 91.5963 142.483 92.2978L145.024 90.7023ZM104.711 137.725C104.006 138.16 103.789 139.085 104.224 139.789C104.66 140.494 105.585 140.712 106.289 140.276L104.711 137.725ZM82.7554 98.7669L81.914 97.5251L81.9127 97.526L82.7554 98.7669ZM79.9045 113.6L78.6619 114.441L78.6627 114.442L79.9045 113.6ZM93.8456 78.7136L94.3611 77.305L93.8142 77.1049L93.2756 77.3262L93.8456 78.7136ZM103.763 82.3432L105.131 81.7279L104.872 81.1517L104.279 80.9346L103.763 82.3432ZM85.57 136.392L85.0545 137.801L85.6014 138.001L86.1401 137.78L85.57 136.392ZM75.6523 132.763L74.2843 133.378L74.5434 133.954L75.1368 134.171L75.6523 132.763ZM56.0638 138.475L54.6558 137.958L56.0638 138.475ZM56.6705 139.803L57.2014 138.4H57.2014L56.6705 139.803ZM94.9051 153.155L93.4987 152.633L94.9051 153.155ZM93.5653 153.764L93.0344 155.167L93.5653 153.764ZM96.3115 153.676L124.142 78.6363L121.329 77.5931L93.4987 152.633L96.3115 153.676ZM124.144 78.6317C124.694 77.1334 123.926 75.472 122.427 74.9216L121.393 77.7378C121.336 77.7168 121.307 77.6539 121.328 77.5977L124.144 78.6317ZM122.425 74.9211L85.8029 61.5184L84.7719 64.3357L121.394 77.7383L122.425 74.9211ZM85.8044 61.519C84.3061 60.9688 82.6447 61.7369 82.0943 63.2361L84.9105 64.2701C84.8895 64.3271 84.8266 64.3558 84.7704 64.3351L85.8044 61.519ZM82.0943 63.236L54.6558 137.958L57.4719 138.992L84.9104 64.2701L82.0943 63.236ZM56.1396 141.206L93.0344 155.167L94.0962 152.361L57.2014 138.4L56.1396 141.206ZM144.882 84.9339C145.933 83.7324 145.812 81.9061 144.609 80.8549L142.635 83.1132C142.589 83.0732 142.585 83.0042 142.624 82.9591L144.882 84.9339ZM144.608 80.8538L115.224 55.2138L113.252 57.4742L142.636 83.1142L144.608 80.8538ZM115.225 55.2148C114.024 54.1642 112.198 54.2856 111.146 55.4878L113.405 57.4626C113.365 57.5084 113.296 57.5126 113.251 57.4732L115.225 55.2148ZM111.159 55.4731L103.739 63.7372L105.971 65.7414L113.392 57.4774L111.159 55.4731ZM113.405 120.987L144.883 84.9331L142.623 82.96L111.146 119.014L113.405 120.987ZM154.053 110.718C155.436 109.921 155.911 108.153 155.113 106.77L152.514 108.269C152.484 108.216 152.502 108.15 152.554 108.12L154.053 110.718ZM155.084 106.722L145.024 90.7023L142.483 92.2978L152.543 108.317L155.084 106.722ZM106.289 140.276L154.093 110.695L152.514 108.144L104.711 137.725L106.289 140.276ZM98.8308 100.776C95.0571 95.2071 87.4833 93.7515 81.914 97.5251L83.5968 100.009C87.7945 97.1644 93.503 98.2616 96.3472 102.459L98.8308 100.776ZM81.9127 97.526C76.3505 101.303 74.8961 108.871 78.6619 114.441L81.1472 112.76C78.308 108.561 79.4045 102.856 83.5981 100.008L81.9127 97.526ZM78.6627 114.442C82.4364 120.011 90.0103 121.467 95.5795 117.693L93.8967 115.21C89.6991 118.054 83.9906 116.957 81.1463 112.759L78.6627 114.442ZM95.5795 117.693C101.149 113.919 102.604 106.346 98.8308 100.776L96.3472 102.459C99.1915 106.657 98.0943 112.365 93.8967 115.21L95.5795 117.693ZM86.4332 83.3807L94.4157 80.1011L93.2756 77.3262L85.2931 80.6057L86.4332 83.3807ZM93.3301 80.1223L103.248 83.7518L104.279 80.9346L94.3611 77.305L93.3301 80.1223ZM102.395 82.9585L106.083 91.1559L108.818 89.9253L105.131 81.7279L102.395 82.9585ZM92.9825 131.725L85 135.005L86.1401 137.78L94.1225 134.5L92.9825 131.725ZM86.0855 134.984L76.1678 131.354L75.1368 134.171L85.0545 137.801L86.0855 134.984ZM77.0203 132.147L73.3331 123.95L70.5972 125.181L74.2843 133.378L77.0203 132.147ZM54.6558 137.958C54.1761 139.264 54.8381 140.713 56.1396 141.206L57.2014 138.4C57.4387 138.49 57.5594 138.754 57.4719 138.992L54.6558 137.958ZM93.4987 152.633C93.588 152.393 93.8561 152.271 94.0962 152.361L93.0344 155.167C94.3512 155.666 95.8219 154.997 96.3115 153.676L93.4987 152.633Z" fill="#D0C018"/>
<defs>
<clipPath id="clip0_2002_1571">
<rect width="210" height="210" fill="white"/>
</clipPath>
</defs>
</svg>
