<svg width="40" height="40" viewBox="0 0 40 40" fill="none" xmlns="http://www.w3.org/2000/svg">
<rect x="0.75" y="0.75" width="38.5" height="38.5" rx="19.25" fill="#F0F4F7"/>
<g clip-path="url(#clip0_2005_1674)">
<path d="M15.5 20.1429L13.3523 18.6088C11.9207 17.5862 11.2219 15.8191 11.5669 14.094L11.6677 13.5903C12.027 11.7934 13.6048 10.5 15.4372 10.5V10.5C16.3101 10.5 17.1571 10.7971 17.8387 11.3424L19.9375 13.0215C19.9741 13.0507 20.0259 13.0507 20.0625 13.0215L22.1613 11.3424C22.8429 10.7971 23.6899 10.5 24.5628 10.5V10.5C26.3952 10.5 27.973 11.7934 28.3323 13.5903L28.4331 14.094C28.7781 15.8191 28.0793 17.5862 26.6477 18.6088L22 21.9286" stroke="#A6AFBD" stroke-linecap="round"/>
<path d="M16.4528 29.5L13.9693 28.2583C13.9583 28.2528 13.9476 28.2462 13.9379 28.2386C13.337 27.7653 13.5233 26.8013 13.541 26.7171C13.5419 26.7127 13.5427 26.7097 13.5441 26.7054C13.5756 26.6095 14.0238 25.3691 15.824 26.2708L16.0285 26.375L16.4375 26.5833L16.9648 26.8519C17.0978 26.9197 17.2556 26.823 17.2556 26.6737V20.8842C17.2556 20.1198 17.9419 19.5 18.7884 19.5C19.635 19.5 20.3213 20.1198 20.3213 20.8842V24.229C20.3213 24.3308 20.3978 24.4163 20.4989 24.4277L25.1095 24.9464C25.8768 25.0327 26.4528 25.6217 26.4528 26.32C26.4528 26.3751 26.4525 27.8333 25.6191 29.5" stroke="#A6AFBD" stroke-linecap="round"/>
</g>
<rect x="0.75" y="0.75" width="38.5" height="38.5" rx="19.25" stroke="#50505A" stroke-width="1.5"/>
<defs>
<clipPath id="clip0_2005_1674">
<rect width="20" height="20" fill="white" transform="translate(10 10)"/>
</clipPath>
</defs>
</svg>
