<svg width="40" height="40" viewBox="0 0 40 40" fill="none" xmlns="http://www.w3.org/2000/svg">
<rect x="0.75" y="0.75" width="38.5" height="38.5" rx="19.25" fill="#F0F4F7"/>
<path d="M19 30H24.5H26C28.2091 30 30 28.2091 30 26V20M11.5371 23.0489L21.5373 13.0484L24.7624 16.2735L14.7622 26.274L11.5371 23.0489ZM12.3684 27.5263L10.1471 27.9706C10.0771 27.9846 10.0154 27.9229 10.0294 27.8529L10.4737 25.6316L12.3684 27.5263ZM26.6947 10.5006C26.0256 9.83313 24.9423 9.83313 24.2732 10.5006L23.5469 11.227L26.772 14.4521L27.4984 13.7258C28.1661 13.0567 28.1661 11.9734 27.4984 11.3043L26.6947 10.5006Z" stroke="#A6AFBD"/>
<rect x="0.75" y="0.75" width="38.5" height="38.5" rx="19.25" stroke="#50505A" stroke-width="1.5"/>
</svg>
