<svg width="40" height="40" viewBox="0 0 40 40" fill="none" xmlns="http://www.w3.org/2000/svg">
<rect x="0.75" y="0.75" width="38.5" height="38.5" rx="19.25" fill="#F0F4F7"/>
<path d="M28.7372 21.715C30.4209 20.0313 30.4209 17.3015 28.7372 15.6179L24.3821 11.2628C22.6985 9.57908 19.9687 9.57908 18.285 11.2628M10.3007 27.6669L12.333 29.6993C12.7339 30.1002 13.3839 30.1002 13.7847 29.6993L14.6412 28.8428C14.6493 28.8348 14.6493 28.8218 14.6412 28.8138L11.1862 25.3587C11.1782 25.3507 11.1652 25.3507 11.1572 25.3587L10.3007 26.2152C9.89978 26.6161 9.89978 27.2661 10.3007 27.6669ZM21.7836 14.7613L25.2386 18.2164C25.2467 18.2244 25.2596 18.2244 25.2677 18.2164L25.3983 18.0857C26.2001 17.284 26.2001 15.9841 25.3983 15.1823L24.8176 14.6016C24.0159 13.7999 22.716 13.7999 21.9142 14.6016L21.7836 14.7323C21.7756 14.7403 21.7756 14.7533 21.7836 14.7613ZM17.3423 12.6427L27.3572 22.6577C27.4611 22.7615 27.4255 22.9376 27.2895 22.993L15.8297 27.6618C15.8221 27.6649 15.8133 27.6631 15.8075 27.6573L12.3427 24.1925C12.3368 24.1867 12.3351 24.1779 12.3382 24.1702L17.007 12.7104C17.0624 12.5745 17.2385 12.5389 17.3423 12.6427Z" stroke="#A6AFBD"/>
<rect x="0.75" y="0.75" width="38.5" height="38.5" rx="19.25" stroke="#50505A" stroke-width="1.5"/>
</svg>
