<svg width="263" height="585" viewBox="0 0 263 585" fill="none" xmlns="http://www.w3.org/2000/svg">
<path d="M242.311 408.278L241.081 408.032C240.884 407.983 240.638 407.933 240.392 407.884C239.802 407.786 239.064 407.589 238.179 407.392L237.49 407.245C237.047 407.146 236.604 407.048 236.112 406.9L233.702 406.261C233.259 406.162 232.816 406.015 232.373 405.916L230.996 405.523C230.209 405.326 229.471 405.08 228.634 404.834L227.995 404.637C223.174 403.112 218.5 401.341 214.122 399.373L211.367 398.094L209.989 397.455C209.792 397.356 209.596 397.258 209.399 397.159C209.251 397.061 209.104 397.012 208.907 396.913C208.759 396.815 208.612 396.766 208.415 396.667C207.775 396.372 207.136 396.028 206.545 395.684L205.807 395.29C205.414 395.093 205.069 394.896 204.676 394.7C204.381 394.552 204.036 394.355 203.741 394.208L200.593 392.387C200.101 392.092 199.559 391.748 199.068 391.453L197.05 390.174C196.509 389.829 195.968 389.485 195.378 389.091L194.541 388.501C193.656 387.91 192.721 387.271 191.836 386.631C189.327 384.86 186.965 383.04 185.145 381.613C181.258 378.514 177.569 375.169 174.125 371.676C170.976 368.478 168.566 365.723 167.041 363.952L164.482 360.803L164.679 360.656L219.041 317.412L219.189 317.609C219.189 317.609 219.287 317.756 219.484 318.002L219.779 318.347C219.927 318.544 220.173 318.79 220.369 319.085C221.058 319.872 222.239 321.249 223.715 322.725C225.289 324.3 227.109 325.923 228.93 327.448L229.077 327.596C230.061 328.334 231.045 329.121 232.078 329.859C232.373 330.105 232.718 330.302 233.062 330.548C233.308 330.695 233.554 330.843 233.751 331.04L235.03 331.876C235.178 331.974 235.325 332.073 235.473 332.122L236.654 332.811C236.85 332.909 237.047 333.057 237.195 333.155L238.08 333.647C238.228 333.745 238.375 333.794 238.523 333.893C238.671 333.991 238.818 334.04 238.966 334.139C239.261 334.286 239.556 334.434 239.851 334.582C239.9 334.631 239.999 334.631 240.048 334.68C240.146 334.729 240.196 334.778 240.294 334.778C240.442 334.877 240.589 334.926 240.737 334.975L242.508 335.812C244.525 336.697 246.69 337.533 249.051 338.271C249.248 338.321 249.445 338.37 249.641 338.468C249.937 338.567 250.183 338.665 250.428 338.714C250.625 338.763 250.822 338.813 251.019 338.862L251.117 338.911C251.314 338.96 251.511 339.009 251.757 339.059C252.15 339.157 252.544 339.255 252.888 339.354C253.183 339.403 253.479 339.501 253.725 339.55L253.823 339.6C254.217 339.698 254.61 339.796 254.856 339.846L255.84 340.042L242.311 408.278ZM165.122 360.852L166.204 362.181L167.483 363.755C169.008 365.526 171.419 368.281 174.568 371.43C178.011 374.873 181.701 378.219 185.538 381.318C187.31 382.745 189.671 384.565 192.18 386.336C193.066 386.976 193.951 387.566 194.837 388.156L195.722 388.747C196.263 389.091 196.804 389.436 197.346 389.829L199.363 391.059C199.855 391.354 200.396 391.699 200.888 391.994L201.183 392.191L203.987 393.814C204.282 393.962 204.627 394.158 204.922 394.306C205.315 394.503 205.66 394.7 206.053 394.896L206.791 395.29C207.431 395.634 208.07 395.93 208.661 396.274C208.808 396.323 208.956 396.421 209.153 396.52C209.3 396.618 209.448 396.667 209.645 396.766C209.841 396.864 210.038 396.963 210.186 397.012L212.449 398.094L214.318 398.93C218.697 400.898 223.321 402.669 228.143 404.194L228.782 404.391C229.618 404.637 230.356 404.883 231.094 405.08L232.472 405.474C232.915 405.621 233.357 405.72 233.8 405.818L236.211 406.458C236.703 406.605 237.145 406.704 237.588 406.802L238.277 406.949C239.113 407.146 239.9 407.294 240.491 407.441C240.737 407.491 240.983 407.54 241.18 407.589L241.967 407.786L255.397 340.288L254.856 340.19C254.561 340.141 254.217 340.042 253.774 339.944H253.675C253.429 339.895 253.134 339.796 252.839 339.747C252.495 339.649 252.101 339.55 251.708 339.452C251.511 339.403 251.314 339.354 251.068 339.255L250.97 339.206C250.773 339.157 250.576 339.108 250.379 339.059C250.133 339.009 249.838 338.911 249.543 338.813C249.346 338.763 249.149 338.665 248.953 338.616C246.64 337.878 244.427 337.041 242.409 336.107L240.638 335.27C240.491 335.221 240.343 335.123 240.196 335.074C240.146 335.024 240.048 334.975 239.95 334.975C239.9 334.926 239.802 334.926 239.753 334.877C239.458 334.729 239.163 334.582 238.867 334.434C238.72 334.336 238.572 334.286 238.425 334.188C238.277 334.09 238.129 334.04 237.982 333.942L237.096 333.45C236.899 333.352 236.703 333.253 236.506 333.106L236.211 332.909L235.325 332.368C235.178 332.269 235.03 332.171 234.882 332.073L233.505 331.285C233.259 331.138 233.013 330.941 232.816 330.794C232.472 330.597 232.127 330.351 231.832 330.105C230.799 329.367 229.766 328.58 228.831 327.842L228.634 327.694C226.765 326.218 224.994 324.546 223.37 322.971C221.944 321.545 220.911 320.364 219.976 319.282C219.73 318.986 219.533 318.74 219.386 318.544L219.09 318.199C219.041 318.101 218.943 318.052 218.894 317.953L165.122 360.852Z" fill="#F0F4F7"/>
<path d="M134.029 285.778L133.979 284.499C133.979 284.204 133.93 283.81 133.93 283.416V283.269C133.93 282.875 133.93 282.432 133.881 281.941V281.547C133.832 279.235 133.832 275.496 134.078 270.871C134.176 268.756 134.422 266.444 134.717 263.787C134.766 263.393 134.816 262.951 134.865 262.557C134.914 262.36 134.914 262.114 134.963 261.918L135.308 259.458C135.406 258.966 135.455 258.474 135.554 257.982L135.603 257.687C135.701 257.096 135.75 256.555 135.898 255.965L136.292 253.899C136.39 253.407 136.488 252.964 136.587 252.472L137.669 247.651C138.456 244.502 139.243 241.698 140.03 239.189C141.703 233.876 143.769 228.464 146.229 223.052C148.295 218.625 150.657 214.148 153.313 209.769C155.183 206.719 157.151 203.718 159.168 200.865C159.66 200.176 160.103 199.586 160.447 199.143C160.644 198.897 160.791 198.651 160.939 198.503C161.333 197.962 161.578 197.667 161.578 197.667L161.726 197.52L216.974 239.927L216.826 240.124C216.826 240.124 216.728 240.271 216.531 240.517C216.432 240.616 216.334 240.763 216.236 240.96C216.088 241.157 215.891 241.403 215.694 241.698C214.711 243.075 213.776 244.502 212.841 245.978C211.562 248.093 210.381 250.258 209.447 252.373C208.217 255.03 207.233 257.637 206.446 260.097C206.003 261.475 205.658 262.852 205.314 264.131L204.822 266.493C204.773 266.69 204.724 266.936 204.675 267.132C204.625 267.477 204.527 267.772 204.478 268.116C204.429 268.411 204.379 268.756 204.33 269.1C204.281 269.445 204.232 269.74 204.183 270.035L204.035 271.265C204.035 271.462 203.986 271.658 203.986 271.855C203.838 273.233 203.74 274.315 203.691 275.25C203.543 277.562 203.543 279.284 203.592 280.366V280.612C203.592 280.809 203.592 281.006 203.592 281.203L203.641 281.793C203.641 282.137 203.641 282.285 203.641 282.285V282.482L134.029 285.778ZM161.775 197.913C161.677 198.061 161.48 198.257 161.283 198.602C161.136 198.799 160.988 198.995 160.791 199.291C160.447 199.783 160.004 200.324 159.512 201.012C157.495 203.866 155.478 206.818 153.658 209.868C151.001 214.246 148.64 218.674 146.574 223.151C144.114 228.513 142.048 233.925 140.375 239.238C139.588 241.796 138.801 244.551 138.013 247.7L136.931 252.521C136.833 253.013 136.734 253.456 136.636 253.948L136.242 256.014C136.144 256.604 136.046 257.146 135.947 257.736L135.898 258.031C135.8 258.523 135.75 259.015 135.652 259.507L135.455 260.835L135.308 261.967C135.258 262.164 135.258 262.41 135.209 262.606C135.16 263 135.111 263.443 135.062 263.836C134.766 266.493 134.57 268.805 134.422 270.921C134.176 275.545 134.176 279.235 134.225 281.547V281.941C134.225 282.432 134.225 282.875 134.274 283.269V283.416C134.274 283.859 134.324 284.204 134.324 284.499V285.335L203.051 281.891C203.051 281.793 203.051 281.695 203.051 281.596L203.002 280.957C203.002 280.76 203.002 280.563 203.002 280.366V280.12C202.953 279.038 202.953 277.267 203.1 274.955C203.149 274.02 203.248 272.938 203.395 271.56C203.395 271.363 203.445 271.167 203.445 270.97L203.592 269.74C203.641 269.395 203.691 269.1 203.74 268.756C203.789 268.411 203.838 268.116 203.887 267.772C203.937 267.428 203.986 267.132 204.084 266.788C204.133 266.591 204.183 266.345 204.232 266.099L204.773 263.738C205.068 262.459 205.462 261.032 205.904 259.655C206.692 257.195 207.675 254.587 208.905 251.882C209.889 249.717 211.07 247.552 212.349 245.437C213.235 243.961 214.219 242.485 215.203 241.108C215.399 240.812 215.596 240.566 215.744 240.37C215.842 240.222 215.99 240.074 216.039 239.927C216.088 239.828 216.186 239.73 216.236 239.681L161.775 197.913Z" fill="#F0F4F7"/>
<path d="M227.207 229.153L227.06 229.005L165.958 153.735L166.106 153.636C166.106 153.636 166.155 153.587 166.253 153.538C166.302 153.489 166.401 153.439 166.499 153.341L166.598 153.243C166.942 152.997 167.385 152.603 168.024 152.111C169.353 151.029 171.173 149.651 173.141 148.225C178.208 144.535 184.21 140.747 189.621 137.746L190.655 137.155C191.097 136.909 191.491 136.663 191.934 136.467L194.295 135.237C194.689 135.04 195.082 134.843 195.476 134.646C195.869 134.45 196.263 134.253 196.657 134.056C197.444 133.662 198.182 133.318 198.92 132.974C199.559 132.678 200.199 132.383 200.789 132.088L201.133 131.941C201.871 131.596 202.56 131.301 203.298 130.957L203.938 130.711C205.118 130.219 206.25 129.727 207.283 129.333C208.513 128.841 209.644 128.398 210.678 128.005C211.711 127.611 212.596 127.316 213.334 127.021L213.629 126.923C214.22 126.726 214.662 126.529 215.056 126.431L215.843 126.185L215.892 126.332L247.083 218.133L246.886 218.182C246.886 218.182 246.788 218.231 246.64 218.28C246.492 218.329 246.345 218.379 246.197 218.428L245.853 218.575C245.607 218.674 245.263 218.772 244.918 218.92C244.525 219.067 244.082 219.264 243.59 219.461C241.524 220.297 238.965 221.478 236.653 222.806C234.538 223.987 232.127 225.512 230.11 226.939C229.225 227.578 228.536 228.119 228.044 228.464C227.798 228.661 227.601 228.808 227.453 228.907C227.404 228.956 227.355 229.005 227.306 229.005L227.207 229.153ZM166.45 153.784L227.257 228.661L227.306 228.611C227.453 228.513 227.601 228.365 227.847 228.169C228.29 227.775 229.028 227.283 229.913 226.644C231.93 225.168 234.341 223.643 236.506 222.462C238.867 221.183 241.425 219.953 243.491 219.117C243.983 218.92 244.426 218.772 244.82 218.575C245.164 218.428 245.459 218.329 245.755 218.231L246.099 218.083C246.296 217.985 246.443 217.936 246.591 217.936H246.64L215.499 126.627L215.056 126.775C214.712 126.873 214.269 127.07 213.678 127.267L213.383 127.365C212.645 127.611 211.76 127.956 210.727 128.349C209.743 128.743 208.562 129.186 207.332 129.678C206.299 130.12 205.168 130.563 203.987 131.055L203.347 131.301C202.658 131.596 201.921 131.941 201.232 132.285L200.887 132.433C200.297 132.728 199.658 132.974 199.018 133.318C198.28 133.662 197.493 134.056 196.706 134.4C196.312 134.597 195.919 134.794 195.574 134.991C195.181 135.188 194.787 135.384 194.394 135.581L192.081 136.811C191.639 137.057 191.245 137.303 190.802 137.5L189.769 138.041C184.357 141.042 178.355 144.83 173.337 148.52C171.37 149.946 169.549 151.324 168.221 152.406C167.631 152.898 167.139 153.243 166.794 153.538L166.696 153.636C166.598 153.636 166.499 153.685 166.45 153.784Z" fill="#F0F4F7"/>
<path d="M267.204 434.204C267.204 434.204 266.564 434.204 265.285 434.204C264.793 434.204 264.203 434.204 263.563 434.155L262.53 434.105C261.743 434.105 260.906 434.056 259.922 434.007L257.118 433.859C256.774 433.859 256.43 433.81 256.085 433.761H255.888C254.511 433.663 253.133 433.564 251.608 433.367C248.361 433.072 244.77 432.531 240.884 431.892C232.225 430.416 223.222 428.005 214.76 424.906C210.087 423.184 205.315 421.216 200.739 419.002C196.066 416.739 191.441 414.23 186.915 411.475C182.438 408.769 178.109 405.768 173.927 402.62C169.893 399.57 165.957 396.273 162.268 392.83C158.775 389.632 155.429 386.188 152.281 382.695C149.526 379.596 146.771 376.3 144.163 372.856L142.442 370.544C141.9 369.757 141.359 369.019 140.818 368.281C140.375 367.641 139.933 367.002 139.539 366.411L139.145 365.821C138.752 365.23 138.358 364.64 137.965 364.05L136.686 362.082C136.587 361.934 136.489 361.787 136.39 361.639C136.292 361.492 136.194 361.344 136.095 361.147L135.406 360.016C134.718 358.933 134.078 357.9 133.537 356.916C133.34 356.523 133.094 356.178 132.897 355.785C132.553 355.244 132.258 354.702 132.012 354.21L130.684 351.8C130.487 351.455 130.339 351.16 130.241 350.964L129.896 350.275L130.192 350.127L209.841 308.802L209.988 309.048C209.988 309.048 209.988 309.097 210.087 309.245C210.136 309.343 210.234 309.54 210.333 309.737C210.431 309.934 210.529 310.131 210.677 310.327L210.825 310.573C210.923 310.77 211.071 311.016 211.169 311.213C211.267 311.36 211.366 311.508 211.464 311.705C211.612 312 211.808 312.246 211.956 312.541C212.054 312.689 212.153 312.886 212.251 313.082C212.35 313.23 212.399 313.328 212.497 313.476C212.546 313.525 212.596 313.623 212.645 313.673L213.284 314.657C213.383 314.804 213.481 314.952 213.58 315.099C213.678 315.247 213.776 315.345 213.875 315.493L214.071 315.788C214.219 315.985 214.317 316.182 214.465 316.378L215.351 317.608C215.498 317.805 215.695 318.051 215.892 318.297C218.204 321.347 220.762 324.201 223.517 326.71C226.666 329.612 230.257 332.318 233.898 334.581C237.538 336.844 241.621 338.763 245.606 340.239C247.476 340.927 249.345 341.518 251.313 342.01C253.232 342.502 254.954 342.895 256.528 343.141C257.955 343.387 259.578 343.633 261.005 343.732C261.497 343.781 261.94 343.83 262.382 343.879L263.317 343.978C263.415 343.978 263.514 343.978 263.612 343.978L264.449 344.027C264.744 344.027 265.039 344.076 265.334 344.076L266.072 344.125C266.269 344.125 266.466 344.125 266.662 344.125H267.794V344.42L267.499 434.155H267.204V434.204ZM130.782 350.521C130.831 350.57 130.831 350.619 130.88 350.668C130.979 350.865 131.126 351.16 131.323 351.505L132.652 353.915C132.897 354.407 133.193 354.899 133.537 355.49C133.734 355.834 133.98 356.228 134.177 356.621C134.718 357.556 135.357 358.589 135.997 359.671L136.636 360.803C136.735 360.95 136.833 361.098 136.932 361.246C137.03 361.393 137.128 361.541 137.227 361.688L138.506 363.656C138.899 364.247 139.244 364.788 139.687 365.378L140.08 365.968C140.474 366.608 140.916 367.198 141.359 367.838C141.851 368.576 142.392 369.314 142.983 370.101L144.705 372.413C147.312 375.857 150.067 379.153 152.822 382.203C155.971 385.696 159.316 389.091 162.809 392.338C166.499 395.732 170.385 399.028 174.419 402.079C178.552 405.227 182.881 408.179 187.358 410.885C191.835 413.64 196.459 416.149 201.133 418.363C205.757 420.576 210.431 422.544 215.105 424.266C223.517 427.316 232.52 429.727 241.129 431.252C244.967 431.941 248.558 432.433 251.805 432.728C253.33 432.925 254.708 433.023 256.085 433.121H256.282C256.626 433.121 256.971 433.171 257.315 433.22L260.119 433.367C261.054 433.417 261.94 433.466 262.727 433.466L263.76 433.515C264.399 433.515 264.99 433.564 265.482 433.564C266.22 433.564 266.761 433.564 267.056 433.564L267.351 344.765H266.859C266.662 344.765 266.466 344.765 266.22 344.765H265.482C265.187 344.765 264.891 344.765 264.547 344.716L263.711 344.666C263.612 344.666 263.514 344.666 263.415 344.666L262.481 344.568C262.038 344.519 261.595 344.519 261.103 344.42C259.677 344.273 258.004 344.027 256.626 343.781C255.052 343.535 253.33 343.141 251.362 342.6C249.394 342.108 247.476 341.469 245.606 340.829C241.572 339.353 237.489 337.385 233.799 335.122C230.109 332.859 226.469 330.104 223.32 327.202C220.565 324.643 217.958 321.79 215.646 318.74C215.449 318.494 215.301 318.248 215.105 318.051L214.219 316.821C214.071 316.624 213.924 316.428 213.826 316.231L213.629 315.936C213.53 315.788 213.432 315.641 213.383 315.542C213.284 315.395 213.186 315.247 213.088 315.05L212.448 314.066C212.399 313.968 212.35 313.919 212.3 313.82C212.202 313.673 212.153 313.574 212.054 313.427C211.956 313.279 211.858 313.082 211.759 312.935C211.562 312.64 211.415 312.344 211.267 312.049C211.169 311.902 211.071 311.754 211.021 311.606C210.874 311.36 210.775 311.164 210.628 310.967L210.48 310.721C210.333 310.475 210.234 310.278 210.185 310.131C210.087 309.934 209.988 309.835 209.939 309.688L130.782 350.521Z" fill="#F0F4F7"/>
<path d="M258.741 399.47C258.741 399.273 258.987 399.076 259.332 398.978C259.725 398.83 260.217 398.781 260.758 398.781C261.299 398.781 261.841 398.879 262.185 399.027C262.579 399.175 262.775 399.322 262.775 399.519C262.775 399.716 262.579 399.913 262.185 400.06C261.841 400.159 261.299 400.257 260.758 400.257C260.217 400.257 259.676 400.159 259.332 400.06C258.938 399.863 258.741 399.667 258.741 399.47Z" fill="#F0F4F7"/>
<path d="M251.559 399.125C251.559 398.929 251.805 398.781 252.199 398.683C252.592 398.584 253.084 398.535 253.625 398.584C254.757 398.633 255.593 399.027 255.593 399.421C255.544 399.814 254.658 400.109 253.527 400.06C252.986 400.06 252.494 399.913 252.1 399.716C251.756 399.519 251.559 399.322 251.559 399.125Z" fill="#F0F4F7"/>
<path d="M244.426 398.339C244.475 397.945 245.41 397.749 246.492 397.896C247.033 397.995 247.525 398.093 247.87 398.29C248.214 398.437 248.411 398.683 248.411 398.88C248.411 399.077 248.165 399.224 247.771 399.323C247.378 399.421 246.886 399.47 246.345 399.372C245.213 399.175 244.377 398.732 244.426 398.339Z" fill="#F0F4F7"/>
<path d="M237.341 397.158C237.39 396.961 237.636 396.863 238.03 396.764C238.423 396.715 238.915 396.715 239.456 396.813C239.997 396.912 240.489 397.109 240.785 397.305C241.129 397.502 241.326 397.699 241.277 397.896C241.227 398.093 240.981 398.24 240.588 398.289C240.194 398.339 239.702 398.339 239.161 398.24C238.62 398.142 238.128 397.945 237.784 397.748C237.488 397.551 237.341 397.355 237.341 397.158Z" fill="#F0F4F7"/>
<path d="M230.356 395.534C230.454 395.141 231.389 395.042 232.471 395.337C233.553 395.583 234.341 396.125 234.242 396.518C234.144 396.912 233.209 397.01 232.127 396.764C231.044 396.469 230.257 395.928 230.356 395.534Z" fill="#F0F4F7"/>
<path d="M223.468 393.518C223.615 393.124 224.55 393.075 225.583 393.419C226.666 393.764 227.403 394.305 227.305 394.698C227.207 395.092 226.223 395.141 225.14 394.797C224.107 394.502 223.369 393.911 223.468 393.518Z" fill="#F0F4F7"/>
<path d="M216.727 391.057C216.826 390.86 217.072 390.762 217.465 390.811C217.662 390.811 217.859 390.86 218.105 390.909C218.351 390.958 218.597 391.008 218.843 391.106C219.876 391.5 220.614 392.09 220.466 392.484C220.319 392.877 219.384 392.828 218.302 392.484C218.056 392.385 217.81 392.287 217.564 392.139C217.367 391.992 217.17 391.893 217.023 391.746C216.777 391.5 216.629 391.254 216.727 391.057Z" fill="#F0F4F7"/>
<path d="M210.087 388.254C210.234 387.91 211.218 387.959 212.202 388.402C213.235 388.845 213.924 389.484 213.776 389.878C213.629 390.222 212.645 390.222 211.612 389.779C210.628 389.287 209.939 388.648 210.087 388.254Z" fill="#F0F4F7"/>
<path d="M203.642 385.056C203.741 384.859 204.036 384.81 204.43 384.859C204.823 384.908 205.315 385.056 205.807 385.302C206.791 385.794 207.431 386.483 207.283 386.876C207.086 387.27 206.151 387.122 205.118 386.63C204.626 386.384 204.184 386.089 203.938 385.794C203.692 385.499 203.593 385.253 203.642 385.056Z" fill="#F0F4F7"/>
<path d="M197.395 381.514C197.591 381.17 198.526 381.367 199.51 381.908C200.445 382.449 201.084 383.187 200.888 383.531C200.691 383.876 199.756 383.728 198.772 383.187C197.788 382.596 197.198 381.858 197.395 381.514Z" fill="#F0F4F7"/>
<path d="M191.391 377.578C191.637 377.283 192.523 377.48 193.458 378.119C193.95 378.414 194.294 378.808 194.54 379.103C194.786 379.398 194.884 379.693 194.737 379.841C194.638 379.989 194.343 380.038 193.95 379.939C193.556 379.841 193.113 379.644 192.621 379.3C191.686 378.66 191.145 377.922 191.391 377.578Z" fill="#F0F4F7"/>
<path d="M185.587 373.298C185.833 372.953 186.719 373.298 187.604 373.937C188.49 374.577 189.031 375.413 188.785 375.708C188.539 376.053 187.604 375.758 186.719 375.069C185.833 374.429 185.341 373.593 185.587 373.298Z" fill="#F0F4F7"/>
<path d="M180.028 368.673C180.274 368.378 181.209 368.722 182.045 369.46C182.438 369.805 182.783 370.198 182.98 370.543C183.176 370.887 183.226 371.182 183.127 371.33C182.98 371.477 182.684 371.477 182.34 371.33C181.946 371.232 181.553 370.936 181.11 370.592C180.225 369.805 179.782 368.968 180.028 368.673Z" fill="#F0F4F7"/>
<path d="M174.763 363.754C174.911 363.607 175.206 363.656 175.55 363.803C175.698 363.902 175.895 364 176.091 364.148C176.288 364.295 176.485 364.443 176.682 364.64C177.469 365.427 177.912 366.263 177.616 366.558C177.37 366.854 176.436 366.46 175.649 365.673C175.452 365.476 175.255 365.279 175.107 365.082C174.96 364.886 174.861 364.689 174.763 364.541C174.665 364.197 174.615 363.902 174.763 363.754Z" fill="#F0F4F7"/>
<path d="M169.795 358.539C170.09 358.244 170.927 358.736 171.714 359.523C172.058 359.916 172.353 360.359 172.55 360.703C172.698 361.048 172.747 361.343 172.599 361.491C172.452 361.638 172.156 361.589 171.812 361.441C171.468 361.245 171.025 360.949 170.681 360.556C169.893 359.719 169.5 358.785 169.795 358.539Z" fill="#F0F4F7"/>
<path d="M165.171 353.028C165.318 352.881 165.613 352.979 165.958 353.176C166.302 353.372 166.696 353.717 167.04 354.11C167.729 354.947 168.073 355.881 167.778 356.127C167.483 356.423 166.647 355.931 165.909 355.045C165.564 354.602 165.269 354.16 165.171 353.815C165.023 353.471 165.023 353.176 165.171 353.028Z" fill="#F0F4F7"/>
<path d="M160.841 347.322C161.185 347.076 161.972 347.618 162.612 348.552C163.301 349.438 163.547 350.323 163.251 350.619C162.907 350.865 162.12 350.323 161.431 349.438C160.792 348.454 160.546 347.519 160.841 347.322Z" fill="#F0F4F7"/>
<path d="M156.857 341.32C157.201 341.123 157.939 341.713 158.578 342.599C158.874 343.091 159.07 343.533 159.169 343.927C159.267 344.321 159.218 344.567 159.07 344.714C158.874 344.813 158.628 344.763 158.283 344.517C157.988 344.321 157.644 343.878 157.299 343.435C156.758 342.451 156.512 341.516 156.857 341.32Z" fill="#F0F4F7"/>
<path d="M153.266 335.121C153.462 335.023 153.708 335.121 154.004 335.416C154.299 335.662 154.594 336.056 154.889 336.548C155.43 337.483 155.578 338.417 155.234 338.663C154.889 338.86 154.151 338.221 153.61 337.286C153.315 336.794 153.167 336.302 153.118 335.908C153.069 335.515 153.118 335.22 153.266 335.121Z" fill="#F0F4F7"/>
<path d="M150.018 328.727C150.362 328.58 151.051 329.219 151.543 330.203C151.789 330.695 151.937 331.187 151.986 331.581C152.035 331.974 151.986 332.269 151.789 332.319C151.592 332.417 151.346 332.269 151.051 332.023C150.756 331.728 150.461 331.335 150.215 330.843C149.772 329.859 149.674 328.875 150.018 328.727Z" fill="#F0F4F7"/>
<path d="M147.165 322.133C147.362 322.035 147.608 322.183 147.854 322.478C148.1 322.773 148.395 323.216 148.591 323.708C149.034 324.741 149.083 325.676 148.69 325.823C148.296 326.02 147.657 325.282 147.214 324.249C146.968 323.757 146.87 323.216 146.87 322.822C146.919 322.478 147.017 322.183 147.165 322.133Z" fill="#F0F4F7"/>
<path d="M144.705 315.394C145.098 315.246 145.689 316.033 146.033 317.066C146.426 318.1 146.426 319.034 146.033 319.182C145.639 319.33 145.049 318.592 144.655 317.509C144.311 316.476 144.36 315.492 144.705 315.394Z" fill="#F0F4F7"/>
<path d="M142.639 308.507C143.033 308.408 143.574 309.195 143.869 310.228C143.968 310.524 143.968 310.77 144.017 311.016C144.066 311.262 144.066 311.458 144.066 311.655C144.066 312.049 143.968 312.295 143.722 312.344C143.525 312.393 143.279 312.246 143.082 311.95C142.984 311.803 142.836 311.606 142.738 311.36C142.639 311.114 142.541 310.868 142.492 310.622C142.196 309.589 142.246 308.605 142.639 308.507Z" fill="#F0F4F7"/>
<path d="M140.965 301.52C141.162 301.471 141.408 301.668 141.605 301.963C141.802 302.307 141.999 302.75 142.146 303.291C142.392 304.373 142.245 305.308 141.9 305.407C141.507 305.505 140.965 304.718 140.72 303.586C140.572 303.045 140.572 302.553 140.621 302.16C140.67 301.815 140.818 301.52 140.965 301.52Z" fill="#F0F4F7"/>
<path d="M138.9 287.204C139.293 287.155 139.736 288.04 139.835 289.172C139.884 289.713 139.884 290.254 139.785 290.599C139.687 290.992 139.539 291.238 139.343 291.238C139.146 291.238 138.949 291.041 138.752 290.697C138.605 290.353 138.408 289.861 138.359 289.27C138.26 288.188 138.506 287.253 138.9 287.204Z" fill="#F0F4F7"/>
<path d="M138.456 280.022C138.85 280.022 139.243 280.907 139.292 281.99C139.292 282.531 139.243 283.072 139.145 283.416C139.046 283.81 138.899 284.007 138.653 284.056C138.456 284.056 138.259 283.859 138.112 283.515C137.964 283.17 137.866 282.678 137.817 282.088C137.767 280.956 138.013 280.022 138.456 280.022Z" fill="#F0F4F7"/>
<path d="M138.458 272.839C138.654 272.839 138.851 273.085 138.95 273.43C138.999 273.627 139.048 273.823 139.097 274.069C139.146 274.315 139.146 274.561 139.146 274.856C139.146 275.939 138.802 276.873 138.408 276.873C138.015 276.873 137.67 275.988 137.67 274.856C137.67 274.561 137.67 274.315 137.72 274.069C137.769 273.823 137.818 273.627 137.916 273.43C138.064 273.036 138.261 272.839 138.458 272.839Z" fill="#F0F4F7"/>
<path d="M138.851 265.656C139.244 265.705 139.49 266.64 139.441 267.723C139.392 268.805 138.998 269.69 138.605 269.69C138.211 269.69 137.916 268.756 137.965 267.624C138.063 266.493 138.457 265.607 138.851 265.656Z" fill="#F0F4F7"/>
<path d="M139.687 258.524C140.08 258.573 140.277 259.507 140.129 260.59C140.031 261.131 139.883 261.623 139.736 261.967C139.588 262.312 139.342 262.508 139.145 262.508C138.949 262.508 138.801 262.262 138.703 261.869C138.604 261.475 138.604 260.983 138.703 260.442C138.85 259.311 139.244 258.474 139.687 258.524Z" fill="#F0F4F7"/>
<path d="M140.917 251.438C141.114 251.487 141.262 251.733 141.311 252.127C141.36 252.52 141.36 253.012 141.262 253.553C141.065 254.636 140.573 255.472 140.179 255.374C139.786 255.324 139.638 254.341 139.835 253.258C139.933 252.717 140.13 252.225 140.327 251.881C140.524 251.586 140.721 251.438 140.917 251.438Z" fill="#F0F4F7"/>
<path d="M142.589 244.453C142.983 244.551 143.081 245.486 142.786 246.568C142.638 247.109 142.442 247.552 142.245 247.896C142.048 248.241 141.802 248.388 141.605 248.339C141.409 248.29 141.261 248.044 141.261 247.65C141.212 247.257 141.212 246.765 141.409 246.224C141.655 245.141 142.196 244.354 142.589 244.453Z" fill="#F0F4F7"/>
<path d="M144.655 237.614C144.852 237.663 144.951 237.959 144.951 238.352C144.951 238.746 144.901 239.238 144.754 239.779C144.409 240.861 143.819 241.599 143.475 241.501C143.081 241.402 143.032 240.418 143.376 239.336C143.524 238.795 143.77 238.352 144.016 238.057C144.213 237.713 144.459 237.516 144.655 237.614Z" fill="#F0F4F7"/>
<path d="M147.116 230.825C147.509 230.973 147.46 231.957 147.067 232.941C146.673 233.974 146.083 234.712 145.689 234.564C145.295 234.417 145.295 233.482 145.689 232.4C146.132 231.416 146.771 230.678 147.116 230.825Z" fill="#F0F4F7"/>
<path d="M149.968 224.234C150.313 224.381 150.264 225.365 149.821 226.349C149.575 226.841 149.28 227.284 149.034 227.579C148.788 227.874 148.542 227.973 148.345 227.923C148.148 227.825 148.099 227.579 148.099 227.186C148.148 226.792 148.296 226.3 148.493 225.808C148.935 224.775 149.575 224.086 149.968 224.234Z" fill="#F0F4F7"/>
<path d="M153.217 217.836C153.413 217.935 153.463 218.23 153.413 218.624C153.364 219.017 153.167 219.46 152.921 220.001C152.43 220.985 151.741 221.625 151.347 221.477C151.003 221.28 151.101 220.345 151.593 219.362C151.839 218.87 152.184 218.476 152.43 218.181C152.774 217.836 153.069 217.738 153.217 217.836Z" fill="#F0F4F7"/>
<path d="M156.856 211.59C157.2 211.786 157.004 212.77 156.462 213.705C156.315 213.951 156.167 214.148 156.02 214.345C155.872 214.541 155.724 214.689 155.577 214.837C155.282 215.083 155.036 215.181 154.839 215.083C154.642 214.984 154.593 214.689 154.691 214.296C154.74 214.099 154.79 213.902 154.888 213.656C154.986 213.41 155.085 213.164 155.232 212.967C155.724 211.983 156.512 211.393 156.856 211.59Z" fill="#F0F4F7"/>
<path d="M160.792 205.587C160.94 205.685 160.989 205.981 160.89 206.374C160.792 206.768 160.595 207.211 160.251 207.653C159.611 208.588 158.873 209.129 158.529 208.932C158.185 208.736 158.431 207.801 159.07 206.866C159.365 206.374 159.71 206.03 160.054 205.784C160.349 205.538 160.644 205.489 160.792 205.587Z" fill="#F0F4F7"/>
<path d="M165.121 199.832C165.416 200.078 165.121 201.013 164.481 201.85C163.793 202.735 163.005 203.276 162.661 203.03C162.317 202.784 162.612 201.85 163.301 200.964C163.989 200.078 164.826 199.586 165.121 199.832Z" fill="#F0F4F7"/>
<path d="M174.715 189.057C175.01 189.352 174.617 190.238 173.829 190.976C173.092 191.812 172.206 192.206 171.911 191.96C171.616 191.665 172.009 190.779 172.747 189.992C173.583 189.205 174.42 188.811 174.715 189.057Z" fill="#F0F4F7"/>
<path d="M179.978 184.137C180.224 184.433 179.781 185.269 178.994 186.007C178.6 186.4 178.158 186.646 177.813 186.794C177.469 186.942 177.174 186.991 177.026 186.843C176.879 186.696 176.928 186.4 177.075 186.056C177.272 185.712 177.567 185.318 178.01 184.925C178.797 184.187 179.683 183.842 179.978 184.137Z" fill="#F0F4F7"/>
<path d="M185.488 179.562C185.734 179.906 185.242 180.694 184.406 181.382C183.569 182.071 182.635 182.416 182.389 182.12C182.143 181.825 182.634 180.989 183.471 180.251C184.307 179.513 185.242 179.218 185.488 179.562Z" fill="#F0F4F7"/>
<path d="M191.245 175.234C191.491 175.578 190.95 176.365 190.015 177.005C189.769 177.152 189.572 177.3 189.326 177.398C189.13 177.497 188.884 177.595 188.736 177.644C188.343 177.743 188.097 177.743 187.949 177.595C187.801 177.447 187.9 177.152 188.097 176.808C188.195 176.66 188.343 176.463 188.49 176.316C188.687 176.119 188.884 175.971 189.13 175.824C190.114 175.184 190.999 174.938 191.245 175.234Z" fill="#F0F4F7"/>
<path d="M197.246 171.347C197.443 171.691 196.853 172.429 195.918 173.02C194.983 173.61 194.049 173.807 193.852 173.512C193.606 173.167 194.196 172.429 195.131 171.79C196.115 171.15 197.05 171.003 197.246 171.347Z" fill="#F0F4F7"/>
<path d="M203.494 167.755C203.69 168.1 203.051 168.838 202.067 169.379C201.132 169.92 200.198 170.117 199.952 169.723C199.755 169.379 200.394 168.641 201.378 168.1C202.362 167.559 203.297 167.411 203.494 167.755Z" fill="#F0F4F7"/>
<path d="M209.939 164.558C210.037 164.754 209.89 165 209.644 165.295C209.398 165.591 208.955 165.886 208.463 166.132C207.971 166.378 207.479 166.525 207.086 166.525C206.692 166.575 206.446 166.525 206.348 166.329C206.249 166.132 206.348 165.886 206.643 165.591C206.889 165.295 207.332 165 207.824 164.804C208.316 164.558 208.808 164.41 209.201 164.361C209.545 164.312 209.841 164.361 209.939 164.558Z" fill="#F0F4F7"/>
<path d="M216.532 161.753C216.581 161.95 216.482 162.196 216.187 162.442C215.892 162.688 215.449 162.934 214.957 163.18C213.924 163.623 212.989 163.672 212.842 163.278C212.694 162.934 213.383 162.245 214.416 161.802C214.908 161.556 215.449 161.458 215.843 161.458C216.187 161.458 216.433 161.556 216.532 161.753Z" fill="#F0F4F7"/>
<path d="M223.272 159.342C223.419 159.736 222.632 160.326 221.599 160.671C221.058 160.818 220.566 160.917 220.172 160.917C219.779 160.917 219.533 160.818 219.434 160.621C219.336 160.425 219.533 160.179 219.828 159.933C220.123 159.687 220.566 159.441 221.107 159.244C222.189 158.9 223.173 158.949 223.272 159.342Z" fill="#F0F4F7"/>
<path d="M230.208 157.326C230.257 157.523 230.061 157.769 229.765 157.966C229.47 158.211 228.978 158.408 228.437 158.556C227.896 158.703 227.404 158.753 227.01 158.753C226.617 158.703 226.371 158.605 226.322 158.408C226.273 158.211 226.42 157.965 226.764 157.72C227.06 157.474 227.552 157.277 228.093 157.129C228.634 156.982 229.126 156.932 229.519 156.932C229.864 156.982 230.11 157.129 230.208 157.326Z" fill="#F0F4F7"/>
<path d="M237.194 155.703C237.243 155.9 237.046 156.146 236.702 156.343C236.358 156.539 235.915 156.736 235.374 156.835C234.291 157.081 233.357 156.982 233.258 156.589C233.16 156.195 233.996 155.703 235.079 155.408C235.62 155.26 236.161 155.26 236.555 155.309C236.899 155.359 237.145 155.506 237.194 155.703Z" fill="#F0F4F7"/>
<path d="M244.327 154.472C244.376 154.866 243.54 155.358 242.458 155.506C241.376 155.653 240.392 155.506 240.342 155.112C240.293 154.718 241.13 154.227 242.212 154.03C243.343 153.882 244.278 154.079 244.327 154.472Z" fill="#F0F4F7"/>
<path d="M251.51 153.685C251.559 154.078 250.674 154.521 249.592 154.619C249.05 154.669 248.559 154.619 248.165 154.521C247.771 154.423 247.525 154.275 247.525 154.078C247.525 153.881 247.722 153.685 248.067 153.488C248.411 153.291 248.903 153.193 249.493 153.143C250.526 153.045 251.461 153.242 251.51 153.685Z" fill="#F0F4F7"/>
<path d="M258.693 153.292C258.693 153.686 257.808 154.03 256.676 154.079C255.594 154.128 254.659 153.833 254.61 153.44C254.561 153.046 255.495 152.653 256.578 152.603C257.758 152.554 258.693 152.899 258.693 153.292Z" fill="#F0F4F7"/>
<path d="M265.875 153.342C265.875 153.735 264.94 154.031 263.858 154.031C262.776 154.031 261.841 153.686 261.841 153.293C261.841 152.899 262.776 152.555 263.858 152.555C264.989 152.555 265.924 152.899 265.875 153.342Z" fill="#F0F4F7"/>
<path d="M267.352 160.032C267.352 160.032 266.663 160.032 265.433 159.983C264.843 159.983 264.105 159.933 263.268 159.983C262.875 159.983 262.383 159.983 261.94 159.983C261.448 159.983 260.956 159.983 260.464 160.032C256.332 160.13 250.772 160.524 245.262 161.36C244.574 161.459 243.885 161.557 243.196 161.705C242.507 161.803 241.819 161.95 241.179 162.049C239.851 162.295 238.523 162.59 237.243 162.836C236.604 162.984 236.014 163.131 235.374 163.279C234.784 163.426 234.193 163.574 233.603 163.722C232.422 164.017 231.34 164.312 230.356 164.607C228.339 165.148 226.715 165.739 225.535 166.083C224.403 166.477 223.714 166.723 223.714 166.723L222.042 161.852C222.042 161.852 222.73 161.606 223.911 161.213C225.141 160.819 226.814 160.278 228.929 159.687C229.962 159.392 231.094 159.097 232.324 158.753C232.914 158.605 233.554 158.458 234.193 158.31C234.833 158.162 235.472 158.015 236.161 157.867C237.489 157.572 238.867 157.277 240.244 157.031C240.933 156.883 241.671 156.785 242.36 156.637C243.049 156.539 243.787 156.391 244.524 156.293C250.231 155.407 256.036 155.014 260.366 154.915C260.907 154.866 261.448 154.866 261.891 154.866C262.383 154.866 262.875 154.866 263.317 154.866C264.203 154.866 264.941 154.866 265.581 154.866C266.86 154.915 267.548 154.915 267.548 154.915L267.352 160.032Z" fill="#F0F4F7"/>
<path d="M267.105 168.051C267.105 168.051 266.564 168.051 265.63 168.001C265.138 168.001 264.596 168.001 263.957 168.001C263.317 168.001 262.53 168.001 261.743 168.001C258.496 168.051 254.216 168.296 249.936 168.788C245.656 169.28 241.425 170.117 238.276 170.806C237.489 171.002 236.751 171.15 236.112 171.297C235.472 171.445 234.931 171.593 234.488 171.74C234.046 171.888 233.701 171.937 233.455 172.035C233.209 172.085 233.062 172.134 233.062 172.134L231.684 167.165C231.684 167.165 231.832 167.116 232.078 167.067C232.324 167.017 232.717 166.87 233.16 166.771C233.652 166.673 234.193 166.476 234.882 166.329C235.571 166.181 236.309 165.984 237.145 165.787C240.441 165.05 244.869 164.213 249.346 163.672C253.822 163.131 258.299 162.885 261.694 162.836C262.53 162.836 263.317 162.836 264.006 162.836C264.695 162.836 265.285 162.836 265.777 162.836C266.761 162.836 267.302 162.885 267.302 162.885L267.105 168.051Z" fill="#F0F4F7"/>
<path d="M256.971 386.926C256.971 386.926 257.167 386.926 257.463 386.975C257.807 386.975 258.299 387.024 258.939 387.024C259.578 387.073 260.316 387.122 261.202 387.122C262.087 387.122 263.071 387.172 264.153 387.172C264.695 387.172 265.236 387.172 265.826 387.172C266.416 387.172 267.007 387.122 267.646 387.122C268.286 387.122 268.876 387.073 269.565 387.024C270.205 386.975 270.893 386.975 271.533 386.926C274.239 386.729 277.092 386.385 279.945 385.942C280.634 385.843 281.372 385.745 282.061 385.597C282.75 385.45 283.488 385.351 284.176 385.204C285.554 384.909 286.931 384.613 288.21 384.318C289.539 384.023 290.769 383.679 291.949 383.334C292.54 383.138 293.13 382.99 293.671 382.842C293.966 382.744 294.212 382.695 294.508 382.596C294.754 382.498 295.049 382.449 295.295 382.35C295.787 382.203 296.279 382.055 296.771 381.858C297.213 381.711 297.656 381.563 298.099 381.416C298.492 381.268 298.886 381.121 299.28 381.022C299.624 380.875 299.968 380.776 300.264 380.678C300.854 380.481 301.297 380.284 301.641 380.186C301.789 380.137 301.936 380.087 301.985 380.038C302.084 379.989 302.133 379.989 302.133 379.989L308.086 395.24C308.086 395.24 308.037 395.24 307.938 395.289C307.84 395.338 307.692 395.387 307.545 395.437C307.2 395.584 306.659 395.781 305.97 396.027C305.626 396.125 305.232 396.273 304.839 396.421C304.445 396.568 303.953 396.716 303.511 396.863C303.019 397.011 302.527 397.208 301.985 397.355C301.444 397.552 300.854 397.7 300.264 397.896C299.968 397.995 299.673 398.093 299.329 398.192C299.034 398.29 298.689 398.388 298.394 398.487C297.754 398.684 297.066 398.88 296.426 399.077C295.049 399.422 293.622 399.864 292.097 400.209C290.572 400.602 288.998 400.897 287.423 401.242C286.636 401.389 285.8 401.537 285.013 401.685C284.176 401.832 283.389 401.931 282.553 402.078C279.257 402.57 275.961 402.964 272.861 403.16C272.074 403.259 271.336 403.259 270.598 403.308C269.86 403.357 269.122 403.406 268.433 403.406C267.696 403.406 267.007 403.456 266.367 403.456C265.678 403.456 265.039 403.456 264.449 403.456C263.169 403.456 262.038 403.456 261.054 403.406C260.07 403.406 259.185 403.357 258.447 403.308C257.709 403.259 257.167 403.259 256.774 403.21C256.38 403.161 256.184 403.16 256.184 403.16L256.971 386.926Z" fill="#F0F4F7"/>
<path d="M256.183 400.11C256.183 400.11 256.38 400.11 256.773 400.159C257.167 400.159 257.708 400.209 258.397 400.209C259.086 400.258 259.971 400.307 260.955 400.307C261.939 400.307 263.021 400.356 264.251 400.307C264.891 400.307 265.481 400.307 266.121 400.307C266.76 400.307 267.449 400.258 268.138 400.258C268.827 400.258 269.565 400.209 270.253 400.159C270.991 400.11 271.729 400.061 272.467 400.012C275.468 399.815 278.715 399.422 281.913 398.93C282.7 398.782 283.487 398.684 284.323 398.536C285.111 398.388 285.898 398.241 286.685 398.093C288.259 397.798 289.784 397.454 291.26 397.109C292.736 396.765 294.163 396.371 295.491 396.027C296.18 395.83 296.819 395.683 297.459 395.486C297.754 395.387 298.098 395.289 298.394 395.24C298.689 395.141 298.984 395.043 299.279 394.945C299.87 394.748 300.411 394.6 300.952 394.404C301.493 394.256 301.985 394.059 302.428 393.912C302.87 393.764 303.313 393.616 303.707 393.469C304.1 393.321 304.494 393.174 304.789 393.075C305.429 392.829 305.97 392.632 306.314 392.485C306.511 392.436 306.609 392.337 306.708 392.337C306.806 392.288 306.855 392.288 306.855 392.288L307.938 395.043C307.938 395.043 307.889 395.092 307.79 395.092C307.692 395.141 307.544 395.191 307.397 395.24C307.052 395.387 306.511 395.584 305.822 395.83C305.478 395.978 305.084 396.125 304.691 396.273C304.297 396.421 303.854 396.568 303.362 396.716C302.871 396.863 302.378 397.06 301.837 397.257C301.296 397.405 300.755 397.601 300.115 397.798C299.82 397.896 299.525 397.995 299.23 398.093C298.935 398.192 298.59 398.29 298.295 398.388C297.656 398.585 297.016 398.782 296.327 398.979C294.95 399.323 293.474 399.766 291.998 400.061C290.473 400.455 288.899 400.75 287.324 401.094C286.488 401.242 285.701 401.389 284.914 401.537C284.127 401.685 283.29 401.783 282.454 401.931C279.158 402.423 275.862 402.816 272.811 403.062C272.024 403.111 271.286 403.16 270.548 403.21C269.811 403.259 269.073 403.308 268.335 403.308C267.646 403.308 266.957 403.357 266.268 403.357C265.629 403.357 264.94 403.357 264.35 403.357C263.12 403.357 261.939 403.357 260.955 403.308C259.922 403.308 259.086 403.259 258.348 403.21C257.61 403.16 257.069 403.16 256.675 403.111C256.282 403.062 256.085 403.062 256.085 403.062L256.183 400.11Z" fill="#F0F4F7"/>
<path d="M210.087 372.708C210.087 372.708 210.234 372.806 210.53 372.954C210.825 373.15 211.268 373.347 211.809 373.691C212.35 373.987 213.039 374.38 213.826 374.774C214.613 375.217 215.498 375.659 216.433 376.102C220.271 378.021 225.584 380.284 231.045 382.055C233.8 382.94 236.555 383.678 239.162 384.318C239.801 384.465 240.441 384.613 241.081 384.761C241.72 384.908 242.36 385.007 242.95 385.154C244.131 385.4 245.311 385.597 246.394 385.745C247.476 385.941 248.46 386.04 249.296 386.187C250.182 386.286 250.92 386.384 251.559 386.483C252.199 386.581 252.691 386.581 253.035 386.63C253.38 386.679 253.576 386.679 253.576 386.679L252.051 402.963C252.051 402.963 251.855 402.963 251.461 402.914C251.067 402.865 250.477 402.816 249.788 402.717C249.05 402.619 248.165 402.521 247.181 402.422C246.197 402.275 245.065 402.127 243.836 401.93C242.606 401.733 241.277 401.487 239.9 401.241C239.211 401.094 238.473 400.995 237.735 400.799C236.997 400.651 236.259 400.454 235.472 400.307C232.422 399.618 229.224 398.683 226.076 397.699C219.729 395.682 213.629 393.075 209.152 390.812C208.021 390.271 207.037 389.729 206.151 389.238C205.266 388.746 204.478 388.352 203.839 387.958C203.199 387.614 202.707 387.319 202.363 387.122C202.019 386.925 201.871 386.827 201.871 386.827L210.087 372.708Z" fill="#F0F4F7"/>
<path d="M203.396 384.073C203.396 384.073 203.593 384.172 203.888 384.368C204.233 384.565 204.725 384.86 205.315 385.156C205.905 385.5 206.693 385.893 207.578 386.385C208.464 386.877 209.448 387.369 210.53 387.911C214.859 390.075 220.812 392.633 227.011 394.601C230.11 395.585 233.209 396.422 236.161 397.159C236.899 397.307 237.637 397.504 238.326 397.651C239.015 397.799 239.753 397.947 240.441 398.094C241.819 398.389 243.098 398.586 244.279 398.783C245.459 398.98 246.591 399.127 247.575 399.275C248.559 399.373 249.395 399.521 250.084 399.57C250.773 399.668 251.363 399.718 251.707 399.718C252.101 399.767 252.298 399.767 252.298 399.767L252.002 402.719C252.002 402.719 251.806 402.719 251.412 402.669C251.019 402.62 250.477 402.571 249.739 402.473C249.001 402.374 248.165 402.276 247.132 402.178C246.148 402.03 245.017 401.882 243.787 401.686C242.557 401.489 241.228 401.243 239.802 400.997C239.113 400.849 238.375 400.751 237.637 400.554C236.899 400.406 236.161 400.21 235.423 400.062C232.422 399.324 229.175 398.488 226.027 397.455C219.73 395.438 213.58 392.83 209.152 390.567C208.021 390.026 207.037 389.485 206.151 388.993C205.266 388.501 204.479 388.107 203.839 387.763C203.2 387.419 202.708 387.123 202.363 386.927C202.019 386.73 201.822 386.631 201.822 386.631L203.396 384.073Z" fill="#F0F4F7"/>
<path d="M174.568 338.811C174.568 338.811 174.666 338.959 174.863 339.254C174.961 339.401 175.06 339.549 175.207 339.795C175.355 339.992 175.503 340.238 175.65 340.484C176.339 341.517 177.372 342.993 178.7 344.715C181.308 348.158 184.997 352.586 189.081 356.62C191.147 358.637 193.262 360.605 195.329 362.327C197.395 364.049 199.363 365.623 201.134 366.853C201.97 367.493 202.807 368.034 203.544 368.575C204.282 369.067 204.922 369.51 205.414 369.854C205.906 370.198 206.349 370.494 206.644 370.641C206.939 370.838 207.087 370.887 207.087 370.887L198.379 384.76C198.379 384.76 198.231 384.662 197.887 384.416C197.542 384.219 197.051 383.924 196.46 383.531C195.87 383.137 195.132 382.645 194.296 382.055C193.459 381.464 192.524 380.825 191.541 380.087C189.523 378.611 187.211 376.84 184.85 374.823C182.439 372.806 180.029 370.592 177.667 368.23C172.944 363.557 168.664 358.49 165.663 354.505C164.187 352.537 163.007 350.815 162.17 349.634C161.974 349.339 161.777 349.044 161.629 348.847C161.482 348.601 161.334 348.404 161.236 348.257C161.039 347.962 160.94 347.765 160.94 347.765L174.568 338.811Z" fill="#F0F4F7"/>
<path d="M163.547 345.994C163.547 345.994 163.645 346.141 163.842 346.486C163.94 346.633 164.088 346.83 164.235 347.076C164.383 347.322 164.58 347.568 164.777 347.863C165.564 349.044 166.744 350.716 168.171 352.635C171.074 356.522 175.206 361.491 179.88 366.017C182.192 368.28 184.554 370.493 186.915 372.412C189.227 374.331 191.49 376.102 193.458 377.529C194.442 378.217 195.328 378.857 196.164 379.447C197 379.988 197.689 380.48 198.279 380.874C198.87 381.267 199.312 381.563 199.657 381.759C199.952 381.956 200.149 382.055 200.149 382.055L198.575 384.564C198.575 384.564 198.378 384.465 198.083 384.219C197.738 384.022 197.246 383.727 196.656 383.334C196.065 382.94 195.328 382.448 194.491 381.907C193.655 381.317 192.72 380.677 191.736 379.939C189.719 378.463 187.456 376.692 185.046 374.724C182.684 372.707 180.224 370.493 177.863 368.181C173.14 363.557 168.86 358.44 165.908 354.455C164.432 352.488 163.252 350.766 162.415 349.585C162.218 349.29 162.022 349.044 161.874 348.798C161.726 348.552 161.579 348.355 161.48 348.207C161.284 347.863 161.136 347.716 161.136 347.716L163.547 345.994Z" fill="#F0F4F7"/>
<path d="M154.594 228.169C154.594 228.169 154.249 228.907 153.659 230.186C153.069 231.465 152.232 233.285 151.347 235.499C149.526 239.927 147.46 246.027 145.935 252.226C145.197 255.325 144.508 258.474 144.066 261.426C143.574 264.377 143.229 267.182 143.033 269.543C142.983 270.133 142.934 270.724 142.885 271.265C142.836 271.806 142.787 272.347 142.787 272.79C142.737 273.282 142.737 273.725 142.688 274.168C142.688 274.61 142.639 274.955 142.639 275.348C142.59 276.037 142.59 276.578 142.59 276.972C142.59 277.365 142.59 277.562 142.59 277.562L137.473 277.414C137.473 277.414 137.473 277.218 137.473 276.824C137.473 276.431 137.523 275.84 137.523 275.151C137.523 274.758 137.572 274.364 137.572 273.922C137.621 273.479 137.621 272.987 137.67 272.495C137.719 272.003 137.719 271.462 137.769 270.871C137.818 270.281 137.867 269.691 137.916 269.1C138.162 266.591 138.507 263.689 138.999 260.639C139.49 257.539 140.179 254.292 140.966 251.045C142.541 244.551 144.705 238.205 146.624 233.581C147.559 231.268 148.444 229.35 149.035 228.021C149.674 226.693 150.018 225.955 150.018 225.955L154.594 228.169Z" fill="#F0F4F7"/>
<path d="M142.54 277.562C142.54 277.562 142.54 278.595 142.491 280.169C142.491 281.744 142.491 283.81 142.589 285.925C142.687 287.992 142.835 290.107 142.933 291.632C142.983 292.026 142.983 292.37 143.032 292.665C143.081 293.01 143.081 293.256 143.13 293.502C143.179 293.944 143.179 294.19 143.179 294.19L138.063 294.731C138.063 294.731 138.063 294.485 138.014 293.993C138.014 293.747 137.965 293.452 137.915 293.157C137.866 292.813 137.866 292.468 137.817 292.026C137.669 290.402 137.522 288.238 137.423 286.073C137.325 283.908 137.325 281.744 137.325 280.12C137.325 278.497 137.374 277.414 137.374 277.414L142.54 277.562Z" fill="#F0F4F7"/>
<path d="M196.656 180.154C196.656 180.154 195.819 180.744 194.343 181.728C193.605 182.22 192.769 182.86 191.736 183.597C190.752 184.335 189.621 185.172 188.44 186.107C186.078 187.976 183.373 190.288 180.618 192.846C177.863 195.454 175.058 198.356 172.402 201.357C169.745 204.408 167.236 207.556 165.022 210.655C162.809 213.706 160.89 216.707 159.365 219.314C158.971 219.954 158.627 220.593 158.282 221.184C157.938 221.774 157.594 222.364 157.299 222.905C156.708 223.988 156.216 224.922 155.823 225.71C155.429 226.497 155.134 227.136 154.888 227.53C154.79 227.727 154.691 227.923 154.642 228.022C154.593 228.12 154.544 228.169 154.544 228.169L149.919 225.906C149.919 225.906 149.968 225.857 150.017 225.71C150.067 225.611 150.165 225.414 150.263 225.218C150.509 224.775 150.805 224.135 151.247 223.299C151.641 222.463 152.182 221.479 152.822 220.347C153.117 219.757 153.461 219.216 153.806 218.576C154.15 217.937 154.544 217.297 154.937 216.608C156.561 213.902 158.528 210.803 160.841 207.605C163.153 204.408 165.76 201.062 168.515 197.914C171.27 194.765 174.222 191.715 177.075 189.009C179.929 186.303 182.782 183.942 185.242 181.974C186.472 180.99 187.653 180.154 188.637 179.367C189.67 178.629 190.555 177.94 191.342 177.448C192.868 176.415 193.704 175.824 193.704 175.824L196.656 180.154Z" fill="#F0F4F7"/>
<path d="M223.714 166.674C223.714 166.674 223.616 166.723 223.37 166.772C223.173 166.821 222.878 166.969 222.484 167.067C222.091 167.215 221.648 167.411 221.057 167.608C220.516 167.805 219.926 168.002 219.237 168.297C216.581 169.33 213.088 170.855 209.693 172.528C206.298 174.201 203.002 176.07 200.543 177.546C199.952 177.94 199.362 178.284 198.919 178.579C198.427 178.874 198.033 179.169 197.689 179.366C197 179.809 196.607 180.055 196.607 180.055L193.753 175.775C193.753 175.775 194.147 175.529 194.885 175.037C195.278 174.791 195.672 174.545 196.213 174.201C196.705 173.905 197.296 173.512 197.935 173.167C200.444 171.642 203.888 169.675 207.43 167.903C210.972 166.132 214.613 164.558 217.368 163.476C218.056 163.181 218.696 162.984 219.286 162.738C219.828 162.541 220.319 162.344 220.713 162.197C221.107 162.049 221.451 161.951 221.648 161.852C221.894 161.754 221.992 161.754 221.992 161.754L223.714 166.674Z" fill="#F0F4F7"/>
<path d="M173.582 212.622C173.582 212.622 173.533 212.671 173.435 212.818C173.336 212.966 173.189 213.163 173.041 213.409C172.844 213.655 172.647 213.95 172.402 214.294C172.156 214.639 171.86 215.032 171.565 215.475C170.335 217.197 168.761 219.509 167.285 221.871C165.809 224.281 164.432 226.692 163.497 228.561C163.005 229.496 162.611 230.283 162.365 230.824C162.07 231.366 161.923 231.71 161.923 231.71L157.298 229.447C157.298 229.447 157.446 229.102 157.741 228.561C158.036 227.971 158.43 227.184 158.971 226.2C160.004 224.232 161.431 221.674 162.956 219.214C164.481 216.705 166.104 214.294 167.383 212.523C167.679 212.081 168.023 211.687 168.269 211.293C168.515 210.949 168.761 210.605 168.958 210.359C169.155 210.113 169.302 209.916 169.401 209.768C169.499 209.621 169.548 209.572 169.548 209.572L173.582 212.622Z" fill="#F0F4F7"/>
<path d="M161.874 231.71C161.874 231.71 161.776 231.956 161.579 232.35C161.382 232.793 161.087 233.383 160.743 234.17C160.054 235.745 159.021 238.008 157.988 240.812C156.954 243.567 155.823 246.863 154.79 250.454C153.806 254.046 152.92 257.883 152.232 261.819C151.543 265.705 151.1 269.641 150.854 273.38C150.608 277.069 150.559 280.562 150.608 283.514C150.657 284.99 150.707 286.368 150.756 287.548C150.805 288.139 150.805 288.729 150.854 289.221C150.903 289.762 150.953 290.205 151.002 290.648C151.051 291.533 151.1 292.173 151.199 292.665C151.248 293.157 151.297 293.403 151.297 293.403L146.082 293.895C146.082 293.895 146.082 293.649 145.984 293.157C145.935 292.665 145.885 291.976 145.787 291.041C145.738 290.598 145.689 290.107 145.639 289.565C145.639 289.024 145.59 288.434 145.59 287.794C145.492 286.564 145.443 285.138 145.393 283.563C145.344 280.464 145.393 276.823 145.639 272.937C145.885 269.05 146.377 264.967 147.066 260.884C147.755 256.801 148.69 252.766 149.723 249.028C150.756 245.289 151.936 241.845 153.068 238.942C154.15 236.04 155.233 233.678 155.971 232.006C156.364 231.169 156.659 230.53 156.856 230.087C157.053 229.644 157.2 229.398 157.2 229.398L161.874 231.71Z" fill="#F0F4F7"/>
<path d="M187.604 197.372C187.604 197.372 187.358 197.618 186.965 197.962C186.768 198.159 186.522 198.405 186.227 198.651C185.931 198.946 185.636 199.241 185.292 199.585C183.865 200.914 182.094 202.783 180.323 204.702C179.487 205.686 178.601 206.621 177.814 207.555C177.027 208.49 176.289 209.376 175.699 210.113C175.551 210.31 175.403 210.458 175.256 210.655C175.108 210.851 175.01 210.999 174.862 211.147C174.616 211.442 174.419 211.737 174.223 211.934C173.878 212.377 173.682 212.622 173.682 212.622L169.549 209.523C169.549 209.523 169.746 209.228 170.139 208.785C170.336 208.539 170.533 208.244 170.779 207.949C170.927 207.801 171.025 207.604 171.173 207.457C171.32 207.26 171.468 207.063 171.615 206.867C172.255 206.079 172.993 205.145 173.829 204.21C174.223 203.718 174.665 203.226 175.108 202.734C175.551 202.242 175.994 201.75 176.437 201.209C178.257 199.192 180.175 197.273 181.602 195.847C181.996 195.502 182.291 195.158 182.586 194.863C182.881 194.567 183.127 194.321 183.373 194.125C183.816 193.731 184.062 193.485 184.062 193.485L187.604 197.372Z" fill="#F0F4F7"/>
<path d="M233.849 171.987C233.849 171.987 233.652 172.036 233.258 172.135C232.865 172.233 232.324 172.43 231.635 172.627C231.29 172.725 230.897 172.824 230.503 172.971C230.11 173.119 229.618 173.266 229.126 173.414C228.142 173.709 227.059 174.103 225.879 174.496C223.517 175.333 220.812 176.366 217.958 177.645C215.105 178.924 212.104 180.4 209.201 181.974C206.299 183.598 203.445 185.319 200.838 187.041C198.23 188.763 195.918 190.534 193.901 192.059C193.409 192.453 192.966 192.797 192.474 193.191C192.032 193.535 191.638 193.88 191.245 194.224C190.851 194.568 190.507 194.864 190.162 195.11C189.818 195.405 189.523 195.651 189.277 195.897C188.736 196.389 188.293 196.733 187.998 197.028C187.702 197.274 187.555 197.422 187.555 197.422L184.111 193.634C184.111 193.634 184.259 193.486 184.554 193.191C184.849 192.896 185.292 192.502 185.882 192.01C186.177 191.764 186.472 191.469 186.817 191.174C187.161 190.879 187.555 190.583 187.948 190.239C188.342 189.895 188.785 189.501 189.228 189.157C189.719 188.763 190.211 188.419 190.703 187.976C192.77 186.353 195.229 184.532 197.935 182.761C200.641 180.941 203.642 179.121 206.692 177.448C209.742 175.775 212.842 174.25 215.843 172.922C218.844 171.594 221.648 170.511 224.108 169.626C225.338 169.183 226.469 168.789 227.502 168.494C227.994 168.347 228.486 168.199 228.929 168.052C229.372 167.904 229.765 167.806 230.159 167.707C230.897 167.51 231.487 167.314 231.832 167.215C232.225 167.117 232.422 167.068 232.422 167.068L233.849 171.987Z" fill="#F0F4F7"/>
<path d="M152.878 302.646C152.878 302.646 153.099 303.56 153.485 304.937C153.67 305.602 153.905 306.407 154.156 307.257C154.406 308.108 154.674 309.005 154.941 309.902C155.255 310.782 155.539 311.726 155.836 312.56C156.134 313.394 156.414 314.182 156.646 314.831C156.893 315.526 157.121 316.019 157.27 316.436C157.419 316.853 157.485 317.038 157.485 317.038L152.731 318.941C152.731 318.941 152.649 318.71 152.5 318.293C152.351 317.876 152.107 317.336 151.859 316.641C151.611 315.946 151.314 315.112 151 314.231C150.687 313.351 150.403 312.407 150.072 311.48C149.788 310.537 149.504 309.594 149.237 308.697C148.969 307.8 148.781 306.979 148.58 306.267C148.224 304.827 147.986 303.868 147.986 303.868L152.878 302.646Z" fill="#F0F4F7"/>
<path d="M158.628 285.286C158.628 285.286 158.628 285.384 158.628 285.581C158.628 285.778 158.628 286.073 158.677 286.417C158.726 287.106 158.776 287.991 158.825 288.877C158.923 289.763 158.972 290.697 159.022 291.337C159.12 292.026 159.169 292.468 159.169 292.468L154.053 293.009C154.053 293.009 154.004 292.567 153.905 291.829C153.856 291.14 153.758 290.156 153.708 289.221C153.659 288.287 153.61 287.303 153.561 286.614C153.561 286.27 153.512 285.974 153.512 285.778C153.512 285.581 153.512 285.433 153.512 285.433L158.628 285.286Z" fill="#F0F4F7"/>
<path d="M205.56 193.534C205.56 193.534 205.462 193.583 205.363 193.682C205.216 193.78 205.019 193.928 204.724 194.125C204.429 194.321 204.084 194.567 203.691 194.813C203.297 195.109 202.854 195.453 202.313 195.797C200.247 197.273 197.394 199.487 194.097 202.34C193.901 202.537 193.704 202.685 193.458 202.882C193.261 203.078 193.064 203.275 192.818 203.472C192.425 203.865 191.982 204.259 191.539 204.653C190.703 205.489 189.817 206.276 188.981 207.162C188.095 208.047 187.21 208.982 186.324 209.917C185.439 210.901 184.553 211.884 183.668 212.918C181.897 214.984 180.175 217.148 178.502 219.461C176.829 221.773 175.255 224.184 173.73 226.643C170.729 231.563 168.171 236.778 166.105 241.796C165.121 244.305 164.235 246.765 163.448 249.126C163.104 250.307 162.71 251.488 162.415 252.57C162.267 253.111 162.12 253.701 161.972 254.243C161.825 254.784 161.726 255.325 161.579 255.866C160.545 260.048 159.955 263.639 159.611 266.148C159.562 266.443 159.512 266.788 159.463 267.034C159.414 267.329 159.414 267.575 159.365 267.821C159.316 268.313 159.266 268.706 159.217 269.051C159.119 269.739 159.119 270.084 159.119 270.084L154.002 269.543C154.002 269.543 154.052 269.149 154.101 268.46C154.15 268.116 154.199 267.673 154.248 267.181C154.298 266.935 154.297 266.64 154.347 266.345C154.396 266.05 154.445 265.755 154.494 265.41C154.839 262.803 155.478 259.015 156.561 254.636C156.708 254.095 156.856 253.505 157.003 252.963C157.151 252.373 157.298 251.832 157.495 251.242C157.79 250.061 158.184 248.88 158.578 247.601C159.365 245.141 160.299 242.534 161.382 239.877C163.546 234.613 166.203 229.152 169.352 223.987C170.926 221.379 172.599 218.87 174.37 216.46C176.091 214.049 177.961 211.737 179.781 209.572C180.716 208.49 181.651 207.457 182.536 206.424C183.471 205.44 184.406 204.456 185.291 203.521C186.226 202.586 187.111 201.701 187.997 200.864C188.44 200.471 188.883 200.028 189.325 199.635C189.522 199.438 189.768 199.241 189.965 199.044C190.162 198.847 190.408 198.651 190.604 198.454C193.999 195.453 197.049 193.141 199.214 191.616C199.755 191.222 200.247 190.878 200.64 190.582C201.083 190.287 201.428 190.041 201.723 189.845C202.018 189.648 202.264 189.5 202.412 189.402C202.559 189.303 202.658 189.254 202.658 189.254L205.56 193.534Z" fill="#F0F4F7"/>
<path d="M226.174 182.909C226.174 182.909 225.83 183.056 225.239 183.253C224.944 183.351 224.6 183.499 224.157 183.696C223.763 183.843 223.271 184.04 222.78 184.286C220.762 185.122 218.106 186.352 215.548 187.681C214.269 188.32 212.989 189.058 211.809 189.698C211.218 190.042 210.628 190.386 210.087 190.682C209.546 190.977 209.054 191.321 208.562 191.616C207.627 192.158 206.889 192.699 206.348 193.043C205.807 193.387 205.512 193.584 205.512 193.584L202.658 189.304C202.658 189.304 203.003 189.107 203.544 188.714C204.085 188.369 204.872 187.828 205.905 187.238C206.397 186.943 206.889 186.598 207.479 186.303C208.021 185.959 208.66 185.614 209.251 185.27C210.48 184.581 211.858 183.843 213.186 183.155C215.892 181.777 218.647 180.498 220.762 179.612C221.304 179.367 221.746 179.17 222.189 179.022C222.632 178.825 222.976 178.678 223.321 178.579C223.96 178.333 224.305 178.186 224.305 178.186L226.174 182.909Z" fill="#F0F4F7"/>
<path d="M266.859 176.119C266.859 176.119 266.219 176.119 265.088 176.07C264.793 176.07 264.497 176.07 264.153 176.07C263.809 176.07 263.464 176.07 263.022 176.07C262.234 176.07 261.349 176.07 260.365 176.119C259.873 176.119 259.381 176.169 258.84 176.169C258.299 176.218 257.758 176.218 257.216 176.267C256.085 176.316 254.953 176.415 253.724 176.513C251.313 176.759 248.705 177.054 246.147 177.497C241.031 178.333 236.013 179.612 232.274 180.793C230.404 181.383 228.879 181.925 227.846 182.318C226.764 182.712 226.174 182.958 226.174 182.958L224.353 178.137C224.353 178.137 224.993 177.891 226.124 177.497C227.256 177.103 228.83 176.513 230.798 175.923C234.684 174.693 239.998 173.364 245.36 172.479C248.017 172.036 250.723 171.692 253.281 171.446C254.56 171.347 255.79 171.249 256.97 171.151C257.561 171.101 258.151 171.101 258.692 171.052C259.233 171.052 259.775 171.003 260.267 171.003C261.3 170.954 262.234 170.954 263.071 170.954C263.464 170.954 263.858 170.954 264.202 170.954C264.596 170.954 264.891 170.954 265.186 170.954C266.367 170.954 267.056 171.003 267.056 171.003L266.859 176.119Z" fill="#F0F4F7"/>
<path d="M158.676 377.234C158.529 377.037 158.332 376.889 158.184 376.693L167.925 367.64V367.69C168.073 367.886 168.221 368.034 168.368 368.132L158.676 377.234Z" fill="#F0F4F7"/>
<path d="M162.415 381.07L171.763 371.625C171.91 371.772 172.058 371.92 172.205 372.068L162.907 381.562C162.71 381.415 162.563 381.218 162.415 381.07Z" fill="#F0F4F7"/>
<path d="M154.642 372.757C154.494 372.56 154.347 372.413 154.199 372.216L164.284 363.606C164.432 363.754 164.53 363.902 164.678 364.098L154.642 372.757Z" fill="#F0F4F7"/>
<path d="M166.745 385.203L175.698 375.364C175.895 375.561 176.043 375.659 176.19 375.807L167.286 385.646C167.089 385.547 166.892 385.351 166.745 385.203Z" fill="#F0F4F7"/>
<path d="M150.805 368.083C150.657 367.886 150.51 367.689 150.362 367.542L160.841 359.375C160.939 359.523 161.087 359.719 161.235 359.867L150.805 368.083Z" fill="#F0F4F7"/>
<path d="M171.319 389.188L179.83 379.004C179.978 379.151 180.175 379.299 180.322 379.397L171.86 389.63C171.664 389.483 171.467 389.335 171.319 389.188Z" fill="#F0F4F7"/>
<path d="M147.164 363.262C147.016 363.065 146.869 362.868 146.721 362.671L157.544 354.948C157.643 355.095 157.741 355.243 157.938 355.439L147.164 363.262Z" fill="#F0F4F7"/>
<path d="M175.994 392.977L184.063 382.449C184.21 382.547 184.358 382.695 184.505 382.793L184.555 382.842L176.536 393.419C176.388 393.321 176.29 393.223 176.142 393.124L175.994 392.977Z" fill="#F0F4F7"/>
<path d="M143.721 358.294C143.573 358.097 143.475 357.9 143.327 357.703L154.446 350.422C154.544 350.619 154.692 350.767 154.79 350.964L143.721 358.294Z" fill="#F0F4F7"/>
<path d="M180.914 396.518L188.54 385.646C188.687 385.744 188.835 385.892 189.031 385.99L189.081 386.039L181.504 396.961C181.308 396.863 181.16 396.715 180.963 396.617L180.914 396.518Z" fill="#F0F4F7"/>
<path d="M140.522 353.176C140.424 352.98 140.276 352.783 140.178 352.586L151.591 345.846C151.69 345.994 151.788 346.191 151.936 346.387L140.522 353.176Z" fill="#F0F4F7"/>
<path d="M185.931 399.913L193.114 388.696C193.311 388.795 193.458 388.942 193.655 389.041L186.571 400.257C186.325 400.159 186.128 400.061 185.931 399.913Z" fill="#F0F4F7"/>
<path d="M191.097 403.061L197.738 391.549C197.935 391.647 198.083 391.746 198.28 391.844L191.687 403.356C191.491 403.258 191.294 403.159 191.097 403.061Z" fill="#F0F4F7"/>
<path d="M134.766 342.55C134.668 342.353 134.57 342.107 134.471 341.91L146.475 336.105L146.426 336.154C146.524 336.351 146.623 336.548 146.672 336.745L134.766 342.55Z" fill="#F0F4F7"/>
<path d="M196.361 405.964L202.51 394.206C202.707 394.305 202.904 394.403 203.052 394.501L196.951 406.309C196.804 406.161 196.558 406.063 196.361 405.964Z" fill="#F0F4F7"/>
<path d="M132.209 337.04C132.11 336.794 132.012 336.597 131.914 336.4L144.114 331.136C144.213 331.333 144.262 331.53 144.36 331.727L132.209 337.04Z" fill="#F0F4F7"/>
<path d="M201.772 408.67L207.43 396.617C207.626 396.715 207.774 396.764 208.02 396.863L202.412 408.916C202.215 408.867 201.969 408.768 201.772 408.67Z" fill="#F0F4F7"/>
<path d="M129.896 331.481C129.798 331.235 129.749 331.038 129.65 330.792L142.097 326.069C142.195 326.266 142.245 326.463 142.343 326.66L129.896 331.481Z" fill="#F0F4F7"/>
<path d="M207.282 411.08L212.399 398.831C212.595 398.929 212.792 398.978 212.989 399.077L207.922 411.326C207.725 411.277 207.528 411.179 207.282 411.08Z" fill="#F0F4F7"/>
<path d="M127.88 325.775C127.782 325.529 127.732 325.332 127.634 325.086L140.228 320.905C140.278 321.101 140.376 321.298 140.425 321.495L127.88 325.775Z" fill="#F0F4F7"/>
<path d="M212.892 413.295L217.516 400.848C217.713 400.947 217.91 400.996 218.106 401.045L213.58 413.541C213.334 413.492 213.138 413.393 212.892 413.295Z" fill="#F0F4F7"/>
<path d="M126.059 319.969C126.01 319.773 125.912 319.527 125.863 319.281L138.654 315.64C138.703 315.837 138.801 316.034 138.851 316.23L126.059 319.969Z" fill="#F0F4F7"/>
<path d="M218.599 415.263L222.682 402.619C222.879 402.668 223.076 402.767 223.272 402.816L219.238 415.459C219.091 415.41 218.992 415.361 218.845 415.312L218.599 415.263Z" fill="#F0F4F7"/>
<path d="M124.485 314.115C124.436 313.869 124.337 313.672 124.288 313.426L137.227 310.327C137.276 310.523 137.325 310.72 137.374 310.917L124.485 314.115Z" fill="#F0F4F7"/>
<path d="M224.353 417.034L227.895 404.194H227.945C228.141 404.243 228.338 404.292 228.535 404.341L225.091 417.181C224.845 417.132 224.599 417.083 224.353 417.034Z" fill="#F0F4F7"/>
<path d="M123.206 308.211V308.113C123.157 307.916 123.108 307.719 123.108 307.473L136.145 304.964C136.194 305.161 136.243 305.358 136.292 305.604L123.206 308.211Z" fill="#F0F4F7"/>
<path d="M230.208 418.461L233.209 405.522C233.406 405.571 233.603 405.621 233.8 405.67H233.849V405.719L230.946 418.658C230.799 418.608 230.651 418.608 230.503 418.559L230.208 418.461Z" fill="#F0F4F7"/>
<path d="M122.123 302.259C122.074 301.963 122.074 301.767 122.025 301.57L135.16 299.602C135.209 299.799 135.209 299.996 135.259 300.242H135.308L135.259 300.291L135.209 300.34L122.123 302.259Z" fill="#F0F4F7"/>
<path d="M236.112 419.69L238.522 406.604C238.719 406.653 238.916 406.653 239.162 406.702L236.8 419.838C236.604 419.789 236.358 419.739 236.112 419.69Z" fill="#F0F4F7"/>
<path d="M121.337 296.256C121.288 296.01 121.288 295.764 121.239 295.567L134.423 294.141C134.423 294.288 134.472 294.436 134.472 294.583V294.78L121.337 296.256Z" fill="#F0F4F7"/>
<path d="M242.065 420.674L243.935 407.49C244.132 407.49 244.378 407.539 244.574 407.539L242.754 420.674C242.557 420.724 242.311 420.724 242.065 420.674Z" fill="#F0F4F7"/>
<path d="M120.795 290.254C120.795 290.008 120.746 289.812 120.746 289.566L134.029 288.729C134.029 288.926 134.029 289.123 134.078 289.369L120.795 290.254Z" fill="#F0F4F7"/>
<path d="M248.066 421.413L249.394 408.179C249.591 408.179 249.837 408.228 250.034 408.228L248.804 421.462C248.509 421.462 248.312 421.413 248.066 421.413Z" fill="#F0F4F7"/>
<path d="M120.5 284.252C120.5 284.006 120.5 283.76 120.5 283.514L133.783 283.219C133.783 283.416 133.783 283.612 133.783 283.858L120.5 284.252Z" fill="#F0F4F7"/>
<path d="M254.068 421.855L254.806 408.572H254.855C255.052 408.572 255.249 408.572 255.446 408.572L255.495 408.621L254.806 421.855C254.609 421.904 254.364 421.904 254.068 421.855Z" fill="#F0F4F7"/>
<path d="M120.5 278.202C120.5 277.956 120.5 277.71 120.5 277.513L133.783 277.808C133.783 278.005 133.783 278.202 133.783 278.448L120.5 278.202Z" fill="#F0F4F7"/>
<path d="M260.119 422.1L260.316 408.817C260.513 408.817 260.759 408.817 260.955 408.817L260.808 422.1C260.611 422.1 260.365 422.1 260.119 422.1Z" fill="#F0F4F7"/>
<path d="M120.697 272.15C120.697 271.904 120.746 271.658 120.746 271.412L133.98 272.248C133.98 272.445 133.98 272.642 133.93 272.888L120.697 272.15Z" fill="#F0F4F7"/>
<path d="M121.189 266.149C121.189 265.903 121.238 265.657 121.287 265.46L134.472 266.887V266.936C134.472 267.133 134.423 267.33 134.423 267.526L121.189 266.149Z" fill="#F0F4F7"/>
<path d="M121.927 260.147C121.976 259.901 121.976 259.655 122.025 259.458L135.161 261.426C135.161 261.623 135.112 261.819 135.062 262.065H135.013V262.016L121.927 260.147Z" fill="#F0F4F7"/>
<path d="M122.911 254.193C122.96 253.947 123.009 253.75 123.009 253.504L136.046 256.013C135.997 256.21 135.948 256.407 135.899 256.653L122.911 254.193Z" fill="#F0F4F7"/>
<path d="M124.141 248.29C124.191 248.044 124.24 247.847 124.289 247.601L137.228 250.651C137.179 250.848 137.129 251.045 137.08 251.242L137.031 251.291V251.242L124.141 248.29Z" fill="#F0F4F7"/>
<path d="M125.616 242.436C125.715 242.14 125.764 241.944 125.813 241.747L138.604 245.387C138.555 245.584 138.506 245.781 138.456 245.978L125.616 242.436Z" fill="#F0F4F7"/>
<path d="M127.388 236.68C127.486 236.434 127.536 236.237 127.634 235.991L140.277 240.173C140.179 240.37 140.13 240.566 140.081 240.763L127.388 236.68Z" fill="#F0F4F7"/>
<path d="M129.355 230.973C129.454 230.727 129.552 230.53 129.601 230.333H129.552H129.601L141.999 235.007C141.949 235.204 141.851 235.4 141.802 235.597L129.355 230.973Z" fill="#F0F4F7"/>
<path d="M131.568 225.364C131.667 225.118 131.765 224.921 131.814 224.725L144.015 229.939L144.064 229.989H144.015C143.917 230.185 143.867 230.382 143.769 230.53L131.568 225.364Z" fill="#F0F4F7"/>
<path d="M134.028 219.853C134.126 219.657 134.225 219.411 134.323 219.214L146.278 224.97C146.18 225.167 146.081 225.363 146.032 225.56L134.028 219.853Z" fill="#F0F4F7"/>
<path d="M136.734 214.443C136.833 214.246 136.931 214 137.03 213.803L148.738 220.051C148.64 220.248 148.542 220.445 148.443 220.593L136.734 214.443Z" fill="#F0F4F7"/>
<path d="M139.638 209.179C139.785 208.982 139.884 208.785 139.982 208.589L151.445 215.329C151.346 215.525 151.248 215.673 151.1 215.87L139.638 209.179Z" fill="#F0F4F7"/>
<path d="M142.835 204.013C142.982 203.816 143.081 203.62 143.228 203.423L154.347 210.655C154.248 210.851 154.101 210.999 154.002 211.196L142.835 204.013Z" fill="#F0F4F7"/>
<path d="M146.181 198.995C146.329 198.798 146.476 198.601 146.575 198.404L157.398 206.079C157.3 206.276 157.152 206.423 157.054 206.571L146.181 198.995Z" fill="#F0F4F7"/>
<path d="M149.773 194.124C149.92 193.927 150.019 193.78 150.215 193.583L160.694 201.749C160.547 201.946 160.399 202.094 160.301 202.241L149.773 194.124Z" fill="#F0F4F7"/>
<path d="M153.56 189.451L153.609 189.402C153.757 189.254 153.905 189.058 154.052 188.91L164.187 197.519C164.088 197.667 163.941 197.814 163.793 197.962L163.744 198.011L153.56 189.451Z" fill="#F0F4F7"/>
<path d="M157.545 184.877C157.693 184.68 157.841 184.532 157.988 184.385H158.037L167.778 193.388C167.631 193.535 167.483 193.683 167.335 193.83L157.545 184.877Z" fill="#F0F4F7"/>
<path d="M161.727 180.546C161.924 180.399 162.071 180.202 162.219 180.054L171.566 189.451C171.418 189.598 171.271 189.746 171.123 189.893L161.727 180.546Z" fill="#F0F4F7"/>
<path d="M175.059 186.107L166.056 176.316C166.204 176.169 166.401 176.021 166.548 175.824L175.502 185.615C175.354 185.762 175.207 185.861 175.059 186.008V186.107Z" fill="#F0F4F7"/>
<path d="M179.192 182.466L170.583 172.331C170.779 172.184 170.927 172.036 171.124 171.888L179.684 182.072C179.487 182.22 179.339 182.318 179.192 182.466Z" fill="#F0F4F7"/>
<path d="M183.373 179.022L175.255 168.543C175.452 168.396 175.649 168.248 175.797 168.1L183.914 178.628C183.717 178.727 183.57 178.874 183.422 179.022H183.373Z" fill="#F0F4F7"/>
<path d="M187.801 175.775L180.126 164.952C180.323 164.804 180.52 164.656 180.716 164.558L188.342 175.43C188.194 175.48 187.997 175.627 187.801 175.775Z" fill="#F0F4F7"/>
<path d="M192.327 172.676L185.095 161.508C185.292 161.36 185.488 161.262 185.685 161.115L192.868 172.282C192.72 172.43 192.523 172.528 192.327 172.676Z" fill="#F0F4F7"/>
<path d="M197.001 169.772L190.261 158.309C190.458 158.211 190.654 158.063 190.851 157.965L197.542 169.428C197.345 169.575 197.198 169.674 197.001 169.772Z" fill="#F0F4F7"/>
<path d="M201.772 167.116L195.524 155.408C195.721 155.309 195.918 155.211 196.115 155.063L202.313 166.821C202.166 166.92 201.969 167.018 201.772 167.116Z" fill="#F0F4F7"/>
<path d="M206.642 164.657L200.886 152.653C201.083 152.554 201.329 152.456 201.526 152.358L207.233 164.362C207.036 164.46 206.888 164.558 206.642 164.657Z" fill="#F0F4F7"/>
<path d="M211.661 162.393L206.446 150.144C206.692 150.045 206.889 149.947 207.086 149.848L212.251 162.098C212.055 162.197 211.858 162.295 211.661 162.393Z" fill="#F0F4F7"/>
<path d="M216.728 160.327L212.054 147.88C212.3 147.782 212.497 147.733 212.694 147.634L217.318 160.081C217.121 160.179 216.925 160.229 216.728 160.327Z" fill="#F0F4F7"/>
<path d="M221.893 158.507L217.761 145.863C217.958 145.814 218.154 145.715 218.4 145.666H218.449L222.533 158.31C222.336 158.359 222.139 158.457 221.893 158.507Z" fill="#F0F4F7"/>
<path d="M227.158 156.883L223.567 144.092C223.813 144.043 224.009 143.994 224.255 143.895L227.798 156.686C227.552 156.785 227.355 156.834 227.158 156.883Z" fill="#F0F4F7"/>
<path d="M232.471 155.506L229.421 142.567C229.618 142.518 229.814 142.469 230.011 142.419H230.11L233.111 155.358C232.914 155.407 232.668 155.456 232.471 155.506Z" fill="#F0F4F7"/>
<path d="M237.833 154.375L235.324 141.338C235.57 141.289 235.767 141.239 236.013 141.19L238.473 154.276C238.227 154.276 238.03 154.326 237.833 154.375Z" fill="#F0F4F7"/>
<path d="M243.245 153.44L241.326 140.304C241.572 140.255 241.769 140.255 242.015 140.206L243.885 153.391C243.737 153.391 243.589 153.44 243.393 153.44H243.245Z" fill="#F0F4F7"/>
<path d="M248.656 152.75L247.279 139.516C247.525 139.516 247.722 139.467 247.968 139.467L249.296 152.701H249.247C249.05 152.75 248.853 152.75 248.656 152.75Z" fill="#F0F4F7"/>
<path d="M254.119 152.309L253.282 139.026C253.577 139.026 253.774 138.976 253.971 138.976L254.709 152.21C254.561 152.309 254.365 152.309 254.119 152.309Z" fill="#F0F4F7"/>
<path d="M259.579 152.111L259.333 138.828C259.579 138.828 259.776 138.828 260.022 138.828L260.219 152.111C260.022 152.111 259.825 152.111 259.579 152.111Z" fill="#F0F4F7"/>
<rect x="5" y="114.764" width="88" height="88" rx="44" stroke="#F0F4F7" stroke-width="8"/>
<path d="M163.484 190.665L165.545 195.807L169.456 191.56L164.161 189.929L163.484 190.665ZM80.4495 160.504C81.4544 159.428 81.3962 157.74 80.3195 156.735C79.2429 155.73 77.5554 155.789 76.5506 156.865C75.5457 157.942 75.6038 159.629 76.6805 160.634C77.7572 161.639 79.4446 161.581 80.4495 160.504ZM136.001 164.683L136.339 164.315L136.217 164.203L136.052 164.186L136.001 164.683ZM164.529 190.268L136.339 164.315L135.662 165.051L163.851 191.003L164.529 190.268ZM136.052 164.186L78.5519 158.187L78.4482 159.182L135.949 165.181L136.052 164.186Z" fill="#F0F4F7"/>
<path d="M129.561 295.607L134.745 297.561L134.255 291.808L129.476 294.61L129.561 295.607ZM116.949 508.084C117.954 507.007 117.896 505.32 116.82 504.315C115.743 503.31 114.055 503.368 113.051 504.445C112.046 505.521 112.104 507.209 113.18 508.214C114.257 509.219 115.945 509.16 116.949 508.084ZM111 296.684L110.958 296.186L110.639 296.213L110.53 296.514L111 296.684ZM60.5 435.764L60.0301 435.594L59.9361 435.852L60.1044 436.07L60.5 435.764ZM129.974 294.568L110.958 296.186L111.042 297.183L130.059 295.564L129.974 294.568ZM110.53 296.514L60.0301 435.594L60.97 435.935L111.47 296.855L110.53 296.514ZM60.1044 436.07L114.604 506.57L115.396 505.958L60.8956 435.458L60.1044 436.07Z" fill="#F0F4F7"/>
<rect x="71" y="491.764" width="88" height="88" rx="44" stroke="#F0F4F7" stroke-width="8"/>
<circle cx="263" cy="281.764" r="85" fill="#FBFCFD"/>
<path d="M256.135 264.585C256.135 264.061 256.56 263.636 257.084 263.636C257.608 263.636 258.033 264.061 258.033 264.585C258.033 265.82 257.532 266.939 256.723 267.749C255.913 268.558 254.795 269.059 253.56 269.059C252.325 269.059 251.206 268.558 250.396 267.749C249.587 266.939 249.086 265.821 249.086 264.585C249.086 263.89 249.247 263.228 249.535 262.636C249.833 262.021 250.267 261.486 250.795 261.07C251.206 260.746 251.802 260.818 252.126 261.229C252.449 261.64 252.378 262.236 251.966 262.56C251.66 262.801 251.41 263.109 251.24 263.459C251.076 263.796 250.984 264.178 250.984 264.585C250.984 265.297 251.272 265.941 251.738 266.407C252.204 266.873 252.848 267.161 253.56 267.161C254.271 267.161 254.915 266.873 255.381 266.407C255.847 265.941 256.135 265.297 256.135 264.585Z" fill="#F0F4F7"/>
<path d="M261.58 269.087C261.59 269.609 261.176 270.041 260.654 270.051C260.132 270.061 259.7 269.647 259.69 269.125C259.611 265.181 256.335 264.23 252.934 263.242C248.864 262.059 244.643 260.833 243.977 255.306C243.97 255.247 243.969 255.189 243.973 255.131L243.824 242.053C243.82 241.531 244.239 241.105 244.761 241.101C245.284 241.097 245.71 241.517 245.714 242.039L245.863 255.104C246.388 259.37 249.988 260.417 253.46 261.425C257.542 262.611 261.474 263.753 261.58 269.087Z" fill="#F0F4F7"/>
<path d="M241.072 282.252C241.248 281.761 241.789 281.505 242.28 281.681C242.771 281.857 243.027 282.399 242.851 282.89L240.682 288.925C240.506 289.416 239.965 289.672 239.473 289.496C238.982 289.319 238.726 288.778 238.902 288.287L241.072 282.252Z" fill="#F0F4F7"/>
<path d="M262.051 268.835C262.051 268.31 262.476 267.885 263 267.885C263.524 267.885 263.949 268.31 263.949 268.835V274.329C263.949 274.853 263.524 275.278 263 275.278C262.476 275.278 262.051 274.853 262.051 274.329V268.835Z" fill="#F0F4F7"/>
<path d="M228.407 284.581C228.927 284.638 229.302 285.106 229.245 285.626C229.187 286.146 228.719 286.521 228.199 286.464C222.263 285.81 217.019 284.314 212.738 282.126C208.574 279.998 205.317 277.212 203.207 273.903C201.073 270.555 200.117 266.692 200.584 262.451C200.88 259.767 201.749 256.934 203.256 253.987C203.493 253.522 204.062 253.338 204.527 253.575C204.992 253.813 205.176 254.382 204.938 254.847C203.543 257.576 202.739 260.191 202.467 262.658C202.049 266.454 202.9 269.905 204.801 272.887C206.727 275.908 209.734 278.468 213.598 280.443C217.671 282.524 222.692 283.951 228.407 284.581Z" fill="#F0F4F7"/>
<path d="M254.224 280.463C254.726 280.611 255.013 281.137 254.866 281.639C254.718 282.14 254.192 282.427 253.69 282.28L253.042 282.089C248.971 280.907 244.75 279.681 244.085 274.154C244.078 274.095 244.076 274.036 244.08 273.979L243.931 260.901C243.927 260.379 244.347 259.953 244.869 259.949C245.391 259.945 245.818 260.365 245.822 260.887L245.971 273.952C246.495 278.218 250.096 279.265 253.568 280.273L254.224 280.463Z" fill="#F0F4F7"/>
<path d="M263.769 258.776C263.464 259.2 262.873 259.296 262.449 258.991C262.025 258.686 261.929 258.095 262.234 257.672C263.995 255.228 267.417 254.416 270.924 253.584C275.236 252.562 279.695 251.504 280.233 247.248C280.298 246.73 280.771 246.363 281.289 246.428C281.807 246.494 282.174 246.967 282.108 247.485C281.406 253.048 276.3 254.259 271.361 255.43C268.198 256.181 265.112 256.913 263.769 258.776Z" fill="#F0F4F7"/>
<path d="M263.767 257.672C264.072 258.095 263.976 258.686 263.552 258.991C263.128 259.296 262.537 259.2 262.232 258.776C260.889 256.913 257.803 256.181 254.639 255.43C249.701 254.259 244.595 253.048 243.892 247.485C243.827 246.967 244.194 246.494 244.712 246.428C245.23 246.363 245.703 246.73 245.768 247.248C246.306 251.504 250.765 252.562 255.077 253.584C258.584 254.416 262.006 255.228 263.767 257.672Z" fill="#F0F4F7"/>
<path d="M229.865 265.936C230.219 266.321 230.194 266.92 229.809 267.274C229.424 267.629 228.825 267.604 228.471 267.219C223.917 262.269 220.338 257.064 218.101 251.508C215.851 245.92 214.962 239.989 215.807 233.623C215.832 233.434 215.911 233.265 216.026 233.13C218.114 230.688 220.779 228.892 224.011 227.733C227.195 226.591 230.924 226.073 235.187 226.17C235.71 226.18 236.124 226.611 236.114 227.133C236.104 227.655 235.672 228.07 235.15 228.06C231.115 227.969 227.611 228.45 224.649 229.512C221.828 230.524 219.492 232.068 217.646 234.151C216.91 240.068 217.759 245.591 219.858 250.803C222.003 256.13 225.458 261.146 229.865 265.936ZM209.634 279.741C209.665 279.219 210.113 278.821 210.635 278.851C211.157 278.882 211.555 279.33 211.524 279.852C210.94 289.556 220.203 296.086 229.083 302.346C230.308 303.21 231.526 304.069 232.713 304.931L232.74 307.302C231.212 306.165 229.609 305.034 227.993 303.896C218.69 297.338 208.986 290.497 209.634 279.741Z" fill="#F0F4F7"/>
<path d="M213.899 267.171C214.35 267.438 214.499 268.019 214.233 268.469C213.967 268.919 213.386 269.069 212.935 268.802C207.368 265.501 204.009 259.762 203.026 253.821C202.636 251.469 202.619 249.08 202.986 246.795C203.355 244.493 204.112 242.298 205.266 240.351C207.52 236.55 211.271 233.692 216.593 232.811C217.108 232.727 217.595 233.078 217.679 233.593C217.763 234.109 217.412 234.596 216.897 234.68C212.188 235.459 208.878 237.973 206.897 241.315C205.863 243.058 205.185 245.026 204.854 247.092C204.52 249.174 204.537 251.359 204.894 253.517C205.792 258.942 208.845 264.174 213.899 267.171Z" fill="#F0F4F7"/>
<path d="M234.223 227.122C234.219 226.6 234.639 226.174 235.161 226.17C235.683 226.166 236.11 226.586 236.114 227.108L236.375 250.036C236.425 254.313 237.235 258.409 238.793 262.306C240.356 266.216 242.675 269.927 245.739 273.42C246.082 273.813 246.043 274.411 245.65 274.755C245.257 275.098 244.659 275.059 244.315 274.666C241.108 271.009 238.678 267.117 237.036 263.011C235.392 258.899 234.538 254.572 234.485 250.051L234.223 227.122Z" fill="#F0F4F7"/>
<path d="M263 196.764C286.472 196.764 307.722 206.278 323.104 221.66C338.486 237.042 348 258.292 348 281.764C348 305.236 338.486 326.486 323.104 341.868C307.722 357.25 286.472 366.764 263 366.764C239.528 366.764 218.278 357.25 202.896 341.868C187.514 326.486 178 305.236 178 281.764C178 258.292 187.514 237.042 202.896 221.66C218.278 206.278 239.528 196.764 263 196.764ZM321.762 223.002C306.724 207.964 285.948 198.662 263 198.662C240.052 198.662 219.276 207.964 204.238 223.002C189.2 238.04 179.898 258.816 179.898 281.764C179.898 304.712 189.2 325.488 204.238 340.526C219.276 355.565 240.052 364.866 263 364.866C285.948 364.866 306.724 355.565 321.762 340.526C336.8 325.488 346.102 304.712 346.102 281.764C346.102 258.816 336.8 238.04 321.762 223.002Z" fill="#F0F4F7"/>
<path fill-rule="evenodd" clip-rule="evenodd" d="M261.287 353.581L261.286 353.581L261.285 353.581L261.276 353.576L261.253 353.566C261.243 353.561 261.232 353.556 261.219 353.55C261.205 353.544 261.189 353.536 261.171 353.528C261.101 353.495 261 353.448 260.873 353.388C260.618 353.268 260.255 353.095 259.809 352.877C258.919 352.442 257.69 351.824 256.333 351.092C253.726 349.686 250.266 347.658 247.965 345.576C247.96 345.572 247.955 345.567 247.95 345.562C239.487 337.829 234.883 328.547 234.76 318.058L234.531 297.994C234.51 296.103 235.78 294.441 237.61 293.964C246.609 291.621 254.606 287.437 260.258 282.388C261.82 280.993 264.18 280.993 265.742 282.388C271.394 287.437 279.391 291.621 288.39 293.964C290.22 294.441 291.49 296.103 291.469 297.994L291.24 318.057V318.058C291.117 328.547 286.513 337.829 278.05 345.562C278.045 345.567 278.04 345.572 278.035 345.576C275.734 347.658 272.274 349.686 269.667 351.092C268.31 351.824 267.081 352.442 266.191 352.877C265.745 353.095 265.382 353.268 265.127 353.388C265 353.448 264.899 353.495 264.829 353.528C264.814 353.535 264.8 353.541 264.788 353.547C264.772 353.554 264.758 353.56 264.747 353.566L264.724 353.576L264.714 353.581L264.713 353.581L264.713 353.581C263.625 354.079 262.375 354.079 261.287 353.581ZM250.727 342.524C254.524 345.959 263 349.839 263 349.839C263 349.839 271.476 345.959 275.273 342.524C283.029 335.437 287.016 327.19 287.124 318.01L287.353 297.947C277.817 295.465 269.208 291.004 263 285.458C256.791 291.004 248.183 295.465 238.647 297.947L238.876 318.01C238.983 327.19 242.971 335.437 250.727 342.524Z" fill="#F0F4F7"/>
<path fill-rule="evenodd" clip-rule="evenodd" d="M263 203.136C284.711 203.136 304.368 211.937 318.597 226.167C332.827 240.396 341.628 260.053 341.628 281.764C341.628 303.475 332.827 323.132 318.597 337.361C304.368 351.591 284.711 360.392 263 360.392C241.289 360.392 221.632 351.591 207.403 337.361C193.173 323.132 184.372 303.475 184.372 281.764C184.372 260.053 193.173 240.396 207.403 226.167C221.632 211.937 241.289 203.136 263 203.136ZM263 218.048C272.865 218.048 282.206 220.291 290.542 224.293C290.619 224.286 290.697 224.281 290.776 224.279C295.268 224.177 299.221 224.732 302.627 225.954C305.833 227.103 308.535 228.828 310.725 231.136C316.127 232.3 319.985 235.373 322.366 239.387C323.641 241.537 324.476 243.959 324.883 246.498C325.276 248.947 325.265 251.499 324.862 254.008C326.214 256.858 327.01 259.614 327.3 262.243C327.682 265.715 327.198 268.963 325.959 271.923C326.456 275.131 326.716 278.417 326.716 281.764C326.716 309.529 308.954 333.142 284.175 341.872C282.725 343.632 281.107 345.328 279.325 346.956V346.964L279.31 346.977H279.303C278.064 348.098 276.538 349.189 274.982 350.181C273.423 351.175 271.877 352.052 270.564 352.76C269.99 353.07 269.309 353.424 268.614 353.779V353.786C268.013 354.093 267.473 354.361 267.022 354.582L267.019 354.576L266.403 354.875C265.849 355.14 266.09 355.028 265.935 355.101H265.928L265.58 355.264L265.582 355.267L265.455 355.323L265.454 355.322C264.664 355.676 263.828 355.853 263 355.853C262.173 355.853 261.336 355.676 260.547 355.322L260.546 355.324L260.523 355.314L260.522 355.315L260.487 355.299L260.399 355.261L260.355 355.233L260.072 355.101H260.065C259.911 355.028 260.152 355.14 259.597 354.875L258.982 354.576L258.979 354.582C258.527 354.361 257.987 354.093 257.386 353.786V353.779C256.691 353.424 256.011 353.07 255.436 352.76C254.124 352.052 252.577 351.175 251.018 350.181C249.462 349.189 247.936 348.098 246.698 346.977H246.69L246.675 346.964V346.956C244.894 345.328 243.276 343.633 241.826 341.872C217.046 333.143 199.284 309.53 199.284 281.764C199.284 278.417 199.544 275.13 200.041 271.922C198.802 268.963 198.318 265.715 198.701 262.243C198.99 259.614 199.786 256.858 201.138 254.008C200.735 251.499 200.725 248.947 201.117 246.498C201.524 243.959 202.36 241.537 203.635 239.387C206.015 235.373 209.873 232.3 215.275 231.136C217.465 228.828 220.167 227.103 223.373 225.954C226.779 224.732 230.732 224.177 235.224 224.279C235.303 224.281 235.381 224.285 235.458 224.293C243.794 220.291 253.135 218.048 263 218.048Z" fill="#F0F4F7"/>
<path d="M263.001 338.279C264.568 338.279 266.125 338.083 267.63 337.696C268.731 337.412 269.393 336.29 269.11 335.19C268.826 334.089 267.704 333.427 266.604 333.71C265.434 334.011 264.222 334.163 263.001 334.163C255.039 334.163 248.595 327.72 248.595 319.757C248.595 318.621 247.673 317.699 246.537 317.699C245.4 317.699 244.479 318.621 244.479 319.757C244.479 329.995 252.763 338.279 263.001 338.279Z" fill="#F0F4F7"/>
<path d="M254.088 324.904C255.924 328.076 259.338 330.047 263 330.047C268.69 330.047 273.565 325.448 273.565 319.757C273.565 318.621 272.643 317.699 271.507 317.699C270.37 317.699 269.449 318.621 269.449 319.757C269.449 323.104 266.496 325.931 263 325.931C260.803 325.931 258.753 324.748 257.651 322.843C257.082 321.859 255.823 321.523 254.839 322.092C253.856 322.661 253.519 323.92 254.088 324.904Z" fill="#F0F4F7"/>
<path d="M254.768 317.7C255.905 317.7 256.826 316.779 256.826 315.642V296.198C256.826 295.062 255.905 294.14 254.768 294.14C253.632 294.14 252.71 295.062 252.71 296.198V315.642C252.71 316.779 253.632 317.7 254.768 317.7Z" fill="#F0F4F7"/>
<path d="M246.537 313.584C247.673 313.584 248.595 312.663 248.595 311.526V301.091C248.595 299.954 247.673 299.033 246.537 299.033C245.4 299.033 244.479 299.954 244.479 301.091V311.526C244.479 312.663 245.4 313.584 246.537 313.584Z" fill="#F0F4F7"/>
<path d="M263 305.078C264.137 305.078 265.058 304.156 265.058 303.02V294.788C265.058 293.651 264.137 292.73 263 292.73C261.864 292.73 260.942 293.651 260.942 294.788V303.02C260.942 304.156 261.864 305.078 263 305.078Z" fill="#F0F4F7"/>
<path d="M265.676 343.699C265.676 345.176 264.478 346.374 263 346.374C261.523 346.374 260.325 345.176 260.325 343.699C260.325 342.221 261.523 341.024 263 341.024C264.478 341.024 265.676 342.221 265.676 343.699Z" fill="#F0F4F7"/>
<path d="M263 321.816C264.137 321.816 265.058 320.895 265.058 319.758V311.526C265.058 310.39 264.137 309.468 263 309.468C261.864 309.468 260.942 310.39 260.942 311.526V319.758C260.942 320.895 261.864 321.816 263 321.816Z" fill="#F0F4F7"/>
</svg>
