<svg width="358" height="352" viewBox="0 0 358 352" fill="none" xmlns="http://www.w3.org/2000/svg">
<g opacity="0.15">
<path d="M255.24 78.6777L277.351 85.1659C301.773 92.3325 315.762 117.941 308.596 142.363L307.785 145.127M166.798 52.7252L144.687 46.237C120.264 39.0704 94.656 53.0593 87.4894 77.482L86.6783 80.2458" stroke="#F0F4F7" stroke-width="12" stroke-linecap="round"/>
<path d="M210.338 42.4933C215.064 38.5366 222.294 40.6582 224.133 46.5412L249.375 127.31C249.972 129.221 251.215 130.866 252.891 131.963L322.854 177.747C327.871 181.031 328.101 188.302 323.3 191.895L255.433 242.691C253.673 244.008 252.481 245.947 252.1 248.113L237.779 329.6C236.591 336.36 228.375 339.103 223.363 334.413L154.999 270.423C152.999 268.55 150.229 267.737 147.535 268.232L55.4331 285.135C48.6819 286.374 43.2506 279.626 45.9039 273.296L77.885 196.991C78.7349 194.963 78.7798 192.687 78.0105 190.628L48.3522 111.215C46.2541 105.597 50.3762 99.6025 56.3727 99.5509L139.982 98.8305C141.985 98.8133 143.919 98.1009 145.455 96.8153L210.338 42.4933Z" stroke="#F0F4F7" stroke-width="12"/>
<rect x="162.066" y="220.164" width="11.6" height="11.6" rx="1" transform="rotate(16.3538 162.066 220.164)" fill="#F0F4F7"/>
<rect x="197.685" y="230.616" width="11.6" height="11.6" rx="1" transform="rotate(16.3538 197.685 230.616)" fill="#F0F4F7"/>
<path d="M179.367 153.472C180.618 152.621 181.975 152.084 183.463 151.849C184.927 151.626 186.543 151.743 188.343 152.271C190.166 152.806 191.598 153.586 192.708 154.564C193.854 155.575 194.713 156.766 195.304 158.157C195.902 159.564 196.231 161.155 196.255 162.961L196.256 162.968C196.285 164.757 196.01 166.692 195.396 168.784L193.658 174.707C193.038 176.819 192.218 178.615 191.219 180.125C190.222 181.631 189.086 182.792 187.823 183.653L187.807 183.664C186.582 184.513 185.23 185.05 183.723 185.281L183.713 185.283C182.276 185.509 180.663 185.395 178.838 184.86C177.036 184.331 175.612 183.555 174.501 182.575C173.357 181.566 172.499 180.378 171.908 178.991C171.324 177.583 170.994 175.985 170.953 174.167C170.929 172.36 171.209 170.409 171.828 168.301L173.566 162.378C174.18 160.286 174.994 158.509 175.986 157.02L175.986 157.02L175.989 157.014C176.988 155.505 178.118 154.339 179.367 153.472ZM191.232 189.182C193.265 187.841 195.007 186.081 196.467 183.946C197.958 181.786 199.098 179.308 199.91 176.542L201.632 170.672C202.448 167.891 202.83 165.188 202.736 162.578C202.661 159.987 202.134 157.558 201.127 155.323C200.133 153.086 198.705 151.157 196.857 149.559C194.981 147.938 192.735 146.77 190.177 146.02C187.634 145.273 185.123 145.046 182.671 145.397C180.25 145.743 178.004 146.595 175.957 147.944C173.924 149.284 172.173 151.039 170.695 153.167L170.684 153.183C169.216 155.331 168.087 157.811 167.272 160.589L165.549 166.459C164.739 169.222 164.35 171.916 164.418 174.529L164.419 174.554C164.513 177.144 165.037 179.567 166.024 181.792L166.031 181.808C167.042 184.045 168.477 185.975 170.325 187.572L170.332 187.578C172.219 189.197 174.46 190.365 177.004 191.111C179.562 191.862 182.083 192.093 184.537 191.742C186.959 191.396 189.2 190.54 191.232 189.182Z" fill="#F0F4F7" stroke="#F0F4F7" stroke-width="5" stroke-linejoin="round"/>
<path d="M237.577 205.77L241.732 191.611L250.13 194.075C253.169 194.967 256.027 195.279 258.634 194.851L258.634 194.851L258.644 194.85C261.249 194.411 263.518 193.322 265.341 191.536C267.146 189.777 268.401 187.525 269.173 184.893C269.946 182.261 270.108 179.684 269.548 177.218C268.985 174.692 267.687 172.505 265.745 170.685C263.793 168.843 261.222 167.526 258.182 166.634L245.931 163.04C244.607 162.651 243.217 163.41 242.829 164.735L231.325 203.936C230.937 205.261 231.695 206.65 233.02 207.039L234.474 207.465C235.799 207.854 237.188 207.095 237.577 205.77ZM243.566 185.359L247.95 170.422L256.347 172.886C258.732 173.586 260.315 174.503 261.304 175.505L261.319 175.52C262.382 176.578 262.954 177.687 263.162 178.874L263.168 178.908C263.417 180.219 263.347 181.608 262.906 183.113C262.49 184.529 261.823 185.678 260.919 186.613L260.903 186.63C260.115 187.46 259.051 188.062 257.578 188.368C256.2 188.638 254.361 188.527 251.964 187.824L243.566 185.359Z" fill="#F0F4F7" stroke="#F0F4F7" stroke-width="5" stroke-linejoin="round"/>
<path d="M102.029 128.141L113.899 131.624L103.527 166.973C103.138 168.298 103.897 169.687 105.222 170.076L106.676 170.502C108 170.891 109.39 170.132 109.778 168.807L120.151 133.459L132.022 136.942C133.347 137.331 134.736 136.572 135.125 135.247L135.551 133.793C135.94 132.468 135.181 131.079 133.856 130.69L119.587 126.503L118.133 126.077L103.863 121.889C102.538 121.5 101.149 122.259 100.76 123.584L100.334 125.038C99.9449 126.363 100.704 127.752 102.029 128.141Z" fill="#F0F4F7" stroke="#F0F4F7" stroke-width="5" stroke-linejoin="round"/>
<rect x="126.104" y="209.611" width="11.6" height="11.6" rx="1" transform="rotate(16.3538 126.104 209.611)" fill="#F0F4F7"/>
</g>
</svg>
