<svg width="274" height="262" viewBox="0 0 274 262" fill="none" xmlns="http://www.w3.org/2000/svg">
<path opacity="0.15" d="M212.224 200.224L236.57 224.57M246.595 114.298C246.595 180.736 192.736 234.595 126.298 234.595C59.8591 234.595 6 180.736 6 114.298C6 47.8591 59.8591 -6 126.298 -6C192.736 -6 246.595 47.8591 246.595 114.298ZM270.119 273.916L285.916 258.119C286.028 258.007 286.028 257.825 285.916 257.714L245.815 217.612C245.703 217.5 245.522 217.5 245.41 217.612L229.612 233.41C229.5 233.522 229.5 233.703 229.612 233.815L269.714 273.916C269.825 274.028 270.007 274.028 270.119 273.916Z" stroke="#F0F4F7" stroke-width="12"/>
<path opacity="0.15" d="M144 29C144 25.6863 141.314 23 138 23H136.062C135.45 23 134.842 23.0936 134.259 23.2774L96.1966 35.2722C93.6987 36.0594 92 38.3758 92 40.9947V56.9977C92 58.8196 92.8277 60.5427 94.2499 61.6814C95.672 62.8201 97.5344 63.2509 99.3121 62.8525L110.934 60.248V105.454C110.934 108.768 113.62 111.454 116.934 111.454H138C141.314 111.454 144 108.768 144 105.454V29Z" stroke="#F0F4F7" stroke-width="12" stroke-linejoin="round"/>
<g opacity="0.15">
<path d="M55.8059 180.566V165.85H71.2473C72.6832 165.85 73.8473 164.686 73.8473 163.25V162.096C73.8473 160.66 72.6832 159.496 71.2473 159.496H55.8059V149.26H73.7141C75.15 149.26 76.3141 148.096 76.3141 146.66V145.554C76.3141 144.118 75.15 142.954 73.7141 142.954H53.2059H52.4628H52.1C50.6641 142.954 49.5 144.118 49.5 145.554V180.566C49.5 182.002 50.6641 183.166 52.1 183.166H53.2059C54.6418 183.166 55.8059 182.002 55.8059 180.566Z" fill="#F0F4F7" stroke="#F0F4F7" stroke-width="5"/>
<path d="M112.789 155.611C112.789 156.655 112.55 157.662 112.046 158.661C111.587 159.554 110.903 160.304 109.923 160.917C109.079 161.446 107.895 161.794 106.22 161.794H97.6199V149.26H105.035C106.835 149.26 108.267 149.567 109.402 150.093L109.402 150.093L109.411 150.097C110.56 150.623 111.364 151.332 111.921 152.21L111.921 152.21L111.928 152.222C112.461 153.052 112.789 154.142 112.789 155.611ZM97.6199 180.566V168.099H105.939L114.539 181.938C114.539 181.939 114.539 181.939 114.539 181.939C115.014 182.702 115.849 183.166 116.748 183.166H117.971C119.406 183.166 120.571 182.002 120.571 180.566V180.356C120.571 179.87 120.434 179.393 120.177 178.98C120.177 178.98 120.177 178.98 120.177 178.98L112.451 166.595C112.972 166.329 113.476 166.022 113.961 165.675C115.519 164.562 116.763 163.142 117.682 161.445L117.682 161.445L117.687 161.434C118.64 159.654 119.095 157.695 119.095 155.611C119.095 153.039 118.506 150.688 117.185 148.7C115.925 146.764 114.183 145.316 112.033 144.359C109.919 143.401 107.569 142.954 105.035 142.954H93.914C92.478 142.954 91.314 144.118 91.314 145.554V180.566C91.314 182.002 92.4781 183.166 93.914 183.166H95.0199C96.4558 183.166 97.6199 182.002 97.6199 180.566ZM118.786 179.299L118.786 179.299L118.786 179.299Z" fill="#F0F4F7" stroke="#F0F4F7" stroke-width="5"/>
<path d="M159.398 176.86H141.876V165.705H156.931C158.367 165.705 159.531 164.541 159.531 163.105V161.999C159.531 160.563 158.367 159.399 156.931 159.399H141.876V149.26H159.398C160.834 149.26 161.998 148.096 161.998 146.66V145.554C161.998 144.118 160.834 142.954 159.398 142.954H139.276H138.63H138.171C136.735 142.954 135.571 144.118 135.571 145.554V180.566C135.571 182.002 136.735 183.166 138.171 183.166H138.63H139.276H159.398C160.834 183.166 161.998 182.002 161.998 180.566V179.46C161.998 178.024 160.834 176.86 159.398 176.86Z" fill="#F0F4F7" stroke="#F0F4F7" stroke-width="5"/>
<path d="M200.825 176.86H183.304V165.705H198.358C199.794 165.705 200.958 164.541 200.958 163.105V161.999C200.958 160.563 199.794 159.399 198.358 159.399H183.304V149.26H200.825C202.261 149.26 203.425 148.096 203.425 146.66V145.554C203.425 144.118 202.261 142.954 200.825 142.954H180.704H180.057H179.598C178.162 142.954 176.998 144.118 176.998 145.554V180.566C176.998 182.002 178.162 183.166 179.598 183.166H180.057H180.704H200.825C202.261 183.166 203.425 182.002 203.425 180.566V179.46C203.425 178.024 202.261 176.86 200.825 176.86Z" fill="#F0F4F7" stroke="#F0F4F7" stroke-width="5"/>
</g>
</svg>
