<svg width="220" height="446" viewBox="0 0 220 446" fill="none" xmlns="http://www.w3.org/2000/svg">
<g opacity="0.1">
<path d="M336.102 214.173C337.413 215.223 339.141 215.782 340.943 215.588C351.342 214.444 361.165 212.559 370.258 210.005C378.938 207.571 386.997 204.511 394.304 200.897C392.178 211.859 386.083 221.595 377.789 230.557C366.43 242.851 350.846 253.84 335.605 264.583L321.635 274.548L321.446 291.167L326.831 287.156C331.835 283.432 337.371 279.525 342.948 275.593L343.234 275.391C359.476 263.942 376.081 252.236 388.501 238.511C400.383 225.391 408.327 210.543 408.358 192.608C410.907 190.822 413.325 188.947 415.592 186.989C421.326 182.037 426.173 176.522 429.991 170.537C433.934 164.343 436.796 157.652 438.415 150.565C439.992 143.655 440.416 136.338 439.58 128.708C439.042 123.778 437.966 118.717 436.347 113.588C434.979 109.264 433.203 104.819 430.999 100.286L431.098 99.706C431.798 95.4599 432.169 91.1614 432.19 86.8944C432.211 82.6588 431.892 78.4286 431.234 74.3078C430.555 70.0565 429.516 65.9148 428.121 61.9716C426.748 58.0859 425.003 54.336 422.914 50.8054C418.621 43.5667 412.834 37.2418 405.533 32.3794C399.359 28.2691 392.079 25.1982 383.697 23.5217C380.276 19.8031 376.463 16.5232 372.285 13.6976C367.433 10.423 362.069 7.72274 356.214 5.6493C350.469 3.59154 344.26 2.09269 337.611 1.16304C331.051 0.249063 323.99 -0.121834 316.475 0.0348485H316.224L316.219 0.0402039H316.135L316.051 0.0453042L315.968 0.0506596L315.884 0.0557599V0.0611153L315.801 0.0662156L315.722 0.0766713H315.717L315.555 0.0975827H315.55L315.393 0.118494H315.388L315.31 0.134305H315.305L315.231 0.149861H315.226L315.148 0.165417H315.142L315.07 0.181228H315.059L314.991 0.196784H314.981L314.908 0.217696H314.902L314.829 0.233507L314.819 0.238607L314.751 0.254418L314.741 0.259519L314.673 0.27533L314.662 0.28043L314.594 0.295986L314.584 0.301341L314.516 0.322253L314.505 0.327353L314.438 0.343164L314.427 0.348265L314.365 0.369176L314.349 0.374531L314.286 0.395443L314.276 0.400543L314.208 0.421454L314.197 0.426555L314.135 0.452822L314.124 0.457922L314.062 0.478833L314.046 0.484189L313.983 0.5102L313.973 0.515556L313.91 0.536467L313.894 0.546923L313.837 0.567579L313.821 0.578035L313.764 0.604302L313.748 0.609402L313.691 0.635669L313.675 0.640769L313.617 0.667036L313.602 0.677492L313.544 0.703503L313.529 0.713959L313.472 0.739971L313.456 0.745326L313.403 0.776693L313.388 0.781794L313.33 0.813161L313.314 0.823616L313.262 0.849628L313.247 0.860084L313.19 0.886351L313.174 0.896806L313.122 0.928173L313.106 0.938629L313.053 0.969741L313.038 0.980197L312.986 1.01156L312.97 1.02202L312.918 1.05339L312.902 1.06384L312.85 1.09521L312.834 1.10567L312.782 1.13703L312.777 1.14213L312.766 1.14749L312.719 1.18396L312.709 1.18931L312.703 1.19441L312.651 1.22578L312.636 1.24133L312.589 1.2727L312.573 1.28316L312.526 1.31988L312.505 1.33034L312.458 1.3668L312.442 1.37726L312.395 1.41373L312.38 1.42954L312.333 1.466L312.317 1.47646L312.276 1.51293L312.255 1.52874L312.213 1.56521L312.197 1.57566L312.15 1.61748L312.134 1.62794L312.092 1.66441L312.077 1.68022L312.03 1.71669L312.014 1.73224L311.973 1.77406L311.957 1.78452L311.915 1.82634L311.899 1.8368L311.857 1.87862L311.842 1.89418L311.8 1.936L311.784 1.94646L311.743 1.99338L311.732 2.00384L311.633 2.10329L311.623 2.11885L311.581 2.16067L311.565 2.17623L311.528 2.21805L311.513 2.23386L311.476 2.27543L311.461 2.29124L311.424 2.33816L311.414 2.34862L311.377 2.39554L311.362 2.41135L311.325 2.45828L311.309 2.47409L311.273 2.52101L311.262 2.53147L311.225 2.57839L311.215 2.5942L311.178 2.64112L311.168 2.65668L311.132 2.70896L311.121 2.71941L311.085 2.77169L311.074 2.78215L311.038 2.83443L311.027 2.84998L310.991 2.89716L310.985 2.91272L310.959 2.94408L310.938 2.97545L310.907 3.03283L310.886 3.0642L310.86 3.09556L310.855 3.11112L310.818 3.1634L310.813 3.17895L310.777 3.23123L310.771 3.24169L310.74 3.29907L310.735 3.30952L310.698 3.37226L310.693 3.38271L310.661 3.44009L310.656 3.45055L310.62 3.50818L310.614 3.51864L310.583 3.58112L310.578 3.59157L310.547 3.65431V3.65966L310.51 3.72214V3.7326L310.489 3.77442L310.479 3.79533L310.474 3.80069L310.442 3.86852V3.87362L310.411 3.94171V3.94681L310.38 4.01464L310.374 4.02L310.348 4.08783V4.09294L310.317 4.16613L310.285 4.23932L310.259 4.3125V4.31761L310.228 4.3908L310.202 4.46399V4.46909L310.176 4.54228L310.155 4.62057H310.15L310.129 4.69376V4.69886L310.103 4.77205V4.77715L310.082 4.85034V4.85569L310.061 4.92863V4.93398L310.04 5.00692V5.01227L310.019 5.08546V5.09056L310.003 5.16375L309.998 5.17421L309.982 5.24204V5.2525L309.967 5.32033V5.33614L309.951 5.39862V5.41443L309.935 5.48227V5.49808L309.925 5.56056L309.92 5.57637L309.909 5.6442V5.65976L309.899 5.72249V5.74341L309.878 5.88443V5.91044L309.868 5.96808V5.99409L309.852 6.13001V6.16138L309.826 6.71477L309.837 6.76704V6.86115L308.928 86.0327C308.849 93.1775 308.113 100.239 306.755 107.154C305.392 114.063 303.397 120.806 300.785 127.334C298.153 133.91 294.868 140.355 290.961 146.612L289.426 149.009C289.432 145.549 289.415 142.073 289.397 138.628C289.372 133.526 289.346 128.494 289.399 123.689C289.405 121.887 288.679 120.242 287.499 119.046C286.323 117.85 284.673 117.093 282.809 117.082C281.012 117.066 279.377 117.792 278.181 118.957C276.97 120.137 276.212 121.798 276.191 123.652L275.685 168.62C274.896 174.804 271.898 178.663 267.851 181.327C263.427 184.236 257.536 185.954 251.754 187.631L249.466 188.289C247.732 188.801 246.344 189.986 245.534 191.47C244.73 192.942 244.473 194.744 244.985 196.499C245.497 198.233 246.683 199.622 248.166 200.432C249.65 201.241 251.462 201.487 253.196 200.975L255.426 200.317C262.743 198.197 270.206 196.019 276.348 191.757C282.365 187.574 286.93 181.562 288.554 172.072C293.703 166.056 298.268 159.867 302.222 153.547C306.51 146.679 310.129 139.566 313.059 132.249C315.989 124.916 318.219 117.39 319.728 109.718C321.232 102.077 322.042 94.2012 322.131 86.1373L322.966 13.2381C327.411 13.3426 331.641 13.6821 335.663 14.2357C341.507 15.04 346.886 16.3246 351.764 18.0742C356.376 19.7246 360.628 21.84 364.466 24.3783C367.976 26.7076 371.152 29.4025 373.967 32.4526C375.069 42.0573 374.943 51.3434 373.706 60.3265C372.421 69.6543 369.929 78.7001 366.399 87.4743C362.769 96.494 358.021 105.258 352.329 113.776C346.636 122.294 339.956 130.635 332.456 138.788L332.362 138.913C331.135 140.255 330.566 141.958 330.623 143.65C330.696 145.285 331.38 146.92 332.649 148.147L332.754 148.236C334.086 149.463 335.819 150.048 337.506 149.975C339.188 149.907 340.86 149.186 342.092 147.849C350.099 139.148 357.264 130.201 363.391 120.994C369.559 111.744 374.714 102.213 378.667 92.3941C382.663 82.4761 385.457 72.2187 386.872 61.6113C387.885 54.0174 388.193 46.2354 387.734 38.2655C391.572 39.5816 395.04 41.3104 398.148 43.3681C403.773 47.0972 408.228 51.9648 411.529 57.5323C413.179 60.3212 414.563 63.3086 415.659 66.4214C416.798 69.6438 417.65 72.9917 418.188 76.376C418.736 79.7865 418.997 83.3118 418.976 86.8529C418.961 90.3939 418.642 94.0027 418.052 97.5855L417.681 99.6642L417.665 99.7374L417.66 99.7529L417.65 99.8156L417.618 99.9722L417.603 100.051L417.587 100.124C415.879 108.506 412.594 116.695 407.81 123.945C402.932 131.35 396.445 137.822 388.444 142.564C386.888 143.483 385.822 144.971 385.404 146.617C384.992 148.23 385.19 150.032 386.11 151.615C387.039 153.187 388.522 154.237 390.167 154.654C391.792 155.067 393.594 154.863 395.166 153.944C404.938 148.152 412.834 140.302 418.778 131.314C421.008 127.94 422.972 124.399 424.653 120.743C425.505 123.96 426.095 127.099 426.434 130.155C427.108 136.265 426.774 142.115 425.52 147.609C424.241 153.244 421.979 158.551 418.856 163.45C415.717 168.375 411.675 172.95 406.849 177.097C404.274 179.316 401.448 181.4 398.424 183.395L398.357 183.437L398.299 183.474L398.289 183.479L398.085 183.604L397.756 183.824L397.751 183.829C395.202 185.458 392.502 186.999 389.666 188.446C382.735 191.981 375.006 194.964 366.607 197.309C358.251 199.643 349.164 201.377 339.502 202.443C337.695 202.646 336.123 203.566 335.057 204.887C334.013 206.208 333.454 207.937 333.652 209.739C333.851 211.541 334.775 213.118 336.102 214.173Z" fill="#F0F4F7"/>
<path d="M131.072 86.0327L130.163 6.70431V6.50081L130.158 6.45363V6.32842L130.153 6.29195V6.24477L130.147 6.2083V6.16138L130.142 6.12466L130.137 6.07773V6.04101L130.132 5.99409L130.127 5.96272L130.121 5.91044L130.116 5.87933L130.111 5.82705L130.106 5.80079L130.101 5.74341L130.095 5.71739L130.09 5.65976L130.085 5.6391L130.08 5.57637L130.075 5.55546L130.064 5.49808L130.059 5.47717L130.048 5.41443L130.043 5.39862L130.033 5.33614L130.028 5.32033L130.017 5.2525L130.012 5.23694L130.002 5.17421L129.996 5.1584L129.981 5.09056L129.975 5.08011L129.96 5.01227L129.954 5.00182L129.939 4.93398V4.92353L129.918 4.85569V4.85034L129.897 4.77715L129.892 4.77205L129.871 4.69886V4.69376L129.85 4.62057L129.844 4.61521L129.824 4.54228L129.798 4.46909V4.46399L129.772 4.3908L129.74 4.31761V4.3125L129.714 4.23932L129.683 4.16613L129.657 4.09294L129.652 4.08783L129.625 4.02L129.62 4.01464L129.594 3.94681L129.589 3.94171L129.557 3.87362V3.86852L129.526 3.80579L129.521 3.79533L129.49 3.7326V3.72214L129.469 3.68057L129.458 3.65966L129.453 3.65431L129.422 3.59157L129.417 3.58112L129.385 3.51864L129.38 3.50818L129.349 3.45055L129.338 3.44009L129.307 3.38271L129.301 3.37226L129.27 3.31488L129.26 3.29907L129.228 3.24704L129.223 3.23123L129.187 3.17895L129.181 3.1634L129.145 3.11112L129.14 3.09556L129.114 3.0642L129.103 3.04328L129.093 3.03283L129.061 2.98055L129.051 2.96499L129.02 2.91272L129.014 2.90736L129.009 2.89716L128.972 2.84998L128.962 2.83443L128.925 2.78725L128.92 2.77679L128.837 2.65668L128.821 2.64112L128.79 2.5942L128.774 2.57839L128.738 2.53657L128.727 2.52101L128.69 2.47409L128.675 2.45828L128.638 2.41135L128.622 2.39554L128.591 2.35397L128.576 2.33816L128.539 2.29124L128.523 2.27543L128.487 2.23386L128.471 2.21805L128.435 2.17623L128.419 2.16067L128.377 2.11885L128.367 2.10329L128.267 2.00384L128.257 1.99338L128.215 1.94646L128.2 1.936L128.158 1.89418L128.142 1.87862L128.1 1.8368L128.085 1.82634L128.043 1.78452L128.027 1.77406L127.985 1.73224L127.97 1.71669L127.923 1.68022L127.907 1.66441L127.865 1.62794L127.85 1.61748L127.803 1.57566L127.787 1.56521L127.745 1.52874L127.724 1.51293L127.682 1.47646L127.667 1.466L127.62 1.42954L127.604 1.41373L127.557 1.37726L127.542 1.3668L127.494 1.33034L127.473 1.31988L127.426 1.28316L127.411 1.2727L127.364 1.24133L127.348 1.22578L127.296 1.19441L127.291 1.18931L127.281 1.18396L127.233 1.14749L127.212 1.13703L127.165 1.10567L127.15 1.09521L127.097 1.06384L127.082 1.05339L127.03 1.02202L127.014 1.01156L126.962 0.980197L126.946 0.969741L126.894 0.938629L126.878 0.928173L126.826 0.896806L126.81 0.886351L126.758 0.860084L126.737 0.849628L126.685 0.823616L126.67 0.813161L126.664 0.80806L126.617 0.781794L126.596 0.776693L126.544 0.745326L126.528 0.739971L126.471 0.713959L126.455 0.703503L126.398 0.677492L126.382 0.667036L126.325 0.640769L126.309 0.635669L126.251 0.609402L126.236 0.604302L126.178 0.578035L126.163 0.567579L126.105 0.546923L126.09 0.536467L126.032 0.515556L126.017 0.5102L125.954 0.484189L125.938 0.478833L125.881 0.457922L125.865 0.452822L125.802 0.426555L125.792 0.421454L125.651 0.374531L125.635 0.369176L125.572 0.348265L125.562 0.343164L125.494 0.327353L125.484 0.322253L125.416 0.301341L125.405 0.295986L125.337 0.28043L125.327 0.27533L125.259 0.259519L125.249 0.254418L125.181 0.238607L125.171 0.233507L125.103 0.217696H125.092L125.019 0.196784H125.008L124.941 0.181228H124.93L124.857 0.165417H124.852L124.779 0.149861H124.768L124.695 0.134305H124.69L124.617 0.118494H124.606L124.533 0.108038H124.528L124.45 0.0975827H124.444L124.283 0.0766713H124.277L124.199 0.0662156L124.115 0.0611153V0.0557599L124.032 0.0506596L123.948 0.0453042L123.865 0.0402039H123.781L123.776 0.0348485H123.442C115.957 -0.116611 108.928 0.249063 102.389 1.16304C95.7403 2.09269 89.5253 3.59154 83.7802 5.6493C77.8942 7.7593 72.5251 10.4543 67.7045 13.7081C63.5315 16.5336 59.7191 19.8083 56.293 23.5217C47.9209 25.2034 40.6404 28.2691 34.4671 32.3794C27.1657 37.2418 21.384 43.5615 17.0856 50.8054C14.9965 54.336 13.2523 58.0859 11.8787 61.9716C10.4842 65.9148 9.44491 70.0565 8.76596 74.3078C8.10789 78.4286 7.78926 82.6588 7.81015 86.8944C7.83104 91.1614 8.207 95.4651 8.90162 99.706L9.00057 100.286C6.80702 104.798 5.02632 109.243 3.65796 113.578C2.03369 118.706 0.962923 123.767 0.419757 128.708C-0.415883 136.338 0.00728214 143.655 1.58978 150.565C3.20883 157.652 6.06561 164.343 10.014 170.537C13.8318 176.522 18.6731 182.037 24.4077 186.989C26.6796 188.947 29.0927 190.822 31.6466 192.614C31.6779 210.548 39.6216 225.391 51.4981 238.511C63.9283 252.236 80.5366 263.951 96.7846 275.404L97.0508 275.593C102.629 279.525 108.165 283.432 113.168 287.156L118.548 291.167L118.36 274.569C113.738 271.195 109.069 267.889 104.394 264.583L104.306 264.52C89.0939 253.792 73.5474 242.827 62.2099 230.557C53.9266 221.589 47.832 211.859 45.7011 200.897C53.0077 204.511 61.0666 207.571 69.7416 210.005C78.8344 212.559 88.6582 214.444 99.0619 215.588C100.864 215.782 102.593 215.217 103.909 214.173C105.23 213.113 106.149 211.541 106.348 209.739C106.546 207.937 105.987 206.208 104.932 204.877C103.877 203.566 102.31 202.646 100.498 202.443C90.8361 201.377 81.7483 199.643 73.3919 197.309C64.9937 194.964 57.2639 191.981 50.3281 188.456C47.5183 187.015 44.8443 185.495 42.3165 183.876L41.7004 183.474L41.6377 183.432L41.5698 183.39C38.5511 181.416 35.7358 179.316 33.1558 177.097C28.3247 172.944 24.2823 168.375 21.1435 163.45C18.0203 158.551 15.7589 153.244 14.4794 147.609C13.2259 142.115 12.8916 136.265 13.5654 130.155C13.8996 127.099 14.4951 123.955 15.3464 120.743C17.0281 124.399 18.9919 127.945 21.222 131.319C27.1655 140.302 35.0675 148.152 44.834 153.944C46.3904 154.863 48.2029 155.072 49.8324 154.654C51.4775 154.237 52.9606 153.182 53.8902 151.604C54.8146 150.032 55.0082 148.23 54.5956 146.617C54.1778 144.971 53.1174 143.483 51.5558 142.564C43.5545 137.822 37.0678 131.35 32.1898 123.945C26.9252 115.964 23.4781 106.851 21.9478 97.5855C21.3576 94.0027 21.0393 90.3939 21.0236 86.8529C21.0027 83.3118 21.2637 79.7865 21.8121 76.376C22.3553 72.9917 23.1962 69.6491 24.3347 66.4319C25.4315 63.3139 26.8207 60.3212 28.4711 57.5323C31.7719 51.9648 36.2321 47.0972 41.857 43.3681C44.9593 41.3051 48.4323 39.5816 52.2658 38.2655C51.8061 46.2354 52.1145 54.0174 53.1277 61.6113C54.5431 72.2135 57.3424 82.4709 61.3326 92.3941C65.2862 102.218 70.4466 111.755 76.6199 121.01C82.7723 130.238 89.9273 139.169 97.9077 147.849C99.1402 149.186 100.812 149.907 102.493 149.975C104.186 150.048 105.914 149.463 107.246 148.236L107.35 148.137C108.62 146.914 109.304 145.295 109.377 143.619C109.434 141.953 108.865 140.229 107.638 138.898L107.544 138.788C100.044 130.635 93.3688 122.294 87.6708 113.776C81.9832 105.258 77.236 96.494 73.601 87.4743C70.0652 78.6949 67.5789 69.6543 66.2993 60.3265C65.0563 51.3434 64.9311 42.052 66.0331 32.4526C68.8638 29.3921 72.0395 26.6919 75.5544 24.3678C79.3879 21.8296 83.6232 19.7246 88.2349 18.0742C93.1129 16.3246 98.4924 15.04 104.337 14.2357C108.358 13.6821 112.589 13.3426 117.033 13.2381L117.869 86.1373C117.958 94.2012 118.768 102.077 120.272 109.718C121.781 117.39 124.011 124.916 126.946 132.249C129.871 139.566 133.49 146.679 137.778 153.547C141.732 159.867 146.296 166.056 151.446 172.072C153.07 181.562 157.645 187.574 163.652 191.757C169.794 196.019 177.257 198.197 184.569 200.317L186.804 200.975C188.543 201.487 190.35 201.241 191.834 200.432C193.317 199.622 194.502 198.233 195.014 196.499C195.526 194.744 195.27 192.942 194.466 191.47C193.656 189.986 192.272 188.801 190.528 188.289L188.24 187.631C182.469 185.954 176.572 184.236 172.149 181.327C168.096 178.663 165.098 174.799 164.315 168.62L163.803 123.605C163.782 121.798 163.03 120.148 161.834 118.973C160.643 117.803 158.993 117.077 157.196 117.072L157.128 117.082C155.326 117.103 153.681 117.85 152.506 119.035C151.316 120.236 150.589 121.887 150.6 123.725C150.654 128.346 150.598 133.397 150.542 138.582C150.505 141.971 150.467 145.416 150.459 148.836L149.038 146.612C145.131 140.355 141.847 133.91 139.209 127.334C136.603 120.806 134.608 114.063 133.245 107.154C131.887 100.239 131.15 93.1775 131.072 86.0327Z" fill="#F0F4F7"/>
<path d="M218.95 120.947L219.029 120.957L219.081 120.962L219.107 120.968L219.159 120.973L219.185 120.978L219.237 120.983L219.263 120.989H219.316L219.342 120.994L219.399 120.999L219.42 121.004H219.477L219.498 121.01H219.556L219.577 121.015H219.634L219.655 121.02H219.718L219.733 121.025H220.271L220.292 121.02H220.35L220.37 121.015H220.428L220.449 121.01H220.512L220.528 121.004H220.59L220.606 120.999L220.668 120.994L220.689 120.989H220.747L220.768 120.983L220.825 120.978L220.846 120.973L220.903 120.968L220.924 120.962L221.06 120.947L221.243 120.91L221.295 120.905L221.321 120.895C221.587 120.837 221.844 120.775 222.099 120.686L222.136 120.675C223.394 120.242 224.538 119.438 225.364 118.289C227.244 115.677 230.571 113.765 234.639 112.214C239.042 110.533 244.364 109.269 249.738 107.995C258.518 105.916 267.459 103.79 274.76 99.565C282.48 95.11 288.141 88.4875 289.509 77.6399C289.739 75.838 289.212 74.104 288.172 72.7565C287.143 71.4352 285.592 70.4846 283.785 70.2548C281.973 70.025 280.244 70.5629 278.902 71.5865C277.575 72.6154 276.62 74.1823 276.411 75.9894C274.823 88.43 260.518 91.8248 246.646 95.1152C236.754 97.4602 227.045 99.7687 220 105.122C212.954 99.7687 203.24 97.4549 193.312 95.1047C179.482 91.8248 165.177 88.43 163.6 75.9894C163.38 74.1823 162.424 72.6154 161.082 71.5865C159.755 70.5629 158.027 70.025 156.214 70.2548C154.412 70.4846 152.856 71.4351 151.817 72.7721C150.788 74.1039 150.26 75.838 150.49 77.6399C151.859 88.5032 157.531 95.1203 165.234 99.5701C172.541 103.79 181.482 105.916 190.262 107.995C195.641 109.269 200.963 110.538 205.366 112.214C209.429 113.765 212.761 115.677 214.636 118.294C215.247 119.15 216.035 119.808 216.913 120.268H216.924L216.986 120.304H216.997L217.201 120.409L217.221 120.414L217.274 120.44L217.294 120.446L217.869 120.675L217.905 120.686L217.942 120.701L218.057 120.733L218.099 120.748L218.684 120.895L218.715 120.905L218.762 120.91L218.871 120.931L218.919 120.936L218.95 120.947Z" fill="#F0F4F7"/>
<path d="M215.315 146.502C214.119 147.698 213.372 149.364 213.372 151.192V170.229C213.372 172.057 214.114 173.718 215.31 174.914C216.506 176.11 218.182 176.851 220 176.851C221.828 176.851 223.489 176.11 224.685 174.914C225.881 173.718 226.622 172.057 226.622 170.229V151.192C226.622 149.374 225.881 147.698 224.685 146.502C223.489 145.306 221.828 144.564 220 144.564C218.172 144.564 216.511 145.306 215.315 146.502Z" fill="#F0F4F7"/>
<path fill-rule="evenodd" clip-rule="evenodd" d="M224.771 208.348C222.049 205.929 217.95 205.929 215.228 208.348C194.385 226.868 165.344 241.969 132.955 250.453C129.779 251.285 127.554 254.174 127.591 257.485L128.392 327.718C128.796 362.157 143.834 392.864 172.276 418.856L172.301 418.878C179.328 425.236 190.097 431.692 198.988 436.542C208.026 441.473 215.734 445.067 217.007 445.656C217.719 445.985 218.743 446.318 219.999 446.318C221.256 446.318 222.279 445.985 222.992 445.656C224.265 445.067 231.973 441.473 241.011 436.542C249.902 431.692 260.671 425.236 267.697 418.878L267.722 418.856C296.165 392.864 311.203 362.155 311.606 327.716L312.407 257.485C312.445 254.174 310.22 251.285 307.043 250.453C274.654 241.969 245.613 226.868 224.771 208.348ZM141.115 262.188C171.339 253.619 198.884 239.527 219.999 222.001C241.115 239.527 268.66 253.619 298.883 262.188L298.138 327.56C297.784 357.713 284.768 385.027 258.649 408.9C252.901 414.098 243.374 419.91 234.56 424.718C228.54 428.002 223.127 430.672 219.999 432.173C216.872 430.672 211.459 428.002 205.438 424.718C196.626 419.911 187.1 414.1 181.351 408.902C155.232 385.029 142.215 357.713 141.861 327.56L141.115 262.188Z" fill="#F0F4F7"/>
</g>
</svg>
