<svg width="549" height="700" viewBox="0 0 549 700" fill="none" xmlns="http://www.w3.org/2000/svg">
<g opacity="0.05">
<path fill-rule="evenodd" clip-rule="evenodd" d="M257.933 696.403L274.446 660.323L290.959 696.403C280.473 701.199 268.419 701.199 257.933 696.403ZM156.129 589.807C192.732 622.926 274.446 660.323 274.446 660.323C257.933 696.403 257.93 696.401 257.926 696.4L257.918 696.396L257.827 696.354L257.602 696.251C257.511 696.209 257.402 696.158 257.275 696.1C257.14 696.037 256.985 695.966 256.811 695.885C256.136 695.571 255.168 695.12 253.94 694.541C251.486 693.384 247.983 691.713 243.683 689.611C235.102 685.418 223.254 679.463 210.174 672.406C185.039 658.846 151.684 639.296 129.507 619.23C129.459 619.186 129.411 619.142 129.362 619.098C47.778 544.544 3.39352 455.063 2.20888 353.95L0.00260914 160.533C-0.205346 142.302 12.0373 126.275 29.6811 121.681C116.432 99.0944 193.524 58.7596 248.012 10.087C263.068 -3.36232 285.823 -3.36232 300.879 10.087C355.368 58.7596 432.459 99.0944 519.21 121.681C536.855 126.275 549.097 142.302 548.889 160.533L546.683 353.937V353.95C545.498 455.063 501.113 544.544 419.529 619.098C419.481 619.142 419.433 619.186 419.384 619.23C397.207 639.296 363.852 658.846 338.718 672.406C325.637 679.463 313.789 685.418 305.209 689.611C300.908 691.713 297.406 693.384 294.951 694.541C293.724 695.12 292.756 695.571 292.081 695.885C291.935 695.952 291.804 696.013 291.686 696.067C291.529 696.14 291.397 696.201 291.289 696.251L291.065 696.354L290.974 696.396L290.965 696.4C290.961 696.401 290.959 696.403 274.446 660.323C274.446 660.323 356.159 622.926 392.762 589.807C467.528 521.484 505.97 441.986 507.007 353.485L509.213 160.081C417.283 136.145 334.298 93.143 274.446 39.6789C214.593 93.143 131.608 136.145 39.6789 160.081L41.885 353.485C42.922 441.986 81.3633 521.484 156.129 589.807Z" fill="#A6AFBD"/>
<path d="M383.001 490.198C391.218 497.45 403.756 496.666 411.004 488.452C439.794 455.833 455.648 413.887 455.648 370.34C455.648 360.328 455.648 199.33 455.648 190.384C455.648 179.427 446.765 170.544 435.808 170.544C424.852 170.544 415.969 179.427 415.969 190.384C415.969 199.264 415.969 202.159 415.969 202.093C415.969 221.09 415.969 267.369 415.969 370.34C415.969 404.211 403.64 436.831 381.255 462.193C374.005 470.41 374.786 482.947 383.001 490.198Z" fill="#A6AFBD"/>
<path d="M274.446 548.888C289.553 548.888 304.567 546.995 319.071 543.262C329.682 540.53 336.07 529.714 333.338 519.102C330.607 508.49 319.79 502.106 309.179 504.835C297.905 507.737 286.218 509.209 274.446 509.209C197.689 509.209 135.57 447.095 135.57 370.333C135.57 359.376 126.688 350.494 115.731 350.494C104.774 350.494 95.8914 359.376 95.8914 370.333C95.8914 469.021 175.752 548.888 274.446 548.888Z" fill="#A6AFBD"/>
<path d="M356.449 310.82C367.407 310.82 376.289 301.936 376.289 290.98V143.216C376.289 132.259 367.407 123.376 356.449 123.376C345.493 123.376 336.61 132.259 336.61 143.216V290.98C336.61 301.936 345.493 310.82 356.449 310.82Z" fill="#A6AFBD"/>
<path d="M188.532 419.946C206.224 450.53 239.145 469.53 274.446 469.53C329.3 469.53 376.289 425.193 376.289 370.333C376.289 359.376 367.407 350.494 356.45 350.494C345.493 350.494 336.61 359.376 336.61 370.333C336.61 402.596 308.143 429.851 274.446 429.851C253.262 429.851 233.502 418.444 222.88 400.078C217.392 390.593 205.257 387.354 195.772 392.839C186.288 398.325 183.048 410.461 188.532 419.946Z" fill="#A6AFBD"/>
<path d="M195.088 350.498C206.045 350.498 214.927 341.615 214.927 330.659V143.216C214.927 132.259 206.045 123.376 195.088 123.376C184.131 123.376 175.248 132.259 175.248 143.216V330.659C175.248 341.615 184.131 350.498 195.088 350.498Z" fill="#A6AFBD"/>
<path d="M274.446 390.179C285.403 390.179 294.285 381.296 294.285 370.339V290.982C294.285 280.024 285.403 271.142 274.446 271.142C263.489 271.142 254.606 280.024 254.606 290.982V370.339C254.606 381.296 263.489 390.179 274.446 390.179Z" fill="#A6AFBD"/>
<path d="M115.731 310.82C126.688 310.82 135.57 301.937 135.57 290.98V190.384C135.57 179.427 126.688 170.544 115.731 170.544C104.774 170.544 95.8914 179.427 95.8914 190.384V290.98C95.8914 301.937 104.774 310.82 115.731 310.82Z" fill="#A6AFBD"/>
<path d="M274.446 228.815C285.403 228.815 294.285 219.932 294.285 208.976V129.618C294.285 118.661 285.403 109.778 274.446 109.778C263.489 109.778 254.606 118.661 254.606 129.618V208.976C254.606 219.932 263.489 228.815 274.446 228.815Z" fill="#A6AFBD"/>
<path d="M300.238 601.132C300.238 615.376 288.691 626.924 274.447 626.924C260.203 626.924 248.656 615.376 248.656 601.132C248.656 586.889 260.203 575.341 274.447 575.341C288.691 575.341 300.238 586.889 300.238 601.132Z" fill="#A6AFBD"/>
</g>
</svg>
