<svg width="137" height="13" viewBox="0 0 137 13" fill="none" xmlns="http://www.w3.org/2000/svg">
<path d="M3.65112 6.13219H2.4356V9.19349H0.0946045V1.12005H2.4356V4.25639H3.69614L5.88707 1.12005H8.37813L5.55693 4.9917L8.57322 9.19349H5.81204L3.65112 6.13219Z" fill="#A6AFBD"/>
<path d="M14.1646 1C15.025 1 15.7753 1.17007 16.4156 1.51022C17.0559 1.85036 17.5511 2.33557 17.9012 2.96584C18.2514 3.59611 18.4264 4.33142 18.4264 5.17178C18.4264 5.99213 18.2614 6.71744 17.9312 7.3477C17.6011 7.96797 17.1359 8.45318 16.5356 8.80332C15.9354 9.14347 15.2451 9.31354 14.4647 9.31354C13.4343 9.31354 12.629 8.9884 12.0487 8.33813V12.1047H9.70772V5.18678C9.70772 4.35643 9.8928 3.62612 10.263 2.99585C10.6331 2.36558 11.1533 1.87537 11.8236 1.52522C12.4939 1.17507 13.2742 1 14.1646 1ZM14.0596 7.39272C14.6698 7.39272 15.165 7.18764 15.5452 6.77746C15.9254 6.36729 16.1155 5.83206 16.1155 5.17178C16.1155 4.50149 15.9254 3.96126 15.5452 3.55109C15.165 3.13091 14.6698 2.92082 14.0596 2.92082C13.4493 2.92082 12.9541 3.12591 12.5739 3.53608C12.2038 3.94625 12.0187 4.48649 12.0187 5.15677C12.0187 5.82706 12.2038 6.36729 12.5739 6.77746C12.9441 7.18764 13.4393 7.39272 14.0596 7.39272Z" fill="#A6AFBD"/>
<path d="M28.3445 1.12005V9.19349H26.1085V8.24809C25.8084 8.59824 25.4382 8.86335 24.9981 9.04343C24.5679 9.2235 24.1077 9.31354 23.6175 9.31354C22.557 9.31354 21.7117 9.00841 21.0814 8.39815C20.4611 7.78789 20.151 6.88251 20.151 5.68199V1.12005H22.492V5.33685C22.492 6.6374 23.0372 7.28768 24.1277 7.28768C24.6979 7.28768 25.1531 7.1076 25.4933 6.74745C25.8334 6.37729 26.0035 5.83206 26.0035 5.11175V1.12005H28.3445Z" fill="#A6AFBD"/>
<path d="M38.9043 1.12005V9.19349H36.5633V3.04087H33.2019V9.19349H30.8759V1.12005H38.9043Z" fill="#A6AFBD"/>
<path d="M51.7733 1C52.7838 1 53.5841 1.30013 54.1744 1.90038C54.7746 2.49063 55.0747 3.38101 55.0747 4.57152V9.19349H52.7337V4.93167C52.7337 4.2914 52.5987 3.8162 52.3286 3.50607C52.0685 3.18593 51.6933 3.02586 51.2031 3.02586C50.6529 3.02586 50.2177 3.20594 49.8975 3.56609C49.5774 3.91624 49.4173 4.44147 49.4173 5.14176V9.19349H47.0763V4.93167C47.0763 3.66113 46.5661 3.02586 45.5457 3.02586C45.0055 3.02586 44.5753 3.20594 44.2551 3.56609C43.935 3.91624 43.7749 4.44147 43.7749 5.14176V9.19349H41.4339V1.12005H43.6699V2.05045C43.97 1.7103 44.3352 1.45019 44.7654 1.27012C45.2055 1.09004 45.6857 1 46.206 1C46.7762 1 47.2914 1.11505 47.7516 1.34515C48.2118 1.56524 48.582 1.89038 48.8621 2.32056C49.1922 1.90038 49.6074 1.57525 50.1076 1.34515C50.6178 1.11505 51.1731 1 51.7733 1Z" fill="#A6AFBD"/>
<path d="M61.1965 9.31354C60.3462 9.31354 59.5808 9.13847 58.9006 8.78832C58.2303 8.42816 57.705 7.93295 57.3249 7.30268C56.9447 6.67242 56.7546 5.95711 56.7546 5.15677C56.7546 4.35643 56.9447 3.64112 57.3249 3.01086C57.705 2.38059 58.2303 1.89038 58.9006 1.54023C59.5808 1.18008 60.3462 1 61.1965 1C62.0469 1 62.8072 1.18008 63.4775 1.54023C64.1478 1.89038 64.673 2.38059 65.0532 3.01086C65.4333 3.64112 65.6234 4.35643 65.6234 5.15677C65.6234 5.95711 65.4333 6.67242 65.0532 7.30268C64.673 7.93295 64.1478 8.42816 63.4775 8.78832C62.8072 9.13847 62.0469 9.31354 61.1965 9.31354ZM61.1965 7.39272C61.7968 7.39272 62.287 7.19264 62.6672 6.79247C63.0573 6.38229 63.2524 5.83706 63.2524 5.15677C63.2524 4.47648 63.0573 3.93625 62.6672 3.53608C62.287 3.12591 61.7968 2.92082 61.1965 2.92082C60.5963 2.92082 60.1011 3.12591 59.7109 3.53608C59.3207 3.93625 59.1256 4.47648 59.1256 5.15677C59.1256 5.83706 59.3207 6.38229 59.7109 6.79247C60.1011 7.19264 60.5963 7.39272 61.1965 7.39272Z" fill="#A6AFBD"/>
<path d="M73.7013 4.97669C74.6517 5.29683 75.1269 5.9371 75.1269 6.89751C75.1269 7.62782 74.8518 8.19306 74.3016 8.59323C73.7513 8.9934 72.931 9.19349 71.8405 9.19349H67.5337V1.12005H71.6604C72.6709 1.12005 73.4612 1.30513 74.0314 1.67529C74.6017 2.03544 74.8868 2.54566 74.8868 3.20594C74.8868 3.60611 74.7818 3.96126 74.5717 4.27139C74.3716 4.57152 74.0815 4.80662 73.7013 4.97669ZM69.6796 4.43646H71.4503C72.2707 4.43646 72.6809 4.14634 72.6809 3.56609C72.6809 2.99585 72.2707 2.71073 71.4503 2.71073H69.6796V4.43646ZM71.6454 7.60281C72.5058 7.60281 72.936 7.30769 72.936 6.71744C72.936 6.4073 72.8359 6.18221 72.6359 6.04215C72.4358 5.89208 72.1206 5.81705 71.6905 5.81705H69.6796V7.60281H71.6454Z" fill="#A6AFBD"/>
<path d="M85.3173 1.12005V9.19349H83.0814V8.26309C82.5011 8.96339 81.6608 9.31354 80.5603 9.31354C79.8 9.31354 79.1097 9.14347 78.4894 8.80332C77.8792 8.46318 77.3989 7.97797 77.0488 7.3477C76.6986 6.71744 76.5236 5.98712 76.5236 5.15677C76.5236 4.32642 76.6986 3.59611 77.0488 2.96584C77.3989 2.33557 77.8792 1.85036 78.4894 1.51022C79.1097 1.17007 79.8 1 80.5603 1C81.5907 1 82.3961 1.32514 82.9763 1.97542V1.12005H85.3173ZM80.9655 7.39272C81.5557 7.39272 82.0459 7.19264 82.4361 6.79247C82.8263 6.38229 83.0213 5.83706 83.0213 5.15677C83.0213 4.47648 82.8263 3.93625 82.4361 3.53608C82.0459 3.12591 81.5557 2.92082 80.9655 2.92082C80.3652 2.92082 79.87 3.12591 79.4798 3.53608C79.0897 3.93625 78.8946 4.47648 78.8946 5.15677C78.8946 5.83706 79.0897 6.38229 79.4798 6.79247C79.87 7.19264 80.3652 7.39272 80.9655 7.39272Z" fill="#A6AFBD"/>
<path d="M95.5731 1.12005V9.19349H93.2321V3.04087H90.681L90.606 4.46648C90.566 5.52693 90.466 6.4073 90.3059 7.1076C90.1458 7.8079 89.8857 8.35813 89.5256 8.7583C89.1654 9.15847 88.6652 9.35856 88.0249 9.35856C87.6848 9.35856 87.2796 9.29854 86.8094 9.17848L86.9294 7.25767C87.0895 7.27767 87.2046 7.28768 87.2746 7.28768C87.6247 7.28768 87.8848 7.16263 88.0549 6.91252C88.235 6.65241 88.3551 6.32727 88.4151 5.9371C88.4751 5.53693 88.5201 5.01171 88.5501 4.36143L88.6702 1.12005H95.5731Z" fill="#A6AFBD"/>
<path d="M105.763 1C106.583 1 107.318 1.18008 107.969 1.54023C108.619 1.89038 109.129 2.38059 109.499 3.01086C109.869 3.64112 110.055 4.35643 110.055 5.15677C110.055 5.95711 109.869 6.67242 109.499 7.30268C109.129 7.93295 108.619 8.42816 107.969 8.78832C107.318 9.13847 106.583 9.31354 105.763 9.31354C105.052 9.31354 104.402 9.18349 103.812 8.92338C103.222 8.65326 102.731 8.2781 102.341 7.7979C101.951 7.30769 101.691 6.74745 101.561 6.11718H100.45V9.19349H98.1244V1.12005H100.45V4.09132H101.576C101.806 3.15092 102.296 2.4006 103.047 1.84036C103.797 1.28012 104.702 1 105.763 1ZM105.763 7.39272C106.333 7.39272 106.803 7.19264 107.173 6.79247C107.553 6.38229 107.744 5.83706 107.744 5.15677C107.744 4.46648 107.553 3.92124 107.173 3.52107C106.803 3.1209 106.333 2.92082 105.763 2.92082C105.182 2.92082 104.702 3.1209 104.322 3.52107C103.952 3.92124 103.767 4.46648 103.767 5.15677C103.767 5.83706 103.952 6.38229 104.322 6.79247C104.702 7.19264 105.182 7.39272 105.763 7.39272Z" fill="#A6AFBD"/>
<path d="M122.305 1C123.315 1 124.115 1.30013 124.706 1.90038C125.306 2.49063 125.606 3.38101 125.606 4.57152V9.19349H123.265V4.93167C123.265 4.2914 123.13 3.8162 122.86 3.50607C122.6 3.18593 122.225 3.02586 121.734 3.02586C121.184 3.02586 120.749 3.20594 120.429 3.56609C120.109 3.91624 119.949 4.44147 119.949 5.14176V9.19349H117.608V4.93167C117.608 3.66113 117.097 3.02586 116.077 3.02586C115.537 3.02586 115.106 3.20594 114.786 3.56609C114.466 3.91624 114.306 4.44147 114.306 5.14176V9.19349H111.965V1.12005H114.201V2.05045C114.501 1.7103 114.866 1.45019 115.297 1.27012C115.737 1.09004 116.217 1 116.737 1C117.307 1 117.823 1.11505 118.283 1.34515C118.743 1.56524 119.113 1.89038 119.393 2.32056C119.723 1.90038 120.139 1.57525 120.639 1.34515C121.149 1.11505 121.704 1 122.305 1Z" fill="#A6AFBD"/>
<path d="M136.095 1.12005V9.19349H133.859V8.26309C133.278 8.96339 132.438 9.31354 131.338 9.31354C130.577 9.31354 129.887 9.14347 129.267 8.80332C128.656 8.46318 128.176 7.97797 127.826 7.3477C127.476 6.71744 127.301 5.98712 127.301 5.15677C127.301 4.32642 127.476 3.59611 127.826 2.96584C128.176 2.33557 128.656 1.85036 129.267 1.51022C129.887 1.17007 130.577 1 131.338 1C132.368 1 133.173 1.32514 133.754 1.97542V1.12005H136.095ZM131.743 7.39272C132.333 7.39272 132.823 7.19264 133.213 6.79247C133.604 6.38229 133.799 5.83706 133.799 5.15677C133.799 4.47648 133.604 3.93625 133.213 3.53608C132.823 3.12591 132.333 2.92082 131.743 2.92082C131.142 2.92082 130.647 3.12591 130.257 3.53608C129.867 3.93625 129.672 4.47648 129.672 5.15677C129.672 5.83706 129.867 6.38229 130.257 6.79247C130.647 7.19264 131.142 7.39272 131.743 7.39272Z" fill="#A6AFBD"/>
</svg>
