<svg width="40" height="40" viewBox="0 0 40 40" fill="none" xmlns="http://www.w3.org/2000/svg">
<g clip-path="url(#clip0_110_1274)">
<rect width="40" height="40" rx="20" fill="#F0F4F7"/>
<path d="M30.9545 17C30.9847 16.6685 31 16.3348 31 16C31 13.0826 29.8411 10.2847 27.7782 8.22183C25.7153 6.15893 22.9174 5 20 5C17.8244 5 15.6977 5.64514 13.8887 6.85383C12.0798 8.06253 10.6699 9.78049 9.83733 11.7905C9.00476 13.8005 8.78693 16.0122 9.21137 18.146C9.3378 18.7816 9.51952 19.4018 9.75305 20" stroke="#A6AFBD" stroke-linejoin="round"/>
<path d="M22.0222 9.05863C21.7645 8.99441 21.5036 9.1428 21.4247 9.39261C21.4466 9.27321 21.4244 9.14948 21.3615 9.0448C21.2932 8.93113 21.1825 8.84924 21.0539 8.81715L19.8416 8.51486C19.5737 8.44805 19.3023 8.61104 19.2355 8.87893L18.8573 10.3944C18.7862 10.3776 18.7158 10.3607 18.6461 10.3437C18.6223 10.3335 18.5973 10.3251 18.5714 10.3187L16.8986 9.90097C16.7698 9.86883 16.6336 9.88916 16.5199 9.95748C16.4062 10.0258 16.3243 10.1365 16.2922 10.2652L15.9696 11.5608C15.9371 11.6911 15.9584 11.8289 16.0287 11.9433C16.0989 12.0577 16.2122 12.139 16.3431 12.169L16.4547 11.6816L16.3431 12.169L16.3431 12.169L16.3432 12.169L16.3436 12.1691L16.3455 12.1696L16.3529 12.1713L16.3811 12.1777L16.4819 12.2011C16.5654 12.2205 16.6763 12.2464 16.7862 12.2727C16.8969 12.2991 17.0039 12.3252 17.0809 12.3451C17.1065 12.3517 17.1262 12.357 17.1405 12.361C17.1643 12.3711 17.189 12.3794 17.2146 12.3858C17.2906 12.4048 17.3331 12.4271 17.3549 12.4417C17.3755 12.4555 17.3829 12.4658 17.386 12.4707C17.3915 12.4794 17.4004 12.5 17.4021 12.5399L16.8499 14.7554C16.8491 14.7584 16.8484 14.7614 16.8477 14.7643L16.0752 17.8617C16.0619 17.8592 16.0486 17.8573 16.0353 17.8559C16.0196 17.8524 15.9973 17.8472 15.9685 17.8402C15.8903 17.8214 15.7828 17.7941 15.6724 17.7657C15.5625 17.7373 15.4521 17.7084 15.3689 17.6865L15.2685 17.66L15.2405 17.6526L15.2331 17.6506L15.2313 17.6501L15.2308 17.65L15.2307 17.65L15.2307 17.65L15.1022 18.1332L15.2307 17.65C14.9916 17.5864 14.7419 17.7072 14.6435 17.9342L14.0413 19.3227C13.9828 19.4576 13.9866 19.6113 14.0517 19.743C14.1167 19.8748 14.2365 19.9713 14.3791 20.0068L15.957 20.4002C15.9571 20.4002 15.9572 20.4002 15.9573 20.4003C16.0869 20.4328 16.213 20.4653 16.3384 20.4979L15.9561 22.0331C15.8894 22.301 16.0524 22.5722 16.3202 22.639L17.5318 22.9413C17.6605 22.9734 17.7967 22.9531 17.9104 22.8848C18.0151 22.8219 18.0928 22.723 18.1295 22.6072C18.1075 22.7267 18.1298 22.8505 18.1927 22.9552C18.261 23.0689 18.3717 23.1508 18.5004 23.1829L19.7133 23.4852C19.9812 23.5519 20.2525 23.3889 20.3194 23.1211L20.709 21.5596C21.5905 21.6945 22.4281 21.7188 23.1527 21.4959C24.049 21.22 24.7124 20.5857 25.0866 19.5162C25.3781 18.6838 25.3954 17.953 25.1214 17.3272C24.9804 17.0051 24.7724 16.7343 24.5207 16.5046C24.6477 16.4161 24.7674 16.3134 24.8778 16.1949C25.2279 15.8193 25.452 15.3199 25.5435 14.7021C25.6779 13.8031 25.3947 13.0817 24.845 12.5276C24.4167 12.0958 23.8386 11.7764 23.2108 11.5256L23.5994 9.96704C23.6315 9.83836 23.6111 9.70221 23.5428 9.58854C23.4745 9.47487 23.3639 9.393 23.2352 9.36093L22.0222 9.05863ZM15.5368 18.1293C15.5284 18.146 15.521 18.1631 15.5146 18.1804C15.5212 18.1624 15.5287 18.1454 15.5368 18.1293ZM21.7924 18.3936L21.7923 18.3939C21.7395 18.6059 21.6263 18.7206 21.4518 18.7967C21.2513 18.8842 20.9632 18.9193 20.6046 18.9006C20.1014 18.8744 19.5742 18.7523 19.1492 18.643L19.5766 16.9296C20.0074 17.0279 20.5309 17.1571 20.9925 17.3666C21.3172 17.5139 21.552 17.6772 21.6852 17.8476C21.8002 17.9948 21.8512 18.1578 21.7924 18.3936ZM22.1676 14.4854C22.119 14.68 22.0235 14.7755 21.8959 14.8375C21.7442 14.9112 21.5208 14.947 21.2307 14.9363C20.8503 14.9224 20.4552 14.8361 20.1198 14.751L20.4855 13.2845C20.8253 13.3624 21.2154 13.4635 21.5627 13.6274C21.8228 13.7502 22.0001 13.8839 22.0969 14.019C22.178 14.1321 22.2215 14.269 22.1676 14.4854Z" stroke="#A6AFBD" stroke-linejoin="round"/>
<path d="M8.79662 30.6187L7.83644 21.737C7.62808 19.8097 10.1599 18.9154 11.2082 20.5461C11.3987 20.8424 11.5 21.1873 11.5 21.5395V21.8685C11.5 23.1414 12.3145 24.2715 13.5221 24.674L16.2798 25.5932C17.9834 26.1611 19.8573 25.857 21.2939 24.7796L21.8382 24.3714C22.5854 23.811 23.5157 23.5516 24.4451 23.6445C26.4322 23.8432 28.2228 22.4402 28.5053 20.4632L28.8746 17.8775C28.9515 17.3397 29.3256 16.8915 29.841 16.7197C30.8421 16.386 31.8486 17.2111 31.7177 18.2583L31 24V32.7029C31 34.5324 28.3588 34.794 28 33L26.8292 29.4875C26.4482 28.3447 24.9977 28.0023 24.1459 28.8541L24 29C23.4477 29.5523 22.5523 29.5523 22 29C21.4477 28.4477 20.5523 28.4477 20 29L19.9393 29.0606C19.658 29.342 19.5 29.7235 19.5 30.1213V32C19.5 32.8284 18.8284 33.5 18 33.5C17.1716 33.5 16.5 32.8284 16.5 32V30.0156C16.5 28.6719 15.0484 27.8295 13.8818 28.4961C13.3365 28.8077 13 29.3876 13 30.0156V30.3922C13 31.5563 12.0563 32.5 10.8922 32.5C9.81579 32.5 8.91232 31.6889 8.79662 30.6187Z" stroke="#A6AFBD"/>
<path d="M-1 41L41.4264 -1.42641" stroke="#F0F4F7" stroke-width="4.5"/>
<path d="M-1 41L41.4264 -1.42641" stroke="#50505A" stroke-width="1.5"/>
</g>
<rect x="0.75" y="0.75" width="38.5" height="38.5" rx="19.25" stroke="#50505A" stroke-width="1.5"/>
<defs>
<clipPath id="clip0_110_1274">
<rect width="40" height="40" rx="20" fill="white"/>
</clipPath>
</defs>
</svg>
