<svg width="40" height="40" viewBox="0 0 40 40" fill="none" xmlns="http://www.w3.org/2000/svg">
<g clip-path="url(#clip0_110_1279)">
<rect width="40" height="40" rx="20" fill="#F0F4F7"/>
<path d="M28.3912 17.8335V16.1438C28.4168 14.2083 28.4424 11.9239 28.4101 11.4652C28.1626 7.61938 24.8456 4.35515 20.8593 4.03487C20.6093 4.01438 20.3592 4.00311 20.1158 4.00054C17.9426 3.978 16.024 4.6575 14.4144 6.01904C12.8171 7.37034 11.7677 9.36168 11.6073 11.3458C11.5735 11.7686 11.5735 14.194 11.5781 16.172L11.6073 17.9916M24.7928 15.145V13.867C24.7083 12.0663 24.5151 10.3994 24.1123 9.74856C23.2202 8.30861 21.7413 7.47282 20.0502 7.4554C19.9918 7.4554 19.9334 7.4554 19.8739 7.4554C18.207 7.49076 16.7409 8.34295 15.8498 9.79366C15.4782 10.3994 15.2948 12.0837 15.2051 13.8665V15.1459M20 35.2823C26.0751 35.2823 31 30.538 31 24.6856C31 18.8332 26.0751 14.0889 20 14.0889C13.9249 14.0889 9 18.8332 9 24.6856C9 30.538 13.9249 35.2823 20 35.2823ZM22.0067 22.8629C21.9749 23.012 21.8709 23.1606 21.7392 23.3482C21.5758 23.5813 21.3723 23.8716 21.2821 24.2439C21.1284 24.8675 21.1796 25.5762 21.235 26.328C21.2862 27.0167 21.3375 27.7971 21.1786 28.2414C21.0085 28.7124 20.4786 28.923 20.0287 28.923C19.8319 28.923 19.1714 28.8717 18.9423 28.2414C18.7479 27.7036 18.8064 27.0328 18.8683 26.3232L18.8685 26.3203C18.9259 25.6639 18.9849 24.9854 18.8444 24.331C18.742 23.8621 18.5006 23.5075 18.3059 23.2231C18.2346 23.1206 18.127 22.9623 18.1101 22.9075C17.9713 22.3151 18.0702 21.7365 18.3879 21.2784C18.6825 20.8551 19.1473 20.5723 19.6966 20.4816C19.8322 20.4593 19.9692 20.448 20.1066 20.4478C20.7251 20.4478 21.2662 20.6835 21.6295 21.1139C22.0159 21.5669 22.1497 22.1885 22.0067 22.8629Z" stroke="#A6AFBD"/>
<path d="M-1 41L41.4264 -1.42641" stroke="#F0F4F7" stroke-width="4.5"/>
<path d="M-1 41L41.4264 -1.42641" stroke="#50505A" stroke-width="1.5"/>
</g>
<rect x="0.75" y="0.75" width="38.5" height="38.5" rx="19.25" stroke="#50505A" stroke-width="1.5"/>
<defs>
<clipPath id="clip0_110_1279">
<rect width="40" height="40" rx="20" fill="white"/>
</clipPath>
</defs>
</svg>
