<svg width="40" height="40" viewBox="0 0 40 40" fill="none" xmlns="http://www.w3.org/2000/svg">
<g clip-path="url(#clip0_110_1283)">
<rect width="40" height="40" rx="20" fill="#F0F4F7"/>
<path d="M18.2472 19.6379C17.5221 19.3211 16.7212 19.1454 15.8793 19.1454C12.6101 19.1454 9.95978 21.7956 9.95978 25.0649C9.95978 28.3342 12.6101 30.9845 15.8793 30.9845C18.3636 30.9845 20.4904 29.4541 21.3686 27.2847M18.9871 16.7446C18.0198 16.3832 16.9727 16.1856 15.8793 16.1856C10.9754 16.1856 7 20.161 7 25.0649C7 29.9688 10.9754 33.9442 15.8793 33.9442C19.4629 33.9442 22.5506 31.8214 23.9535 28.7646M21.5806 18.2574C23.5234 19.8862 24.7587 22.3313 24.7587 25.0649C24.7587 25.3141 24.7484 25.5609 24.7283 25.8049M18.5431 16.6295V14.1137C18.5431 13.7868 18.2781 13.5218 17.9512 13.5218H17.8032M13.2155 16.6295V14.1137C13.2155 13.7868 13.4806 13.5218 13.8075 13.5218H13.9555M24.4637 11.9937L23.0207 9.93291C22.8331 9.66511 22.464 9.60002 22.1962 9.78754L22.075 9.87242M20.0996 15.0495L18.6566 12.9887C18.469 12.7209 18.5341 12.3518 18.8019 12.1643L18.9231 12.0794M15.601 7.01026C15.8562 6.47929 16.2473 6.00458 16.7642 5.64263C17.155 5.36894 17.5819 5.18494 18.0202 5.08631C18.4292 4.9943 18.8481 4.97659 19.2573 5.02967C19.6842 5.08505 20.1005 5.2175 20.4835 5.42304C20.5826 5.4762 20.6795 5.53426 20.7737 5.59713C21.0562 5.78558 21.3152 6.01733 21.5403 6.29054C21.5995 6.36245 21.6564 6.43723 21.7108 6.51485C22.8359 8.12167 22.4454 10.3363 20.8386 11.4614C19.2317 12.5866 17.0171 12.1961 15.892 10.5892C15.3981 9.88393 15.1963 9.06153 15.2611 8.26556M19.4189 10.858C19.427 10.7604 19.4311 10.6617 19.4311 10.562C19.4311 8.60043 17.8409 7.01027 15.8793 7.01027C13.9178 7.01027 12.3276 8.60043 12.3276 10.562C12.3276 12.5236 13.9178 14.1137 15.8793 14.1137C16.8159 14.1137 17.6679 13.7512 18.3025 13.1588C18.4156 13.0532 18.5218 12.9402 18.6204 12.8207M31.9689 17.0368C33.8441 19.7148 33.1933 23.406 30.5152 25.2811C27.8372 27.1563 24.1461 26.5055 22.2709 23.8274C20.3957 21.1494 21.0466 17.4583 23.7246 15.5831C26.4026 13.7079 30.0937 14.3588 31.9689 17.0368ZM34.3934 15.3391C37.2062 19.3562 36.2299 24.8929 32.2129 27.7056C28.1958 30.5184 22.6592 29.5422 19.8464 25.5251C17.0336 21.508 18.0099 15.9714 22.0269 13.1586C26.044 10.3458 31.5807 11.3221 34.3934 15.3391Z" stroke="#A6AFBD"/>
<path d="M-1 41L41.4264 -1.42641" stroke="#F0F4F7" stroke-width="4.5"/>
<path d="M-1 41L41.4264 -1.42641" stroke="#50505A" stroke-width="1.5"/>
</g>
<rect x="0.75" y="0.75" width="38.5" height="38.5" rx="19.25" stroke="#50505A" stroke-width="1.5"/>
<defs>
<clipPath id="clip0_110_1283">
<rect width="40" height="40" rx="20" fill="white"/>
</clipPath>
</defs>
</svg>
