<svg width="111" height="40" viewBox="0 0 111 40" fill="none" xmlns="http://www.w3.org/2000/svg">
<g id="blockchain.com">
<rect x="0.5" y="0.5" width="110" height="39" rx="0.5" fill="#F0F4F7"/>
<g id="Group 6269389">
<path id="Vector" d="M68.2889 16.6081C68.2627 16.1358 68.615 15.731 69.0873 15.7047C69.5596 15.6785 69.9644 16.0308 69.9906 16.5031C70.0168 16.9754 69.6645 17.3802 69.1922 17.4064C69.181 17.4064 69.1548 17.4064 69.1398 17.4064C68.6825 17.4177 68.3039 17.0654 68.2889 16.6081ZM68.3564 18.1224H69.9119V23.7409H68.3564V18.1224ZM26.7473 16.2557H23.7412V23.7559H26.9572C28.6439 23.7559 29.5435 22.8789 29.5435 21.6794C29.581 20.7236 28.85 19.9028 27.898 19.8615V19.7828C28.6964 19.6666 29.2848 18.9732 29.2586 18.1748C29.2436 17.0541 28.4078 16.2557 26.7473 16.2557ZM27.6394 18.426C27.6394 19.0144 27.1296 19.3818 26.5149 19.3818L25.3117 19.393V17.5226H26.5411C27.2458 17.5226 27.6394 17.8375 27.6394 18.426ZM27.8718 21.507C27.8718 22.0692 27.5044 22.4366 26.6161 22.4366H25.308V20.45H26.6199C27.2196 20.36 27.7706 20.7761 27.8605 21.3796C27.8718 21.417 27.8718 21.4695 27.8718 21.507ZM30.3044 23.7559H31.8861L31.8599 16.2557H30.3044V23.7559ZM32.707 20.9598C32.707 19.2206 33.764 18.0586 35.4769 18.0586C37.1749 18.0586 38.2469 19.2206 38.2469 20.9598C38.2469 22.6989 37.1899 23.8609 35.4769 23.8609C33.7677 23.8609 32.707 22.6989 32.707 20.9598ZM36.6539 20.9598C36.6539 19.9815 36.2491 19.2618 35.4769 19.2618C34.7048 19.2618 34.2887 19.9815 34.2887 20.9598C34.2887 21.9381 34.6935 22.6577 35.4769 22.6577C36.2603 22.6577 36.6539 21.9381 36.6539 20.9598ZM41.594 18.0586C39.8811 18.0586 38.8353 19.2356 38.8353 20.9598C38.8353 22.6839 39.8661 23.8609 41.594 23.8609C43.0708 23.8609 44.0116 22.9838 44.0903 21.6907H42.6135C42.5761 22.2267 42.13 22.6465 41.594 22.6315C40.8631 22.6315 40.3908 21.9905 40.3908 20.9448C40.3908 19.899 40.8631 19.2731 41.594 19.2731C42.13 19.2618 42.5723 19.6779 42.6135 20.2139H44.0903C44.0379 18.9095 43.0558 18.0586 41.594 18.0586ZM44.9112 16.2557H46.478V20.2551H46.5567L48.3596 18.1261H50.1512L48.0597 20.555L50.2562 23.7447H48.4271L46.8978 21.4695L46.478 21.953V23.7559H44.9225V16.2557H44.9112ZM53.0149 18.0586C51.3019 18.0586 50.2562 19.2356 50.2562 20.9598C50.2562 22.6839 51.2869 23.8609 53.0261 23.8609C54.5142 23.8609 55.455 22.9838 55.5224 21.6907H54.0606C54.0232 22.2267 53.5771 22.6465 53.0411 22.6315C52.3102 22.6315 51.8379 21.9905 51.8379 20.9448C51.8379 19.899 52.3102 19.2731 53.0411 19.2731C53.5771 19.2618 54.0344 19.6779 54.0606 20.2139H55.5224C55.47 18.9095 54.4767 18.0586 53.0149 18.0586ZM57.8876 23.7559H56.3321V16.2557H57.8464V19.1306H57.9101C58.1724 18.4372 58.8509 18.0062 59.5968 18.0586C60.7587 18.0586 61.5421 18.857 61.5421 20.1764V23.7559H59.9791V20.45C60.0578 19.929 59.6905 19.4455 59.1695 19.3668C59.1058 19.3555 59.0383 19.3555 58.9746 19.3555C58.4011 19.3293 57.9026 19.7753 57.8763 20.3488C57.8763 20.4013 57.8763 20.4538 57.8763 20.5062L57.8876 23.7559ZM64.4207 20.45C63.3113 20.555 62.303 20.9335 62.303 22.1892C62.303 23.2987 63.1014 23.8609 64.1734 23.8609C64.8518 23.9134 65.4927 23.561 65.8188 22.9726H65.8563V23.7559H67.3331V19.9515C67.3331 18.6059 66.1974 18.0436 64.9417 18.0436C63.5961 18.0436 62.7078 18.6846 62.4867 19.7153L63.926 19.8315C64.0684 19.4117 64.4882 19.1531 64.9193 19.2056C65.4553 19.2056 65.7551 19.4792 65.7551 19.9365C65.7664 20.3076 65.3878 20.3451 64.4207 20.45ZM65.7814 21.1172V21.7431C65.7439 22.3429 65.2341 22.7889 64.6306 22.7627C64.6194 22.7627 64.6194 22.7627 64.6044 22.7627C64.1209 22.7627 63.7798 22.5415 63.7798 22.1105C63.7798 21.6794 64.1471 21.4583 64.6944 21.3796C65.0767 21.3383 65.4403 21.2484 65.7814 21.1172ZM70.9314 23.7559H72.5132L72.4869 20.5025C72.4232 19.9402 72.828 19.4305 73.3903 19.3518C73.4427 19.3518 73.4952 19.3405 73.5477 19.3518C74.0837 19.3255 74.526 19.7303 74.5522 20.2663C74.5522 20.3301 74.5522 20.3825 74.541 20.45V23.7559H76.1077V20.1764C76.1077 18.8682 75.3356 18.0586 74.1624 18.0586C73.4315 18.0062 72.7381 18.4372 72.4644 19.1306H72.4007V18.1373H70.9127V23.7559H70.9314Z" fill="black"/>
<path id="Vector_2" d="M93.2863 18.1222H91.7982V23.7408H93.365V20.3711C93.3275 19.9775 93.5487 19.599 93.901 19.4303C94.0172 19.3778 94.1484 19.3403 94.2796 19.3403C94.6469 19.3291 94.973 19.5502 95.0892 19.9026C95.1267 20.0188 95.1417 20.1387 95.1267 20.2549V23.7558H96.641V20.3186C96.5885 19.8351 96.9408 19.4041 97.4243 19.3516C97.4618 19.3516 97.5143 19.3516 97.5555 19.3516C98.0128 19.3254 98.4064 19.6927 98.4326 20.15C98.4326 20.2024 98.4326 20.2399 98.4326 20.2924V23.7558H99.9994V20.0038C100.026 18.9993 99.2422 18.1597 98.234 18.1334C97.5293 18.1222 96.8883 18.5007 96.5622 19.1267H96.4723C96.2774 18.4595 95.6364 18.0172 94.943 18.0547C94.2383 18.0172 93.5974 18.4595 93.3762 19.1267H93.3125L93.2863 18.1222ZM82.3639 18.0585C80.651 18.0585 79.6053 19.2354 79.6053 20.9596C79.6053 22.6838 80.636 23.8607 82.3902 23.8607C83.8782 23.8607 84.819 22.9836 84.8865 21.6905H83.4247C83.3872 22.2265 82.9412 22.6463 82.4052 22.6313C81.6855 22.6313 81.202 21.9903 81.202 20.9446C81.202 19.8988 81.6743 19.2729 82.4052 19.2729C82.9412 19.2616 83.3985 19.6777 83.4247 20.2137H84.864C84.819 18.9093 83.8258 18.0585 82.3639 18.0585ZM77.4238 22.3464C77.0827 22.6875 77.0827 23.2497 77.4238 23.5871C77.7649 23.9282 78.3271 23.9282 78.6644 23.5871C79.0055 23.246 79.0055 22.6838 78.6644 22.3464C78.4958 22.1778 78.2709 22.084 78.0385 22.084C77.8174 22.0953 77.5925 22.189 77.4238 22.3464ZM85.46 20.9596C85.46 19.2204 86.517 18.0585 88.2299 18.0585C89.9429 18.0585 90.9886 19.2204 90.9886 20.9596C90.9886 22.6988 89.9316 23.8607 88.2299 23.8607C86.5282 23.8607 85.46 22.6988 85.46 20.9596ZM89.4069 20.9596C89.4069 19.9813 89.0021 19.2616 88.2299 19.2616C87.4578 19.2616 87.0417 19.9813 87.0417 20.9596C87.0417 21.9379 87.4465 22.6575 88.2299 22.6575C89.0133 22.6575 89.4069 21.9379 89.4069 20.9596Z" fill="#B2B9C7" fill-opacity="0.6"/>
<path id="Vector_3" d="M10.8586 18.6321L10.4013 19.0894C9.88031 19.5841 9.86532 20.4087 10.3638 20.9335C10.3751 20.9447 10.3901 20.9597 10.4013 20.971L14.0746 24.6817C14.1645 24.7717 14.2582 24.8504 14.3744 24.9029V20.3975L10.8586 18.6321Z" fill="#3D89F5"/>
<path id="Vector_4" d="M19.1423 18.6321L19.5996 19.0894C20.1094 19.5841 20.1356 20.4087 19.6371 20.9335C19.6258 20.9447 19.6108 20.9597 19.5996 20.971L15.9151 24.6705C15.8251 24.7604 15.7314 24.8391 15.6152 24.8916V20.3975L19.1423 18.6321Z" fill="#1656B9"/>
<path id="Vector_5" d="M18.253 17.6914L15.9516 15.3899C15.4418 14.8802 14.6172 14.8689 14.1074 15.3637C14.0962 15.375 14.0812 15.375 14.0812 15.3899L11.7686 17.6914L14.9958 19.2993L18.253 17.6914Z" fill="#85B5F8"/>
</g>
<rect x="0.5" y="0.5" width="110" height="39" rx="0.5" stroke="#A6AFBD"/>
</g>
</svg>
