<svg width="477" height="235" viewBox="0 0 477 235" fill="none" xmlns="http://www.w3.org/2000/svg">
<g clip-path="url(#clip0_310_5280)">
<g opacity="0.3">
<path d="M200.054 180.035L241.687 107.759L283.32 180.035H200.054Z" stroke="#F0F4F7" stroke-width="31"/>
<path d="M133.825 218.166L241.687 31.038L349.549 218.166H133.825Z" stroke="#F0F4F7" stroke-width="31"/>
<path fill-rule="evenodd" clip-rule="evenodd" d="M309.03 116.926L242.264 1.00183L241.687 0L241.11 1.00182L174.343 116.926L107.577 232.666L107 233.666H108.154H241.687H375.219H375.29L375.497 233.786L375.566 233.666H376.374L375.97 232.967L375.997 232.92L375.916 232.873L375.797 232.666L309.03 116.926ZM374.184 231.872L308.164 117.426L308.164 117.425L242.187 2.8715V39.2221L242.263 39.3545L342.666 213.658L374.184 231.872ZM373.559 232.666L342.433 214.678H342.1H141.272H141.079L109.995 232.666H241.687H373.559ZM109.098 232.03L175.21 117.426L175.21 117.425L241.187 2.87208V39.2195L241.109 39.3545L140.694 213.678L140.636 213.78L109.098 232.03ZM142.367 212.778L241.187 41.223V77.5745L241.11 77.7074L173.814 194.535L173.776 194.602L142.367 212.778ZM142.807 213.678H340.702L309.306 195.535H308.982H174.392H174.16L142.807 213.678ZM175.888 194.535H307.576L276.179 176.391H275.862H207.511H207.242L175.888 194.535ZM208.97 175.391H274.449L241.687 156.459L208.97 175.391ZM276.437 175.386L307.822 193.523L242.187 79.5763V115.925L242.264 116.06L276.437 175.386ZM242.187 117.929L274.707 174.386L242.187 155.593V117.929ZM241.187 117.93V155.593L208.645 174.424L241.187 117.93ZM241.187 115.926L241.11 116.06L206.933 175.391L206.913 175.426L175.507 193.6L241.187 79.5779V115.926ZM242.187 77.5728V41.2255L340.936 212.658L309.552 194.522L242.264 77.7074L242.187 77.5728Z" fill="#A6AFBD"/>
</g>
<g style="mix-blend-mode:multiply">
<path d="M242.01 155.636L242.082 0.440933L196.511 129.653L241.762 155.779L242.01 155.636Z" fill="#BB3E49"/>
<path d="M299.841 122.068L242.01 155.636L242.082 0.646419L299.841 122.068Z" fill="#BB3E49"/>
</g>
<g style="mix-blend-mode:multiply">
<path d="M343.942 214.773L241.988 203.154L241.979 155.904L343.942 214.773Z" fill="#D0C018"/>
<path d="M343.942 214.773L299.842 122.068L241.762 155.78L343.942 214.773Z" fill="#D0C018"/>
</g>
<g style="mix-blend-mode:multiply">
<path d="M173.577 195.358L241.763 155.779L241.979 155.904L241.989 203.154L173.577 195.358Z" fill="#266763"/>
<path d="M241.763 155.779L196.598 129.703L173.577 195.358L241.763 155.779Z" fill="#266763"/>
</g>
<circle cx="340.208" cy="212.617" r="5.38515" transform="rotate(120 340.208 212.617)" fill="#D0C018" stroke="#FBFCFD" stroke-width="2"/>
<circle cx="177.198" cy="193.009" r="5.38515" transform="rotate(120 177.198 193.009)" fill="#266763" stroke="#FBFCFD" stroke-width="2"/>
<circle cx="241.83" cy="4.63572" r="5.38515" transform="rotate(120 241.83 4.63572)" fill="#BB3E49" stroke="#FBFCFD" stroke-width="2"/>
</g>
<rect x="373.5" y="187.5" width="87" height="19" rx="0.5" fill="#50505A" stroke="#50505A"/>
<path d="M383.656 199.077C383.656 198.862 383.62 198.671 383.549 198.502C383.477 198.334 383.359 198.184 383.194 198.051C383.033 197.915 382.815 197.79 382.539 197.675C382.267 197.557 381.927 197.441 381.519 197.326C381.128 197.215 380.776 197.093 380.46 196.961C380.145 196.828 379.875 196.676 379.649 196.504C379.427 196.333 379.257 196.132 379.139 195.903C379.021 195.67 378.962 195.4 378.962 195.092C378.962 194.791 379.026 194.517 379.155 194.27C379.284 194.023 379.465 193.81 379.698 193.631C379.934 193.452 380.212 193.314 380.53 193.217C380.853 193.121 381.205 193.072 381.588 193.072C382.136 193.072 382.609 193.176 383.006 193.384C383.407 193.591 383.717 193.873 383.936 194.227C384.158 194.578 384.269 194.972 384.269 195.409H383.608C383.608 195.069 383.527 194.766 383.366 194.501C383.209 194.232 382.979 194.023 382.679 193.873C382.382 193.719 382.018 193.642 381.588 193.642C381.159 193.642 380.797 193.708 380.503 193.84C380.213 193.969 379.993 194.143 379.843 194.361C379.696 194.576 379.623 194.816 379.623 195.081C379.623 195.267 379.658 195.439 379.73 195.597C379.802 195.751 379.918 195.896 380.079 196.032C380.244 196.164 380.46 196.29 380.729 196.408C380.998 196.522 381.329 196.632 381.723 196.735C382.138 196.85 382.507 196.977 382.829 197.117C383.151 197.256 383.424 197.417 383.646 197.6C383.868 197.779 384.036 197.989 384.15 198.229C384.265 198.468 384.322 198.748 384.322 199.066C384.322 199.385 384.254 199.672 384.118 199.926C383.986 200.176 383.798 200.389 383.554 200.565C383.314 200.74 383.03 200.875 382.7 200.968C382.374 201.061 382.018 201.107 381.631 201.107C381.284 201.107 380.938 201.063 380.595 200.973C380.251 200.884 379.936 200.746 379.649 200.56C379.367 200.37 379.139 200.126 378.967 199.829C378.799 199.532 378.715 199.177 378.715 198.766H379.37C379.37 199.095 379.436 199.373 379.569 199.598C379.701 199.824 379.877 200.006 380.095 200.146C380.317 200.286 380.561 200.388 380.826 200.452C381.094 200.513 381.363 200.543 381.631 200.543C382.043 200.543 382.399 200.483 382.7 200.361C383.005 200.239 383.239 200.069 383.404 199.851C383.572 199.629 383.656 199.371 383.656 199.077ZM391.525 196.671V197.509C391.525 198.057 391.453 198.553 391.31 198.997C391.17 199.437 390.966 199.815 390.698 200.13C390.433 200.445 390.114 200.687 389.742 200.855C389.369 201.023 388.95 201.107 388.485 201.107C388.03 201.107 387.615 201.023 387.239 200.855C386.866 200.687 386.546 200.445 386.277 200.13C386.009 199.815 385.801 199.437 385.654 198.997C385.507 198.553 385.434 198.057 385.434 197.509V196.671C385.434 196.123 385.506 195.629 385.649 195.188C385.796 194.744 386.003 194.365 386.272 194.05C386.541 193.735 386.861 193.493 387.233 193.325C387.606 193.156 388.019 193.072 388.474 193.072C388.94 193.072 389.359 193.156 389.731 193.325C390.103 193.493 390.424 193.735 390.692 194.05C390.961 194.365 391.167 194.744 391.31 195.188C391.453 195.629 391.525 196.123 391.525 196.671ZM390.87 197.509V196.66C390.87 196.198 390.816 195.783 390.708 195.414C390.605 195.045 390.449 194.73 390.241 194.469C390.037 194.207 389.786 194.007 389.489 193.867C389.192 193.728 388.854 193.658 388.474 193.658C388.105 193.658 387.774 193.728 387.48 193.867C387.187 194.007 386.936 194.207 386.729 194.469C386.524 194.73 386.367 195.045 386.256 195.414C386.148 195.783 386.095 196.198 386.095 196.66V197.509C386.095 197.974 386.148 198.393 386.256 198.766C386.367 199.134 386.526 199.451 386.734 199.716C386.942 199.978 387.192 200.178 387.486 200.318C387.783 200.458 388.116 200.527 388.485 200.527C388.868 200.527 389.206 200.458 389.5 200.318C389.794 200.178 390.042 199.978 390.247 199.716C390.451 199.451 390.605 199.134 390.708 198.766C390.816 198.393 390.87 197.974 390.87 197.509ZM398.067 198.562H398.728C398.674 199.088 398.529 199.543 398.292 199.926C398.056 200.305 397.734 200.597 397.326 200.801C396.917 201.005 396.425 201.107 395.849 201.107C395.405 201.107 395.002 201.023 394.64 200.855C394.282 200.687 393.974 200.449 393.716 200.141C393.458 199.829 393.26 199.457 393.12 199.023C392.98 198.59 392.911 198.109 392.911 197.579V196.601C392.911 196.071 392.98 195.591 393.12 195.162C393.26 194.728 393.46 194.356 393.722 194.044C393.983 193.733 394.296 193.493 394.662 193.325C395.027 193.156 395.439 193.072 395.897 193.072C396.452 193.072 396.932 193.174 397.336 193.378C397.741 193.579 398.06 193.869 398.292 194.249C398.529 194.628 398.674 195.086 398.728 195.624H398.067C398.017 195.201 397.906 194.843 397.734 194.549C397.562 194.256 397.324 194.032 397.02 193.878C396.719 193.72 396.345 193.642 395.897 193.642C395.532 193.642 395.206 193.711 394.919 193.851C394.633 193.991 394.389 194.191 394.189 194.453C393.988 194.71 393.834 195.02 393.727 195.382C393.623 195.743 393.571 196.146 393.571 196.59V197.579C393.571 198.008 393.621 198.404 393.722 198.766C393.822 199.127 393.969 199.441 394.162 199.706C394.359 199.971 394.599 200.176 394.882 200.323C395.165 200.47 395.487 200.543 395.849 200.543C396.311 200.543 396.695 200.47 397.003 200.323C397.315 200.173 397.557 199.951 397.729 199.657C397.9 199.364 398.013 198.998 398.067 198.562ZM401.145 193.18V201H400.484V193.18H401.145ZM405.936 193.647L403.229 201H402.541L405.495 193.18H405.973L405.936 193.647ZM408.396 201L405.683 193.647L405.646 193.18H406.124L409.083 201H408.396ZM407.912 198.239V198.809H403.76V198.239H407.912ZM414.766 200.436V201H410.71V200.436H414.766ZM410.904 193.18V201H410.243V193.18H410.904ZM418.713 193.18H421.254C421.795 193.18 422.264 193.267 422.661 193.443C423.059 193.618 423.365 193.878 423.58 194.222C423.798 194.562 423.907 194.981 423.907 195.479C423.907 195.847 423.828 196.182 423.671 196.483C423.517 196.784 423.304 197.036 423.032 197.24C422.76 197.441 422.444 197.579 422.086 197.654L421.855 197.74H419.143L419.132 197.176H421.404C421.812 197.176 422.153 197.097 422.425 196.939C422.697 196.782 422.901 196.574 423.037 196.316C423.177 196.055 423.247 195.776 423.247 195.479C423.247 195.124 423.17 194.818 423.016 194.56C422.865 194.299 422.641 194.098 422.344 193.958C422.047 193.819 421.684 193.749 421.254 193.749H419.374V201H418.713V193.18ZM423.542 201L421.517 197.503L422.226 197.498L424.246 200.93V201H423.542ZM428.29 193.647L425.583 201H424.896L427.85 193.18H428.328L428.29 193.647ZM430.75 201L428.038 193.647L428 193.18H428.478L431.438 201H430.75ZM430.267 198.239V198.809H426.115V198.239H430.267ZM434.521 193.18V201H433.865V193.18H434.521ZM437.201 193.18V193.749H431.19V193.18H437.201ZM439.279 193.18V201H438.619V193.18H439.279ZM447.229 193.18V201H446.562L442.067 194.318V201H441.406V193.18H442.067L446.573 199.861V193.18H447.229ZM454.866 197.283V200.065C454.777 200.198 454.623 200.345 454.404 200.506C454.186 200.667 453.892 200.808 453.523 200.93C453.155 201.048 452.696 201.107 452.148 201.107C451.69 201.107 451.269 201.025 450.886 200.86C450.503 200.696 450.17 200.458 449.887 200.146C449.608 199.831 449.391 199.453 449.237 199.013C449.087 198.572 449.012 198.078 449.012 197.53V196.585C449.012 196.048 449.082 195.564 449.221 195.135C449.361 194.701 449.563 194.331 449.828 194.023C450.093 193.715 450.412 193.48 450.784 193.319C451.16 193.155 451.581 193.072 452.046 193.072C452.626 193.072 453.115 193.173 453.513 193.373C453.91 193.574 454.22 193.849 454.442 194.2C454.667 194.548 454.807 194.941 454.861 195.382H454.2C454.15 195.07 454.046 194.784 453.889 194.522C453.731 194.257 453.502 194.044 453.201 193.883C452.904 193.722 452.519 193.642 452.046 193.642C451.667 193.642 451.328 193.711 451.031 193.851C450.738 193.991 450.491 194.189 450.29 194.447C450.09 194.705 449.937 195.015 449.833 195.376C449.73 195.735 449.678 196.134 449.678 196.574V197.53C449.678 197.989 449.735 198.402 449.85 198.771C449.968 199.14 450.136 199.457 450.354 199.722C450.573 199.987 450.834 200.191 451.139 200.334C451.443 200.474 451.781 200.543 452.154 200.543C452.551 200.543 452.89 200.506 453.169 200.431C453.448 200.355 453.672 200.266 453.84 200.162C454.012 200.055 454.136 199.954 454.211 199.861V197.847H452.111V197.283H454.866Z" fill="#FBFCFD"/>
<circle cx="471" cy="197" r="5.5" stroke="#A6AFBD"/>
<path d="M471.42 198.612H470.331C470.334 198.31 470.36 198.056 470.409 197.851C470.458 197.642 470.539 197.453 470.653 197.284C470.771 197.115 470.925 196.936 471.117 196.747C471.267 196.604 471.402 196.469 471.522 196.342C471.643 196.212 471.739 196.075 471.811 195.932C471.882 195.785 471.918 195.618 471.918 195.429C471.918 195.224 471.884 195.049 471.815 194.906C471.747 194.763 471.646 194.654 471.513 194.579C471.382 194.504 471.22 194.467 471.024 194.467C470.862 194.467 470.709 194.499 470.565 194.564C470.422 194.626 470.307 194.724 470.219 194.857C470.131 194.988 470.084 195.16 470.077 195.375H468.9C468.907 194.965 469.005 194.62 469.193 194.34C469.382 194.06 469.636 193.85 469.955 193.71C470.274 193.57 470.631 193.5 471.024 193.5C471.461 193.5 471.833 193.575 472.143 193.725C472.452 193.871 472.688 194.086 472.851 194.369C473.017 194.649 473.1 194.988 473.1 195.385C473.1 195.671 473.043 195.932 472.929 196.166C472.815 196.397 472.667 196.614 472.484 196.815C472.302 197.014 472.105 197.213 471.894 197.411C471.711 197.577 471.588 197.758 471.522 197.953C471.457 198.145 471.423 198.365 471.42 198.612ZM470.233 200.136C470.233 199.96 470.294 199.812 470.414 199.691C470.535 199.568 470.699 199.506 470.907 199.506C471.116 199.506 471.28 199.568 471.4 199.691C471.521 199.812 471.581 199.96 471.581 200.136C471.581 200.312 471.521 200.461 471.4 200.585C471.28 200.705 471.116 200.766 470.907 200.766C470.699 200.766 470.535 200.705 470.414 200.585C470.294 200.461 470.233 200.312 470.233 200.136Z" fill="#A6AFBD"/>
<rect x="0.5" y="187.5" width="87" height="19" rx="0.5" fill="#50505A" stroke="#50505A"/>
<path d="M7.68066 193.18V201H7.02539V193.18H7.68066ZM10.3608 193.18V193.749H4.35059V193.18H10.3608ZM11.6177 193.18H14.1582C14.6989 193.18 15.168 193.267 15.5654 193.443C15.9629 193.618 16.269 193.878 16.4839 194.222C16.7023 194.562 16.8115 194.981 16.8115 195.479C16.8115 195.847 16.7327 196.182 16.5752 196.483C16.4212 196.784 16.2082 197.036 15.936 197.24C15.6639 197.441 15.3488 197.579 14.9907 197.654L14.7598 197.74H12.0474L12.0366 197.176H14.3086C14.7168 197.176 15.057 197.097 15.3291 196.939C15.6012 196.782 15.8053 196.574 15.9414 196.316C16.0811 196.055 16.1509 195.776 16.1509 195.479C16.1509 195.124 16.0739 194.818 15.9199 194.56C15.7695 194.299 15.5457 194.098 15.2485 193.958C14.9513 193.819 14.5879 193.749 14.1582 193.749H12.2783V201H11.6177V193.18ZM16.4463 201L14.4214 197.503L15.1304 197.498L17.1499 200.93V201H16.4463ZM21.1943 193.647L18.4873 201H17.7998L20.7539 193.18H21.2319L21.1943 193.647ZM23.6543 201L20.9419 193.647L20.9043 193.18H21.3823L24.3418 201H23.6543ZM23.1709 198.239V198.809H19.019V198.239H23.1709ZM31.3242 193.18V201H30.6582L26.1626 194.318V201H25.502V193.18H26.1626L30.6689 199.861V193.18H31.3242ZM37.748 199.077C37.748 198.862 37.7122 198.671 37.6406 198.502C37.569 198.334 37.4508 198.184 37.2861 198.051C37.125 197.915 36.9066 197.79 36.6309 197.675C36.3587 197.557 36.0186 197.441 35.6104 197.326C35.2201 197.215 34.8674 197.093 34.5522 196.961C34.2371 196.828 33.9668 196.676 33.7412 196.504C33.5192 196.333 33.3491 196.132 33.231 195.903C33.1128 195.67 33.0537 195.4 33.0537 195.092C33.0537 194.791 33.1182 194.517 33.2471 194.27C33.376 194.023 33.5568 193.81 33.7896 193.631C34.0259 193.452 34.3034 193.314 34.6221 193.217C34.9443 193.121 35.297 193.072 35.6802 193.072C36.228 193.072 36.7007 193.176 37.0981 193.384C37.4992 193.591 37.8089 193.873 38.0273 194.227C38.2493 194.578 38.3604 194.972 38.3604 195.409H37.6997C37.6997 195.069 37.6191 194.766 37.458 194.501C37.3005 194.232 37.0713 194.023 36.7705 193.873C36.4733 193.719 36.1099 193.642 35.6802 193.642C35.2505 193.642 34.8888 193.708 34.5952 193.84C34.3052 193.969 34.085 194.143 33.9346 194.361C33.7878 194.576 33.7144 194.816 33.7144 195.081C33.7144 195.267 33.7502 195.439 33.8218 195.597C33.8934 195.751 34.0098 195.896 34.1709 196.032C34.3356 196.164 34.5522 196.29 34.8208 196.408C35.0894 196.522 35.4206 196.632 35.8145 196.735C36.2298 196.85 36.5986 196.977 36.9209 197.117C37.2432 197.256 37.5153 197.417 37.7373 197.6C37.9593 197.779 38.1276 197.989 38.2422 198.229C38.3568 198.468 38.4141 198.748 38.4141 199.066C38.4141 199.385 38.346 199.672 38.21 199.926C38.0775 200.176 37.8895 200.389 37.646 200.565C37.4061 200.74 37.1214 200.875 36.792 200.968C36.4661 201.061 36.1099 201.107 35.7231 201.107C35.3758 201.107 35.0303 201.063 34.6865 200.973C34.3428 200.884 34.0277 200.746 33.7412 200.56C33.4583 200.37 33.231 200.126 33.0591 199.829C32.8908 199.532 32.8066 199.177 32.8066 198.766H33.4619C33.4619 199.095 33.5282 199.373 33.6606 199.598C33.7931 199.824 33.9686 200.006 34.187 200.146C34.409 200.286 34.6525 200.388 34.9175 200.452C35.186 200.513 35.4546 200.543 35.7231 200.543C36.1349 200.543 36.4912 200.483 36.792 200.361C37.0964 200.239 37.3309 200.069 37.4956 199.851C37.6639 199.629 37.748 199.371 37.748 199.077ZM42.4102 193.647L39.7031 201H39.0156L41.9697 193.18H42.4478L42.4102 193.647ZM44.8701 201L42.1577 193.647L42.1201 193.18H42.5981L45.5576 201H44.8701ZM44.3867 198.239V198.809H40.2349V198.239H44.3867ZM51.5249 198.562H52.1855C52.1318 199.088 51.9868 199.543 51.7505 199.926C51.5142 200.305 51.1919 200.597 50.7837 200.801C50.3755 201.005 49.8831 201.107 49.3066 201.107C48.8626 201.107 48.4598 201.023 48.0981 200.855C47.7401 200.687 47.4321 200.449 47.1743 200.141C46.9165 199.829 46.7178 199.457 46.5781 199.023C46.4385 198.59 46.3687 198.109 46.3687 197.579V196.601C46.3687 196.071 46.4385 195.591 46.5781 195.162C46.7178 194.728 46.9183 194.356 47.1797 194.044C47.4411 193.733 47.7544 193.493 48.1196 193.325C48.4849 193.156 48.8966 193.072 49.355 193.072C49.91 193.072 50.3898 193.174 50.7944 193.378C51.1991 193.579 51.5177 193.869 51.7505 194.249C51.9868 194.628 52.1318 195.086 52.1855 195.624H51.5249C51.4748 195.201 51.3638 194.843 51.1919 194.549C51.02 194.256 50.7819 194.032 50.4775 193.878C50.1768 193.72 49.8026 193.642 49.355 193.642C48.9897 193.642 48.6639 193.711 48.3774 193.851C48.091 193.991 47.8475 194.191 47.647 194.453C47.4465 194.71 47.2925 195.02 47.1851 195.382C47.0812 195.743 47.0293 196.146 47.0293 196.59V197.579C47.0293 198.008 47.0794 198.404 47.1797 198.766C47.2799 199.127 47.4268 199.441 47.6201 199.706C47.8171 199.971 48.057 200.176 48.3398 200.323C48.6227 200.47 48.945 200.543 49.3066 200.543C49.7686 200.543 50.1535 200.47 50.4614 200.323C50.7729 200.173 51.0146 199.951 51.1865 199.657C51.3584 199.364 51.4712 198.998 51.5249 198.562ZM56.2568 193.18V201H55.6016V193.18H56.2568ZM58.937 193.18V193.749H52.9268V193.18H58.937ZM61.0156 193.18V201H60.355V193.18H61.0156ZM68.9165 196.671V197.509C68.9165 198.057 68.8449 198.553 68.7017 198.997C68.562 199.437 68.3579 199.815 68.0894 200.13C67.8244 200.445 67.5057 200.687 67.1333 200.855C66.7609 201.023 66.342 201.107 65.8765 201.107C65.4217 201.107 65.0063 201.023 64.6304 200.855C64.258 200.687 63.9375 200.445 63.6689 200.13C63.4004 199.815 63.1927 199.437 63.0459 198.997C62.8991 198.553 62.8257 198.057 62.8257 197.509V196.671C62.8257 196.123 62.8973 195.629 63.0405 195.188C63.1873 194.744 63.395 194.365 63.6636 194.05C63.9321 193.735 64.2526 193.493 64.625 193.325C64.9974 193.156 65.411 193.072 65.8657 193.072C66.3312 193.072 66.7502 193.156 67.1226 193.325C67.495 193.493 67.8154 193.735 68.084 194.05C68.3525 194.365 68.5584 194.744 68.7017 195.188C68.8449 195.629 68.9165 196.123 68.9165 196.671ZM68.2612 197.509V196.66C68.2612 196.198 68.2075 195.783 68.1001 195.414C67.9963 195.045 67.8405 194.73 67.6328 194.469C67.4287 194.207 67.1781 194.007 66.8809 193.867C66.5837 193.728 66.2453 193.658 65.8657 193.658C65.4969 193.658 65.1657 193.728 64.8721 193.867C64.5785 194.007 64.3278 194.207 64.1201 194.469C63.916 194.73 63.7585 195.045 63.6475 195.414C63.54 195.783 63.4863 196.198 63.4863 196.66V197.509C63.4863 197.974 63.54 198.393 63.6475 198.766C63.7585 199.134 63.9178 199.451 64.1255 199.716C64.3332 199.978 64.5838 200.178 64.8774 200.318C65.1746 200.458 65.5076 200.527 65.8765 200.527C66.2596 200.527 66.598 200.458 66.8916 200.318C67.1852 200.178 67.4341 199.978 67.6382 199.716C67.8423 199.451 67.9963 199.134 68.1001 198.766C68.2075 198.393 68.2612 197.974 68.2612 197.509ZM76.4092 193.18V201H75.7432L71.2476 194.318V201H70.5869V193.18H71.2476L75.7539 199.861V193.18H76.4092ZM82.833 199.077C82.833 198.862 82.7972 198.671 82.7256 198.502C82.654 198.334 82.5358 198.184 82.3711 198.051C82.21 197.915 81.9915 197.79 81.7158 197.675C81.4437 197.557 81.1035 197.441 80.6953 197.326C80.305 197.215 79.9523 197.093 79.6372 196.961C79.3221 196.828 79.0518 196.676 78.8262 196.504C78.6042 196.333 78.4341 196.132 78.3159 195.903C78.1978 195.67 78.1387 195.4 78.1387 195.092C78.1387 194.791 78.2031 194.517 78.332 194.27C78.4609 194.023 78.6418 193.81 78.8745 193.631C79.1108 193.452 79.3883 193.314 79.707 193.217C80.0293 193.121 80.382 193.072 80.7651 193.072C81.313 193.072 81.7856 193.176 82.1831 193.384C82.5841 193.591 82.8939 193.873 83.1123 194.227C83.3343 194.578 83.4453 194.972 83.4453 195.409H82.7847C82.7847 195.069 82.7041 194.766 82.543 194.501C82.3854 194.232 82.1562 194.023 81.8555 193.873C81.5583 193.719 81.1948 193.642 80.7651 193.642C80.3354 193.642 79.9738 193.708 79.6802 193.84C79.3901 193.969 79.1699 194.143 79.0195 194.361C78.8727 194.576 78.7993 194.816 78.7993 195.081C78.7993 195.267 78.8351 195.439 78.9067 195.597C78.9784 195.751 79.0947 195.896 79.2559 196.032C79.4206 196.164 79.6372 196.29 79.9058 196.408C80.1743 196.522 80.5055 196.632 80.8994 196.735C81.3148 196.85 81.6836 196.977 82.0059 197.117C82.3281 197.256 82.6003 197.417 82.8223 197.6C83.0443 197.779 83.2126 197.989 83.3271 198.229C83.4417 198.468 83.499 198.748 83.499 199.066C83.499 199.385 83.431 199.672 83.2949 199.926C83.1624 200.176 82.9744 200.389 82.731 200.565C82.491 200.74 82.2064 200.875 81.877 200.968C81.5511 201.061 81.1948 201.107 80.8081 201.107C80.4608 201.107 80.1152 201.063 79.7715 200.973C79.4277 200.884 79.1126 200.746 78.8262 200.56C78.5433 200.37 78.3159 200.126 78.144 199.829C77.9757 199.532 77.8916 199.177 77.8916 198.766H78.5469C78.5469 199.095 78.6131 199.373 78.7456 199.598C78.8781 199.824 79.0535 200.006 79.272 200.146C79.494 200.286 79.7375 200.388 80.0024 200.452C80.271 200.513 80.5396 200.543 80.8081 200.543C81.2199 200.543 81.5762 200.483 81.877 200.361C82.1813 200.239 82.4159 200.069 82.5806 199.851C82.7489 199.629 82.833 199.371 82.833 199.077Z" fill="#FBFCFD"/>
<circle cx="98" cy="197" r="5.5" stroke="#A6AFBD"/>
<path d="M98.4199 198.612H97.3311C97.3343 198.31 97.3604 198.056 97.4092 197.851C97.458 197.642 97.5394 197.453 97.6533 197.284C97.7705 197.115 97.9251 196.936 98.1172 196.747C98.2669 196.604 98.402 196.469 98.5225 196.342C98.6429 196.212 98.7389 196.075 98.8105 195.932C98.8822 195.785 98.918 195.618 98.918 195.429C98.918 195.224 98.8838 195.049 98.8154 194.906C98.7471 194.763 98.6462 194.654 98.5127 194.579C98.3825 194.504 98.2197 194.467 98.0244 194.467C97.8617 194.467 97.7087 194.499 97.5654 194.564C97.4222 194.626 97.3066 194.724 97.2188 194.857C97.1309 194.988 97.0837 195.16 97.0771 195.375H95.9004C95.9069 194.965 96.0046 194.62 96.1934 194.34C96.3822 194.06 96.6361 193.85 96.9551 193.71C97.2741 193.57 97.6305 193.5 98.0244 193.5C98.4606 193.5 98.8333 193.575 99.1426 193.725C99.4518 193.871 99.6878 194.086 99.8506 194.369C100.017 194.649 100.1 194.988 100.1 195.385C100.1 195.671 100.043 195.932 99.9287 196.166C99.8148 196.397 99.6667 196.614 99.4844 196.815C99.3021 197.014 99.1051 197.213 98.8936 197.411C98.7113 197.577 98.5876 197.758 98.5225 197.953C98.4574 198.145 98.4232 198.365 98.4199 198.612ZM97.2334 200.136C97.2334 199.96 97.2936 199.812 97.4141 199.691C97.5345 199.568 97.6989 199.506 97.9072 199.506C98.1156 199.506 98.2799 199.568 98.4004 199.691C98.5208 199.812 98.5811 199.96 98.5811 200.136C98.5811 200.312 98.5208 200.461 98.4004 200.585C98.2799 200.705 98.1156 200.766 97.9072 200.766C97.6989 200.766 97.5345 200.705 97.4141 200.585C97.2936 200.461 97.2334 200.312 97.2334 200.136Z" fill="#A6AFBD"/>
<rect x="295.5" y="11.5" width="165" height="19" rx="0.5" fill="#50505A" stroke="#50505A"/>
<path d="M307.01 22.5615H307.671C307.617 23.0879 307.472 23.5426 307.236 23.9258C307 24.3053 306.677 24.5972 306.269 24.8013C305.861 25.0054 305.368 25.1074 304.792 25.1074C304.348 25.1074 303.945 25.0233 303.583 24.855C303.225 24.6867 302.917 24.4486 302.66 24.1406C302.402 23.8291 302.203 23.4567 302.063 23.0234C301.924 22.5902 301.854 22.1086 301.854 21.5786V20.6011C301.854 20.0711 301.924 19.5913 302.063 19.1616C302.203 18.7284 302.404 18.356 302.665 18.0444C302.926 17.7329 303.24 17.493 303.605 17.3247C303.97 17.1564 304.382 17.0723 304.84 17.0723C305.395 17.0723 305.875 17.1743 306.28 17.3784C306.684 17.5789 307.003 17.869 307.236 18.2485C307.472 18.6281 307.617 19.0864 307.671 19.6235H307.01C306.96 19.201 306.849 18.8429 306.677 18.5493C306.505 18.2557 306.267 18.0319 305.963 17.8779C305.662 17.7204 305.288 17.6416 304.84 17.6416C304.475 17.6416 304.149 17.7114 303.863 17.8511C303.576 17.9907 303.333 18.1912 303.132 18.4526C302.932 18.7104 302.778 19.0202 302.67 19.3818C302.567 19.7435 302.515 20.1463 302.515 20.5903V21.5786C302.515 22.0083 302.565 22.404 302.665 22.7656C302.765 23.1273 302.912 23.4406 303.105 23.7056C303.302 23.9705 303.542 24.1764 303.825 24.3232C304.108 24.4701 304.43 24.5435 304.792 24.5435C305.254 24.5435 305.639 24.4701 305.947 24.3232C306.258 24.1729 306.5 23.9508 306.672 23.6572C306.844 23.3636 306.957 22.9984 307.01 22.5615ZM315.056 20.6709V21.5088C315.056 22.0566 314.985 22.5526 314.841 22.9966C314.702 23.437 314.498 23.8148 314.229 24.1299C313.964 24.445 313.645 24.6867 313.273 24.855C312.901 25.0233 312.482 25.1074 312.016 25.1074C311.561 25.1074 311.146 25.0233 310.77 24.855C310.398 24.6867 310.077 24.445 309.809 24.1299C309.54 23.8148 309.332 23.437 309.186 22.9966C309.039 22.5526 308.965 22.0566 308.965 21.5088V20.6709C308.965 20.123 309.037 19.6289 309.18 19.1885C309.327 18.7445 309.535 18.3649 309.803 18.0498C310.072 17.7347 310.392 17.493 310.765 17.3247C311.137 17.1564 311.551 17.0723 312.005 17.0723C312.471 17.0723 312.89 17.1564 313.262 17.3247C313.635 17.493 313.955 17.7347 314.224 18.0498C314.492 18.3649 314.698 18.7445 314.841 19.1885C314.985 19.6289 315.056 20.123 315.056 20.6709ZM314.401 21.5088V20.6602C314.401 20.1982 314.347 19.7829 314.24 19.4141C314.136 19.0452 313.98 18.7301 313.772 18.4688C313.568 18.2074 313.318 18.0068 313.021 17.8672C312.723 17.7275 312.385 17.6577 312.005 17.6577C311.637 17.6577 311.305 17.7275 311.012 17.8672C310.718 18.0068 310.467 18.2074 310.26 18.4688C310.056 18.7301 309.898 19.0452 309.787 19.4141C309.68 19.7829 309.626 20.1982 309.626 20.6602V21.5088C309.626 21.9743 309.68 22.3932 309.787 22.7656C309.898 23.1344 310.057 23.4513 310.265 23.7163C310.473 23.9777 310.723 24.1782 311.017 24.3179C311.314 24.4575 311.647 24.5273 312.016 24.5273C312.399 24.5273 312.738 24.4575 313.031 24.3179C313.325 24.1782 313.574 23.9777 313.778 23.7163C313.982 23.4513 314.136 23.1344 314.24 22.7656C314.347 22.3932 314.401 21.9743 314.401 21.5088ZM321.448 17.1797H322.108V22.4756C322.108 23.0628 321.985 23.5516 321.738 23.9419C321.491 24.3322 321.158 24.624 320.739 24.8174C320.323 25.0107 319.863 25.1074 319.358 25.1074C318.839 25.1074 318.372 25.0107 317.957 24.8174C317.541 24.624 317.212 24.3322 316.968 23.9419C316.728 23.5516 316.608 23.0628 316.608 22.4756V17.1797H317.264V22.4756C317.264 22.9303 317.353 23.3117 317.532 23.6196C317.711 23.9276 317.958 24.1585 318.273 24.3125C318.589 24.4665 318.95 24.5435 319.358 24.5435C319.763 24.5435 320.123 24.4665 320.438 24.3125C320.753 24.1585 321 23.9276 321.179 23.6196C321.358 23.3117 321.448 22.9303 321.448 22.4756V17.1797ZM329.789 17.1797V25H329.123L324.627 18.3184V25H323.967V17.1797H324.627L329.134 23.8613V17.1797H329.789ZM334.247 17.1797V25H333.592V17.1797H334.247ZM336.927 17.1797V17.749H330.917V17.1797H336.927ZM343.061 24.436V25H338.662V24.436H343.061ZM338.861 17.1797V25H338.2V17.1797H338.861ZM342.513 20.687V21.251H338.662V20.687H342.513ZM343.034 17.1797V17.749H338.662V17.1797H343.034ZM344.447 17.1797H346.987C347.528 17.1797 347.997 17.2674 348.395 17.4429C348.792 17.6183 349.098 17.8779 349.313 18.2217C349.531 18.5618 349.641 18.9808 349.641 19.4785C349.641 19.8473 349.562 20.1821 349.404 20.4829C349.25 20.7837 349.037 21.0361 348.765 21.2402C348.493 21.4408 348.178 21.5786 347.82 21.6538L347.589 21.7397H344.876L344.866 21.1758H347.138C347.546 21.1758 347.886 21.097 348.158 20.9395C348.43 20.7819 348.634 20.5742 348.771 20.3164C348.91 20.055 348.98 19.7757 348.98 19.4785C348.98 19.124 348.903 18.8179 348.749 18.5601C348.599 18.2987 348.375 18.0981 348.078 17.9585C347.78 17.8188 347.417 17.749 346.987 17.749H345.107V25H344.447V17.1797ZM349.275 25L347.25 21.5034L347.959 21.498L349.979 24.9302V25H349.275ZM354.115 21.8149H351.886V21.251H354.115C354.58 21.251 354.958 21.1758 355.248 21.0254C355.542 20.8714 355.755 20.6637 355.887 20.4023C356.023 20.141 356.091 19.8473 356.091 19.5215C356.091 19.2028 356.023 18.9092 355.887 18.6406C355.755 18.3721 355.542 18.1572 355.248 17.9961C354.958 17.8314 354.58 17.749 354.115 17.749H352.117V25H351.456V17.1797H354.115C354.688 17.1797 355.169 17.2782 355.56 17.4751C355.953 17.672 356.251 17.946 356.451 18.2969C356.652 18.6478 356.752 19.0524 356.752 19.5107C356.752 19.9906 356.652 20.4041 356.451 20.7515C356.251 21.0952 355.955 21.3584 355.565 21.541C355.175 21.7236 354.691 21.8149 354.115 21.8149ZM360.061 17.647L357.354 25H356.666L359.62 17.1797H360.098L360.061 17.647ZM362.521 25L359.808 17.647L359.771 17.1797H360.249L363.208 25H362.521ZM362.037 22.2393V22.8086H357.885V22.2393H362.037ZM364.352 17.1797H366.893C367.433 17.1797 367.902 17.2674 368.3 17.4429C368.697 17.6183 369.003 17.8779 369.218 18.2217C369.437 18.5618 369.546 18.9808 369.546 19.4785C369.546 19.8473 369.467 20.1821 369.31 20.4829C369.156 20.7837 368.943 21.0361 368.67 21.2402C368.398 21.4408 368.083 21.5786 367.725 21.6538L367.494 21.7397H364.782L364.771 21.1758H367.043C367.451 21.1758 367.791 21.097 368.063 20.9395C368.336 20.7819 368.54 20.5742 368.676 20.3164C368.815 20.055 368.885 19.7757 368.885 19.4785C368.885 19.124 368.808 18.8179 368.654 18.5601C368.504 18.2987 368.28 18.0981 367.983 17.9585C367.686 17.8188 367.322 17.749 366.893 17.749H365.013V25H364.352V17.1797ZM369.181 25L367.156 21.5034L367.865 21.498L369.884 24.9302V25H369.181ZM373.553 17.1797V25H372.897V17.1797H373.553ZM376.233 17.1797V17.749H370.223V17.1797H376.233ZM377.511 17.1797L379.88 21.439L382.27 17.1797H383.033L380.213 22.0513V25H379.552V22.0513L376.727 17.1797H377.511ZM387.668 17.1797V25H387.007V17.1797H387.668ZM395.617 17.1797V25H394.951L390.456 18.3184V25H389.795V17.1797H390.456L394.962 23.8613V17.1797H395.617ZM400.075 17.1797V25H399.42V17.1797H400.075ZM402.755 17.1797V17.749H396.745V17.1797H402.755ZM408.889 24.436V25H404.49V24.436H408.889ZM404.689 17.1797V25H404.028V17.1797H404.689ZM408.341 20.687V21.251H404.49V20.687H408.341ZM408.862 17.1797V17.749H404.49V17.1797H408.862ZM410.275 17.1797H412.815C413.356 17.1797 413.825 17.2674 414.223 17.4429C414.62 17.6183 414.926 17.8779 415.141 18.2217C415.36 18.5618 415.469 18.9808 415.469 19.4785C415.469 19.8473 415.39 20.1821 415.232 20.4829C415.078 20.7837 414.865 21.0361 414.593 21.2402C414.321 21.4408 414.006 21.5786 413.648 21.6538L413.417 21.7397H410.705L410.694 21.1758H412.966C413.374 21.1758 413.714 21.097 413.986 20.9395C414.258 20.7819 414.463 20.5742 414.599 20.3164C414.738 20.055 414.808 19.7757 414.808 19.4785C414.808 19.124 414.731 18.8179 414.577 18.5601C414.427 18.2987 414.203 18.0981 413.906 17.9585C413.609 17.8188 413.245 17.749 412.815 17.749H410.936V25H410.275V17.1797ZM415.104 25L413.079 21.5034L413.788 21.498L415.807 24.9302V25H415.104ZM419.852 17.647L417.145 25H416.457L419.411 17.1797H419.889L419.852 17.647ZM422.312 25L419.599 17.647L419.562 17.1797H420.04L422.999 25H422.312ZM421.828 22.2393V22.8086H417.676V22.2393H421.828ZM428.966 22.5615H429.627C429.573 23.0879 429.428 23.5426 429.192 23.9258C428.956 24.3053 428.633 24.5972 428.225 24.8013C427.817 25.0054 427.325 25.1074 426.748 25.1074C426.304 25.1074 425.901 25.0233 425.54 24.855C425.181 24.6867 424.874 24.4486 424.616 24.1406C424.358 23.8291 424.159 23.4567 424.02 23.0234C423.88 22.5902 423.81 22.1086 423.81 21.5786V20.6011C423.81 20.0711 423.88 19.5913 424.02 19.1616C424.159 18.7284 424.36 18.356 424.621 18.0444C424.882 17.7329 425.196 17.493 425.561 17.3247C425.926 17.1564 426.338 17.0723 426.796 17.0723C427.351 17.0723 427.831 17.1743 428.236 17.3784C428.64 17.5789 428.959 17.869 429.192 18.2485C429.428 18.6281 429.573 19.0864 429.627 19.6235H428.966C428.916 19.201 428.805 18.8429 428.633 18.5493C428.461 18.2557 428.223 18.0319 427.919 17.8779C427.618 17.7204 427.244 17.6416 426.796 17.6416C426.431 17.6416 426.105 17.7114 425.819 17.8511C425.532 17.9907 425.289 18.1912 425.088 18.4526C424.888 18.7104 424.734 19.0202 424.626 19.3818C424.523 19.7435 424.471 20.1463 424.471 20.5903V21.5786C424.471 22.0083 424.521 22.404 424.621 22.7656C424.721 23.1273 424.868 23.4406 425.062 23.7056C425.258 23.9705 425.498 24.1764 425.781 24.3232C426.064 24.4701 426.386 24.5435 426.748 24.5435C427.21 24.5435 427.595 24.4701 427.903 24.3232C428.214 24.1729 428.456 23.9508 428.628 23.6572C428.8 23.3636 428.913 22.9984 428.966 22.5615ZM433.698 17.1797V25H433.043V17.1797H433.698ZM436.378 17.1797V17.749H430.368V17.1797H436.378ZM438.457 17.1797V25H437.796V17.1797H438.457ZM446.358 20.6709V21.5088C446.358 22.0566 446.286 22.5526 446.143 22.9966C446.003 23.437 445.799 23.8148 445.531 24.1299C445.266 24.445 444.947 24.6867 444.575 24.855C444.202 25.0233 443.783 25.1074 443.318 25.1074C442.863 25.1074 442.448 25.0233 442.072 24.855C441.699 24.6867 441.379 24.445 441.11 24.1299C440.842 23.8148 440.634 23.437 440.487 22.9966C440.34 22.5526 440.267 22.0566 440.267 21.5088V20.6709C440.267 20.123 440.339 19.6289 440.482 19.1885C440.629 18.7445 440.836 18.3649 441.105 18.0498C441.374 17.7347 441.694 17.493 442.066 17.3247C442.439 17.1564 442.852 17.0723 443.307 17.0723C443.773 17.0723 444.192 17.1564 444.564 17.3247C444.936 17.493 445.257 17.7347 445.525 18.0498C445.794 18.3649 446 18.7445 446.143 19.1885C446.286 19.6289 446.358 20.123 446.358 20.6709ZM445.703 21.5088V20.6602C445.703 20.1982 445.649 19.7829 445.542 19.4141C445.438 19.0452 445.282 18.7301 445.074 18.4688C444.87 18.2074 444.619 18.0068 444.322 17.8672C444.025 17.7275 443.687 17.6577 443.307 17.6577C442.938 17.6577 442.607 17.7275 442.313 17.8672C442.02 18.0068 441.769 18.2074 441.562 18.4688C441.357 18.7301 441.2 19.0452 441.089 19.4141C440.981 19.7829 440.928 20.1982 440.928 20.6602V21.5088C440.928 21.9743 440.981 22.3932 441.089 22.7656C441.2 23.1344 441.359 23.4513 441.567 23.7163C441.775 23.9777 442.025 24.1782 442.319 24.3179C442.616 24.4575 442.949 24.5273 443.318 24.5273C443.701 24.5273 444.039 24.4575 444.333 24.3179C444.627 24.1782 444.875 23.9777 445.08 23.7163C445.284 23.4513 445.438 23.1344 445.542 22.7656C445.649 22.3932 445.703 21.9743 445.703 21.5088ZM453.851 17.1797V25H453.185L448.689 18.3184V25H448.028V17.1797H448.689L453.195 23.8613V17.1797H453.851Z" fill="#FBFCFD"/>
<circle cx="471" cy="21" r="5.5" stroke="#A6AFBD"/>
<path d="M471.42 22.6123H470.331C470.334 22.3096 470.36 22.0557 470.409 21.8506C470.458 21.6423 470.539 21.4535 470.653 21.2842C470.771 21.1149 470.925 20.9359 471.117 20.7471C471.267 20.6038 471.402 20.4688 471.522 20.3418C471.643 20.2116 471.739 20.0749 471.811 19.9316C471.882 19.7852 471.918 19.6175 471.918 19.4287C471.918 19.2236 471.884 19.0495 471.815 18.9062C471.747 18.763 471.646 18.654 471.513 18.5791C471.382 18.5042 471.22 18.4668 471.024 18.4668C470.862 18.4668 470.709 18.4993 470.565 18.5645C470.422 18.6263 470.307 18.724 470.219 18.8574C470.131 18.9876 470.084 19.1602 470.077 19.375H468.9C468.907 18.9648 469.005 18.6198 469.193 18.3398C469.382 18.0599 469.636 17.8499 469.955 17.71C470.274 17.57 470.631 17.5 471.024 17.5C471.461 17.5 471.833 17.5749 472.143 17.7246C472.452 17.8711 472.688 18.0859 472.851 18.3691C473.017 18.6491 473.1 18.9876 473.1 19.3848C473.1 19.6712 473.043 19.9316 472.929 20.166C472.815 20.3971 472.667 20.6136 472.484 20.8154C472.302 21.014 472.105 21.2126 471.894 21.4111C471.711 21.5771 471.588 21.7578 471.522 21.9531C471.457 22.1452 471.423 22.3649 471.42 22.6123ZM470.233 24.1357C470.233 23.96 470.294 23.8118 470.414 23.6914C470.535 23.5677 470.699 23.5059 470.907 23.5059C471.116 23.5059 471.28 23.5677 471.4 23.6914C471.521 23.8118 471.581 23.96 471.581 24.1357C471.581 24.3115 471.521 24.4613 471.4 24.585C471.28 24.7054 471.116 24.7656 470.907 24.7656C470.699 24.7656 470.535 24.7054 470.414 24.585C470.294 24.4613 470.233 24.3115 470.233 24.1357Z" fill="#A6AFBD"/>
<defs>
<clipPath id="clip0_310_5280">
<rect width="270" height="234.292" fill="white" transform="translate(107)"/>
</clipPath>
</defs>
</svg>
