<svg width="266" height="58" viewBox="0 0 266 58" fill="none" xmlns="http://www.w3.org/2000/svg">
<path d="M90.9445 47.8901C88.568 47.8901 86.5753 47.0857 84.9727 45.477C83.3639 43.8683 82.5596 41.8634 82.5596 39.4564C82.5596 37.0494 83.3639 35.0446 84.9727 33.4358C86.5814 31.8271 88.5741 31.0227 90.9445 31.0227C93.382 31.0227 95.3564 31.9002 96.8737 33.6613L95.4295 35.0567C94.3326 33.6918 92.8397 33.0032 90.9445 33.0032C89.1834 33.0032 87.7027 33.5943 86.49 34.7825C85.2774 35.9708 84.6741 37.5247 84.6741 39.4503C84.6741 41.3759 85.2774 42.9298 86.49 44.1181C87.6966 45.3064 89.1834 45.8975 90.9445 45.8975C92.8823 45.8975 94.5398 45.1175 95.9048 43.5514L97.349 44.9956C96.6117 45.8853 95.6854 46.5861 94.5764 47.104C93.4612 47.6281 92.2547 47.8901 90.9445 47.8901Z" fill="#5F6368"/>
<path d="M101.273 31.3882V36.4825L101.182 38.0181H101.273C101.572 37.4941 102.047 37.0432 102.693 36.6775C103.339 36.3119 104.027 36.123 104.765 36.123C106.13 36.123 107.178 36.5435 107.897 37.3844C108.616 38.2253 108.982 39.3527 108.982 40.7664V47.5304H106.91V41.0833C106.91 39.0419 106.002 38.0181 104.18 38.0181C103.321 38.0181 102.626 38.3594 102.084 39.0419C101.541 39.7244 101.273 40.5166 101.273 41.4184V47.5304H99.2012V31.3882H101.273Z" fill="#5F6368"/>
<path d="M113.491 47.5311H111.419V36.4832H113.406V38.287H113.497C113.71 37.6837 114.137 37.1901 114.795 36.8001C115.447 36.4101 116.081 36.2151 116.702 36.2151C117.318 36.2151 117.836 36.3065 118.256 36.4832L117.464 38.421C117.196 38.3174 116.824 38.2626 116.361 38.2626C115.611 38.2626 114.941 38.5612 114.368 39.1523C113.789 39.7434 113.503 40.5233 113.503 41.4862V47.5311H113.491Z" fill="#5F6368"/>
<path d="M119.895 37.7993C120.961 36.6781 122.32 36.1174 123.977 36.1174C125.635 36.1174 126.994 36.6781 128.06 37.7993C129.127 38.9205 129.663 40.3221 129.663 42.004C129.663 43.6858 129.127 45.0874 128.06 46.2086C126.994 47.3299 125.635 47.8905 123.977 47.8905C122.32 47.8905 120.961 47.3299 119.895 46.2086C118.828 45.0874 118.292 43.6858 118.292 42.004C118.292 40.3221 118.828 38.9205 119.895 37.7993ZM121.436 44.9046C122.149 45.6358 122.996 45.9954 123.971 45.9954C124.946 45.9954 125.793 45.6297 126.506 44.9046C127.219 44.1733 127.579 43.2105 127.579 42.0101C127.579 40.8096 127.219 39.8407 126.506 39.1155C125.793 38.3843 124.946 38.0248 123.971 38.0248C122.996 38.0248 122.149 38.3904 121.436 39.1155C120.723 39.8407 120.364 40.8096 120.364 42.0101C120.37 43.2105 120.723 44.1733 121.436 44.9046Z" fill="#5F6368"/>
<path d="M131.327 47.5305V36.4826H133.314V38.0182H133.405C133.722 37.4941 134.203 37.0432 134.862 36.6776C135.514 36.312 136.166 36.123 136.811 36.123C138.524 36.123 139.688 36.8299 140.303 38.2437C141.205 36.8299 142.491 36.123 144.161 36.123C145.471 36.123 146.452 36.5374 147.116 37.3723C147.78 38.2071 148.109 39.3405 148.109 40.7665V47.5305H146.037V41.0833C146.037 39.9682 145.836 39.1821 145.428 38.719C145.02 38.2558 144.404 38.0182 143.582 38.0182C142.771 38.0182 142.095 38.3655 141.565 39.0541C141.028 39.7427 140.766 40.5349 140.766 41.4185V47.5305H138.694V41.0833C138.694 39.9682 138.493 39.1821 138.085 38.719C137.677 38.2558 137.061 38.0182 136.239 38.0182C135.428 38.0182 134.752 38.3655 134.222 39.0541C133.685 39.7427 133.423 40.5349 133.423 41.4185V47.5305H131.327Z" fill="#5F6368"/>
<path d="M155.545 47.8905C153.875 47.8905 152.522 47.336 151.474 46.2208C150.432 45.1118 149.908 43.7041 149.908 42.004C149.908 40.3952 150.414 39.012 151.432 37.8541C152.449 36.6963 153.741 36.1174 155.319 36.1174C156.959 36.1174 158.269 36.6537 159.256 37.7201C160.243 38.7865 160.731 40.2124 160.731 42.004L160.706 42.3879H151.98C152.041 43.503 152.413 44.3805 153.095 45.0264C153.778 45.6724 154.582 45.9954 155.496 45.9954C156.983 45.9954 157.988 45.3616 158.519 44.1002L160.365 44.868C160.005 45.7272 159.408 46.4402 158.586 47.0191C157.757 47.6041 156.745 47.8905 155.545 47.8905ZM158.519 40.6755C158.476 40.0418 158.183 39.4446 157.653 38.8718C157.117 38.299 156.325 38.0126 155.277 38.0126C154.509 38.0126 153.845 38.2563 153.284 38.7316C152.723 39.2069 152.333 39.859 152.12 40.6694H158.519V40.6755Z" fill="#5F6368"/>
<path d="M185.848 31.3882L181.54 47.5304H179.419L175.946 36.8908H175.854L172.381 47.5304H170.26L165.775 31.3882H167.939L171.345 44.0814H171.436L174.934 33.5515H176.872L180.37 44.0814H180.461L183.685 31.3882H185.848Z" fill="#5F6368"/>
<path d="M191.235 47.8905C189.566 47.8905 188.213 47.336 187.165 46.2208C186.123 45.1118 185.599 43.7041 185.599 42.004C185.599 40.3952 186.104 39.012 187.122 37.8541C188.14 36.6963 189.432 36.1174 191.01 36.1174C192.649 36.1174 193.959 36.6537 194.946 37.7201C195.934 38.7865 196.421 40.2124 196.421 42.004L196.397 42.3879H187.67C187.731 43.503 188.103 44.3805 188.786 45.0264C189.468 45.6724 190.273 45.9954 191.187 45.9954C192.673 45.9954 193.679 45.3616 194.209 44.1002L196.055 44.868C195.696 45.7272 195.099 46.4402 194.276 47.0191C193.453 47.6041 192.436 47.8905 191.235 47.8905ZM194.209 40.6755C194.166 40.0418 193.874 39.4446 193.344 38.8718C192.808 38.299 192.015 38.0126 190.967 38.0126C190.199 38.0126 189.535 38.2563 188.975 38.7316C188.414 39.2069 188.024 39.859 187.811 40.6694H194.209V40.6755Z" fill="#5F6368"/>
<path d="M204.154 47.89C203.313 47.89 202.558 47.7072 201.888 47.3476C201.217 46.9881 200.718 46.5372 200.389 45.9948H200.297V47.5304H198.311V31.3882H200.382V36.4825L200.291 38.0181H200.382C200.711 37.4758 201.211 37.0249 201.881 36.6653C202.552 36.3058 203.307 36.123 204.148 36.123C205.574 36.123 206.811 36.6836 207.847 37.811C208.883 38.9383 209.401 40.3338 209.401 42.0034C209.401 43.6731 208.883 45.0686 207.847 46.1959C206.817 47.3293 205.58 47.89 204.154 47.89ZM203.813 45.9948C204.776 45.9948 205.605 45.6292 206.293 44.904C206.982 44.1789 207.329 43.21 207.329 42.0095C207.329 40.8091 206.982 39.8402 206.293 39.115C205.605 38.3899 204.776 38.0242 203.813 38.0242C202.838 38.0242 202.003 38.3838 201.321 39.1089C200.638 39.828 200.297 40.7969 200.297 42.0156C200.297 43.2344 200.638 44.2033 201.321 44.9223C202.009 45.6353 202.838 45.9948 203.813 45.9948Z" fill="#5F6368"/>
<path d="M220.498 47.8901C219.328 47.8901 218.182 47.5062 217.061 46.7384C215.94 45.9706 215.209 44.8981 214.861 43.5148L216.756 42.747C216.982 43.6367 217.445 44.3801 218.146 44.9895C218.847 45.5989 219.633 45.9036 220.504 45.9036C221.406 45.9036 222.174 45.6659 222.814 45.1906C223.453 44.7153 223.77 44.0754 223.77 43.265C223.77 42.3631 223.453 41.6684 222.814 41.1809C222.174 40.6934 221.162 40.2364 219.779 39.8159C218.353 39.365 217.268 38.78 216.531 38.067C215.794 37.3541 215.428 36.44 215.428 35.3249C215.428 34.1671 215.885 33.1616 216.805 32.3024C217.719 31.4432 218.914 31.0166 220.388 31.0166C221.753 31.0166 222.868 31.3578 223.728 32.0403C224.587 32.7228 225.141 33.4724 225.397 34.2828L223.502 35.0689C223.368 34.5571 223.033 34.0817 222.497 33.6491C221.961 33.2164 221.278 32.9971 220.437 32.9971C219.639 32.9971 218.962 33.2164 218.396 33.6613C217.829 34.1061 217.549 34.6545 217.549 35.3188C217.549 35.922 217.811 36.4278 218.329 36.8422C218.847 37.2566 219.608 37.6283 220.62 37.9573C221.418 38.2133 222.082 38.4631 222.613 38.7008C223.149 38.9384 223.685 39.2614 224.233 39.6575C224.782 40.0536 225.196 40.5533 225.477 41.1444C225.757 41.7354 225.891 42.424 225.891 43.204C225.891 43.984 225.726 44.6848 225.403 45.3003C225.08 45.9157 224.654 46.4032 224.118 46.7689C223.581 47.1284 223.009 47.4026 222.393 47.5915C221.778 47.7987 221.144 47.8901 220.498 47.8901Z" fill="#5F6368"/>
<path d="M232.271 47.7075C231.113 47.7075 230.23 47.4028 229.62 46.7812C229.011 46.1597 228.706 45.2944 228.706 44.167V38.3719H226.769V36.4767H228.706V33.0947H230.778V36.4767H233.484V38.3719H230.778V44.0086C230.778 45.209 231.272 45.8123 232.265 45.8123C232.643 45.8123 232.954 45.7514 233.21 45.6295L233.929 47.4089C233.49 47.61 232.929 47.7075 232.271 47.7075Z" fill="#5F6368"/>
<path d="M236.329 37.7993C237.396 36.6781 238.755 36.1174 240.412 36.1174C242.063 36.1174 243.428 36.6781 244.495 37.7993C245.561 38.9205 246.097 40.3221 246.097 42.004C246.097 43.6858 245.561 45.0874 244.495 46.2086C243.428 47.3299 242.07 47.8905 240.412 47.8905C238.761 47.8905 237.396 47.3299 236.329 46.2086C235.263 45.0874 234.727 43.6858 234.727 42.004C234.727 40.3221 235.263 38.9205 236.329 37.7993ZM237.871 44.9046C238.584 45.6358 239.431 45.9954 240.406 45.9954C241.381 45.9954 242.228 45.6297 242.941 44.9046C243.654 44.1733 244.013 43.2105 244.013 42.0101C244.013 40.8096 243.654 39.8407 242.941 39.1155C242.228 38.3843 241.381 38.0248 240.406 38.0248C239.431 38.0248 238.584 38.3904 237.871 39.1155C237.158 39.8407 236.798 40.8096 236.798 42.0101C236.805 43.2105 237.158 44.1733 237.871 44.9046Z" fill="#5F6368"/>
<path d="M249.832 47.5311H247.76V36.4832H249.746V38.287H249.838C250.051 37.6837 250.478 37.1901 251.136 36.8001C251.788 36.4101 252.428 36.2151 253.043 36.2151C253.658 36.2151 254.176 36.3065 254.597 36.4832L253.811 38.421C253.543 38.3174 253.171 38.2626 252.708 38.2626C251.958 38.2626 251.288 38.5612 250.715 39.1523C250.136 39.7434 249.85 40.5233 249.85 41.4862V47.5311H249.832Z" fill="#5F6368"/>
<path d="M260.27 47.8905C258.601 47.8905 257.248 47.336 256.2 46.2208C255.158 45.1118 254.634 43.7041 254.634 42.004C254.634 40.3952 255.14 39.012 256.157 37.8541C257.175 36.6963 258.467 36.1174 260.045 36.1174C261.684 36.1174 262.994 36.6537 263.982 37.7201C264.969 38.7865 265.456 40.2124 265.456 42.004L265.432 42.3879H256.706C256.767 43.503 257.138 44.3805 257.821 45.0264C258.503 45.6724 259.308 45.9954 260.222 45.9954C261.709 45.9954 262.714 45.3616 263.244 44.1002L265.091 44.868C264.731 45.7272 264.134 46.4402 263.311 47.0191C262.489 47.6041 261.471 47.8905 260.27 47.8905ZM263.244 40.6755C263.202 40.0418 262.909 39.4446 262.379 38.8718C261.843 38.299 261.05 38.0126 260.002 38.0126C259.235 38.0126 258.57 38.2563 258.01 38.7316C257.449 39.2069 257.059 39.859 256.846 40.6694H263.244V40.6755Z" fill="#5F6368"/>
<path d="M83.7607 22.4672L88.3676 10.2493H90.1409L94.7477 22.4672H93.0049L91.8288 19.1583H86.6918L85.4975 22.4672H83.7607ZM87.222 17.6897H91.2804L89.2816 12.181H89.2146L87.222 17.6897Z" fill="#5F6368"/>
<path d="M97.5449 22.467L94.1689 14.1064H95.8752L98.331 20.5902H98.3675L100.86 14.1064H102.53L99.117 22.467H97.5449Z" fill="#5F6368"/>
<path d="M106.027 22.7411C105.138 22.7411 104.4 22.4851 103.803 21.9733C103.206 21.4614 102.907 20.785 102.907 19.944C102.907 19.0361 103.261 18.317 103.968 17.8052C104.674 17.2872 105.54 17.0313 106.576 17.0313C107.496 17.0313 108.251 17.2019 108.843 17.5431V17.3055C108.843 16.69 108.629 16.2025 108.209 15.8308C107.788 15.4591 107.27 15.2763 106.655 15.2763C106.198 15.2763 105.79 15.3859 105.418 15.5992C105.046 15.8186 104.796 16.1111 104.656 16.4889L103.224 15.8734C103.419 15.3738 103.797 14.9106 104.37 14.4841C104.936 14.0575 105.692 13.8442 106.624 13.8442C107.691 13.8442 108.58 14.155 109.287 14.7827C109.994 15.4103 110.348 16.2878 110.348 17.4273V22.479H108.849V21.3212H108.782C108.148 22.2597 107.228 22.7411 106.027 22.7411ZM106.283 21.3029C106.929 21.3029 107.52 21.0592 108.05 20.5778C108.58 20.0964 108.843 19.5236 108.843 18.8655C108.398 18.4998 107.733 18.317 106.844 18.317C106.082 18.317 105.509 18.4816 105.119 18.8106C104.735 19.1397 104.54 19.5297 104.54 19.9684C104.54 20.3767 104.717 20.6997 105.07 20.9434C105.424 21.1872 105.826 21.3029 106.283 21.3029Z" fill="#5F6368"/>
<path d="M113.82 12.0043C113.607 12.2176 113.345 12.3272 113.034 12.3272C112.723 12.3272 112.467 12.2176 112.248 12.0043C112.034 11.791 111.925 11.529 111.925 11.2182C111.925 10.9074 112.034 10.6515 112.248 10.4321C112.461 10.2188 112.723 10.1091 113.034 10.1091C113.345 10.1091 113.601 10.2188 113.82 10.4321C114.033 10.6515 114.143 10.9074 114.143 11.2182C114.143 11.529 114.039 11.791 113.82 12.0043ZM113.82 22.4672H112.248V14.1066H113.82V22.4672Z" fill="#5F6368"/>
<path d="M117.441 22.4672H115.869V10.2493H117.441V22.4672Z" fill="#5F6368"/>
<path d="M121.909 22.7411C121.019 22.7411 120.282 22.4851 119.685 21.9733C119.088 21.4614 118.789 20.785 118.789 19.944C118.789 19.0361 119.142 18.317 119.849 17.8052C120.556 17.2872 121.422 17.0313 122.457 17.0313C123.378 17.0313 124.133 17.2019 124.724 17.5431V17.3055C124.724 16.69 124.511 16.2025 124.091 15.8308C123.67 15.4591 123.152 15.2763 122.537 15.2763C122.08 15.2763 121.671 15.3859 121.3 15.5992C120.928 15.8186 120.678 16.1111 120.538 16.4889L119.106 15.8734C119.301 15.3738 119.679 14.9106 120.252 14.4841C120.818 14.0575 121.574 13.8442 122.506 13.8442C123.573 13.8442 124.462 14.155 125.169 14.7827C125.876 15.4103 126.229 16.2878 126.229 17.4273V22.479H124.73V21.3212H124.663C124.03 22.2597 123.116 22.7411 121.909 22.7411ZM122.165 21.3029C122.811 21.3029 123.402 21.0592 123.932 20.5778C124.462 20.0964 124.724 19.5236 124.724 18.8655C124.279 18.4998 123.615 18.317 122.726 18.317C121.964 18.317 121.391 18.4816 121.001 18.8106C120.617 19.1397 120.422 19.5297 120.422 19.9684C120.422 20.3767 120.599 20.6997 120.952 20.9434C121.306 21.1872 121.714 21.3029 122.165 21.3029Z" fill="#5F6368"/>
<path d="M132.419 22.7414C131.779 22.7414 131.212 22.6073 130.706 22.3331C130.201 22.0589 129.823 21.7176 129.573 21.3094H129.506V22.4672H128.007V10.2493H129.579V14.1066L129.512 15.2644H129.579C129.829 14.8561 130.207 14.5149 130.712 14.2407C131.218 13.9664 131.791 13.8324 132.425 13.8324C133.503 13.8324 134.436 14.2589 135.222 15.1121C136.008 15.9652 136.398 17.0255 136.398 18.2869C136.398 19.5483 136.008 20.6086 135.222 21.4617C134.436 22.3148 133.497 22.7414 132.419 22.7414ZM132.163 21.3033C132.888 21.3033 133.516 21.0291 134.04 20.4745C134.564 19.92 134.826 19.1948 134.826 18.2808C134.826 17.3728 134.564 16.6416 134.04 16.0871C133.516 15.5325 132.888 15.2583 132.163 15.2583C131.425 15.2583 130.798 15.5325 130.28 16.0749C129.762 16.6233 129.506 17.3545 129.506 18.2747C129.506 19.1948 129.762 19.9322 130.28 20.4745C130.798 21.0351 131.425 21.3033 132.163 21.3033Z" fill="#5F6368"/>
<path d="M139.309 22.4672H137.737V10.2493H139.309V22.4672Z" fill="#5F6368"/>
<path d="M144.93 22.7413C143.668 22.7413 142.638 22.3208 141.852 21.4799C141.06 20.639 140.664 19.5726 140.664 18.2868C140.664 17.068 141.048 16.026 141.816 15.1485C142.584 14.271 143.565 13.8323 144.759 13.8323C145.996 13.8323 146.989 14.2345 147.739 15.0449C148.488 15.8554 148.854 16.934 148.854 18.2868L148.836 18.5793H142.23C142.273 19.4202 142.559 20.0844 143.077 20.578C143.595 21.0655 144.198 21.3093 144.893 21.3093C146.02 21.3093 146.782 20.834 147.178 19.8772L148.58 20.4561C148.306 21.1021 147.855 21.6505 147.233 22.0832C146.605 22.5219 145.838 22.7413 144.93 22.7413ZM147.178 17.2813C147.142 16.806 146.922 16.349 146.52 15.9163C146.118 15.4837 145.515 15.2704 144.722 15.2704C144.144 15.2704 143.638 15.4532 143.211 15.8188C142.785 16.1844 142.492 16.6719 142.334 17.2874H147.178V17.2813Z" fill="#5F6368"/>
<path d="M155.745 12.0043C155.531 12.2176 155.269 12.3272 154.959 12.3272C154.648 12.3272 154.392 12.2176 154.173 12.0043C153.953 11.791 153.85 11.529 153.85 11.2182C153.85 10.9074 153.959 10.6515 154.173 10.4321C154.386 10.2188 154.648 10.1091 154.959 10.1091C155.269 10.1091 155.525 10.2188 155.745 10.4321C155.958 10.6515 156.068 10.9074 156.068 11.2182C156.068 11.529 155.958 11.791 155.745 12.0043ZM155.745 22.4672H154.173V14.1066H155.745V22.4672Z" fill="#5F6368"/>
<path d="M159.292 14.1065V15.2643H159.36C159.585 14.8682 159.945 14.527 160.432 14.2466C160.92 13.9663 161.444 13.8262 162.004 13.8262C163.04 13.8262 163.832 14.143 164.375 14.7829C164.923 15.4166 165.191 16.2758 165.191 17.3422V22.461H163.619V17.5799C163.619 16.0321 162.93 15.2582 161.553 15.2582C160.907 15.2582 160.377 15.5141 159.969 16.0321C159.561 16.5501 159.353 17.1472 159.353 17.8297V22.4549H157.781V14.1065H159.292Z" fill="#5F6368"/>
<path d="M174.41 22.6011C173.533 22.6011 172.868 22.3696 172.405 21.9003C171.942 21.4311 171.717 20.773 171.717 19.9199V15.5324H170.248V14.1004H171.717V11.541H173.289V14.1004H175.336V15.5324H173.289V19.798C173.289 20.706 173.667 21.163 174.416 21.163C174.703 21.163 174.94 21.1203 175.135 21.0289L175.684 22.3756C175.33 22.528 174.91 22.6011 174.41 22.6011Z" fill="#5F6368"/>
<path d="M178.486 10.2493V14.1066L178.419 15.2644H178.486C178.712 14.8683 179.071 14.5271 179.559 14.2467C180.046 13.9664 180.571 13.8263 181.131 13.8263C182.167 13.8263 182.959 14.1432 183.502 14.783C184.05 15.4167 184.318 16.276 184.318 17.3424V22.4611H182.746V17.58C182.746 16.0322 182.057 15.2583 180.68 15.2583C180.034 15.2583 179.504 15.5142 179.096 16.0322C178.688 16.5502 178.48 17.1474 178.48 17.8299V22.455H176.908V10.2493H178.486Z" fill="#5F6368"/>
<path d="M189.947 22.7413C188.686 22.7413 187.656 22.3208 186.87 21.4799C186.078 20.639 185.682 19.5726 185.682 18.2868C185.682 17.068 186.066 16.026 186.833 15.1485C187.601 14.271 188.582 13.8323 189.777 13.8323C191.014 13.8323 192.007 14.2345 192.756 15.0449C193.506 15.8554 193.872 16.934 193.872 18.2868L193.853 18.5793H187.248C187.29 19.4202 187.577 20.0844 188.095 20.578C188.613 21.0655 189.216 21.3093 189.911 21.3093C191.038 21.3093 191.8 20.834 192.196 19.8772L193.597 20.4561C193.323 21.1021 192.872 21.6505 192.251 22.0832C191.629 22.5219 190.861 22.7413 189.947 22.7413ZM192.202 17.2813C192.165 16.806 191.946 16.349 191.544 15.9163C191.142 15.4837 190.538 15.2704 189.746 15.2704C189.167 15.2704 188.661 15.4532 188.235 15.8188C187.808 16.1844 187.516 16.6719 187.357 17.2874H192.202V17.2813Z" fill="#5F6368"/>
<mask id="mask0_531_7403" style="mask-type:luminance" maskUnits="userSpaceOnUse" x="0" y="0" width="68" height="58">
<path d="M0 0V53.4236C0 55.9403 2.05968 58 4.57638 58H62.5764C65.0931 58 67.1527 55.9403 67.1527 53.4236V0H0ZM41.2118 12.2118H25.9531C24.2652 12.2118 22.9002 10.8468 22.9002 9.15886C22.9002 7.4709 24.2652 6.10591 25.9531 6.10591H41.2179C42.9059 6.10591 44.2708 7.4709 44.2708 9.15886C44.2648 10.8468 42.8998 12.2118 41.2118 12.2118Z" fill="white"/>
</mask>
<g mask="url(#mask0_531_7403)">
<path d="M0 0H67.1588V58H0V0Z" fill="#EEEEEE"/>
</g>
<mask id="mask1_531_7403" style="mask-type:luminance" maskUnits="userSpaceOnUse" x="0" y="0" width="68" height="58">
<path d="M0 0V53.4236C0 55.9403 2.05968 58 4.57638 58H62.5764C65.0931 58 67.1527 55.9403 67.1527 53.4236V0H0ZM41.2118 12.2118H25.9531C24.2652 12.2118 22.9002 10.8468 22.9002 9.15886C22.9002 7.4709 24.2652 6.10591 25.9531 6.10591H41.2179C42.9059 6.10591 44.2708 7.4709 44.2708 9.15886C44.2648 10.8468 42.8998 12.2118 41.2118 12.2118Z" fill="white"/>
</mask>
<g mask="url(#mask1_531_7403)">
<path d="M41.211 6.1062H25.9524C24.2644 6.1062 22.8994 7.47119 22.8994 9.15915C22.8994 10.8471 24.2644 12.2121 25.9524 12.2121H41.2171C42.9051 12.2121 44.2701 10.8471 44.2701 9.15915C44.264 7.47119 42.899 6.1062 41.211 6.1062Z" fill="white"/>
</g>
<mask id="mask2_531_7403" style="mask-type:luminance" maskUnits="userSpaceOnUse" x="0" y="0" width="68" height="58">
<path d="M0 0V53.4236C0 55.9403 2.05968 58 4.57638 58H62.5764C65.0931 58 67.1527 55.9403 67.1527 53.4236V0H0ZM41.2118 12.2118H25.9531C24.2652 12.2118 22.9002 10.8468 22.9002 9.15886C22.9002 7.4709 24.2652 6.10591 25.9531 6.10591H41.2179C42.9059 6.10591 44.2708 7.4709 44.2708 9.15886C44.2648 10.8468 42.8998 12.2118 41.2118 12.2118Z" fill="white"/>
</mask>
<g mask="url(#mask2_531_7403)">
<mask id="mask3_531_7403" style="mask-type:luminance" maskUnits="userSpaceOnUse" x="4" y="24" width="59" height="59">
<mask id="mask4_531_7403" style="mask-type:luminance" maskUnits="userSpaceOnUse" x="4" y="24" width="59" height="59">
<mask id="mask5_531_7403" style="mask-type:luminance" maskUnits="userSpaceOnUse" x="4" y="24" width="59" height="59">
<mask id="mask6_531_7403" style="mask-type:luminance" maskUnits="userSpaceOnUse" x="4" y="24" width="59" height="59">
<path d="M33.5879 82.4248C49.6041 82.4248 62.5879 69.4411 62.5879 53.4248C62.5879 37.4085 49.6041 24.4248 33.5879 24.4248C17.5716 24.4248 4.58789 37.4085 4.58789 53.4248C4.58789 69.4411 17.5716 82.4248 33.5879 82.4248Z" fill="white"/>
</mask>
<g mask="url(#mask6_531_7403)">
<path d="M33.5879 82.4248C49.6041 82.4248 62.5879 69.4411 62.5879 53.4248C62.5879 37.4085 49.6041 24.4248 33.5879 24.4248C17.5716 24.4248 4.58789 37.4085 4.58789 53.4248C4.58789 69.4411 17.5716 82.4248 33.5879 82.4248Z" fill="white"/>
</g>
</mask>
<g mask="url(#mask5_531_7403)">
<path d="M33.5879 82.4248C49.6041 82.4248 62.5879 69.4411 62.5879 53.4248C62.5879 37.4085 49.6041 24.4248 33.5879 24.4248C17.5716 24.4248 4.58789 37.4085 4.58789 53.4248C4.58789 69.4411 17.5716 82.4248 33.5879 82.4248Z" fill="white"/>
</g>
</mask>
<g mask="url(#mask4_531_7403)">
<path d="M33.585 82.4246C49.6012 82.4246 62.585 69.4408 62.585 53.4246C62.585 37.4083 49.6012 24.4246 33.585 24.4246C17.5687 24.4246 4.58496 37.4083 4.58496 53.4246C4.58496 69.4408 17.5687 82.4246 33.585 82.4246Z" fill="white"/>
</g>
</mask>
<g mask="url(#mask3_531_7403)">
<path d="M9.18945 24.4238V60.0172H22.1691L33.5826 40.237H62.5826V24.4238H9.18945ZM9.18945 24.4238V60.0172H22.1691L33.5826 40.237H62.5826V24.4238H9.18945Z" fill="#DB4437"/>
</g>
<mask id="mask7_531_7403" style="mask-type:luminance" maskUnits="userSpaceOnUse" x="4" y="24" width="59" height="59">
<mask id="mask8_531_7403" style="mask-type:luminance" maskUnits="userSpaceOnUse" x="4" y="24" width="59" height="59">
<mask id="mask9_531_7403" style="mask-type:luminance" maskUnits="userSpaceOnUse" x="4" y="24" width="59" height="59">
<mask id="mask10_531_7403" style="mask-type:luminance" maskUnits="userSpaceOnUse" x="4" y="24" width="59" height="59">
<path d="M33.5879 82.4248C49.6041 82.4248 62.5879 69.4411 62.5879 53.4248C62.5879 37.4085 49.6041 24.4248 33.5879 24.4248C17.5716 24.4248 4.58789 37.4085 4.58789 53.4248C4.58789 69.4411 17.5716 82.4248 33.5879 82.4248Z" fill="white"/>
</mask>
<g mask="url(#mask10_531_7403)">
<path d="M33.5879 82.4248C49.6041 82.4248 62.5879 69.4411 62.5879 53.4248C62.5879 37.4085 49.6041 24.4248 33.5879 24.4248C17.5716 24.4248 4.58789 37.4085 4.58789 53.4248C4.58789 69.4411 17.5716 82.4248 33.5879 82.4248Z" fill="white"/>
</g>
</mask>
<g mask="url(#mask9_531_7403)">
<path d="M33.5879 82.4248C49.6041 82.4248 62.5879 69.4411 62.5879 53.4248C62.5879 37.4085 49.6041 24.4248 33.5879 24.4248C17.5716 24.4248 4.58789 37.4085 4.58789 53.4248C4.58789 69.4411 17.5716 82.4248 33.5879 82.4248Z" fill="white"/>
</g>
</mask>
<g mask="url(#mask8_531_7403)">
<path d="M33.585 82.4246C49.6012 82.4246 62.585 69.4408 62.585 53.4246C62.585 37.4083 49.6012 24.4246 33.585 24.4246C17.5687 24.4246 4.58496 37.4083 4.58496 53.4246C4.58496 69.4408 17.5687 82.4246 33.585 82.4246Z" fill="white"/>
</g>
</mask>
<g mask="url(#mask7_531_7403)">
<path d="M4.58398 82.424H32.1885L45.0036 69.6089V60.0174L22.1705 60.0113L4.58398 29.8596V82.424ZM4.58398 82.424H32.1885L45.0036 69.6089V60.0174L22.1705 60.0113L4.58398 29.8596V82.424Z" fill="#0F9D58"/>
</g>
<mask id="mask11_531_7403" style="mask-type:luminance" maskUnits="userSpaceOnUse" x="4" y="24" width="59" height="59">
<mask id="mask12_531_7403" style="mask-type:luminance" maskUnits="userSpaceOnUse" x="4" y="24" width="59" height="59">
<mask id="mask13_531_7403" style="mask-type:luminance" maskUnits="userSpaceOnUse" x="4" y="24" width="59" height="59">
<mask id="mask14_531_7403" style="mask-type:luminance" maskUnits="userSpaceOnUse" x="4" y="24" width="59" height="59">
<path d="M33.5879 82.4248C49.6041 82.4248 62.5879 69.4411 62.5879 53.4248C62.5879 37.4085 49.6041 24.4248 33.5879 24.4248C17.5716 24.4248 4.58789 37.4085 4.58789 53.4248C4.58789 69.4411 17.5716 82.4248 33.5879 82.4248Z" fill="white"/>
</mask>
<g mask="url(#mask14_531_7403)">
<path d="M33.5879 82.4248C49.6041 82.4248 62.5879 69.4411 62.5879 53.4248C62.5879 37.4085 49.6041 24.4248 33.5879 24.4248C17.5716 24.4248 4.58789 37.4085 4.58789 53.4248C4.58789 69.4411 17.5716 82.4248 33.5879 82.4248Z" fill="white"/>
</g>
</mask>
<g mask="url(#mask13_531_7403)">
<path d="M33.5879 82.4248C49.6041 82.4248 62.5879 69.4411 62.5879 53.4248C62.5879 37.4085 49.6041 24.4248 33.5879 24.4248C17.5716 24.4248 4.58789 37.4085 4.58789 53.4248C4.58789 69.4411 17.5716 82.4248 33.5879 82.4248Z" fill="white"/>
</g>
</mask>
<g mask="url(#mask12_531_7403)">
<path d="M33.585 82.4246C49.6012 82.4246 62.585 69.4408 62.585 53.4246C62.585 37.4083 49.6012 24.4246 33.585 24.4246C17.5687 24.4246 4.58496 37.4083 4.58496 53.4246C4.58496 69.4408 17.5687 82.4246 33.585 82.4246Z" fill="white"/>
</g>
</mask>
<g mask="url(#mask11_531_7403)">
<path d="M33.5847 40.2368L45.0043 60.0109L32.1953 82.4236H62.5908V40.2368H33.5847ZM33.5847 40.2368L45.0043 60.0109L32.1953 82.4236H62.5908V40.2368H33.5847Z" fill="#FFCD40"/>
</g>
<mask id="mask15_531_7403" style="mask-type:luminance" maskUnits="userSpaceOnUse" x="4" y="24" width="59" height="59">
<mask id="mask16_531_7403" style="mask-type:luminance" maskUnits="userSpaceOnUse" x="4" y="24" width="59" height="59">
<mask id="mask17_531_7403" style="mask-type:luminance" maskUnits="userSpaceOnUse" x="4" y="24" width="59" height="59">
<mask id="mask18_531_7403" style="mask-type:luminance" maskUnits="userSpaceOnUse" x="4" y="24" width="59" height="59">
<path d="M33.5879 82.4248C49.6041 82.4248 62.5879 69.4411 62.5879 53.4248C62.5879 37.4085 49.6041 24.4248 33.5879 24.4248C17.5716 24.4248 4.58789 37.4085 4.58789 53.4248C4.58789 69.4411 17.5716 82.4248 33.5879 82.4248Z" fill="white"/>
</mask>
<g mask="url(#mask18_531_7403)">
<path d="M33.5879 82.4248C49.6041 82.4248 62.5879 69.4411 62.5879 53.4248C62.5879 37.4085 49.6041 24.4248 33.5879 24.4248C17.5716 24.4248 4.58789 37.4085 4.58789 53.4248C4.58789 69.4411 17.5716 82.4248 33.5879 82.4248Z" fill="white"/>
</g>
</mask>
<g mask="url(#mask17_531_7403)">
<path d="M33.5879 82.4248C49.6041 82.4248 62.5879 69.4411 62.5879 53.4248C62.5879 37.4085 49.6041 24.4248 33.5879 24.4248C17.5716 24.4248 4.58789 37.4085 4.58789 53.4248C4.58789 69.4411 17.5716 82.4248 33.5879 82.4248Z" fill="white"/>
</g>
</mask>
<g mask="url(#mask16_531_7403)">
<path d="M33.585 82.4246C49.6012 82.4246 62.585 69.4408 62.585 53.4246C62.585 37.4083 49.6012 24.4246 33.585 24.4246C17.5687 24.4246 4.58496 37.4083 4.58496 53.4246C4.58496 69.4408 17.5687 82.4246 33.585 82.4246Z" fill="white"/>
</g>
</mask>
<g mask="url(#mask15_531_7403)">
<path d="M33.5852 66.6112C40.8681 66.6112 46.772 60.7072 46.772 53.4243C46.772 46.1415 40.8681 40.2375 33.5852 40.2375C26.3024 40.2375 20.3984 46.1415 20.3984 53.4243C20.3984 60.7072 26.3024 66.6112 33.5852 66.6112Z" fill="#F1F1F1"/>
<path d="M33.5844 63.9729C39.41 63.9729 44.1326 59.2503 44.1326 53.4247C44.1326 47.5991 39.41 42.8765 33.5844 42.8765C27.7587 42.8765 23.0361 47.5991 23.0361 53.4247C23.0361 59.2503 27.7587 63.9729 33.5844 63.9729Z" fill="#4285F4"/>
</g>
<mask id="mask19_531_7403" style="mask-type:luminance" maskUnits="userSpaceOnUse" x="-1" y="0" width="69" height="59">
<path d="M-0.000976562 0.000244141V53.4239C-0.000976562 55.9406 2.0587 58.0002 4.5754 58.0002H62.5754C65.0921 58.0002 67.1518 55.9406 67.1518 53.4239V0.000244141H-0.000976562ZM41.2108 12.2121H25.9522C24.2642 12.2121 22.8992 10.8471 22.8992 9.1591C22.8992 7.47114 24.2642 6.10615 25.9522 6.10615H41.2169C42.9049 6.10615 44.2699 7.47114 44.2699 9.1591C44.2638 10.8471 42.8988 12.2121 41.2108 12.2121Z" fill="white"/>
</mask>
<g mask="url(#mask19_531_7403)">
<path d="M-0.00195312 0.000488281H67.1569V29.0005H-0.00195312V0.000488281Z" fill="#212121" fill-opacity="0.05"/>
</g>
<path d="M-0.000976562 28.6226H67.1579V29.0065H-0.000976562V28.6226Z" fill="#212121" fill-opacity="0.02"/>
<path d="M-0.000976562 29.0005H67.1579V29.3844H-0.000976562V29.0005Z" fill="white" fill-opacity="0.05"/>
<path d="M41.2108 12.2121H25.9522C24.3312 12.2121 23.0089 10.9446 22.9114 9.34801C22.9053 9.41504 22.8992 9.47598 22.8992 9.53691C22.8992 11.2249 24.2642 12.5899 25.9522 12.5899H41.2169C42.9049 12.5899 44.2699 11.2249 44.2699 9.53691C44.2699 9.46988 44.2638 9.40894 44.2577 9.34801C44.1602 10.9446 42.8378 12.2121 41.2108 12.2121ZM-0.000976562 0.000244141V0.384149H67.1579V0.000244141H-0.000976562Z" fill="#212121" fill-opacity="0.02"/>
<path d="M25.9539 6.10608H41.2186C42.8396 6.10608 44.1619 7.37357 44.2594 8.97013C44.2655 8.9031 44.2716 8.84216 44.2716 8.78122C44.2716 7.09326 42.9066 5.72827 41.2186 5.72827H25.9539C24.2659 5.72827 22.9009 7.09326 22.9009 8.78122C22.9009 8.84825 22.907 8.90919 22.9131 8.97013C23.0045 7.37357 24.3269 6.10608 25.9539 6.10608ZM62.5832 57.6224H4.58322C2.06651 57.6224 0.00683594 55.5627 0.00683594 53.046V53.4299C0.00683594 55.9466 2.06651 58.0063 4.58322 58.0063H62.5832C65.0999 58.0063 67.1596 55.9466 67.1596 53.4299V53.046C67.1657 55.5627 65.0999 57.6224 62.5832 57.6224Z" fill="#231F20" fill-opacity="0.1"/>
<path d="M-0.000976562 0.000244141V53.4239C-0.000976562 55.9406 2.0587 58.0002 4.5754 58.0002H62.5754C65.0921 58.0002 67.1518 55.9406 67.1518 53.4239V0.000244141H-0.000976562ZM41.2108 12.2121H25.9522C24.2642 12.2121 22.8992 10.8471 22.8992 9.1591C22.8992 7.47114 24.2642 6.10615 25.9522 6.10615H41.2169C42.9049 6.10615 44.2699 7.47114 44.2699 9.1591C44.2638 10.8471 42.8988 12.2121 41.2108 12.2121Z" fill="url(#paint0_radial_531_7403)"/>
</g>
<defs>
<radialGradient id="paint0_radial_531_7403" cx="0" cy="0" r="1" gradientUnits="userSpaceOnUse" gradientTransform="translate(-0.188118 -0.248669) scale(86.8475 86.8475)">
<stop stop-color="white" stop-opacity="0.1"/>
<stop offset="1" stop-color="white" stop-opacity="0"/>
</radialGradient>
</defs>
</svg>
