<svg width="111" height="40" viewBox="0 0 111 40" fill="none" xmlns="http://www.w3.org/2000/svg">
<g id="etherscan">
<rect x="0.5" y="0.5" width="110" height="39" rx="0.5" fill="#F0F4F7"/>
<g id="Group 6269390">
<path id="Vector" d="M36.5019 16.6178V19.4482H39.94V20.6121H36.5019V23.5087H40.3376V24.739H34.9941V15.4021H40.3367V16.619L36.5019 16.6178ZM45.4693 23.4286V24.738H44.5434C43.7674 24.738 43.1789 24.5506 42.7776 24.1759C42.3763 23.8012 42.1758 23.1776 42.1759 22.305V18.7339H41.131V17.451H42.1759V15.6391H43.697V17.451H45.456V18.7339H43.697V22.3315C43.697 22.7458 43.7742 23.0323 43.9284 23.191C44.0826 23.3496 44.3538 23.4288 44.7417 23.4286H45.4693ZM50.9582 17.332C51.8047 17.332 52.4836 17.6054 52.9949 18.1521C53.5063 18.6988 53.7619 19.4792 53.7621 20.4931V24.7387H52.2544V20.6518C52.2544 19.9994 52.0868 19.4946 51.7518 19.1374C51.5737 18.9557 51.3588 18.8139 51.1216 18.7216C50.8845 18.6292 50.6304 18.5884 50.3762 18.6018C50.1089 18.59 49.8421 18.6352 49.5935 18.7344C49.3449 18.8336 49.1203 18.9845 48.9346 19.1772C48.5731 19.5607 48.3922 20.1229 48.3922 20.8635V24.7387H46.8845V14.9513H48.3922V19.0514C48.5665 18.5302 48.9113 18.0829 49.3709 17.7817C49.8436 17.4777 50.3963 17.3212 50.9582 17.332ZM62.293 20.7444C62.2956 20.9615 62.2779 21.1785 62.2401 21.3924H56.6321C56.6585 22.1419 56.8657 22.6974 57.2536 23.0589C57.6445 23.4216 58.1622 23.6164 58.6953 23.6012C59.1512 23.6155 59.5991 23.4808 59.9716 23.2176C60.311 22.9757 60.5416 22.6098 60.6131 22.1992H62.2266C62.1363 22.6956 61.9276 23.1629 61.6182 23.5614C61.2995 23.9662 60.8863 24.2864 60.4147 24.4939C59.8944 24.7243 59.3303 24.8392 58.7614 24.831C58.1096 24.8439 57.4653 24.6891 56.8906 24.3814C56.3486 24.0819 55.9054 23.6316 55.6143 23.0852C55.2934 22.4694 55.1341 21.7822 55.1513 21.088C55.135 20.3981 55.2944 19.7154 55.6143 19.104C55.9054 18.5575 56.3486 18.1072 56.8906 17.8078C57.4653 17.5001 58.1096 17.3453 58.7614 17.3581C59.4126 17.3431 60.0567 17.4957 60.6321 17.8012C61.15 18.081 61.5769 18.5033 61.8624 19.0181C62.1525 19.5467 62.3008 20.1414 62.2929 20.7444H62.293ZM60.772 20.7048C60.8028 20.2909 60.7181 19.8767 60.5273 19.5082C60.3601 19.1993 60.1012 18.9498 59.7866 18.7939C59.4675 18.6382 59.1165 18.559 58.7615 18.5625C58.2163 18.5457 57.6858 18.74 57.2803 19.1049C56.8835 19.4664 56.6675 20.0001 56.6322 20.7059L60.772 20.7048ZM65.255 18.8795C65.4949 18.4109 65.8614 18.0191 66.3131 17.7486C66.7933 17.4651 67.3427 17.3208 67.9002 17.332V18.972H67.4505C66.7892 18.972 66.258 19.1329 65.8569 19.4547C65.4558 19.7765 65.2555 20.3078 65.2564 21.0486V24.7395H63.7487V17.451H65.2564L65.255 18.8795ZM71.4184 17.3585C72.2737 17.3585 72.959 17.5767 73.4745 18.0132C73.9961 18.4601 74.3332 19.0847 74.4202 19.766H72.9922C72.9443 19.3952 72.7635 19.0544 72.483 18.807C72.1726 18.5533 71.779 18.4237 71.3786 18.4434C71.0621 18.4231 70.7491 18.5196 70.499 18.7145C70.3957 18.8059 70.3143 18.9193 70.2604 19.0463C70.2066 19.1733 70.182 19.3107 70.1882 19.4485C70.184 19.5518 70.2019 19.6549 70.2407 19.7508C70.2794 19.8467 70.3382 19.9333 70.4131 20.0047C70.5752 20.153 70.7667 20.2657 70.9751 20.3353C71.2901 20.4399 71.6102 20.5282 71.9341 20.5999C72.4808 20.7233 73.2633 20.9835 73.2633 20.9835C73.2633 20.9835 73.8938 21.3251 74.1362 21.6118C74.3942 21.9456 74.5233 22.3611 74.4999 22.7823C74.5075 23.0662 74.4486 23.348 74.328 23.6051C74.2075 23.8623 74.0287 24.0877 73.8055 24.2636C73.3425 24.6428 72.719 24.8324 71.9348 24.8324C71.0265 24.8324 70.2926 24.6207 69.7327 24.1975C69.4539 23.985 69.2207 23.7186 69.0469 23.4141C68.8732 23.1096 68.7626 22.7733 68.7215 22.4252H70.1896C70.2071 22.6137 70.2631 22.7967 70.3541 22.9627C70.4451 23.1288 70.5691 23.2744 70.7186 23.3907C71.0692 23.6512 71.4991 23.7822 71.9354 23.7615C72.2457 23.7792 72.5509 23.6775 72.7886 23.4772C72.8897 23.3865 72.9697 23.2748 73.0233 23.15C73.0769 23.0252 73.1026 22.8902 73.0987 22.7545C73.1042 22.642 73.0859 22.5296 73.0449 22.4247C73.0038 22.3199 72.9409 22.2249 72.8605 22.1461C72.6891 21.9886 72.4862 21.8691 72.2654 21.7955C71.9447 21.6897 71.6179 21.6035 71.2868 21.5377C70.8497 21.4408 70.4191 21.317 69.9973 21.1669C69.6673 21.0439 69.3754 20.8364 69.1507 20.565C68.9023 20.2422 68.7778 19.8409 68.8002 19.4342C68.7921 19.1473 68.8506 18.8625 68.9709 18.602C69.0914 18.3415 69.2707 18.1125 69.4945 17.933C69.9575 17.55 70.599 17.3585 71.4189 17.3585H71.4184ZM79.2482 17.3585C80.192 17.3585 80.9723 17.6076 81.5892 18.1058C82.2127 18.615 82.6233 19.3393 82.7397 20.136H81.1387C81.0692 19.7081 80.84 19.3226 80.4972 19.0573C80.1276 18.7876 79.6781 18.6502 79.2209 18.6672C78.9487 18.6606 78.6782 18.7121 78.4273 18.8181C78.1765 18.9242 77.9512 19.0823 77.7661 19.2822C77.3781 19.6921 77.1841 20.2939 77.1841 21.0875C77.1841 21.8811 77.3781 22.4851 77.7661 22.8994C77.9501 23.1009 78.1751 23.2607 78.4261 23.3679C78.677 23.4751 78.948 23.5273 79.2209 23.521C79.6795 23.5385 80.1303 23.3989 80.4987 23.1253C80.8407 22.8567 81.0696 22.4697 81.1402 22.0407H82.7413C82.6238 22.8389 82.2138 23.5649 81.5907 24.0775C80.9735 24.5801 80.1932 24.8314 79.2497 24.8314C78.598 24.8442 77.9537 24.6894 77.379 24.3817C76.837 24.0823 76.3937 23.632 76.1027 23.0855C75.7811 22.4698 75.6213 21.7825 75.6382 21.0882C75.6218 20.3983 75.7813 19.7156 76.1011 19.1042C76.3922 18.5577 76.8354 18.1074 77.3775 17.808C77.9525 17.5002 78.5968 17.3454 79.2489 17.3585H79.2482ZM87.1178 17.3585C87.7193 17.3407 88.3112 17.5116 88.8107 17.8472C89.2703 18.1633 89.6177 18.6172 89.8027 19.1434V17.451H91.3105V24.7387H89.8027V23.0457C89.6177 23.5719 89.2703 24.0258 88.8107 24.3419C88.3112 24.6775 87.7193 24.8484 87.1178 24.8307C86.5207 24.8407 85.9323 24.6851 85.4183 24.381C84.911 24.0712 84.5045 23.621 84.2478 23.0848C83.9527 22.4613 83.8078 21.7773 83.8246 21.0877C83.8086 20.4023 83.9535 19.7228 84.2478 19.1037C84.5045 18.5675 84.911 18.1173 85.4183 17.8075C85.9327 17.5035 86.5212 17.3481 87.1185 17.3585H87.1178ZM87.5808 18.6812C87.2826 18.6677 86.9852 18.7179 86.7081 18.8286C86.431 18.9392 86.1806 19.1076 85.9738 19.3226C85.5725 19.7502 85.3719 20.3388 85.3719 21.0883C85.3719 21.8379 85.5727 22.4264 85.9743 22.8539C86.1811 23.069 86.4314 23.2376 86.7086 23.3483C86.9857 23.459 87.2831 23.5094 87.5813 23.496C87.9805 23.5024 88.3737 23.3995 88.7187 23.1984C89.0561 22.9976 89.331 22.7068 89.5124 22.3586C89.7137 21.9662 89.8137 21.5297 89.8034 21.0889C89.8122 20.6502 89.7122 20.2162 89.5124 19.8257C89.3324 19.4747 89.0575 19.1813 88.7187 18.9791C88.3739 18.7779 87.9805 18.6748 87.5813 18.681L87.5808 18.6812ZM97.1962 17.3329C98.0428 17.3329 98.7216 17.6062 99.233 18.153C99.7443 18.6997 100 19.48 100 20.4939V24.7387H98.4924V20.6518C98.4924 19.9994 98.3249 19.4946 97.9899 19.1374C97.8117 18.9557 97.5968 18.814 97.3597 18.7216C97.1226 18.6293 96.8684 18.5884 96.6143 18.6018C96.347 18.59 96.0802 18.6352 95.8316 18.7344C95.583 18.8336 95.3583 18.9845 95.1726 19.1772C94.8111 19.5607 94.6303 20.1229 94.6303 20.8635V24.7387H93.1226V17.451H94.6303V19.0521C94.8045 18.5309 95.1494 18.0836 95.609 17.7824C96.0819 17.4781 96.6345 17.3213 97.1967 17.332L97.1962 17.3329Z" fill="#21325B"/>
<path id="Vector_2" d="M14.2623 19.73C14.2623 19.6156 14.2849 19.5022 14.3289 19.3965C14.3728 19.2908 14.4372 19.1949 14.5183 19.1141C14.5995 19.0334 14.6957 18.9695 14.8016 18.926C14.9075 18.8826 15.021 18.8605 15.1354 18.8611L16.5832 18.8658C16.814 18.8658 17.0353 18.9575 17.1986 19.1207C17.3618 19.2839 17.4535 19.5053 17.4535 19.7361V25.2101C17.6165 25.1618 17.8258 25.1102 18.0548 25.0562C18.2139 25.0189 18.3557 24.9289 18.4572 24.8008C18.5587 24.6726 18.6139 24.514 18.6139 24.3506V17.5603C18.6139 17.3295 18.7055 17.1081 18.8687 16.9448C19.032 16.7816 19.2533 16.6899 19.4842 16.6898H20.9348C21.1656 16.6899 21.387 16.7816 21.5502 16.9448C21.7134 17.1081 21.8051 17.3295 21.8051 17.5603V23.8623C21.8051 23.8623 22.1683 23.7154 22.522 23.5661C22.6534 23.5105 22.7656 23.4174 22.8445 23.2985C22.9234 23.1797 22.9655 23.0402 22.9656 22.8975V15.3845C22.9656 15.1537 23.0573 14.9324 23.2204 14.7691C23.3836 14.6059 23.6049 14.5142 23.8357 14.5142H25.2863C25.5172 14.5142 25.7385 14.6059 25.9017 14.7691C26.065 14.9323 26.1567 15.1537 26.1567 15.3845V21.5713C27.4143 20.6598 28.6887 19.5637 29.7001 18.2456C29.8469 18.0542 29.944 17.8296 29.9827 17.5916C30.0215 17.3537 30.0008 17.1098 29.9224 16.8818C29.4542 15.5348 28.7101 14.3004 27.7375 13.2575C26.7649 12.2147 25.5853 11.3863 24.2742 10.8255C22.9631 10.2647 21.5494 9.98379 20.1234 10.0007C18.6975 10.0177 17.2909 10.3321 15.9935 10.9239C14.696 11.5156 13.5364 12.3718 12.5889 13.4374C11.6413 14.5031 10.9267 15.7548 10.4907 17.1125C10.0546 18.4703 9.90686 19.904 10.0568 21.3221C10.2067 22.7403 10.651 24.1114 11.3613 25.348C11.485 25.5613 11.667 25.7349 11.886 25.8483C12.1049 25.9617 12.3517 26.0103 12.5973 25.9884C12.8717 25.9643 13.2133 25.9301 13.6195 25.8824C13.7963 25.8623 13.9595 25.7779 14.0781 25.6452C14.1967 25.5125 14.2623 25.3409 14.2624 25.1629L14.2623 19.73Z" fill="#21325B"/>
<path id="Vector_3" d="M14.2305 28.5098C15.7595 29.6222 17.5664 30.2899 19.4514 30.439C21.3363 30.588 23.2258 30.2129 24.9107 29.3547C26.5957 28.4965 28.0103 27.189 28.9982 25.5768C29.986 23.9645 30.5086 22.1104 30.5081 20.2195C30.5081 19.9836 30.4972 19.7501 30.4815 19.5181C26.7368 25.103 19.8226 27.714 14.2308 28.509" fill="#979695"/>
</g>
<rect x="0.5" y="0.5" width="110" height="39" rx="0.5" stroke="#A6AFBD"/>
</g>
</svg>
