<svg width="58" height="58" viewBox="0 0 58 58" fill="none" xmlns="http://www.w3.org/2000/svg">
<g id="Vector (Stroke)">
<path fill-rule="evenodd" clip-rule="evenodd" d="M37.3941 43.2494C36.5971 43.7922 35.7724 44.2771 34.926 44.7041C34.8865 44.724 34.8469 44.7438 34.8073 44.7635C26.5465 48.8678 16.2504 47.4786 9.36757 40.5957C0.744145 31.9723 0.744145 17.991 9.36757 9.36757C17.991 0.744144 31.9723 0.744144 40.5957 9.36757C47.4786 16.2504 48.8678 26.5465 44.7635 34.8073C44.7438 34.8469 44.724 34.8865 44.7041 34.926C44.2771 35.7724 43.7922 36.5971 43.2494 37.3941L54.4532 48.598C55.3156 49.4603 55.3156 50.8584 54.4532 51.7208L51.7208 54.4532C50.8584 55.3156 49.4603 55.3156 48.598 54.4532L37.3941 43.2494ZM46.9134 36.9569C52.096 27.4753 50.6736 15.3442 42.6464 7.31696C32.8904 -2.43899 17.0729 -2.43899 7.31696 7.31696C-2.43899 17.0729 -2.43899 32.8904 7.31696 42.6464C15.3442 50.6736 27.4753 52.096 36.9569 46.9134L46.5474 56.5038C48.5422 58.4987 51.7765 58.4987 53.7714 56.5038L56.5039 53.7714C58.4987 51.7765 58.4987 48.5422 56.5039 46.5474L46.9134 36.9569Z" fill="#50505A"/>
<path fill-rule="evenodd" clip-rule="evenodd" d="M37.3941 43.2494C36.5971 43.7922 35.7724 44.2771 34.926 44.7041C34.8865 44.724 34.8469 44.7438 34.8073 44.7635C26.5465 48.8678 16.2504 47.4786 9.36757 40.5957C0.744145 31.9723 0.744145 17.991 9.36757 9.36757C17.991 0.744144 31.9723 0.744144 40.5957 9.36757C47.4786 16.2504 48.8678 26.5465 44.7635 34.8073C44.7438 34.8469 44.724 34.8865 44.7041 34.926C44.2771 35.7724 43.7922 36.5971 43.2494 37.3941L54.4532 48.598C55.3156 49.4603 55.3156 50.8584 54.4532 51.7208L51.7208 54.4532C50.8584 55.3156 49.4603 55.3156 48.598 54.4532L37.3941 43.2494ZM46.9134 36.9569C52.096 27.4753 50.6736 15.3442 42.6464 7.31696C32.8904 -2.43899 17.0729 -2.43899 7.31696 7.31696C-2.43899 17.0729 -2.43899 32.8904 7.31696 42.6464C15.3442 50.6736 27.4753 52.096 36.9569 46.9134L46.5474 56.5038C48.5422 58.4987 51.7765 58.4987 53.7714 56.5038L56.5039 53.7714C58.4987 51.7765 58.4987 48.5422 56.5039 46.5474L46.9134 36.9569Z" fill="url(#paint0_linear_575_1548)"/>
</g>
<defs>
<linearGradient id="paint0_linear_575_1548" x1="52.5283" y1="73.6153" x2="-11.377" y2="71.9554" gradientUnits="userSpaceOnUse">
<stop stop-color="#FF8562"/>
<stop offset="0.854333" stop-color="#D0C018"/>
</linearGradient>
</defs>
</svg>
