<svg width="111" height="40" viewBox="0 0 111 40" fill="none" xmlns="http://www.w3.org/2000/svg">
<g id="tronscan">
<rect x="0.5" y="0.5" width="110" height="39" rx="0.5" fill="#F0F4F7"/>
<g id="Group 6269391">
<path id="Vector" d="M10 13.3056L20.7205 9L31.4643 13.3056L20.7089 17.6229L10 13.3056Z" fill="#C23631"/>
<path id="Vector_2" d="M10.9239 13.3115V26.6526L10 26.2808V13.3115H10.9239Z" fill="#C23631"/>
<path id="Vector_3" d="M21.1915 17.0417V30.441L20.7731 30.6095L20.2734 30.4061V17.0417H21.1915Z" fill="#C23631"/>
<path id="Vector_4" d="M22.0105 30.1098L21.1912 30.441L20.7728 30.6095L20.2731 30.4061L19.5352 30.1098L10.9239 26.6525L10 26.2806V25.287L10.9239 25.6589L20.2731 29.4126L20.7728 29.6159L21.1912 29.7844L22.0105 30.1098Z" fill="#C23631"/>
<path id="Vector_5" d="M10 13.3055V14.305L21.1912 18.7965V17.803L10 13.3055Z" fill="#C23631"/>
<path id="Vector_6" d="M36.5656 11.2544L20.6562 17.646L20.999 18.5002L36.5656 12.2538V11.2544Z" fill="#C23631"/>
<path id="Vector_7" d="M36.5656 15.2639L20.6562 21.6498L20.999 22.5097L36.5656 16.2576V15.2639Z" fill="#C23631"/>
<path id="Vector_8" d="M36.5656 19.2673L20.6562 25.659L20.999 26.5131L36.5656 20.2668V19.2673Z" fill="#C23631"/>
<path id="Vector_9" d="M36.566 23.2765V24.2701L22.0104 30.1097L21.1911 30.441L20.7728 30.6095L20.2731 30.4061L19.5352 30.1097L20.2731 29.8134L20.7728 29.6159L21.1911 29.4474L36.566 23.2765Z" fill="#C23631"/>
<path id="Vector_10" d="M43.6492 17.3964H41.29V16.1936H47.6817V17.3964H45.3284V23.4045H43.6492V17.3964Z" fill="#101010"/>
<path id="Vector_11" d="M53.318 23.4161L51.5458 20.6213H50.3837V23.4103H48.7393V16.1936H51.6445C53.3878 16.1936 54.7532 16.7165 54.7532 18.3493C54.7626 18.8185 54.6117 19.2769 54.3254 19.6487C54.0391 20.0206 53.6345 20.2837 53.1786 20.3946L55.189 23.4161H53.318ZM50.4127 19.4882H51.4877C52.5452 19.4882 53.1263 19.1047 53.1263 18.3261C53.1263 17.5475 52.5452 17.2976 51.4877 17.2976H50.3953L50.4127 19.4882Z" fill="#101010"/>
<path id="Vector_12" d="M55.9033 19.7205C55.9033 17.3962 57.414 16.0598 59.6047 16.0598C61.7953 16.0598 63.306 17.4137 63.306 19.7205C63.306 20.2065 63.2102 20.6878 63.0242 21.1369C62.8382 21.586 62.5656 21.994 62.2219 22.3377C61.8782 22.6814 61.4702 22.954 61.0211 23.14C60.572 23.3261 60.0907 23.4218 59.6047 23.4218C59.1186 23.4218 58.6373 23.3261 58.1882 23.14C57.7391 22.954 57.3311 22.6814 56.9874 22.3377C56.6437 21.994 56.3711 21.586 56.1851 21.1369C55.9991 20.6878 55.9033 20.2065 55.9033 19.7205ZM61.6209 19.7205C61.6209 18.1923 60.8365 17.28 59.6047 17.28C58.3728 17.28 57.5942 18.1923 57.5942 19.7205C57.5942 21.2486 58.3786 22.2074 59.6047 22.2074C60.8307 22.2074 61.6267 21.237 61.6267 19.7205H61.6209Z" fill="#101010"/>
<path id="Vector_13" d="M71.709 22.2365L73.1553 21.6555C73.6751 22.03 74.299 22.2331 74.9395 22.2365C75.7879 22.2365 76.2355 21.9285 76.2355 21.4346C76.2355 20.9407 75.7416 20.7548 75.0148 20.4933L73.9167 20.0924C73.0974 19.7961 72.2725 19.2324 72.2725 18.2156C72.2725 17.0535 73.4346 16.1993 75.085 16.1993C76.2182 16.211 77.3045 16.6535 78.1239 17.437L76.8045 17.9715C76.3051 17.5882 75.6911 17.3836 75.0616 17.3905C74.3471 17.3905 73.8995 17.6636 73.8995 18.1226C73.8995 18.5816 74.4802 18.8025 75.172 19.0407L76.241 19.4591C77.2287 19.8077 77.8736 20.3481 77.8736 21.3533C77.8736 22.5155 76.77 23.4684 74.8927 23.4684C73.7256 23.4164 72.6073 22.9838 71.709 22.2365Z" fill="#101010"/>
<path id="Vector_14" d="M69.1104 16.1994V19.0698V20.813L65.9146 16.1646H64.3457V23.4046H65.9146V18.7561L69.1104 23.4046H70.6734V16.1937L69.1104 16.1994Z" fill="#101010"/>
<path id="Vector_15" d="M98.4429 16.1993V19.0697V20.8129L95.2474 16.1644H93.6729V23.4045H95.2357V18.756L98.4312 23.4045H100V16.1935L98.4429 16.1993Z" fill="#101010"/>
<path id="Vector_16" d="M82.7531 22.2367C81.5447 22.2367 80.7716 21.2837 80.7716 19.7904C80.7716 18.297 81.5447 17.3906 82.7531 17.3906C83.0657 17.3792 83.3758 17.4493 83.6526 17.5939C83.93 17.7386 84.1643 17.9529 84.3338 18.2157L85.7919 17.6347C85.4485 17.1576 84.9892 16.7754 84.4578 16.5234C83.9269 16.2715 83.34 16.158 82.7531 16.1937C80.5977 16.1937 79.1101 17.5184 79.1101 19.7962C79.0755 20.284 79.1464 20.7735 79.3172 21.2317C79.488 21.6899 79.7549 22.1061 80.1002 22.4525C80.4455 22.7988 80.861 23.0671 81.3184 23.2394C81.7759 23.4116 82.2654 23.4838 82.7531 23.4511C83.2938 23.4759 83.8332 23.3767 84.3295 23.1612C84.8258 22.9457 85.2666 22.6195 85.618 22.2076L84.1594 21.6266C83.9843 21.8251 83.7673 21.9827 83.5243 22.0881C83.2814 22.1935 83.0182 22.2442 82.7531 22.2367Z" fill="#101010"/>
<path id="Vector_17" d="M92.6089 23.2997L90.3426 16.2689V16.1992H88.5411V16.2689L86.2926 23.2997L86.252 23.4334H87.8617V23.3579L88.3321 21.6147H90.4646L90.9412 23.3579V23.4334H92.6261L92.6089 23.2997ZM90.1101 20.3363H88.6983L88.8728 19.6914C89.0583 19.029 89.2445 18.3491 89.4011 17.6867L89.5583 18.3027C89.6804 18.7675 89.8025 19.244 89.9357 19.6914L90.1101 20.3363Z" fill="#101010"/>
</g>
<rect x="0.5" y="0.5" width="110" height="39" rx="0.5" stroke="#A6AFBD"/>
</g>
</svg>
