<svg width="33" height="30" viewBox="0 0 33 30" fill="none" xmlns="http://www.w3.org/2000/svg">
<g id="Group 6269614">
<path id="Vector" d="M30.7509 0L18.124 9.37817L20.459 3.84518L30.7509 0Z" fill="#E2761B"/>
<path id="Vector_2" d="M1.60104 0L14.1264 9.467L11.9056 3.84518L1.60104 0ZM26.2076 21.7386L22.8447 26.8909L30.0401 28.8706L32.1087 21.8528L26.2076 21.7386ZM0.268555 21.8528L2.32439 28.8706L9.51982 26.8909L6.15688 21.7386L0.268555 21.8528Z" fill="#E4761B"/>
<path id="Vector_3" d="M9.11543 13.0329L7.11035 16.0659L14.255 16.3832L14.0012 8.70553L9.11543 13.0329ZM23.2398 13.0329L18.2906 8.6167L18.1256 16.3832L25.2576 16.0659L23.2398 13.0329ZM9.52152 26.8908L13.8109 24.7969L10.1053 21.9035L9.52152 26.8908ZM18.5444 24.7969L22.8464 26.8908L22.2499 21.9035L18.5444 24.7969Z" fill="#E4761B"/>
<path id="Vector_4" d="M22.8449 26.8908L18.5429 24.7969L18.8855 27.6015L18.8474 28.7817L22.8449 26.8908ZM9.52002 26.8908L13.5175 28.7817L13.4921 27.6015L13.8094 24.7969L9.52002 26.8908Z" fill="#D7C1B3"/>
<path id="Vector_5" d="M13.5806 20.0509L10.002 18.9976L12.5273 17.8428L13.5806 20.0509ZM18.771 20.0509L19.8243 17.8428L22.3624 18.9976L18.771 20.0509Z" fill="#233447"/>
<path id="Vector_6" d="M9.51724 26.8908L10.1264 21.7385L6.1543 21.8527L9.51724 26.8908ZM22.233 21.7385L22.8421 26.8908L26.2051 21.8527L22.233 21.7385ZM25.2533 16.0659L18.1213 16.3832L18.7812 20.0507L19.8345 17.8426L22.3726 18.9974L25.2533 16.0659ZM9.99947 18.9974L12.5375 17.8426L13.5782 20.0507L14.2507 16.3832L7.10607 16.0659L9.99947 18.9974Z" fill="#CD6116"/>
<path id="Vector_7" d="M7.11035 16.0659L10.1053 21.9035L10.0038 18.9974L7.11035 16.0659ZM22.3768 18.9974L22.2499 21.9035L25.2576 16.0659L22.3768 18.9974ZM14.255 16.3832L13.5824 20.0507L14.42 24.3781L14.6103 18.6801L14.255 16.3832ZM18.1256 16.3832L17.7829 18.6674L17.9352 24.3781L18.7855 20.0507L18.1256 16.3832Z" fill="#E4751F"/>
<path id="Vector_8" d="M18.7837 20.0507L17.9334 24.3781L18.5426 24.7969L22.2481 21.9035L22.3751 18.9974L18.7837 20.0507ZM10.002 18.9974L10.1035 21.9035L13.8091 24.7969L14.4182 24.3781L13.5806 20.0507L10.002 18.9974Z" fill="#F6851B"/>
<path id="Vector_9" d="M18.8474 28.7816L18.8855 27.6014L18.5682 27.3222H13.784L13.4921 27.6014L13.5175 28.7816L9.52002 26.8907L10.916 28.0329L13.7459 29.9999H18.6063L21.449 28.0329L22.8449 26.8907L18.8474 28.7816Z" fill="#C0AD9E"/>
<path id="Vector_10" d="M18.5449 24.797L17.9358 24.3782H14.4205L13.8114 24.797L13.4941 27.6015L13.786 27.3223H18.5703L18.8875 27.6015L18.5449 24.797Z" fill="#161616"/>
<path id="Vector_11" d="M31.2817 9.98731L32.3604 4.80964L30.7487 0L18.5406 9.06091L23.236 13.033L29.8731 14.9746L31.3452 13.2614L30.7107 12.8046L31.7259 11.8782L30.9391 11.269L31.9543 10.4949L31.2817 9.98731ZM0 4.80964L1.07868 9.98731L0.393401 10.4949L1.40863 11.269L0.634518 11.8782L1.64975 12.8046L1.01523 13.2614L2.47462 14.9746L9.11168 13.033L13.8071 9.06091L1.59898 0L0 4.80964Z" fill="#763D16"/>
<path id="Vector_12" d="M29.8752 14.9745L23.2381 13.0329L25.2559 16.0659L22.2483 21.9035L26.2076 21.8527H32.1087L29.8752 14.9745ZM9.11373 13.0329L2.47668 14.9745L0.268555 21.8527H6.15688L10.1036 21.9035L7.10866 16.0659L9.11373 13.0329ZM18.1239 16.3832L18.5427 9.06083L20.4716 3.84509H11.9056L13.8092 9.06083L14.2533 16.3832L14.4056 18.6928L14.4183 24.3781H17.9335L17.9589 18.6928L18.1239 16.3832Z" fill="#F6851B"/>
</g>
</svg>
