<svg width="201" height="147" viewBox="0 0 201 147" fill="none" xmlns="http://www.w3.org/2000/svg">
<path id="Vector" opacity="0.5" d="M144.672 76.8952C146.365 75.4752 146.585 72.9522 145.165 71.2599C143.745 69.5676 141.222 69.3468 139.53 70.7669L144.672 76.8952ZM121.852 85.6004C120.16 87.0204 119.939 89.5434 121.359 91.2357C122.779 92.928 125.302 93.1488 126.994 91.7288L121.852 85.6004ZM13.042 121.072L122.645 29.1036L117.503 22.9752L7.89974 114.943L13.042 121.072ZM182.771 100.758L73.1674 192.726L78.3097 198.855L187.913 106.887L182.771 100.758ZM65.7981 192.082L12.3973 128.441L6.26896 133.583L59.6698 197.224L65.7981 192.082ZM130.015 29.7483L144.848 47.4263L150.977 42.284L136.143 24.606L130.015 29.7483ZM168.582 75.711L183.415 93.3889L189.544 88.2466L174.71 70.5687L168.582 75.711ZM73.1674 192.726C70.9544 194.583 67.6551 194.295 65.7981 192.082L59.6698 197.224C64.3667 202.821 72.7121 203.552 78.3097 198.855L73.1674 192.726ZM187.913 106.887C193.511 102.19 194.241 93.8442 189.544 88.2466L183.415 93.3889C185.272 95.6019 184.984 98.9013 182.771 100.758L187.913 106.887ZM122.645 29.1036C124.858 27.2467 128.158 27.5353 130.015 29.7483L136.143 24.606C131.446 19.0084 123.101 18.2783 117.503 22.9752L122.645 29.1036ZM7.89974 114.943C2.30214 119.64 1.57201 127.986 6.26896 133.583L12.3973 128.441C10.5404 126.228 10.829 122.929 13.042 121.072L7.89974 114.943ZM108.056 83.5198L157.555 41.9859L152.412 35.8575L102.914 77.3915L108.056 83.5198ZM164.924 42.6306L176.791 56.773L182.919 51.6307L171.052 37.4883L164.924 42.6306ZM176.146 64.1422L126.648 105.676L131.79 111.805L181.288 70.2706L176.146 64.1422ZM119.279 105.031L107.412 90.8891L101.283 96.0314L113.15 110.174L119.279 105.031ZM126.648 105.676C124.435 107.533 121.135 107.244 119.279 105.031L113.15 110.174C117.847 115.771 126.193 116.501 131.79 111.805L126.648 105.676ZM176.791 56.773C178.648 58.986 178.359 62.2853 176.146 64.1422L181.288 70.2706C186.886 65.5736 187.616 57.2283 182.919 51.6307L176.791 56.773ZM157.555 41.9859C159.768 40.1289 163.067 40.4176 164.924 42.6306L171.052 37.4883C166.355 31.8907 158.01 31.1606 152.412 35.8575L157.555 41.9859ZM102.914 77.3915C97.3165 82.0884 96.5864 90.4338 101.283 96.0314L107.412 90.8891C105.555 88.6761 105.843 85.3768 108.056 83.5198L102.914 77.3915ZM123.826 202.837L147.868 182.663L142.726 176.535L118.684 196.708L123.826 202.837ZM123.91 204.373L111.182 215.053L116.324 221.181L129.052 210.501L123.91 204.373ZM115.517 215.432L104.836 202.704L98.7081 207.847L109.388 220.575L115.517 215.432ZM104.457 207.039L117.185 196.359L112.043 190.231L99.3149 200.911L104.457 207.039ZM112.85 195.98L123.531 208.708L129.659 203.566L118.979 190.837L112.85 195.98ZM189.395 137.374L165.353 157.548L170.496 163.676L194.538 143.503L189.395 137.374ZM201.178 149.98L213.906 139.3L208.764 133.172L196.036 143.852L201.178 149.98ZM214.513 132.364L203.833 119.636L197.705 124.779L208.385 137.507L214.513 132.364ZM196.897 119.029L184.169 129.71L189.311 135.838L202.039 125.158L196.897 119.029ZM183.562 136.645L194.242 149.374L200.371 144.231L189.691 131.503L183.562 136.645ZM143.386 139.027L163.56 163.069L169.688 157.927L149.515 133.885L143.386 139.027ZM122.173 156.828L142.346 180.87L148.475 175.727L128.301 151.685L122.173 156.828ZM27.0621 73.1577L44.0329 58.9175L38.8906 52.7891L21.9198 67.0294L27.0621 73.1577ZM15.2792 60.5515L2.55111 71.2317L7.69341 77.36L20.4215 66.6799L15.2792 60.5515ZM1.94431 78.1675L12.6245 90.8956L18.7528 85.7533L8.07266 73.0252L1.94431 78.1675ZM19.5603 91.5024L32.2884 80.8222L27.1461 74.6939L14.418 85.374L19.5603 91.5024ZM32.8952 73.8864L22.215 61.1583L16.0867 66.3006L26.7668 79.0287L32.8952 73.8864ZM78.4892 19.562L61.5184 33.8022L66.6607 39.9305L83.6315 25.6903L78.4892 19.562ZM78.4052 18.0258L91.1333 7.34564L85.991 1.21728L73.2629 11.8974L78.4052 18.0258ZM86.7985 6.96638L97.4786 19.6945L103.607 14.5522L92.9268 1.82408L86.7985 6.96638ZM97.8579 15.3596L85.1298 26.0398L90.2721 32.1682L103 21.488L97.8579 15.3596ZM89.4646 26.419L78.7845 13.6909L72.6561 18.8332L83.3363 31.5614L89.4646 26.419ZM84.2469 56.1021L67.0399 35.5957L60.9116 40.738L78.1185 61.2444L84.2469 56.1021ZM139.53 70.7669L121.852 85.6004L126.994 91.7288L144.672 76.8952L139.53 70.7669ZM63.0333 73.9024L45.8264 53.3959L39.698 58.5382L56.905 79.0447L63.0333 73.9024ZM91.1333 7.34564C89.8316 8.43793 87.8908 8.26816 86.7985 6.96638L92.9268 1.82408C91.1791 -0.258764 88.0738 -0.530407 85.991 1.21728L91.1333 7.34564ZM73.2629 11.8974C71.1801 13.6451 70.9084 16.7504 72.6561 18.8332L78.7845 13.6909C79.8768 14.9927 79.707 16.9335 78.4052 18.0258L73.2629 11.8974ZM61.5184 33.8022C59.4356 35.5499 59.1639 38.6551 60.9116 40.738L67.0399 35.5957C68.1323 36.8975 67.9624 38.8382 66.6607 39.9305L61.5184 33.8022ZM32.2884 80.8222C34.3712 79.0745 34.6429 75.9693 32.8952 73.8864L26.7668 79.0287C25.6745 77.727 25.8443 75.7862 27.1461 74.6939L32.2884 80.8222ZM12.6245 90.8956C14.3722 92.9784 17.4774 93.2501 19.5603 91.5024L14.418 85.374C15.7197 84.2817 17.6605 84.4515 18.7528 85.7533L12.6245 90.8956ZM2.55111 71.2317C0.468278 72.9794 0.196611 76.0846 1.94431 78.1675L8.07266 73.0252C9.16497 74.3269 8.99518 76.2677 7.69341 77.36L2.55111 71.2317ZM20.4215 66.6799C19.1198 67.7722 17.179 67.6024 16.0867 66.3006L22.215 61.1583C20.4673 59.0755 17.3621 58.8038 15.2792 60.5515L20.4215 66.6799ZM184.169 129.71C182.086 131.457 181.815 134.563 183.562 136.645L189.691 131.503C190.783 132.805 190.613 134.746 189.311 135.838L184.169 129.71ZM203.833 119.636C202.085 117.553 198.98 117.282 196.897 119.029L202.039 125.158C200.738 126.25 198.797 126.08 197.705 124.779L203.833 119.636ZM213.906 139.3C215.989 137.553 216.261 134.447 214.513 132.364L208.385 137.507C207.292 136.205 207.462 134.264 208.764 133.172L213.906 139.3ZM196.036 143.852C197.338 142.76 199.278 142.929 200.371 144.231L194.242 149.374C195.99 151.456 199.095 151.728 201.178 149.98L196.036 143.852ZM165.353 157.548C166.655 156.456 168.596 156.625 169.688 157.927L163.56 163.069C165.308 165.152 168.413 165.424 170.496 163.676L165.353 157.548ZM117.185 196.359C115.883 197.451 113.943 197.281 112.85 195.98L118.979 190.837C117.231 188.755 114.126 188.483 112.043 190.231L117.185 196.359ZM44.0329 58.9175C42.7311 60.0098 40.7904 59.84 39.698 58.5382L45.8264 53.3959C44.0787 51.3131 40.9734 51.0414 38.8906 52.7891L44.0329 58.9175ZM104.836 202.704C105.929 204.006 105.759 205.947 104.457 207.039L99.3149 200.911C97.232 202.658 96.9604 205.764 98.7081 207.847L104.836 202.704ZM111.182 215.053C112.483 213.961 114.424 214.131 115.517 215.432L109.388 220.575C111.136 222.657 114.241 222.929 116.324 221.181L111.182 215.053ZM85.1298 26.0398C86.4315 24.9475 88.3723 25.1173 89.4646 26.419L83.3363 31.5614C85.084 33.6442 88.1892 33.9158 90.2721 32.1682L85.1298 26.0398ZM129.052 210.501C131.135 208.754 131.407 205.648 129.659 203.566L123.531 208.708C122.438 207.406 122.608 205.465 123.91 204.373L129.052 210.501ZM97.4786 19.6945C96.3863 18.3927 96.5561 16.4519 97.8579 15.3596L103 21.488C105.083 19.7403 105.355 16.635 103.607 14.5522L97.4786 19.6945ZM147.868 182.663C149.951 180.915 150.222 177.81 148.475 175.727L142.346 180.87C141.254 179.568 141.424 177.627 142.726 176.535L147.868 182.663Z" fill="#F0F4F7"/>
</svg>
