<svg width="196" height="83" viewBox="0 0 196 83" fill="none" xmlns="http://www.w3.org/2000/svg">
<path opacity="0.5" d="M144.672 -1.10479C146.365 -2.5248 146.585 -5.04782 145.165 -6.74012C143.745 -8.43242 141.222 -8.65315 139.53 -7.23315L144.672 -1.10479ZM121.852 7.60041C120.16 9.02042 119.939 11.5434 121.359 13.2357C122.779 14.928 125.302 15.1488 126.994 13.7288L121.852 7.60041ZM13.042 43.0717L122.645 -48.8964L117.503 -55.0248L7.89974 36.9433L13.042 43.0717ZM182.771 22.7582L73.1674 114.726L78.3097 120.855L187.913 28.8866L182.771 22.7582ZM65.7981 114.082L12.3973 50.4409L6.26896 55.5832L59.6698 119.224L65.7981 114.082ZM130.015 -48.2517L144.848 -30.5737L150.977 -35.716L136.143 -53.394L130.015 -48.2517ZM168.582 -2.28903L183.415 15.3889L189.544 10.2466L174.71 -7.43133L168.582 -2.28903ZM73.1674 114.726C70.9544 116.583 67.6551 116.295 65.7981 114.082L59.6698 119.224C64.3667 124.821 72.7121 125.552 78.3097 120.855L73.1674 114.726ZM187.913 28.8866C193.511 24.1896 194.241 15.8442 189.544 10.2466L183.415 15.3889C185.272 17.6019 184.984 20.9013 182.771 22.7582L187.913 28.8866ZM122.645 -48.8964C124.858 -50.7533 128.158 -50.4647 130.015 -48.2517L136.143 -53.394C131.446 -58.9916 123.101 -59.7217 117.503 -55.0248L122.645 -48.8964ZM7.89974 36.9433C2.30214 41.6403 1.57201 49.9856 6.26896 55.5832L12.3973 50.4409C10.5404 48.2279 10.829 44.9286 13.042 43.0717L7.89974 36.9433ZM108.056 5.51983L157.555 -36.0141L152.412 -42.1425L102.914 -0.608522L108.056 5.51983ZM164.924 -35.3694L176.791 -21.227L182.919 -26.3693L171.052 -40.5117L164.924 -35.3694ZM176.146 -13.8578L126.648 27.6762L131.79 33.8046L181.288 -7.72942L176.146 -13.8578ZM119.279 27.0315L107.412 12.8891L101.283 18.0314L113.15 32.1738L119.279 27.0315ZM126.648 27.6762C124.435 29.5331 121.135 29.2445 119.279 27.0315L113.15 32.1738C117.847 37.7714 126.193 38.5015 131.79 33.8046L126.648 27.6762ZM176.791 -21.227C178.648 -19.014 178.359 -15.7147 176.146 -13.8578L181.288 -7.72942C186.886 -12.4264 187.616 -20.7717 182.919 -26.3693L176.791 -21.227ZM157.555 -36.0141C159.768 -37.8711 163.067 -37.5824 164.924 -35.3694L171.052 -40.5117C166.355 -46.1093 158.01 -46.8394 152.412 -42.1425L157.555 -36.0141ZM102.914 -0.608522C97.3165 4.08842 96.5864 12.4338 101.283 18.0314L107.412 12.8891C105.555 10.6761 105.843 7.37676 108.056 5.51983L102.914 -0.608522ZM123.826 124.837L147.868 104.663L142.726 98.5348L118.684 118.708L123.826 124.837ZM123.91 126.373L111.182 137.053L116.324 143.181L129.052 132.501L123.91 126.373ZM115.517 137.432L104.836 124.704L98.7081 129.847L109.388 142.575L115.517 137.432ZM104.457 129.039L117.185 118.359L112.043 112.231L99.3149 122.911L104.457 129.039ZM112.85 117.98L123.531 130.708L129.659 125.566L118.979 112.837L112.85 117.98ZM189.395 59.3742L165.353 79.5478L170.496 85.6762L194.538 65.5025L189.395 59.3742ZM201.178 71.9804L213.906 61.3002L208.764 55.1719L196.036 65.852L201.178 71.9804ZM214.513 54.3644L203.833 41.6363L197.705 46.7786L208.385 59.5067L214.513 54.3644ZM196.897 41.0295L184.169 51.7097L189.311 57.838L202.039 47.1579L196.897 41.0295ZM183.562 58.6455L194.242 71.3736L200.371 66.2313L189.691 53.5032L183.562 58.6455ZM143.386 61.0274L163.56 85.0694L169.688 79.9271L149.515 55.8851L143.386 61.0274ZM122.173 78.8276L142.346 102.87L148.475 97.7273L128.301 73.6853L122.173 78.8276ZM27.0621 -4.84229L44.0329 -19.0825L38.8906 -25.2109L21.9198 -10.9706L27.0621 -4.84229ZM15.2792 -17.4485L2.55111 -6.76831L7.69341 -0.63996L20.4215 -11.3201L15.2792 -17.4485ZM1.94431 0.167472L12.6245 12.8956L18.7528 7.7533L8.07266 -4.97483L1.94431 0.167472ZM19.5603 13.5024L32.2884 2.82223L27.1461 -3.30612L14.418 7.37404L19.5603 13.5024ZM32.8952 -4.11355L22.215 -16.8417L16.0867 -11.6994L26.7668 1.02875L32.8952 -4.11355ZM78.4892 -58.438L61.5184 -44.1978L66.6607 -38.0695L83.6315 -52.3097L78.4892 -58.438ZM78.4052 -59.9742L91.1333 -70.6544L85.991 -76.7827L73.2629 -66.1026L78.4052 -59.9742ZM86.7985 -71.0336L97.4786 -58.3055L103.607 -63.4478L92.9268 -76.1759L86.7985 -71.0336ZM97.8579 -62.6404L85.1298 -51.9602L90.2721 -45.8318L103 -56.512L97.8579 -62.6404ZM89.4646 -51.581L78.7845 -64.3091L72.6561 -59.1668L83.3363 -46.4386L89.4646 -51.581ZM84.2469 -21.8979L67.0399 -42.4043L60.9116 -37.262L78.1185 -16.7556L84.2469 -21.8979ZM139.53 -7.23315L121.852 7.60041L126.994 13.7288L144.672 -1.10479L139.53 -7.23315ZM63.0333 -4.09764L45.8264 -24.6041L39.698 -19.4618L56.905 1.04466L63.0333 -4.09764ZM91.1333 -70.6544C89.8316 -69.5621 87.8908 -69.7318 86.7985 -71.0336L92.9268 -76.1759C91.1791 -78.2588 88.0738 -78.5304 85.991 -76.7827L91.1333 -70.6544ZM73.2629 -66.1026C71.1801 -64.3549 70.9084 -61.2496 72.6561 -59.1668L78.7845 -64.3091C79.8768 -63.0073 79.707 -61.0665 78.4052 -59.9742L73.2629 -66.1026ZM61.5184 -44.1978C59.4356 -42.4501 59.1639 -39.3449 60.9116 -37.262L67.0399 -42.4043C68.1323 -41.1025 67.9624 -39.1618 66.6607 -38.0695L61.5184 -44.1978ZM32.2884 2.82223C34.3712 1.07453 34.6429 -2.03073 32.8952 -4.11355L26.7668 1.02875C25.6745 -0.273016 25.8443 -2.2138 27.1461 -3.30612L32.2884 2.82223ZM12.6245 12.8956C14.3722 14.9784 17.4774 15.2501 19.5603 13.5024L14.418 7.37404C15.7197 6.28173 17.6605 6.45153 18.7528 7.7533L12.6245 12.8956ZM2.55111 -6.76831C0.468278 -5.02061 0.196611 -1.91535 1.94431 0.167472L8.07266 -4.97483C9.16497 -3.67306 8.99518 -1.73228 7.69341 -0.63996L2.55111 -6.76831ZM20.4215 -11.3201C19.1198 -10.2278 17.179 -10.3976 16.0867 -11.6994L22.215 -16.8417C20.4673 -18.9245 17.3621 -19.1962 15.2792 -17.4485L20.4215 -11.3201ZM184.169 51.7097C182.086 53.4574 181.815 56.5626 183.562 58.6455L189.691 53.5032C190.783 54.8049 190.613 56.7457 189.311 57.838L184.169 51.7097ZM203.833 41.6363C202.085 39.5535 198.98 39.2818 196.897 41.0295L202.039 47.1579C200.738 48.2502 198.797 48.0804 197.705 46.7786L203.833 41.6363ZM213.906 61.3002C215.989 59.5525 216.261 56.4473 214.513 54.3644L208.385 59.5067C207.292 58.2049 207.462 56.2642 208.764 55.1719L213.906 61.3002ZM196.036 65.852C197.338 64.7597 199.278 64.9295 200.371 66.2313L194.242 71.3736C195.99 73.4564 199.095 73.7281 201.178 71.9804L196.036 65.852ZM165.353 79.5478C166.655 78.4555 168.596 78.6253 169.688 79.9271L163.56 85.0694C165.308 87.1522 168.413 87.4239 170.496 85.6762L165.353 79.5478ZM117.185 118.359C115.883 119.451 113.943 119.281 112.85 117.98L118.979 112.837C117.231 110.755 114.126 110.483 112.043 112.231L117.185 118.359ZM44.0329 -19.0825C42.7311 -17.9902 40.7904 -18.16 39.698 -19.4618L45.8264 -24.6041C44.0787 -26.6869 40.9734 -26.9586 38.8906 -25.2109L44.0329 -19.0825ZM104.836 124.704C105.929 126.006 105.759 127.947 104.457 129.039L99.3149 122.911C97.232 124.658 96.9604 127.764 98.7081 129.847L104.836 124.704ZM111.182 137.053C112.483 135.961 114.424 136.131 115.517 137.432L109.388 142.575C111.136 144.657 114.241 144.929 116.324 143.181L111.182 137.053ZM85.1298 -51.9602C86.4315 -53.0525 88.3723 -52.8827 89.4646 -51.581L83.3363 -46.4386C85.084 -44.3558 88.1892 -44.0842 90.2721 -45.8318L85.1298 -51.9602ZM129.052 132.501C131.135 130.754 131.407 127.648 129.659 125.566L123.531 130.708C122.438 129.406 122.608 127.465 123.91 126.373L129.052 132.501ZM97.4786 -58.3055C96.3863 -59.6073 96.5561 -61.5481 97.8579 -62.6404L103 -56.512C105.083 -58.2597 105.355 -61.365 103.607 -63.4478L97.4786 -58.3055ZM147.868 104.663C149.951 102.915 150.222 99.8102 148.475 97.7273L142.346 102.87C141.254 101.568 141.424 99.6271 142.726 98.5348L147.868 104.663Z" fill="#F0F4F7"/>
</svg>
