<svg width="1540" height="386" viewBox="0 0 1540 386" fill="none" xmlns="http://www.w3.org/2000/svg">
<g opacity="0.15">
<path d="M155.334 218.879H57.2695L56.7465 158.733H136.244C150.539 158.733 161.958 157.164 170.501 154.026C179.043 150.714 185.232 145.92 189.068 139.643C193.077 133.367 195.082 125.522 195.082 116.108C195.082 105.299 193.077 96.5823 189.068 89.9575C185.058 83.3328 178.695 78.5385 169.978 75.5748C161.435 72.4367 150.365 70.8677 136.767 70.8677H91.7881V380.751H0V0H136.767C160.302 0 181.31 2.1792 199.789 6.53761C218.269 10.7217 233.959 17.1721 246.86 25.8889C259.935 34.6058 269.873 45.5889 276.672 58.8385C283.471 71.9137 286.87 87.3425 286.87 105.125C286.87 120.641 283.558 135.198 276.933 148.796C270.308 162.394 259.238 173.465 243.722 182.007C228.381 190.375 207.373 194.734 180.7 195.082L155.334 218.879ZM151.673 380.751H35.0416L66.4221 310.144H151.673C164.225 310.144 174.249 308.227 181.746 304.391C189.416 300.382 194.908 295.151 198.22 288.701C201.707 282.076 203.451 274.754 203.451 266.735C203.451 256.972 201.794 248.516 198.482 241.369C195.344 234.221 190.288 228.729 183.315 224.894C176.341 220.884 167.014 218.879 155.334 218.879H78.1898L78.7129 158.733H171.024L192.467 182.792C217.92 181.746 238.056 185.32 252.875 193.513C267.868 201.707 278.589 212.516 285.04 225.94C291.49 239.364 294.716 253.398 294.716 268.042C294.716 292.972 289.311 313.805 278.502 330.542C267.868 347.278 251.916 359.83 230.647 368.198C209.378 376.566 183.053 380.751 151.673 380.751Z" fill="#F0F4F7"/>
<path d="M490.582 97.8027V158.995H320.082V97.8027H490.582ZM355.908 27.458H444.035V288.439C444.035 295.936 444.906 301.776 446.65 305.96C448.393 309.97 451.357 312.847 455.541 314.59C459.899 316.159 465.652 316.943 472.8 316.943C477.856 316.943 482.04 316.856 485.352 316.682C488.665 316.333 491.803 315.897 494.766 315.374V378.397C487.27 380.838 479.425 382.668 471.231 383.889C463.037 385.283 454.32 385.981 445.081 385.981C426.252 385.981 410.126 383.017 396.702 377.09C383.453 371.162 373.341 361.835 366.368 349.109C359.394 336.382 355.908 319.82 355.908 299.423V27.458Z" fill="#F0F4F7"/>
<path d="M614.536 167.886V380.751H526.409V97.8027H608.782L614.536 167.886ZM698.217 95.7106L696.648 177.562C693.161 177.213 688.454 176.777 682.527 176.254C676.599 175.731 671.631 175.47 667.621 175.47C657.335 175.47 648.444 176.69 640.948 179.131C633.625 181.397 627.524 184.884 622.642 189.591C617.935 194.124 614.448 199.877 612.182 206.85C610.09 213.824 609.131 221.93 609.306 231.17L593.354 220.71C593.354 201.707 595.184 184.448 598.845 168.932C602.681 153.242 608.085 139.731 615.059 128.399C622.032 116.893 630.487 108.089 640.425 101.987C650.362 95.7106 661.519 92.5726 673.897 92.5726C678.256 92.5726 682.527 92.8341 686.711 93.3571C691.069 93.8801 694.905 94.6646 698.217 95.7106Z" fill="#F0F4F7"/>
<path d="M867.672 309.621V192.99C867.672 184.971 866.539 178.085 864.272 172.331C862.006 166.578 858.432 162.133 853.551 158.995C848.669 155.682 842.132 154.026 833.938 154.026C827.313 154.026 821.647 155.159 816.94 157.426C812.233 159.692 808.659 163.092 806.218 167.624C803.778 172.157 802.557 177.91 802.557 184.884H714.43C714.43 171.808 717.307 159.692 723.06 148.535C728.987 137.203 737.356 127.353 748.164 118.985C759.148 110.616 772.223 104.166 787.39 99.6332C802.732 94.9261 819.817 92.5726 838.645 92.5726C861.134 92.5726 881.183 96.3208 898.791 103.817C916.573 111.314 930.607 122.558 940.893 137.551C951.179 152.37 956.322 171.024 956.322 193.513V309.36C956.322 327.839 957.368 341.874 959.46 351.462C961.552 360.876 964.516 369.157 968.351 376.305V380.751H879.963C875.779 372.034 872.64 361.399 870.548 348.847C868.631 336.12 867.672 323.045 867.672 309.621ZM878.394 207.896L878.917 254.967H839.952C831.759 254.967 824.785 256.1 819.032 258.366C813.453 260.633 808.921 263.771 805.434 267.781C802.121 271.616 799.681 275.974 798.112 280.856C796.717 285.737 796.02 290.88 796.02 296.285C796.02 301.515 797.24 306.222 799.681 310.406C802.296 314.416 805.783 317.554 810.141 319.82C814.499 322.086 819.381 323.22 824.785 323.22C834.548 323.22 842.829 321.389 849.628 317.728C856.602 313.893 861.919 309.273 865.58 303.868C869.241 298.464 871.071 293.408 871.071 288.701L890.423 324.789C886.936 331.762 882.926 338.823 878.394 345.97C874.035 353.118 868.544 359.743 861.919 365.845C855.468 371.772 847.536 376.654 838.122 380.489C828.708 384.15 817.289 385.981 803.865 385.981C786.431 385.981 770.392 382.407 755.748 375.259C741.278 368.111 729.685 358.174 720.968 345.447C712.251 332.547 707.893 317.728 707.893 300.992C707.893 286.347 710.508 273.272 715.738 261.766C721.142 250.26 729.249 240.497 740.058 232.478C750.867 224.458 764.639 218.356 781.375 214.172C798.112 209.988 817.812 207.896 840.475 207.896H878.394Z" fill="#F0F4F7"/>
<path d="M1124.73 317.989C1132.92 317.989 1139.9 316.508 1145.65 313.544C1151.58 310.406 1156.02 306.047 1158.99 300.469C1162.13 294.716 1163.61 287.829 1163.43 279.81H1246.33C1246.5 301.079 1241.27 319.733 1230.64 335.772C1220.18 351.636 1205.88 364.014 1187.75 372.905C1169.8 381.622 1149.49 385.981 1126.82 385.981C1104.68 385.981 1085.33 382.407 1068.77 375.259C1052.21 367.937 1038.35 357.825 1027.19 344.924C1016.21 331.849 1007.93 316.595 1002.35 299.161C996.942 281.728 994.24 262.812 994.24 242.415V236.4C994.24 216.003 996.942 197.087 1002.35 179.654C1007.93 162.046 1016.21 146.791 1027.19 133.89C1038.35 120.815 1052.12 110.704 1068.51 103.556C1085.07 96.2337 1104.33 92.5726 1126.3 92.5726C1149.84 92.5726 1170.58 97.0182 1188.54 105.909C1206.67 114.8 1220.88 127.701 1231.16 144.612C1241.45 161.523 1246.5 182.007 1246.33 206.066H1163.43C1163.61 197.523 1162.3 189.852 1159.51 183.053C1156.72 176.254 1152.36 170.85 1146.44 166.84C1140.68 162.656 1133.27 160.564 1124.21 160.564C1115.14 160.564 1107.82 162.569 1102.24 166.578C1096.66 170.588 1092.39 176.167 1089.43 183.315C1086.64 190.288 1084.72 198.308 1083.67 207.373C1082.8 216.439 1082.37 226.114 1082.37 236.4V242.415C1082.37 252.875 1082.8 262.725 1083.67 271.965C1084.72 281.03 1086.73 289.05 1089.69 296.023C1092.65 302.822 1096.92 308.227 1102.5 312.236C1108.08 316.072 1115.49 317.989 1124.73 317.989Z" fill="#F0F4F7"/>
<path d="M1421.02 385.981C1398 385.981 1377.43 382.407 1359.3 375.259C1341.17 367.937 1325.83 357.912 1313.28 345.186C1300.9 332.459 1291.4 317.815 1284.77 301.253C1278.32 284.691 1275.1 267.17 1275.1 248.691V238.754C1275.1 218.008 1277.97 198.831 1283.73 181.223C1289.48 163.44 1298.02 147.924 1309.35 134.675C1320.68 121.425 1334.89 111.139 1351.98 103.817C1369.06 96.3208 1388.94 92.5726 1411.6 92.5726C1431.65 92.5726 1449.61 95.7978 1465.47 102.248C1481.34 108.699 1494.76 117.939 1505.74 129.968C1516.9 141.997 1525.36 156.554 1531.11 173.639C1537.04 190.724 1540 209.901 1540 231.17V266.996H1308.83V211.819H1453.97V205.02C1454.14 195.605 1452.48 187.586 1449 180.961C1445.68 174.336 1440.8 169.281 1434.35 165.794C1427.9 162.307 1420.06 160.564 1410.82 160.564C1401.23 160.564 1393.3 162.656 1387.02 166.84C1380.92 171.024 1376.12 176.777 1372.64 184.099C1369.32 191.247 1366.97 199.528 1365.58 208.942C1364.18 218.356 1363.48 228.293 1363.48 238.754V248.691C1363.48 259.151 1364.88 268.652 1367.67 277.195C1370.63 285.737 1374.82 293.059 1380.22 299.161C1385.8 305.089 1392.42 309.708 1400.1 313.021C1407.94 316.333 1416.83 317.989 1426.77 317.989C1438.8 317.989 1450.65 315.723 1462.33 311.19C1474.01 306.658 1484.04 299.161 1492.41 288.701L1532.42 336.295C1526.66 344.489 1518.47 352.421 1507.83 360.092C1497.37 367.762 1484.82 374.039 1470.18 378.92C1455.53 383.627 1439.15 385.981 1421.02 385.981Z" fill="#F0F4F7"/>
</g>
</svg>
