<svg width="216" height="216" viewBox="0 0 216 216" fill="none" xmlns="http://www.w3.org/2000/svg">
<path d="M111.4 186.694C111.4 188.571 109.878 190.093 108 190.093C106.123 190.093 104.601 188.571 104.601 186.694C104.601 184.816 106.123 183.294 108 183.294C109.878 183.294 111.4 184.816 111.4 186.694Z" fill="#D0C018"/>
<path d="M152.218 113.972C151.558 114.045 150.963 113.568 150.89 112.907C150.817 112.247 151.294 111.652 151.955 111.579C159.216 110.779 165.596 108.966 170.771 106.321C175.68 103.812 179.501 100.559 181.948 96.721C184.363 92.9319 185.444 88.5477 184.913 83.7244C184.568 80.5894 183.546 77.2671 181.774 73.7989C181.472 73.2085 181.706 72.4851 182.296 72.1834C182.887 71.8817 183.61 72.1158 183.912 72.7062C185.825 76.4509 186.93 80.0512 187.306 83.4606C187.899 88.8492 186.685 93.7582 183.973 98.0116C181.293 102.216 177.154 105.756 171.864 108.46C166.424 111.24 159.762 113.141 152.218 113.972Z" fill="#50505A"/>
<path d="M171.612 91.5309C171.04 91.8691 170.302 91.6794 169.964 91.1071C169.626 90.5349 169.815 89.7967 170.388 89.4586C176.809 85.6505 180.689 79.0027 181.83 72.11C182.284 69.3678 182.305 66.5918 181.88 63.9453C181.459 61.3208 180.598 58.8203 179.285 56.6054C176.767 52.3598 172.561 49.1652 166.579 48.1747C165.924 48.0681 165.479 47.4502 165.585 46.7947C165.692 46.1393 166.31 45.6942 166.965 45.8009C173.728 46.9204 178.493 50.5512 181.357 55.3807C182.824 57.8541 183.785 60.6433 184.254 63.5685C184.72 66.4719 184.698 69.5071 184.204 72.4962C182.954 80.0443 178.686 87.3363 171.612 91.5309Z" fill="#50505A"/>
<path d="M99.2771 86.1728C99.2771 85.5069 99.8171 84.967 100.483 84.967C101.149 84.967 101.689 85.5069 101.689 86.1728C101.689 87.742 101.052 89.1633 100.024 90.192C98.995 91.2207 97.5737 91.8571 96.0045 91.8571C94.4352 91.8571 93.0138 91.2207 91.9853 90.1919C90.9566 89.1634 90.3202 87.7422 90.3202 86.1728C90.3202 85.2887 90.5252 84.448 90.8903 83.6958C91.2697 82.9146 91.8204 82.2344 92.4917 81.7056C93.0145 81.2947 93.7716 81.3855 94.1825 81.9082C94.5934 82.431 94.5027 83.1881 93.9799 83.599C93.5906 83.9057 93.273 84.2963 93.0569 84.7413C92.8488 85.1701 92.7318 85.6557 92.7318 86.1728C92.7318 87.0767 93.0982 87.895 93.6902 88.487C94.2822 89.0791 95.1006 89.4455 96.0045 89.4455C96.9083 89.4455 97.7268 89.0791 98.3187 88.4872C98.9109 87.895 99.2771 87.0767 99.2771 86.1728Z" fill="#50505A"/>
<path d="M114.311 86.1728C114.311 85.5069 114.851 84.967 115.517 84.967C116.183 84.967 116.723 85.5069 116.723 86.1728C116.723 87.0767 117.089 87.895 117.681 88.4872C118.273 89.0791 119.092 89.4455 119.996 89.4455C120.899 89.4455 121.718 89.0791 122.31 88.487C122.902 87.895 123.268 87.0767 123.268 86.1728C123.268 85.6557 123.151 85.1701 122.943 84.7413C122.727 84.2963 122.409 83.9057 122.02 83.599C121.497 83.1881 121.407 82.431 121.818 81.9082C122.228 81.3855 122.986 81.2947 123.508 81.7056C124.18 82.2344 124.73 82.9146 125.11 83.6958C125.475 84.448 125.68 85.2887 125.68 86.1728C125.68 87.7422 125.043 89.1634 124.015 90.1919C122.986 91.2207 121.565 91.8571 119.996 91.8571C118.426 91.8571 117.005 91.2207 115.976 90.192C114.948 89.1633 114.311 87.742 114.311 86.1728Z" fill="#50505A"/>
<path d="M106.197 91.8931C106.21 92.5564 105.683 93.1048 105.019 93.1177C104.356 93.1306 103.808 92.6035 103.795 91.9403C103.695 86.93 99.5323 85.7207 95.211 84.4654C90.0394 82.9631 84.6759 81.4048 83.8307 74.3827C83.8218 74.3076 83.8201 74.2333 83.8249 74.1606L83.6354 57.5441C83.6303 56.8808 84.1637 56.3388 84.827 56.3337C85.4902 56.3286 86.0323 56.8621 86.0374 57.5253L86.2268 74.1263C86.8934 79.5464 91.4683 80.8759 95.8797 82.1574C101.066 83.6639 106.062 85.1154 106.197 91.8931Z" fill="#50505A"/>
<path d="M80.1381 108.62C80.3618 107.996 81.0494 107.671 81.6736 107.895C82.2978 108.119 82.6227 108.806 82.399 109.43L79.6429 117.098C79.4193 117.722 78.7317 118.047 78.1075 117.823C77.4833 117.6 77.1584 116.912 77.3821 116.288L80.1381 108.62Z" fill="#50505A"/>
<path d="M106.794 91.5717C106.794 90.9058 107.334 90.3659 108 90.3659C108.666 90.3659 109.206 90.9058 109.206 91.5717V98.5524C109.206 99.2183 108.666 99.7582 108 99.7582C107.334 99.7582 106.794 99.2183 106.794 98.5524V91.5717Z" fill="#50505A"/>
<path d="M64.0459 111.579C64.7066 111.652 65.1831 112.247 65.1103 112.907C65.0376 113.568 64.4428 114.045 63.7821 113.972C56.2389 113.141 49.5768 111.24 44.137 108.46C38.8467 105.756 34.7079 102.216 32.0276 98.0116C29.316 93.7582 28.1011 88.8492 28.6948 83.4606C29.0704 80.0512 30.1751 76.4509 32.0888 72.7062C32.3905 72.1158 33.1139 71.8817 33.7043 72.1834C34.2946 72.4851 34.5287 73.2085 34.227 73.7989C32.4547 77.2671 31.4327 80.5894 31.0874 83.7244C30.5561 88.5477 31.6372 92.9319 34.0528 96.721C36.4995 100.559 40.3201 103.812 45.2297 106.321C50.4043 108.966 56.7847 110.779 64.0459 111.579Z" fill="#50505A"/>
<path d="M142.162 38.5539C142.167 37.8906 142.709 37.3572 143.372 37.3622C144.036 37.3673 144.569 37.9094 144.564 38.5726L144.232 67.7049C144.164 73.4496 143.079 78.9472 140.99 84.1721C138.904 89.3895 135.817 94.3341 131.741 98.9805C131.304 99.4799 130.545 99.5305 130.046 99.0936C129.546 98.6566 129.496 97.8974 129.933 97.398C133.826 92.9596 136.771 88.2444 138.758 83.277C140.738 78.3251 141.766 73.1202 141.83 67.6862L142.162 38.5539Z" fill="#50505A"/>
<path d="M112.206 91.9403C112.193 92.6035 111.645 93.1306 110.981 93.1177C110.318 93.1048 109.791 92.5564 109.804 91.8931C109.939 85.1154 114.935 83.6639 120.121 82.1574C124.532 80.8759 129.107 79.5464 129.774 74.1263L129.963 57.5253C129.968 56.8621 130.51 56.3286 131.174 56.3337C131.837 56.3388 132.37 56.8808 132.365 57.5441L132.176 74.1606C132.18 74.2333 132.179 74.3076 132.17 74.3827C131.325 81.4048 125.961 82.9631 120.79 84.4654C116.468 85.7207 112.305 86.93 112.206 91.9403Z" fill="#50505A"/>
<path d="M119.828 108.655C119.191 108.843 118.522 108.478 118.335 107.841C118.148 107.203 118.512 106.535 119.15 106.347L119.984 106.105C124.395 104.824 128.97 103.494 129.637 98.0742L129.826 81.4732C129.831 80.8099 130.373 80.2765 131.037 80.2816C131.7 80.2867 132.233 80.8287 132.228 81.492L132.039 98.1084C132.043 98.1812 132.042 98.2554 132.033 98.3306C131.188 105.353 125.824 106.911 120.653 108.413L119.828 108.655Z" fill="#50505A"/>
<path d="M96.8504 106.347C97.4876 106.535 97.8524 107.203 97.6652 107.841C97.4779 108.478 96.8092 108.843 96.172 108.655L95.3474 108.413C90.1759 106.911 84.8124 105.353 83.9671 98.3306C83.9582 98.2554 83.9565 98.1812 83.9614 98.1084L83.7718 81.492C83.7667 80.8287 84.3001 80.2867 84.9634 80.2816C85.6267 80.2765 86.1687 80.8099 86.1738 81.4732L86.3632 98.0742C87.0299 103.494 91.6047 104.824 96.0161 106.105L96.8504 106.347Z" fill="#50505A"/>
<path d="M133.601 109.43C133.377 108.806 133.702 108.119 134.326 107.895C134.951 107.671 135.638 107.996 135.862 108.62L138.618 116.288C138.842 116.912 138.517 117.6 137.893 117.823C137.268 118.047 136.581 117.722 136.357 117.098L133.601 109.43Z" fill="#50505A"/>
<path d="M108.976 78.7918C108.589 79.3302 107.838 79.4524 107.3 79.0649C106.761 78.6775 106.639 77.9266 107.026 77.3882C109.264 74.283 113.612 73.2516 118.068 72.1949C123.547 70.8953 129.213 69.5515 129.895 64.1436C129.979 63.4855 130.58 63.0196 131.238 63.1027C131.896 63.186 132.362 63.7871 132.279 64.4452C131.386 71.5133 124.898 73.0521 118.624 74.5404C114.604 75.4936 110.683 76.4238 108.976 78.7918Z" fill="#50505A"/>
<path d="M108.974 77.3882C109.362 77.9266 109.239 78.6775 108.701 79.0649C108.163 79.4524 107.412 79.3302 107.024 78.7918C105.318 76.4238 101.396 75.4936 97.3768 74.5404C91.1023 73.0521 84.6141 71.5133 83.7218 64.4452C83.6386 63.7871 84.1046 63.186 84.7627 63.1027C85.4207 63.0196 86.0219 63.4855 86.1051 64.1436C86.7879 69.5515 92.4534 70.8953 97.9325 72.1949C102.389 73.2516 106.736 74.283 108.974 77.3882Z" fill="#50505A"/>
<path d="M151.874 89.5189C151.424 90.0079 150.662 90.0396 150.173 89.5896C149.684 89.1396 149.653 88.3783 150.103 87.8892C155.702 81.8034 160.092 75.4298 162.817 68.6615C165.484 62.0391 166.563 55.0218 165.627 47.5038C163.282 44.8562 160.314 42.8943 156.73 41.6094C152.965 40.2595 148.514 39.6482 143.387 39.7642C142.723 39.7771 142.175 39.2501 142.162 38.5868C142.149 37.9235 142.676 37.3751 143.339 37.3622C148.757 37.2396 153.494 37.8978 157.54 39.3485C161.647 40.8211 165.033 43.1032 167.686 46.2059C167.832 46.3777 167.933 46.5921 167.964 46.8324C169.038 54.9209 167.909 62.4563 165.049 69.5566C162.207 76.6166 157.659 83.2303 151.874 89.5189ZM173.406 105.571C173.367 104.907 173.873 104.338 174.536 104.299C175.199 104.26 175.769 104.766 175.808 105.429C176.63 119.095 164.3 127.788 152.48 136.12C150.428 137.567 148.391 139.003 146.449 140.449L146.483 137.436C147.991 136.34 149.539 135.249 151.095 134.152C162.378 126.198 174.148 117.9 173.406 105.571Z" fill="#50505A"/>
<path d="M65.898 87.8892C66.348 88.3783 66.3163 89.1396 65.8273 89.5896C65.3382 90.0396 64.577 90.0079 64.127 89.5189C58.3416 83.2303 53.794 76.6166 50.9511 69.5566C48.092 62.4563 46.9627 54.9209 48.0366 46.8324C48.068 46.5921 48.1684 46.3777 48.3151 46.2065C50.968 43.1032 54.354 40.8211 58.4609 39.3485C62.5065 37.8978 67.2435 37.2396 72.6612 37.3622C73.3244 37.3751 73.8515 37.9235 73.8386 38.5868C73.8257 39.2501 73.2773 39.7771 72.614 39.7642C67.4865 39.6482 63.0352 40.2595 59.271 41.6094C55.6873 42.8943 52.7181 44.8562 50.3735 47.5038C49.4378 55.0218 50.5169 62.0391 53.1836 68.6615C55.909 75.4299 60.2992 81.8034 65.898 87.8892ZM40.193 105.429C40.232 104.766 40.8015 104.26 41.4647 104.299C42.128 104.338 42.634 104.907 42.595 105.571C41.8527 117.9 53.6223 126.198 64.9053 134.152C66.4619 135.249 68.0095 136.34 69.5173 137.436L69.5516 140.449C67.6095 139.003 65.5729 137.567 63.5205 136.12C51.7002 127.788 39.3703 119.095 40.193 105.429Z" fill="#50505A"/>
<path d="M45.613 89.4586C46.1852 89.7967 46.3749 90.5349 46.0368 91.1071C45.6987 91.6794 44.9605 91.8691 44.3883 91.5309C37.3148 87.3363 33.0465 80.0443 31.7969 72.4962C31.3022 69.5071 31.2808 66.4719 31.7464 63.5685C32.2155 60.6433 33.1768 57.8541 34.6436 55.3807C37.5075 50.5512 42.273 46.9204 49.0351 45.8009C49.6906 45.6942 50.3085 46.1393 50.4152 46.7947C50.5218 47.4502 50.0768 48.0681 49.4213 48.1747C43.4391 49.1652 39.2337 52.3598 36.7159 56.6054C35.4024 58.8203 34.5411 61.3208 34.1203 63.9453C33.696 66.5918 33.7169 69.3678 34.1708 72.11C35.3119 79.0027 39.1913 85.6505 45.613 89.4586Z" fill="#50505A"/>
<path d="M71.4366 38.5726C71.4315 37.9094 71.9649 37.3673 72.6282 37.3622C73.2914 37.3572 73.8335 37.8906 73.8386 38.5539L74.1708 67.6862C74.2345 73.1202 75.2626 78.3251 77.2426 83.277C79.229 88.2444 82.1749 92.9596 86.0677 97.398C86.5046 97.8974 86.454 98.6566 85.9547 99.0936C85.4553 99.5305 84.6961 99.4799 84.2591 98.9805C80.1838 94.3341 77.0964 89.3895 75.0101 84.1721C72.921 78.9472 71.836 73.4496 71.7688 67.7049L71.4366 38.5726Z" fill="#50505A"/>
<path d="M108 0C137.823 0 164.823 12.0885 184.367 31.6327C203.911 51.1769 216 78.1771 216 108C216 137.823 203.911 164.823 184.367 184.367C164.823 203.911 137.823 216 108 216C78.177 216 51.1769 203.911 31.6327 184.367C12.0885 164.823 0 137.823 0 108C0 78.177 12.0885 51.1769 31.6327 31.6327C51.1769 12.0885 78.177 0 108 0ZM182.662 33.3376C163.555 14.2301 137.158 2.41163 108 2.41163C78.8424 2.41163 52.4452 14.23 33.3376 33.3376C14.23 52.4452 2.41163 78.8424 2.41163 108C2.41163 137.158 14.2301 163.555 33.3376 182.662C52.445 201.77 78.8424 213.588 108 213.588C137.158 213.588 163.555 201.77 182.662 182.662C201.77 163.555 213.588 137.158 213.588 108C213.588 78.8424 201.77 52.445 182.662 33.3376Z" fill="#50505A"/>
<path fill-rule="evenodd" clip-rule="evenodd" d="M105.824 199.25L105.823 199.25L105.822 199.249L105.81 199.244L105.78 199.23C105.768 199.225 105.754 199.218 105.737 199.21C105.719 199.202 105.699 199.193 105.676 199.182C105.587 199.141 105.459 199.081 105.298 199.005C104.974 198.852 104.512 198.632 103.946 198.355C102.815 197.802 101.253 197.018 99.5292 196.088C96.2164 194.3 91.8201 191.724 88.8973 189.079C88.8908 189.073 88.8844 189.067 88.878 189.061C78.1251 179.235 72.2752 167.441 72.1191 154.115L71.8282 128.622C71.8009 126.219 73.4145 124.107 75.7399 123.501C87.1738 120.525 97.3348 115.208 104.516 108.793C106.501 107.021 109.5 107.021 111.484 108.793C118.666 115.208 128.827 120.525 140.26 123.501C142.586 124.107 144.2 126.219 144.172 128.622L143.881 154.113V154.115C143.725 167.441 137.875 179.235 127.123 189.061C127.116 189.067 127.11 189.073 127.103 189.079C124.18 191.724 119.784 194.3 116.471 196.088C114.747 197.018 113.186 197.802 112.055 198.355C111.488 198.632 111.026 198.852 110.703 199.005C110.541 199.081 110.414 199.141 110.325 199.182C110.305 199.191 110.288 199.199 110.272 199.206C110.252 199.216 110.234 199.224 110.22 199.23L110.191 199.244L110.179 199.249L110.178 199.25L110.177 199.25C108.795 199.882 107.206 199.882 105.824 199.25ZM92.4059 185.201C97.2303 189.566 108 194.495 108 194.495C108 194.495 118.77 189.566 123.595 185.201C133.449 176.196 138.515 165.718 138.652 154.053L138.943 128.562C126.826 125.408 115.889 119.74 108 112.693C100.112 119.74 89.1741 125.408 77.0577 128.562L77.3485 154.053C77.4852 165.718 82.5518 176.196 92.4059 185.201Z" fill="#50505A"/>
<path d="M122.308 172.072C123.391 173.028 125.043 172.925 125.999 171.842C129.793 167.543 131.883 162.014 131.883 156.275C131.883 154.955 131.883 133.735 131.883 132.556C131.883 131.112 130.712 129.942 129.268 129.942C127.824 129.942 126.653 131.112 126.653 132.556C126.653 133.727 126.653 134.108 126.653 134.1C126.653 136.604 126.653 142.703 126.653 156.275C126.653 160.739 125.028 165.038 122.078 168.381C121.122 169.464 121.225 171.117 122.308 172.072Z" fill="#50505A"/>
<path d="M108 179.808C109.991 179.808 111.97 179.558 113.882 179.066C115.28 178.706 116.122 177.281 115.762 175.882C115.402 174.483 113.977 173.642 112.578 174.001C111.092 174.384 109.552 174.578 108 174.578C97.8837 174.578 89.6963 166.391 89.6963 156.274C89.6963 154.83 88.5255 153.659 87.0814 153.659C85.6373 153.659 84.4665 154.83 84.4665 156.274C84.4665 169.281 94.9922 179.808 108 179.808Z" fill="#50505A"/>
<path d="M118.808 148.43C120.253 148.43 121.423 147.259 121.423 145.815V126.34C121.423 124.896 120.253 123.725 118.808 123.725C117.364 123.725 116.193 124.896 116.193 126.34V145.815C116.193 147.259 117.364 148.43 118.808 148.43Z" fill="#50505A"/>
<path d="M96.6766 162.813C99.0084 166.844 103.347 169.348 108 169.348C115.23 169.348 121.423 163.505 121.423 156.274C121.423 154.83 120.252 153.659 118.808 153.659C117.364 153.659 116.194 154.83 116.194 156.274C116.194 160.526 112.441 164.118 108 164.118C105.208 164.118 102.604 162.615 101.204 160.194C100.48 158.944 98.881 158.517 97.6309 159.24C96.3809 159.963 95.9538 161.563 96.6766 162.813Z" fill="#50505A"/>
<path d="M97.5407 153.66C98.9849 153.66 100.156 152.489 100.156 151.045V126.34C100.156 124.896 98.9849 123.725 97.5407 123.725C96.0966 123.725 94.926 124.896 94.926 126.34V151.045C94.926 152.489 96.0966 153.66 97.5407 153.66Z" fill="#50505A"/>
<path d="M87.0814 148.43C88.5255 148.43 89.6963 147.259 89.6963 145.815V132.556C89.6963 131.112 88.5255 129.942 87.0814 129.942C85.6373 129.942 84.4665 131.112 84.4665 132.556V145.815C84.4665 147.259 85.6373 148.43 87.0814 148.43Z" fill="#50505A"/>
<path d="M108 137.622C109.444 137.622 110.615 136.451 110.615 135.007V124.548C110.615 123.103 109.444 121.933 108 121.933C106.556 121.933 105.385 123.103 105.385 124.548V135.007C105.385 136.451 106.556 137.622 108 137.622Z" fill="#50505A"/>
<path d="M74.8276 24.8777L73.2589 25.4934L73.1954 23.0305L74.8276 24.8777Z" fill="#50505A"/>
<path d="M110.357 17.415L109.112 17.38L109.176 15.0911L110.415 15.1259C110.642 15.1337 110.84 15.165 111.008 15.2197L111.033 15.2294C111.193 15.2845 111.325 15.3616 111.429 15.4599C111.529 15.5555 111.604 15.6719 111.653 15.8083C111.706 15.9577 111.73 16.132 111.724 16.3304C111.719 16.5045 111.686 16.6589 111.624 16.7927C111.565 16.9209 111.478 17.0331 111.363 17.1301C111.245 17.2282 111.105 17.3011 110.944 17.3485C110.772 17.399 110.576 17.4211 110.357 17.415Z" fill="#50505A"/>
<path d="M126.645 19.414L125.168 19.0815L125.693 16.7511L127.221 17.0952C127.432 17.1475 127.613 17.2218 127.764 17.3166C127.9 17.4029 128.01 17.5082 128.095 17.6321L128.102 17.642C128.186 17.7688 128.24 17.9069 128.264 18.0563C128.288 18.211 128.279 18.3814 128.237 18.5672C128.193 18.7641 128.126 18.9293 128.036 19.0617C127.957 19.1789 127.86 19.2707 127.745 19.3366L127.729 19.3449C127.601 19.4157 127.451 19.4581 127.28 19.4713C127.092 19.4859 126.88 19.4669 126.645 19.414Z" fill="#50505A"/>
<path d="M144.093 23.789C144.049 24.1226 143.945 24.492 143.781 24.8964L143.562 25.4362C143.399 25.8242 143.216 26.1504 143.016 26.4139C142.824 26.6664 142.616 26.8594 142.393 26.9923C142.181 27.1198 141.961 27.1896 141.733 27.2017C141.499 27.2142 141.251 27.1668 140.988 27.0599C140.737 26.9578 140.533 26.8222 140.379 26.6535L140.365 26.6366C140.209 26.4613 140.099 26.2461 140.034 25.9918C139.966 25.7241 139.953 25.4291 139.993 25.1076C140.034 24.7747 140.135 24.4136 140.293 24.0247L140.509 23.4898C140.668 23.1139 140.848 22.7958 141.048 22.5371C141.24 22.2889 141.452 22.0961 141.682 21.959C141.901 21.8279 142.126 21.7547 142.356 21.74C142.588 21.7252 142.832 21.7697 143.087 21.8733C143.35 21.9801 143.561 22.121 143.72 22.2952C143.877 22.4672 143.988 22.6766 144.053 22.9224C144.121 23.1797 144.134 23.469 144.093 23.789Z" fill="#50505A"/>
<path d="M15.2509 105.674L16.8992 105.723L16.8673 106.797C16.8577 107.126 16.7823 107.363 16.6421 107.508C16.5076 107.647 16.297 107.712 16.0105 107.703C15.8783 107.699 15.7615 107.675 15.661 107.631C15.5663 107.589 15.4855 107.528 15.4193 107.45C15.3507 107.368 15.2997 107.27 15.2662 107.156C15.2304 107.034 15.2149 106.892 15.2195 106.734L15.2509 105.674Z" fill="#50505A"/>
<path d="M18.0414 106.705L18.0696 105.758L19.4794 105.8L19.4519 106.724C19.4469 106.898 19.4258 107.049 19.3891 107.177C19.3589 107.283 19.3186 107.368 19.2686 107.433L19.2572 107.445C19.2085 107.504 19.1445 107.548 19.066 107.577C18.9742 107.611 18.8618 107.626 18.7291 107.622C18.616 107.619 18.5174 107.597 18.4338 107.557C18.3545 107.519 18.2846 107.461 18.2241 107.385C18.1614 107.305 18.1144 107.21 18.0841 107.101C18.0513 106.985 18.0371 106.853 18.0414 106.705Z" fill="#50505A"/>
<path d="M19.0187 118.846C18.7739 118.946 18.4856 119.017 18.1547 119.06L17.7112 119.116C17.3833 119.155 17.0921 119.157 16.8384 119.122C16.5955 119.089 16.3859 119.022 16.2105 118.922C16.0425 118.827 15.9106 118.704 15.8152 118.555C15.7171 118.402 15.6538 118.216 15.6257 117.998C15.598 117.784 15.6144 117.588 15.6744 117.413C15.732 117.244 15.8312 117.091 15.9713 116.953L15.9843 116.942C16.1396 116.793 16.3334 116.671 16.5648 116.576C16.8058 116.477 17.0875 116.406 17.4093 116.365L17.8483 116.309C18.1649 116.272 18.4494 116.271 18.7007 116.308C18.942 116.343 19.1532 116.412 19.3335 116.515C19.5021 116.611 19.6353 116.731 19.7322 116.876L19.7398 116.888C19.8395 117.04 19.903 117.222 19.9301 117.432C19.9584 117.65 19.9437 117.848 19.8861 118.024C19.83 118.196 19.7309 118.351 19.5894 118.489C19.4423 118.632 19.2516 118.752 19.0187 118.846Z" fill="#50505A"/>
<path d="M26.2467 148.527L25.6515 147.344L27.5735 147.116L26.2467 148.527Z" fill="#50505A"/>
<path d="M36.6372 164.753L35.8013 163.725L37.6304 163.089L36.6372 164.753Z" fill="#50505A"/>
<path d="M45.4268 174.423L44.4696 173.507L46.206 172.649L45.4268 174.423Z" fill="#50505A"/>
<path d="M150.689 187.683L149.822 188.119L149.019 186.524L149.881 186.091C150.047 186.009 150.201 185.956 150.342 185.933C150.471 185.912 150.59 185.916 150.7 185.946C150.805 185.974 150.9 186.027 150.984 186.103C151.075 186.185 151.155 186.295 151.225 186.433C151.286 186.554 151.32 186.673 151.327 186.787C151.334 186.898 151.315 187.008 151.272 187.116C151.227 187.228 151.158 187.33 151.065 187.421C150.967 187.518 150.842 187.606 150.689 187.683Z" fill="#50505A"/>
<path d="M160.491 181.661L159.539 182.355L158.442 180.85L159.427 180.134C159.568 180.036 159.703 179.967 159.834 179.929C159.955 179.894 160.074 179.883 160.191 179.896L160.199 179.898C160.317 179.913 160.426 179.953 160.525 180.016C160.63 180.083 160.725 180.175 160.812 180.293C160.904 180.42 160.966 180.544 160.998 180.665C161.025 180.77 161.029 180.873 161.01 180.974L161.005 180.992C160.981 181.104 160.928 181.213 160.848 181.321C160.76 181.438 160.641 181.552 160.491 181.661Z" fill="#50505A"/>
<path d="M169.795 172.846C170.019 172.983 170.247 173.173 170.48 173.415L170.788 173.738C171.013 173.979 171.187 174.212 171.31 174.437C171.427 174.651 171.497 174.859 171.521 175.061C171.544 175.253 171.524 175.432 171.46 175.598C171.395 175.767 171.283 175.928 171.123 176.081C170.967 176.23 170.801 176.333 170.625 176.388C170.451 176.443 170.262 176.452 170.06 176.417C169.848 176.38 169.635 176.297 169.422 176.168C169.201 176.033 168.977 175.848 168.751 175.612L168.445 175.293C168.227 175.059 168.058 174.831 167.94 174.608C167.826 174.396 167.757 174.187 167.732 173.982L167.731 173.975C167.708 173.776 167.727 173.593 167.79 173.426C167.853 173.257 167.962 173.098 168.116 172.949C168.274 172.798 168.441 172.694 168.618 172.635C168.79 172.578 168.974 172.566 169.169 172.598C169.372 172.631 169.581 172.714 169.795 172.846Z" fill="#50505A"/>
<path d="M196.582 130.015L196.224 131.289L194.652 130.161L196.582 130.015Z" fill="#50505A"/>
<path d="M197.342 114.872C197.599 114.825 197.896 114.814 198.232 114.84L198.678 114.874C199.006 114.903 199.291 114.96 199.532 115.046C199.763 115.128 199.955 115.235 200.108 115.369C200.251 115.495 200.355 115.642 200.419 115.809C200.483 115.979 200.507 116.174 200.491 116.394C200.474 116.609 200.419 116.797 200.325 116.955C200.233 117.112 200.099 117.245 199.925 117.354C199.743 117.467 199.529 117.548 199.283 117.594C199.028 117.641 198.738 117.653 198.412 117.628L197.971 117.594C197.652 117.566 197.374 117.509 197.137 117.423C196.914 117.341 196.726 117.235 196.573 117.103L196.56 117.091C196.411 116.959 196.303 116.81 196.238 116.644C196.172 116.475 196.147 116.284 196.163 116.071C196.18 115.851 196.234 115.661 196.326 115.501C196.416 115.344 196.544 115.212 196.71 115.106C196.882 114.996 197.09 114.918 197.333 114.873L197.342 114.872Z" fill="#50505A"/>
<path fill-rule="evenodd" clip-rule="evenodd" d="M178.641 37.3587C160.562 19.2789 135.586 8.09608 108 8.09608C80.4144 8.09608 55.4385 19.2789 37.3587 37.3587C19.2789 55.4386 8.09604 80.4144 8.09604 108C8.09604 135.586 19.2789 160.562 37.3587 178.641C55.4385 196.721 80.4142 207.904 108 207.904C135.586 207.904 160.562 196.721 178.641 178.641C196.721 160.562 207.904 135.586 207.904 108C207.904 80.4143 196.721 55.4386 178.641 37.3587ZM142.995 34.9783C132.403 29.8931 120.534 27.0435 108 27.0435C95.4655 27.0435 83.5969 29.8932 73.0055 34.9783C72.9075 34.9683 72.8085 34.9622 72.7082 34.9603C67.0009 34.8311 61.9779 35.536 57.6507 37.0878C53.5771 38.5484 50.1443 40.7404 47.3609 43.6726C40.4973 45.1518 35.5955 49.0564 32.5712 54.1562C30.9514 56.888 29.8899 59.9659 29.3726 63.1917C28.8737 66.3034 28.887 69.5455 29.3988 72.7331C27.6812 76.355 26.6703 79.856 26.3022 83.1969C25.8161 87.6084 26.4309 91.7346 28.0054 95.4951C27.3734 99.5712 27.0434 103.747 27.0434 108C27.0434 143.279 49.6115 173.281 81.0962 184.372C82.9385 186.609 84.9944 188.764 87.2577 190.832V190.842L87.277 190.859H87.2865C88.8604 192.284 90.7991 193.669 92.7764 194.93C94.7567 196.193 96.722 197.308 98.3894 198.207C99.1196 198.601 99.984 199.05 100.867 199.501V199.511C101.631 199.901 102.317 200.241 102.891 200.522L102.894 200.514L103.677 200.893C104.124 201.108 104.164 201.128 104.183 201.139C104.195 201.145 104.199 201.147 104.271 201.181H104.28L104.64 201.349L104.696 201.384L104.807 201.432L104.852 201.454L104.853 201.451L104.882 201.464L104.883 201.462C105.886 201.911 106.949 202.136 108 202.136C109.051 202.136 110.114 201.911 111.118 201.462L111.12 201.464L111.28 201.392L111.279 201.388L111.72 201.181H111.73C111.801 201.147 111.806 201.145 111.817 201.139C111.837 201.128 111.876 201.108 112.324 200.893L113.106 200.514L113.11 200.522C113.684 200.241 114.369 199.901 115.133 199.511V199.501C116.016 199.051 116.881 198.601 117.611 198.207C119.279 197.307 121.244 196.193 123.224 194.93C125.201 193.669 127.14 192.283 128.714 190.859H128.723L128.743 190.842V190.832C131.006 188.764 133.062 186.609 134.904 184.372C166.389 173.281 188.957 143.278 188.957 108C188.957 103.747 188.627 99.5717 187.995 95.4959C189.569 91.7351 190.184 87.6088 189.698 83.1969C189.33 79.856 188.319 76.355 186.602 72.7331C187.113 69.5455 187.127 66.3034 186.628 63.1917C186.111 59.9659 185.049 56.8881 183.429 54.1562C180.405 49.0564 175.503 45.1518 168.64 43.6726C165.856 40.7404 162.424 38.5484 158.35 37.0878C154.023 35.536 149 34.8311 143.292 34.9603C143.192 34.9622 143.093 34.9685 142.995 34.9783ZM73.298 27.1286L75.9082 26.1043L77.1791 27.5427C77.27 27.6601 77.4308 27.7091 77.5761 27.6523L78.559 27.2665C78.5987 27.2517 78.6362 27.2291 78.6694 27.1989C78.8098 27.0712 78.8199 26.8535 78.6922 26.7131L73.0417 20.5175C72.949 20.4117 72.7964 20.3697 72.6578 20.4238L71.8165 20.7546C71.6878 20.805 71.5971 20.9308 71.5982 21.0771L71.6758 29.4456C71.6732 29.4931 71.6805 29.5419 71.6988 29.5891C71.7678 29.7659 71.9674 29.8533 72.1442 29.7843L73.136 29.3946C73.267 29.3433 73.3583 29.214 73.3542 29.0653L73.298 27.1286ZM83.5307 22.792L79.8488 18.0453C79.7681 17.9243 79.6156 17.8633 79.4681 17.9052L78.1839 18.2728C78.0011 18.3248 77.8951 18.5154 77.947 18.6982L80.1041 26.2336C80.1561 26.4164 80.3467 26.5224 80.5295 26.4704L81.524 26.1857C81.7068 26.1337 81.8128 25.9431 81.7608 25.7603L81.6728 25.453C81.2934 24.1278 80.9231 22.8349 80.5019 21.5206L83.5117 25.3671C83.5924 25.4884 83.7451 25.5495 83.8928 25.5076L84.654 25.2891C84.7847 25.2519 84.8864 25.1383 84.9016 24.9948L85.425 20.0872C85.7714 21.4444 86.1481 22.7598 86.5335 24.1054L86.6096 24.3712C86.6616 24.554 86.8522 24.66 87.035 24.608L88.0278 24.3239C88.2106 24.2719 88.3166 24.0813 88.2646 23.8985L86.1074 16.3631C86.0555 16.1803 85.8649 16.0743 85.6821 16.1263L84.3946 16.4955C84.2635 16.533 84.1617 16.6471 84.1469 16.791L83.5307 22.792ZM95.2658 21.4183L91.9488 22.0159L90.7705 15.4754C90.7372 15.2889 90.5587 15.1648 90.3723 15.1982L89.3487 15.3825C89.1623 15.4159 89.0382 15.5944 89.0715 15.7808L90.4612 23.4948C90.4945 23.6812 90.673 23.8053 90.8595 23.772L95.5374 22.9292C95.7239 22.8958 95.848 22.7173 95.8146 22.5309L95.6641 21.6955C95.6308 21.509 95.4523 21.3849 95.2658 21.4183ZM105.022 20.4734C105.162 20.1139 105.242 19.7113 105.262 19.2657C105.264 19.2453 105.264 19.2245 105.263 19.2032C105.249 19.0138 105.083 18.8715 104.894 18.8855L103.859 18.9646C103.691 18.9758 103.552 19.1095 103.539 19.2824C103.517 19.5784 103.469 19.8274 103.396 20.0293C103.33 20.2126 103.243 20.3567 103.137 20.4615C103.028 20.5684 102.889 20.6545 102.719 20.7187C102.536 20.7882 102.318 20.833 102.065 20.8523C101.799 20.8725 101.563 20.8399 101.357 20.7549C101.154 20.6709 100.972 20.5334 100.813 20.3432L100.81 20.3402C100.64 20.1339 100.504 19.8853 100.404 19.5942C100.3 19.2941 100.233 18.9449 100.202 18.5471L100.144 17.7904C100.112 17.37 100.127 16.9975 100.188 16.6746C100.246 16.3674 100.347 16.1035 100.491 15.8828C100.628 15.6719 100.798 15.5092 100.998 15.3952C101.201 15.2794 101.443 15.2107 101.721 15.1894C101.953 15.1719 102.158 15.1853 102.336 15.2299C102.503 15.272 102.648 15.3414 102.768 15.4377C102.89 15.5353 102.998 15.6722 103.09 15.8485C103.188 16.0369 103.268 16.2716 103.33 16.552C103.365 16.7174 103.518 16.8355 103.692 16.8226L104.718 16.7441L104.763 16.7393C104.95 16.7066 105.075 16.5281 105.042 16.3408C104.963 15.8967 104.829 15.5026 104.64 15.1594C104.452 14.818 104.21 14.5275 103.913 14.2883L103.894 14.2724C103.589 14.03 103.242 13.8575 102.854 13.755C102.474 13.6549 102.058 13.6222 101.605 13.6567C101.263 13.6827 100.942 13.7489 100.643 13.8543C100.351 13.9575 100.079 14.0989 99.8305 14.2776L99.8085 14.2925C99.5546 14.478 99.3331 14.6979 99.1446 14.9521C98.9575 15.2042 98.8041 15.4874 98.6843 15.801C98.5655 16.113 98.4842 16.4453 98.4409 16.7972C98.398 17.1437 98.3916 17.5105 98.4211 17.8968L98.4785 18.6479C98.5234 19.2359 98.6393 19.7635 98.8256 20.23C99.0158 20.7063 99.2783 21.1159 99.6123 21.4582L99.6136 21.4595C99.9536 21.8059 100.34 22.0569 100.773 22.212C101.203 22.3662 101.672 22.424 102.18 22.3852C102.643 22.3499 103.058 22.2555 103.424 22.1029C103.799 21.9466 104.123 21.7295 104.395 21.4523C104.668 21.1747 104.877 20.8482 105.022 20.4734ZM109.069 18.915L110.361 18.9513L111.875 21.9664C111.928 22.0819 112.043 22.1637 112.178 22.1673L113.287 22.1985C113.477 22.2035 113.635 22.0541 113.64 21.8646L113.641 21.8145C113.646 21.7539 113.634 21.6914 113.604 21.6336L112.027 18.5922C112.154 18.5293 112.273 18.4587 112.385 18.3809C112.597 18.2324 112.782 18.0581 112.938 17.8585L112.948 17.8465C113.107 17.6383 113.229 17.4106 113.313 17.1636C113.395 16.9213 113.441 16.6598 113.448 16.38C113.46 15.9519 113.403 15.5683 113.277 15.2303C113.147 14.8819 112.945 14.5844 112.671 14.3391C112.402 14.0987 112.077 13.9154 111.695 13.7905C111.329 13.6706 110.908 13.6036 110.431 13.5903L107.838 13.5175C107.649 13.5124 107.491 13.6619 107.485 13.8513L107.266 21.6862C107.26 21.8757 107.41 22.0337 107.599 22.0388L108.637 22.068C108.827 22.0731 108.985 21.9236 108.99 21.7341L109.069 18.915ZM120.314 14.5461L118.176 17.6541L116.876 14.1323C116.835 14.0095 116.727 13.9146 116.59 13.898L115.414 13.7533C115.359 13.7465 115.301 13.753 115.246 13.7749C115.07 13.8447 114.984 14.0443 115.053 14.2205L117.098 19.3469L116.749 22.1632C116.726 22.3518 116.86 22.5237 117.049 22.5466L118.074 22.6736C118.262 22.6965 118.434 22.5621 118.457 22.3734L118.806 19.5604L122.032 15.0988C122.07 15.0509 122.095 14.9923 122.103 14.9274C122.126 14.7387 121.992 14.5668 121.803 14.5439L120.638 14.4003C120.515 14.3854 120.389 14.4374 120.314 14.5461ZM124.233 23.2345L124.831 20.5799L126.297 20.9101C126.763 21.015 127.19 21.0536 127.577 21.0257C127.98 20.9968 128.342 20.896 128.663 20.7243C128.989 20.5495 129.259 20.3093 129.47 20.0041C129.676 19.7082 129.825 19.3527 129.918 18.9381C130.008 18.5396 130.022 18.1632 129.959 17.8099C129.896 17.4546 129.757 17.1235 129.542 16.817L129.535 16.8072C129.322 16.5066 129.047 16.2541 128.71 16.05L128.691 16.038C128.356 15.8384 127.961 15.6876 127.507 15.5854L124.688 14.9505C124.503 14.909 124.319 15.0253 124.277 15.2103L122.555 22.8569C122.514 23.0419 122.63 23.2259 122.815 23.2674L123.823 23.4942C124.008 23.5358 124.192 23.4195 124.233 23.2345ZM135.665 19.2681L137.756 19.8666C137.939 19.9186 138.129 19.8126 138.181 19.6298L138.415 18.8138C138.467 18.631 138.361 18.4404 138.178 18.3884L132.353 16.7208C132.17 16.6688 131.979 16.7748 131.927 16.9576L131.694 17.7736C131.642 17.9564 131.748 18.147 131.93 18.199L134.015 18.7958L132.187 25.1847C132.135 25.3675 132.241 25.5581 132.423 25.6101L133.411 25.8927C133.594 25.9447 133.784 25.8387 133.836 25.6559L135.665 19.2681ZM144.652 27.0323C144.852 26.7256 145.027 26.385 145.179 26.0112L145.366 25.5516C145.518 25.1779 145.63 24.8122 145.701 24.4549C145.772 24.0966 145.801 23.7449 145.789 23.4005C145.777 23.0532 145.722 22.7281 145.625 22.4258C145.526 22.1179 145.383 21.8341 145.198 21.5749C145.013 21.3163 144.793 21.0886 144.538 20.893C144.285 20.6993 143.999 20.5373 143.682 20.4081C143.368 20.2807 143.052 20.1986 142.737 20.1631C142.421 20.1273 142.105 20.1388 141.792 20.1976C141.477 20.2559 141.177 20.3609 140.893 20.5114C140.61 20.6611 140.342 20.8564 140.089 21.0964C139.839 21.3338 139.613 21.6054 139.414 21.91C139.215 22.2129 139.04 22.5497 138.89 22.9199L138.676 23.4483C138.532 23.8109 138.428 24.1677 138.364 24.5183C138.299 24.8723 138.275 25.2174 138.293 25.5532C138.311 25.8932 138.37 26.2135 138.47 26.5135C138.571 26.8165 138.714 27.0972 138.898 27.355C139.082 27.6128 139.299 27.8391 139.551 28.0334C139.801 28.2268 140.084 28.3876 140.397 28.5149C140.718 28.6452 141.036 28.7297 141.352 28.7678C141.668 28.8058 141.982 28.7964 142.294 28.7396C142.608 28.6825 142.906 28.5792 143.187 28.4301C143.465 28.2825 143.73 28.0885 143.98 27.8486C144.227 27.6139 144.451 27.3415 144.652 27.0323ZM20.4309 104.513L14.3762 104.334C14.2341 104.33 14.1155 104.442 14.1117 104.584L14.0492 106.684C14.0391 107.032 14.0724 107.343 14.1493 107.619C14.2271 107.897 14.3495 108.139 14.5163 108.345L14.5291 108.362C14.7036 108.572 14.9149 108.733 15.163 108.845C15.4042 108.953 15.6783 109.011 15.9842 109.02C16.1864 109.026 16.3771 109.005 16.5559 108.955C16.7391 108.905 16.9082 108.826 17.0624 108.717C17.2177 108.608 17.3499 108.479 17.4579 108.327L17.4751 108.303C17.5652 108.422 17.6695 108.528 17.7879 108.62C17.9164 108.722 18.0557 108.799 18.2047 108.852C18.3532 108.905 18.5131 108.933 18.6828 108.939C18.9834 108.947 19.2518 108.907 19.4865 108.819C19.7313 108.727 19.9386 108.583 20.1066 108.389C20.2717 108.2 20.3976 107.966 20.4836 107.686C20.5657 107.42 20.6123 107.11 20.6226 106.757L20.6813 104.777C20.685 104.635 20.5729 104.517 20.4309 104.513ZM15.371 114.38L15.293 111.768L20.434 111.615C20.5761 111.611 20.6882 111.493 20.6844 111.351L20.6604 110.547C20.6567 110.405 20.538 110.293 20.396 110.297L14.3411 110.478C14.1991 110.481 14.087 110.6 14.0907 110.742L14.2004 114.414C14.2042 114.556 14.3228 114.668 14.4648 114.664L15.1207 114.645C15.2627 114.641 15.3748 114.522 15.371 114.38ZM17.0485 120.443C17.3259 120.46 17.6208 120.448 17.9324 120.408L18.3125 120.359C18.6251 120.318 18.9134 120.255 19.1762 120.168C19.4445 120.079 19.6921 119.965 19.918 119.827C20.1468 119.687 20.3446 119.527 20.5107 119.346C20.6791 119.163 20.8154 118.96 20.9189 118.736C21.0223 118.514 21.0914 118.281 21.1255 118.036C21.1594 117.795 21.1592 117.542 21.1253 117.279C21.0915 117.018 21.0268 116.775 20.9319 116.552C20.8389 116.333 20.7156 116.131 20.5628 115.946L20.5511 115.931C20.3936 115.743 20.2089 115.581 19.9977 115.447C19.7938 115.316 19.5654 115.212 19.3133 115.134L19.302 115.13C19.047 115.052 18.7785 115.004 18.4972 114.985C18.2212 114.967 17.9294 114.978 17.6229 115.018L17.1863 115.074C16.8879 115.116 16.6085 115.181 16.3487 115.271C16.0935 115.36 15.8584 115.471 15.6442 115.606L15.6266 115.616C15.4048 115.757 15.2122 115.918 15.0493 116.099C14.8858 116.28 14.7518 116.483 14.6478 116.706C14.5441 116.928 14.4746 117.16 14.4401 117.401C14.406 117.64 14.4056 117.889 14.439 118.15C14.4735 118.416 14.5377 118.662 14.6311 118.886C14.7257 119.114 14.8515 119.322 15.0076 119.509C15.1638 119.696 15.3462 119.856 15.5541 119.989C15.7615 120.121 15.992 120.226 16.2451 120.301C16.4982 120.378 16.7663 120.426 17.0485 120.443ZM17.1412 126.736C17.4336 126.814 17.7551 126.84 18.1044 126.815L18.1336 126.811C18.2734 126.785 18.3657 126.65 18.3396 126.51L18.1894 125.72C18.1665 125.597 18.0561 125.506 17.9271 125.51C17.698 125.518 17.5016 125.503 17.3389 125.464C17.1913 125.429 17.0716 125.374 16.9811 125.301C16.8882 125.225 16.8094 125.125 16.7452 124.999C16.6759 124.864 16.6226 124.7 16.5858 124.506C16.5476 124.304 16.5526 124.118 16.6 123.95C16.6472 123.786 16.738 123.634 16.872 123.494L16.874 123.492C17.0173 123.344 17.1978 123.218 17.4147 123.115C17.6401 123.007 17.9029 122.925 18.2027 122.868L18.7787 122.758C19.098 122.698 19.3859 122.677 19.6416 122.697C19.8851 122.715 20.0977 122.77 20.2783 122.862C20.453 122.95 20.5935 123.067 20.7003 123.212C20.8072 123.359 20.881 123.539 20.9215 123.752C20.9552 123.93 20.9625 124.089 20.9435 124.231C20.9257 124.363 20.884 124.481 20.819 124.584C20.7544 124.686 20.6576 124.781 20.5288 124.868C20.39 124.961 20.2161 125.044 20.0072 125.115C19.8877 125.155 19.8127 125.278 19.8366 125.406L19.9928 126.221C20.0329 126.357 20.1762 126.436 20.3127 126.396C20.647 126.297 20.9372 126.16 21.1831 125.987C21.4348 125.809 21.6401 125.593 21.7978 125.339C21.9577 125.083 22.0603 124.803 22.105 124.499C22.1491 124.202 22.1383 123.88 22.0728 123.535C22.0235 123.274 21.9456 123.034 21.8397 122.815C21.7361 122.601 21.6044 122.405 21.4457 122.229L21.4324 122.213C21.2685 122.035 21.0809 121.884 20.8703 121.761C20.663 121.64 20.4331 121.548 20.181 121.482C19.9331 121.418 19.6719 121.385 19.3973 121.381C19.1264 121.378 18.8445 121.405 18.5524 121.46L17.9805 121.569C17.5327 121.654 17.138 121.788 16.797 121.97C16.4478 122.157 16.1562 122.393 15.923 122.679C15.686 122.97 15.5268 123.288 15.4454 123.631C15.3647 123.971 15.3611 124.336 15.4346 124.724C15.5014 125.075 15.6093 125.385 15.7577 125.653C15.9062 125.92 16.0948 126.145 16.3236 126.328L16.3379 126.34C16.5737 126.525 16.8416 126.657 17.1412 126.736ZM18.7674 129.392L19.3367 129.732L17.2764 132.214C17.2199 132.275 17.1934 132.361 17.2133 132.448L17.429 133.38C17.4412 133.433 17.4702 133.483 17.5152 133.521C17.6243 133.611 17.7867 133.597 17.8776 133.487L20.4594 130.384L23.4054 131.998C23.4609 132.032 23.5291 132.045 23.5974 132.029C23.7361 131.998 23.823 131.859 23.7912 131.721L23.5741 130.78C23.5583 130.71 23.514 130.648 23.4469 130.611L20.5121 128.989L22.7753 128.467C22.914 128.435 23.0008 128.297 22.9691 128.158L22.7893 127.379C22.7575 127.24 22.6191 127.153 22.4804 127.185L16.578 128.547C16.4394 128.579 16.3525 128.718 16.3843 128.856L16.5641 129.635C16.5959 129.774 16.7343 129.861 16.8729 129.829L18.7674 129.392ZM20.4086 138.603C20.7071 138.64 21.0289 138.623 21.3733 138.551L21.4017 138.543C21.5366 138.499 21.6098 138.353 21.5652 138.218L21.3169 137.473C21.2845 137.344 21.1572 137.259 21.0234 137.282C20.7975 137.321 20.6007 137.331 20.4338 137.314C20.2826 137.299 20.1572 137.261 20.0579 137.2C19.9568 137.139 19.8655 137.049 19.7846 136.933C19.6962 136.806 19.621 136.65 19.5597 136.466C19.495 136.271 19.4753 136.087 19.5008 135.913C19.526 135.743 19.5964 135.579 19.711 135.421C19.8314 135.258 19.989 135.112 20.1831 134.984L20.196 134.976C20.4055 134.839 20.655 134.723 20.9438 134.626L21.5001 134.441C21.8078 134.338 22.0901 134.28 22.3459 134.265C22.5899 134.251 22.8083 134.277 23.0006 134.343C23.1852 134.407 23.3402 134.504 23.4642 134.634C23.5889 134.764 23.6852 134.93 23.7532 135.129L23.7568 135.141C23.8138 135.312 23.8422 135.469 23.8422 135.611C23.8422 135.744 23.8167 135.867 23.7659 135.978C23.7157 136.088 23.6322 136.195 23.5162 136.298C23.3905 136.41 23.2294 136.515 23.0329 136.613C22.9195 136.668 22.8617 136.801 22.9024 136.924L23.1657 137.711C23.2236 137.841 23.376 137.899 23.5058 137.841C23.824 137.698 24.0937 137.525 24.3142 137.32C24.5396 137.11 24.7141 136.869 24.8371 136.596C24.9607 136.324 25.0246 136.033 25.0285 135.723C25.0324 135.422 24.9789 135.104 24.8678 134.771C24.7837 134.518 24.6746 134.291 24.541 134.089C24.4059 133.884 24.2443 133.703 24.0571 133.547C23.8696 133.391 23.6638 133.267 23.4405 133.174C23.2174 133.081 22.9768 133.02 22.7192 132.989C22.4641 132.958 22.2006 132.96 21.9295 132.993C21.6648 133.026 21.3891 133.09 21.1026 133.185L20.5502 133.369C20.1166 133.514 19.7433 133.699 19.4308 133.925C19.1148 134.153 18.86 134.422 18.6673 134.732L18.6591 134.744C18.4639 135.063 18.3484 135.399 18.3136 135.751C18.2791 136.099 18.3241 136.461 18.4488 136.835C18.5621 137.175 18.7101 137.468 18.892 137.712C19.079 137.963 19.302 138.165 19.56 138.316C19.8197 138.469 20.1028 138.564 20.4086 138.603ZM21.3449 144.396L21.6452 145.14C21.698 145.272 21.8482 145.336 21.9802 145.283L27.5973 143.016C27.7293 142.963 27.7935 142.813 27.7407 142.681L27.4404 141.937C27.3875 141.805 27.2374 141.741 27.1054 141.793L24.9262 142.673L23.9766 140.32L26.1545 139.441C26.2865 139.388 26.3507 139.238 26.2979 139.106L25.9987 138.365C25.9458 138.233 25.7957 138.168 25.6636 138.221L20.0465 140.488C19.9145 140.541 19.8503 140.691 19.9032 140.823L20.2022 141.564C20.2551 141.696 20.4052 141.761 20.5373 141.708L22.8903 140.758L23.84 143.111L21.4883 144.061C21.3562 144.113 21.2921 144.264 21.3449 144.396ZM24.4128 147.489L25.3914 149.433L24.3595 150.531C24.2874 150.607 24.267 150.724 24.3171 150.823L24.6801 151.544C24.6942 151.576 24.7149 151.605 24.7419 151.63C24.8473 151.726 25.0104 151.718 25.1062 151.613L29.475 146.819C29.5446 146.742 29.5639 146.628 29.5144 146.53L29.2004 145.905C29.1538 145.813 29.054 145.754 28.945 145.765L22.5001 146.422C22.4674 146.424 22.4346 146.433 22.4035 146.449C22.2765 146.513 22.2254 146.668 22.2894 146.795L22.6519 147.515C22.6955 147.618 22.8033 147.685 22.9201 147.671L24.4128 147.489ZM25.4858 153.095L25.8953 153.782C25.9683 153.904 26.1267 153.944 26.2487 153.871L31.4515 150.768C31.5735 150.695 31.6133 150.537 31.5403 150.415L31.1309 149.728C31.0579 149.606 30.8995 149.567 30.7775 149.64L25.5746 152.742C25.4526 152.815 25.4127 152.973 25.4858 153.095ZM29.1065 159.041L29.5338 159.72C29.6096 159.841 29.7687 159.877 29.889 159.801L35.0157 156.574C35.136 156.499 35.1722 156.339 35.0964 156.219L34.6727 155.546C34.5969 155.426 34.4378 155.39 34.3175 155.465L31.0833 157.501L33.0603 153.204C33.0954 153.127 33.0926 153.035 33.0444 152.959L32.6169 152.28C32.5411 152.159 32.382 152.123 32.2617 152.199L27.1351 155.426C27.0148 155.502 26.9786 155.661 27.0544 155.781L27.4817 156.46C27.5575 156.58 27.7166 156.617 27.8369 156.541L31.0551 154.515L29.0943 158.789C29.0552 158.866 29.0568 158.962 29.1065 159.041ZM34.6227 164.133L35.9969 165.822L35.2249 167.115C35.171 167.205 35.1759 167.323 35.2461 167.41L35.7634 168.045C35.7827 168.069 35.8067 168.09 35.8349 168.106C35.9581 168.177 36.1154 168.134 36.1861 168.011L39.4154 162.403C39.4748 162.312 39.4718 162.189 39.3994 162.1L38.9705 161.573C38.9069 161.482 38.7888 161.439 38.6779 161.475L32.5193 163.505C32.4902 163.514 32.4625 163.529 32.4374 163.549C32.3271 163.639 32.3103 163.801 32.4 163.912L32.9174 164.548C32.9837 164.632 33.098 164.668 33.2044 164.631L34.6227 164.133ZM39.2961 172.282L39.8096 172.899C39.9005 173.008 40.0629 173.023 40.172 172.932L44.827 169.056C44.9361 168.965 44.9511 168.803 44.8602 168.693L44.3514 168.082C44.2605 167.973 44.0982 167.958 43.989 168.049L41.0514 170.495L42.4434 165.973C42.4679 165.893 42.4529 165.802 42.3952 165.733L41.8818 165.116C41.791 165.007 41.6286 164.992 41.5195 165.083L36.8644 168.959C36.7553 169.05 36.7403 169.213 36.8312 169.322L37.3446 169.938C37.4355 170.047 37.5979 170.062 37.707 169.971L40.6293 167.538L39.2479 172.042C39.2235 172.122 39.2384 172.213 39.2961 172.282ZM43.3524 174.057L44.9247 175.562L44.3192 176.94C44.2763 177.037 44.2956 177.154 44.3759 177.231L44.9679 177.798C44.9901 177.819 45.0165 177.837 45.0466 177.849C45.1776 177.904 45.3286 177.843 45.3837 177.712L47.8974 171.733C47.9375 171.638 47.9173 171.524 47.8381 171.448L47.3499 170.981C47.2759 170.896 47.1523 170.867 47.0458 170.917L41.1867 173.695C41.1589 173.708 41.133 173.727 41.1106 173.75C41.0126 173.852 41.0162 174.015 41.1187 174.113L41.6951 174.665C41.7702 174.753 41.8982 174.782 42.0064 174.728L43.3524 174.057ZM49.7964 180.384L47.8168 178.681L51.1715 174.781C51.2639 174.673 51.2513 174.51 51.1432 174.418L50.5339 173.894C50.4258 173.802 50.2629 173.814 50.1705 173.922L46.2204 178.514C46.1279 178.623 46.1405 178.785 46.2486 178.878L49.0335 181.273C49.1416 181.366 49.3045 181.353 49.3969 181.245L49.8247 180.748C49.9171 180.64 49.9045 180.477 49.7964 180.384ZM56.1614 178.625L53.4928 179.836L54.04 176.969C54.0607 176.875 54.028 176.774 53.9476 176.71L53.227 176.145C53.1938 176.119 53.1538 176.101 53.1092 176.093C52.9688 176.071 52.8363 176.166 52.8135 176.306L52.1216 180.517L50.7668 182.242C50.6788 182.354 50.6982 182.517 50.8102 182.605L51.4379 183.098C51.5499 183.186 51.7122 183.166 51.8002 183.054L53.1549 181.329L57.0715 179.662C57.1144 179.646 57.1536 179.618 57.1839 179.58C57.2719 179.468 57.2525 179.305 57.1405 179.217L56.4268 178.657C56.3537 178.6 56.2519 178.584 56.1614 178.625ZM59.5351 182.136L60.9571 183.047C61.0769 183.124 61.2366 183.089 61.3134 182.969L61.6673 182.417C61.7442 182.297 61.7094 182.137 61.5896 182.06L57.6465 179.534C57.5267 179.457 57.367 179.492 57.2901 179.612L56.9361 180.164C56.8593 180.284 56.8941 180.444 57.0139 180.521L58.4326 181.429L55.6579 185.76C55.5811 185.88 55.6159 186.04 55.7356 186.117L56.404 186.545C56.5238 186.622 56.6835 186.587 56.7603 186.467L59.5351 182.136ZM59.5759 188.561L60.2669 188.963C60.39 189.035 60.5478 188.993 60.6191 188.869L63.6647 183.633C63.7359 183.51 63.694 183.352 63.5708 183.281L62.8798 182.879C62.7566 182.808 62.5988 182.85 62.5276 182.973L59.482 188.209C59.4108 188.332 59.4527 188.49 59.5759 188.561ZM66.7586 191.135C66.9966 190.955 67.2127 190.721 67.4065 190.436L67.4296 190.399C67.4947 190.272 67.4451 190.117 67.3186 190.052L66.6151 189.689C66.5019 189.624 66.3553 189.653 66.2771 189.761C66.1427 189.946 66.0096 190.091 65.8787 190.195C65.7591 190.291 65.6425 190.351 65.5294 190.377C65.4136 190.404 65.2857 190.404 65.1465 190.377C64.9964 190.348 64.8339 190.289 64.6597 190.199C64.477 190.105 64.3342 189.987 64.232 189.846C64.1307 189.706 64.0662 189.539 64.0385 189.346C64.0101 189.141 64.0218 188.922 64.0735 188.689C64.127 188.448 64.2245 188.19 64.3657 187.916L64.6343 187.395C64.7831 187.106 64.944 186.867 65.1164 186.678C65.2775 186.501 65.4477 186.369 65.6262 186.283L65.6391 186.278C65.8167 186.194 65.9958 186.155 66.1754 186.161C66.357 186.167 66.5444 186.22 66.7371 186.319C66.8971 186.402 67.0272 186.494 67.1265 186.596C67.2191 186.691 67.2863 186.797 67.3285 186.912C67.3692 187.026 67.3845 187.16 67.3735 187.315C67.3618 187.481 67.3207 187.666 67.2502 187.87C67.2023 187.991 67.2533 188.132 67.3721 188.193L68.1107 188.572C68.2433 188.624 68.393 188.558 68.4448 188.426C68.572 188.103 68.6434 187.791 68.6581 187.489C68.6731 187.182 68.6293 186.888 68.527 186.607C68.4248 186.324 68.2671 186.071 68.0542 185.848C67.846 185.629 67.5858 185.439 67.2737 185.278C67.0378 185.156 66.8008 185.07 66.5637 185.018C66.3228 184.966 66.081 184.95 65.8393 184.969C65.5981 184.988 65.3636 185.043 65.1369 185.134C64.912 185.224 64.697 185.347 64.4925 185.504C64.2885 185.661 64.101 185.846 63.93 186.06C63.7611 186.27 63.6082 186.509 63.4713 186.775L63.2047 187.292C62.9956 187.698 62.8577 188.092 62.7916 188.472C62.7242 188.86 62.7312 189.235 62.8123 189.596C62.8954 189.961 63.0478 190.282 63.269 190.558C63.4886 190.833 63.7735 191.061 64.1228 191.241C64.4403 191.404 64.7506 191.51 65.0532 191.558C65.3628 191.607 65.6626 191.595 65.952 191.524C66.2426 191.452 66.5116 191.322 66.7586 191.135ZM69.9197 190.602C70.1065 190.825 70.3416 191.057 70.6245 191.297C70.833 191.474 71.0041 191.634 71.1364 191.776C71.2604 191.91 71.348 192.025 71.3986 192.121C71.4408 192.201 71.4624 192.283 71.4627 192.367C71.463 192.455 71.4403 192.551 71.3947 192.653C71.3503 192.752 71.2934 192.831 71.2246 192.889C71.1595 192.943 71.0794 192.983 70.985 193.006L70.9757 193.008C70.8704 193.032 70.7523 193.034 70.6212 193.013C70.4794 192.99 70.322 192.94 70.1499 192.863C69.9669 192.781 69.8129 192.686 69.6884 192.58C69.5706 192.479 69.4794 192.367 69.415 192.244C69.3535 192.128 69.3216 192.011 69.3197 191.893C69.3177 191.773 69.3465 191.646 69.4056 191.514C69.4635 191.384 69.4052 191.232 69.2754 191.174L68.5435 190.846C68.4137 190.788 68.2614 190.846 68.2034 190.976C68.1201 191.161 68.0665 191.349 68.0435 191.537C68.0204 191.727 68.0275 191.918 68.0654 192.111C68.1024 192.3 68.1684 192.485 68.2626 192.665C68.3516 192.835 68.4661 193 68.6053 193.158L68.6187 193.174C68.7616 193.333 68.9222 193.476 69.0995 193.604C69.2746 193.73 69.4656 193.839 69.6714 193.932C69.9858 194.073 70.2871 194.164 70.5744 194.205C70.8688 194.246 71.15 194.235 71.4176 194.171C71.6926 194.105 71.9297 193.989 72.1278 193.824C72.3252 193.658 72.4827 193.445 72.5998 193.184C72.672 193.023 72.7222 192.864 72.7492 192.707C72.7771 192.546 72.7817 192.387 72.7623 192.231C72.7436 192.077 72.7017 191.921 72.6373 191.765C72.574 191.611 72.4901 191.46 72.3862 191.31C72.2848 191.165 72.1539 191.01 71.9952 190.846C71.8407 190.688 71.66 190.521 71.4538 190.349C71.26 190.187 71.1026 190.039 70.982 189.906C70.8687 189.78 70.7866 189.667 70.7362 189.566L70.7351 189.565C70.691 189.478 70.6673 189.394 70.664 189.316C70.6608 189.238 70.6765 189.161 70.7108 189.085C70.7584 188.979 70.8179 188.894 70.8889 188.832C70.9566 188.773 71.0393 188.731 71.1361 188.707C71.2386 188.681 71.3524 188.677 71.4766 188.696C71.6115 188.716 71.7577 188.761 71.9144 188.831C72.0834 188.907 72.2224 188.994 72.3309 189.091C72.4271 189.177 72.4998 189.271 72.5481 189.373L72.5548 189.39C72.6024 189.498 72.6238 189.61 72.6196 189.726C72.615 189.847 72.5817 189.977 72.5203 190.113C72.4624 190.243 72.5207 190.396 72.6505 190.454L73.3826 190.782C73.5124 190.84 73.6647 190.782 73.7226 190.652C73.8013 190.477 73.8538 190.297 73.8797 190.114C73.9053 189.931 73.9047 189.744 73.8776 189.555C73.8506 189.364 73.7972 189.181 73.7176 189.007L73.717 189.006C73.6375 188.831 73.5328 188.665 73.4029 188.51C73.2792 188.36 73.1352 188.223 72.9718 188.1L72.9542 188.086C72.7879 187.964 72.6004 187.856 72.3929 187.762C72.0904 187.627 71.7971 187.542 71.5136 187.509C71.2268 187.475 70.9498 187.494 70.6834 187.564L70.6722 187.567C70.3987 187.641 70.1627 187.761 69.9654 187.927C69.7678 188.093 69.6116 188.303 69.4975 188.557C69.3968 188.782 69.3452 189.01 69.3438 189.241C69.3421 189.471 69.3902 189.7 69.4875 189.926C69.5809 190.144 69.7251 190.369 69.9197 190.602ZM148.267 191.593C148.273 191.296 148.225 190.984 148.122 190.656C148.119 190.641 148.114 190.625 148.107 190.61C148.048 190.48 147.895 190.423 147.766 190.481L147.033 190.813C146.92 190.864 146.857 190.992 146.891 191.116C146.953 191.337 146.984 191.532 146.984 191.699C146.984 191.85 146.959 191.98 146.908 192.086C146.857 192.193 146.778 192.293 146.671 192.386C146.556 192.485 146.409 192.575 146.229 192.656C146.041 192.742 145.86 192.78 145.686 192.773C145.517 192.766 145.348 192.713 145.181 192.617L145.176 192.614C144.998 192.509 144.832 192.363 144.682 192.178C144.526 191.986 144.385 191.75 144.258 191.469L144.016 190.935C143.882 190.638 143.794 190.363 143.753 190.111C143.714 189.872 143.718 189.652 143.765 189.453C143.809 189.262 143.89 189.098 144.006 188.96C144.123 188.822 144.281 188.709 144.479 188.619C144.644 188.545 144.797 188.5 144.939 188.485C145.071 188.472 145.195 188.485 145.312 188.524C145.428 188.563 145.543 188.634 145.656 188.738C145.776 188.848 145.895 188.994 146.011 189.177C146.076 189.292 146.219 189.34 146.342 189.285L147.097 188.942C147.22 188.871 147.262 188.713 147.191 188.59C147.017 188.289 146.816 188.039 146.589 187.84C146.362 187.641 146.109 187.494 145.829 187.399L145.816 187.395C145.532 187.3 145.236 187.266 144.928 187.294C144.626 187.321 144.315 187.407 143.997 187.551C143.757 187.659 143.542 187.792 143.352 187.947C143.162 188.103 142.999 188.283 142.863 188.484C142.728 188.686 142.625 188.904 142.556 189.136C142.487 189.365 142.451 189.611 142.447 189.873C142.443 190.13 142.471 190.392 142.532 190.658C142.592 190.921 142.685 191.189 142.807 191.461L143.047 191.991C143.236 192.407 143.458 192.76 143.715 193.047C143.977 193.341 144.276 193.569 144.61 193.73C144.947 193.891 145.294 193.971 145.647 193.97C145.998 193.968 146.354 193.886 146.712 193.725C147.038 193.577 147.314 193.4 147.539 193.192C147.769 192.981 147.946 192.739 148.07 192.467C148.195 192.194 148.26 191.902 148.267 191.593ZM150.348 189.165L151.252 188.71L153.389 190.207C153.465 190.266 153.572 190.28 153.663 190.234L154.429 189.848C154.556 189.784 154.607 189.63 154.544 189.503L154.529 189.474C154.51 189.43 154.479 189.39 154.436 189.361L152.243 187.866C152.307 187.775 152.364 187.682 152.412 187.586C152.503 187.405 152.565 187.216 152.598 187.018C152.63 186.818 152.629 186.62 152.596 186.423C152.563 186.228 152.499 186.033 152.402 185.841C152.254 185.547 152.075 185.308 151.865 185.124C151.65 184.936 151.405 184.809 151.129 184.742C150.86 184.678 150.573 184.673 150.269 184.727C149.975 184.78 149.664 184.889 149.337 185.053L147.546 185.955C147.419 186.019 147.368 186.174 147.432 186.301L150.155 191.711C150.219 191.838 150.375 191.89 150.501 191.825L151.218 191.465C151.345 191.401 151.396 191.246 151.332 191.119L150.348 189.165ZM154.989 181.896L155.237 184.816L152.722 183.343C152.64 183.29 152.532 183.286 152.445 183.341L151.68 183.825C151.64 183.848 151.606 183.882 151.582 183.925C151.514 184.049 151.559 184.206 151.684 184.275L155.422 186.337L156.593 188.189C156.669 188.31 156.828 188.346 156.948 188.27L157.623 187.844C157.743 187.768 157.779 187.609 157.704 187.488L156.532 185.635L156.27 181.374C156.268 181.332 156.255 181.29 156.231 181.252C156.155 181.132 155.996 181.096 155.876 181.172L155.125 181.646C155.037 181.694 154.98 181.79 154.989 181.896ZM161.472 185.008L160.228 183.301L161.174 182.612C161.472 182.395 161.712 182.167 161.892 181.929C162.08 181.68 162.205 181.419 162.269 181.147C162.333 180.87 162.33 180.592 162.261 180.315C162.194 180.047 162.064 179.78 161.87 179.515C161.684 179.26 161.473 179.061 161.236 178.918C160.999 178.774 160.736 178.687 160.449 178.656L160.441 178.655C160.153 178.625 159.862 178.658 159.568 178.753C159.284 178.846 158.996 178.998 158.705 179.21L156.9 180.526C156.785 180.609 156.76 180.771 156.843 180.885L160.411 185.781C160.495 185.895 160.656 185.921 160.771 185.837L161.416 185.367C161.53 185.283 161.556 185.122 161.472 185.008ZM164.407 176.325L165.739 175.286C165.851 175.199 165.871 175.037 165.783 174.925L165.38 174.407C165.292 174.296 165.13 174.276 165.018 174.363L161.326 177.244C161.214 177.331 161.194 177.493 161.282 177.605L161.685 178.122C161.773 178.234 161.935 178.254 162.047 178.167L163.375 177.13L166.54 181.186C166.627 181.298 166.789 181.318 166.901 181.231L167.527 180.742C167.639 180.655 167.659 180.493 167.571 180.381L164.407 176.325ZM172.25 173.486C172.098 173.251 171.913 173.02 171.695 172.793L171.43 172.516C171.215 172.291 170.993 172.097 170.765 171.935C170.532 171.77 170.294 171.638 170.049 171.54C169.8 171.438 169.554 171.374 169.311 171.348C169.066 171.321 168.822 171.332 168.58 171.381C168.339 171.429 168.11 171.512 167.894 171.629C167.678 171.745 167.474 171.896 167.282 172.08C167.093 172.261 166.936 172.457 166.812 172.666C166.69 172.873 166.6 173.095 166.542 173.33L166.539 173.341C166.481 173.582 166.46 173.826 166.476 174.074C166.493 174.32 166.546 174.57 166.635 174.822C166.723 175.074 166.843 175.318 166.995 175.555C167.145 175.789 167.327 176.018 167.541 176.241L167.844 176.558C168.056 176.775 168.274 176.961 168.5 177.116C168.723 177.269 168.954 177.393 169.194 177.486L169.207 177.492C169.452 177.587 169.695 177.646 169.937 177.67C170.173 177.693 170.408 177.683 170.64 177.639L170.664 177.635C170.902 177.587 171.13 177.505 171.347 177.389C171.56 177.275 171.762 177.126 171.951 176.945C172.144 176.76 172.304 176.563 172.43 176.353C172.554 176.146 172.646 175.925 172.704 175.693L172.707 175.682C172.766 175.445 172.787 175.203 172.77 174.957C172.754 174.714 172.701 174.466 172.612 174.216C172.524 173.968 172.403 173.724 172.25 173.486ZM177.463 171.253L177.997 170.658C178.091 170.552 178.082 170.389 177.977 170.294L173.465 166.252C173.359 166.158 173.196 166.167 173.101 166.272L172.568 166.868C172.473 166.974 172.482 167.137 172.588 167.231L177.1 171.273C177.206 171.368 177.369 171.359 177.463 171.253ZM181.972 165.935L182.458 165.297C182.544 165.184 182.522 165.022 182.408 164.936L177.587 161.269C177.474 161.184 177.312 161.206 177.227 161.319L176.745 161.952C176.659 162.065 176.682 162.226 176.795 162.312L179.836 164.626L175.118 164.284C175.034 164.278 174.949 164.313 174.894 164.385L174.409 165.024C174.323 165.137 174.345 165.298 174.458 165.384L179.28 169.051C179.393 169.137 179.554 169.115 179.64 169.002L180.126 168.363C180.212 168.25 180.19 168.088 180.076 168.003L177.051 165.701L181.749 166.037C181.833 166.042 181.918 166.007 181.972 165.935ZM180.702 156.891L183.293 160.62L178.955 159.286C178.853 159.255 178.737 159.29 178.671 159.381L178.169 160.068C178.146 160.096 178.128 160.129 178.118 160.166C178.079 160.303 178.159 160.445 178.296 160.484L184.511 162.242C184.612 162.27 184.724 162.235 184.789 162.146L185.195 161.589C185.267 161.504 185.277 161.378 185.213 161.281L181.643 155.896C181.626 155.871 181.605 155.849 181.58 155.83C181.465 155.747 181.304 155.772 181.22 155.887L180.719 156.574C180.643 156.661 180.633 156.792 180.702 156.891ZM185.617 155.922L186.902 153.934C186.979 153.814 186.944 153.654 186.824 153.577L186.273 153.221C186.153 153.145 185.993 153.179 185.917 153.299L184.633 155.286L183.428 154.507L184.92 152.197C184.997 152.077 184.962 151.918 184.842 151.841L184.291 151.485C184.171 151.408 184.012 151.443 183.935 151.562L181.869 154.76C181.792 154.88 181.827 155.04 181.947 155.117L187.035 158.403C187.155 158.48 187.315 158.445 187.392 158.326L189.479 155.093C189.556 154.974 189.521 154.814 189.402 154.737L188.85 154.381C188.731 154.304 188.571 154.339 188.494 154.459L186.98 156.802L185.617 155.922ZM187.998 151.41C188.227 151.231 188.467 151.004 188.717 150.729C188.902 150.526 189.069 150.36 189.215 150.234C189.352 150.115 189.471 150.031 189.568 149.984C189.65 149.945 189.733 149.926 189.817 149.929C189.905 149.932 190 149.958 190.099 150.007C190.196 150.054 190.273 150.114 190.329 150.185C190.382 150.252 190.418 150.334 190.438 150.429L190.439 150.439C190.46 150.544 190.458 150.662 190.432 150.792C190.404 150.934 190.349 151.09 190.266 151.257C190.177 151.438 190.077 151.589 189.967 151.709C189.864 151.821 189.753 151.906 189.634 151.966L189.622 151.971C189.504 152.028 189.385 152.056 189.267 152.054C189.146 152.052 189.021 152.019 188.892 151.955C188.764 151.893 188.61 151.945 188.548 152.073L188.194 152.792C188.131 152.919 188.183 153.074 188.311 153.137C188.492 153.226 188.678 153.286 188.868 153.316C189.057 153.346 189.249 153.345 189.441 153.314C189.633 153.284 189.82 153.224 190.002 153.137C190.176 153.054 190.345 152.945 190.508 152.811L190.523 152.799C190.687 152.661 190.837 152.506 190.97 152.333C191.101 152.164 191.217 151.977 191.317 151.774C191.47 151.463 191.572 151.165 191.622 150.881C191.673 150.592 191.673 150.314 191.62 150.046L191.618 150.036C191.562 149.759 191.454 149.519 191.296 149.315C191.138 149.113 190.93 148.948 190.673 148.821C190.515 148.743 190.357 148.688 190.201 148.655C190.05 148.624 189.9 148.613 189.75 148.624L189.727 148.625C189.572 148.638 189.415 148.675 189.255 148.734C189.101 148.791 188.947 148.87 188.793 148.969C188.645 149.065 188.485 149.19 188.317 149.343C188.149 149.494 187.976 149.669 187.799 149.867C187.635 150.049 187.486 150.198 187.353 150.311L187.339 150.322C187.212 150.429 187.1 150.506 187.003 150.553L186.991 150.558C186.901 150.599 186.817 150.62 186.739 150.62C186.666 150.621 186.593 150.604 186.522 150.571L186.511 150.565C186.406 150.514 186.324 150.451 186.264 150.378C186.207 150.308 186.168 150.225 186.147 150.127C186.125 150.023 186.125 149.909 186.147 149.787C186.172 149.653 186.222 149.508 186.298 149.353C186.38 149.188 186.471 149.052 186.573 148.947C186.667 148.849 186.77 148.777 186.88 148.732C186.988 148.689 187.1 148.672 187.217 148.68C187.339 148.689 187.467 148.727 187.601 148.793C187.729 148.855 187.883 148.802 187.945 148.675L188.3 147.954C188.362 147.827 188.309 147.673 188.182 147.61C188.008 147.525 187.83 147.466 187.649 147.434C187.468 147.402 187.282 147.396 187.091 147.417C186.9 147.437 186.716 147.484 186.537 147.557C186.364 147.629 186.198 147.726 186.039 147.847L186.03 147.854C185.869 147.977 185.723 148.122 185.591 148.287C185.463 148.449 185.348 148.633 185.247 148.838C185.101 149.136 185.006 149.426 184.963 149.708C184.919 149.992 184.928 150.269 184.989 150.539L184.992 150.55C185.056 150.826 185.168 151.066 185.327 151.27C185.487 151.473 185.691 151.637 185.94 151.759C186.162 151.868 186.388 151.928 186.618 151.937C186.846 151.947 187.076 151.907 187.307 151.817C187.53 151.73 187.761 151.594 187.998 151.41ZM189.103 143.64L189.805 142.103C189.864 141.974 189.807 141.821 189.678 141.762L189.081 141.49C188.952 141.431 188.799 141.487 188.74 141.617L186.795 145.877C186.736 146.006 186.793 146.159 186.922 146.218L187.519 146.49C187.648 146.549 187.801 146.493 187.86 146.363L188.56 144.83L193.239 146.966C193.369 147.025 193.522 146.968 193.581 146.839L193.91 146.117C193.969 145.988 193.912 145.835 193.783 145.776L189.103 143.64ZM195.368 142.65L195.659 141.906C195.711 141.774 195.645 141.624 195.513 141.572L189.873 139.362C189.74 139.311 189.59 139.376 189.539 139.509L189.247 140.253C189.195 140.386 189.261 140.535 189.393 140.587L195.034 142.797C195.166 142.849 195.316 142.783 195.368 142.65ZM197.423 135.563C197.357 135.368 197.264 135.188 197.145 135.024C197.115 134.98 197.07 134.944 197.015 134.926L194.913 134.205C194.778 134.16 194.632 134.232 194.586 134.367L193.874 136.444C193.828 136.579 193.9 136.726 194.034 136.772L194.656 136.985C194.791 137.03 194.937 136.958 194.983 136.823L195.353 135.742L196.287 136.062C196.306 136.11 196.321 136.159 196.332 136.209C196.35 136.294 196.357 136.385 196.353 136.48C196.349 136.582 196.335 136.691 196.311 136.807C196.287 136.923 196.252 137.048 196.206 137.182C196.133 137.396 196.029 137.572 195.893 137.71C195.761 137.844 195.597 137.946 195.4 138.015L195.388 138.019C195.179 138.09 194.951 138.12 194.704 138.107C194.452 138.095 194.177 138.038 193.882 137.938L193.403 137.774C193.088 137.665 192.821 137.538 192.602 137.395C192.396 137.259 192.235 137.109 192.12 136.946C192.013 136.791 191.949 136.624 191.931 136.446C191.912 136.265 191.939 136.067 192.01 135.853L192.014 135.843C192.124 135.521 192.286 135.296 192.499 135.168C192.713 135.039 192.992 135 193.336 135.051C193.457 135.068 193.577 134.998 193.617 134.878L193.876 134.122L193.885 134.087C193.912 133.947 193.819 133.812 193.68 133.786C193.356 133.725 193.053 133.716 192.77 133.757C192.48 133.799 192.212 133.895 191.967 134.042C191.725 134.189 191.513 134.384 191.333 134.626C191.158 134.863 191.014 135.144 190.904 135.468C190.768 135.865 190.712 136.242 190.736 136.6C190.76 136.96 190.866 137.299 191.052 137.614L191.057 137.624C191.243 137.937 191.502 138.212 191.832 138.449C192.15 138.678 192.535 138.87 192.985 139.025C193.092 139.066 193.204 139.103 193.316 139.14C193.35 139.152 193.384 139.163 193.418 139.174C193.445 139.183 193.472 139.193 193.499 139.202C193.782 139.296 194.059 139.359 194.329 139.39C194.602 139.422 194.867 139.422 195.122 139.39L195.123 139.389C195.384 139.356 195.627 139.291 195.852 139.196C196.079 139.099 196.289 138.971 196.48 138.811C196.669 138.652 196.834 138.468 196.974 138.258C197.113 138.05 197.227 137.819 197.314 137.565C197.397 137.322 197.458 137.085 197.495 136.855C197.532 136.623 197.546 136.4 197.536 136.185C197.526 135.964 197.488 135.756 197.423 135.563ZM197.236 132.018L197.826 129.923L199.327 129.809C199.433 129.801 199.526 129.729 199.557 129.621L199.778 128.832C199.786 128.803 199.789 128.772 199.786 128.74C199.773 128.598 199.648 128.494 199.507 128.506L193.064 129.097C192.954 129.1 192.854 129.173 192.823 129.285L192.634 129.957C192.606 130.057 192.641 130.169 192.729 130.234L197.923 134.091C197.95 134.114 197.982 134.131 198.018 134.141C198.155 134.18 198.298 134.1 198.336 133.963L198.559 133.17C198.587 133.068 198.551 132.955 198.46 132.89L197.236 132.018ZM195.096 124.372L195.368 122.705C195.391 122.564 195.295 122.432 195.155 122.409L194.507 122.303C194.367 122.281 194.234 122.376 194.212 122.516L193.459 127.138C193.436 127.279 193.531 127.411 193.672 127.434L194.319 127.539C194.46 127.562 194.592 127.467 194.615 127.327L194.886 125.664L199.963 126.491C200.103 126.513 200.236 126.418 200.258 126.278L200.386 125.494C200.409 125.354 200.314 125.221 200.173 125.199L195.096 124.372ZM200.972 121.784L201.075 120.991C201.093 120.85 200.993 120.722 200.852 120.704L194.845 119.927C194.704 119.909 194.575 120.009 194.557 120.15L194.454 120.942C194.437 121.083 194.536 121.212 194.677 121.23L200.685 122.007C200.826 122.025 200.955 121.925 200.972 121.784ZM199.596 113.709C199.327 113.636 199.035 113.587 198.722 113.563L198.34 113.534C198.029 113.511 197.735 113.515 197.456 113.547C197.184 113.578 196.926 113.636 196.682 113.722L196.661 113.729C196.408 113.819 196.182 113.936 195.983 114.079C195.787 114.219 195.616 114.386 195.471 114.578L195.459 114.593C195.319 114.781 195.206 114.989 195.123 115.215L195.114 115.237C195.032 115.467 194.98 115.715 194.96 115.98C194.94 116.241 194.954 116.492 195.002 116.73C195.05 116.97 195.132 117.199 195.249 117.415C195.366 117.632 195.514 117.828 195.692 118.002C195.864 118.17 196.066 118.318 196.296 118.446L196.309 118.454C196.541 118.581 196.794 118.682 197.066 118.758C197.337 118.833 197.626 118.882 197.932 118.905L198.37 118.938C198.67 118.958 198.956 118.951 199.229 118.916C199.507 118.88 199.766 118.816 200.007 118.724C200.253 118.631 200.474 118.512 200.67 118.369C200.869 118.223 201.041 118.052 201.187 117.857C201.332 117.662 201.447 117.45 201.531 117.218C201.614 116.989 201.665 116.744 201.685 116.484C201.705 116.218 201.692 115.965 201.646 115.725C201.6 115.483 201.519 115.254 201.404 115.039C201.289 114.823 201.143 114.629 200.967 114.457C200.793 114.288 200.588 114.139 200.354 114.011C200.129 113.889 199.884 113.79 199.619 113.716L199.596 113.709ZM201.956 108.149L201.969 107.346C201.971 107.204 201.857 107.087 201.715 107.085L195.659 106.984C195.517 106.982 195.4 107.095 195.397 107.238L195.384 108.033C195.382 108.175 195.495 108.292 195.638 108.294L199.459 108.358L195.454 110.876C195.382 110.92 195.335 110.999 195.333 111.089L195.32 111.892C195.318 112.034 195.431 112.151 195.573 112.153L201.63 112.254C201.772 112.256 201.889 112.142 201.891 112L201.905 111.198C201.907 111.056 201.794 110.939 201.651 110.937L197.85 110.873L201.835 108.362C201.906 108.317 201.954 108.239 201.956 108.149Z" fill="#50505A"/>
<path d="M108 158.89C109.444 158.89 110.615 157.719 110.615 156.275V145.815C110.615 144.371 109.444 143.2 108 143.2C106.556 143.2 105.385 144.371 105.385 145.815V156.275C105.385 157.719 106.556 158.89 108 158.89Z" fill="#50505A"/>
</svg>
