<svg width="182" height="34" viewBox="0 0 182 34" fill="none" xmlns="http://www.w3.org/2000/svg">
<g id="everwallet_footer 1" clip-path="url(#clip0_531_6999)">
<g id="Clip path group">
<mask id="mask0_531_6999" style="mask-type:luminance" maskUnits="userSpaceOnUse" x="0" y="0" width="182" height="34">
<g id="clip0_9450_39261">
<path id="Vector" d="M181.904 0H0V34H181.904V0Z" fill="white"/>
</g>
</mask>
<g mask="url(#mask0_531_6999)">
<g id="Group">
<path id="Vector_2" d="M39.4277 6.43549H50.9027V9.13849H42.4877V13.754H49.3727V16.457H42.4877V21.5825H50.9027V24.2855H39.4277V6.43549Z" fill="#0088CC"/>
<path id="Vector_3" d="M52.5312 6.43549H55.8462L60.9463 20.7155L65.6382 6.43549H68.8512L62.7313 24.2855H59.1613L52.5312 6.43549Z" fill="#0088CC"/>
<path id="Vector_4" d="M71.2598 6.43555H82.7348V9.13855H74.3198V13.754H81.2048V16.457H74.3198V21.5825H82.7348V24.2855H71.2598V6.43555Z" fill="#0088CC"/>
<path id="Vector_5" d="M92.6501 17.5535H88.9526V24.2855H85.8926V6.43549H92.0381C94.4181 6.43549 96.1521 6.92849 97.2401 7.91449C98.3451 8.90049 98.8976 10.2605 98.8976 11.9945C98.8976 13.1845 98.6256 14.213 98.0816 15.08C97.5376 15.93 96.7046 16.5675 95.5826 16.9925L99.4076 24.2855H95.9396L92.6501 17.5535ZM88.9526 9.13849V14.8505H92.0381C93.3131 14.8505 94.2396 14.5955 94.8176 14.0855C95.3956 13.5585 95.6846 12.8615 95.6846 11.9945C95.6846 11.1105 95.3956 10.4135 94.8176 9.90349C94.2396 9.39349 93.3131 9.13849 92.0381 9.13849H88.9526Z" fill="#0088CC"/>
<path id="Vector_6" d="M119.366 8.55199L115.312 24.2855H113.017L108.044 6.43549H109.88L114.164 22.169L118.244 6.43549H120.539L124.874 22.1945L128.954 6.43549H130.739L126.022 24.2855H123.727L119.366 8.55199Z" fill="#0088CC"/>
<path id="Vector_7" d="M135.825 24.464C134.55 24.464 133.573 24.141 132.893 23.495C132.213 22.832 131.873 21.9225 131.873 20.7665C131.873 20.1545 131.966 19.602 132.153 19.109C132.357 18.599 132.672 18.174 133.097 17.834C133.539 17.494 134.1 17.2305 134.78 17.0435C135.46 16.8565 136.276 16.763 137.228 16.763H140.135V15.6155C140.135 14.6975 139.905 14.026 139.446 13.601C139.004 13.159 138.265 12.938 137.228 12.938C136.293 12.938 135.587 13.125 135.111 13.499C134.652 13.856 134.389 14.349 134.321 14.978H132.51C132.544 14.451 132.663 13.9665 132.867 13.5245C133.071 13.0825 133.369 12.7 133.76 12.377C134.151 12.054 134.635 11.8075 135.213 11.6375C135.791 11.4505 136.463 11.357 137.228 11.357C138.741 11.357 139.88 11.731 140.645 12.479C141.427 13.227 141.818 14.2725 141.818 15.6155V24.2855H140.517L140.262 21.8885C139.82 22.7045 139.208 23.342 138.426 23.801C137.661 24.243 136.794 24.464 135.825 24.464ZM135.953 22.883C136.531 22.883 137.075 22.781 137.585 22.577C138.095 22.356 138.537 22.067 138.911 21.71C139.302 21.336 139.599 20.911 139.803 20.435C140.024 19.942 140.135 19.4235 140.135 18.8795V18.293H137.228C135.919 18.293 134.984 18.5225 134.423 18.9815C133.879 19.4405 133.607 20.0355 133.607 20.7665C133.607 21.4125 133.802 21.931 134.193 22.322C134.601 22.696 135.188 22.883 135.953 22.883Z" fill="#0088CC"/>
<path id="Vector_8" d="M149.692 24.2855C148.621 24.2855 147.797 24.005 147.219 23.444C146.658 22.866 146.377 22.0245 146.377 20.9195V6.43549H148.06V20.7155C148.06 22.0755 148.672 22.7555 149.896 22.7555H150.712V24.2855H149.692Z" fill="#0088CC"/>
<path id="Vector_9" d="M157.328 24.2855C156.257 24.2855 155.433 24.005 154.855 23.444C154.294 22.866 154.013 22.0245 154.013 20.9195V6.43555H155.696V20.7155C155.696 22.0755 156.308 22.7555 157.532 22.7555H158.348V24.2855H157.328Z" fill="#0088CC"/>
<path id="Vector_10" d="M166.366 24.464C164.683 24.464 163.349 23.954 162.363 22.934C161.377 21.897 160.884 20.4095 160.884 18.4715V17.3495C160.884 15.4285 161.377 13.9495 162.363 12.9125C163.366 11.8755 164.7 11.357 166.366 11.357C168.032 11.357 169.358 11.8755 170.344 12.9125C171.347 13.9495 171.849 15.4285 171.849 17.3495V18.395H162.618V18.4715C162.618 19.9505 162.958 21.0555 163.638 21.7865C164.318 22.5175 165.227 22.883 166.366 22.883C167.42 22.883 168.219 22.662 168.763 22.22C169.324 21.778 169.732 21.2255 169.987 20.5625H171.721C171.585 21.1065 171.381 21.6165 171.109 22.0925C170.837 22.5685 170.48 22.985 170.038 23.342C169.596 23.682 169.069 23.954 168.457 24.158C167.845 24.362 167.148 24.464 166.366 24.464ZM166.366 12.938C165.261 12.938 164.378 13.2865 163.714 13.9835C163.068 14.6635 162.703 15.641 162.618 16.916H170.089C170.021 15.59 169.647 14.5955 168.967 13.9325C168.304 13.2695 167.437 12.938 166.366 12.938Z" fill="#0088CC"/>
<path id="Vector_11" d="M174.254 11.5355H176.549V7.96552H178.232V11.5355H181.649V13.0655H178.232V20.7155C178.232 22.0755 178.861 22.7555 180.119 22.7555H181.904V24.2855H179.915C178.81 24.2855 177.969 24.005 177.391 23.444C176.83 22.866 176.549 22.0245 176.549 20.9195V13.0655H174.254V11.5355Z" fill="#0088CC"/>
<path id="Vector_12" d="M0 14.2233L9.26431 4.85693H24.2857V19.9101L15.0596 29.1426V14.2233H0Z" fill="#0088CC"/>
</g>
</g>
</g>
</g>
<defs>
<clipPath id="clip0_531_6999">
<rect width="182" height="34" fill="white"/>
</clipPath>
</defs>
</svg>
