<svg width="169" height="31" viewBox="0 0 169 31" fill="none" xmlns="http://www.w3.org/2000/svg">
<g id="Group 6269728">
<path id="Vector" d="M148.984 15.4814C148.117 14.9031 147.144 14.4826 146.224 13.9831C145.62 13.6414 144.989 13.3523 144.489 12.9317C143.622 12.222 143.806 10.8026 144.7 10.1718C146.014 9.3044 148.195 9.77753 148.432 11.5649C148.432 11.5912 148.458 11.6175 148.511 11.6175H150.509C150.561 11.6175 150.587 11.5912 150.587 11.5386C150.482 10.3032 150.009 9.27811 149.142 8.62099C148.301 7.99014 147.354 7.64844 146.329 7.64844C141.072 7.64844 140.599 13.1946 143.438 14.9557C143.753 15.166 146.539 16.5591 147.512 17.1636C148.485 17.7682 148.8 18.8722 148.379 19.7659C147.985 20.5544 146.986 21.1064 145.988 21.0538C144.884 21.0013 144.042 20.3967 143.753 19.4767C143.701 19.319 143.674 18.9773 143.674 18.8459C143.674 18.8196 143.648 18.767 143.596 18.767H141.44C141.414 18.767 141.361 18.7933 141.361 18.8459C141.361 20.3967 141.756 21.2641 142.807 22.0527C143.806 22.7886 144.884 23.1041 146.014 23.1041C148.958 23.1041 150.482 21.4481 150.771 19.7133C151.008 18.0048 150.482 16.4802 148.984 15.4814Z" fill="#161616"/>
<path id="Vector_2" d="M116.022 7.91211C115.996 7.91211 115.97 7.93839 115.944 7.96468L114.182 13.8C114.156 13.8788 114.051 13.8788 114.025 13.8L112.264 7.96468C112.264 7.93839 112.237 7.91211 112.185 7.91211H108.899C108.873 7.91211 108.82 7.93839 108.82 7.99096V22.8683C108.82 22.8946 108.847 22.9472 108.899 22.9472H111.055C111.081 22.9472 111.133 22.9209 111.133 22.8683V11.5657C111.133 11.4869 111.265 11.4606 111.291 11.5395L113.078 17.401L113.21 17.8216C113.21 17.8479 113.236 17.8742 113.289 17.8742H114.945C114.971 17.8742 114.997 17.8479 115.024 17.8216L115.155 17.401L116.942 11.5395C116.969 11.4606 117.1 11.4869 117.1 11.5657V22.8683C117.1 22.8946 117.126 22.9472 117.179 22.9472H119.334C119.361 22.9472 119.413 22.9209 119.413 22.8683V7.99096C119.413 7.96468 119.387 7.91211 119.334 7.91211H116.022Z" fill="#161616"/>
<path id="Vector_3" d="M88.2657 7.91211H78.0935C78.0672 7.91211 78.0146 7.93839 78.0146 7.99096V9.85721C78.0146 9.88349 78.0409 9.93606 78.0935 9.93606H82.0362V22.8683C82.0362 22.8946 82.0626 22.9472 82.1151 22.9472H84.2704C84.2967 22.9472 84.3493 22.9209 84.3493 22.8683V9.93606H88.2921C88.3184 9.93606 88.3709 9.90978 88.3709 9.85721V7.99096C88.3446 7.96468 88.3183 7.91211 88.2657 7.91211Z" fill="#161616"/>
<path id="Vector_4" d="M95.8092 16.3757L97.3863 10.5667C97.4126 10.4879 97.5177 10.4879 97.544 10.5667L99.1211 16.3757C99.1211 16.4283 99.0949 16.4809 99.0423 16.4809H95.8881C95.8355 16.4809 95.8092 16.4283 95.8092 16.3757ZM100.961 22.947H102.932C102.985 22.947 103.011 22.8944 103.011 22.8419L98.9634 7.91195C98.9634 7.88566 98.9371 7.85938 98.8846 7.85938H96.0721C96.0458 7.85938 96.0195 7.88566 95.9932 7.91195L91.9453 22.8419C91.9453 22.8944 91.9716 22.947 92.0242 22.947H93.9955C94.0218 22.947 94.0481 22.9207 94.0744 22.8944L95.2572 18.5574C95.2572 18.5311 95.2835 18.5048 95.3361 18.5048H99.6731C99.6994 18.5048 99.7257 18.5311 99.752 18.5574L100.935 22.8944C100.882 22.9207 100.935 22.947 100.961 22.947Z" fill="#161616"/>
<path id="Vector_5" d="M129.217 16.3757L130.795 10.5667C130.821 10.4879 130.926 10.4879 130.952 10.5667L132.529 16.3757C132.529 16.4283 132.503 16.4809 132.45 16.4809H129.296C129.244 16.4809 129.217 16.4283 129.217 16.3757ZM134.369 22.947H136.341C136.393 22.947 136.42 22.8944 136.42 22.8419L132.372 7.91195C132.372 7.88566 132.345 7.85938 132.293 7.85938H129.48C129.454 7.85938 129.428 7.88566 129.401 7.91195L125.354 22.8419C125.354 22.8944 125.38 22.947 125.432 22.947H127.404C127.43 22.947 127.456 22.9207 127.483 22.8944L128.665 18.5574C128.665 18.5311 128.692 18.5048 128.744 18.5048H133.081C133.108 18.5048 133.134 18.5311 133.16 18.5574L134.343 22.8944C134.29 22.9207 134.317 22.947 134.369 22.947Z" fill="#161616"/>
<path id="Vector_6" d="M65.607 20.7392V16.1393C65.607 16.1131 65.6333 16.0605 65.6859 16.0605H71.416C71.4423 16.0605 71.4949 16.0342 71.4949 15.9816V14.1154C71.4949 14.0891 71.4686 14.0365 71.416 14.0365H65.6859C65.6596 14.0365 65.607 14.0102 65.607 13.9577V10.0149C65.607 9.98863 65.6333 9.93606 65.6859 9.93606H72.2046C72.2309 9.93606 72.2834 9.90978 72.2834 9.85721V7.99096C72.2834 7.96468 72.2571 7.91211 72.2046 7.91211H63.3728C63.3465 7.91211 63.2939 7.93839 63.2939 7.99096V22.842C63.2939 22.8683 63.3202 22.9209 63.3728 22.9209H72.4674C72.4937 22.9209 72.5463 22.8946 72.5463 22.842V20.8707C72.5463 20.8444 72.52 20.7918 72.4674 20.7918H65.6596C65.6333 20.8181 65.607 20.7918 65.607 20.7392Z" fill="#161616"/>
<path id="Vector_7" d="M168.645 22.8158L161.206 15.1142C161.18 15.0879 161.18 15.0354 161.206 15.0091L167.909 8.04353C167.962 7.99096 167.909 7.91211 167.857 7.91211H165.123C165.097 7.91211 165.097 7.91211 165.07 7.93839L159.393 13.8525C159.34 13.9051 159.261 13.8525 159.261 13.8V8.01725C159.261 7.99096 159.235 7.93839 159.182 7.93839H157.027C157.001 7.93839 156.948 7.96468 156.948 8.01725V22.8946C156.948 22.9209 156.975 22.9735 157.027 22.9735H159.182C159.209 22.9735 159.261 22.9472 159.261 22.8946V16.3496C159.261 16.2971 159.34 16.2445 159.393 16.2971L165.833 22.9472C165.833 22.9472 165.859 22.9735 165.885 22.9735H168.619C168.671 22.9472 168.698 22.8683 168.645 22.8158Z" fill="#161616"/>
<path id="Vector_8" d="M56.7759 7.91211H53.5166C53.4903 7.91211 53.464 7.93839 53.4377 7.96468L51.6766 13.8C51.6503 13.8788 51.5452 13.8788 51.5189 13.8L49.7578 7.96468C49.7578 7.93839 49.7315 7.91211 49.6789 7.91211H46.3933C46.367 7.91211 46.3145 7.93839 46.3145 7.99096V22.8683C46.3145 22.8946 46.3407 22.9472 46.3933 22.9472H48.5487C48.575 22.9472 48.6275 22.9209 48.6275 22.8683V11.5657C48.6275 11.4869 48.759 11.4606 48.7852 11.5395L50.5726 17.401L50.7041 17.8216C50.7041 17.8479 50.7303 17.8742 50.7829 17.8742H52.4389C52.4652 17.8742 52.4915 17.8479 52.5177 17.8216L52.6492 17.401L54.4365 11.5395C54.4628 11.4606 54.5943 11.4869 54.5943 11.5657V22.8683C54.5943 22.8946 54.6205 22.9472 54.6731 22.9472H56.8285C56.8548 22.9472 56.9073 22.9209 56.9073 22.8683V7.99096C56.8548 7.96468 56.8285 7.91211 56.7759 7.91211Z" fill="#161616"/>
<path id="Vector_9" d="M31.9102 0L18.7939 9.59406L21.2385 3.94276L31.9102 0Z" fill="#E27625"/>
<path id="Vector_10" d="M1.68164 0L14.6665 9.67291L12.3534 3.94276L1.68164 0Z" fill="#E27625"/>
<path id="Vector_11" d="M27.2049 22.2363L23.709 27.5196L31.1739 29.5436L33.3293 22.3678L27.2049 22.2363Z" fill="#E27625"/>
<path id="Vector_12" d="M0.289062 22.3678L2.41815 29.5436L9.85683 27.5196L6.3872 22.2363L0.289062 22.3678Z" fill="#E27625"/>
<path id="Vector_13" d="M9.46226 13.3523L7.38574 16.4277L14.7718 16.7694L14.5353 8.91016L9.46226 13.3523Z" fill="#E27625"/>
<path id="Vector_14" d="M24.1298 13.352L18.9779 8.80469L18.7939 16.7691L26.2063 16.4274L24.1298 13.352Z" fill="#E27625"/>
<path id="Vector_15" d="M9.85645 27.5212L14.3512 25.3921L10.4873 22.4219L9.85645 27.5212Z" fill="#E27625"/>
<path id="Vector_16" d="M19.2412 25.3921L23.7097 27.5212L23.1051 22.4219L19.2412 25.3921Z" fill="#E27625"/>
<path id="Vector_17" d="M23.7097 27.5217L19.2412 25.3926L19.6092 28.2577L19.5566 29.4668L23.7097 27.5217Z" fill="#D7C1B3"/>
<path id="Vector_18" d="M9.85645 27.5217L14.0095 29.4668L13.9832 28.2577L14.3512 25.3926L9.85645 27.5217Z" fill="#D7C1B3"/>
<path id="Vector_19" d="M14.088 20.53L10.3818 19.4524L13.0103 18.2695L14.088 20.53Z" fill="#2F343B"/>
<path id="Vector_20" d="M19.5039 20.53L20.5816 18.2695L23.2101 19.4524L19.5039 20.53Z" fill="#2F343B"/>
<path id="Vector_21" d="M9.85733 27.5196L10.5145 22.2363L6.3877 22.3678L9.85733 27.5196Z" fill="#CC6228"/>
<path id="Vector_22" d="M23.0781 22.2363L23.709 27.5196L27.2049 22.3678L23.0781 22.2363Z" fill="#CC6228"/>
<path id="Vector_23" d="M26.2063 16.4277L18.7939 16.7694L19.5036 20.5282L20.5813 18.2677L23.2098 19.4505L26.2063 16.4277Z" fill="#CC6228"/>
<path id="Vector_24" d="M10.3822 19.4505L13.0107 18.2677L14.0884 20.5282L14.7718 16.7694L7.38574 16.4277L10.3822 19.4505Z" fill="#CC6228"/>
<path id="Vector_25" d="M7.38574 16.4277L10.4874 22.4207L10.3822 19.4505L7.38574 16.4277Z" fill="#E27625"/>
<path id="Vector_26" d="M23.2096 19.4505L23.1045 22.4207L26.2061 16.4277L23.2096 19.4505Z" fill="#E27625"/>
<path id="Vector_27" d="M14.7723 16.7695L14.0889 20.5283L14.9563 24.9442L15.1666 19.1089L14.7723 16.7695Z" fill="#E27625"/>
<path id="Vector_28" d="M18.7939 16.7695L18.4521 19.1089L18.6099 24.9442L19.5036 20.5283L18.7939 16.7695Z" fill="#E27625"/>
<path id="Vector_29" d="M19.5041 20.5289L18.6104 24.9448L19.2412 25.3916L23.1051 22.4214L23.2103 19.4512L19.5041 20.5289Z" fill="#F5841F"/>
<path id="Vector_30" d="M10.3818 19.4512L10.487 22.4214L14.3509 25.3916L14.9554 24.9448L14.088 20.5289L10.3818 19.4512Z" fill="#F5841F"/>
<path id="Vector_31" d="M19.5556 29.4646L19.6082 28.2555L19.2665 27.9664H14.3249L13.9832 28.2555L14.0095 29.4646L9.85645 27.5195L11.3284 28.7024L14.2723 30.7H19.3191L22.263 28.7024L23.7087 27.5195L19.5556 29.4646Z" fill="#C0AD9E"/>
<path id="Vector_32" d="M19.2404 25.3922L18.6096 24.9453H14.9559L14.3514 25.3922L13.9834 28.2572L14.3251 27.9681H19.2667L19.6084 28.2572L19.2404 25.3922Z" fill="#2F343B"/>
<path id="Vector_33" d="M32.4626 10.2249L33.5666 4.91531L31.9106 0L19.2412 9.27863L24.1302 13.3528L31.0169 15.3242L32.5152 13.5631L31.8581 13.09L32.9095 12.1437L32.1209 11.5392L33.1723 10.7506L32.4626 10.2249Z" fill="#763E1A"/>
<path id="Vector_34" d="M0 4.91531L1.13026 10.2249L0.420561 10.7506L1.47197 11.5392L0.683412 12.1437L1.73482 13.09L1.0514 13.5631L2.57594 15.3242L9.46263 13.3528L14.3517 9.27863L1.68225 0L0 4.91531Z" fill="#763E1A"/>
<path id="Vector_35" d="M31.0163 15.3249L24.1296 13.3535L26.2061 16.4289L23.1045 22.4219L27.205 22.3693H33.3294L31.0163 15.3249Z" fill="#F5841F"/>
<path id="Vector_36" d="M9.46256 13.3535L2.57586 15.3249L0.289062 22.3693H6.3872L10.4877 22.4219L7.38604 16.4289L9.46256 13.3535Z" fill="#F5841F"/>
<path id="Vector_37" d="M18.7934 16.7685L19.2402 9.27728L21.2379 3.94141H12.3535L14.3512 9.27728L14.7717 16.7685L14.9557 19.1342V24.9432H18.6094L18.6356 19.1342L18.7934 16.7685Z" fill="#F5841F"/>
</g>
</svg>
