<svg width="330" height="314" viewBox="0 0 330 314" fill="none" xmlns="http://www.w3.org/2000/svg">
<path d="M278 26V214C278 225.046 269.046 234 258 234H231" stroke="#F0F4F7" stroke-width="19"/>
<path d="M165 210.5L165 47" stroke="#F0F4F7" stroke-width="19"/>
<path d="M52 20L52 214C52 225.046 60.9543 234 72 234H99" stroke="#F0F4F7" stroke-width="19"/>
<circle cx="165" cy="234" r="79" transform="rotate(-90 165 234)" fill="#FBFCFD" stroke="#F0F4F7" stroke-width="2"/>
<circle cx="165" cy="234" r="67" transform="rotate(-90 165 234)" fill="#FBFCFD" stroke="#F0F4F7" stroke-width="6"/>
<rect x="259" y="1" width="38" height="38" rx="19" fill="#FBFCFD"/>
<path fill-rule="evenodd" clip-rule="evenodd" d="M281.172 21.975C282.674 21.975 283.89 23.1919 283.89 24.6931C283.89 26.1942 282.674 27.4111 281.172 27.4111H280.191C279.891 27.4111 279.607 27.2734 279.421 27.0375L278.826 26.2815C278.66 26.0716 278.696 25.7673 278.906 25.602C279.116 25.4366 279.421 25.4727 279.586 25.6826L280.182 26.4386C280.184 26.4416 280.188 26.4434 280.191 26.4434H281.172C282.139 26.4434 282.923 25.6597 282.923 24.6931C282.923 23.7264 282.139 22.9427 281.172 22.9427H279.951C279.683 22.9427 279.467 22.7261 279.467 22.4589C279.467 22.1916 279.683 21.975 279.951 21.975H281.172ZM281.924 24.7408C281.924 25.0081 281.708 25.2247 281.44 25.2247H274.49C274.222 25.2247 274.006 25.0081 274.006 24.7408C274.006 24.4736 274.222 24.2569 274.49 24.2569H281.44C281.708 24.2569 281.924 24.4736 281.924 24.7408ZM275.734 22.948C275.731 22.9447 275.728 22.9427 275.723 22.9427L274.718 22.9427C273.751 22.9427 272.968 23.7264 272.968 24.6931C272.968 25.6597 273.751 26.4434 274.718 26.4434H275.979C276.246 26.4434 276.463 26.66 276.463 26.9272C276.463 27.1945 276.246 27.4111 275.979 27.4111H274.718C273.217 27.4111 272 26.1942 272 24.6931C272 23.1919 273.217 21.975 274.718 21.975H275.723C276.04 21.975 276.337 22.1276 276.521 22.3849L277.117 23.218C277.272 23.4353 277.222 23.7376 277.005 23.8931C276.788 24.0486 276.485 23.9985 276.33 23.7812L275.734 22.948Z" fill="#4E617D"/>
<path fill-rule="evenodd" clip-rule="evenodd" d="M272.5 10C272.5 7.79086 274.291 6 276.5 6H279.5C281.709 6 283.5 7.79086 283.5 10V13C283.5 15.2091 281.709 17 279.5 17H276.5C274.291 17 272.5 15.2091 272.5 13V10ZM276.5 7C274.843 7 273.5 8.34315 273.5 10V13C273.5 14.6569 274.843 16 276.5 16H279.5C281.157 16 282.5 14.6569 282.5 13V10C282.5 8.34315 281.157 7 279.5 7H276.5ZM266 24.5C266 21.4624 268.462 19 271.5 19H284.5C287.538 19 290 21.4624 290 24.5V29.25C290 29.9404 289.44 30.5 288.75 30.5H267.25C266.56 30.5 266 29.9404 266 29.25V24.5ZM271.5 20C269.015 20 267 22.0147 267 24.5V29.25C267 29.3881 267.112 29.5 267.25 29.5H288.75C288.888 29.5 289 29.3881 289 29.25V24.5C289 22.0147 286.985 20 284.5 20H271.5Z" fill="#4E617D"/>
<rect x="259" y="1" width="38" height="38" rx="19" stroke="#F0F4F7" stroke-width="2"/>
<rect x="146" y="26" width="38" height="38" rx="19" fill="#FBFCFD"/>
<path fill-rule="evenodd" clip-rule="evenodd" d="M168.172 46.975C169.674 46.975 170.89 48.1919 170.89 49.6931C170.89 51.1942 169.674 52.4111 168.172 52.4111H167.191C166.891 52.4111 166.607 52.2734 166.421 52.0375L165.826 51.2815C165.66 51.0716 165.696 50.7673 165.906 50.602C166.116 50.4366 166.421 50.4727 166.586 50.6826L167.182 51.4386C167.184 51.4416 167.188 51.4434 167.191 51.4434H168.172C169.139 51.4434 169.923 50.6597 169.923 49.6931C169.923 48.7264 169.139 47.9427 168.172 47.9427H166.951C166.683 47.9427 166.467 47.7261 166.467 47.4589C166.467 47.1916 166.683 46.975 166.951 46.975H168.172ZM168.924 49.7408C168.924 50.0081 168.708 50.2247 168.44 50.2247H161.49C161.222 50.2247 161.006 50.0081 161.006 49.7408C161.006 49.4736 161.222 49.2569 161.49 49.2569H168.44C168.708 49.2569 168.924 49.4736 168.924 49.7408ZM162.734 47.948C162.731 47.9447 162.728 47.9427 162.723 47.9427L161.718 47.9427C160.751 47.9427 159.968 48.7264 159.968 49.6931C159.968 50.6597 160.751 51.4434 161.718 51.4434H162.979C163.246 51.4434 163.463 51.66 163.463 51.9272C163.463 52.1945 163.246 52.4111 162.979 52.4111H161.718C160.217 52.4111 159 51.1942 159 49.6931C159 48.1919 160.217 46.975 161.718 46.975H162.723C163.04 46.975 163.337 47.1276 163.521 47.3849L164.117 48.218C164.272 48.4353 164.222 48.7376 164.005 48.8931C163.788 49.0486 163.485 48.9985 163.33 48.7812L162.734 47.948Z" fill="#4E617D"/>
<path fill-rule="evenodd" clip-rule="evenodd" d="M159.5 35C159.5 32.7909 161.291 31 163.5 31H166.5C168.709 31 170.5 32.7909 170.5 35V38C170.5 40.2091 168.709 42 166.5 42H163.5C161.291 42 159.5 40.2091 159.5 38V35ZM163.5 32C161.843 32 160.5 33.3431 160.5 35V38C160.5 39.6569 161.843 41 163.5 41H166.5C168.157 41 169.5 39.6569 169.5 38V35C169.5 33.3431 168.157 32 166.5 32H163.5ZM153 49.5C153 46.4624 155.462 44 158.5 44H171.5C174.538 44 177 46.4624 177 49.5V54.25C177 54.9404 176.44 55.5 175.75 55.5H154.25C153.56 55.5 153 54.9404 153 54.25V49.5ZM158.5 45C156.015 45 154 47.0147 154 49.5V54.25C154 54.3881 154.112 54.5 154.25 54.5H175.75C175.888 54.5 176 54.3881 176 54.25V49.5C176 47.0147 173.985 45 171.5 45H158.5Z" fill="#4E617D"/>
<rect x="146" y="26" width="38" height="38" rx="19" stroke="#F0F4F7" stroke-width="2"/>
<rect x="33" y="4" width="38" height="38" rx="19" fill="#FBFCFD"/>
<path fill-rule="evenodd" clip-rule="evenodd" d="M55.1724 24.975C56.6735 24.975 57.8904 26.1919 57.8904 27.6931C57.8904 29.1942 56.6735 30.4111 55.1724 30.4111H54.1914C53.8911 30.4111 53.6073 30.2734 53.4214 30.0375L52.8257 29.2815C52.6604 29.0716 52.6965 28.7673 52.9064 28.602C53.1163 28.4366 53.4205 28.4727 53.5859 28.6826L54.1815 29.4386C54.1839 29.4416 54.1876 29.4434 54.1914 29.4434H55.1724C56.139 29.4434 56.9227 28.6597 56.9227 27.6931C56.9227 26.7264 56.139 25.9427 55.1724 25.9427H53.9505C53.6833 25.9427 53.4667 25.7261 53.4667 25.4589C53.4667 25.1916 53.6833 24.975 53.9505 24.975H55.1724ZM55.9243 27.7408C55.9243 28.0081 55.7076 28.2247 55.4404 28.2247H48.4896C48.2224 28.2247 48.0057 28.0081 48.0057 27.7408C48.0057 27.4736 48.2224 27.2569 48.4896 27.2569H55.4404C55.7076 27.2569 55.9243 27.4736 55.9243 27.7408ZM49.7337 25.948C49.7313 25.9447 49.7275 25.9427 49.7234 25.9427L48.7181 25.9427C47.7514 25.9427 46.9677 26.7264 46.9677 27.6931C46.9677 28.6597 47.7514 29.4434 48.7181 29.4434H49.9787C50.2459 29.4434 50.4625 29.66 50.4625 29.9272C50.4625 30.1945 50.2459 30.4111 49.9787 30.4111H48.7181C47.2169 30.4111 46 29.1942 46 27.6931C46 26.1919 47.2169 24.975 48.7181 24.975H49.7234C50.0397 24.975 50.3366 25.1276 50.5207 25.3849L51.1169 26.218C51.2724 26.4353 51.2223 26.7376 51.005 26.8931C50.7877 27.0486 50.4854 26.9985 50.3299 26.7812L49.7337 25.948Z" fill="#4E617D"/>
<path fill-rule="evenodd" clip-rule="evenodd" d="M46.5002 13C46.5002 10.7909 48.2911 9 50.5002 9H53.5002C55.7094 9 57.5002 10.7909 57.5002 13V16C57.5002 18.2091 55.7094 20 53.5002 20H50.5002C48.2911 20 46.5002 18.2091 46.5002 16V13ZM50.5002 10C48.8434 10 47.5002 11.3431 47.5002 13V16C47.5002 17.6569 48.8434 19 50.5002 19H53.5002C55.1571 19 56.5002 17.6569 56.5002 16V13C56.5002 11.3431 55.1571 10 53.5002 10H50.5002ZM40 27.5C40 24.4624 42.4624 22 45.5 22H58.5C61.5376 22 64 24.4624 64 27.5V32.25C64 32.9404 63.4404 33.5 62.75 33.5H41.25C40.5596 33.5 40 32.9404 40 32.25V27.5ZM45.5 23C43.0147 23 41 25.0147 41 27.5V32.25C41 32.3881 41.1119 32.5 41.25 32.5H62.75C62.8881 32.5 63 32.3881 63 32.25V27.5C63 25.0147 60.9853 23 58.5 23H45.5Z" fill="#4E617D"/>
<rect x="33" y="4" width="38" height="38" rx="19" stroke="#F0F4F7" stroke-width="2"/>
<circle cx="165" cy="234" r="47.5" transform="rotate(-90 165 234)" fill="#FBFCFD" stroke="#F0F4F7" stroke-width="3"/>
<path d="M254 234L261 229.959V238.041L254 234ZM278.703 69V214H277.303V69H278.703ZM278.703 214C278.703 225.432 269.435 234.7 258.003 234.7V233.3C268.662 233.3 277.303 224.659 277.303 214H278.703Z" fill="#50505A"/>
<path d="M254 234L261 229.959V238.041L254 234ZM278.703 69V214H277.303V69H278.703ZM278.703 214C278.703 225.432 269.435 234.7 258.003 234.7V233.3C268.662 233.3 277.303 224.659 277.303 214H278.703Z" fill="url(#paint0_linear_2602_2001)"/>
<path d="M297 83C297 86.7578 295.886 90.4313 293.798 93.5558C291.71 96.6804 288.743 99.1156 285.271 100.554C281.799 101.992 277.979 102.368 274.293 101.635C270.608 100.902 267.222 99.0922 264.565 96.435C261.908 93.7778 260.098 90.3924 259.365 86.7067C258.632 83.0211 259.008 79.2008 260.446 75.729C261.884 72.2572 264.32 69.2898 267.444 67.2021C270.569 65.1143 274.242 64 278 64C283.039 64 287.872 66.0018 291.435 69.565C294.998 73.1282 297 77.9609 297 83Z" fill="#FBFCFD"/>
<path d="M297 83C297 86.7578 295.886 90.4313 293.798 93.5558C291.71 96.6804 288.743 99.1156 285.271 100.554C281.799 101.992 277.979 102.368 274.293 101.635C270.608 100.902 267.222 99.0922 264.565 96.435C261.908 93.7778 260.098 90.3924 259.365 86.7067C258.632 83.0211 259.008 79.2008 260.446 75.729C261.884 72.2572 264.32 69.2898 267.444 67.2021C270.569 65.1143 274.242 64 278 64C283.039 64 287.872 66.0018 291.435 69.565C294.998 73.1282 297 77.9609 297 83Z" stroke="#D0C018" stroke-width="2" stroke-linejoin="round"/>
<path d="M297 83C297 86.7578 295.886 90.4313 293.798 93.5558C291.71 96.6804 288.743 99.1156 285.271 100.554C281.799 101.992 277.979 102.368 274.293 101.635C270.608 100.902 267.222 99.0922 264.565 96.435C261.908 93.7778 260.098 90.3924 259.365 86.7067C258.632 83.0211 259.008 79.2008 260.446 75.729C261.884 72.2572 264.32 69.2898 267.444 67.2021C270.569 65.1143 274.242 64 278 64C283.039 64 287.872 66.0018 291.435 69.565C294.998 73.1282 297 77.9609 297 83Z" stroke="url(#paint1_linear_2602_2001)" stroke-width="2" stroke-linejoin="round"/>
<path d="M293.598 83.0005C293.598 86.0866 292.683 89.1034 290.968 91.6694C289.254 94.2354 286.817 96.2352 283.965 97.416C281.114 98.5968 277.977 98.9055 274.95 98.3032C271.923 97.7008 269.143 96.2143 266.961 94.0318C264.779 91.8492 263.293 89.0687 262.692 86.0417C262.09 83.0148 262.4 79.8774 263.582 77.0265C264.763 74.1755 266.764 71.739 269.33 70.0251C271.897 68.3112 274.914 67.3968 278 67.3977L278 67.3977C280.049 67.3971 282.078 67.8003 283.971 68.5843C285.864 69.3682 287.584 70.5175 289.033 71.9665C290.481 73.4154 291.63 75.1357 292.413 77.0289C293.197 78.922 293.599 80.9511 293.598 82.9999L294.598 83.0005H293.598Z" fill="#FBFCFD"/>
<path d="M293.598 83.0005C293.598 86.0866 292.683 89.1034 290.968 91.6694C289.254 94.2354 286.817 96.2352 283.965 97.416C281.114 98.5968 277.977 98.9055 274.95 98.3032C271.923 97.7008 269.143 96.2143 266.961 94.0318C264.779 91.8492 263.293 89.0687 262.692 86.0417C262.09 83.0148 262.4 79.8774 263.582 77.0265C264.763 74.1755 266.764 71.739 269.33 70.0251C271.897 68.3112 274.914 67.3968 278 67.3977L278 67.3977C280.049 67.3971 282.078 67.8003 283.971 68.5843C285.864 69.3682 287.584 70.5175 289.033 71.9665C290.481 73.4154 291.63 75.1357 292.413 77.0289C293.197 78.922 293.599 80.9511 293.598 82.9999L294.598 83.0005H293.598Z" stroke="#D0C018" stroke-width="2" stroke-linejoin="round"/>
<path d="M293.598 83.0005C293.598 86.0866 292.683 89.1034 290.968 91.6694C289.254 94.2354 286.817 96.2352 283.965 97.416C281.114 98.5968 277.977 98.9055 274.95 98.3032C271.923 97.7008 269.143 96.2143 266.961 94.0318C264.779 91.8492 263.293 89.0687 262.692 86.0417C262.09 83.0148 262.4 79.8774 263.582 77.0265C264.763 74.1755 266.764 71.739 269.33 70.0251C271.897 68.3112 274.914 67.3968 278 67.3977L278 67.3977C280.049 67.3971 282.078 67.8003 283.971 68.5843C285.864 69.3682 287.584 70.5175 289.033 71.9665C290.481 73.4154 291.63 75.1357 292.413 77.0289C293.197 78.922 293.599 80.9511 293.598 82.9999L294.598 83.0005H293.598Z" stroke="url(#paint2_linear_2602_2001)" stroke-width="2" stroke-linejoin="round"/>
<path d="M274.945 79.8795C274.683 79.8195 274.457 79.6569 274.316 79.4281C274.176 79.1993 274.133 78.9236 274.198 78.6631L274.491 77.4849C274.556 77.2275 274.719 77.006 274.947 76.8694C275.174 76.7328 275.447 76.6921 275.704 76.7564L276.957 77.0693L277.168 76.2239C277.302 75.6881 277.844 75.3622 278.38 75.4958L279.483 75.7707C279.637 75.8092 279.779 75.8836 279.897 75.986C280.046 75.9515 280.205 75.9508 280.363 75.9903L281.466 76.2652C281.724 76.3293 281.945 76.4931 282.082 76.7204C282.218 76.9478 282.259 77.2201 282.195 77.4774L281.953 78.4481C282.406 78.6654 282.836 78.9378 283.186 79.2901C283.801 79.9103 284.122 80.7365 283.973 81.7325L282.984 81.5845M274.945 79.8795L283.533 86.2098C283.828 85.3663 283.87 84.5525 283.549 83.8203C283.472 83.6432 283.378 83.4814 283.271 83.3333C283.652 82.9027 283.881 82.3565 283.973 81.7308L282.984 81.5845M274.945 79.8795L274.945 79.8795M274.945 79.8795L274.945 79.8795M282.984 81.5845C282.918 82.0339 282.767 82.3769 282.555 82.6325L280.773 79.0478C282.166 79.5275 283.184 80.2467 282.984 81.5845ZM274.945 79.8795L274.945 79.8795L274.945 79.8795L274.945 79.8796L274.947 79.88L274.954 79.8815L274.979 79.8873L275.07 79.9083C275.145 79.9258 275.245 79.9492 275.343 79.9727C275.36 79.9767 275.377 79.9808 275.393 79.9847M274.945 79.8795L275.393 79.9847M275.393 79.9847L274.999 81.5682C274.998 81.5722 274.997 81.5763 274.996 81.5803L274.425 83.8662C274.387 83.8562 274.351 83.8467 274.32 83.8384L274.229 83.8145L274.204 83.8078L274.197 83.8061L274.196 83.8057L274.195 83.8056L274.195 83.8056L274.195 83.8055C274.195 83.8055 274.195 83.8055 274.195 83.8055C273.717 83.6784 273.218 83.9201 273.021 84.3741L272.473 85.6368C272.356 85.9064 272.364 86.2139 272.494 86.4774C272.624 86.741 272.864 86.9339 273.149 87.005L274.402 87.3175L274.186 88.1868C274.052 88.7226 274.378 89.2651 274.914 89.3987L276.016 89.6737C276.17 89.7122 276.33 89.713 276.483 89.6778C276.601 89.7804 276.742 89.8548 276.897 89.8933L278 90.1683C278.536 90.3018 279.078 89.9758 279.212 89.44L279.449 88.4903C280.125 88.558 280.8 88.5418 281.42 88.3512C282.417 88.0443 283.141 87.3288 283.533 86.21L275.393 79.9847ZM275.05 78.71C275.085 78.6295 275.127 78.5602 275.172 78.5013C275.123 78.5659 275.082 78.636 275.05 78.71ZM273.777 84.7021C273.807 84.5955 273.851 84.5038 273.902 84.4258C273.846 84.5124 273.804 84.6057 273.777 84.7021C273.775 84.7091 273.773 84.7161 273.772 84.7231C273.773 84.716 273.775 84.709 273.777 84.7021ZM273.747 85.093C273.741 85.041 273.738 84.9856 273.741 84.9271C273.739 84.9824 273.741 85.0379 273.747 85.093L273.747 85.093ZM278.971 84.9253C278.742 84.9134 278.509 84.8773 278.282 84.831L278.405 84.3375C278.63 84.3999 278.857 84.4746 279.07 84.5713C279.33 84.6896 279.452 84.7931 279.495 84.8481C279.498 84.852 279.501 84.8491 279.501 84.8493C279.501 84.8495 279.499 84.8536 279.494 84.8761C279.423 84.9066 279.259 84.9403 278.971 84.9253ZM279.581 81.1675C279.698 81.223 279.77 81.271 279.811 81.304C279.755 81.315 279.665 81.3247 279.532 81.3198C279.411 81.3153 279.289 81.3016 279.167 81.2819L279.229 81.0309C279.349 81.0693 279.467 81.1138 279.581 81.1675Z" fill="#FBFCFD"/>
<path d="M274.945 79.8795C274.683 79.8195 274.457 79.6569 274.316 79.4281C274.176 79.1993 274.133 78.9236 274.198 78.6631L274.491 77.4849C274.556 77.2275 274.719 77.006 274.947 76.8694C275.174 76.7328 275.447 76.6921 275.704 76.7564L276.957 77.0693L277.168 76.2239C277.302 75.6881 277.844 75.3622 278.38 75.4958L279.483 75.7707C279.637 75.8092 279.779 75.8836 279.897 75.986C280.046 75.9515 280.205 75.9508 280.363 75.9903L281.466 76.2652C281.724 76.3293 281.945 76.4931 282.082 76.7204C282.218 76.9478 282.259 77.2201 282.195 77.4774L281.953 78.4481C282.406 78.6654 282.836 78.9378 283.186 79.2901C283.801 79.9103 284.122 80.7365 283.973 81.7325L282.984 81.5845M274.945 79.8795L283.533 86.2098C283.828 85.3663 283.87 84.5525 283.549 83.8203C283.472 83.6432 283.378 83.4814 283.271 83.3333C283.652 82.9027 283.881 82.3565 283.973 81.7308L282.984 81.5845M274.945 79.8795L274.945 79.8795M274.945 79.8795L274.945 79.8795M282.984 81.5845C282.918 82.0339 282.767 82.3769 282.555 82.6325L280.773 79.0478C282.166 79.5275 283.184 80.2467 282.984 81.5845ZM274.945 79.8795L274.945 79.8795L274.945 79.8795L274.945 79.8796L274.947 79.88L274.954 79.8815L274.979 79.8873L275.07 79.9083C275.145 79.9258 275.245 79.9492 275.343 79.9727C275.36 79.9767 275.377 79.9808 275.393 79.9847M274.945 79.8795L275.393 79.9847M275.393 79.9847L274.999 81.5682C274.998 81.5722 274.997 81.5763 274.996 81.5803L274.425 83.8662C274.387 83.8562 274.351 83.8467 274.32 83.8384L274.229 83.8145L274.204 83.8078L274.197 83.8061L274.196 83.8057L274.195 83.8056L274.195 83.8056L274.195 83.8055C274.195 83.8055 274.195 83.8055 274.195 83.8055C273.717 83.6784 273.218 83.9201 273.021 84.3741L272.473 85.6368C272.356 85.9064 272.364 86.2139 272.494 86.4774C272.624 86.741 272.864 86.9339 273.149 87.005L274.402 87.3175L274.186 88.1868C274.052 88.7226 274.378 89.2651 274.914 89.3987L276.016 89.6737C276.17 89.7122 276.33 89.713 276.483 89.6778C276.601 89.7804 276.742 89.8548 276.897 89.8933L278 90.1683C278.536 90.3018 279.078 89.9758 279.212 89.44L279.449 88.4903C280.125 88.558 280.8 88.5418 281.42 88.3512C282.417 88.0443 283.141 87.3288 283.533 86.21L275.393 79.9847ZM275.05 78.71C275.085 78.6295 275.127 78.5602 275.172 78.5013C275.123 78.5659 275.082 78.636 275.05 78.71ZM273.777 84.7021C273.807 84.5955 273.851 84.5038 273.902 84.4258C273.846 84.5124 273.804 84.6057 273.777 84.7021C273.775 84.7091 273.773 84.7161 273.772 84.7231C273.773 84.716 273.775 84.709 273.777 84.7021ZM273.747 85.093C273.741 85.041 273.738 84.9856 273.741 84.9271C273.739 84.9824 273.741 85.0379 273.747 85.093L273.747 85.093ZM278.971 84.9253C278.742 84.9134 278.509 84.8773 278.282 84.831L278.405 84.3375C278.63 84.3999 278.857 84.4746 279.07 84.5713C279.33 84.6896 279.452 84.7931 279.495 84.8481C279.498 84.852 279.501 84.8491 279.501 84.8493C279.501 84.8495 279.499 84.8536 279.494 84.8761C279.423 84.9066 279.259 84.9403 278.971 84.9253ZM279.581 81.1675C279.698 81.223 279.77 81.271 279.811 81.304C279.755 81.315 279.665 81.3247 279.532 81.3198C279.411 81.3153 279.289 81.3016 279.167 81.2819L279.229 81.0309C279.349 81.0693 279.467 81.1138 279.581 81.1675Z" stroke="#D0C018" stroke-width="2" stroke-linejoin="round"/>
<path d="M274.945 79.8795C274.683 79.8195 274.457 79.6569 274.316 79.4281C274.176 79.1993 274.133 78.9236 274.198 78.6631L274.491 77.4849C274.556 77.2275 274.719 77.006 274.947 76.8694C275.174 76.7328 275.447 76.6921 275.704 76.7564L276.957 77.0693L277.168 76.2239C277.302 75.6881 277.844 75.3622 278.38 75.4958L279.483 75.7707C279.637 75.8092 279.779 75.8836 279.897 75.986C280.046 75.9515 280.205 75.9508 280.363 75.9903L281.466 76.2652C281.724 76.3293 281.945 76.4931 282.082 76.7204C282.218 76.9478 282.259 77.2201 282.195 77.4774L281.953 78.4481C282.406 78.6654 282.836 78.9378 283.186 79.2901C283.801 79.9103 284.122 80.7365 283.973 81.7325L282.984 81.5845M274.945 79.8795L283.533 86.2098C283.828 85.3663 283.87 84.5525 283.549 83.8203C283.472 83.6432 283.378 83.4814 283.271 83.3333C283.652 82.9027 283.881 82.3565 283.973 81.7308L282.984 81.5845M274.945 79.8795L274.945 79.8795M274.945 79.8795L274.945 79.8795M282.984 81.5845C282.918 82.0339 282.767 82.3769 282.555 82.6325L280.773 79.0478C282.166 79.5275 283.184 80.2467 282.984 81.5845ZM274.945 79.8795L274.945 79.8795L274.945 79.8795L274.945 79.8796L274.947 79.88L274.954 79.8815L274.979 79.8873L275.07 79.9083C275.145 79.9258 275.245 79.9492 275.343 79.9727C275.36 79.9767 275.377 79.9808 275.393 79.9847M274.945 79.8795L275.393 79.9847M275.393 79.9847L274.999 81.5682C274.998 81.5722 274.997 81.5763 274.996 81.5803L274.425 83.8662C274.387 83.8562 274.351 83.8467 274.32 83.8384L274.229 83.8145L274.204 83.8078L274.197 83.8061L274.196 83.8057L274.195 83.8056L274.195 83.8056L274.195 83.8055C274.195 83.8055 274.195 83.8055 274.195 83.8055C273.717 83.6784 273.218 83.9201 273.021 84.3741L272.473 85.6368C272.356 85.9064 272.364 86.2139 272.494 86.4774C272.624 86.741 272.864 86.9339 273.149 87.005L274.402 87.3175L274.186 88.1868C274.052 88.7226 274.378 89.2651 274.914 89.3987L276.016 89.6737C276.17 89.7122 276.33 89.713 276.483 89.6778C276.601 89.7804 276.742 89.8548 276.897 89.8933L278 90.1683C278.536 90.3018 279.078 89.9758 279.212 89.44L279.449 88.4903C280.125 88.558 280.8 88.5418 281.42 88.3512C282.417 88.0443 283.141 87.3288 283.533 86.21L275.393 79.9847ZM275.05 78.71C275.085 78.6295 275.127 78.5602 275.172 78.5013C275.123 78.5659 275.082 78.636 275.05 78.71ZM273.777 84.7021C273.807 84.5955 273.851 84.5038 273.902 84.4258C273.846 84.5124 273.804 84.6057 273.777 84.7021C273.775 84.7091 273.773 84.7161 273.772 84.7231C273.773 84.716 273.775 84.709 273.777 84.7021ZM273.747 85.093C273.741 85.041 273.738 84.9856 273.741 84.9271C273.739 84.9824 273.741 85.0379 273.747 85.093L273.747 85.093ZM278.971 84.9253C278.742 84.9134 278.509 84.8773 278.282 84.831L278.405 84.3375C278.63 84.3999 278.857 84.4746 279.07 84.5713C279.33 84.6896 279.452 84.7931 279.495 84.8481C279.498 84.852 279.501 84.8491 279.501 84.8493C279.501 84.8495 279.499 84.8536 279.494 84.8761C279.423 84.9066 279.259 84.9403 278.971 84.9253ZM279.581 81.1675C279.698 81.223 279.77 81.271 279.811 81.304C279.755 81.315 279.665 81.3247 279.532 81.3198C279.411 81.3153 279.289 81.3016 279.167 81.2819L279.229 81.0309C279.349 81.0693 279.467 81.1138 279.581 81.1675Z" stroke="url(#paint3_linear_2602_2001)" stroke-width="2" stroke-linejoin="round"/>
<path d="M76 234L69 229.959V238.041L76 234ZM51.2998 121L51.2998 214H52.6998L52.6998 121H51.2998ZM51.2998 214C51.2998 225.432 60.5675 234.7 71.9998 234.7V233.3C61.3407 233.3 52.6998 224.659 52.6998 214H51.2998Z" fill="#50505A"/>
<path d="M76 234L69 229.959V238.041L76 234ZM51.2998 121L51.2998 214H52.6998L52.6998 121H51.2998ZM51.2998 214C51.2998 225.432 60.5675 234.7 71.9998 234.7V233.3C61.3407 233.3 52.6998 224.659 52.6998 214H51.2998Z" fill="url(#paint4_linear_2602_2001)"/>
<path d="M71 102C71 105.758 69.8857 109.431 67.7979 112.556C65.7102 115.68 62.7428 118.116 59.271 119.554C55.7992 120.992 51.9789 121.368 48.2933 120.635C44.6077 119.902 41.2222 118.092 38.565 115.435C35.9078 112.778 34.0982 109.392 33.3651 105.707C32.632 102.021 33.0082 98.2008 34.4463 94.729C35.8844 91.2572 38.3196 88.2898 41.4442 86.2021C44.5687 84.1143 48.2422 83 52 83C57.0391 83 61.8718 85.0018 65.435 88.565C68.9982 92.1282 71 96.9609 71 102Z" fill="#FBFCFD"/>
<path d="M71 102C71 105.758 69.8857 109.431 67.7979 112.556C65.7102 115.68 62.7428 118.116 59.271 119.554C55.7992 120.992 51.9789 121.368 48.2933 120.635C44.6077 119.902 41.2222 118.092 38.565 115.435C35.9078 112.778 34.0982 109.392 33.3651 105.707C32.632 102.021 33.0082 98.2008 34.4463 94.729C35.8844 91.2572 38.3196 88.2898 41.4442 86.2021C44.5687 84.1143 48.2422 83 52 83C57.0391 83 61.8718 85.0018 65.435 88.565C68.9982 92.1282 71 96.9609 71 102Z" stroke="#D0C018" stroke-width="2" stroke-linejoin="round"/>
<path d="M71 102C71 105.758 69.8857 109.431 67.7979 112.556C65.7102 115.68 62.7428 118.116 59.271 119.554C55.7992 120.992 51.9789 121.368 48.2933 120.635C44.6077 119.902 41.2222 118.092 38.565 115.435C35.9078 112.778 34.0982 109.392 33.3651 105.707C32.632 102.021 33.0082 98.2008 34.4463 94.729C35.8844 91.2572 38.3196 88.2898 41.4442 86.2021C44.5687 84.1143 48.2422 83 52 83C57.0391 83 61.8718 85.0018 65.435 88.565C68.9982 92.1282 71 96.9609 71 102Z" stroke="url(#paint5_linear_2602_2001)" stroke-width="2" stroke-linejoin="round"/>
<path d="M67.5982 102C67.5982 105.087 66.683 108.103 64.9683 110.669C63.2537 113.235 60.8166 115.235 57.9653 116.416C55.114 117.597 51.9766 117.906 48.9498 117.303C45.923 116.701 43.1429 115.214 40.961 113.032C38.7791 110.849 37.2934 108.069 36.6918 105.042C36.0903 102.015 36.3999 98.8774 37.5816 96.0265C38.7632 93.1755 40.7637 90.739 43.3302 89.0251C45.8966 87.3112 48.9137 86.3968 51.9998 86.3977L52.0004 86.3977C54.0493 86.3971 56.0782 86.8003 57.9711 87.5843C59.8641 88.3682 61.584 89.5175 63.0326 90.9665C64.4811 92.4154 65.6299 94.1357 66.4133 96.0289C67.1967 97.922 67.5993 99.9511 67.5982 102L68.5982 102H67.5982Z" fill="#FBFCFD"/>
<path d="M67.5982 102C67.5982 105.087 66.683 108.103 64.9683 110.669C63.2537 113.235 60.8166 115.235 57.9653 116.416C55.114 117.597 51.9766 117.906 48.9498 117.303C45.923 116.701 43.1429 115.214 40.961 113.032C38.7791 110.849 37.2934 108.069 36.6918 105.042C36.0903 102.015 36.3999 98.8774 37.5816 96.0265C38.7632 93.1755 40.7637 90.739 43.3302 89.0251C45.8966 87.3112 48.9137 86.3968 51.9998 86.3977L52.0004 86.3977C54.0493 86.3971 56.0782 86.8003 57.9711 87.5843C59.8641 88.3682 61.584 89.5175 63.0326 90.9665C64.4811 92.4154 65.6299 94.1357 66.4133 96.0289C67.1967 97.922 67.5993 99.9511 67.5982 102L68.5982 102H67.5982Z" stroke="#D0C018" stroke-width="2" stroke-linejoin="round"/>
<path d="M67.5982 102C67.5982 105.087 66.683 108.103 64.9683 110.669C63.2537 113.235 60.8166 115.235 57.9653 116.416C55.114 117.597 51.9766 117.906 48.9498 117.303C45.923 116.701 43.1429 115.214 40.961 113.032C38.7791 110.849 37.2934 108.069 36.6918 105.042C36.0903 102.015 36.3999 98.8774 37.5816 96.0265C38.7632 93.1755 40.7637 90.739 43.3302 89.0251C45.8966 87.3112 48.9137 86.3968 51.9998 86.3977L52.0004 86.3977C54.0493 86.3971 56.0782 86.8003 57.9711 87.5843C59.8641 88.3682 61.584 89.5175 63.0326 90.9665C64.4811 92.4154 65.6299 94.1357 66.4133 96.0289C67.1967 97.922 67.5993 99.9511 67.5982 102L68.5982 102H67.5982Z" stroke="url(#paint6_linear_2602_2001)" stroke-width="2" stroke-linejoin="round"/>
<path d="M48.9449 98.8795C48.6832 98.8195 48.4566 98.6569 48.3162 98.4281C48.1757 98.1993 48.1331 97.9236 48.198 97.6631L48.4914 96.4849C48.5555 96.2275 48.7193 96.006 48.9468 95.8694C49.1742 95.7328 49.4466 95.6921 49.704 95.7564L50.9571 96.0693L51.1681 95.2239C51.3018 94.6881 51.8445 94.3622 52.3803 94.4958L53.4828 94.7707C53.6372 94.8092 53.7786 94.8836 53.8966 94.986C54.0456 94.9515 54.2047 94.9508 54.3633 94.9903L55.4664 95.2652C55.7238 95.3293 55.9451 95.4931 56.0817 95.7204C56.2184 95.9478 56.2591 96.2201 56.1949 96.4774L55.9529 97.4481C56.4063 97.6654 56.8363 97.9378 57.1857 98.2901C57.801 98.9103 58.1221 99.7365 57.9731 100.732L56.9841 100.585M48.9449 98.8795L57.533 105.21C57.8284 104.366 57.87 103.552 57.5494 102.82C57.4719 102.643 57.3777 102.481 57.2707 102.333C57.6525 101.903 57.8808 101.357 57.9733 100.731L56.9841 100.585M48.9449 98.8795L48.9449 98.8795M48.9449 98.8795L48.9449 98.8795M56.9841 100.585C56.9176 101.034 56.7673 101.377 56.5545 101.633L54.7728 98.0478C56.1656 98.5275 57.1842 99.2467 56.9841 100.585ZM48.9449 98.8795L48.9449 98.8795L48.945 98.8795L48.9454 98.8796L48.947 98.88L48.9535 98.8815L48.9788 98.8873L49.0696 98.9083C49.145 98.9258 49.2446 98.9492 49.3431 98.9727C49.3601 98.9767 49.3768 98.9808 49.3933 98.9847M48.9449 98.8795L49.3933 98.9847M49.3933 98.9847L48.9985 100.568C48.9975 100.572 48.9966 100.576 48.9956 100.58L48.4254 102.866C48.3871 102.856 48.3512 102.847 48.3197 102.838L48.2291 102.815L48.2039 102.808L48.1974 102.806L48.1957 102.806L48.1954 102.806L48.1953 102.806L48.1953 102.806C48.1953 102.806 48.1953 102.806 48.1953 102.806C47.717 102.678 47.2177 102.92 47.0208 103.374L46.4732 104.637C46.3562 104.906 46.3638 105.214 46.494 105.477C46.6241 105.741 46.8636 105.934 47.1487 106.005L48.4022 106.317L48.1857 107.187C48.0523 107.723 48.3783 108.265 48.914 108.399L50.0158 108.674C50.1704 108.712 50.3303 108.713 50.4826 108.678C50.6007 108.78 50.7422 108.855 50.8968 108.893L51.9999 109.168C52.5357 109.302 53.0783 108.976 53.2119 108.44L53.4489 107.49C54.1252 107.558 54.8004 107.542 55.4199 107.351C56.4173 107.044 57.1413 106.329 57.5329 105.21L49.3933 98.9847ZM49.0504 97.71C49.0847 97.6295 49.1268 97.5602 49.1715 97.5013C49.1227 97.5659 49.0821 97.636 49.0504 97.71ZM47.7771 103.702C47.8066 103.596 47.8511 103.504 47.9025 103.426C47.846 103.512 47.8042 103.606 47.7772 103.702C47.7752 103.709 47.7733 103.716 47.7715 103.723C47.7733 103.716 47.7752 103.709 47.7771 103.702ZM47.7472 104.093C47.7408 104.041 47.7383 103.986 47.7411 103.927C47.7386 103.982 47.7407 104.038 47.7474 104.093L47.7472 104.093ZM52.9707 103.925C52.7424 103.913 52.5086 103.877 52.2816 103.831L52.4047 103.338C52.6301 103.4 52.8567 103.475 53.0697 103.571C53.3303 103.69 53.4524 103.793 53.4954 103.848C53.4984 103.852 53.5005 103.849 53.5008 103.849C53.5012 103.849 53.4992 103.854 53.4936 103.876C53.4227 103.907 53.2588 103.94 52.9707 103.925ZM53.5808 100.167C53.6984 100.223 53.7697 100.271 53.8105 100.304C53.7551 100.315 53.6654 100.325 53.5317 100.32C53.4109 100.315 53.2886 100.302 53.1667 100.282L53.2293 100.031C53.3493 100.069 53.4672 100.114 53.5808 100.167Z" fill="#FBFCFD"/>
<path d="M48.9449 98.8795C48.6832 98.8195 48.4566 98.6569 48.3162 98.4281C48.1757 98.1993 48.1331 97.9236 48.198 97.6631L48.4914 96.4849C48.5555 96.2275 48.7193 96.006 48.9468 95.8694C49.1742 95.7328 49.4466 95.6921 49.704 95.7564L50.9571 96.0693L51.1681 95.2239C51.3018 94.6881 51.8445 94.3622 52.3803 94.4958L53.4828 94.7707C53.6372 94.8092 53.7786 94.8836 53.8966 94.986C54.0456 94.9515 54.2047 94.9508 54.3633 94.9903L55.4664 95.2652C55.7238 95.3293 55.9451 95.4931 56.0817 95.7204C56.2184 95.9478 56.2591 96.2201 56.1949 96.4774L55.9529 97.4481C56.4063 97.6654 56.8363 97.9378 57.1857 98.2901C57.801 98.9103 58.1221 99.7365 57.9731 100.732L56.9841 100.585M48.9449 98.8795L57.533 105.21C57.8284 104.366 57.87 103.552 57.5494 102.82C57.4719 102.643 57.3777 102.481 57.2707 102.333C57.6525 101.903 57.8808 101.357 57.9733 100.731L56.9841 100.585M48.9449 98.8795L48.9449 98.8795M48.9449 98.8795L48.9449 98.8795M56.9841 100.585C56.9176 101.034 56.7673 101.377 56.5545 101.633L54.7728 98.0478C56.1656 98.5275 57.1842 99.2467 56.9841 100.585ZM48.9449 98.8795L48.9449 98.8795L48.945 98.8795L48.9454 98.8796L48.947 98.88L48.9535 98.8815L48.9788 98.8873L49.0696 98.9083C49.145 98.9258 49.2446 98.9492 49.3431 98.9727C49.3601 98.9767 49.3768 98.9808 49.3933 98.9847M48.9449 98.8795L49.3933 98.9847M49.3933 98.9847L48.9985 100.568C48.9975 100.572 48.9966 100.576 48.9956 100.58L48.4254 102.866C48.3871 102.856 48.3512 102.847 48.3197 102.838L48.2291 102.815L48.2039 102.808L48.1974 102.806L48.1957 102.806L48.1954 102.806L48.1953 102.806L48.1953 102.806C48.1953 102.806 48.1953 102.806 48.1953 102.806C47.717 102.678 47.2177 102.92 47.0208 103.374L46.4732 104.637C46.3562 104.906 46.3638 105.214 46.494 105.477C46.6241 105.741 46.8636 105.934 47.1487 106.005L48.4022 106.317L48.1857 107.187C48.0523 107.723 48.3783 108.265 48.914 108.399L50.0158 108.674C50.1704 108.712 50.3303 108.713 50.4826 108.678C50.6007 108.78 50.7422 108.855 50.8968 108.893L51.9999 109.168C52.5357 109.302 53.0783 108.976 53.2119 108.44L53.4489 107.49C54.1252 107.558 54.8004 107.542 55.4199 107.351C56.4173 107.044 57.1413 106.329 57.5329 105.21L49.3933 98.9847ZM49.0504 97.71C49.0847 97.6295 49.1268 97.5602 49.1715 97.5013C49.1227 97.5659 49.0821 97.636 49.0504 97.71ZM47.7771 103.702C47.8066 103.596 47.8511 103.504 47.9025 103.426C47.846 103.512 47.8042 103.606 47.7772 103.702C47.7752 103.709 47.7733 103.716 47.7715 103.723C47.7733 103.716 47.7752 103.709 47.7771 103.702ZM47.7472 104.093C47.7408 104.041 47.7383 103.986 47.7411 103.927C47.7386 103.982 47.7407 104.038 47.7474 104.093L47.7472 104.093ZM52.9707 103.925C52.7424 103.913 52.5086 103.877 52.2816 103.831L52.4047 103.338C52.6301 103.4 52.8567 103.475 53.0697 103.571C53.3303 103.69 53.4524 103.793 53.4954 103.848C53.4984 103.852 53.5005 103.849 53.5008 103.849C53.5012 103.849 53.4992 103.854 53.4936 103.876C53.4227 103.907 53.2588 103.94 52.9707 103.925ZM53.5808 100.167C53.6984 100.223 53.7697 100.271 53.8105 100.304C53.7551 100.315 53.6654 100.325 53.5317 100.32C53.4109 100.315 53.2886 100.302 53.1667 100.282L53.2293 100.031C53.3493 100.069 53.4672 100.114 53.5808 100.167Z" stroke="#D0C018" stroke-width="2" stroke-linejoin="round"/>
<path d="M48.9449 98.8795C48.6832 98.8195 48.4566 98.6569 48.3162 98.4281C48.1757 98.1993 48.1331 97.9236 48.198 97.6631L48.4914 96.4849C48.5555 96.2275 48.7193 96.006 48.9468 95.8694C49.1742 95.7328 49.4466 95.6921 49.704 95.7564L50.9571 96.0693L51.1681 95.2239C51.3018 94.6881 51.8445 94.3622 52.3803 94.4958L53.4828 94.7707C53.6372 94.8092 53.7786 94.8836 53.8966 94.986C54.0456 94.9515 54.2047 94.9508 54.3633 94.9903L55.4664 95.2652C55.7238 95.3293 55.9451 95.4931 56.0817 95.7204C56.2184 95.9478 56.2591 96.2201 56.1949 96.4774L55.9529 97.4481C56.4063 97.6654 56.8363 97.9378 57.1857 98.2901C57.801 98.9103 58.1221 99.7365 57.9731 100.732L56.9841 100.585M48.9449 98.8795L57.533 105.21C57.8284 104.366 57.87 103.552 57.5494 102.82C57.4719 102.643 57.3777 102.481 57.2707 102.333C57.6525 101.903 57.8808 101.357 57.9733 100.731L56.9841 100.585M48.9449 98.8795L48.9449 98.8795M48.9449 98.8795L48.9449 98.8795M56.9841 100.585C56.9176 101.034 56.7673 101.377 56.5545 101.633L54.7728 98.0478C56.1656 98.5275 57.1842 99.2467 56.9841 100.585ZM48.9449 98.8795L48.9449 98.8795L48.945 98.8795L48.9454 98.8796L48.947 98.88L48.9535 98.8815L48.9788 98.8873L49.0696 98.9083C49.145 98.9258 49.2446 98.9492 49.3431 98.9727C49.3601 98.9767 49.3768 98.9808 49.3933 98.9847M48.9449 98.8795L49.3933 98.9847M49.3933 98.9847L48.9985 100.568C48.9975 100.572 48.9966 100.576 48.9956 100.58L48.4254 102.866C48.3871 102.856 48.3512 102.847 48.3197 102.838L48.2291 102.815L48.2039 102.808L48.1974 102.806L48.1957 102.806L48.1954 102.806L48.1953 102.806L48.1953 102.806C48.1953 102.806 48.1953 102.806 48.1953 102.806C47.717 102.678 47.2177 102.92 47.0208 103.374L46.4732 104.637C46.3562 104.906 46.3638 105.214 46.494 105.477C46.6241 105.741 46.8636 105.934 47.1487 106.005L48.4022 106.317L48.1857 107.187C48.0523 107.723 48.3783 108.265 48.914 108.399L50.0158 108.674C50.1704 108.712 50.3303 108.713 50.4826 108.678C50.6007 108.78 50.7422 108.855 50.8968 108.893L51.9999 109.168C52.5357 109.302 53.0783 108.976 53.2119 108.44L53.4489 107.49C54.1252 107.558 54.8004 107.542 55.4199 107.351C56.4173 107.044 57.1413 106.329 57.5329 105.21L49.3933 98.9847ZM49.0504 97.71C49.0847 97.6295 49.1268 97.5602 49.1715 97.5013C49.1227 97.5659 49.0821 97.636 49.0504 97.71ZM47.7771 103.702C47.8066 103.596 47.8511 103.504 47.9025 103.426C47.846 103.512 47.8042 103.606 47.7772 103.702C47.7752 103.709 47.7733 103.716 47.7715 103.723C47.7733 103.716 47.7752 103.709 47.7771 103.702ZM47.7472 104.093C47.7408 104.041 47.7383 103.986 47.7411 103.927C47.7386 103.982 47.7407 104.038 47.7474 104.093L47.7472 104.093ZM52.9707 103.925C52.7424 103.913 52.5086 103.877 52.2816 103.831L52.4047 103.338C52.6301 103.4 52.8567 103.475 53.0697 103.571C53.3303 103.69 53.4524 103.793 53.4954 103.848C53.4984 103.852 53.5005 103.849 53.5008 103.849C53.5012 103.849 53.4992 103.854 53.4936 103.876C53.4227 103.907 53.2588 103.94 52.9707 103.925ZM53.5808 100.167C53.6984 100.223 53.7697 100.271 53.8105 100.304C53.7551 100.315 53.6654 100.325 53.5317 100.32C53.4109 100.315 53.2886 100.302 53.1667 100.282L53.2293 100.031C53.3493 100.069 53.4672 100.114 53.5808 100.167Z" stroke="url(#paint7_linear_2602_2001)" stroke-width="2" stroke-linejoin="round"/>
<rect x="125" y="194" width="80" height="80" rx="40" fill="#50505A"/>
<path d="M155 214C155 210.134 158.134 207 162 207H168C171.866 207 175 210.134 175 214V220C175 223.866 171.866 227 168 227H162C158.134 227 155 223.866 155 220V214Z" stroke="#F0F4F7" stroke-width="3"/>
<path d="M142 243C142 237.477 146.477 233 152 233H178C183.523 233 188 237.477 188 243V252.5C188 253.328 187.328 254 186.5 254H143.5C142.672 254 142 253.328 142 252.5V243Z" stroke="#F0F4F7" stroke-width="3"/>
<path d="M165 144L160.959 137H169.041L165 144ZM165.7 121V137.7H164.3V121H165.7Z" fill="#50505A"/>
<path d="M165 144L160.959 137H169.041L165 144ZM165.7 121V137.7H164.3V121H165.7Z" fill="url(#paint8_linear_2602_2001)"/>
<path d="M184 103C184 106.758 182.886 110.431 180.798 113.556C178.71 116.68 175.743 119.116 172.271 120.554C168.799 121.992 164.979 122.368 161.293 121.635C157.608 120.902 154.222 119.092 151.565 116.435C148.908 113.778 147.098 110.392 146.365 106.707C145.632 103.021 146.008 99.2008 147.446 95.729C148.884 92.2572 151.32 89.2898 154.444 87.2021C157.569 85.1143 161.242 84 165 84C170.039 84 174.872 86.0018 178.435 89.565C181.998 93.1282 184 97.9609 184 103Z" fill="#FBFCFD"/>
<path d="M184 103C184 106.758 182.886 110.431 180.798 113.556C178.71 116.68 175.743 119.116 172.271 120.554C168.799 121.992 164.979 122.368 161.293 121.635C157.608 120.902 154.222 119.092 151.565 116.435C148.908 113.778 147.098 110.392 146.365 106.707C145.632 103.021 146.008 99.2008 147.446 95.729C148.884 92.2572 151.32 89.2898 154.444 87.2021C157.569 85.1143 161.242 84 165 84C170.039 84 174.872 86.0018 178.435 89.565C181.998 93.1282 184 97.9609 184 103Z" stroke="#D0C018" stroke-width="2" stroke-linejoin="round"/>
<path d="M184 103C184 106.758 182.886 110.431 180.798 113.556C178.71 116.68 175.743 119.116 172.271 120.554C168.799 121.992 164.979 122.368 161.293 121.635C157.608 120.902 154.222 119.092 151.565 116.435C148.908 113.778 147.098 110.392 146.365 106.707C145.632 103.021 146.008 99.2008 147.446 95.729C148.884 92.2572 151.32 89.2898 154.444 87.2021C157.569 85.1143 161.242 84 165 84C170.039 84 174.872 86.0018 178.435 89.565C181.998 93.1282 184 97.9609 184 103Z" stroke="url(#paint9_linear_2602_2001)" stroke-width="2" stroke-linejoin="round"/>
<path d="M180.598 103C180.598 106.087 179.683 109.103 177.968 111.669C176.254 114.235 173.817 116.235 170.965 117.416C168.114 118.597 164.977 118.906 161.95 118.303C158.923 117.701 156.143 116.214 153.961 114.032C151.779 111.849 150.293 109.069 149.692 106.042C149.09 103.015 149.4 99.8774 150.582 97.0265C151.763 94.1755 153.764 91.739 156.33 90.0251C158.897 88.3112 161.914 87.3968 165 87.3977L165 87.3977C167.049 87.3971 169.078 87.8003 170.971 88.5843C172.864 89.3682 174.584 90.5175 176.033 91.9665C177.481 93.4154 178.63 95.1357 179.413 97.0289C180.197 98.922 180.599 100.951 180.598 103L181.598 103H180.598Z" fill="#FBFCFD"/>
<path d="M180.598 103C180.598 106.087 179.683 109.103 177.968 111.669C176.254 114.235 173.817 116.235 170.965 117.416C168.114 118.597 164.977 118.906 161.95 118.303C158.923 117.701 156.143 116.214 153.961 114.032C151.779 111.849 150.293 109.069 149.692 106.042C149.09 103.015 149.4 99.8774 150.582 97.0265C151.763 94.1755 153.764 91.739 156.33 90.0251C158.897 88.3112 161.914 87.3968 165 87.3977L165 87.3977C167.049 87.3971 169.078 87.8003 170.971 88.5843C172.864 89.3682 174.584 90.5175 176.033 91.9665C177.481 93.4154 178.63 95.1357 179.413 97.0289C180.197 98.922 180.599 100.951 180.598 103L181.598 103H180.598Z" stroke="#D0C018" stroke-width="2" stroke-linejoin="round"/>
<path d="M180.598 103C180.598 106.087 179.683 109.103 177.968 111.669C176.254 114.235 173.817 116.235 170.965 117.416C168.114 118.597 164.977 118.906 161.95 118.303C158.923 117.701 156.143 116.214 153.961 114.032C151.779 111.849 150.293 109.069 149.692 106.042C149.09 103.015 149.4 99.8774 150.582 97.0265C151.763 94.1755 153.764 91.739 156.33 90.0251C158.897 88.3112 161.914 87.3968 165 87.3977L165 87.3977C167.049 87.3971 169.078 87.8003 170.971 88.5843C172.864 89.3682 174.584 90.5175 176.033 91.9665C177.481 93.4154 178.63 95.1357 179.413 97.0289C180.197 98.922 180.599 100.951 180.598 103L181.598 103H180.598Z" stroke="url(#paint10_linear_2602_2001)" stroke-width="2" stroke-linejoin="round"/>
<path d="M161.945 99.8795C161.683 99.8195 161.457 99.6569 161.316 99.4281C161.176 99.1993 161.133 98.9236 161.198 98.6631L161.491 97.4849C161.556 97.2275 161.719 97.006 161.947 96.8694C162.174 96.7328 162.447 96.6921 162.704 96.7564L163.957 97.0693L164.168 96.2239C164.302 95.6881 164.844 95.3622 165.38 95.4958L166.483 95.7707C166.637 95.8092 166.779 95.8836 166.897 95.986C167.046 95.9515 167.205 95.9508 167.363 95.9903L168.466 96.2652C168.724 96.3293 168.945 96.4931 169.082 96.7204C169.218 96.9478 169.259 97.2201 169.195 97.4774L168.953 98.4481C169.406 98.6654 169.836 98.9378 170.186 99.2901C170.801 99.9103 171.122 100.736 170.973 101.732L169.984 101.585M161.945 99.8795L170.533 106.21C170.828 105.366 170.87 104.552 170.549 103.82C170.472 103.643 170.378 103.481 170.271 103.333C170.652 102.903 170.881 102.357 170.973 101.731L169.984 101.585M161.945 99.8795L161.945 99.8795M161.945 99.8795L161.945 99.8795M169.984 101.585C169.918 102.034 169.767 102.377 169.555 102.633L167.773 99.0478C169.166 99.5275 170.184 100.247 169.984 101.585ZM161.945 99.8795L161.945 99.8795L161.945 99.8795L161.945 99.8796L161.947 99.88L161.954 99.8815L161.979 99.8873L162.07 99.9083C162.145 99.9258 162.245 99.9492 162.343 99.9727C162.36 99.9767 162.377 99.9808 162.393 99.9847M161.945 99.8795L162.393 99.9847M162.393 99.9847L161.999 101.568C161.998 101.572 161.997 101.576 161.996 101.58L161.425 103.866C161.387 103.856 161.351 103.847 161.32 103.838L161.229 103.815L161.204 103.808L161.197 103.806L161.196 103.806L161.195 103.806L161.195 103.806L161.195 103.806C161.195 103.806 161.195 103.806 161.195 103.806C160.717 103.678 160.218 103.92 160.021 104.374L159.473 105.637C159.356 105.906 159.364 106.214 159.494 106.477C159.624 106.741 159.864 106.934 160.149 107.005L161.402 107.317L161.186 108.187C161.052 108.723 161.378 109.265 161.914 109.399L163.016 109.674C163.17 109.712 163.33 109.713 163.483 109.678C163.601 109.78 163.742 109.855 163.897 109.893L165 110.168C165.536 110.302 166.078 109.976 166.212 109.44L166.449 108.49C167.125 108.558 167.8 108.542 168.42 108.351C169.417 108.044 170.141 107.329 170.533 106.21L162.393 99.9847ZM162.05 98.71C162.085 98.6295 162.127 98.5602 162.172 98.5013C162.123 98.5659 162.082 98.636 162.05 98.71ZM160.777 104.702C160.807 104.596 160.851 104.504 160.902 104.426C160.846 104.512 160.804 104.606 160.777 104.702C160.775 104.709 160.773 104.716 160.772 104.723C160.773 104.716 160.775 104.709 160.777 104.702ZM160.747 105.093C160.741 105.041 160.738 104.986 160.741 104.927C160.739 104.982 160.741 105.038 160.747 105.093L160.747 105.093ZM165.971 104.925C165.742 104.913 165.509 104.877 165.282 104.831L165.405 104.338C165.63 104.4 165.857 104.475 166.07 104.571C166.33 104.69 166.452 104.793 166.495 104.848C166.498 104.852 166.501 104.849 166.501 104.849C166.501 104.849 166.499 104.854 166.494 104.876C166.423 104.907 166.259 104.94 165.971 104.925ZM166.581 101.167C166.698 101.223 166.77 101.271 166.811 101.304C166.755 101.315 166.665 101.325 166.532 101.32C166.411 101.315 166.289 101.302 166.167 101.282L166.229 101.031C166.349 101.069 166.467 101.114 166.581 101.167Z" fill="#FBFCFD"/>
<path d="M161.945 99.8795C161.683 99.8195 161.457 99.6569 161.316 99.4281C161.176 99.1993 161.133 98.9236 161.198 98.6631L161.491 97.4849C161.556 97.2275 161.719 97.006 161.947 96.8694C162.174 96.7328 162.447 96.6921 162.704 96.7564L163.957 97.0693L164.168 96.2239C164.302 95.6881 164.844 95.3622 165.38 95.4958L166.483 95.7707C166.637 95.8092 166.779 95.8836 166.897 95.986C167.046 95.9515 167.205 95.9508 167.363 95.9903L168.466 96.2652C168.724 96.3293 168.945 96.4931 169.082 96.7204C169.218 96.9478 169.259 97.2201 169.195 97.4774L168.953 98.4481C169.406 98.6654 169.836 98.9378 170.186 99.2901C170.801 99.9103 171.122 100.736 170.973 101.732L169.984 101.585M161.945 99.8795L170.533 106.21C170.828 105.366 170.87 104.552 170.549 103.82C170.472 103.643 170.378 103.481 170.271 103.333C170.652 102.903 170.881 102.357 170.973 101.731L169.984 101.585M161.945 99.8795L161.945 99.8795M161.945 99.8795L161.945 99.8795M169.984 101.585C169.918 102.034 169.767 102.377 169.555 102.633L167.773 99.0478C169.166 99.5275 170.184 100.247 169.984 101.585ZM161.945 99.8795L161.945 99.8795L161.945 99.8795L161.945 99.8796L161.947 99.88L161.954 99.8815L161.979 99.8873L162.07 99.9083C162.145 99.9258 162.245 99.9492 162.343 99.9727C162.36 99.9767 162.377 99.9808 162.393 99.9847M161.945 99.8795L162.393 99.9847M162.393 99.9847L161.999 101.568C161.998 101.572 161.997 101.576 161.996 101.58L161.425 103.866C161.387 103.856 161.351 103.847 161.32 103.838L161.229 103.815L161.204 103.808L161.197 103.806L161.196 103.806L161.195 103.806L161.195 103.806L161.195 103.806C161.195 103.806 161.195 103.806 161.195 103.806C160.717 103.678 160.218 103.92 160.021 104.374L159.473 105.637C159.356 105.906 159.364 106.214 159.494 106.477C159.624 106.741 159.864 106.934 160.149 107.005L161.402 107.317L161.186 108.187C161.052 108.723 161.378 109.265 161.914 109.399L163.016 109.674C163.17 109.712 163.33 109.713 163.483 109.678C163.601 109.78 163.742 109.855 163.897 109.893L165 110.168C165.536 110.302 166.078 109.976 166.212 109.44L166.449 108.49C167.125 108.558 167.8 108.542 168.42 108.351C169.417 108.044 170.141 107.329 170.533 106.21L162.393 99.9847ZM162.05 98.71C162.085 98.6295 162.127 98.5602 162.172 98.5013C162.123 98.5659 162.082 98.636 162.05 98.71ZM160.777 104.702C160.807 104.596 160.851 104.504 160.902 104.426C160.846 104.512 160.804 104.606 160.777 104.702C160.775 104.709 160.773 104.716 160.772 104.723C160.773 104.716 160.775 104.709 160.777 104.702ZM160.747 105.093C160.741 105.041 160.738 104.986 160.741 104.927C160.739 104.982 160.741 105.038 160.747 105.093L160.747 105.093ZM165.971 104.925C165.742 104.913 165.509 104.877 165.282 104.831L165.405 104.338C165.63 104.4 165.857 104.475 166.07 104.571C166.33 104.69 166.452 104.793 166.495 104.848C166.498 104.852 166.501 104.849 166.501 104.849C166.501 104.849 166.499 104.854 166.494 104.876C166.423 104.907 166.259 104.94 165.971 104.925ZM166.581 101.167C166.698 101.223 166.77 101.271 166.811 101.304C166.755 101.315 166.665 101.325 166.532 101.32C166.411 101.315 166.289 101.302 166.167 101.282L166.229 101.031C166.349 101.069 166.467 101.114 166.581 101.167Z" stroke="#D0C018" stroke-width="2" stroke-linejoin="round"/>
<path d="M161.945 99.8795C161.683 99.8195 161.457 99.6569 161.316 99.4281C161.176 99.1993 161.133 98.9236 161.198 98.6631L161.491 97.4849C161.556 97.2275 161.719 97.006 161.947 96.8694C162.174 96.7328 162.447 96.6921 162.704 96.7564L163.957 97.0693L164.168 96.2239C164.302 95.6881 164.844 95.3622 165.38 95.4958L166.483 95.7707C166.637 95.8092 166.779 95.8836 166.897 95.986C167.046 95.9515 167.205 95.9508 167.363 95.9903L168.466 96.2652C168.724 96.3293 168.945 96.4931 169.082 96.7204C169.218 96.9478 169.259 97.2201 169.195 97.4774L168.953 98.4481C169.406 98.6654 169.836 98.9378 170.186 99.2901C170.801 99.9103 171.122 100.736 170.973 101.732L169.984 101.585M161.945 99.8795L170.533 106.21C170.828 105.366 170.87 104.552 170.549 103.82C170.472 103.643 170.378 103.481 170.271 103.333C170.652 102.903 170.881 102.357 170.973 101.731L169.984 101.585M161.945 99.8795L161.945 99.8795M161.945 99.8795L161.945 99.8795M169.984 101.585C169.918 102.034 169.767 102.377 169.555 102.633L167.773 99.0478C169.166 99.5275 170.184 100.247 169.984 101.585ZM161.945 99.8795L161.945 99.8795L161.945 99.8795L161.945 99.8796L161.947 99.88L161.954 99.8815L161.979 99.8873L162.07 99.9083C162.145 99.9258 162.245 99.9492 162.343 99.9727C162.36 99.9767 162.377 99.9808 162.393 99.9847M161.945 99.8795L162.393 99.9847M162.393 99.9847L161.999 101.568C161.998 101.572 161.997 101.576 161.996 101.58L161.425 103.866C161.387 103.856 161.351 103.847 161.32 103.838L161.229 103.815L161.204 103.808L161.197 103.806L161.196 103.806L161.195 103.806L161.195 103.806L161.195 103.806C161.195 103.806 161.195 103.806 161.195 103.806C160.717 103.678 160.218 103.92 160.021 104.374L159.473 105.637C159.356 105.906 159.364 106.214 159.494 106.477C159.624 106.741 159.864 106.934 160.149 107.005L161.402 107.317L161.186 108.187C161.052 108.723 161.378 109.265 161.914 109.399L163.016 109.674C163.17 109.712 163.33 109.713 163.483 109.678C163.601 109.78 163.742 109.855 163.897 109.893L165 110.168C165.536 110.302 166.078 109.976 166.212 109.44L166.449 108.49C167.125 108.558 167.8 108.542 168.42 108.351C169.417 108.044 170.141 107.329 170.533 106.21L162.393 99.9847ZM162.05 98.71C162.085 98.6295 162.127 98.5602 162.172 98.5013C162.123 98.5659 162.082 98.636 162.05 98.71ZM160.777 104.702C160.807 104.596 160.851 104.504 160.902 104.426C160.846 104.512 160.804 104.606 160.777 104.702C160.775 104.709 160.773 104.716 160.772 104.723C160.773 104.716 160.775 104.709 160.777 104.702ZM160.747 105.093C160.741 105.041 160.738 104.986 160.741 104.927C160.739 104.982 160.741 105.038 160.747 105.093L160.747 105.093ZM165.971 104.925C165.742 104.913 165.509 104.877 165.282 104.831L165.405 104.338C165.63 104.4 165.857 104.475 166.07 104.571C166.33 104.69 166.452 104.793 166.495 104.848C166.498 104.852 166.501 104.849 166.501 104.849C166.501 104.849 166.499 104.854 166.494 104.876C166.423 104.907 166.259 104.94 165.971 104.925ZM166.581 101.167C166.698 101.223 166.77 101.271 166.811 101.304C166.755 101.315 166.665 101.325 166.532 101.32C166.411 101.315 166.289 101.302 166.167 101.282L166.229 101.031C166.349 101.069 166.467 101.114 166.581 101.167Z" stroke="url(#paint11_linear_2602_2001)" stroke-width="2" stroke-linejoin="round"/>
<defs>
<linearGradient id="paint0_linear_2602_2001" x1="285.322" y1="203.038" x2="262.697" y2="43.0587" gradientUnits="userSpaceOnUse">
<stop stop-color="#FF8562"/>
<stop offset="0.854333" stop-color="#D0C018"/>
</linearGradient>
<linearGradient id="paint1_linear_2602_2001" x1="294.226" y1="113.769" x2="250.154" y2="112.624" gradientUnits="userSpaceOnUse">
<stop stop-color="#FF8562"/>
<stop offset="0.854333" stop-color="#D0C018"/>
</linearGradient>
<linearGradient id="paint2_linear_2602_2001" x1="291.466" y1="108.543" x2="254.879" y2="107.593" gradientUnits="userSpaceOnUse">
<stop stop-color="#FF8562"/>
<stop offset="0.854333" stop-color="#D0C018"/>
</linearGradient>
<linearGradient id="paint3_linear_2602_2001" x1="282.102" y1="92.6257" x2="271.501" y2="92.4177" gradientUnits="userSpaceOnUse">
<stop stop-color="#FF8562"/>
<stop offset="0.854333" stop-color="#D0C018"/>
</linearGradient>
<linearGradient id="paint4_linear_2602_2001" x1="44.681" y1="207.943" x2="54.3096" y2="102.981" gradientUnits="userSpaceOnUse">
<stop stop-color="#FF8562"/>
<stop offset="0.854333" stop-color="#D0C018"/>
</linearGradient>
<linearGradient id="paint5_linear_2602_2001" x1="68.2264" y1="132.769" x2="24.1538" y2="131.624" gradientUnits="userSpaceOnUse">
<stop stop-color="#FF8562"/>
<stop offset="0.854333" stop-color="#D0C018"/>
</linearGradient>
<linearGradient id="paint6_linear_2602_2001" x1="65.4656" y1="127.543" x2="28.8791" y2="126.593" gradientUnits="userSpaceOnUse">
<stop stop-color="#FF8562"/>
<stop offset="0.854333" stop-color="#D0C018"/>
</linearGradient>
<linearGradient id="paint7_linear_2602_2001" x1="56.1018" y1="111.626" x2="45.5008" y2="111.418" gradientUnits="userSpaceOnUse">
<stop stop-color="#FF8562"/>
<stop offset="0.854333" stop-color="#D0C018"/>
</linearGradient>
<linearGradient id="paint8_linear_2602_2001" x1="166.269" y1="171.717" x2="137.445" y2="151.901" gradientUnits="userSpaceOnUse">
<stop stop-color="#FF8562"/>
<stop offset="0.854333" stop-color="#D0C018"/>
</linearGradient>
<linearGradient id="paint9_linear_2602_2001" x1="181.226" y1="133.769" x2="137.154" y2="132.624" gradientUnits="userSpaceOnUse">
<stop stop-color="#FF8562"/>
<stop offset="0.854333" stop-color="#D0C018"/>
</linearGradient>
<linearGradient id="paint10_linear_2602_2001" x1="178.466" y1="128.543" x2="141.879" y2="127.593" gradientUnits="userSpaceOnUse">
<stop stop-color="#FF8562"/>
<stop offset="0.854333" stop-color="#D0C018"/>
</linearGradient>
<linearGradient id="paint11_linear_2602_2001" x1="169.102" y1="112.626" x2="158.501" y2="112.418" gradientUnits="userSpaceOnUse">
<stop stop-color="#FF8562"/>
<stop offset="0.854333" stop-color="#D0C018"/>
</linearGradient>
</defs>
</svg>
