<?xml version="1.0" encoding="UTF-8"?> <svg xmlns="http://www.w3.org/2000/svg" id="Слой_1" data-name="Слой 1" viewBox="0 0 168.32 49.24"> <defs> <style>.cls-1{fill:#4d5759;}</style> </defs> <path class="cls-1" d="M47.62,1.62V36.93A10.7,10.7,0,0,1,36.93,47.62H12.31A10.7,10.7,0,0,1,1.62,36.93V12.31A10.7,10.7,0,0,1,12.31,1.62H47.62M49.24,0H12.31A12.31,12.31,0,0,0,0,12.31V36.93A12.31,12.31,0,0,0,12.31,49.24H36.93A12.31,12.31,0,0,0,49.24,36.93V0Z" transform="translate(0 0)"></path> <path class="cls-1" d="M40.69,18.46H34.78l-5.63,6.16V12.31H24.59v3q-.22-.29-.48-.57A9.37,9.37,0,0,0,17,12.07,8.09,8.09,0,0,0,10.39,15a7.12,7.12,0,0,0-1.5,5.73c1.06,4.74,5.46,5.5,8.69,5.92,2.55.33,5,.8,4.93,3.07S19.78,32.64,18,32.64c-4.55,0-4.7-3.36-4.7-3.36H8.44a8.19,8.19,0,0,0,2,5c1.7,1.91,4.25,2.87,7.58,2.87a9.84,9.84,0,0,0,6.56-2.31v2h4.56V31.09l1.62-1.76,4.61,7.57h5.31L34,25.81ZM24.59,24c-3.27-2.69-10.37-1-11.13-4.35-.4-1.76,1.35-3.32,3.63-3.32,2,0,4.09.46,4.87,3.32h2.63Z" transform="translate(0 0)"></path> <path class="cls-1" d="M60.85,33.82a3.23,3.23,0,0,0,1.08.16,1.66,1.66,0,0,0,1.22-.46,2.44,2.44,0,0,0,.62-1.18L57.28,18.6h4.31l4.17,9.86,3.65-9.86h4.11L67.67,32.14a12.23,12.23,0,0,1-2.42,4,4,4,0,0,1-2.86,1.3,4.37,4.37,0,0,1-.87,0,4,4,0,0,1-.64-.13l-.49-.15a2.43,2.43,0,0,0-.38-.13V33.47A2.47,2.47,0,0,0,60.85,33.82Z" transform="translate(0 0)"></path> <path class="cls-1" d="M80.55,31.78c-.25.08-.53.13-.84.21s-.64.1-1,.12a6.44,6.44,0,0,1-1,0A9.82,9.82,0,0,1,75.7,32a4.35,4.35,0,0,1-1.51-.66,2.94,2.94,0,0,1-.92-1.23,4.83,4.83,0,0,1-.3-1.81V23.35h3.52v4.22a2.27,2.27,0,0,0,.16.94,1.13,1.13,0,0,0,.43.61,1.51,1.51,0,0,0,.74.31,6.77,6.77,0,0,0,1.07.08,4.89,4.89,0,0,0,1.43-.16,4.07,4.07,0,0,0,.85-.38V23.35h3.52V36.94H81.17V31.58Z" transform="translate(0 0)"></path> <path class="cls-1" d="M98.33,35.25a1.64,1.64,0,0,0,.18.62.8.8,0,0,0,.26.36.77.77,0,0,0,.3.15v.56H95.16L95,36.3a2.57,2.57,0,0,1-.13-.94l-.79.79a5.6,5.6,0,0,1-.89.61A4.84,4.84,0,0,1,92,37.2a6.83,6.83,0,0,1-1.53.15,5.12,5.12,0,0,1-1.69-.26,4.07,4.07,0,0,1-1.32-.79A3.66,3.66,0,0,1,86.61,35a4.76,4.76,0,0,1-.31-1.81,4.44,4.44,0,0,1,.26-1.56,4.1,4.1,0,0,1,.74-1.25,4,4,0,0,1,1.17-.89A4.27,4.27,0,0,1,90,29l3.45-.51a4.18,4.18,0,0,0,.41-.08.82.82,0,0,0,.41-.17.89.89,0,0,0,.3-.31,1.16,1.16,0,0,0,.13-.56,2.3,2.3,0,0,0-.1-.62,1.24,1.24,0,0,0-.36-.48,1.58,1.58,0,0,0-.66-.33,4,4,0,0,0-1-.11,4.46,4.46,0,0,0-1.12.13,1.73,1.73,0,0,0-.69.41,1.68,1.68,0,0,0-.39.59l-.15.74H86.68a5,5,0,0,1,.08-.69,4.29,4.29,0,0,1,.31-1A5.54,5.54,0,0,1,87.68,25a3.86,3.86,0,0,1,1-1,5.25,5.25,0,0,1,1.56-.72,8.8,8.8,0,0,1,2.19-.31,10.6,10.6,0,0,1,3,.36,5.4,5.4,0,0,1,1.76,1,3.19,3.19,0,0,1,.84,1.33,5.64,5.64,0,0,1,.2,1.46v7.2A5.18,5.18,0,0,0,98.33,35.25Zm-4.24-4.64a3.24,3.24,0,0,1-.87.25l-.94.18a7.31,7.31,0,0,0-1.07.26,2.63,2.63,0,0,0-.77.38,1.67,1.67,0,0,0-.46.61,2.16,2.16,0,0,0-.15.87,2.29,2.29,0,0,0,.12.74,1.58,1.58,0,0,0,.41.54,1.5,1.5,0,0,0,.54.3,2.11,2.11,0,0,0,.71.11,4,4,0,0,0,.51-.06,3.29,3.29,0,0,0,.67-.15,3.8,3.8,0,0,0,.69-.36,2,2,0,0,0,.61-.56,2.07,2.07,0,0,0,.46-.87,3.94,3.94,0,0,0,.18-1.17V30.3A3.42,3.42,0,0,1,94.09,30.61Z" transform="translate(0 0)"></path> <path class="cls-1" d="M108.19,27.21a2,2,0,0,0-.44-.69,1.91,1.91,0,0,0-.69-.43,3.6,3.6,0,0,0-1-.13,2.21,2.21,0,0,0-1.41.41,2.62,2.62,0,0,0-.82,1,5.21,5.21,0,0,0-.38,1.38,13.58,13.58,0,0,0-.1,1.38,13.8,13.8,0,0,0,.07,1.4,4,4,0,0,0,.36,1.35,2.36,2.36,0,0,0,.82,1,2.3,2.3,0,0,0,1.46.4,2.09,2.09,0,0,0,1.07-.25,2.83,2.83,0,0,0,.74-.59,2.76,2.76,0,0,0,.46-.79,2.51,2.51,0,0,0,.13-.74h3.67a3.91,3.91,0,0,1-.1.87,7.61,7.61,0,0,1-.41,1.15,9.15,9.15,0,0,1-.71,1.2,5.11,5.11,0,0,1-1.15,1.07,5.7,5.7,0,0,1-1.58.79,6.61,6.61,0,0,1-2.12.31,7.49,7.49,0,0,1-2.74-.46,5.27,5.27,0,0,1-2-1.41,6.1,6.1,0,0,1-1.23-2.27,10.18,10.18,0,0,1-.43-3.06,9.35,9.35,0,0,1,.46-3.09,6.55,6.55,0,0,1,1.3-2.25,5.36,5.36,0,0,1,2-1.38,6.63,6.63,0,0,1,2.61-.49,10.36,10.36,0,0,1,1.3.11,5.64,5.64,0,0,1,1.3.33,8.2,8.2,0,0,1,1.25.64A4.85,4.85,0,0,1,111,25a5.06,5.06,0,0,1,.77,1.35,5.91,5.91,0,0,1,.38,1.81h-3.67A4.79,4.79,0,0,0,108.19,27.21Z" transform="translate(0 0)"></path> <path class="cls-1" d="M124.45,23.35v2.86h-4.11V36.94h-3.53V26.21H112.7V23.35Z" transform="translate(0 0)"></path> <path class="cls-1" d="M134.25,28.26V23.35h3.52V36.94h-3.52V31.12h-5.19v5.82h-3.52V23.35h3.52v4.91Z" transform="translate(0 0)"></path> <path class="cls-1" d="M143.71,31.73l5-8.38h3.7V36.94h-3.52v-8.2h-.06l-4.8,8.2h-3.85V23.35h3.52v8.38Z" transform="translate(0 0)"></path> <path class="cls-1" d="M163.39,23.35h4.7L162.47,29l5.85,7.94h-4.6l-4-5.75-1.43,1.46v4.29h-3.52V23.35h3.52v5.16Z" transform="translate(0 0)"></path> </svg> 